<svg xmlns="http://www.w3.org/2000/svg" xmlns:xlink="http://www.w3.org/1999/xlink" width="600" height="400" viewBox="0 0 2400 1600">
<defs>
  <clipPath id="clip380">
    <rect x="0" y="0" width="2400" height="1600"></rect>
  </clipPath>
</defs>
<path clip-path="url(#clip380)" d="M0 1600 L2400 1600 L2400 0 L0 0  Z" fill="#ffffff" fill-rule="evenodd" fill-opacity="1"></path>
<defs>
  <clipPath id="clip381">
    <rect x="480" y="0" width="1681" height="1600"></rect>
  </clipPath>
</defs>
<path clip-path="url(#clip380)" d="M232.389 1423.18 L2352.76 1423.18 L2352.76 47.2441 L232.389 47.2441  Z" fill="#ffffff" fill-rule="evenodd" fill-opacity="1"></path>
<defs>
  <clipPath id="clip382">
    <rect x="232" y="47" width="2121" height="1377"></rect>
  </clipPath>
</defs>
<polyline clip-path="url(#clip382)" style="stroke:#000000; stroke-linecap:round; stroke-linejoin:round; stroke-width:2; stroke-opacity:0.1; fill:none" points="290.397,1423.18 290.397,47.2441 "></polyline>
<polyline clip-path="url(#clip382)" style="stroke:#000000; stroke-linecap:round; stroke-linejoin:round; stroke-width:2; stroke-opacity:0.1; fill:none" points="790.984,1423.18 790.984,47.2441 "></polyline>
<polyline clip-path="url(#clip382)" style="stroke:#000000; stroke-linecap:round; stroke-linejoin:round; stroke-width:2; stroke-opacity:0.1; fill:none" points="1291.57,1423.18 1291.57,47.2441 "></polyline>
<polyline clip-path="url(#clip382)" style="stroke:#000000; stroke-linecap:round; stroke-linejoin:round; stroke-width:2; stroke-opacity:0.1; fill:none" points="1792.16,1423.18 1792.16,47.2441 "></polyline>
<polyline clip-path="url(#clip382)" style="stroke:#000000; stroke-linecap:round; stroke-linejoin:round; stroke-width:2; stroke-opacity:0.1; fill:none" points="2292.75,1423.18 2292.75,47.2441 "></polyline>
<polyline clip-path="url(#clip380)" style="stroke:#000000; stroke-linecap:round; stroke-linejoin:round; stroke-width:4; stroke-opacity:1; fill:none" points="232.389,1423.18 2352.76,1423.18 "></polyline>
<polyline clip-path="url(#clip380)" style="stroke:#000000; stroke-linecap:round; stroke-linejoin:round; stroke-width:4; stroke-opacity:1; fill:none" points="290.397,1423.18 290.397,1404.28 "></polyline>
<polyline clip-path="url(#clip380)" style="stroke:#000000; stroke-linecap:round; stroke-linejoin:round; stroke-width:4; stroke-opacity:1; fill:none" points="790.984,1423.18 790.984,1404.28 "></polyline>
<polyline clip-path="url(#clip380)" style="stroke:#000000; stroke-linecap:round; stroke-linejoin:round; stroke-width:4; stroke-opacity:1; fill:none" points="1291.57,1423.18 1291.57,1404.28 "></polyline>
<polyline clip-path="url(#clip380)" style="stroke:#000000; stroke-linecap:round; stroke-linejoin:round; stroke-width:4; stroke-opacity:1; fill:none" points="1792.16,1423.18 1792.16,1404.28 "></polyline>
<polyline clip-path="url(#clip380)" style="stroke:#000000; stroke-linecap:round; stroke-linejoin:round; stroke-width:4; stroke-opacity:1; fill:none" points="2292.75,1423.18 2292.75,1404.28 "></polyline>
<path clip-path="url(#clip380)" d="M290.397 1454.1 Q286.786 1454.1 284.958 1457.66 Q283.152 1461.2 283.152 1468.33 Q283.152 1475.44 284.958 1479.01 Q286.786 1482.55 290.397 1482.55 Q294.032 1482.55 295.837 1479.01 Q297.666 1475.44 297.666 1468.33 Q297.666 1461.2 295.837 1457.66 Q294.032 1454.1 290.397 1454.1 M290.397 1450.39 Q296.208 1450.39 299.263 1455 Q302.342 1459.58 302.342 1468.33 Q302.342 1477.06 299.263 1481.67 Q296.208 1486.25 290.397 1486.25 Q284.587 1486.25 281.509 1481.67 Q278.453 1477.06 278.453 1468.33 Q278.453 1459.58 281.509 1455 Q284.587 1450.39 290.397 1450.39 Z" fill="#000000" fill-rule="nonzero" fill-opacity="1"></path><path clip-path="url(#clip380)" d="M754.677 1481.64 L770.996 1481.64 L770.996 1485.58 L749.052 1485.58 L749.052 1481.64 Q751.714 1478.89 756.297 1474.26 Q760.904 1469.61 762.084 1468.27 Q764.329 1465.74 765.209 1464.01 Q766.112 1462.25 766.112 1460.56 Q766.112 1457.8 764.167 1456.07 Q762.246 1454.33 759.144 1454.33 Q756.945 1454.33 754.492 1455.09 Q752.061 1455.86 749.283 1457.41 L749.283 1452.69 Q752.107 1451.55 754.561 1450.97 Q757.015 1450.39 759.052 1450.39 Q764.422 1450.39 767.616 1453.08 Q770.811 1455.77 770.811 1460.26 Q770.811 1462.39 770.001 1464.31 Q769.214 1466.2 767.107 1468.8 Q766.529 1469.47 763.427 1472.69 Q760.325 1475.88 754.677 1481.64 Z" fill="#000000" fill-rule="nonzero" fill-opacity="1"></path><path clip-path="url(#clip380)" d="M780.857 1451.02 L799.214 1451.02 L799.214 1454.96 L785.14 1454.96 L785.14 1463.43 Q786.158 1463.08 787.177 1462.92 Q788.195 1462.73 789.214 1462.73 Q795.001 1462.73 798.38 1465.9 Q801.76 1469.08 801.76 1474.49 Q801.76 1480.07 798.288 1483.17 Q794.815 1486.25 788.496 1486.25 Q786.32 1486.25 784.052 1485.88 Q781.806 1485.51 779.399 1484.77 L779.399 1480.07 Q781.482 1481.2 783.704 1481.76 Q785.927 1482.32 788.403 1482.32 Q792.408 1482.32 794.746 1480.21 Q797.084 1478.1 797.084 1474.49 Q797.084 1470.88 794.746 1468.77 Q792.408 1466.67 788.403 1466.67 Q786.528 1466.67 784.653 1467.08 Q782.802 1467.5 780.857 1468.38 L780.857 1451.02 Z" fill="#000000" fill-rule="nonzero" fill-opacity="1"></path><path clip-path="url(#clip380)" d="M820.973 1454.1 Q817.362 1454.1 815.533 1457.66 Q813.727 1461.2 813.727 1468.33 Q813.727 1475.44 815.533 1479.01 Q817.362 1482.55 820.973 1482.55 Q824.607 1482.55 826.412 1479.01 Q828.241 1475.44 828.241 1468.33 Q828.241 1461.2 826.412 1457.66 Q824.607 1454.1 820.973 1454.1 M820.973 1450.39 Q826.783 1450.39 829.838 1455 Q832.917 1459.58 832.917 1468.33 Q832.917 1477.06 829.838 1481.67 Q826.783 1486.25 820.973 1486.25 Q815.163 1486.25 812.084 1481.67 Q809.028 1477.06 809.028 1468.33 Q809.028 1459.58 812.084 1455 Q815.163 1450.39 820.973 1450.39 Z" fill="#000000" fill-rule="nonzero" fill-opacity="1"></path><path clip-path="url(#clip380)" d="M1251.19 1451.02 L1269.55 1451.02 L1269.55 1454.96 L1255.47 1454.96 L1255.47 1463.43 Q1256.49 1463.08 1257.51 1462.92 Q1258.53 1462.73 1259.55 1462.73 Q1265.33 1462.73 1268.71 1465.9 Q1272.09 1469.08 1272.09 1474.49 Q1272.09 1480.07 1268.62 1483.17 Q1265.15 1486.25 1258.83 1486.25 Q1256.65 1486.25 1254.38 1485.88 Q1252.14 1485.51 1249.73 1484.77 L1249.73 1480.07 Q1251.81 1481.2 1254.04 1481.76 Q1256.26 1482.32 1258.74 1482.32 Q1262.74 1482.32 1265.08 1480.21 Q1267.42 1478.1 1267.42 1474.49 Q1267.42 1470.88 1265.08 1468.77 Q1262.74 1466.67 1258.74 1466.67 Q1256.86 1466.67 1254.99 1467.08 Q1253.13 1467.5 1251.19 1468.38 L1251.19 1451.02 Z" fill="#000000" fill-rule="nonzero" fill-opacity="1"></path><path clip-path="url(#clip380)" d="M1291.31 1454.1 Q1287.69 1454.1 1285.87 1457.66 Q1284.06 1461.2 1284.06 1468.33 Q1284.06 1475.44 1285.87 1479.01 Q1287.69 1482.55 1291.31 1482.55 Q1294.94 1482.55 1296.75 1479.01 Q1298.57 1475.44 1298.57 1468.33 Q1298.57 1461.2 1296.75 1457.66 Q1294.94 1454.1 1291.31 1454.1 M1291.31 1450.39 Q1297.12 1450.39 1300.17 1455 Q1303.25 1459.58 1303.25 1468.33 Q1303.25 1477.06 1300.17 1481.67 Q1297.12 1486.25 1291.31 1486.25 Q1285.5 1486.25 1282.42 1481.67 Q1279.36 1477.06 1279.36 1468.33 Q1279.36 1459.58 1282.42 1455 Q1285.5 1450.39 1291.31 1450.39 Z" fill="#000000" fill-rule="nonzero" fill-opacity="1"></path><path clip-path="url(#clip380)" d="M1321.47 1454.1 Q1317.86 1454.1 1316.03 1457.66 Q1314.22 1461.2 1314.22 1468.33 Q1314.22 1475.44 1316.03 1479.01 Q1317.86 1482.55 1321.47 1482.55 Q1325.1 1482.55 1326.91 1479.01 Q1328.74 1475.44 1328.74 1468.33 Q1328.74 1461.2 1326.91 1457.66 Q1325.1 1454.1 1321.47 1454.1 M1321.47 1450.39 Q1327.28 1450.39 1330.33 1455 Q1333.41 1459.58 1333.41 1468.33 Q1333.41 1477.06 1330.33 1481.67 Q1327.28 1486.25 1321.47 1486.25 Q1315.66 1486.25 1312.58 1481.67 Q1309.52 1477.06 1309.52 1468.33 Q1309.52 1459.58 1312.58 1455 Q1315.66 1450.39 1321.47 1450.39 Z" fill="#000000" fill-rule="nonzero" fill-opacity="1"></path><path clip-path="url(#clip380)" d="M1750.43 1451.02 L1772.66 1451.02 L1772.66 1453.01 L1760.11 1485.58 L1755.23 1485.58 L1767.03 1454.96 L1750.43 1454.96 L1750.43 1451.02 Z" fill="#000000" fill-rule="nonzero" fill-opacity="1"></path><path clip-path="url(#clip380)" d="M1781.82 1451.02 L1800.18 1451.02 L1800.18 1454.96 L1786.11 1454.96 L1786.11 1463.43 Q1787.12 1463.08 1788.14 1462.92 Q1789.16 1462.73 1790.18 1462.73 Q1795.97 1462.73 1799.35 1465.9 Q1802.73 1469.08 1802.73 1474.49 Q1802.73 1480.07 1799.25 1483.17 Q1795.78 1486.25 1789.46 1486.25 Q1787.29 1486.25 1785.02 1485.88 Q1782.77 1485.51 1780.36 1484.77 L1780.36 1480.07 Q1782.45 1481.2 1784.67 1481.76 Q1786.89 1482.32 1789.37 1482.32 Q1793.37 1482.32 1795.71 1480.21 Q1798.05 1478.1 1798.05 1474.49 Q1798.05 1470.88 1795.71 1468.77 Q1793.37 1466.67 1789.37 1466.67 Q1787.49 1466.67 1785.62 1467.08 Q1783.77 1467.5 1781.82 1468.38 L1781.82 1451.02 Z" fill="#000000" fill-rule="nonzero" fill-opacity="1"></path><path clip-path="url(#clip380)" d="M1821.94 1454.1 Q1818.33 1454.1 1816.5 1457.66 Q1814.69 1461.2 1814.69 1468.33 Q1814.69 1475.44 1816.5 1479.01 Q1818.33 1482.55 1821.94 1482.55 Q1825.57 1482.55 1827.38 1479.01 Q1829.21 1475.44 1829.21 1468.33 Q1829.21 1461.2 1827.38 1457.66 Q1825.57 1454.1 1821.94 1454.1 M1821.94 1450.39 Q1827.75 1450.39 1830.8 1455 Q1833.88 1459.58 1833.88 1468.33 Q1833.88 1477.06 1830.8 1481.67 Q1827.75 1486.25 1821.94 1486.25 Q1816.13 1486.25 1813.05 1481.67 Q1809.99 1477.06 1809.99 1468.33 Q1809.99 1459.58 1813.05 1455 Q1816.13 1450.39 1821.94 1450.39 Z" fill="#000000" fill-rule="nonzero" fill-opacity="1"></path><path clip-path="url(#clip380)" d="M2237.27 1481.64 L2244.91 1481.64 L2244.91 1455.28 L2236.6 1456.95 L2236.6 1452.69 L2244.86 1451.02 L2249.54 1451.02 L2249.54 1481.64 L2257.18 1481.64 L2257.18 1485.58 L2237.27 1485.58 L2237.27 1481.64 Z" fill="#000000" fill-rule="nonzero" fill-opacity="1"></path><path clip-path="url(#clip380)" d="M2276.62 1454.1 Q2273.01 1454.1 2271.18 1457.66 Q2269.38 1461.2 2269.38 1468.33 Q2269.38 1475.44 2271.18 1479.01 Q2273.01 1482.55 2276.62 1482.55 Q2280.26 1482.55 2282.06 1479.01 Q2283.89 1475.44 2283.89 1468.33 Q2283.89 1461.2 2282.06 1457.66 Q2280.26 1454.1 2276.62 1454.1 M2276.62 1450.39 Q2282.43 1450.39 2285.49 1455 Q2288.57 1459.58 2288.57 1468.33 Q2288.57 1477.06 2285.49 1481.67 Q2282.43 1486.25 2276.62 1486.25 Q2270.81 1486.25 2267.73 1481.67 Q2264.68 1477.06 2264.68 1468.33 Q2264.68 1459.58 2267.73 1455 Q2270.81 1450.39 2276.62 1450.39 Z" fill="#000000" fill-rule="nonzero" fill-opacity="1"></path><path clip-path="url(#clip380)" d="M2306.78 1454.1 Q2303.17 1454.1 2301.35 1457.66 Q2299.54 1461.2 2299.54 1468.33 Q2299.54 1475.44 2301.35 1479.01 Q2303.17 1482.55 2306.78 1482.55 Q2310.42 1482.55 2312.22 1479.01 Q2314.05 1475.44 2314.05 1468.33 Q2314.05 1461.2 2312.22 1457.66 Q2310.42 1454.1 2306.78 1454.1 M2306.78 1450.39 Q2312.59 1450.39 2315.65 1455 Q2318.73 1459.58 2318.73 1468.33 Q2318.73 1477.06 2315.65 1481.67 Q2312.59 1486.25 2306.78 1486.25 Q2300.97 1486.25 2297.9 1481.67 Q2294.84 1477.06 2294.84 1468.33 Q2294.84 1459.58 2297.9 1455 Q2300.97 1450.39 2306.78 1450.39 Z" fill="#000000" fill-rule="nonzero" fill-opacity="1"></path><path clip-path="url(#clip380)" d="M2336.95 1454.1 Q2333.34 1454.1 2331.51 1457.66 Q2329.7 1461.2 2329.7 1468.33 Q2329.7 1475.44 2331.51 1479.01 Q2333.34 1482.55 2336.95 1482.55 Q2340.58 1482.55 2342.39 1479.01 Q2344.22 1475.44 2344.22 1468.33 Q2344.22 1461.2 2342.39 1457.66 Q2340.58 1454.1 2336.95 1454.1 M2336.95 1450.39 Q2342.76 1450.39 2345.81 1455 Q2348.89 1459.58 2348.89 1468.33 Q2348.89 1477.06 2345.81 1481.67 Q2342.76 1486.25 2336.95 1486.25 Q2331.14 1486.25 2328.06 1481.67 Q2325 1477.06 2325 1468.33 Q2325 1459.58 2328.06 1455 Q2331.14 1450.39 2336.95 1450.39 Z" fill="#000000" fill-rule="nonzero" fill-opacity="1"></path><path clip-path="url(#clip380)" d="M1230.92 1548.76 L1230.92 1551.62 L1203.99 1551.62 Q1204.38 1557.67 1207.62 1560.85 Q1210.9 1564 1216.73 1564 Q1220.1 1564 1223.25 1563.17 Q1226.43 1562.35 1229.55 1560.69 L1229.55 1566.23 Q1226.4 1567.57 1223.09 1568.27 Q1219.78 1568.97 1216.38 1568.97 Q1207.85 1568.97 1202.85 1564 Q1197.88 1559.04 1197.88 1550.57 Q1197.88 1541.82 1202.59 1536.69 Q1207.34 1531.54 1215.36 1531.54 Q1222.55 1531.54 1226.72 1536.18 Q1230.92 1540.8 1230.92 1548.76 M1225.06 1547.04 Q1225 1542.23 1222.36 1539.37 Q1219.75 1536.5 1215.42 1536.5 Q1210.52 1536.5 1207.56 1539.27 Q1204.63 1542.04 1204.18 1547.07 L1225.06 1547.04 Z" fill="#000000" fill-rule="nonzero" fill-opacity="1"></path><path clip-path="url(#clip380)" d="M1246.2 1562.7 L1246.2 1581.6 L1240.31 1581.6 L1240.31 1532.4 L1246.2 1532.4 L1246.2 1537.81 Q1248.04 1534.62 1250.85 1533.1 Q1253.68 1531.54 1257.59 1531.54 Q1264.09 1531.54 1268.13 1536.69 Q1272.2 1541.85 1272.2 1550.25 Q1272.2 1558.65 1268.13 1563.81 Q1264.09 1568.97 1257.59 1568.97 Q1253.68 1568.97 1250.85 1567.44 Q1248.04 1565.88 1246.2 1562.7 M1266.12 1550.25 Q1266.12 1543.79 1263.45 1540.13 Q1260.81 1536.44 1256.16 1536.44 Q1251.51 1536.44 1248.84 1540.13 Q1246.2 1543.79 1246.2 1550.25 Q1246.2 1556.71 1248.84 1560.4 Q1251.51 1564.07 1256.16 1564.07 Q1260.81 1564.07 1263.45 1560.4 Q1266.12 1556.71 1266.12 1550.25 Z" fill="#000000" fill-rule="nonzero" fill-opacity="1"></path><path clip-path="url(#clip380)" d="M1295.72 1536.5 Q1291.01 1536.5 1288.28 1540.19 Q1285.54 1543.85 1285.54 1550.25 Q1285.54 1556.65 1288.24 1560.34 Q1290.98 1564 1295.72 1564 Q1300.4 1564 1303.14 1560.31 Q1305.88 1556.62 1305.88 1550.25 Q1305.88 1543.92 1303.14 1540.23 Q1300.4 1536.5 1295.72 1536.5 M1295.72 1531.54 Q1303.36 1531.54 1307.72 1536.5 Q1312.08 1541.47 1312.08 1550.25 Q1312.08 1559 1307.72 1564 Q1303.36 1568.97 1295.72 1568.97 Q1288.05 1568.97 1283.69 1564 Q1279.36 1559 1279.36 1550.25 Q1279.36 1541.47 1283.69 1536.5 Q1288.05 1531.54 1295.72 1531.54 Z" fill="#000000" fill-rule="nonzero" fill-opacity="1"></path><path clip-path="url(#clip380)" d="M1347.45 1533.76 L1347.45 1539.24 Q1344.96 1537.87 1342.45 1537.2 Q1339.97 1536.5 1337.42 1536.5 Q1331.72 1536.5 1328.57 1540.13 Q1325.42 1543.73 1325.42 1550.25 Q1325.42 1556.78 1328.57 1560.4 Q1331.72 1564 1337.42 1564 Q1339.97 1564 1342.45 1563.33 Q1344.96 1562.63 1347.45 1561.26 L1347.45 1566.68 Q1344.99 1567.82 1342.35 1568.39 Q1339.74 1568.97 1336.78 1568.97 Q1328.73 1568.97 1323.99 1563.91 Q1319.24 1558.85 1319.24 1550.25 Q1319.24 1541.53 1324.02 1536.53 Q1328.83 1531.54 1337.16 1531.54 Q1339.87 1531.54 1342.45 1532.11 Q1345.03 1532.65 1347.45 1533.76 Z" fill="#000000" fill-rule="nonzero" fill-opacity="1"></path><path clip-path="url(#clip380)" d="M1387.26 1546.53 L1387.26 1568.04 L1381.41 1568.04 L1381.41 1546.72 Q1381.41 1541.66 1379.43 1539.14 Q1377.46 1536.63 1373.51 1536.63 Q1368.77 1536.63 1366.03 1539.65 Q1363.3 1542.68 1363.3 1547.9 L1363.3 1568.04 L1357.41 1568.04 L1357.41 1518.52 L1363.3 1518.52 L1363.3 1537.93 Q1365.4 1534.72 1368.23 1533.13 Q1371.09 1531.54 1374.82 1531.54 Q1380.96 1531.54 1384.11 1535.36 Q1387.26 1539.14 1387.26 1546.53 Z" fill="#000000" fill-rule="nonzero" fill-opacity="1"></path><polyline clip-path="url(#clip382)" style="stroke:#000000; stroke-linecap:round; stroke-linejoin:round; stroke-width:2; stroke-opacity:0.1; fill:none" points="232.389,1257.16 2352.76,1257.16 "></polyline>
<polyline clip-path="url(#clip382)" style="stroke:#000000; stroke-linecap:round; stroke-linejoin:round; stroke-width:2; stroke-opacity:0.1; fill:none" points="232.389,1001.09 2352.76,1001.09 "></polyline>
<polyline clip-path="url(#clip382)" style="stroke:#000000; stroke-linecap:round; stroke-linejoin:round; stroke-width:2; stroke-opacity:0.1; fill:none" points="232.389,745.009 2352.76,745.009 "></polyline>
<polyline clip-path="url(#clip382)" style="stroke:#000000; stroke-linecap:round; stroke-linejoin:round; stroke-width:2; stroke-opacity:0.1; fill:none" points="232.389,488.933 2352.76,488.933 "></polyline>
<polyline clip-path="url(#clip382)" style="stroke:#000000; stroke-linecap:round; stroke-linejoin:round; stroke-width:2; stroke-opacity:0.1; fill:none" points="232.389,232.856 2352.76,232.856 "></polyline>
<polyline clip-path="url(#clip380)" style="stroke:#000000; stroke-linecap:round; stroke-linejoin:round; stroke-width:4; stroke-opacity:1; fill:none" points="232.389,1423.18 232.389,47.2441 "></polyline>
<polyline clip-path="url(#clip380)" style="stroke:#000000; stroke-linecap:round; stroke-linejoin:round; stroke-width:4; stroke-opacity:1; fill:none" points="232.389,1257.16 251.287,1257.16 "></polyline>
<polyline clip-path="url(#clip380)" style="stroke:#000000; stroke-linecap:round; stroke-linejoin:round; stroke-width:4; stroke-opacity:1; fill:none" points="232.389,1001.09 251.287,1001.09 "></polyline>
<polyline clip-path="url(#clip380)" style="stroke:#000000; stroke-linecap:round; stroke-linejoin:round; stroke-width:4; stroke-opacity:1; fill:none" points="232.389,745.009 251.287,745.009 "></polyline>
<polyline clip-path="url(#clip380)" style="stroke:#000000; stroke-linecap:round; stroke-linejoin:round; stroke-width:4; stroke-opacity:1; fill:none" points="232.389,488.933 251.287,488.933 "></polyline>
<polyline clip-path="url(#clip380)" style="stroke:#000000; stroke-linecap:round; stroke-linejoin:round; stroke-width:4; stroke-opacity:1; fill:none" points="232.389,232.856 251.287,232.856 "></polyline>
<path clip-path="url(#clip380)" d="M148.311 1270.51 L164.63 1270.51 L164.63 1274.44 L142.686 1274.44 L142.686 1270.51 Q145.348 1267.75 149.931 1263.12 Q154.538 1258.47 155.718 1257.13 Q157.964 1254.6 158.843 1252.87 Q159.746 1251.11 159.746 1249.42 Q159.746 1246.66 157.802 1244.93 Q155.88 1243.19 152.778 1243.19 Q150.579 1243.19 148.126 1243.96 Q145.695 1244.72 142.917 1246.27 L142.917 1241.55 Q145.741 1240.41 148.195 1239.84 Q150.649 1239.26 152.686 1239.26 Q158.056 1239.26 161.251 1241.94 Q164.445 1244.63 164.445 1249.12 Q164.445 1251.25 163.635 1253.17 Q162.848 1255.07 160.741 1257.66 Q160.163 1258.33 157.061 1261.55 Q153.959 1264.74 148.311 1270.51 Z" fill="#000000" fill-rule="nonzero" fill-opacity="1"></path><path clip-path="url(#clip380)" d="M184.445 1242.96 Q180.834 1242.96 179.005 1246.53 Q177.2 1250.07 177.2 1257.2 Q177.2 1264.3 179.005 1267.87 Q180.834 1271.41 184.445 1271.41 Q188.079 1271.41 189.885 1267.87 Q191.713 1264.3 191.713 1257.2 Q191.713 1250.07 189.885 1246.53 Q188.079 1242.96 184.445 1242.96 M184.445 1239.26 Q190.255 1239.26 193.311 1243.86 Q196.389 1248.45 196.389 1257.2 Q196.389 1265.92 193.311 1270.53 Q190.255 1275.11 184.445 1275.11 Q178.635 1275.11 175.556 1270.53 Q172.501 1265.92 172.501 1257.2 Q172.501 1248.45 175.556 1243.86 Q178.635 1239.26 184.445 1239.26 Z" fill="#000000" fill-rule="nonzero" fill-opacity="1"></path><path clip-path="url(#clip380)" d="M157.13 987.879 L145.325 1006.33 L157.13 1006.33 L157.13 987.879 M155.903 983.805 L161.783 983.805 L161.783 1006.33 L166.714 1006.33 L166.714 1010.22 L161.783 1010.22 L161.783 1018.37 L157.13 1018.37 L157.13 1010.22 L141.529 1010.22 L141.529 1005.7 L155.903 983.805 Z" fill="#000000" fill-rule="nonzero" fill-opacity="1"></path><path clip-path="url(#clip380)" d="M184.445 986.884 Q180.834 986.884 179.005 990.449 Q177.2 993.99 177.2 1001.12 Q177.2 1008.23 179.005 1011.79 Q180.834 1015.33 184.445 1015.33 Q188.079 1015.33 189.885 1011.79 Q191.713 1008.23 191.713 1001.12 Q191.713 993.99 189.885 990.449 Q188.079 986.884 184.445 986.884 M184.445 983.18 Q190.255 983.18 193.311 987.787 Q196.389 992.37 196.389 1001.12 Q196.389 1009.85 193.311 1014.45 Q190.255 1019.04 184.445 1019.04 Q178.635 1019.04 175.556 1014.45 Q172.501 1009.85 172.501 1001.12 Q172.501 992.37 175.556 987.787 Q178.635 983.18 184.445 983.18 Z" fill="#000000" fill-rule="nonzero" fill-opacity="1"></path><path clip-path="url(#clip380)" d="M154.862 743.145 Q151.714 743.145 149.862 745.298 Q148.033 747.451 148.033 751.201 Q148.033 754.928 149.862 757.104 Q151.714 759.256 154.862 759.256 Q158.01 759.256 159.839 757.104 Q161.69 754.928 161.69 751.201 Q161.69 747.451 159.839 745.298 Q158.01 743.145 154.862 743.145 M164.144 728.493 L164.144 732.752 Q162.385 731.919 160.579 731.479 Q158.797 731.039 157.038 731.039 Q152.408 731.039 149.954 734.164 Q147.524 737.289 147.177 743.608 Q148.542 741.595 150.603 740.53 Q152.663 739.442 155.14 739.442 Q160.348 739.442 163.357 742.613 Q166.39 745.761 166.39 751.201 Q166.39 756.525 163.241 759.743 Q160.093 762.96 154.862 762.96 Q148.866 762.96 145.695 758.377 Q142.524 753.77 142.524 745.044 Q142.524 736.849 146.413 731.988 Q150.302 727.104 156.853 727.104 Q158.612 727.104 160.394 727.451 Q162.2 727.798 164.144 728.493 Z" fill="#000000" fill-rule="nonzero" fill-opacity="1"></path><path clip-path="url(#clip380)" d="M184.445 730.808 Q180.834 730.808 179.005 734.372 Q177.2 737.914 177.2 745.044 Q177.2 752.15 179.005 755.715 Q180.834 759.256 184.445 759.256 Q188.079 759.256 189.885 755.715 Q191.713 752.15 191.713 745.044 Q191.713 737.914 189.885 734.372 Q188.079 730.808 184.445 730.808 M184.445 727.104 Q190.255 727.104 193.311 731.71 Q196.389 736.294 196.389 745.044 Q196.389 753.77 193.311 758.377 Q190.255 762.96 184.445 762.96 Q178.635 762.96 175.556 758.377 Q172.501 753.77 172.501 745.044 Q172.501 736.294 175.556 731.71 Q178.635 727.104 184.445 727.104 Z" fill="#000000" fill-rule="nonzero" fill-opacity="1"></path><path clip-path="url(#clip380)" d="M154.283 489.801 Q150.95 489.801 149.028 491.583 Q147.13 493.365 147.13 496.49 Q147.13 499.615 149.028 501.398 Q150.95 503.18 154.283 503.18 Q157.616 503.18 159.538 501.398 Q161.459 499.592 161.459 496.49 Q161.459 493.365 159.538 491.583 Q157.64 489.801 154.283 489.801 M149.607 487.81 Q146.598 487.069 144.908 485.009 Q143.241 482.949 143.241 479.986 Q143.241 475.842 146.181 473.435 Q149.144 471.028 154.283 471.028 Q159.445 471.028 162.385 473.435 Q165.325 475.842 165.325 479.986 Q165.325 482.949 163.635 485.009 Q161.968 487.069 158.982 487.81 Q162.362 488.597 164.237 490.889 Q166.135 493.18 166.135 496.49 Q166.135 501.513 163.056 504.199 Q160.001 506.884 154.283 506.884 Q148.566 506.884 145.487 504.199 Q142.431 501.513 142.431 496.49 Q142.431 493.18 144.329 490.889 Q146.228 488.597 149.607 487.81 M147.894 480.426 Q147.894 483.111 149.561 484.615 Q151.251 486.12 154.283 486.12 Q157.292 486.12 158.982 484.615 Q160.695 483.111 160.695 480.426 Q160.695 477.74 158.982 476.236 Q157.292 474.731 154.283 474.731 Q151.251 474.731 149.561 476.236 Q147.894 477.74 147.894 480.426 Z" fill="#000000" fill-rule="nonzero" fill-opacity="1"></path><path clip-path="url(#clip380)" d="M184.445 474.731 Q180.834 474.731 179.005 478.296 Q177.2 481.838 177.2 488.967 Q177.2 496.074 179.005 499.638 Q180.834 503.18 184.445 503.18 Q188.079 503.18 189.885 499.638 Q191.713 496.074 191.713 488.967 Q191.713 481.838 189.885 478.296 Q188.079 474.731 184.445 474.731 M184.445 471.028 Q190.255 471.028 193.311 475.634 Q196.389 480.217 196.389 488.967 Q196.389 497.694 193.311 502.301 Q190.255 506.884 184.445 506.884 Q178.635 506.884 175.556 502.301 Q172.501 497.694 172.501 488.967 Q172.501 480.217 175.556 475.634 Q178.635 471.028 184.445 471.028 Z" fill="#000000" fill-rule="nonzero" fill-opacity="1"></path><path clip-path="url(#clip380)" d="M114.931 246.201 L122.57 246.201 L122.57 219.835 L114.26 221.502 L114.26 217.243 L122.524 215.576 L127.2 215.576 L127.2 246.201 L134.839 246.201 L134.839 250.136 L114.931 250.136 L114.931 246.201 Z" fill="#000000" fill-rule="nonzero" fill-opacity="1"></path><path clip-path="url(#clip380)" d="M154.283 218.655 Q150.672 218.655 148.843 222.22 Q147.038 225.761 147.038 232.891 Q147.038 239.997 148.843 243.562 Q150.672 247.104 154.283 247.104 Q157.917 247.104 159.723 243.562 Q161.552 239.997 161.552 232.891 Q161.552 225.761 159.723 222.22 Q157.917 218.655 154.283 218.655 M154.283 214.951 Q160.093 214.951 163.149 219.558 Q166.227 224.141 166.227 232.891 Q166.227 241.618 163.149 246.224 Q160.093 250.807 154.283 250.807 Q148.473 250.807 145.394 246.224 Q142.339 241.618 142.339 232.891 Q142.339 224.141 145.394 219.558 Q148.473 214.951 154.283 214.951 Z" fill="#000000" fill-rule="nonzero" fill-opacity="1"></path><path clip-path="url(#clip380)" d="M184.445 218.655 Q180.834 218.655 179.005 222.22 Q177.2 225.761 177.2 232.891 Q177.2 239.997 179.005 243.562 Q180.834 247.104 184.445 247.104 Q188.079 247.104 189.885 243.562 Q191.713 239.997 191.713 232.891 Q191.713 225.761 189.885 222.22 Q188.079 218.655 184.445 218.655 M184.445 214.951 Q190.255 214.951 193.311 219.558 Q196.389 224.141 196.389 232.891 Q196.389 241.618 193.311 246.224 Q190.255 250.807 184.445 250.807 Q178.635 250.807 175.556 246.224 Q172.501 241.618 172.501 232.891 Q172.501 224.141 175.556 219.558 Q178.635 214.951 184.445 214.951 Z" fill="#000000" fill-rule="nonzero" fill-opacity="1"></path><path clip-path="url(#clip380)" d="M14.479 793.506 L14.479 787.649 L64.0042 787.649 L64.0042 793.506 L14.479 793.506 Z" fill="#000000" fill-rule="nonzero" fill-opacity="1"></path><path clip-path="url(#clip380)" d="M32.4621 761.582 Q32.4621 766.293 36.1542 769.03 Q39.8145 771.767 46.212 771.767 Q52.6095 771.767 56.3017 769.062 Q59.9619 766.324 59.9619 761.582 Q59.9619 756.903 56.2698 754.166 Q52.5777 751.429 46.212 751.429 Q39.8781 751.429 36.186 754.166 Q32.4621 756.903 32.4621 761.582 M27.4968 761.582 Q27.4968 753.943 32.4621 749.583 Q37.4273 745.222 46.212 745.222 Q54.9649 745.222 59.9619 749.583 Q64.9272 753.943 64.9272 761.582 Q64.9272 769.253 59.9619 773.613 Q54.9649 777.942 46.212 777.942 Q37.4273 777.942 32.4621 773.613 Q27.4968 769.253 27.4968 761.582 Z" fill="#000000" fill-rule="nonzero" fill-opacity="1"></path><path clip-path="url(#clip380)" d="M29.4065 712.789 L34.9447 712.789 Q33.6716 715.271 33.035 717.945 Q32.3984 720.619 32.3984 723.483 Q32.3984 727.844 33.7352 730.04 Q35.072 732.204 37.7456 732.204 Q39.7826 732.204 40.9603 730.645 Q42.1061 729.085 43.1565 724.374 L43.6021 722.369 Q44.9389 716.131 47.3897 713.521 Q49.8086 710.879 54.1691 710.879 Q59.1344 710.879 62.0308 714.826 Q64.9272 718.741 64.9272 725.616 Q64.9272 728.48 64.3543 731.599 Q63.8132 734.687 62.6992 738.124 L56.6518 738.124 Q58.3387 734.878 59.198 731.727 Q60.0256 728.576 60.0256 725.488 Q60.0256 721.351 58.6251 719.123 Q57.1929 716.895 54.6147 716.895 Q52.2276 716.895 50.9545 718.518 Q49.6813 720.109 48.5037 725.552 L48.0262 727.589 Q46.8804 733.032 44.5251 735.451 Q42.138 737.87 38.0002 737.87 Q32.9713 737.87 30.2341 734.305 Q27.4968 730.74 27.4968 724.183 Q27.4968 720.937 27.9743 718.072 Q28.4517 715.208 29.4065 712.789 Z" fill="#000000" fill-rule="nonzero" fill-opacity="1"></path><path clip-path="url(#clip380)" d="M29.4065 678.828 L34.9447 678.828 Q33.6716 681.31 33.035 683.984 Q32.3984 686.658 32.3984 689.522 Q32.3984 693.883 33.7352 696.079 Q35.072 698.243 37.7456 698.243 Q39.7826 698.243 40.9603 696.684 Q42.1061 695.124 43.1565 690.413 L43.6021 688.408 Q44.9389 682.17 47.3897 679.56 Q49.8086 676.918 54.1691 676.918 Q59.1344 676.918 62.0308 680.865 Q64.9272 684.78 64.9272 691.655 Q64.9272 694.519 64.3543 697.638 Q63.8132 700.726 62.6992 704.163 L56.6518 704.163 Q58.3387 700.917 59.198 697.766 Q60.0256 694.615 60.0256 691.527 Q60.0256 687.39 58.6251 685.162 Q57.1929 682.934 54.6147 682.934 Q52.2276 682.934 50.9545 684.557 Q49.6813 686.148 48.5037 691.591 L48.0262 693.628 Q46.8804 699.071 44.5251 701.49 Q42.138 703.909 38.0002 703.909 Q32.9713 703.909 30.2341 700.344 Q27.4968 696.779 27.4968 690.222 Q27.4968 686.976 27.9743 684.111 Q28.4517 681.247 29.4065 678.828 Z" fill="#000000" fill-rule="nonzero" fill-opacity="1"></path><polyline clip-path="url(#clip382)" style="stroke:#009af9; stroke-linecap:round; stroke-linejoin:round; stroke-width:4; stroke-opacity:1; fill:none" points="292.4,86.1857 294.402,155.125 296.404,199.219 298.407,193.976 300.409,239.132 302.411,254.911 304.414,282.27 306.416,275.829 308.419,310.923 310.421,351.87 312.423,401.815 314.426,446.695 316.428,469.924 318.43,515.346 320.433,546.731 322.435,567.599 324.437,580.727 326.44,614.8 328.442,671.905 330.444,704.763 332.447,716.326 334.449,738.142 336.451,741.445 338.454,750.547 340.456,772.399 342.458,807.25 344.461,796.495 346.463,823.135 348.465,816.683 350.468,822.289 352.47,832.285 354.473,850.272 356.475,838.866 358.477,854.137 360.48,863.825 362.482,874.306 364.484,877.867 366.487,891.153 368.489,891.107 370.491,908.77 372.494,914.527 374.496,926.977 376.498,941.237 378.501,955.714 380.503,987.125 382.505,1007.16 384.508,1028.57 386.51,1044.33 388.512,1050.74 390.515,1077.25 392.517,1090.11 394.519,1110.41 396.522,1120.75 398.524,1124.05 400.527,1135.54 402.529,1148.5 404.531,1151.99 406.534,1155.62 408.536,1164.94 410.538,1160.24 412.541,1169.67 414.543,1170.19 416.545,1174.9 418.548,1176.03 420.55,1175.14 422.552,1182.4 424.555,1183.56 426.557,1182.3 428.559,1188.96 430.562,1189.62 432.564,1192.93 434.566,1182.58 436.569,1193.77 438.571,1195.16 440.573,1200.4 442.576,1200.48 444.578,1198 446.581,1204.47 448.583,1197.6 450.585,1203.92 452.588,1205.26 454.59,1210.47 456.592,1212.27 458.595,1211.29 460.597,1217.83 462.599,1215.72 464.602,1218.37 466.604,1217.19 468.606,1210.48 470.609,1220.46 472.611,1213.47 474.613,1225.29 476.616,1226.04 478.618,1227.02 480.62,1221.79 482.623,1223.06 484.625,1226.15 486.627,1221.47 488.63,1223.85 490.632,1222.31 492.635,1226.92 494.637,1228.4 496.639,1233.27 498.642,1227.39 500.644,1230.52 502.646,1225.52 504.649,1225.73 506.651,1228.68 508.653,1225.46 510.656,1229.01 512.658,1227.74 514.66,1231.59 516.663,1228.81 518.665,1234.68 520.667,1235.51 522.67,1231.83 524.672,1236.46 526.674,1235.92 528.677,1232.63 530.679,1232.36 532.682,1234.37 534.684,1232.19 536.686,1233.71 538.689,1231.08 540.691,1225.28 542.693,1231.87 544.696,1233.34 546.698,1231.34 548.7,1232.26 550.703,1224.4 552.705,1233.43 554.707,1235.01 556.71,1232.11 558.712,1233.1 560.714,1229.63 562.717,1234.56 564.719,1239.05 566.721,1235.01 568.724,1236.29 570.726,1232.04 572.728,1232.81 574.731,1231.06 576.733,1235.17 578.736,1239.06 580.738,1232.54 582.74,1232.59 584.743,1239.26 586.745,1234.62 588.747,1235.65 590.75,1238.66 592.752,1234.17 594.754,1237.86 596.757,1238.17 598.759,1238.57 600.761,1236.18 602.764,1237.89 604.766,1237 606.768,1233.84 608.771,1233.23 610.773,1235.97 612.775,1236.35 614.778,1237.87 616.78,1237.11 618.782,1237.43 620.785,1233.18 622.787,1235.92 624.79,1233.1 626.792,1238.57 628.794,1232.5 630.797,1237.55 632.799,1240.99 634.801,1234.71 636.804,1233 638.806,1239.69 640.808,1233.5 642.811,1236.28 644.813,1235.3 646.815,1238.37 648.818,1224.49 650.82,1230.13 652.822,1237.39 654.825,1236.47 656.827,1237.64 658.829,1234.93 660.832,1232.67 662.834,1236.44 664.836,1238.18 666.839,1236.07 668.841,1235.6 670.844,1237.94 672.846,1238.36 674.848,1238.07 676.851,1242.18 678.853,1236.29 680.855,1240.98 682.858,1238.54 684.86,1238.29 686.862,1237.23 688.865,1242.99 690.867,1239.58 692.869,1239.11 694.872,1234.89 696.874,1240.21 698.876,1236.13 700.879,1238.96 702.881,1239.94 704.883,1235.98 706.886,1240.97 708.888,1243.77 710.89,1239.19 712.893,1238.86 714.895,1244.22 716.898,1244.02 718.9,1241.96 720.902,1240.78 722.905,1237.62 724.907,1238.23 726.909,1240.56 728.912,1236.56 730.914,1238.6 732.916,1233.1 734.919,1239.54 736.921,1241.31 738.923,1239.76 740.926,1242.36 742.928,1240.42 744.93,1245.96 746.933,1237.56 748.935,1241.04 750.937,1237.99 752.94,1236.36 754.942,1240.87 756.944,1234.79 758.947,1243.2 760.949,1246.75 762.952,1239.67 764.954,1243.04 766.956,1246.21 768.959,1247.27 770.961,1243.11 772.963,1249.03 774.966,1240.37 776.968,1245.02 778.97,1241.48 780.973,1245.54 782.975,1240.19 784.977,1245.91 786.98,1248.75 788.982,1246.9 790.984,1249.49 792.987,1248.43 794.989,1248.81 796.991,1247.39 798.994,1249.96 800.996,1254.3 802.999,1252.19 805.001,1250.82 807.003,1251.08 809.006,1251.7 811.008,1255.41 813.01,1245.7 815.013,1258.87 817.015,1256.79 819.017,1260.35 821.02,1261.42 823.022,1261.81 825.024,1265.95 827.027,1270.69 829.029,1273.8 831.031,1279.02 833.034,1285.6 835.036,1283.02 837.038,1287.53 839.041,1295.71 841.043,1302.85 843.045,1306.22 845.048,1309.89 847.05,1316.41 849.053,1323.16 851.055,1323.25 853.057,1328.54 855.06,1335.92 857.062,1335.72 859.064,1338.31 861.067,1343.67 863.069,1345.25 865.071,1348.8 867.074,1344.17 869.076,1343.09 871.078,1352.81 873.081,1349.94 875.083,1352.4 877.085,1351.81 879.088,1352.87 881.09,1359.37 883.092,1362.04 885.095,1355.95 887.097,1359.22 889.099,1362.84 891.102,1360.03 893.104,1364.17 895.107,1367.28 897.109,1364.09 899.111,1368.45 901.114,1366.37 903.116,1367.51 905.118,1368.92 907.121,1368.89 909.123,1369.31 911.125,1368.4 913.128,1370 915.13,1369.89 917.132,1363.85 919.135,1369.04 921.137,1369.53 923.139,1369.94 925.142,1369.52 927.144,1367.24 929.146,1368.66 931.149,1373.46 933.151,1371.96 935.153,1372.19 937.156,1375.3 939.158,1373.74 941.161,1369.4 943.163,1372.85 945.165,1373.31 947.168,1374.79 949.17,1373.73 951.172,1369.29 953.175,1374.16 955.177,1372.54 957.179,1375.3 959.182,1372.34 961.184,1371.29 963.186,1374.67 965.189,1377.22 967.191,1375.77 969.193,1375.76 971.196,1377.97 973.198,1369.49 975.2,1376.06 977.203,1375.74 979.205,1375.42 981.207,1375.5 983.21,1375.92 985.212,1376.84 987.215,1375.91 989.217,1376.25 991.219,1371.47 993.222,1380.39 995.224,1378.44 997.226,1370.62 999.229,1373.97 1001.23,1376.14 1003.23,1372.9 1005.24,1377.67 1007.24,1375.79 1009.24,1376.42 1011.24,1371.67 1013.25,1378.04 1015.25,1373.02 1017.25,1373.68 1019.25,1372.91 1021.25,1374.61 1023.26,1376.59 1025.26,1379.53 1027.26,1376.58 1029.26,1377.53 1031.27,1372.58 1033.27,1377.93 1035.27,1372.99 1037.27,1374.39 1039.28,1377.8 1041.28,1371.71 1043.28,1378.63 1045.28,1375.28 1047.28,1374.7 1049.29,1377 1051.29,1373.71 1053.29,1376.89 1055.29,1377.51 1057.3,1375.64 1059.3,1377.01 1061.3,1377.9 1063.3,1377.95 1065.31,1379.4 1067.31,1377.64 1069.31,1378.67 1071.31,1376.93 1073.32,1377.92 1075.32,1377.74 1077.32,1377.63 1079.32,1376.44 1081.32,1377.14 1083.33,1381.4 1085.33,1375.48 1087.33,1374.67 1089.33,1381.2 1091.34,1377.28 1093.34,1375.68 1095.34,1381.07 1097.34,1380.4 1099.35,1374.95 1101.35,1378.55 1103.35,1376.13 1105.35,1376.24 1107.36,1380.97 1109.36,1378.39 1111.36,1381.13 1113.36,1379.49 1115.36,1377.12 1117.37,1378.39 1119.37,1379.98 1121.37,1377.9 1123.37,1377.93 1125.38,1376.34 1127.38,1378.4 1129.38,1379.07 1131.38,1379.91 1133.39,1377.8 1135.39,1379.14 1137.39,1378.53 1139.39,1378.16 1141.4,1377.18 1143.4,1379.68 1145.4,1379.53 1147.4,1377.88 1149.4,1379.78 1151.41,1377.88 1153.41,1378.87 1155.41,1372.29 1157.41,1380.83 1159.42,1380.22 1161.42,1378.19 1163.42,1376.83 1165.42,1375.48 1167.43,1378.88 1169.43,1379.61 1171.43,1376.46 1173.43,1379.45 1175.44,1378.56 1177.44,1377.93 1179.44,1378.51 1181.44,1375.71 1183.44,1376.01 1185.45,1381.67 1187.45,1378.64 1189.45,1374.59 1191.45,1378.16 1193.46,1376.26 1195.46,1376.27 1197.46,1375.71 1199.46,1376.52 1201.47,1379.06 1203.47,1380.82 1205.47,1382.11 1207.47,1379.56 1209.48,1378.5 1211.48,1377.15 1213.48,1375.68 1215.48,1376.98 1217.48,1377.23 1219.49,1377.6 1221.49,1376.91 1223.49,1379.43 1225.49,1374.91 1227.5,1374.33 1229.5,1377.84 1231.5,1378.44 1233.5,1377.87 1235.51,1378.08 1237.51,1378.01 1239.51,1375.67 1241.51,1377.73 1243.52,1376.46 1245.52,1375.85 1247.52,1379.68 1249.52,1377.96 1251.52,1377.51 1253.53,1374.96 1255.53,1380.69 1257.53,1375.27 1259.53,1374.35 1261.54,1378.82 1263.54,1381.87 1265.54,1379.3 1267.54,1380.14 1269.55,1380.26 1271.55,1380.28 1273.55,1379.46 1275.55,1380.47 1277.56,1375.63 1279.56,1377.52 1281.56,1380.46 1283.56,1378.31 1285.56,1376.48 1287.57,1378.08 1289.57,1381.44 1291.57,1380.19 1293.57,1379.14 1295.58,1378.93 1297.58,1381.17 1299.58,1382.62 1301.58,1378.55 1303.59,1378.8 1305.59,1380.75 1307.59,1381.63 1309.59,1376.54 1311.59,1378.81 1313.6,1380.39 1315.6,1374.95 1317.6,1378.5 1319.6,1377.59 1321.61,1378.11 1323.61,1375.55 1325.61,1380.2 1327.61,1381.03 1329.62,1380.04 1331.62,1383.2 1333.62,1378.4 1335.62,1378.95 1337.63,1381.03 1339.63,1379.12 1341.63,1380.14 1343.63,1378.06 1345.63,1371.81 1347.64,1381.11 1349.64,1376.95 1351.64,1379.78 1353.64,1376.46 1355.65,1382.07 1357.65,1375.23 1359.65,1378.35 1361.65,1380.79 1363.66,1378.45 1365.66,1375.8 1367.66,1379.12 1369.66,1374.29 1371.67,1378.2 1373.67,1377.94 1375.67,1378.45 1377.67,1380.75 1379.67,1377.65 1381.68,1376.6 1383.68,1375.14 1385.68,1378.84 1387.68,1377.39 1389.69,1381.07 1391.69,1379.4 1393.69,1379.25 1395.69,1379.93 1397.7,1378.62 1399.7,1376.41 1401.7,1378.59 1403.7,1377.43 1405.71,1378.27 1407.71,1376.72 1409.71,1378.59 1411.71,1378.06 1413.71,1378.16 1415.72,1379.44 1417.72,1378.31 1419.72,1379.98 1421.72,1374.49 1423.73,1375.58 1425.73,1379.97 1427.73,1377.24 1429.73,1380.39 1431.74,1380.17 1433.74,1380.16 1435.74,1377.78 1437.74,1378.11 1439.75,1379.05 1441.75,1379.15 1443.75,1379.19 1445.75,1379.51 1447.75,1382.75 1449.76,1381.65 1451.76,1375.25 1453.76,1379.11 1455.76,1378.76 1457.77,1376.51 1459.77,1378.47 1461.77,1378.44 1463.77,1378.36 1465.78,1378.38 1467.78,1377.94 1469.78,1379.4 1471.78,1378.17 1473.79,1378.05 1475.79,1376.06 1477.79,1381.01 1479.79,1376.62 1481.79,1381.1 1483.8,1379.76 1485.8,1379.64 1487.8,1380.86 1489.8,1380.85 1491.81,1375.96 1493.81,1376.67 1495.81,1377.53 1497.81,1380.59 1499.82,1381.01 1501.82,1378.57 1503.82,1379.52 1505.82,1378.78 1507.83,1374.98 1509.83,1377.9 1511.83,1378.04 1513.83,1380.97 1515.83,1376.9 1517.84,1376.98 1519.84,1380.06 1521.84,1379.07 1523.84,1379.83 1525.85,1378.56 1527.85,1377.29 1529.85,1381.52 1531.85,1379.81 1533.86,1378.49 1535.86,1381.09 1537.86,1376.08 1539.86,1380.92 1541.86,1382.5 1543.87,1378.75 1545.87,1379.53 1547.87,1377.6 1549.87,1382.06 1551.88,1380.67 1553.88,1376.95 1555.88,1381.46 1557.88,1379.73 1559.89,1382 1561.89,1378.02 1563.89,1380.37 1565.89,1378.21 1567.9,1373.21 1569.9,1379.32 1571.9,1382.87 1573.9,1380.1 1575.9,1377.31 1577.91,1381.17 1579.91,1375.85 1581.91,1381 1583.91,1377.71 1585.92,1378.52 1587.92,1377.41 1589.92,1378.94 1591.92,1375.57 1593.93,1381.57 1595.93,1380.35 1597.93,1377.06 1599.93,1378.44 1601.94,1376.78 1603.94,1379.9 1605.94,1378.64 1607.94,1379.07 1609.94,1377.06 1611.95,1378.08 1613.95,1379.51 1615.95,1379.22 1617.95,1380.75 1619.96,1379.72 1621.96,1381.17 1623.96,1378.39 1625.96,1375.41 1627.97,1376.42 1629.97,1377.88 1631.97,1378.26 1633.97,1377.13 1635.98,1379.74 1637.98,1377.96 1639.98,1378.55 1641.98,1380.48 1643.98,1379.39 1645.99,1378.99 1647.99,1374.81 1649.99,1380.56 1651.99,1380.43 1654,1379.74 1656,1379.03 1658,1381.36 1660,1377.6 1662.01,1382.78 1664.01,1379.97 1666.01,1377.81 1668.01,1382.09 1670.02,1376.6 1672.02,1379.03 1674.02,1379.55 1676.02,1380.01 1678.02,1378.66 1680.03,1382.01 1682.03,1380.61 1684.03,1378.23 1686.03,1381 1688.04,1379.27 1690.04,1381.48 1692.04,1376.98 1694.04,1375.98 1696.05,1375.11 1698.05,1379.82 1700.05,1377.47 1702.05,1378.94 1704.06,1377.29 1706.06,1379.79 1708.06,1383.59 1710.06,1378.59 1712.06,1380.87 1714.07,1380.58 1716.07,1380.73 1718.07,1380.61 1720.07,1379.56 1722.08,1379.96 1724.08,1377 1726.08,1379.78 1728.08,1379.39 1730.09,1380.31 1732.09,1378.11 1734.09,1380.75 1736.09,1379.78 1738.1,1376.4 1740.1,1378.82 1742.1,1377.7 1744.1,1380.08 1746.1,1373.54 1748.11,1377.63 1750.11,1379.01 1752.11,1380.03 1754.11,1379.61 1756.12,1378.83 1758.12,1379.55 1760.12,1380.36 1762.12,1378.74 1764.13,1381.15 1766.13,1377.32 1768.13,1379.1 1770.13,1378.98 1772.14,1382.47 1774.14,1380.48 1776.14,1381.77 1778.14,1380.66 1780.14,1382.87 1782.15,1380.79 1784.15,1381.08 1786.15,1381.08 1788.15,1380.57 1790.16,1381.34 1792.16,1378.96 1794.16,1380.53 1796.16,1380.78 1798.17,1379.21 1800.17,1381.15 1802.17,1380.13 1804.17,1377.82 1806.17,1378.4 1808.18,1377.12 1810.18,1378.77 1812.18,1377.98 1814.18,1380.35 1816.19,1379.42 1818.19,1381.14 1820.19,1381.67 1822.19,1381.95 1824.2,1381.84 1826.2,1378.6 1828.2,1380.35 1830.2,1381.45 1832.21,1382.07 1834.21,1380.5 1836.21,1382.67 1838.21,1374.96 1840.21,1381.39 1842.22,1378.53 1844.22,1378.02 1846.22,1378.05 1848.22,1381.45 1850.23,1376.65 1852.23,1381.86 1854.23,1377.96 1856.23,1380.24 1858.24,1379.87 1860.24,1380.33 1862.24,1380.18 1864.24,1379.43 1866.25,1377.51 1868.25,1374.5 1870.25,1380.32 1872.25,1383.08 1874.25,1380.35 1876.26,1380.94 1878.26,1381.26 1880.26,1377.46 1882.26,1379.26 1884.27,1382.02 1886.27,1380.8 1888.27,1380.83 1890.27,1378.34 1892.28,1380.33 1894.28,1381.84 1896.28,1381.59 1898.28,1379.99 1900.29,1379.26 1902.29,1378.13 1904.29,1377.58 1906.29,1382.05 1908.29,1380.77 1910.3,1381.69 1912.3,1377.96 1914.3,1380.47 1916.3,1382.06 1918.31,1381.12 1920.31,1379.54 1922.31,1376.43 1924.31,1383.8 1926.32,1379.1 1928.32,1378.71 1930.32,1379.36 1932.32,1378.22 1934.33,1381.6 1936.33,1380.47 1938.33,1379.67 1940.33,1380.08 1942.33,1377.84 1944.34,1378.18 1946.34,1377.18 1948.34,1379.99 1950.34,1382.26 1952.35,1377.93 1954.35,1379.93 1956.35,1377.55 1958.35,1377.55 1960.36,1379.68 1962.36,1382.24 1964.36,1377.47 1966.36,1379.79 1968.37,1380.58 1970.37,1378.54 1972.37,1377.46 1974.37,1380.54 1976.37,1378.05 1978.38,1380.38 1980.38,1381.99 1982.38,1377.95 1984.38,1378.31 1986.39,1378.96 1988.39,1383.43 1990.39,1381.12 1992.39,1383.12 1994.4,1379.3 1996.4,1381.26 1998.4,1384.24 2000.4,1379.94 2002.41,1382.45 2004.41,1379.05 2006.41,1376.2 2008.41,1380.07 2010.41,1379.19 2012.42,1379.47 2014.42,1379.46 2016.42,1379.41 2018.42,1382.25 2020.43,1380.2 2022.43,1382.76 2024.43,1381.73 2026.43,1377.78 2028.44,1380.77 2030.44,1380.55 2032.44,1381.25 2034.44,1377.97 2036.44,1380.97 2038.45,1380.94 2040.45,1382.18 2042.45,1378.57 2044.45,1379.13 2046.46,1380.79 2048.46,1378.41 2050.46,1378.15 2052.46,1378.16 2054.47,1376.84 2056.47,1377.32 2058.47,1378.53 2060.47,1379.77 2062.48,1379.43 2064.48,1381.29 2066.48,1381.12 2068.48,1377.14 2070.48,1382.65 2072.49,1379.93 2074.49,1373.77 2076.49,1380.46 2078.49,1381.81 2080.5,1378.55 2082.5,1381.29 2084.5,1380.35 2086.5,1381.61 2088.51,1380.14 2090.51,1381.81 2092.51,1378.29 2094.51,1382.51 2096.52,1378.97 2098.52,1381.55 2100.52,1382.14 2102.52,1378.68 2104.52,1380.31 2106.53,1381.08 2108.53,1379.17 2110.53,1381.7 2112.53,1378.82 2114.54,1381.78 2116.54,1380.15 2118.54,1376.04 2120.54,1380.29 2122.55,1378.52 2124.55,1381.6 2126.55,1379.91 2128.55,1379.89 2130.56,1380.26 2132.56,1377.94 2134.56,1380.67 2136.56,1380.36 2138.56,1376.83 2140.57,1380.69 2142.57,1379.42 2144.57,1377.4 2146.57,1379.85 2148.58,1381.8 2150.58,1383.01 2152.58,1378.82 2154.58,1380.22 2156.59,1377.93 2158.59,1377.39 2160.59,1378.92 2162.59,1380.39 2164.6,1380.9 2166.6,1380.51 2168.6,1377.49 2170.6,1379.35 2172.6,1376.91 2174.61,1378.45 2176.61,1378.89 2178.61,1380.45 2180.61,1380.58 2182.62,1380.23 2184.62,1380.43 2186.62,1378.58 2188.62,1378.7 2190.63,1379.97 2192.63,1378.46 2194.63,1382.94 2196.63,1378.89 2198.64,1381.55 2200.64,1378.98 2202.64,1379.99 2204.64,1379.95 2206.64,1381.15 2208.65,1378.86 2210.65,1381.94 2212.65,1380.96 2214.65,1380.52 2216.66,1379.35 2218.66,1378.27 2220.66,1379.45 2222.66,1380.94 2224.67,1380.69 2226.67,1380.13 2228.67,1381.95 2230.67,1380.62 2232.68,1382.15 2234.68,1377.75 2236.68,1382.56 2238.68,1380.91 2240.68,1380.42 2242.69,1381.79 2244.69,1382.53 2246.69,1378.12 2248.69,1379.32 2250.7,1382.6 2252.7,1378.69 2254.7,1379.9 2256.7,1380.4 2258.71,1381.55 2260.71,1378.61 2262.71,1378.14 2264.71,1378.1 2266.72,1380.53 2268.72,1379.54 2270.72,1381.32 2272.72,1381.93 2274.72,1383.08 2276.73,1379.58 2278.73,1377.8 2280.73,1378.22 2282.73,1380.47 2284.74,1379.84 2286.74,1383.35 2288.74,1380.67 2290.74,1381.3 2292.75,1377.55 "></polyline>
<path clip-path="url(#clip380)" d="M1650.58 196.789 L2282.08 196.789 L2282.08 93.1086 L1650.58 93.1086  Z" fill="#ffffff" fill-rule="evenodd" fill-opacity="1"></path>
<polyline clip-path="url(#clip380)" style="stroke:#000000; stroke-linecap:round; stroke-linejoin:round; stroke-width:4; stroke-opacity:1; fill:none" points="1650.58,196.789 2282.08,196.789 2282.08,93.1086 1650.58,93.1086 1650.58,196.789 "></polyline>
<polyline clip-path="url(#clip380)" style="stroke:#009af9; stroke-linecap:round; stroke-linejoin:round; stroke-width:4; stroke-opacity:1; fill:none" points="1674.13,144.949 1815.49,144.949 "></polyline>
<path clip-path="url(#clip380)" d="M1854.89 132.275 L1848.54 149.474 L1861.25 149.474 L1854.89 132.275 M1852.25 127.669 L1857.55 127.669 L1870.72 162.229 L1865.86 162.229 L1862.71 153.363 L1847.13 153.363 L1843.98 162.229 L1839.05 162.229 L1852.25 127.669 Z" fill="#000000" fill-rule="nonzero" fill-opacity="1"></path><path clip-path="url(#clip380)" d="M1875.14 151.997 L1875.14 136.303 L1879.4 136.303 L1879.4 151.835 Q1879.4 155.516 1880.83 157.368 Q1882.27 159.196 1885.14 159.196 Q1888.59 159.196 1890.58 156.997 Q1892.59 154.798 1892.59 151.002 L1892.59 136.303 L1896.85 136.303 L1896.85 162.229 L1892.59 162.229 L1892.59 158.247 Q1891.04 160.608 1888.98 161.766 Q1886.95 162.9 1884.24 162.9 Q1879.77 162.9 1877.45 160.122 Q1875.14 157.344 1875.14 151.997 M1885.86 135.678 L1885.86 135.678 Z" fill="#000000" fill-rule="nonzero" fill-opacity="1"></path><path clip-path="url(#clip380)" d="M1909.84 128.942 L1909.84 136.303 L1918.61 136.303 L1918.61 139.613 L1909.84 139.613 L1909.84 153.687 Q1909.84 156.858 1910.7 157.761 Q1911.57 158.664 1914.24 158.664 L1918.61 158.664 L1918.61 162.229 L1914.24 162.229 Q1909.31 162.229 1907.43 160.4 Q1905.56 158.548 1905.56 153.687 L1905.56 139.613 L1902.43 139.613 L1902.43 136.303 L1905.56 136.303 L1905.56 128.942 L1909.84 128.942 Z" fill="#000000" fill-rule="nonzero" fill-opacity="1"></path><path clip-path="url(#clip380)" d="M1934.26 139.289 Q1930.83 139.289 1928.84 141.974 Q1926.85 144.636 1926.85 149.289 Q1926.85 153.942 1928.82 156.627 Q1930.81 159.289 1934.26 159.289 Q1937.66 159.289 1939.65 156.604 Q1941.64 153.918 1941.64 149.289 Q1941.64 144.682 1939.65 141.997 Q1937.66 139.289 1934.26 139.289 M1934.26 135.678 Q1939.82 135.678 1942.99 139.289 Q1946.16 142.9 1946.16 149.289 Q1946.16 155.655 1942.99 159.289 Q1939.82 162.9 1934.26 162.9 Q1928.68 162.9 1925.51 159.289 Q1922.36 155.655 1922.36 149.289 Q1922.36 142.9 1925.51 139.289 Q1928.68 135.678 1934.26 135.678 Z" fill="#000000" fill-rule="nonzero" fill-opacity="1"></path><path clip-path="url(#clip380)" d="M1975.39 148.201 L1975.39 150.284 L1955.81 150.284 Q1956.09 154.682 1958.45 156.997 Q1960.83 159.289 1965.07 159.289 Q1967.52 159.289 1969.82 158.687 Q1972.13 158.085 1974.4 156.881 L1974.4 160.909 Q1972.11 161.881 1969.7 162.391 Q1967.29 162.9 1964.82 162.9 Q1958.61 162.9 1954.98 159.289 Q1951.37 155.678 1951.37 149.52 Q1951.37 143.155 1954.79 139.428 Q1958.24 135.678 1964.07 135.678 Q1969.31 135.678 1972.34 139.057 Q1975.39 142.414 1975.39 148.201 M1971.13 146.951 Q1971.09 143.456 1969.17 141.372 Q1967.27 139.289 1964.12 139.289 Q1960.56 139.289 1958.4 141.303 Q1956.27 143.317 1955.95 146.974 L1971.13 146.951 Z" fill="#000000" fill-rule="nonzero" fill-opacity="1"></path><path clip-path="url(#clip380)" d="M2003.94 146.581 L2003.94 162.229 L1999.68 162.229 L1999.68 146.719 Q1999.68 143.039 1998.24 141.21 Q1996.81 139.382 1993.94 139.382 Q1990.49 139.382 1988.5 141.581 Q1986.5 143.78 1986.5 147.576 L1986.5 162.229 L1982.22 162.229 L1982.22 136.303 L1986.5 136.303 L1986.5 140.331 Q1988.03 137.993 1990.09 136.835 Q1992.18 135.678 1994.88 135.678 Q1999.35 135.678 2001.64 138.456 Q2003.94 141.21 2003.94 146.581 Z" fill="#000000" fill-rule="nonzero" fill-opacity="1"></path><path clip-path="url(#clip380)" d="M2031.09 137.298 L2031.09 141.28 Q2029.28 140.284 2027.45 139.798 Q2025.65 139.289 2023.8 139.289 Q2019.65 139.289 2017.36 141.928 Q2015.07 144.544 2015.07 149.289 Q2015.07 154.034 2017.36 156.673 Q2019.65 159.289 2023.8 159.289 Q2025.65 159.289 2027.45 158.803 Q2029.28 158.293 2031.09 157.298 L2031.09 161.233 Q2029.31 162.067 2027.38 162.483 Q2025.49 162.9 2023.33 162.9 Q2017.48 162.9 2014.03 159.219 Q2010.58 155.539 2010.58 149.289 Q2010.58 142.946 2014.05 139.312 Q2017.55 135.678 2023.61 135.678 Q2025.58 135.678 2027.45 136.095 Q2029.33 136.488 2031.09 137.298 Z" fill="#000000" fill-rule="nonzero" fill-opacity="1"></path><path clip-path="url(#clip380)" d="M2048.54 139.289 Q2045.12 139.289 2043.13 141.974 Q2041.13 144.636 2041.13 149.289 Q2041.13 153.942 2043.1 156.627 Q2045.09 159.289 2048.54 159.289 Q2051.94 159.289 2053.94 156.604 Q2055.93 153.918 2055.93 149.289 Q2055.93 144.682 2053.94 141.997 Q2051.94 139.289 2048.54 139.289 M2048.54 135.678 Q2054.1 135.678 2057.27 139.289 Q2060.44 142.9 2060.44 149.289 Q2060.44 155.655 2057.27 159.289 Q2054.1 162.9 2048.54 162.9 Q2042.96 162.9 2039.79 159.289 Q2036.64 155.655 2036.64 149.289 Q2036.64 142.9 2039.79 139.289 Q2042.96 135.678 2048.54 135.678 Z" fill="#000000" fill-rule="nonzero" fill-opacity="1"></path><path clip-path="url(#clip380)" d="M2084.56 140.238 L2084.56 126.21 L2088.82 126.21 L2088.82 162.229 L2084.56 162.229 L2084.56 158.34 Q2083.22 160.655 2081.16 161.789 Q2079.12 162.9 2076.25 162.9 Q2071.55 162.9 2068.59 159.15 Q2065.65 155.4 2065.65 149.289 Q2065.65 143.178 2068.59 139.428 Q2071.55 135.678 2076.25 135.678 Q2079.12 135.678 2081.16 136.812 Q2083.22 137.923 2084.56 140.238 M2070.05 149.289 Q2070.05 153.988 2071.97 156.673 Q2073.91 159.335 2077.29 159.335 Q2080.67 159.335 2082.62 156.673 Q2084.56 153.988 2084.56 149.289 Q2084.56 144.59 2082.62 141.928 Q2080.67 139.243 2077.29 139.243 Q2073.91 139.243 2071.97 141.928 Q2070.05 144.59 2070.05 149.289 Z" fill="#000000" fill-rule="nonzero" fill-opacity="1"></path><path clip-path="url(#clip380)" d="M2119.77 148.201 L2119.77 150.284 L2100.18 150.284 Q2100.46 154.682 2102.82 156.997 Q2105.21 159.289 2109.44 159.289 Q2111.9 159.289 2114.19 158.687 Q2116.5 158.085 2118.77 156.881 L2118.77 160.909 Q2116.48 161.881 2114.07 162.391 Q2111.67 162.9 2109.19 162.9 Q2102.99 162.9 2099.35 159.289 Q2095.74 155.678 2095.74 149.52 Q2095.74 143.155 2099.17 139.428 Q2102.62 135.678 2108.45 135.678 Q2113.68 135.678 2116.71 139.057 Q2119.77 142.414 2119.77 148.201 M2115.51 146.951 Q2115.46 143.456 2113.54 141.372 Q2111.64 139.289 2108.5 139.289 Q2104.93 139.289 2102.78 141.303 Q2100.65 143.317 2100.32 146.974 L2115.51 146.951 Z" fill="#000000" fill-rule="nonzero" fill-opacity="1"></path><path clip-path="url(#clip380)" d="M2141.78 140.284 Q2141.06 139.868 2140.21 139.682 Q2139.37 139.474 2138.36 139.474 Q2134.74 139.474 2132.8 141.835 Q2130.88 144.173 2130.88 148.571 L2130.88 162.229 L2126.6 162.229 L2126.6 136.303 L2130.88 136.303 L2130.88 140.331 Q2132.22 137.969 2134.37 136.835 Q2136.53 135.678 2139.61 135.678 Q2140.05 135.678 2140.58 135.747 Q2141.11 135.794 2141.76 135.909 L2141.78 140.284 Z" fill="#000000" fill-rule="nonzero" fill-opacity="1"></path><path clip-path="url(#clip380)" d="M2161.5 127.669 L2166.18 127.669 L2166.18 158.293 L2183.01 158.293 L2183.01 162.229 L2161.5 162.229 L2161.5 127.669 Z" fill="#000000" fill-rule="nonzero" fill-opacity="1"></path><path clip-path="url(#clip380)" d="M2196.94 139.289 Q2193.52 139.289 2191.53 141.974 Q2189.54 144.636 2189.54 149.289 Q2189.54 153.942 2191.5 156.627 Q2193.49 159.289 2196.94 159.289 Q2200.35 159.289 2202.34 156.604 Q2204.33 153.918 2204.33 149.289 Q2204.33 144.682 2202.34 141.997 Q2200.35 139.289 2196.94 139.289 M2196.94 135.678 Q2202.5 135.678 2205.67 139.289 Q2208.84 142.9 2208.84 149.289 Q2208.84 155.655 2205.67 159.289 Q2202.5 162.9 2196.94 162.9 Q2191.36 162.9 2188.19 159.289 Q2185.05 155.655 2185.05 149.289 Q2185.05 142.9 2188.19 139.289 Q2191.36 135.678 2196.94 135.678 Z" fill="#000000" fill-rule="nonzero" fill-opacity="1"></path><path clip-path="url(#clip380)" d="M2232.43 137.067 L2232.43 141.094 Q2230.62 140.169 2228.68 139.706 Q2226.74 139.243 2224.65 139.243 Q2221.48 139.243 2219.88 140.215 Q2218.31 141.187 2218.31 143.131 Q2218.31 144.613 2219.44 145.469 Q2220.58 146.303 2224 147.067 L2225.46 147.391 Q2230 148.363 2231.9 150.145 Q2233.82 151.905 2233.82 155.076 Q2233.82 158.687 2230.95 160.793 Q2228.1 162.9 2223.1 162.9 Q2221.02 162.9 2218.75 162.483 Q2216.5 162.09 2214 161.28 L2214 156.881 Q2216.36 158.108 2218.66 158.733 Q2220.95 159.335 2223.19 159.335 Q2226.2 159.335 2227.82 158.317 Q2229.44 157.275 2229.44 155.4 Q2229.44 153.664 2228.26 152.738 Q2227.11 151.812 2223.15 150.956 L2221.67 150.608 Q2217.71 149.775 2215.95 148.062 Q2214.19 146.326 2214.19 143.317 Q2214.19 139.659 2216.78 137.669 Q2219.37 135.678 2224.14 135.678 Q2226.5 135.678 2228.59 136.025 Q2230.67 136.372 2232.43 137.067 Z" fill="#000000" fill-rule="nonzero" fill-opacity="1"></path><path clip-path="url(#clip380)" d="M2257.13 137.067 L2257.13 141.094 Q2255.32 140.169 2253.38 139.706 Q2251.43 139.243 2249.35 139.243 Q2246.18 139.243 2244.58 140.215 Q2243.01 141.187 2243.01 143.131 Q2243.01 144.613 2244.14 145.469 Q2245.28 146.303 2248.7 147.067 L2250.16 147.391 Q2254.7 148.363 2256.6 150.145 Q2258.52 151.905 2258.52 155.076 Q2258.52 158.687 2255.65 160.793 Q2252.8 162.9 2247.8 162.9 Q2245.72 162.9 2243.45 162.483 Q2241.2 162.09 2238.7 161.28 L2238.7 156.881 Q2241.06 158.108 2243.36 158.733 Q2245.65 159.335 2247.89 159.335 Q2250.9 159.335 2252.52 158.317 Q2254.14 157.275 2254.14 155.4 Q2254.14 153.664 2252.96 152.738 Q2251.8 151.812 2247.85 150.956 L2246.36 150.608 Q2242.41 149.775 2240.65 148.062 Q2238.89 146.326 2238.89 143.317 Q2238.89 139.659 2241.48 137.669 Q2244.07 135.678 2248.84 135.678 Q2251.2 135.678 2253.29 136.025 Q2255.37 136.372 2257.13 137.067 Z" fill="#000000" fill-rule="nonzero" fill-opacity="1"></path></svg>