<svg xmlns="http://www.w3.org/2000/svg" xmlns:xlink="http://www.w3.org/1999/xlink" width="600" height="400" viewBox="0 0 2400 1600">
<defs>
  <clipPath id="clip180">
    <rect x="0" y="0" width="2400" height="1600"></rect>
  </clipPath>
</defs>
<path clip-path="url(#clip180)" d="M0 1600 L2400 1600 L2400 0 L0 0  Z" fill="#ffffff" fill-rule="evenodd" fill-opacity="1"></path>
<defs>
  <clipPath id="clip181">
    <rect x="480" y="0" width="1681" height="1600"></rect>
  </clipPath>
</defs>
<path clip-path="url(#clip180)" d="M344.606 1486.45 L2352.76 1486.45 L2352.76 47.2441 L344.606 47.2441  Z" fill="#ffffff" fill-rule="evenodd" fill-opacity="1"></path>
<defs>
  <clipPath id="clip182">
    <rect x="344" y="47" width="2009" height="1440"></rect>
  </clipPath>
</defs>
<polyline clip-path="url(#clip182)" style="stroke:#000000; stroke-linecap:round; stroke-linejoin:round; stroke-width:2; stroke-opacity:0.1; fill:none" points="401.441,1486.45 401.441,47.2441 "></polyline>
<polyline clip-path="url(#clip182)" style="stroke:#000000; stroke-linecap:round; stroke-linejoin:round; stroke-width:2; stroke-opacity:0.1; fill:none" points="780.337,1486.45 780.337,47.2441 "></polyline>
<polyline clip-path="url(#clip182)" style="stroke:#000000; stroke-linecap:round; stroke-linejoin:round; stroke-width:2; stroke-opacity:0.1; fill:none" points="1159.23,1486.45 1159.23,47.2441 "></polyline>
<polyline clip-path="url(#clip182)" style="stroke:#000000; stroke-linecap:round; stroke-linejoin:round; stroke-width:2; stroke-opacity:0.1; fill:none" points="1538.13,1486.45 1538.13,47.2441 "></polyline>
<polyline clip-path="url(#clip182)" style="stroke:#000000; stroke-linecap:round; stroke-linejoin:round; stroke-width:2; stroke-opacity:0.1; fill:none" points="1917.03,1486.45 1917.03,47.2441 "></polyline>
<polyline clip-path="url(#clip182)" style="stroke:#000000; stroke-linecap:round; stroke-linejoin:round; stroke-width:2; stroke-opacity:0.1; fill:none" points="2295.92,1486.45 2295.92,47.2441 "></polyline>
<polyline clip-path="url(#clip180)" style="stroke:#000000; stroke-linecap:round; stroke-linejoin:round; stroke-width:4; stroke-opacity:1; fill:none" points="344.606,1486.45 2352.76,1486.45 "></polyline>
<polyline clip-path="url(#clip180)" style="stroke:#000000; stroke-linecap:round; stroke-linejoin:round; stroke-width:4; stroke-opacity:1; fill:none" points="401.441,1486.45 401.441,1467.55 "></polyline>
<polyline clip-path="url(#clip180)" style="stroke:#000000; stroke-linecap:round; stroke-linejoin:round; stroke-width:4; stroke-opacity:1; fill:none" points="780.337,1486.45 780.337,1467.55 "></polyline>
<polyline clip-path="url(#clip180)" style="stroke:#000000; stroke-linecap:round; stroke-linejoin:round; stroke-width:4; stroke-opacity:1; fill:none" points="1159.23,1486.45 1159.23,1467.55 "></polyline>
<polyline clip-path="url(#clip180)" style="stroke:#000000; stroke-linecap:round; stroke-linejoin:round; stroke-width:4; stroke-opacity:1; fill:none" points="1538.13,1486.45 1538.13,1467.55 "></polyline>
<polyline clip-path="url(#clip180)" style="stroke:#000000; stroke-linecap:round; stroke-linejoin:round; stroke-width:4; stroke-opacity:1; fill:none" points="1917.03,1486.45 1917.03,1467.55 "></polyline>
<polyline clip-path="url(#clip180)" style="stroke:#000000; stroke-linecap:round; stroke-linejoin:round; stroke-width:4; stroke-opacity:1; fill:none" points="2295.92,1486.45 2295.92,1467.55 "></polyline>
<path clip-path="url(#clip180)" d="M391.823 1544.91 L399.462 1544.91 L399.462 1518.55 L391.152 1520.21 L391.152 1515.95 L399.415 1514.29 L404.091 1514.29 L404.091 1544.91 L411.73 1544.91 L411.73 1548.85 L391.823 1548.85 L391.823 1544.91 Z" fill="#000000" fill-rule="nonzero" fill-opacity="1"></path><path clip-path="url(#clip180)" d="M774.99 1544.91 L791.309 1544.91 L791.309 1548.85 L769.365 1548.85 L769.365 1544.91 Q772.027 1542.16 776.61 1537.53 Q781.217 1532.88 782.397 1531.53 Q784.643 1529.01 785.522 1527.27 Q786.425 1525.51 786.425 1523.82 Q786.425 1521.07 784.481 1519.33 Q782.559 1517.6 779.457 1517.6 Q777.258 1517.6 774.805 1518.36 Q772.374 1519.13 769.596 1520.68 L769.596 1515.95 Q772.42 1514.82 774.874 1514.24 Q777.328 1513.66 779.365 1513.66 Q784.735 1513.66 787.93 1516.35 Q791.124 1519.03 791.124 1523.52 Q791.124 1525.65 790.314 1527.57 Q789.527 1529.47 787.42 1532.07 Q786.842 1532.74 783.74 1535.95 Q780.638 1539.15 774.99 1544.91 Z" fill="#000000" fill-rule="nonzero" fill-opacity="1"></path><path clip-path="url(#clip180)" d="M1163.48 1530.21 Q1166.84 1530.93 1168.71 1533.2 Q1170.61 1535.47 1170.61 1538.8 Q1170.61 1543.92 1167.09 1546.72 Q1163.57 1549.52 1157.09 1549.52 Q1154.92 1549.52 1152.6 1549.08 Q1150.31 1548.66 1147.86 1547.81 L1147.86 1543.29 Q1149.8 1544.43 1152.12 1545.01 Q1154.43 1545.58 1156.95 1545.58 Q1161.35 1545.58 1163.64 1543.85 Q1165.96 1542.11 1165.96 1538.8 Q1165.96 1535.75 1163.8 1534.03 Q1161.68 1532.3 1157.86 1532.3 L1153.83 1532.3 L1153.83 1528.45 L1158.04 1528.45 Q1161.49 1528.45 1163.32 1527.09 Q1165.15 1525.7 1165.15 1523.11 Q1165.15 1520.45 1163.25 1519.03 Q1161.37 1517.6 1157.86 1517.6 Q1155.93 1517.6 1153.74 1518.01 Q1151.54 1518.43 1148.9 1519.31 L1148.9 1515.14 Q1151.56 1514.4 1153.87 1514.03 Q1156.21 1513.66 1158.27 1513.66 Q1163.6 1513.66 1166.7 1516.09 Q1169.8 1518.5 1169.8 1522.62 Q1169.8 1525.49 1168.16 1527.48 Q1166.51 1529.45 1163.48 1530.21 Z" fill="#000000" fill-rule="nonzero" fill-opacity="1"></path><path clip-path="url(#clip180)" d="M1541.14 1518.36 L1529.33 1536.81 L1541.14 1536.81 L1541.14 1518.36 M1539.91 1514.29 L1545.79 1514.29 L1545.79 1536.81 L1550.72 1536.81 L1550.72 1540.7 L1545.79 1540.7 L1545.79 1548.85 L1541.14 1548.85 L1541.14 1540.7 L1525.54 1540.7 L1525.54 1536.19 L1539.91 1514.29 Z" fill="#000000" fill-rule="nonzero" fill-opacity="1"></path><path clip-path="url(#clip180)" d="M1907.3 1514.29 L1925.66 1514.29 L1925.66 1518.22 L1911.59 1518.22 L1911.59 1526.7 Q1912.6 1526.35 1913.62 1526.19 Q1914.64 1526 1915.66 1526 Q1921.45 1526 1924.83 1529.17 Q1928.21 1532.34 1928.21 1537.76 Q1928.21 1543.34 1924.73 1546.44 Q1921.26 1549.52 1914.94 1549.52 Q1912.77 1549.52 1910.5 1549.15 Q1908.25 1548.78 1905.84 1548.04 L1905.84 1543.34 Q1907.93 1544.47 1910.15 1545.03 Q1912.37 1545.58 1914.85 1545.58 Q1918.85 1545.58 1921.19 1543.48 Q1923.53 1541.37 1923.53 1537.76 Q1923.53 1534.15 1921.19 1532.04 Q1918.85 1529.94 1914.85 1529.94 Q1912.97 1529.94 1911.1 1530.35 Q1909.25 1530.77 1907.3 1531.65 L1907.3 1514.29 Z" fill="#000000" fill-rule="nonzero" fill-opacity="1"></path><path clip-path="url(#clip180)" d="M2296.33 1529.7 Q2293.18 1529.7 2291.33 1531.86 Q2289.5 1534.01 2289.5 1537.76 Q2289.5 1541.49 2291.33 1543.66 Q2293.18 1545.82 2296.33 1545.82 Q2299.47 1545.82 2301.3 1543.66 Q2303.16 1541.49 2303.16 1537.76 Q2303.16 1534.01 2301.3 1531.86 Q2299.47 1529.7 2296.33 1529.7 M2305.61 1515.05 L2305.61 1519.31 Q2303.85 1518.48 2302.04 1518.04 Q2300.26 1517.6 2298.5 1517.6 Q2293.87 1517.6 2291.42 1520.72 Q2288.99 1523.85 2288.64 1530.17 Q2290.01 1528.15 2292.07 1527.09 Q2294.13 1526 2296.6 1526 Q2301.81 1526 2304.82 1529.17 Q2307.85 1532.32 2307.85 1537.76 Q2307.85 1543.08 2304.71 1546.3 Q2301.56 1549.52 2296.33 1549.52 Q2290.33 1549.52 2287.16 1544.94 Q2283.99 1540.33 2283.99 1531.6 Q2283.99 1523.41 2287.88 1518.55 Q2291.77 1513.66 2298.32 1513.66 Q2300.08 1513.66 2301.86 1514.01 Q2303.66 1514.36 2305.61 1515.05 Z" fill="#000000" fill-rule="nonzero" fill-opacity="1"></path><polyline clip-path="url(#clip182)" style="stroke:#000000; stroke-linecap:round; stroke-linejoin:round; stroke-width:2; stroke-opacity:0.1; fill:none" points="344.606,1394.97 2352.76,1394.97 "></polyline>
<polyline clip-path="url(#clip182)" style="stroke:#000000; stroke-linecap:round; stroke-linejoin:round; stroke-width:2; stroke-opacity:0.1; fill:none" points="344.606,1087.6 2352.76,1087.6 "></polyline>
<polyline clip-path="url(#clip182)" style="stroke:#000000; stroke-linecap:round; stroke-linejoin:round; stroke-width:2; stroke-opacity:0.1; fill:none" points="344.606,780.236 2352.76,780.236 "></polyline>
<polyline clip-path="url(#clip182)" style="stroke:#000000; stroke-linecap:round; stroke-linejoin:round; stroke-width:2; stroke-opacity:0.1; fill:none" points="344.606,472.87 2352.76,472.87 "></polyline>
<polyline clip-path="url(#clip182)" style="stroke:#000000; stroke-linecap:round; stroke-linejoin:round; stroke-width:2; stroke-opacity:0.1; fill:none" points="344.606,165.504 2352.76,165.504 "></polyline>
<polyline clip-path="url(#clip180)" style="stroke:#000000; stroke-linecap:round; stroke-linejoin:round; stroke-width:4; stroke-opacity:1; fill:none" points="344.606,1486.45 344.606,47.2441 "></polyline>
<polyline clip-path="url(#clip180)" style="stroke:#000000; stroke-linecap:round; stroke-linejoin:round; stroke-width:4; stroke-opacity:1; fill:none" points="344.606,1394.97 363.504,1394.97 "></polyline>
<polyline clip-path="url(#clip180)" style="stroke:#000000; stroke-linecap:round; stroke-linejoin:round; stroke-width:4; stroke-opacity:1; fill:none" points="344.606,1087.6 363.504,1087.6 "></polyline>
<polyline clip-path="url(#clip180)" style="stroke:#000000; stroke-linecap:round; stroke-linejoin:round; stroke-width:4; stroke-opacity:1; fill:none" points="344.606,780.236 363.504,780.236 "></polyline>
<polyline clip-path="url(#clip180)" style="stroke:#000000; stroke-linecap:round; stroke-linejoin:round; stroke-width:4; stroke-opacity:1; fill:none" points="344.606,472.87 363.504,472.87 "></polyline>
<polyline clip-path="url(#clip180)" style="stroke:#000000; stroke-linecap:round; stroke-linejoin:round; stroke-width:4; stroke-opacity:1; fill:none" points="344.606,165.504 363.504,165.504 "></polyline>
<path clip-path="url(#clip180)" d="M53.2867 1401.87 L82.9624 1401.87 L82.9624 1405.8 L53.2867 1405.8 L53.2867 1401.87 Z" fill="#000000" fill-rule="nonzero" fill-opacity="1"></path><path clip-path="url(#clip180)" d="M93.8652 1414.76 L101.504 1414.76 L101.504 1388.4 L93.1939 1390.06 L93.1939 1385.8 L101.458 1384.14 L106.134 1384.14 L106.134 1414.76 L113.772 1414.76 L113.772 1418.7 L93.8652 1418.7 L93.8652 1414.76 Z" fill="#000000" fill-rule="nonzero" fill-opacity="1"></path><path clip-path="url(#clip180)" d="M123.217 1412.82 L128.101 1412.82 L128.101 1418.7 L123.217 1418.7 L123.217 1412.82 Z" fill="#000000" fill-rule="nonzero" fill-opacity="1"></path><path clip-path="url(#clip180)" d="M142.314 1414.76 L158.633 1414.76 L158.633 1418.7 L136.689 1418.7 L136.689 1414.76 Q139.351 1412.01 143.934 1407.38 Q148.541 1402.72 149.721 1401.38 Q151.967 1398.86 152.846 1397.12 Q153.749 1395.36 153.749 1393.67 Q153.749 1390.92 151.805 1389.18 Q149.883 1387.45 146.782 1387.45 Q144.582 1387.45 142.129 1388.21 Q139.698 1388.97 136.92 1390.52 L136.92 1385.8 Q139.745 1384.67 142.198 1384.09 Q144.652 1383.51 146.689 1383.51 Q152.059 1383.51 155.254 1386.2 Q158.448 1388.88 158.448 1393.37 Q158.448 1395.5 157.638 1397.42 Q156.851 1399.32 154.744 1401.91 Q154.166 1402.58 151.064 1405.8 Q147.962 1409 142.314 1414.76 Z" fill="#000000" fill-rule="nonzero" fill-opacity="1"></path><path clip-path="url(#clip180)" d="M178.448 1387.21 Q174.837 1387.21 173.008 1390.78 Q171.203 1394.32 171.203 1401.45 Q171.203 1408.56 173.008 1412.12 Q174.837 1415.66 178.448 1415.66 Q182.082 1415.66 183.888 1412.12 Q185.717 1408.56 185.717 1401.45 Q185.717 1394.32 183.888 1390.78 Q182.082 1387.21 178.448 1387.21 M178.448 1383.51 Q184.258 1383.51 187.314 1388.12 Q190.392 1392.7 190.392 1401.45 Q190.392 1410.18 187.314 1414.78 Q184.258 1419.37 178.448 1419.37 Q172.638 1419.37 169.559 1414.78 Q166.504 1410.18 166.504 1401.45 Q166.504 1392.7 169.559 1388.12 Q172.638 1383.51 178.448 1383.51 Z" fill="#000000" fill-rule="nonzero" fill-opacity="1"></path><path clip-path="url(#clip180)" d="M226.781 1393.23 L216.202 1403.86 L226.781 1414.44 L224.026 1417.24 L213.402 1406.61 L202.777 1417.24 L200.045 1414.44 L210.601 1403.86 L200.045 1393.23 L202.777 1390.43 L213.402 1401.06 L224.026 1390.43 L226.781 1393.23 Z" fill="#000000" fill-rule="nonzero" fill-opacity="1"></path><path clip-path="url(#clip180)" d="M239.142 1414.76 L246.781 1414.76 L246.781 1388.4 L238.471 1390.06 L238.471 1385.8 L246.735 1384.14 L251.411 1384.14 L251.411 1414.76 L259.049 1414.76 L259.049 1418.7 L239.142 1418.7 L239.142 1414.76 Z" fill="#000000" fill-rule="nonzero" fill-opacity="1"></path><path clip-path="url(#clip180)" d="M278.494 1387.21 Q274.883 1387.21 273.054 1390.78 Q271.248 1394.32 271.248 1401.45 Q271.248 1408.56 273.054 1412.12 Q274.883 1415.66 278.494 1415.66 Q282.128 1415.66 283.934 1412.12 Q285.762 1408.56 285.762 1401.45 Q285.762 1394.32 283.934 1390.78 Q282.128 1387.21 278.494 1387.21 M278.494 1383.51 Q284.304 1383.51 287.359 1388.12 Q290.438 1392.7 290.438 1401.45 Q290.438 1410.18 287.359 1414.78 Q284.304 1419.37 278.494 1419.37 Q272.684 1419.37 269.605 1414.78 Q266.549 1410.18 266.549 1401.45 Q266.549 1392.7 269.605 1388.12 Q272.684 1383.51 278.494 1383.51 Z" fill="#000000" fill-rule="nonzero" fill-opacity="1"></path><path clip-path="url(#clip180)" d="M291.623 1363.21 L306.538 1363.21 L306.538 1366.4 L295.103 1366.4 L295.103 1373.29 Q295.93 1373 296.758 1372.87 Q297.585 1372.72 298.413 1372.72 Q303.115 1372.72 305.861 1375.3 Q308.606 1377.88 308.606 1382.28 Q308.606 1386.81 305.785 1389.33 Q302.964 1391.83 297.83 1391.83 Q296.062 1391.83 294.219 1391.53 Q292.394 1391.23 290.438 1390.63 L290.438 1386.81 Q292.131 1387.73 293.936 1388.18 Q295.742 1388.63 297.754 1388.63 Q301.008 1388.63 302.908 1386.92 Q304.807 1385.21 304.807 1382.28 Q304.807 1379.34 302.908 1377.63 Q301.008 1375.92 297.754 1375.92 Q296.231 1375.92 294.708 1376.26 Q293.203 1376.6 291.623 1377.31 L291.623 1363.21 Z" fill="#000000" fill-rule="nonzero" fill-opacity="1"></path><path clip-path="url(#clip180)" d="M53.2867 1094.5 L82.9624 1094.5 L82.9624 1098.44 L53.2867 1098.44 L53.2867 1094.5 Z" fill="#000000" fill-rule="nonzero" fill-opacity="1"></path><path clip-path="url(#clip180)" d="M93.8652 1107.39 L101.504 1107.39 L101.504 1081.03 L93.1939 1082.7 L93.1939 1078.44 L101.458 1076.77 L106.134 1076.77 L106.134 1107.39 L113.772 1107.39 L113.772 1111.33 L93.8652 1111.33 L93.8652 1107.39 Z" fill="#000000" fill-rule="nonzero" fill-opacity="1"></path><path clip-path="url(#clip180)" d="M123.217 1105.45 L128.101 1105.45 L128.101 1111.33 L123.217 1111.33 L123.217 1105.45 Z" fill="#000000" fill-rule="nonzero" fill-opacity="1"></path><path clip-path="url(#clip180)" d="M148.286 1079.85 Q144.675 1079.85 142.846 1083.41 Q141.041 1086.95 141.041 1094.08 Q141.041 1101.19 142.846 1104.76 Q144.675 1108.3 148.286 1108.3 Q151.92 1108.3 153.726 1104.76 Q155.555 1101.19 155.555 1094.08 Q155.555 1086.95 153.726 1083.41 Q151.92 1079.85 148.286 1079.85 M148.286 1076.14 Q154.096 1076.14 157.152 1080.75 Q160.231 1085.33 160.231 1094.08 Q160.231 1102.81 157.152 1107.42 Q154.096 1112 148.286 1112 Q142.476 1112 139.397 1107.42 Q136.342 1102.81 136.342 1094.08 Q136.342 1085.33 139.397 1080.75 Q142.476 1076.14 148.286 1076.14 Z" fill="#000000" fill-rule="nonzero" fill-opacity="1"></path><path clip-path="url(#clip180)" d="M178.448 1079.85 Q174.837 1079.85 173.008 1083.41 Q171.203 1086.95 171.203 1094.08 Q171.203 1101.19 173.008 1104.76 Q174.837 1108.3 178.448 1108.3 Q182.082 1108.3 183.888 1104.76 Q185.717 1101.19 185.717 1094.08 Q185.717 1086.95 183.888 1083.41 Q182.082 1079.85 178.448 1079.85 M178.448 1076.14 Q184.258 1076.14 187.314 1080.75 Q190.392 1085.33 190.392 1094.08 Q190.392 1102.81 187.314 1107.42 Q184.258 1112 178.448 1112 Q172.638 1112 169.559 1107.42 Q166.504 1102.81 166.504 1094.08 Q166.504 1085.33 169.559 1080.75 Q172.638 1076.14 178.448 1076.14 Z" fill="#000000" fill-rule="nonzero" fill-opacity="1"></path><path clip-path="url(#clip180)" d="M226.781 1085.87 L216.202 1096.49 L226.781 1107.07 L224.026 1109.87 L213.402 1099.25 L202.777 1109.87 L200.045 1107.07 L210.601 1096.49 L200.045 1085.87 L202.777 1083.07 L213.402 1093.69 L224.026 1083.07 L226.781 1085.87 Z" fill="#000000" fill-rule="nonzero" fill-opacity="1"></path><path clip-path="url(#clip180)" d="M239.142 1107.39 L246.781 1107.39 L246.781 1081.03 L238.471 1082.7 L238.471 1078.44 L246.735 1076.77 L251.411 1076.77 L251.411 1107.39 L259.049 1107.39 L259.049 1111.33 L239.142 1111.33 L239.142 1107.39 Z" fill="#000000" fill-rule="nonzero" fill-opacity="1"></path><path clip-path="url(#clip180)" d="M278.494 1079.85 Q274.883 1079.85 273.054 1083.41 Q271.248 1086.95 271.248 1094.08 Q271.248 1101.19 273.054 1104.76 Q274.883 1108.3 278.494 1108.3 Q282.128 1108.3 283.934 1104.76 Q285.762 1101.19 285.762 1094.08 Q285.762 1086.95 283.934 1083.41 Q282.128 1079.85 278.494 1079.85 M278.494 1076.14 Q284.304 1076.14 287.359 1080.75 Q290.438 1085.33 290.438 1094.08 Q290.438 1102.81 287.359 1107.42 Q284.304 1112 278.494 1112 Q272.684 1112 269.605 1107.42 Q266.549 1102.81 266.549 1094.08 Q266.549 1085.33 269.605 1080.75 Q272.684 1076.14 278.494 1076.14 Z" fill="#000000" fill-rule="nonzero" fill-opacity="1"></path><path clip-path="url(#clip180)" d="M291.623 1055.84 L306.538 1055.84 L306.538 1059.04 L295.103 1059.04 L295.103 1065.92 Q295.93 1065.64 296.758 1065.51 Q297.585 1065.36 298.413 1065.36 Q303.115 1065.36 305.861 1067.93 Q308.606 1070.51 308.606 1074.91 Q308.606 1079.44 305.785 1081.96 Q302.964 1084.46 297.83 1084.46 Q296.062 1084.46 294.219 1084.16 Q292.394 1083.86 290.438 1083.26 L290.438 1079.44 Q292.131 1080.36 293.936 1080.82 Q295.742 1081.27 297.754 1081.27 Q301.008 1081.27 302.908 1079.56 Q304.807 1077.84 304.807 1074.91 Q304.807 1071.98 302.908 1070.26 Q301.008 1068.55 297.754 1068.55 Q296.231 1068.55 294.708 1068.89 Q293.203 1069.23 291.623 1069.95 L291.623 1055.84 Z" fill="#000000" fill-rule="nonzero" fill-opacity="1"></path><path clip-path="url(#clip180)" d="M50.9921 787.135 L80.6679 787.135 L80.6679 791.07 L50.9921 791.07 L50.9921 787.135 Z" fill="#000000" fill-rule="nonzero" fill-opacity="1"></path><path clip-path="url(#clip180)" d="M100.76 787.552 Q97.4271 787.552 95.5058 789.334 Q93.6076 791.117 93.6076 794.242 Q93.6076 797.367 95.5058 799.149 Q97.4271 800.931 100.76 800.931 Q104.094 800.931 106.015 799.149 Q107.936 797.344 107.936 794.242 Q107.936 791.117 106.015 789.334 Q104.117 787.552 100.76 787.552 M96.0845 785.561 Q93.0752 784.82 91.3854 782.76 Q89.7188 780.7 89.7188 777.737 Q89.7188 773.594 92.6586 771.186 Q95.6215 768.779 100.76 768.779 Q105.922 768.779 108.862 771.186 Q111.802 773.594 111.802 777.737 Q111.802 780.7 110.112 782.76 Q108.446 784.82 105.459 785.561 Q108.839 786.348 110.714 788.64 Q112.612 790.932 112.612 794.242 Q112.612 799.265 109.533 801.95 Q106.478 804.635 100.76 804.635 Q95.0428 804.635 91.9641 801.95 Q88.9086 799.265 88.9086 794.242 Q88.9086 790.932 90.8067 788.64 Q92.7049 786.348 96.0845 785.561 M94.3715 778.177 Q94.3715 780.862 96.0382 782.367 Q97.728 783.871 100.76 783.871 Q103.77 783.871 105.459 782.367 Q107.172 780.862 107.172 778.177 Q107.172 775.492 105.459 773.987 Q103.77 772.483 100.76 772.483 Q97.728 772.483 96.0382 773.987 Q94.3715 775.492 94.3715 778.177 Z" fill="#000000" fill-rule="nonzero" fill-opacity="1"></path><path clip-path="url(#clip180)" d="M120.922 798.084 L125.807 798.084 L125.807 803.964 L120.922 803.964 L120.922 798.084 Z" fill="#000000" fill-rule="nonzero" fill-opacity="1"></path><path clip-path="url(#clip180)" d="M145.992 772.483 Q142.381 772.483 140.552 776.047 Q138.746 779.589 138.746 786.719 Q138.746 793.825 140.552 797.39 Q142.381 800.931 145.992 800.931 Q149.626 800.931 151.431 797.39 Q153.26 793.825 153.26 786.719 Q153.26 779.589 151.431 776.047 Q149.626 772.483 145.992 772.483 M145.992 768.779 Q151.802 768.779 154.857 773.385 Q157.936 777.969 157.936 786.719 Q157.936 795.445 154.857 800.052 Q151.802 804.635 145.992 804.635 Q140.181 804.635 137.103 800.052 Q134.047 795.445 134.047 786.719 Q134.047 777.969 137.103 773.385 Q140.181 768.779 145.992 768.779 Z" fill="#000000" fill-rule="nonzero" fill-opacity="1"></path><path clip-path="url(#clip180)" d="M176.153 772.483 Q172.542 772.483 170.714 776.047 Q168.908 779.589 168.908 786.719 Q168.908 793.825 170.714 797.39 Q172.542 800.931 176.153 800.931 Q179.788 800.931 181.593 797.39 Q183.422 793.825 183.422 786.719 Q183.422 779.589 181.593 776.047 Q179.788 772.483 176.153 772.483 M176.153 768.779 Q181.964 768.779 185.019 773.385 Q188.098 777.969 188.098 786.719 Q188.098 795.445 185.019 800.052 Q181.964 804.635 176.153 804.635 Q170.343 804.635 167.265 800.052 Q164.209 795.445 164.209 786.719 Q164.209 777.969 167.265 773.385 Q170.343 768.779 176.153 768.779 Z" fill="#000000" fill-rule="nonzero" fill-opacity="1"></path><path clip-path="url(#clip180)" d="M224.487 778.501 L213.908 789.126 L224.487 799.705 L221.732 802.506 L211.107 791.881 L200.482 802.506 L197.751 799.705 L208.306 789.126 L197.751 778.501 L200.482 775.7 L211.107 786.325 L221.732 775.7 L224.487 778.501 Z" fill="#000000" fill-rule="nonzero" fill-opacity="1"></path><path clip-path="url(#clip180)" d="M236.848 800.029 L244.486 800.029 L244.486 773.663 L236.176 775.33 L236.176 771.071 L244.44 769.404 L249.116 769.404 L249.116 800.029 L256.755 800.029 L256.755 803.964 L236.848 803.964 L236.848 800.029 Z" fill="#000000" fill-rule="nonzero" fill-opacity="1"></path><path clip-path="url(#clip180)" d="M276.199 772.483 Q272.588 772.483 270.759 776.047 Q268.954 779.589 268.954 786.719 Q268.954 793.825 270.759 797.39 Q272.588 800.931 276.199 800.931 Q279.833 800.931 281.639 797.39 Q283.468 793.825 283.468 786.719 Q283.468 779.589 281.639 776.047 Q279.833 772.483 276.199 772.483 M276.199 768.779 Q282.009 768.779 285.065 773.385 Q288.144 777.969 288.144 786.719 Q288.144 795.445 285.065 800.052 Q282.009 804.635 276.199 804.635 Q270.389 804.635 267.31 800.052 Q264.255 795.445 264.255 786.719 Q264.255 777.969 267.31 773.385 Q270.389 768.779 276.199 768.779 Z" fill="#000000" fill-rule="nonzero" fill-opacity="1"></path><path clip-path="url(#clip180)" d="M300.82 751.784 L291.228 766.773 L300.82 766.773 L300.82 751.784 M299.823 748.473 L304.6 748.473 L304.6 766.773 L308.606 766.773 L308.606 769.933 L304.6 769.933 L304.6 776.553 L300.82 776.553 L300.82 769.933 L288.144 769.933 L288.144 766.266 L299.823 748.473 Z" fill="#000000" fill-rule="nonzero" fill-opacity="1"></path><path clip-path="url(#clip180)" d="M50.9921 479.769 L80.6679 479.769 L80.6679 483.704 L50.9921 483.704 L50.9921 479.769 Z" fill="#000000" fill-rule="nonzero" fill-opacity="1"></path><path clip-path="url(#clip180)" d="M101.339 477.454 Q98.1909 477.454 96.3391 479.607 Q94.5104 481.76 94.5104 485.51 Q94.5104 489.237 96.3391 491.413 Q98.1909 493.565 101.339 493.565 Q104.487 493.565 106.316 491.413 Q108.168 489.237 108.168 485.51 Q108.168 481.76 106.316 479.607 Q104.487 477.454 101.339 477.454 M110.621 462.802 L110.621 467.061 Q108.862 466.228 107.057 465.788 Q105.274 465.348 103.515 465.348 Q98.8854 465.348 96.4317 468.473 Q94.0012 471.598 93.6539 477.917 Q95.0197 475.904 97.0798 474.839 Q99.14 473.751 101.617 473.751 Q106.825 473.751 109.834 476.922 Q112.867 480.07 112.867 485.51 Q112.867 490.834 109.719 494.052 Q106.571 497.269 101.339 497.269 Q95.3437 497.269 92.1725 492.686 Q89.0012 488.079 89.0012 479.353 Q89.0012 471.158 92.89 466.297 Q96.7789 461.413 103.33 461.413 Q105.089 461.413 106.871 461.76 Q108.677 462.107 110.621 462.802 Z" fill="#000000" fill-rule="nonzero" fill-opacity="1"></path><path clip-path="url(#clip180)" d="M120.922 490.718 L125.807 490.718 L125.807 496.598 L120.922 496.598 L120.922 490.718 Z" fill="#000000" fill-rule="nonzero" fill-opacity="1"></path><path clip-path="url(#clip180)" d="M145.992 465.117 Q142.381 465.117 140.552 468.681 Q138.746 472.223 138.746 479.353 Q138.746 486.459 140.552 490.024 Q142.381 493.565 145.992 493.565 Q149.626 493.565 151.431 490.024 Q153.26 486.459 153.26 479.353 Q153.26 472.223 151.431 468.681 Q149.626 465.117 145.992 465.117 M145.992 461.413 Q151.802 461.413 154.857 466.019 Q157.936 470.603 157.936 479.353 Q157.936 488.079 154.857 492.686 Q151.802 497.269 145.992 497.269 Q140.181 497.269 137.103 492.686 Q134.047 488.079 134.047 479.353 Q134.047 470.603 137.103 466.019 Q140.181 461.413 145.992 461.413 Z" fill="#000000" fill-rule="nonzero" fill-opacity="1"></path><path clip-path="url(#clip180)" d="M176.153 465.117 Q172.542 465.117 170.714 468.681 Q168.908 472.223 168.908 479.353 Q168.908 486.459 170.714 490.024 Q172.542 493.565 176.153 493.565 Q179.788 493.565 181.593 490.024 Q183.422 486.459 183.422 479.353 Q183.422 472.223 181.593 468.681 Q179.788 465.117 176.153 465.117 M176.153 461.413 Q181.964 461.413 185.019 466.019 Q188.098 470.603 188.098 479.353 Q188.098 488.079 185.019 492.686 Q181.964 497.269 176.153 497.269 Q170.343 497.269 167.265 492.686 Q164.209 488.079 164.209 479.353 Q164.209 470.603 167.265 466.019 Q170.343 461.413 176.153 461.413 Z" fill="#000000" fill-rule="nonzero" fill-opacity="1"></path><path clip-path="url(#clip180)" d="M224.487 471.135 L213.908 481.76 L224.487 492.339 L221.732 495.14 L211.107 484.515 L200.482 495.14 L197.751 492.339 L208.306 481.76 L197.751 471.135 L200.482 468.334 L211.107 478.959 L221.732 468.334 L224.487 471.135 Z" fill="#000000" fill-rule="nonzero" fill-opacity="1"></path><path clip-path="url(#clip180)" d="M236.848 492.663 L244.486 492.663 L244.486 466.297 L236.176 467.964 L236.176 463.705 L244.44 462.038 L249.116 462.038 L249.116 492.663 L256.755 492.663 L256.755 496.598 L236.848 496.598 L236.848 492.663 Z" fill="#000000" fill-rule="nonzero" fill-opacity="1"></path><path clip-path="url(#clip180)" d="M276.199 465.117 Q272.588 465.117 270.759 468.681 Q268.954 472.223 268.954 479.353 Q268.954 486.459 270.759 490.024 Q272.588 493.565 276.199 493.565 Q279.833 493.565 281.639 490.024 Q283.468 486.459 283.468 479.353 Q283.468 472.223 281.639 468.681 Q279.833 465.117 276.199 465.117 M276.199 461.413 Q282.009 461.413 285.065 466.019 Q288.144 470.603 288.144 479.353 Q288.144 488.079 285.065 492.686 Q282.009 497.269 276.199 497.269 Q270.389 497.269 267.31 492.686 Q264.255 488.079 264.255 479.353 Q264.255 470.603 267.31 466.019 Q270.389 461.413 276.199 461.413 Z" fill="#000000" fill-rule="nonzero" fill-opacity="1"></path><path clip-path="url(#clip180)" d="M300.82 444.418 L291.228 459.407 L300.82 459.407 L300.82 444.418 M299.823 441.107 L304.6 441.107 L304.6 459.407 L308.606 459.407 L308.606 462.567 L304.6 462.567 L304.6 469.187 L300.82 469.187 L300.82 462.567 L288.144 462.567 L288.144 458.9 L299.823 441.107 Z" fill="#000000" fill-rule="nonzero" fill-opacity="1"></path><path clip-path="url(#clip180)" d="M50.9921 172.403 L80.6679 172.403 L80.6679 176.338 L50.9921 176.338 L50.9921 172.403 Z" fill="#000000" fill-rule="nonzero" fill-opacity="1"></path><path clip-path="url(#clip180)" d="M103.608 158.746 L91.8021 177.195 L103.608 177.195 L103.608 158.746 M102.381 154.672 L108.26 154.672 L108.26 177.195 L113.191 177.195 L113.191 181.084 L108.26 181.084 L108.26 189.232 L103.608 189.232 L103.608 181.084 L88.0058 181.084 L88.0058 176.57 L102.381 154.672 Z" fill="#000000" fill-rule="nonzero" fill-opacity="1"></path><path clip-path="url(#clip180)" d="M120.922 183.352 L125.807 183.352 L125.807 189.232 L120.922 189.232 L120.922 183.352 Z" fill="#000000" fill-rule="nonzero" fill-opacity="1"></path><path clip-path="url(#clip180)" d="M145.992 157.751 Q142.381 157.751 140.552 161.315 Q138.746 164.857 138.746 171.987 Q138.746 179.093 140.552 182.658 Q142.381 186.2 145.992 186.2 Q149.626 186.2 151.431 182.658 Q153.26 179.093 153.26 171.987 Q153.26 164.857 151.431 161.315 Q149.626 157.751 145.992 157.751 M145.992 154.047 Q151.802 154.047 154.857 158.653 Q157.936 163.237 157.936 171.987 Q157.936 180.713 154.857 185.32 Q151.802 189.903 145.992 189.903 Q140.181 189.903 137.103 185.32 Q134.047 180.713 134.047 171.987 Q134.047 163.237 137.103 158.653 Q140.181 154.047 145.992 154.047 Z" fill="#000000" fill-rule="nonzero" fill-opacity="1"></path><path clip-path="url(#clip180)" d="M176.153 157.751 Q172.542 157.751 170.714 161.315 Q168.908 164.857 168.908 171.987 Q168.908 179.093 170.714 182.658 Q172.542 186.2 176.153 186.2 Q179.788 186.2 181.593 182.658 Q183.422 179.093 183.422 171.987 Q183.422 164.857 181.593 161.315 Q179.788 157.751 176.153 157.751 M176.153 154.047 Q181.964 154.047 185.019 158.653 Q188.098 163.237 188.098 171.987 Q188.098 180.713 185.019 185.32 Q181.964 189.903 176.153 189.903 Q170.343 189.903 167.265 185.32 Q164.209 180.713 164.209 171.987 Q164.209 163.237 167.265 158.653 Q170.343 154.047 176.153 154.047 Z" fill="#000000" fill-rule="nonzero" fill-opacity="1"></path><path clip-path="url(#clip180)" d="M224.487 163.769 L213.908 174.394 L224.487 184.973 L221.732 187.774 L211.107 177.149 L200.482 187.774 L197.751 184.973 L208.306 174.394 L197.751 163.769 L200.482 160.968 L211.107 171.593 L221.732 160.968 L224.487 163.769 Z" fill="#000000" fill-rule="nonzero" fill-opacity="1"></path><path clip-path="url(#clip180)" d="M236.848 185.297 L244.486 185.297 L244.486 158.931 L236.176 160.598 L236.176 156.339 L244.44 154.672 L249.116 154.672 L249.116 185.297 L256.755 185.297 L256.755 189.232 L236.848 189.232 L236.848 185.297 Z" fill="#000000" fill-rule="nonzero" fill-opacity="1"></path><path clip-path="url(#clip180)" d="M276.199 157.751 Q272.588 157.751 270.759 161.315 Q268.954 164.857 268.954 171.987 Q268.954 179.093 270.759 182.658 Q272.588 186.2 276.199 186.2 Q279.833 186.2 281.639 182.658 Q283.468 179.093 283.468 171.987 Q283.468 164.857 281.639 161.315 Q279.833 157.751 276.199 157.751 M276.199 154.047 Q282.009 154.047 285.065 158.653 Q288.144 163.237 288.144 171.987 Q288.144 180.713 285.065 185.32 Q282.009 189.903 276.199 189.903 Q270.389 189.903 267.31 185.32 Q264.255 180.713 264.255 171.987 Q264.255 163.237 267.31 158.653 Q270.389 154.047 276.199 154.047 Z" fill="#000000" fill-rule="nonzero" fill-opacity="1"></path><path clip-path="url(#clip180)" d="M300.82 137.052 L291.228 152.041 L300.82 152.041 L300.82 137.052 M299.823 133.742 L304.6 133.742 L304.6 152.041 L308.606 152.041 L308.606 155.201 L304.6 155.201 L304.6 161.822 L300.82 161.822 L300.82 155.201 L288.144 155.201 L288.144 151.534 L299.823 133.742 Z" fill="#000000" fill-rule="nonzero" fill-opacity="1"></path><polyline clip-path="url(#clip182)" style="stroke:#009af9; stroke-linecap:round; stroke-linejoin:round; stroke-width:4; stroke-opacity:1; fill:none" points="401.441,1445.72 780.337,570.133 1159.23,435.493 1538.13,363.617 1917.03,168.988 2295.92,87.9763 "></polyline>
<path clip-path="url(#clip180)" d="M411.545 198.898 L664.79 198.898 L664.79 95.2176 L411.545 95.2176  Z" fill="#ffffff" fill-rule="evenodd" fill-opacity="1"></path>
<polyline clip-path="url(#clip180)" style="stroke:#000000; stroke-linecap:round; stroke-linejoin:round; stroke-width:4; stroke-opacity:1; fill:none" points="411.545,198.898 664.79,198.898 664.79,95.2176 411.545,95.2176 411.545,198.898 "></polyline>
<polyline clip-path="url(#clip180)" style="stroke:#009af9; stroke-linecap:round; stroke-linejoin:round; stroke-width:4; stroke-opacity:1; fill:none" points="433.858,147.058 567.734,147.058 "></polyline>
<path clip-path="url(#clip180)" d="M603.889 166.745 Q602.084 171.375 600.371 172.787 Q598.658 174.199 595.788 174.199 L592.385 174.199 L592.385 170.634 L594.885 170.634 Q596.644 170.634 597.616 169.8 Q598.589 168.967 599.769 165.865 L600.533 163.921 L590.047 138.412 L594.561 138.412 L602.663 158.689 L610.764 138.412 L615.278 138.412 L603.889 166.745 Z" fill="#000000" fill-rule="nonzero" fill-opacity="1"></path><path clip-path="url(#clip180)" d="M622.57 160.402 L630.209 160.402 L630.209 134.037 L621.899 135.703 L621.899 131.444 L630.162 129.778 L634.838 129.778 L634.838 160.402 L642.477 160.402 L642.477 164.338 L622.57 164.338 L622.57 160.402 Z" fill="#000000" fill-rule="nonzero" fill-opacity="1"></path></svg>