<svg xmlns="http://www.w3.org/2000/svg" xmlns:xlink="http://www.w3.org/1999/xlink" width="600" height="400" viewBox="0 0 2400 1600">
<defs>
  <clipPath id="clip830">
    <rect x="0" y="0" width="2400" height="1600"></rect>
  </clipPath>
</defs>
<path clip-path="url(#clip830)" d="M0 1600 L2400 1600 L2400 0 L0 0  Z" fill="#ffffff" fill-rule="evenodd" fill-opacity="1"></path>
<defs>
  <clipPath id="clip831">
    <rect x="480" y="0" width="1681" height="1600"></rect>
  </clipPath>
</defs>
<path clip-path="url(#clip830)" d="M269.352 1486.45 L2352.76 1486.45 L2352.76 47.2441 L269.352 47.2441  Z" fill="#ffffff" fill-rule="evenodd" fill-opacity="1"></path>
<defs>
  <clipPath id="clip832">
    <rect x="269" y="47" width="2084" height="1440"></rect>
  </clipPath>
</defs>
<polyline clip-path="url(#clip832)" style="stroke:#000000; stroke-linecap:round; stroke-linejoin:round; stroke-width:2; stroke-opacity:0.1; fill:none" points="328.317,1486.45 328.317,47.2441 "></polyline>
<polyline clip-path="url(#clip832)" style="stroke:#000000; stroke-linecap:round; stroke-linejoin:round; stroke-width:2; stroke-opacity:0.1; fill:none" points="721.412,1486.45 721.412,47.2441 "></polyline>
<polyline clip-path="url(#clip832)" style="stroke:#000000; stroke-linecap:round; stroke-linejoin:round; stroke-width:2; stroke-opacity:0.1; fill:none" points="1114.51,1486.45 1114.51,47.2441 "></polyline>
<polyline clip-path="url(#clip832)" style="stroke:#000000; stroke-linecap:round; stroke-linejoin:round; stroke-width:2; stroke-opacity:0.1; fill:none" points="1507.6,1486.45 1507.6,47.2441 "></polyline>
<polyline clip-path="url(#clip832)" style="stroke:#000000; stroke-linecap:round; stroke-linejoin:round; stroke-width:2; stroke-opacity:0.1; fill:none" points="1900.7,1486.45 1900.7,47.2441 "></polyline>
<polyline clip-path="url(#clip832)" style="stroke:#000000; stroke-linecap:round; stroke-linejoin:round; stroke-width:2; stroke-opacity:0.1; fill:none" points="2293.79,1486.45 2293.79,47.2441 "></polyline>
<polyline clip-path="url(#clip830)" style="stroke:#000000; stroke-linecap:round; stroke-linejoin:round; stroke-width:4; stroke-opacity:1; fill:none" points="269.352,1486.45 2352.76,1486.45 "></polyline>
<polyline clip-path="url(#clip830)" style="stroke:#000000; stroke-linecap:round; stroke-linejoin:round; stroke-width:4; stroke-opacity:1; fill:none" points="328.317,1486.45 328.317,1467.55 "></polyline>
<polyline clip-path="url(#clip830)" style="stroke:#000000; stroke-linecap:round; stroke-linejoin:round; stroke-width:4; stroke-opacity:1; fill:none" points="721.412,1486.45 721.412,1467.55 "></polyline>
<polyline clip-path="url(#clip830)" style="stroke:#000000; stroke-linecap:round; stroke-linejoin:round; stroke-width:4; stroke-opacity:1; fill:none" points="1114.51,1486.45 1114.51,1467.55 "></polyline>
<polyline clip-path="url(#clip830)" style="stroke:#000000; stroke-linecap:round; stroke-linejoin:round; stroke-width:4; stroke-opacity:1; fill:none" points="1507.6,1486.45 1507.6,1467.55 "></polyline>
<polyline clip-path="url(#clip830)" style="stroke:#000000; stroke-linecap:round; stroke-linejoin:round; stroke-width:4; stroke-opacity:1; fill:none" points="1900.7,1486.45 1900.7,1467.55 "></polyline>
<polyline clip-path="url(#clip830)" style="stroke:#000000; stroke-linecap:round; stroke-linejoin:round; stroke-width:4; stroke-opacity:1; fill:none" points="2293.79,1486.45 2293.79,1467.55 "></polyline>
<path clip-path="url(#clip830)" d="M318.699 1544.91 L326.337 1544.91 L326.337 1518.55 L318.027 1520.21 L318.027 1515.95 L326.291 1514.29 L330.967 1514.29 L330.967 1544.91 L338.606 1544.91 L338.606 1548.85 L318.699 1548.85 L318.699 1544.91 Z" fill="#000000" fill-rule="nonzero" fill-opacity="1"></path><path clip-path="url(#clip830)" d="M716.064 1544.91 L732.384 1544.91 L732.384 1548.85 L710.439 1548.85 L710.439 1544.91 Q713.101 1542.16 717.685 1537.53 Q722.291 1532.88 723.472 1531.53 Q725.717 1529.01 726.597 1527.27 Q727.499 1525.51 727.499 1523.82 Q727.499 1521.07 725.555 1519.33 Q723.634 1517.6 720.532 1517.6 Q718.333 1517.6 715.879 1518.36 Q713.449 1519.13 710.671 1520.68 L710.671 1515.95 Q713.495 1514.82 715.949 1514.24 Q718.402 1513.66 720.439 1513.66 Q725.81 1513.66 729.004 1516.35 Q732.199 1519.03 732.199 1523.52 Q732.199 1525.65 731.388 1527.57 Q730.601 1529.47 728.495 1532.07 Q727.916 1532.74 724.814 1535.95 Q721.712 1539.15 716.064 1544.91 Z" fill="#000000" fill-rule="nonzero" fill-opacity="1"></path><path clip-path="url(#clip830)" d="M1118.75 1530.21 Q1122.11 1530.93 1123.99 1533.2 Q1125.88 1535.47 1125.88 1538.8 Q1125.88 1543.92 1122.37 1546.72 Q1118.85 1549.52 1112.37 1549.52 Q1110.19 1549.52 1107.87 1549.08 Q1105.58 1548.66 1103.13 1547.81 L1103.13 1543.29 Q1105.07 1544.43 1107.39 1545.01 Q1109.7 1545.58 1112.23 1545.58 Q1116.62 1545.58 1118.92 1543.85 Q1121.23 1542.11 1121.23 1538.8 Q1121.23 1535.75 1119.08 1534.03 Q1116.95 1532.3 1113.13 1532.3 L1109.1 1532.3 L1109.1 1528.45 L1113.31 1528.45 Q1116.76 1528.45 1118.59 1527.09 Q1120.42 1525.7 1120.42 1523.11 Q1120.42 1520.45 1118.52 1519.03 Q1116.65 1517.6 1113.13 1517.6 Q1111.21 1517.6 1109.01 1518.01 Q1106.81 1518.43 1104.17 1519.31 L1104.17 1515.14 Q1106.83 1514.4 1109.15 1514.03 Q1111.49 1513.66 1113.55 1513.66 Q1118.87 1513.66 1121.97 1516.09 Q1125.07 1518.5 1125.07 1522.62 Q1125.07 1525.49 1123.43 1527.48 Q1121.79 1529.45 1118.75 1530.21 Z" fill="#000000" fill-rule="nonzero" fill-opacity="1"></path><path clip-path="url(#clip830)" d="M1510.61 1518.36 L1498.81 1536.81 L1510.61 1536.81 L1510.61 1518.36 M1509.38 1514.29 L1515.26 1514.29 L1515.26 1536.81 L1520.19 1536.81 L1520.19 1540.7 L1515.26 1540.7 L1515.26 1548.85 L1510.61 1548.85 L1510.61 1540.7 L1495.01 1540.7 L1495.01 1536.19 L1509.38 1514.29 Z" fill="#000000" fill-rule="nonzero" fill-opacity="1"></path><path clip-path="url(#clip830)" d="M1890.97 1514.29 L1909.33 1514.29 L1909.33 1518.22 L1895.26 1518.22 L1895.26 1526.7 Q1896.28 1526.35 1897.29 1526.19 Q1898.31 1526 1899.33 1526 Q1905.12 1526 1908.5 1529.17 Q1911.88 1532.34 1911.88 1537.76 Q1911.88 1543.34 1908.4 1546.44 Q1904.93 1549.52 1898.61 1549.52 Q1896.44 1549.52 1894.17 1549.15 Q1891.92 1548.78 1889.52 1548.04 L1889.52 1543.34 Q1891.6 1544.47 1893.82 1545.03 Q1896.04 1545.58 1898.52 1545.58 Q1902.53 1545.58 1904.86 1543.48 Q1907.2 1541.37 1907.2 1537.76 Q1907.2 1534.15 1904.86 1532.04 Q1902.53 1529.94 1898.52 1529.94 Q1896.65 1529.94 1894.77 1530.35 Q1892.92 1530.77 1890.97 1531.65 L1890.97 1514.29 Z" fill="#000000" fill-rule="nonzero" fill-opacity="1"></path><path clip-path="url(#clip830)" d="M2294.2 1529.7 Q2291.05 1529.7 2289.2 1531.86 Q2287.37 1534.01 2287.37 1537.76 Q2287.37 1541.49 2289.2 1543.66 Q2291.05 1545.82 2294.2 1545.82 Q2297.34 1545.82 2299.17 1543.66 Q2301.03 1541.49 2301.03 1537.76 Q2301.03 1534.01 2299.17 1531.86 Q2297.34 1529.7 2294.2 1529.7 M2303.48 1515.05 L2303.48 1519.31 Q2301.72 1518.48 2299.91 1518.04 Q2298.13 1517.6 2296.37 1517.6 Q2291.74 1517.6 2289.29 1520.72 Q2286.86 1523.85 2286.51 1530.17 Q2287.88 1528.15 2289.94 1527.09 Q2292 1526 2294.47 1526 Q2299.68 1526 2302.69 1529.17 Q2305.72 1532.32 2305.72 1537.76 Q2305.72 1543.08 2302.58 1546.3 Q2299.43 1549.52 2294.2 1549.52 Q2288.2 1549.52 2285.03 1544.94 Q2281.86 1540.33 2281.86 1531.6 Q2281.86 1523.41 2285.75 1518.55 Q2289.64 1513.66 2296.19 1513.66 Q2297.95 1513.66 2299.73 1514.01 Q2301.53 1514.36 2303.48 1515.05 Z" fill="#000000" fill-rule="nonzero" fill-opacity="1"></path><polyline clip-path="url(#clip832)" style="stroke:#000000; stroke-linecap:round; stroke-linejoin:round; stroke-width:2; stroke-opacity:0.1; fill:none" points="269.352,1308.45 2352.76,1308.45 "></polyline>
<polyline clip-path="url(#clip832)" style="stroke:#000000; stroke-linecap:round; stroke-linejoin:round; stroke-width:2; stroke-opacity:0.1; fill:none" points="269.352,943.746 2352.76,943.746 "></polyline>
<polyline clip-path="url(#clip832)" style="stroke:#000000; stroke-linecap:round; stroke-linejoin:round; stroke-width:2; stroke-opacity:0.1; fill:none" points="269.352,579.039 2352.76,579.039 "></polyline>
<polyline clip-path="url(#clip832)" style="stroke:#000000; stroke-linecap:round; stroke-linejoin:round; stroke-width:2; stroke-opacity:0.1; fill:none" points="269.352,214.333 2352.76,214.333 "></polyline>
<polyline clip-path="url(#clip830)" style="stroke:#000000; stroke-linecap:round; stroke-linejoin:round; stroke-width:4; stroke-opacity:1; fill:none" points="269.352,1486.45 269.352,47.2441 "></polyline>
<polyline clip-path="url(#clip830)" style="stroke:#000000; stroke-linecap:round; stroke-linejoin:round; stroke-width:4; stroke-opacity:1; fill:none" points="269.352,1308.45 288.25,1308.45 "></polyline>
<polyline clip-path="url(#clip830)" style="stroke:#000000; stroke-linecap:round; stroke-linejoin:round; stroke-width:4; stroke-opacity:1; fill:none" points="269.352,943.746 288.25,943.746 "></polyline>
<polyline clip-path="url(#clip830)" style="stroke:#000000; stroke-linecap:round; stroke-linejoin:round; stroke-width:4; stroke-opacity:1; fill:none" points="269.352,579.039 288.25,579.039 "></polyline>
<polyline clip-path="url(#clip830)" style="stroke:#000000; stroke-linecap:round; stroke-linejoin:round; stroke-width:4; stroke-opacity:1; fill:none" points="269.352,214.333 288.25,214.333 "></polyline>
<path clip-path="url(#clip830)" d="M50.9921 1308.9 L80.6679 1308.9 L80.6679 1312.84 L50.9921 1312.84 L50.9921 1308.9 Z" fill="#000000" fill-rule="nonzero" fill-opacity="1"></path><path clip-path="url(#clip830)" d="M90.8067 1291.17 L109.163 1291.17 L109.163 1295.11 L95.0891 1295.11 L95.0891 1303.58 Q96.1076 1303.23 97.1261 1303.07 Q98.1447 1302.89 99.1632 1302.89 Q104.95 1302.89 108.33 1306.06 Q111.709 1309.23 111.709 1314.65 Q111.709 1320.22 108.237 1323.33 Q104.765 1326.4 98.4456 1326.4 Q96.2697 1326.4 94.0012 1326.03 Q91.7558 1325.66 89.3484 1324.92 L89.3484 1320.22 Q91.4317 1321.36 93.6539 1321.91 Q95.8761 1322.47 98.353 1322.47 Q102.358 1322.47 104.696 1320.36 Q107.033 1318.26 107.033 1314.65 Q107.033 1311.03 104.696 1308.93 Q102.358 1306.82 98.353 1306.82 Q96.478 1306.82 94.603 1307.24 Q92.7512 1307.65 90.8067 1308.53 L90.8067 1291.17 Z" fill="#000000" fill-rule="nonzero" fill-opacity="1"></path><path clip-path="url(#clip830)" d="M130.922 1309.32 Q127.589 1309.32 125.668 1311.1 Q123.77 1312.89 123.77 1316.01 Q123.77 1319.14 125.668 1320.92 Q127.589 1322.7 130.922 1322.7 Q134.256 1322.7 136.177 1320.92 Q138.098 1319.11 138.098 1316.01 Q138.098 1312.89 136.177 1311.1 Q134.279 1309.32 130.922 1309.32 M126.246 1307.33 Q123.237 1306.59 121.547 1304.53 Q119.881 1302.47 119.881 1299.51 Q119.881 1295.36 122.82 1292.96 Q125.783 1290.55 130.922 1290.55 Q136.084 1290.55 139.024 1292.96 Q141.964 1295.36 141.964 1299.51 Q141.964 1302.47 140.274 1304.53 Q138.607 1306.59 135.621 1307.33 Q139.001 1308.12 140.876 1310.41 Q142.774 1312.7 142.774 1316.01 Q142.774 1321.03 139.695 1323.72 Q136.64 1326.4 130.922 1326.4 Q125.205 1326.4 122.126 1323.72 Q119.07 1321.03 119.07 1316.01 Q119.07 1312.7 120.969 1310.41 Q122.867 1308.12 126.246 1307.33 M124.533 1299.95 Q124.533 1302.63 126.2 1304.14 Q127.89 1305.64 130.922 1305.64 Q133.931 1305.64 135.621 1304.14 Q137.334 1302.63 137.334 1299.95 Q137.334 1297.26 135.621 1295.76 Q133.931 1294.25 130.922 1294.25 Q127.89 1294.25 126.2 1295.76 Q124.533 1297.26 124.533 1299.95 Z" fill="#000000" fill-rule="nonzero" fill-opacity="1"></path><path clip-path="url(#clip830)" d="M161.084 1294.25 Q157.473 1294.25 155.644 1297.82 Q153.839 1301.36 153.839 1308.49 Q153.839 1315.59 155.644 1319.16 Q157.473 1322.7 161.084 1322.7 Q164.718 1322.7 166.524 1319.16 Q168.353 1315.59 168.353 1308.49 Q168.353 1301.36 166.524 1297.82 Q164.718 1294.25 161.084 1294.25 M161.084 1290.55 Q166.894 1290.55 169.95 1295.15 Q173.029 1299.74 173.029 1308.49 Q173.029 1317.21 169.95 1321.82 Q166.894 1326.4 161.084 1326.4 Q155.274 1326.4 152.195 1321.82 Q149.14 1317.21 149.14 1308.49 Q149.14 1299.74 152.195 1295.15 Q155.274 1290.55 161.084 1290.55 Z" fill="#000000" fill-rule="nonzero" fill-opacity="1"></path><path clip-path="url(#clip830)" d="M191.246 1294.25 Q187.635 1294.25 185.806 1297.82 Q184.001 1301.36 184.001 1308.49 Q184.001 1315.59 185.806 1319.16 Q187.635 1322.7 191.246 1322.7 Q194.88 1322.7 196.686 1319.16 Q198.514 1315.59 198.514 1308.49 Q198.514 1301.36 196.686 1297.82 Q194.88 1294.25 191.246 1294.25 M191.246 1290.55 Q197.056 1290.55 200.112 1295.15 Q203.19 1299.74 203.19 1308.49 Q203.19 1317.21 200.112 1321.82 Q197.056 1326.4 191.246 1326.4 Q185.436 1326.4 182.357 1321.82 Q179.302 1317.21 179.302 1308.49 Q179.302 1299.74 182.357 1295.15 Q185.436 1290.55 191.246 1290.55 Z" fill="#000000" fill-rule="nonzero" fill-opacity="1"></path><path clip-path="url(#clip830)" d="M221.408 1294.25 Q217.797 1294.25 215.968 1297.82 Q214.163 1301.36 214.163 1308.49 Q214.163 1315.59 215.968 1319.16 Q217.797 1322.7 221.408 1322.7 Q225.042 1322.7 226.848 1319.16 Q228.676 1315.59 228.676 1308.49 Q228.676 1301.36 226.848 1297.82 Q225.042 1294.25 221.408 1294.25 M221.408 1290.55 Q227.218 1290.55 230.274 1295.15 Q233.352 1299.74 233.352 1308.49 Q233.352 1317.21 230.274 1321.82 Q227.218 1326.4 221.408 1326.4 Q215.598 1326.4 212.519 1321.82 Q209.463 1317.21 209.463 1308.49 Q209.463 1299.74 212.519 1295.15 Q215.598 1290.55 221.408 1290.55 Z" fill="#000000" fill-rule="nonzero" fill-opacity="1"></path><path clip-path="url(#clip830)" d="M50.9921 944.198 L80.6679 944.198 L80.6679 948.133 L50.9921 948.133 L50.9921 944.198 Z" fill="#000000" fill-rule="nonzero" fill-opacity="1"></path><path clip-path="url(#clip830)" d="M90.8067 926.466 L109.163 926.466 L109.163 930.402 L95.0891 930.402 L95.0891 938.874 Q96.1076 938.526 97.1261 938.364 Q98.1447 938.179 99.1632 938.179 Q104.95 938.179 108.33 941.351 Q111.709 944.522 111.709 949.938 Q111.709 955.517 108.237 958.619 Q104.765 961.698 98.4456 961.698 Q96.2697 961.698 94.0012 961.327 Q91.7558 960.957 89.3484 960.216 L89.3484 955.517 Q91.4317 956.651 93.6539 957.207 Q95.8761 957.763 98.353 957.763 Q102.358 957.763 104.696 955.656 Q107.033 953.55 107.033 949.938 Q107.033 946.327 104.696 944.221 Q102.358 942.114 98.353 942.114 Q96.478 942.114 94.603 942.531 Q92.7512 942.948 90.8067 943.827 L90.8067 926.466 Z" fill="#000000" fill-rule="nonzero" fill-opacity="1"></path><path clip-path="url(#clip830)" d="M119.742 926.466 L141.964 926.466 L141.964 928.457 L129.418 961.026 L124.533 961.026 L136.339 930.402 L119.742 930.402 L119.742 926.466 Z" fill="#000000" fill-rule="nonzero" fill-opacity="1"></path><path clip-path="url(#clip830)" d="M151.13 926.466 L169.487 926.466 L169.487 930.402 L155.413 930.402 L155.413 938.874 Q156.431 938.526 157.45 938.364 Q158.468 938.179 159.487 938.179 Q165.274 938.179 168.654 941.351 Q172.033 944.522 172.033 949.938 Q172.033 955.517 168.561 958.619 Q165.089 961.698 158.769 961.698 Q156.593 961.698 154.325 961.327 Q152.08 960.957 149.672 960.216 L149.672 955.517 Q151.755 956.651 153.978 957.207 Q156.2 957.763 158.677 957.763 Q162.681 957.763 165.019 955.656 Q167.357 953.55 167.357 949.938 Q167.357 946.327 165.019 944.221 Q162.681 942.114 158.677 942.114 Q156.802 942.114 154.927 942.531 Q153.075 942.948 151.13 943.827 L151.13 926.466 Z" fill="#000000" fill-rule="nonzero" fill-opacity="1"></path><path clip-path="url(#clip830)" d="M191.246 929.545 Q187.635 929.545 185.806 933.11 Q184.001 936.652 184.001 943.781 Q184.001 950.888 185.806 954.452 Q187.635 957.994 191.246 957.994 Q194.88 957.994 196.686 954.452 Q198.514 950.888 198.514 943.781 Q198.514 936.652 196.686 933.11 Q194.88 929.545 191.246 929.545 M191.246 925.841 Q197.056 925.841 200.112 930.448 Q203.19 935.031 203.19 943.781 Q203.19 952.508 200.112 957.114 Q197.056 961.698 191.246 961.698 Q185.436 961.698 182.357 957.114 Q179.302 952.508 179.302 943.781 Q179.302 935.031 182.357 930.448 Q185.436 925.841 191.246 925.841 Z" fill="#000000" fill-rule="nonzero" fill-opacity="1"></path><path clip-path="url(#clip830)" d="M221.408 929.545 Q217.797 929.545 215.968 933.11 Q214.163 936.652 214.163 943.781 Q214.163 950.888 215.968 954.452 Q217.797 957.994 221.408 957.994 Q225.042 957.994 226.848 954.452 Q228.676 950.888 228.676 943.781 Q228.676 936.652 226.848 933.11 Q225.042 929.545 221.408 929.545 M221.408 925.841 Q227.218 925.841 230.274 930.448 Q233.352 935.031 233.352 943.781 Q233.352 952.508 230.274 957.114 Q227.218 961.698 221.408 961.698 Q215.598 961.698 212.519 957.114 Q209.463 952.508 209.463 943.781 Q209.463 935.031 212.519 930.448 Q215.598 925.841 221.408 925.841 Z" fill="#000000" fill-rule="nonzero" fill-opacity="1"></path><path clip-path="url(#clip830)" d="M50.9921 579.491 L80.6679 579.491 L80.6679 583.426 L50.9921 583.426 L50.9921 579.491 Z" fill="#000000" fill-rule="nonzero" fill-opacity="1"></path><path clip-path="url(#clip830)" d="M90.8067 561.759 L109.163 561.759 L109.163 565.695 L95.0891 565.695 L95.0891 574.167 Q96.1076 573.82 97.1261 573.658 Q98.1447 573.472 99.1632 573.472 Q104.95 573.472 108.33 576.644 Q111.709 579.815 111.709 585.232 Q111.709 590.81 108.237 593.912 Q104.765 596.991 98.4456 596.991 Q96.2697 596.991 94.0012 596.62 Q91.7558 596.25 89.3484 595.509 L89.3484 590.81 Q91.4317 591.944 93.6539 592.5 Q95.8761 593.056 98.353 593.056 Q102.358 593.056 104.696 590.949 Q107.033 588.843 107.033 585.232 Q107.033 581.62 104.696 579.514 Q102.358 577.408 98.353 577.408 Q96.478 577.408 94.603 577.824 Q92.7512 578.241 90.8067 579.12 L90.8067 561.759 Z" fill="#000000" fill-rule="nonzero" fill-opacity="1"></path><path clip-path="url(#clip830)" d="M119.742 561.759 L141.964 561.759 L141.964 563.75 L129.418 596.319 L124.533 596.319 L136.339 565.695 L119.742 565.695 L119.742 561.759 Z" fill="#000000" fill-rule="nonzero" fill-opacity="1"></path><path clip-path="url(#clip830)" d="M161.084 564.838 Q157.473 564.838 155.644 568.403 Q153.839 571.945 153.839 579.074 Q153.839 586.181 155.644 589.745 Q157.473 593.287 161.084 593.287 Q164.718 593.287 166.524 589.745 Q168.353 586.181 168.353 579.074 Q168.353 571.945 166.524 568.403 Q164.718 564.838 161.084 564.838 M161.084 561.134 Q166.894 561.134 169.95 565.741 Q173.029 570.324 173.029 579.074 Q173.029 587.801 169.95 592.407 Q166.894 596.991 161.084 596.991 Q155.274 596.991 152.195 592.407 Q149.14 587.801 149.14 579.074 Q149.14 570.324 152.195 565.741 Q155.274 561.134 161.084 561.134 Z" fill="#000000" fill-rule="nonzero" fill-opacity="1"></path><path clip-path="url(#clip830)" d="M191.246 564.838 Q187.635 564.838 185.806 568.403 Q184.001 571.945 184.001 579.074 Q184.001 586.181 185.806 589.745 Q187.635 593.287 191.246 593.287 Q194.88 593.287 196.686 589.745 Q198.514 586.181 198.514 579.074 Q198.514 571.945 196.686 568.403 Q194.88 564.838 191.246 564.838 M191.246 561.134 Q197.056 561.134 200.112 565.741 Q203.19 570.324 203.19 579.074 Q203.19 587.801 200.112 592.407 Q197.056 596.991 191.246 596.991 Q185.436 596.991 182.357 592.407 Q179.302 587.801 179.302 579.074 Q179.302 570.324 182.357 565.741 Q185.436 561.134 191.246 561.134 Z" fill="#000000" fill-rule="nonzero" fill-opacity="1"></path><path clip-path="url(#clip830)" d="M221.408 564.838 Q217.797 564.838 215.968 568.403 Q214.163 571.945 214.163 579.074 Q214.163 586.181 215.968 589.745 Q217.797 593.287 221.408 593.287 Q225.042 593.287 226.848 589.745 Q228.676 586.181 228.676 579.074 Q228.676 571.945 226.848 568.403 Q225.042 564.838 221.408 564.838 M221.408 561.134 Q227.218 561.134 230.274 565.741 Q233.352 570.324 233.352 579.074 Q233.352 587.801 230.274 592.407 Q227.218 596.991 221.408 596.991 Q215.598 596.991 212.519 592.407 Q209.463 587.801 209.463 579.074 Q209.463 570.324 212.519 565.741 Q215.598 561.134 221.408 561.134 Z" fill="#000000" fill-rule="nonzero" fill-opacity="1"></path><path clip-path="url(#clip830)" d="M50.9921 214.784 L80.6679 214.784 L80.6679 218.719 L50.9921 218.719 L50.9921 214.784 Z" fill="#000000" fill-rule="nonzero" fill-opacity="1"></path><path clip-path="url(#clip830)" d="M90.8067 197.053 L109.163 197.053 L109.163 200.988 L95.0891 200.988 L95.0891 209.46 Q96.1076 209.113 97.1261 208.951 Q98.1447 208.765 99.1632 208.765 Q104.95 208.765 108.33 211.937 Q111.709 215.108 111.709 220.525 Q111.709 226.103 108.237 229.205 Q104.765 232.284 98.4456 232.284 Q96.2697 232.284 94.0012 231.913 Q91.7558 231.543 89.3484 230.802 L89.3484 226.103 Q91.4317 227.238 93.6539 227.793 Q95.8761 228.349 98.353 228.349 Q102.358 228.349 104.696 226.242 Q107.033 224.136 107.033 220.525 Q107.033 216.914 104.696 214.807 Q102.358 212.701 98.353 212.701 Q96.478 212.701 94.603 213.117 Q92.7512 213.534 90.8067 214.414 L90.8067 197.053 Z" fill="#000000" fill-rule="nonzero" fill-opacity="1"></path><path clip-path="url(#clip830)" d="M131.501 212.469 Q128.353 212.469 126.501 214.622 Q124.672 216.775 124.672 220.525 Q124.672 224.251 126.501 226.427 Q128.353 228.58 131.501 228.58 Q134.649 228.58 136.478 226.427 Q138.33 224.251 138.33 220.525 Q138.33 216.775 136.478 214.622 Q134.649 212.469 131.501 212.469 M140.783 197.816 L140.783 202.076 Q139.024 201.242 137.219 200.803 Q135.436 200.363 133.677 200.363 Q129.047 200.363 126.594 203.488 Q124.163 206.613 123.816 212.932 Q125.182 210.918 127.242 209.853 Q129.302 208.765 131.779 208.765 Q136.987 208.765 139.996 211.937 Q143.029 215.085 143.029 220.525 Q143.029 225.849 139.881 229.066 Q136.732 232.284 131.501 232.284 Q125.506 232.284 122.334 227.701 Q119.163 223.094 119.163 214.367 Q119.163 206.173 123.052 201.312 Q126.941 196.428 133.492 196.428 Q135.251 196.428 137.033 196.775 Q138.839 197.122 140.783 197.816 Z" fill="#000000" fill-rule="nonzero" fill-opacity="1"></path><path clip-path="url(#clip830)" d="M151.13 197.053 L169.487 197.053 L169.487 200.988 L155.413 200.988 L155.413 209.46 Q156.431 209.113 157.45 208.951 Q158.468 208.765 159.487 208.765 Q165.274 208.765 168.654 211.937 Q172.033 215.108 172.033 220.525 Q172.033 226.103 168.561 229.205 Q165.089 232.284 158.769 232.284 Q156.593 232.284 154.325 231.913 Q152.08 231.543 149.672 230.802 L149.672 226.103 Q151.755 227.238 153.978 227.793 Q156.2 228.349 158.677 228.349 Q162.681 228.349 165.019 226.242 Q167.357 224.136 167.357 220.525 Q167.357 216.914 165.019 214.807 Q162.681 212.701 158.677 212.701 Q156.802 212.701 154.927 213.117 Q153.075 213.534 151.13 214.414 L151.13 197.053 Z" fill="#000000" fill-rule="nonzero" fill-opacity="1"></path><path clip-path="url(#clip830)" d="M191.246 200.131 Q187.635 200.131 185.806 203.696 Q184.001 207.238 184.001 214.367 Q184.001 221.474 185.806 225.039 Q187.635 228.58 191.246 228.58 Q194.88 228.58 196.686 225.039 Q198.514 221.474 198.514 214.367 Q198.514 207.238 196.686 203.696 Q194.88 200.131 191.246 200.131 M191.246 196.428 Q197.056 196.428 200.112 201.034 Q203.19 205.617 203.19 214.367 Q203.19 223.094 200.112 227.701 Q197.056 232.284 191.246 232.284 Q185.436 232.284 182.357 227.701 Q179.302 223.094 179.302 214.367 Q179.302 205.617 182.357 201.034 Q185.436 196.428 191.246 196.428 Z" fill="#000000" fill-rule="nonzero" fill-opacity="1"></path><path clip-path="url(#clip830)" d="M221.408 200.131 Q217.797 200.131 215.968 203.696 Q214.163 207.238 214.163 214.367 Q214.163 221.474 215.968 225.039 Q217.797 228.58 221.408 228.58 Q225.042 228.58 226.848 225.039 Q228.676 221.474 228.676 214.367 Q228.676 207.238 226.848 203.696 Q225.042 200.131 221.408 200.131 M221.408 196.428 Q227.218 196.428 230.274 201.034 Q233.352 205.617 233.352 214.367 Q233.352 223.094 230.274 227.701 Q227.218 232.284 221.408 232.284 Q215.598 232.284 212.519 227.701 Q209.463 223.094 209.463 214.367 Q209.463 205.617 212.519 201.034 Q215.598 196.428 221.408 196.428 Z" fill="#000000" fill-rule="nonzero" fill-opacity="1"></path><polyline clip-path="url(#clip832)" style="stroke:#009af9; stroke-linecap:round; stroke-linejoin:round; stroke-width:4; stroke-opacity:1; fill:none" points="328.317,1445.72 721.412,942.828 1114.51,1224.41 1507.6,1158.85 1900.7,87.9763 2293.79,1342.26 "></polyline>
<path clip-path="url(#clip830)" d="M338.799 198.898 L599.57 198.898 L599.57 95.2176 L338.799 95.2176  Z" fill="#ffffff" fill-rule="evenodd" fill-opacity="1"></path>
<polyline clip-path="url(#clip830)" style="stroke:#000000; stroke-linecap:round; stroke-linejoin:round; stroke-width:4; stroke-opacity:1; fill:none" points="338.799,198.898 599.57,198.898 599.57,95.2176 338.799,95.2176 338.799,198.898 "></polyline>
<polyline clip-path="url(#clip830)" style="stroke:#009af9; stroke-linecap:round; stroke-linejoin:round; stroke-width:4; stroke-opacity:1; fill:none" points="361.948,147.058 500.842,147.058 "></polyline>
<path clip-path="url(#clip830)" d="M537.833 166.745 Q536.027 171.375 534.315 172.787 Q532.602 174.199 529.731 174.199 L526.328 174.199 L526.328 170.634 L528.828 170.634 Q530.588 170.634 531.56 169.8 Q532.532 168.967 533.713 165.865 L534.477 163.921 L523.99 138.412 L528.504 138.412 L536.606 158.689 L544.708 138.412 L549.222 138.412 L537.833 166.745 Z" fill="#000000" fill-rule="nonzero" fill-opacity="1"></path><path clip-path="url(#clip830)" d="M556.513 160.402 L564.152 160.402 L564.152 134.037 L555.842 135.703 L555.842 131.444 L564.106 129.778 L568.782 129.778 L568.782 160.402 L576.421 160.402 L576.421 164.338 L556.513 164.338 L556.513 160.402 Z" fill="#000000" fill-rule="nonzero" fill-opacity="1"></path></svg>