<svg xmlns="http://www.w3.org/2000/svg" xmlns:xlink="http://www.w3.org/1999/xlink" width="600" height="400" viewBox="0 0 2400 1600">
<defs>
  <clipPath id="clip180">
    <rect x="0" y="0" width="2400" height="1600"></rect>
  </clipPath>
</defs>
<path clip-path="url(#clip180)" d="M0 1600 L2400 1600 L2400 0 L0 0  Z" fill="#ffffff" fill-rule="evenodd" fill-opacity="1"></path>
<defs>
  <clipPath id="clip181">
    <rect x="480" y="0" width="1681" height="1600"></rect>
  </clipPath>
</defs>
<path clip-path="url(#clip180)" d="M269.352 1486.45 L2352.76 1486.45 L2352.76 47.2441 L269.352 47.2441  Z" fill="#ffffff" fill-rule="evenodd" fill-opacity="1"></path>
<defs>
  <clipPath id="clip182">
    <rect x="269" y="47" width="2084" height="1440"></rect>
  </clipPath>
</defs>
<polyline clip-path="url(#clip182)" style="stroke:#000000; stroke-linecap:round; stroke-linejoin:round; stroke-width:2; stroke-opacity:0.1; fill:none" points="328.317,1486.45 328.317,47.2441 "></polyline>
<polyline clip-path="url(#clip182)" style="stroke:#000000; stroke-linecap:round; stroke-linejoin:round; stroke-width:2; stroke-opacity:0.1; fill:none" points="721.412,1486.45 721.412,47.2441 "></polyline>
<polyline clip-path="url(#clip182)" style="stroke:#000000; stroke-linecap:round; stroke-linejoin:round; stroke-width:2; stroke-opacity:0.1; fill:none" points="1114.51,1486.45 1114.51,47.2441 "></polyline>
<polyline clip-path="url(#clip182)" style="stroke:#000000; stroke-linecap:round; stroke-linejoin:round; stroke-width:2; stroke-opacity:0.1; fill:none" points="1507.6,1486.45 1507.6,47.2441 "></polyline>
<polyline clip-path="url(#clip182)" style="stroke:#000000; stroke-linecap:round; stroke-linejoin:round; stroke-width:2; stroke-opacity:0.1; fill:none" points="1900.7,1486.45 1900.7,47.2441 "></polyline>
<polyline clip-path="url(#clip182)" style="stroke:#000000; stroke-linecap:round; stroke-linejoin:round; stroke-width:2; stroke-opacity:0.1; fill:none" points="2293.79,1486.45 2293.79,47.2441 "></polyline>
<polyline clip-path="url(#clip180)" style="stroke:#000000; stroke-linecap:round; stroke-linejoin:round; stroke-width:4; stroke-opacity:1; fill:none" points="269.352,1486.45 2352.76,1486.45 "></polyline>
<polyline clip-path="url(#clip180)" style="stroke:#000000; stroke-linecap:round; stroke-linejoin:round; stroke-width:4; stroke-opacity:1; fill:none" points="328.317,1486.45 328.317,1467.55 "></polyline>
<polyline clip-path="url(#clip180)" style="stroke:#000000; stroke-linecap:round; stroke-linejoin:round; stroke-width:4; stroke-opacity:1; fill:none" points="721.412,1486.45 721.412,1467.55 "></polyline>
<polyline clip-path="url(#clip180)" style="stroke:#000000; stroke-linecap:round; stroke-linejoin:round; stroke-width:4; stroke-opacity:1; fill:none" points="1114.51,1486.45 1114.51,1467.55 "></polyline>
<polyline clip-path="url(#clip180)" style="stroke:#000000; stroke-linecap:round; stroke-linejoin:round; stroke-width:4; stroke-opacity:1; fill:none" points="1507.6,1486.45 1507.6,1467.55 "></polyline>
<polyline clip-path="url(#clip180)" style="stroke:#000000; stroke-linecap:round; stroke-linejoin:round; stroke-width:4; stroke-opacity:1; fill:none" points="1900.7,1486.45 1900.7,1467.55 "></polyline>
<polyline clip-path="url(#clip180)" style="stroke:#000000; stroke-linecap:round; stroke-linejoin:round; stroke-width:4; stroke-opacity:1; fill:none" points="2293.79,1486.45 2293.79,1467.55 "></polyline>
<path clip-path="url(#clip180)" d="M318.699 1544.91 L326.337 1544.91 L326.337 1518.55 L318.027 1520.21 L318.027 1515.95 L326.291 1514.29 L330.967 1514.29 L330.967 1544.91 L338.606 1544.91 L338.606 1548.85 L318.699 1548.85 L318.699 1544.91 Z" fill="#000000" fill-rule="nonzero" fill-opacity="1"></path><path clip-path="url(#clip180)" d="M716.064 1544.91 L732.384 1544.91 L732.384 1548.85 L710.439 1548.85 L710.439 1544.91 Q713.101 1542.16 717.685 1537.53 Q722.291 1532.88 723.472 1531.53 Q725.717 1529.01 726.597 1527.27 Q727.499 1525.51 727.499 1523.82 Q727.499 1521.07 725.555 1519.33 Q723.634 1517.6 720.532 1517.6 Q718.333 1517.6 715.879 1518.36 Q713.449 1519.13 710.671 1520.68 L710.671 1515.95 Q713.495 1514.82 715.949 1514.24 Q718.402 1513.66 720.439 1513.66 Q725.81 1513.66 729.004 1516.35 Q732.199 1519.03 732.199 1523.52 Q732.199 1525.65 731.388 1527.57 Q730.601 1529.47 728.495 1532.07 Q727.916 1532.74 724.814 1535.95 Q721.712 1539.15 716.064 1544.91 Z" fill="#000000" fill-rule="nonzero" fill-opacity="1"></path><path clip-path="url(#clip180)" d="M1118.75 1530.21 Q1122.11 1530.93 1123.99 1533.2 Q1125.88 1535.47 1125.88 1538.8 Q1125.88 1543.92 1122.37 1546.72 Q1118.85 1549.52 1112.37 1549.52 Q1110.19 1549.52 1107.87 1549.08 Q1105.58 1548.66 1103.13 1547.81 L1103.13 1543.29 Q1105.07 1544.43 1107.39 1545.01 Q1109.7 1545.58 1112.23 1545.58 Q1116.62 1545.58 1118.92 1543.85 Q1121.23 1542.11 1121.23 1538.8 Q1121.23 1535.75 1119.08 1534.03 Q1116.95 1532.3 1113.13 1532.3 L1109.1 1532.3 L1109.1 1528.45 L1113.31 1528.45 Q1116.76 1528.45 1118.59 1527.09 Q1120.42 1525.7 1120.42 1523.11 Q1120.42 1520.45 1118.52 1519.03 Q1116.65 1517.6 1113.13 1517.6 Q1111.21 1517.6 1109.01 1518.01 Q1106.81 1518.43 1104.17 1519.31 L1104.17 1515.14 Q1106.83 1514.4 1109.15 1514.03 Q1111.49 1513.66 1113.55 1513.66 Q1118.87 1513.66 1121.97 1516.09 Q1125.07 1518.5 1125.07 1522.62 Q1125.07 1525.49 1123.43 1527.48 Q1121.79 1529.45 1118.75 1530.21 Z" fill="#000000" fill-rule="nonzero" fill-opacity="1"></path><path clip-path="url(#clip180)" d="M1510.61 1518.36 L1498.81 1536.81 L1510.61 1536.81 L1510.61 1518.36 M1509.38 1514.29 L1515.26 1514.29 L1515.26 1536.81 L1520.19 1536.81 L1520.19 1540.7 L1515.26 1540.7 L1515.26 1548.85 L1510.61 1548.85 L1510.61 1540.7 L1495.01 1540.7 L1495.01 1536.19 L1509.38 1514.29 Z" fill="#000000" fill-rule="nonzero" fill-opacity="1"></path><path clip-path="url(#clip180)" d="M1890.97 1514.29 L1909.33 1514.29 L1909.33 1518.22 L1895.26 1518.22 L1895.26 1526.7 Q1896.28 1526.35 1897.29 1526.19 Q1898.31 1526 1899.33 1526 Q1905.12 1526 1908.5 1529.17 Q1911.88 1532.34 1911.88 1537.76 Q1911.88 1543.34 1908.4 1546.44 Q1904.93 1549.52 1898.61 1549.52 Q1896.44 1549.52 1894.17 1549.15 Q1891.92 1548.78 1889.52 1548.04 L1889.52 1543.34 Q1891.6 1544.47 1893.82 1545.03 Q1896.04 1545.58 1898.52 1545.58 Q1902.53 1545.58 1904.86 1543.48 Q1907.2 1541.37 1907.2 1537.76 Q1907.2 1534.15 1904.86 1532.04 Q1902.53 1529.94 1898.52 1529.94 Q1896.65 1529.94 1894.77 1530.35 Q1892.92 1530.77 1890.97 1531.65 L1890.97 1514.29 Z" fill="#000000" fill-rule="nonzero" fill-opacity="1"></path><path clip-path="url(#clip180)" d="M2294.2 1529.7 Q2291.05 1529.7 2289.2 1531.86 Q2287.37 1534.01 2287.37 1537.76 Q2287.37 1541.49 2289.2 1543.66 Q2291.05 1545.82 2294.2 1545.82 Q2297.34 1545.82 2299.17 1543.66 Q2301.03 1541.49 2301.03 1537.76 Q2301.03 1534.01 2299.17 1531.86 Q2297.34 1529.7 2294.2 1529.7 M2303.48 1515.05 L2303.48 1519.31 Q2301.72 1518.48 2299.91 1518.04 Q2298.13 1517.6 2296.37 1517.6 Q2291.74 1517.6 2289.29 1520.72 Q2286.86 1523.85 2286.51 1530.17 Q2287.88 1528.15 2289.94 1527.09 Q2292 1526 2294.47 1526 Q2299.68 1526 2302.69 1529.17 Q2305.72 1532.32 2305.72 1537.76 Q2305.72 1543.08 2302.58 1546.3 Q2299.43 1549.52 2294.2 1549.52 Q2288.2 1549.52 2285.03 1544.94 Q2281.86 1540.33 2281.86 1531.6 Q2281.86 1523.41 2285.75 1518.55 Q2289.64 1513.66 2296.19 1513.66 Q2297.95 1513.66 2299.73 1514.01 Q2301.53 1514.36 2303.48 1515.05 Z" fill="#000000" fill-rule="nonzero" fill-opacity="1"></path><polyline clip-path="url(#clip182)" style="stroke:#000000; stroke-linecap:round; stroke-linejoin:round; stroke-width:2; stroke-opacity:0.1; fill:none" points="269.352,1304.52 2352.76,1304.52 "></polyline>
<polyline clip-path="url(#clip182)" style="stroke:#000000; stroke-linecap:round; stroke-linejoin:round; stroke-width:2; stroke-opacity:0.1; fill:none" points="269.352,1119.07 2352.76,1119.07 "></polyline>
<polyline clip-path="url(#clip182)" style="stroke:#000000; stroke-linecap:round; stroke-linejoin:round; stroke-width:2; stroke-opacity:0.1; fill:none" points="269.352,933.632 2352.76,933.632 "></polyline>
<polyline clip-path="url(#clip182)" style="stroke:#000000; stroke-linecap:round; stroke-linejoin:round; stroke-width:2; stroke-opacity:0.1; fill:none" points="269.352,748.189 2352.76,748.189 "></polyline>
<polyline clip-path="url(#clip182)" style="stroke:#000000; stroke-linecap:round; stroke-linejoin:round; stroke-width:2; stroke-opacity:0.1; fill:none" points="269.352,562.746 2352.76,562.746 "></polyline>
<polyline clip-path="url(#clip182)" style="stroke:#000000; stroke-linecap:round; stroke-linejoin:round; stroke-width:2; stroke-opacity:0.1; fill:none" points="269.352,377.303 2352.76,377.303 "></polyline>
<polyline clip-path="url(#clip182)" style="stroke:#000000; stroke-linecap:round; stroke-linejoin:round; stroke-width:2; stroke-opacity:0.1; fill:none" points="269.352,191.86 2352.76,191.86 "></polyline>
<polyline clip-path="url(#clip180)" style="stroke:#000000; stroke-linecap:round; stroke-linejoin:round; stroke-width:4; stroke-opacity:1; fill:none" points="269.352,1486.45 269.352,47.2441 "></polyline>
<polyline clip-path="url(#clip180)" style="stroke:#000000; stroke-linecap:round; stroke-linejoin:round; stroke-width:4; stroke-opacity:1; fill:none" points="269.352,1304.52 288.25,1304.52 "></polyline>
<polyline clip-path="url(#clip180)" style="stroke:#000000; stroke-linecap:round; stroke-linejoin:round; stroke-width:4; stroke-opacity:1; fill:none" points="269.352,1119.07 288.25,1119.07 "></polyline>
<polyline clip-path="url(#clip180)" style="stroke:#000000; stroke-linecap:round; stroke-linejoin:round; stroke-width:4; stroke-opacity:1; fill:none" points="269.352,933.632 288.25,933.632 "></polyline>
<polyline clip-path="url(#clip180)" style="stroke:#000000; stroke-linecap:round; stroke-linejoin:round; stroke-width:4; stroke-opacity:1; fill:none" points="269.352,748.189 288.25,748.189 "></polyline>
<polyline clip-path="url(#clip180)" style="stroke:#000000; stroke-linecap:round; stroke-linejoin:round; stroke-width:4; stroke-opacity:1; fill:none" points="269.352,562.746 288.25,562.746 "></polyline>
<polyline clip-path="url(#clip180)" style="stroke:#000000; stroke-linecap:round; stroke-linejoin:round; stroke-width:4; stroke-opacity:1; fill:none" points="269.352,377.303 288.25,377.303 "></polyline>
<polyline clip-path="url(#clip180)" style="stroke:#000000; stroke-linecap:round; stroke-linejoin:round; stroke-width:4; stroke-opacity:1; fill:none" points="269.352,191.86 288.25,191.86 "></polyline>
<path clip-path="url(#clip180)" d="M50.9921 1304.97 L80.6679 1304.97 L80.6679 1308.9 L50.9921 1308.9 L50.9921 1304.97 Z" fill="#000000" fill-rule="nonzero" fill-opacity="1"></path><path clip-path="url(#clip180)" d="M90.8067 1287.24 L109.163 1287.24 L109.163 1291.17 L95.0891 1291.17 L95.0891 1299.64 Q96.1076 1299.3 97.1261 1299.14 Q98.1447 1298.95 99.1632 1298.95 Q104.95 1298.95 108.33 1302.12 Q111.709 1305.29 111.709 1310.71 Q111.709 1316.29 108.237 1319.39 Q104.765 1322.47 98.4456 1322.47 Q96.2697 1322.47 94.0012 1322.1 Q91.7558 1321.73 89.3484 1320.99 L89.3484 1316.29 Q91.4317 1317.42 93.6539 1317.98 Q95.8761 1318.53 98.353 1318.53 Q102.358 1318.53 104.696 1316.43 Q107.033 1314.32 107.033 1310.71 Q107.033 1307.1 104.696 1304.99 Q102.358 1302.89 98.353 1302.89 Q96.478 1302.89 94.603 1303.3 Q92.7512 1303.72 90.8067 1304.6 L90.8067 1287.24 Z" fill="#000000" fill-rule="nonzero" fill-opacity="1"></path><path clip-path="url(#clip180)" d="M130.922 1305.39 Q127.589 1305.39 125.668 1307.17 Q123.77 1308.95 123.77 1312.07 Q123.77 1315.2 125.668 1316.98 Q127.589 1318.76 130.922 1318.76 Q134.256 1318.76 136.177 1316.98 Q138.098 1315.18 138.098 1312.07 Q138.098 1308.95 136.177 1307.17 Q134.279 1305.39 130.922 1305.39 M126.246 1303.39 Q123.237 1302.65 121.547 1300.59 Q119.881 1298.53 119.881 1295.57 Q119.881 1291.43 122.82 1289.02 Q125.783 1286.61 130.922 1286.61 Q136.084 1286.61 139.024 1289.02 Q141.964 1291.43 141.964 1295.57 Q141.964 1298.53 140.274 1300.59 Q138.607 1302.65 135.621 1303.39 Q139.001 1304.18 140.876 1306.47 Q142.774 1308.76 142.774 1312.07 Q142.774 1317.1 139.695 1319.78 Q136.64 1322.47 130.922 1322.47 Q125.205 1322.47 122.126 1319.78 Q119.07 1317.1 119.07 1312.07 Q119.07 1308.76 120.969 1306.47 Q122.867 1304.18 126.246 1303.39 M124.533 1296.01 Q124.533 1298.7 126.2 1300.2 Q127.89 1301.7 130.922 1301.7 Q133.931 1301.7 135.621 1300.2 Q137.334 1298.7 137.334 1296.01 Q137.334 1293.32 135.621 1291.82 Q133.931 1290.32 130.922 1290.32 Q127.89 1290.32 126.2 1291.82 Q124.533 1293.32 124.533 1296.01 Z" fill="#000000" fill-rule="nonzero" fill-opacity="1"></path><path clip-path="url(#clip180)" d="M161.084 1290.32 Q157.473 1290.32 155.644 1293.88 Q153.839 1297.42 153.839 1304.55 Q153.839 1311.66 155.644 1315.22 Q157.473 1318.76 161.084 1318.76 Q164.718 1318.76 166.524 1315.22 Q168.353 1311.66 168.353 1304.55 Q168.353 1297.42 166.524 1293.88 Q164.718 1290.32 161.084 1290.32 M161.084 1286.61 Q166.894 1286.61 169.95 1291.22 Q173.029 1295.8 173.029 1304.55 Q173.029 1313.28 169.95 1317.89 Q166.894 1322.47 161.084 1322.47 Q155.274 1322.47 152.195 1317.89 Q149.14 1313.28 149.14 1304.55 Q149.14 1295.8 152.195 1291.22 Q155.274 1286.61 161.084 1286.61 Z" fill="#000000" fill-rule="nonzero" fill-opacity="1"></path><path clip-path="url(#clip180)" d="M191.246 1290.32 Q187.635 1290.32 185.806 1293.88 Q184.001 1297.42 184.001 1304.55 Q184.001 1311.66 185.806 1315.22 Q187.635 1318.76 191.246 1318.76 Q194.88 1318.76 196.686 1315.22 Q198.514 1311.66 198.514 1304.55 Q198.514 1297.42 196.686 1293.88 Q194.88 1290.32 191.246 1290.32 M191.246 1286.61 Q197.056 1286.61 200.112 1291.22 Q203.19 1295.8 203.19 1304.55 Q203.19 1313.28 200.112 1317.89 Q197.056 1322.47 191.246 1322.47 Q185.436 1322.47 182.357 1317.89 Q179.302 1313.28 179.302 1304.55 Q179.302 1295.8 182.357 1291.22 Q185.436 1286.61 191.246 1286.61 Z" fill="#000000" fill-rule="nonzero" fill-opacity="1"></path><path clip-path="url(#clip180)" d="M221.408 1290.32 Q217.797 1290.32 215.968 1293.88 Q214.163 1297.42 214.163 1304.55 Q214.163 1311.66 215.968 1315.22 Q217.797 1318.76 221.408 1318.76 Q225.042 1318.76 226.848 1315.22 Q228.676 1311.66 228.676 1304.55 Q228.676 1297.42 226.848 1293.88 Q225.042 1290.32 221.408 1290.32 M221.408 1286.61 Q227.218 1286.61 230.274 1291.22 Q233.352 1295.8 233.352 1304.55 Q233.352 1313.28 230.274 1317.89 Q227.218 1322.47 221.408 1322.47 Q215.598 1322.47 212.519 1317.89 Q209.463 1313.28 209.463 1304.55 Q209.463 1295.8 212.519 1291.22 Q215.598 1286.61 221.408 1286.61 Z" fill="#000000" fill-rule="nonzero" fill-opacity="1"></path><path clip-path="url(#clip180)" d="M50.9921 1119.53 L80.6679 1119.53 L80.6679 1123.46 L50.9921 1123.46 L50.9921 1119.53 Z" fill="#000000" fill-rule="nonzero" fill-opacity="1"></path><path clip-path="url(#clip180)" d="M90.8067 1101.79 L109.163 1101.79 L109.163 1105.73 L95.0891 1105.73 L95.0891 1114.2 Q96.1076 1113.85 97.1261 1113.69 Q98.1447 1113.51 99.1632 1113.51 Q104.95 1113.51 108.33 1116.68 Q111.709 1119.85 111.709 1125.27 Q111.709 1130.85 108.237 1133.95 Q104.765 1137.03 98.4456 1137.03 Q96.2697 1137.03 94.0012 1136.66 Q91.7558 1136.28 89.3484 1135.54 L89.3484 1130.85 Q91.4317 1131.98 93.6539 1132.53 Q95.8761 1133.09 98.353 1133.09 Q102.358 1133.09 104.696 1130.98 Q107.033 1128.88 107.033 1125.27 Q107.033 1121.66 104.696 1119.55 Q102.358 1117.44 98.353 1117.44 Q96.478 1117.44 94.603 1117.86 Q92.7512 1118.28 90.8067 1119.16 L90.8067 1101.79 Z" fill="#000000" fill-rule="nonzero" fill-opacity="1"></path><path clip-path="url(#clip180)" d="M119.742 1101.79 L141.964 1101.79 L141.964 1103.79 L129.418 1136.35 L124.533 1136.35 L136.339 1105.73 L119.742 1105.73 L119.742 1101.79 Z" fill="#000000" fill-rule="nonzero" fill-opacity="1"></path><path clip-path="url(#clip180)" d="M161.084 1119.94 Q157.751 1119.94 155.83 1121.72 Q153.931 1123.51 153.931 1126.63 Q153.931 1129.76 155.83 1131.54 Q157.751 1133.32 161.084 1133.32 Q164.417 1133.32 166.339 1131.54 Q168.26 1129.73 168.26 1126.63 Q168.26 1123.51 166.339 1121.72 Q164.441 1119.94 161.084 1119.94 M156.408 1117.95 Q153.399 1117.21 151.709 1115.15 Q150.043 1113.09 150.043 1110.13 Q150.043 1105.98 152.982 1103.58 Q155.945 1101.17 161.084 1101.17 Q166.246 1101.17 169.186 1103.58 Q172.126 1105.98 172.126 1110.13 Q172.126 1113.09 170.436 1115.15 Q168.769 1117.21 165.783 1117.95 Q169.163 1118.74 171.038 1121.03 Q172.936 1123.32 172.936 1126.63 Q172.936 1131.66 169.857 1134.34 Q166.802 1137.03 161.084 1137.03 Q155.367 1137.03 152.288 1134.34 Q149.232 1131.66 149.232 1126.63 Q149.232 1123.32 151.13 1121.03 Q153.029 1118.74 156.408 1117.95 M154.695 1110.57 Q154.695 1113.25 156.362 1114.76 Q158.052 1116.26 161.084 1116.26 Q164.093 1116.26 165.783 1114.76 Q167.496 1113.25 167.496 1110.57 Q167.496 1107.88 165.783 1106.38 Q164.093 1104.87 161.084 1104.87 Q158.052 1104.87 156.362 1106.38 Q154.695 1107.88 154.695 1110.57 Z" fill="#000000" fill-rule="nonzero" fill-opacity="1"></path><path clip-path="url(#clip180)" d="M191.246 1104.87 Q187.635 1104.87 185.806 1108.44 Q184.001 1111.98 184.001 1119.11 Q184.001 1126.22 185.806 1129.78 Q187.635 1133.32 191.246 1133.32 Q194.88 1133.32 196.686 1129.78 Q198.514 1126.22 198.514 1119.11 Q198.514 1111.98 196.686 1108.44 Q194.88 1104.87 191.246 1104.87 M191.246 1101.17 Q197.056 1101.17 200.112 1105.78 Q203.19 1110.36 203.19 1119.11 Q203.19 1127.84 200.112 1132.44 Q197.056 1137.03 191.246 1137.03 Q185.436 1137.03 182.357 1132.44 Q179.302 1127.84 179.302 1119.11 Q179.302 1110.36 182.357 1105.78 Q185.436 1101.17 191.246 1101.17 Z" fill="#000000" fill-rule="nonzero" fill-opacity="1"></path><path clip-path="url(#clip180)" d="M221.408 1104.87 Q217.797 1104.87 215.968 1108.44 Q214.163 1111.98 214.163 1119.11 Q214.163 1126.22 215.968 1129.78 Q217.797 1133.32 221.408 1133.32 Q225.042 1133.32 226.848 1129.78 Q228.676 1126.22 228.676 1119.11 Q228.676 1111.98 226.848 1108.44 Q225.042 1104.87 221.408 1104.87 M221.408 1101.17 Q227.218 1101.17 230.274 1105.78 Q233.352 1110.36 233.352 1119.11 Q233.352 1127.84 230.274 1132.44 Q227.218 1137.03 221.408 1137.03 Q215.598 1137.03 212.519 1132.44 Q209.463 1127.84 209.463 1119.11 Q209.463 1110.36 212.519 1105.78 Q215.598 1101.17 221.408 1101.17 Z" fill="#000000" fill-rule="nonzero" fill-opacity="1"></path><path clip-path="url(#clip180)" d="M50.9921 934.083 L80.6679 934.083 L80.6679 938.018 L50.9921 938.018 L50.9921 934.083 Z" fill="#000000" fill-rule="nonzero" fill-opacity="1"></path><path clip-path="url(#clip180)" d="M90.8067 916.352 L109.163 916.352 L109.163 920.287 L95.0891 920.287 L95.0891 928.759 Q96.1076 928.412 97.1261 928.25 Q98.1447 928.064 99.1632 928.064 Q104.95 928.064 108.33 931.236 Q111.709 934.407 111.709 939.824 Q111.709 945.402 108.237 948.504 Q104.765 951.583 98.4456 951.583 Q96.2697 951.583 94.0012 951.212 Q91.7558 950.842 89.3484 950.101 L89.3484 945.402 Q91.4317 946.537 93.6539 947.092 Q95.8761 947.648 98.353 947.648 Q102.358 947.648 104.696 945.541 Q107.033 943.435 107.033 939.824 Q107.033 936.213 104.696 934.106 Q102.358 932 98.353 932 Q96.478 932 94.603 932.416 Q92.7512 932.833 90.8067 933.713 L90.8067 916.352 Z" fill="#000000" fill-rule="nonzero" fill-opacity="1"></path><path clip-path="url(#clip180)" d="M119.742 916.352 L141.964 916.352 L141.964 918.342 L129.418 950.912 L124.533 950.912 L136.339 920.287 L119.742 920.287 L119.742 916.352 Z" fill="#000000" fill-rule="nonzero" fill-opacity="1"></path><path clip-path="url(#clip180)" d="M161.663 931.768 Q158.515 931.768 156.663 933.921 Q154.834 936.074 154.834 939.824 Q154.834 943.55 156.663 945.726 Q158.515 947.879 161.663 947.879 Q164.811 947.879 166.64 945.726 Q168.491 943.55 168.491 939.824 Q168.491 936.074 166.64 933.921 Q164.811 931.768 161.663 931.768 M170.945 917.115 L170.945 921.375 Q169.186 920.541 167.38 920.102 Q165.598 919.662 163.839 919.662 Q159.209 919.662 156.755 922.787 Q154.325 925.912 153.978 932.231 Q155.343 930.217 157.404 929.152 Q159.464 928.064 161.941 928.064 Q167.149 928.064 170.158 931.236 Q173.191 934.384 173.191 939.824 Q173.191 945.148 170.042 948.365 Q166.894 951.583 161.663 951.583 Q155.667 951.583 152.496 947 Q149.325 942.393 149.325 933.666 Q149.325 925.472 153.214 920.611 Q157.103 915.727 163.654 915.727 Q165.413 915.727 167.195 916.074 Q169.001 916.421 170.945 917.115 Z" fill="#000000" fill-rule="nonzero" fill-opacity="1"></path><path clip-path="url(#clip180)" d="M191.246 919.43 Q187.635 919.43 185.806 922.995 Q184.001 926.537 184.001 933.666 Q184.001 940.773 185.806 944.337 Q187.635 947.879 191.246 947.879 Q194.88 947.879 196.686 944.337 Q198.514 940.773 198.514 933.666 Q198.514 926.537 196.686 922.995 Q194.88 919.43 191.246 919.43 M191.246 915.727 Q197.056 915.727 200.112 920.333 Q203.19 924.916 203.19 933.666 Q203.19 942.393 200.112 947 Q197.056 951.583 191.246 951.583 Q185.436 951.583 182.357 947 Q179.302 942.393 179.302 933.666 Q179.302 924.916 182.357 920.333 Q185.436 915.727 191.246 915.727 Z" fill="#000000" fill-rule="nonzero" fill-opacity="1"></path><path clip-path="url(#clip180)" d="M221.408 919.43 Q217.797 919.43 215.968 922.995 Q214.163 926.537 214.163 933.666 Q214.163 940.773 215.968 944.337 Q217.797 947.879 221.408 947.879 Q225.042 947.879 226.848 944.337 Q228.676 940.773 228.676 933.666 Q228.676 926.537 226.848 922.995 Q225.042 919.43 221.408 919.43 M221.408 915.727 Q227.218 915.727 230.274 920.333 Q233.352 924.916 233.352 933.666 Q233.352 942.393 230.274 947 Q227.218 951.583 221.408 951.583 Q215.598 951.583 212.519 947 Q209.463 942.393 209.463 933.666 Q209.463 924.916 212.519 920.333 Q215.598 915.727 221.408 915.727 Z" fill="#000000" fill-rule="nonzero" fill-opacity="1"></path><path clip-path="url(#clip180)" d="M50.9921 748.64 L80.6679 748.64 L80.6679 752.575 L50.9921 752.575 L50.9921 748.64 Z" fill="#000000" fill-rule="nonzero" fill-opacity="1"></path><path clip-path="url(#clip180)" d="M90.8067 730.909 L109.163 730.909 L109.163 734.844 L95.0891 734.844 L95.0891 743.316 Q96.1076 742.969 97.1261 742.807 Q98.1447 742.622 99.1632 742.622 Q104.95 742.622 108.33 745.793 Q111.709 748.964 111.709 754.381 Q111.709 759.96 108.237 763.061 Q104.765 766.14 98.4456 766.14 Q96.2697 766.14 94.0012 765.77 Q91.7558 765.399 89.3484 764.659 L89.3484 759.96 Q91.4317 761.094 93.6539 761.649 Q95.8761 762.205 98.353 762.205 Q102.358 762.205 104.696 760.098 Q107.033 757.992 107.033 754.381 Q107.033 750.77 104.696 748.663 Q102.358 746.557 98.353 746.557 Q96.478 746.557 94.603 746.973 Q92.7512 747.39 90.8067 748.27 L90.8067 730.909 Z" fill="#000000" fill-rule="nonzero" fill-opacity="1"></path><path clip-path="url(#clip180)" d="M119.742 730.909 L141.964 730.909 L141.964 732.899 L129.418 765.469 L124.533 765.469 L136.339 734.844 L119.742 734.844 L119.742 730.909 Z" fill="#000000" fill-rule="nonzero" fill-opacity="1"></path><path clip-path="url(#clip180)" d="M163.931 734.983 L152.126 753.432 L163.931 753.432 L163.931 734.983 M162.704 730.909 L168.584 730.909 L168.584 753.432 L173.515 753.432 L173.515 757.321 L168.584 757.321 L168.584 765.469 L163.931 765.469 L163.931 757.321 L148.33 757.321 L148.33 752.807 L162.704 730.909 Z" fill="#000000" fill-rule="nonzero" fill-opacity="1"></path><path clip-path="url(#clip180)" d="M191.246 733.987 Q187.635 733.987 185.806 737.552 Q184.001 741.094 184.001 748.223 Q184.001 755.33 185.806 758.895 Q187.635 762.436 191.246 762.436 Q194.88 762.436 196.686 758.895 Q198.514 755.33 198.514 748.223 Q198.514 741.094 196.686 737.552 Q194.88 733.987 191.246 733.987 M191.246 730.284 Q197.056 730.284 200.112 734.89 Q203.19 739.474 203.19 748.223 Q203.19 756.95 200.112 761.557 Q197.056 766.14 191.246 766.14 Q185.436 766.14 182.357 761.557 Q179.302 756.95 179.302 748.223 Q179.302 739.474 182.357 734.89 Q185.436 730.284 191.246 730.284 Z" fill="#000000" fill-rule="nonzero" fill-opacity="1"></path><path clip-path="url(#clip180)" d="M221.408 733.987 Q217.797 733.987 215.968 737.552 Q214.163 741.094 214.163 748.223 Q214.163 755.33 215.968 758.895 Q217.797 762.436 221.408 762.436 Q225.042 762.436 226.848 758.895 Q228.676 755.33 228.676 748.223 Q228.676 741.094 226.848 737.552 Q225.042 733.987 221.408 733.987 M221.408 730.284 Q227.218 730.284 230.274 734.89 Q233.352 739.474 233.352 748.223 Q233.352 756.95 230.274 761.557 Q227.218 766.14 221.408 766.14 Q215.598 766.14 212.519 761.557 Q209.463 756.95 209.463 748.223 Q209.463 739.474 212.519 734.89 Q215.598 730.284 221.408 730.284 Z" fill="#000000" fill-rule="nonzero" fill-opacity="1"></path><path clip-path="url(#clip180)" d="M50.9921 563.197 L80.6679 563.197 L80.6679 567.133 L50.9921 567.133 L50.9921 563.197 Z" fill="#000000" fill-rule="nonzero" fill-opacity="1"></path><path clip-path="url(#clip180)" d="M90.8067 545.466 L109.163 545.466 L109.163 549.401 L95.0891 549.401 L95.0891 557.873 Q96.1076 557.526 97.1261 557.364 Q98.1447 557.179 99.1632 557.179 Q104.95 557.179 108.33 560.35 Q111.709 563.521 111.709 568.938 Q111.709 574.517 108.237 577.619 Q104.765 580.697 98.4456 580.697 Q96.2697 580.697 94.0012 580.327 Q91.7558 579.957 89.3484 579.216 L89.3484 574.517 Q91.4317 575.651 93.6539 576.207 Q95.8761 576.762 98.353 576.762 Q102.358 576.762 104.696 574.656 Q107.033 572.549 107.033 568.938 Q107.033 565.327 104.696 563.221 Q102.358 561.114 98.353 561.114 Q96.478 561.114 94.603 561.531 Q92.7512 561.947 90.8067 562.827 L90.8067 545.466 Z" fill="#000000" fill-rule="nonzero" fill-opacity="1"></path><path clip-path="url(#clip180)" d="M119.742 545.466 L141.964 545.466 L141.964 547.457 L129.418 580.026 L124.533 580.026 L136.339 549.401 L119.742 549.401 L119.742 545.466 Z" fill="#000000" fill-rule="nonzero" fill-opacity="1"></path><path clip-path="url(#clip180)" d="M155.112 576.091 L171.431 576.091 L171.431 580.026 L149.487 580.026 L149.487 576.091 Q152.149 573.336 156.732 568.707 Q161.339 564.054 162.519 562.711 Q164.765 560.188 165.644 558.452 Q166.547 556.693 166.547 555.003 Q166.547 552.248 164.603 550.512 Q162.681 548.776 159.58 548.776 Q157.38 548.776 154.927 549.54 Q152.496 550.304 149.718 551.855 L149.718 547.133 Q152.543 545.998 154.996 545.42 Q157.45 544.841 159.487 544.841 Q164.857 544.841 168.052 547.526 Q171.246 550.211 171.246 554.702 Q171.246 556.832 170.436 558.753 Q169.649 560.651 167.542 563.244 Q166.964 563.915 163.862 567.133 Q160.76 570.327 155.112 576.091 Z" fill="#000000" fill-rule="nonzero" fill-opacity="1"></path><path clip-path="url(#clip180)" d="M191.246 548.545 Q187.635 548.545 185.806 552.109 Q184.001 555.651 184.001 562.781 Q184.001 569.887 185.806 573.452 Q187.635 576.994 191.246 576.994 Q194.88 576.994 196.686 573.452 Q198.514 569.887 198.514 562.781 Q198.514 555.651 196.686 552.109 Q194.88 548.545 191.246 548.545 M191.246 544.841 Q197.056 544.841 200.112 549.447 Q203.19 554.031 203.19 562.781 Q203.19 571.508 200.112 576.114 Q197.056 580.697 191.246 580.697 Q185.436 580.697 182.357 576.114 Q179.302 571.508 179.302 562.781 Q179.302 554.031 182.357 549.447 Q185.436 544.841 191.246 544.841 Z" fill="#000000" fill-rule="nonzero" fill-opacity="1"></path><path clip-path="url(#clip180)" d="M221.408 548.545 Q217.797 548.545 215.968 552.109 Q214.163 555.651 214.163 562.781 Q214.163 569.887 215.968 573.452 Q217.797 576.994 221.408 576.994 Q225.042 576.994 226.848 573.452 Q228.676 569.887 228.676 562.781 Q228.676 555.651 226.848 552.109 Q225.042 548.545 221.408 548.545 M221.408 544.841 Q227.218 544.841 230.274 549.447 Q233.352 554.031 233.352 562.781 Q233.352 571.508 230.274 576.114 Q227.218 580.697 221.408 580.697 Q215.598 580.697 212.519 576.114 Q209.463 571.508 209.463 562.781 Q209.463 554.031 212.519 549.447 Q215.598 544.841 221.408 544.841 Z" fill="#000000" fill-rule="nonzero" fill-opacity="1"></path><path clip-path="url(#clip180)" d="M50.9921 377.755 L80.6679 377.755 L80.6679 381.69 L50.9921 381.69 L50.9921 377.755 Z" fill="#000000" fill-rule="nonzero" fill-opacity="1"></path><path clip-path="url(#clip180)" d="M90.8067 360.023 L109.163 360.023 L109.163 363.958 L95.0891 363.958 L95.0891 372.431 Q96.1076 372.083 97.1261 371.921 Q98.1447 371.736 99.1632 371.736 Q104.95 371.736 108.33 374.907 Q111.709 378.079 111.709 383.495 Q111.709 389.074 108.237 392.176 Q104.765 395.255 98.4456 395.255 Q96.2697 395.255 94.0012 394.884 Q91.7558 394.514 89.3484 393.773 L89.3484 389.074 Q91.4317 390.208 93.6539 390.764 Q95.8761 391.319 98.353 391.319 Q102.358 391.319 104.696 389.213 Q107.033 387.106 107.033 383.495 Q107.033 379.884 104.696 377.778 Q102.358 375.671 98.353 375.671 Q96.478 375.671 94.603 376.088 Q92.7512 376.505 90.8067 377.384 L90.8067 360.023 Z" fill="#000000" fill-rule="nonzero" fill-opacity="1"></path><path clip-path="url(#clip180)" d="M119.742 360.023 L141.964 360.023 L141.964 362.014 L129.418 394.583 L124.533 394.583 L136.339 363.958 L119.742 363.958 L119.742 360.023 Z" fill="#000000" fill-rule="nonzero" fill-opacity="1"></path><path clip-path="url(#clip180)" d="M161.084 363.102 Q157.473 363.102 155.644 366.667 Q153.839 370.208 153.839 377.338 Q153.839 384.444 155.644 388.009 Q157.473 391.551 161.084 391.551 Q164.718 391.551 166.524 388.009 Q168.353 384.444 168.353 377.338 Q168.353 370.208 166.524 366.667 Q164.718 363.102 161.084 363.102 M161.084 359.398 Q166.894 359.398 169.95 364.005 Q173.029 368.588 173.029 377.338 Q173.029 386.065 169.95 390.671 Q166.894 395.255 161.084 395.255 Q155.274 395.255 152.195 390.671 Q149.14 386.065 149.14 377.338 Q149.14 368.588 152.195 364.005 Q155.274 359.398 161.084 359.398 Z" fill="#000000" fill-rule="nonzero" fill-opacity="1"></path><path clip-path="url(#clip180)" d="M191.246 363.102 Q187.635 363.102 185.806 366.667 Q184.001 370.208 184.001 377.338 Q184.001 384.444 185.806 388.009 Q187.635 391.551 191.246 391.551 Q194.88 391.551 196.686 388.009 Q198.514 384.444 198.514 377.338 Q198.514 370.208 196.686 366.667 Q194.88 363.102 191.246 363.102 M191.246 359.398 Q197.056 359.398 200.112 364.005 Q203.19 368.588 203.19 377.338 Q203.19 386.065 200.112 390.671 Q197.056 395.255 191.246 395.255 Q185.436 395.255 182.357 390.671 Q179.302 386.065 179.302 377.338 Q179.302 368.588 182.357 364.005 Q185.436 359.398 191.246 359.398 Z" fill="#000000" fill-rule="nonzero" fill-opacity="1"></path><path clip-path="url(#clip180)" d="M221.408 363.102 Q217.797 363.102 215.968 366.667 Q214.163 370.208 214.163 377.338 Q214.163 384.444 215.968 388.009 Q217.797 391.551 221.408 391.551 Q225.042 391.551 226.848 388.009 Q228.676 384.444 228.676 377.338 Q228.676 370.208 226.848 366.667 Q225.042 363.102 221.408 363.102 M221.408 359.398 Q227.218 359.398 230.274 364.005 Q233.352 368.588 233.352 377.338 Q233.352 386.065 230.274 390.671 Q227.218 395.255 221.408 395.255 Q215.598 395.255 212.519 390.671 Q209.463 386.065 209.463 377.338 Q209.463 368.588 212.519 364.005 Q215.598 359.398 221.408 359.398 Z" fill="#000000" fill-rule="nonzero" fill-opacity="1"></path><path clip-path="url(#clip180)" d="M50.9921 192.312 L80.6679 192.312 L80.6679 196.247 L50.9921 196.247 L50.9921 192.312 Z" fill="#000000" fill-rule="nonzero" fill-opacity="1"></path><path clip-path="url(#clip180)" d="M90.8067 174.58 L109.163 174.58 L109.163 178.516 L95.0891 178.516 L95.0891 186.988 Q96.1076 186.641 97.1261 186.479 Q98.1447 186.293 99.1632 186.293 Q104.95 186.293 108.33 189.465 Q111.709 192.636 111.709 198.053 Q111.709 203.631 108.237 206.733 Q104.765 209.812 98.4456 209.812 Q96.2697 209.812 94.0012 209.441 Q91.7558 209.071 89.3484 208.33 L89.3484 203.631 Q91.4317 204.765 93.6539 205.321 Q95.8761 205.877 98.353 205.877 Q102.358 205.877 104.696 203.77 Q107.033 201.664 107.033 198.053 Q107.033 194.441 104.696 192.335 Q102.358 190.229 98.353 190.229 Q96.478 190.229 94.603 190.645 Q92.7512 191.062 90.8067 191.941 L90.8067 174.58 Z" fill="#000000" fill-rule="nonzero" fill-opacity="1"></path><path clip-path="url(#clip180)" d="M131.501 189.997 Q128.353 189.997 126.501 192.15 Q124.672 194.303 124.672 198.053 Q124.672 201.779 126.501 203.955 Q128.353 206.108 131.501 206.108 Q134.649 206.108 136.478 203.955 Q138.33 201.779 138.33 198.053 Q138.33 194.303 136.478 192.15 Q134.649 189.997 131.501 189.997 M140.783 175.344 L140.783 179.604 Q139.024 178.77 137.219 178.33 Q135.436 177.891 133.677 177.891 Q129.047 177.891 126.594 181.016 Q124.163 184.141 123.816 190.46 Q125.182 188.446 127.242 187.381 Q129.302 186.293 131.779 186.293 Q136.987 186.293 139.996 189.465 Q143.029 192.613 143.029 198.053 Q143.029 203.377 139.881 206.594 Q136.732 209.812 131.501 209.812 Q125.506 209.812 122.334 205.228 Q119.163 200.622 119.163 191.895 Q119.163 183.701 123.052 178.84 Q126.941 173.955 133.492 173.955 Q135.251 173.955 137.033 174.303 Q138.839 174.65 140.783 175.344 Z" fill="#000000" fill-rule="nonzero" fill-opacity="1"></path><path clip-path="url(#clip180)" d="M161.084 192.729 Q157.751 192.729 155.83 194.511 Q153.931 196.293 153.931 199.418 Q153.931 202.543 155.83 204.326 Q157.751 206.108 161.084 206.108 Q164.417 206.108 166.339 204.326 Q168.26 202.52 168.26 199.418 Q168.26 196.293 166.339 194.511 Q164.441 192.729 161.084 192.729 M156.408 190.738 Q153.399 189.997 151.709 187.937 Q150.043 185.877 150.043 182.914 Q150.043 178.77 152.982 176.363 Q155.945 173.955 161.084 173.955 Q166.246 173.955 169.186 176.363 Q172.126 178.77 172.126 182.914 Q172.126 185.877 170.436 187.937 Q168.769 189.997 165.783 190.738 Q169.163 191.525 171.038 193.816 Q172.936 196.108 172.936 199.418 Q172.936 204.441 169.857 207.127 Q166.802 209.812 161.084 209.812 Q155.367 209.812 152.288 207.127 Q149.232 204.441 149.232 199.418 Q149.232 196.108 151.13 193.816 Q153.029 191.525 156.408 190.738 M154.695 183.354 Q154.695 186.039 156.362 187.543 Q158.052 189.048 161.084 189.048 Q164.093 189.048 165.783 187.543 Q167.496 186.039 167.496 183.354 Q167.496 180.668 165.783 179.164 Q164.093 177.659 161.084 177.659 Q158.052 177.659 156.362 179.164 Q154.695 180.668 154.695 183.354 Z" fill="#000000" fill-rule="nonzero" fill-opacity="1"></path><path clip-path="url(#clip180)" d="M191.246 177.659 Q187.635 177.659 185.806 181.224 Q184.001 184.766 184.001 191.895 Q184.001 199.002 185.806 202.566 Q187.635 206.108 191.246 206.108 Q194.88 206.108 196.686 202.566 Q198.514 199.002 198.514 191.895 Q198.514 184.766 196.686 181.224 Q194.88 177.659 191.246 177.659 M191.246 173.955 Q197.056 173.955 200.112 178.562 Q203.19 183.145 203.19 191.895 Q203.19 200.622 200.112 205.228 Q197.056 209.812 191.246 209.812 Q185.436 209.812 182.357 205.228 Q179.302 200.622 179.302 191.895 Q179.302 183.145 182.357 178.562 Q185.436 173.955 191.246 173.955 Z" fill="#000000" fill-rule="nonzero" fill-opacity="1"></path><path clip-path="url(#clip180)" d="M221.408 177.659 Q217.797 177.659 215.968 181.224 Q214.163 184.766 214.163 191.895 Q214.163 199.002 215.968 202.566 Q217.797 206.108 221.408 206.108 Q225.042 206.108 226.848 202.566 Q228.676 199.002 228.676 191.895 Q228.676 184.766 226.848 181.224 Q225.042 177.659 221.408 177.659 M221.408 173.955 Q227.218 173.955 230.274 178.562 Q233.352 183.145 233.352 191.895 Q233.352 200.622 230.274 205.228 Q227.218 209.812 221.408 209.812 Q215.598 209.812 212.519 205.228 Q209.463 200.622 209.463 191.895 Q209.463 183.145 212.519 178.562 Q215.598 173.955 221.408 173.955 Z" fill="#000000" fill-rule="nonzero" fill-opacity="1"></path><polyline clip-path="url(#clip182)" style="stroke:#009af9; stroke-linecap:round; stroke-linejoin:round; stroke-width:4; stroke-opacity:1; fill:none" points="328.317,87.9763 721.412,1227.55 1114.51,1347.59 1507.6,199.928 1900.7,1445.72 2293.79,1422.69 "></polyline>
<path clip-path="url(#clip180)" d="M2022.54 198.898 L2283.31 198.898 L2283.31 95.2176 L2022.54 95.2176  Z" fill="#ffffff" fill-rule="evenodd" fill-opacity="1"></path>
<polyline clip-path="url(#clip180)" style="stroke:#000000; stroke-linecap:round; stroke-linejoin:round; stroke-width:4; stroke-opacity:1; fill:none" points="2022.54,198.898 2283.31,198.898 2283.31,95.2176 2022.54,95.2176 2022.54,198.898 "></polyline>
<polyline clip-path="url(#clip180)" style="stroke:#009af9; stroke-linecap:round; stroke-linejoin:round; stroke-width:4; stroke-opacity:1; fill:none" points="2045.69,147.058 2184.58,147.058 "></polyline>
<path clip-path="url(#clip180)" d="M2221.57 166.745 Q2219.77 171.375 2218.05 172.787 Q2216.34 174.199 2213.47 174.199 L2210.07 174.199 L2210.07 170.634 L2212.57 170.634 Q2214.33 170.634 2215.3 169.8 Q2216.27 168.967 2217.45 165.865 L2218.22 163.921 L2207.73 138.412 L2212.24 138.412 L2220.35 158.689 L2228.45 138.412 L2232.96 138.412 L2221.57 166.745 Z" fill="#000000" fill-rule="nonzero" fill-opacity="1"></path><path clip-path="url(#clip180)" d="M2240.25 160.402 L2247.89 160.402 L2247.89 134.037 L2239.58 135.703 L2239.58 131.444 L2247.85 129.778 L2252.52 129.778 L2252.52 160.402 L2260.16 160.402 L2260.16 164.338 L2240.25 164.338 L2240.25 160.402 Z" fill="#000000" fill-rule="nonzero" fill-opacity="1"></path></svg>