<svg xmlns="http://www.w3.org/2000/svg" xmlns:xlink="http://www.w3.org/1999/xlink" width="600" height="400" viewBox="0 0 2400 1600">
<defs>
  <clipPath id="clip380">
    <rect x="0" y="0" width="2400" height="1600"></rect>
  </clipPath>
</defs>
<path clip-path="url(#clip380)" d="M0 1600 L2400 1600 L2400 0 L0 0  Z" fill="#ffffff" fill-rule="evenodd" fill-opacity="1"></path>
<defs>
  <clipPath id="clip381">
    <rect x="480" y="0" width="1681" height="1600"></rect>
  </clipPath>
</defs>
<path clip-path="url(#clip380)" d="M193.936 1486.45 L2352.76 1486.45 L2352.76 47.2441 L193.936 47.2441  Z" fill="#ffffff" fill-rule="evenodd" fill-opacity="1"></path>
<defs>
  <clipPath id="clip382">
    <rect x="193" y="47" width="2160" height="1440"></rect>
  </clipPath>
</defs>
<polyline clip-path="url(#clip382)" style="stroke:#000000; stroke-linecap:round; stroke-linejoin:round; stroke-width:2; stroke-opacity:0.1; fill:none" points="255.035,1486.45 255.035,47.2441 "></polyline>
<polyline clip-path="url(#clip382)" style="stroke:#000000; stroke-linecap:round; stroke-linejoin:round; stroke-width:2; stroke-opacity:0.1; fill:none" points="836.927,1486.45 836.927,47.2441 "></polyline>
<polyline clip-path="url(#clip382)" style="stroke:#000000; stroke-linecap:round; stroke-linejoin:round; stroke-width:2; stroke-opacity:0.1; fill:none" points="1418.82,1486.45 1418.82,47.2441 "></polyline>
<polyline clip-path="url(#clip382)" style="stroke:#000000; stroke-linecap:round; stroke-linejoin:round; stroke-width:2; stroke-opacity:0.1; fill:none" points="2000.71,1486.45 2000.71,47.2441 "></polyline>
<polyline clip-path="url(#clip380)" style="stroke:#000000; stroke-linecap:round; stroke-linejoin:round; stroke-width:4; stroke-opacity:1; fill:none" points="193.936,1486.45 2352.76,1486.45 "></polyline>
<polyline clip-path="url(#clip380)" style="stroke:#000000; stroke-linecap:round; stroke-linejoin:round; stroke-width:4; stroke-opacity:1; fill:none" points="255.035,1486.45 255.035,1467.55 "></polyline>
<polyline clip-path="url(#clip380)" style="stroke:#000000; stroke-linecap:round; stroke-linejoin:round; stroke-width:4; stroke-opacity:1; fill:none" points="836.927,1486.45 836.927,1467.55 "></polyline>
<polyline clip-path="url(#clip380)" style="stroke:#000000; stroke-linecap:round; stroke-linejoin:round; stroke-width:4; stroke-opacity:1; fill:none" points="1418.82,1486.45 1418.82,1467.55 "></polyline>
<polyline clip-path="url(#clip380)" style="stroke:#000000; stroke-linecap:round; stroke-linejoin:round; stroke-width:4; stroke-opacity:1; fill:none" points="2000.71,1486.45 2000.71,1467.55 "></polyline>
<path clip-path="url(#clip380)" d="M255.035 1517.37 Q251.424 1517.37 249.595 1520.93 Q247.789 1524.47 247.789 1531.6 Q247.789 1538.71 249.595 1542.27 Q251.424 1545.82 255.035 1545.82 Q258.669 1545.82 260.474 1542.27 Q262.303 1538.71 262.303 1531.6 Q262.303 1524.47 260.474 1520.93 Q258.669 1517.37 255.035 1517.37 M255.035 1513.66 Q260.845 1513.66 263.9 1518.27 Q266.979 1522.85 266.979 1531.6 Q266.979 1540.33 263.9 1544.94 Q260.845 1549.52 255.035 1549.52 Q249.225 1549.52 246.146 1544.94 Q243.09 1540.33 243.09 1531.6 Q243.09 1522.85 246.146 1518.27 Q249.225 1513.66 255.035 1513.66 Z" fill="#000000" fill-rule="nonzero" fill-opacity="1"></path><path clip-path="url(#clip380)" d="M800.619 1544.91 L816.939 1544.91 L816.939 1548.85 L794.994 1548.85 L794.994 1544.91 Q797.656 1542.16 802.24 1537.53 Q806.846 1532.88 808.027 1531.53 Q810.272 1529.01 811.152 1527.27 Q812.054 1525.51 812.054 1523.82 Q812.054 1521.07 810.11 1519.33 Q808.189 1517.6 805.087 1517.6 Q802.888 1517.6 800.434 1518.36 Q798.003 1519.13 795.226 1520.68 L795.226 1515.95 Q798.05 1514.82 800.503 1514.24 Q802.957 1513.66 804.994 1513.66 Q810.364 1513.66 813.559 1516.35 Q816.753 1519.03 816.753 1523.52 Q816.753 1525.65 815.943 1527.57 Q815.156 1529.47 813.05 1532.07 Q812.471 1532.74 809.369 1535.95 Q806.267 1539.15 800.619 1544.91 Z" fill="#000000" fill-rule="nonzero" fill-opacity="1"></path><path clip-path="url(#clip380)" d="M836.753 1517.37 Q833.142 1517.37 831.313 1520.93 Q829.508 1524.47 829.508 1531.6 Q829.508 1538.71 831.313 1542.27 Q833.142 1545.82 836.753 1545.82 Q840.387 1545.82 842.193 1542.27 Q844.022 1538.71 844.022 1531.6 Q844.022 1524.47 842.193 1520.93 Q840.387 1517.37 836.753 1517.37 M836.753 1513.66 Q842.563 1513.66 845.619 1518.27 Q848.698 1522.85 848.698 1531.6 Q848.698 1540.33 845.619 1544.94 Q842.563 1549.52 836.753 1549.52 Q830.943 1549.52 827.864 1544.94 Q824.809 1540.33 824.809 1531.6 Q824.809 1522.85 827.864 1518.27 Q830.943 1513.66 836.753 1513.66 Z" fill="#000000" fill-rule="nonzero" fill-opacity="1"></path><path clip-path="url(#clip380)" d="M866.915 1517.37 Q863.304 1517.37 861.475 1520.93 Q859.67 1524.47 859.67 1531.6 Q859.67 1538.71 861.475 1542.27 Q863.304 1545.82 866.915 1545.82 Q870.549 1545.82 872.355 1542.27 Q874.184 1538.71 874.184 1531.6 Q874.184 1524.47 872.355 1520.93 Q870.549 1517.37 866.915 1517.37 M866.915 1513.66 Q872.725 1513.66 875.781 1518.27 Q878.859 1522.85 878.859 1531.6 Q878.859 1540.33 875.781 1544.94 Q872.725 1549.52 866.915 1549.52 Q861.105 1549.52 858.026 1544.94 Q854.971 1540.33 854.971 1531.6 Q854.971 1522.85 858.026 1518.27 Q861.105 1513.66 866.915 1513.66 Z" fill="#000000" fill-rule="nonzero" fill-opacity="1"></path><path clip-path="url(#clip380)" d="M1391.91 1518.36 L1380.1 1536.81 L1391.91 1536.81 L1391.91 1518.36 M1390.68 1514.29 L1396.56 1514.29 L1396.56 1536.81 L1401.49 1536.81 L1401.49 1540.7 L1396.56 1540.7 L1396.56 1548.85 L1391.91 1548.85 L1391.91 1540.7 L1376.31 1540.7 L1376.31 1536.19 L1390.68 1514.29 Z" fill="#000000" fill-rule="nonzero" fill-opacity="1"></path><path clip-path="url(#clip380)" d="M1419.22 1517.37 Q1415.61 1517.37 1413.78 1520.93 Q1411.98 1524.47 1411.98 1531.6 Q1411.98 1538.71 1413.78 1542.27 Q1415.61 1545.82 1419.22 1545.82 Q1422.86 1545.82 1424.66 1542.27 Q1426.49 1538.71 1426.49 1531.6 Q1426.49 1524.47 1424.66 1520.93 Q1422.86 1517.37 1419.22 1517.37 M1419.22 1513.66 Q1425.03 1513.66 1428.09 1518.27 Q1431.17 1522.85 1431.17 1531.6 Q1431.17 1540.33 1428.09 1544.94 Q1425.03 1549.52 1419.22 1549.52 Q1413.41 1549.52 1410.34 1544.94 Q1407.28 1540.33 1407.28 1531.6 Q1407.28 1522.85 1410.34 1518.27 Q1413.41 1513.66 1419.22 1513.66 Z" fill="#000000" fill-rule="nonzero" fill-opacity="1"></path><path clip-path="url(#clip380)" d="M1449.39 1517.37 Q1445.77 1517.37 1443.95 1520.93 Q1442.14 1524.47 1442.14 1531.6 Q1442.14 1538.71 1443.95 1542.27 Q1445.77 1545.82 1449.39 1545.82 Q1453.02 1545.82 1454.83 1542.27 Q1456.65 1538.71 1456.65 1531.6 Q1456.65 1524.47 1454.83 1520.93 Q1453.02 1517.37 1449.39 1517.37 M1449.39 1513.66 Q1455.2 1513.66 1458.25 1518.27 Q1461.33 1522.85 1461.33 1531.6 Q1461.33 1540.33 1458.25 1544.94 Q1455.2 1549.52 1449.39 1549.52 Q1443.58 1549.52 1440.5 1544.94 Q1437.44 1540.33 1437.44 1531.6 Q1437.44 1522.85 1440.5 1518.27 Q1443.58 1513.66 1449.39 1513.66 Z" fill="#000000" fill-rule="nonzero" fill-opacity="1"></path><path clip-path="url(#clip380)" d="M1971.04 1529.7 Q1967.89 1529.7 1966.04 1531.86 Q1964.21 1534.01 1964.21 1537.76 Q1964.21 1541.49 1966.04 1543.66 Q1967.89 1545.82 1971.04 1545.82 Q1974.18 1545.82 1976.01 1543.66 Q1977.86 1541.49 1977.86 1537.76 Q1977.86 1534.01 1976.01 1531.86 Q1974.18 1529.7 1971.04 1529.7 M1980.32 1515.05 L1980.32 1519.31 Q1978.56 1518.48 1976.75 1518.04 Q1974.97 1517.6 1973.21 1517.6 Q1968.58 1517.6 1966.13 1520.72 Q1963.7 1523.85 1963.35 1530.17 Q1964.72 1528.15 1966.78 1527.09 Q1968.84 1526 1971.31 1526 Q1976.52 1526 1979.53 1529.17 Q1982.56 1532.32 1982.56 1537.76 Q1982.56 1543.08 1979.41 1546.3 Q1976.27 1549.52 1971.04 1549.52 Q1965.04 1549.52 1961.87 1544.94 Q1958.7 1540.33 1958.7 1531.6 Q1958.7 1523.41 1962.59 1518.55 Q1966.48 1513.66 1973.03 1513.66 Q1974.79 1513.66 1976.57 1514.01 Q1978.37 1514.36 1980.32 1515.05 Z" fill="#000000" fill-rule="nonzero" fill-opacity="1"></path><path clip-path="url(#clip380)" d="M2000.62 1517.37 Q1997.01 1517.37 1995.18 1520.93 Q1993.37 1524.47 1993.37 1531.6 Q1993.37 1538.71 1995.18 1542.27 Q1997.01 1545.82 2000.62 1545.82 Q2004.25 1545.82 2006.06 1542.27 Q2007.89 1538.71 2007.89 1531.6 Q2007.89 1524.47 2006.06 1520.93 Q2004.25 1517.37 2000.62 1517.37 M2000.62 1513.66 Q2006.43 1513.66 2009.48 1518.27 Q2012.56 1522.85 2012.56 1531.6 Q2012.56 1540.33 2009.48 1544.94 Q2006.43 1549.52 2000.62 1549.52 Q1994.81 1549.52 1991.73 1544.94 Q1988.67 1540.33 1988.67 1531.6 Q1988.67 1522.85 1991.73 1518.27 Q1994.81 1513.66 2000.62 1513.66 Z" fill="#000000" fill-rule="nonzero" fill-opacity="1"></path><path clip-path="url(#clip380)" d="M2030.78 1517.37 Q2027.17 1517.37 2025.34 1520.93 Q2023.54 1524.47 2023.54 1531.6 Q2023.54 1538.71 2025.34 1542.27 Q2027.17 1545.82 2030.78 1545.82 Q2034.41 1545.82 2036.22 1542.27 Q2038.05 1538.71 2038.05 1531.6 Q2038.05 1524.47 2036.22 1520.93 Q2034.41 1517.37 2030.78 1517.37 M2030.78 1513.66 Q2036.59 1513.66 2039.65 1518.27 Q2042.72 1522.85 2042.72 1531.6 Q2042.72 1540.33 2039.65 1544.94 Q2036.59 1549.52 2030.78 1549.52 Q2024.97 1549.52 2021.89 1544.94 Q2018.84 1540.33 2018.84 1531.6 Q2018.84 1522.85 2021.89 1518.27 Q2024.97 1513.66 2030.78 1513.66 Z" fill="#000000" fill-rule="nonzero" fill-opacity="1"></path><polyline clip-path="url(#clip382)" style="stroke:#000000; stroke-linecap:round; stroke-linejoin:round; stroke-width:2; stroke-opacity:0.1; fill:none" points="193.936,1276.53 2352.76,1276.53 "></polyline>
<polyline clip-path="url(#clip382)" style="stroke:#000000; stroke-linecap:round; stroke-linejoin:round; stroke-width:2; stroke-opacity:0.1; fill:none" points="193.936,1062.3 2352.76,1062.3 "></polyline>
<polyline clip-path="url(#clip382)" style="stroke:#000000; stroke-linecap:round; stroke-linejoin:round; stroke-width:2; stroke-opacity:0.1; fill:none" points="193.936,848.067 2352.76,848.067 "></polyline>
<polyline clip-path="url(#clip382)" style="stroke:#000000; stroke-linecap:round; stroke-linejoin:round; stroke-width:2; stroke-opacity:0.1; fill:none" points="193.936,633.833 2352.76,633.833 "></polyline>
<polyline clip-path="url(#clip382)" style="stroke:#000000; stroke-linecap:round; stroke-linejoin:round; stroke-width:2; stroke-opacity:0.1; fill:none" points="193.936,419.599 2352.76,419.599 "></polyline>
<polyline clip-path="url(#clip382)" style="stroke:#000000; stroke-linecap:round; stroke-linejoin:round; stroke-width:2; stroke-opacity:0.1; fill:none" points="193.936,205.365 2352.76,205.365 "></polyline>
<polyline clip-path="url(#clip380)" style="stroke:#000000; stroke-linecap:round; stroke-linejoin:round; stroke-width:4; stroke-opacity:1; fill:none" points="193.936,1486.45 193.936,47.2441 "></polyline>
<polyline clip-path="url(#clip380)" style="stroke:#000000; stroke-linecap:round; stroke-linejoin:round; stroke-width:4; stroke-opacity:1; fill:none" points="193.936,1276.53 212.834,1276.53 "></polyline>
<polyline clip-path="url(#clip380)" style="stroke:#000000; stroke-linecap:round; stroke-linejoin:round; stroke-width:4; stroke-opacity:1; fill:none" points="193.936,1062.3 212.834,1062.3 "></polyline>
<polyline clip-path="url(#clip380)" style="stroke:#000000; stroke-linecap:round; stroke-linejoin:round; stroke-width:4; stroke-opacity:1; fill:none" points="193.936,848.067 212.834,848.067 "></polyline>
<polyline clip-path="url(#clip380)" style="stroke:#000000; stroke-linecap:round; stroke-linejoin:round; stroke-width:4; stroke-opacity:1; fill:none" points="193.936,633.833 212.834,633.833 "></polyline>
<polyline clip-path="url(#clip380)" style="stroke:#000000; stroke-linecap:round; stroke-linejoin:round; stroke-width:4; stroke-opacity:1; fill:none" points="193.936,419.599 212.834,419.599 "></polyline>
<polyline clip-path="url(#clip380)" style="stroke:#000000; stroke-linecap:round; stroke-linejoin:round; stroke-width:4; stroke-opacity:1; fill:none" points="193.936,205.365 212.834,205.365 "></polyline>
<path clip-path="url(#clip380)" d="M51.9875 1276.99 L81.6633 1276.99 L81.6633 1280.92 L51.9875 1280.92 L51.9875 1276.99 Z" fill="#000000" fill-rule="nonzero" fill-opacity="1"></path><path clip-path="url(#clip380)" d="M90.5752 1259.25 L112.797 1259.25 L112.797 1261.25 L100.251 1293.81 L95.3669 1293.81 L107.172 1263.19 L90.5752 1263.19 L90.5752 1259.25 Z" fill="#000000" fill-rule="nonzero" fill-opacity="1"></path><path clip-path="url(#clip380)" d="M121.918 1287.93 L126.802 1287.93 L126.802 1293.81 L121.918 1293.81 L121.918 1287.93 Z" fill="#000000" fill-rule="nonzero" fill-opacity="1"></path><path clip-path="url(#clip380)" d="M137.033 1259.25 L155.39 1259.25 L155.39 1263.19 L141.316 1263.19 L141.316 1271.66 Q142.334 1271.31 143.353 1271.15 Q144.371 1270.97 145.39 1270.97 Q151.177 1270.97 154.556 1274.14 Q157.936 1277.31 157.936 1282.73 Q157.936 1288.31 154.464 1291.41 Q150.992 1294.49 144.672 1294.49 Q142.496 1294.49 140.228 1294.12 Q137.982 1293.75 135.575 1293 L135.575 1288.31 Q137.658 1289.44 139.881 1290 Q142.103 1290.55 144.58 1290.55 Q148.584 1290.55 150.922 1288.44 Q153.26 1286.34 153.26 1282.73 Q153.26 1279.12 150.922 1277.01 Q148.584 1274.9 144.58 1274.9 Q142.705 1274.9 140.83 1275.32 Q138.978 1275.74 137.033 1276.62 L137.033 1259.25 Z" fill="#000000" fill-rule="nonzero" fill-opacity="1"></path><path clip-path="url(#clip380)" d="M50.9921 1062.75 L80.6679 1062.75 L80.6679 1066.69 L50.9921 1066.69 L50.9921 1062.75 Z" fill="#000000" fill-rule="nonzero" fill-opacity="1"></path><path clip-path="url(#clip380)" d="M90.8067 1045.02 L109.163 1045.02 L109.163 1048.96 L95.0891 1048.96 L95.0891 1057.43 Q96.1076 1057.08 97.1261 1056.92 Q98.1447 1056.73 99.1632 1056.73 Q104.95 1056.73 108.33 1059.9 Q111.709 1063.08 111.709 1068.49 Q111.709 1074.07 108.237 1077.17 Q104.765 1080.25 98.4456 1080.25 Q96.2697 1080.25 94.0012 1079.88 Q91.7558 1079.51 89.3484 1078.77 L89.3484 1074.07 Q91.4317 1075.21 93.6539 1075.76 Q95.8761 1076.32 98.353 1076.32 Q102.358 1076.32 104.696 1074.21 Q107.033 1072.1 107.033 1068.49 Q107.033 1064.88 104.696 1062.78 Q102.358 1060.67 98.353 1060.67 Q96.478 1060.67 94.603 1061.09 Q92.7512 1061.5 90.8067 1062.38 L90.8067 1045.02 Z" fill="#000000" fill-rule="nonzero" fill-opacity="1"></path><path clip-path="url(#clip380)" d="M120.922 1073.7 L125.807 1073.7 L125.807 1079.58 L120.922 1079.58 L120.922 1073.7 Z" fill="#000000" fill-rule="nonzero" fill-opacity="1"></path><path clip-path="url(#clip380)" d="M145.992 1048.1 Q142.381 1048.1 140.552 1051.66 Q138.746 1055.21 138.746 1062.34 Q138.746 1069.44 140.552 1073.01 Q142.381 1076.55 145.992 1076.55 Q149.626 1076.55 151.431 1073.01 Q153.26 1069.44 153.26 1062.34 Q153.26 1055.21 151.431 1051.66 Q149.626 1048.1 145.992 1048.1 M145.992 1044.4 Q151.802 1044.4 154.857 1049 Q157.936 1053.59 157.936 1062.34 Q157.936 1071.06 154.857 1075.67 Q151.802 1080.25 145.992 1080.25 Q140.181 1080.25 137.103 1075.67 Q134.047 1071.06 134.047 1062.34 Q134.047 1053.59 137.103 1049 Q140.181 1044.4 145.992 1044.4 Z" fill="#000000" fill-rule="nonzero" fill-opacity="1"></path><path clip-path="url(#clip380)" d="M51.9875 848.518 L81.6633 848.518 L81.6633 852.453 L51.9875 852.453 L51.9875 848.518 Z" fill="#000000" fill-rule="nonzero" fill-opacity="1"></path><path clip-path="url(#clip380)" d="M95.7836 861.412 L112.103 861.412 L112.103 865.347 L90.1586 865.347 L90.1586 861.412 Q92.8206 858.657 97.4039 854.027 Q102.01 849.375 103.191 848.032 Q105.436 845.509 106.316 843.773 Q107.219 842.014 107.219 840.324 Q107.219 837.569 105.274 835.833 Q103.353 834.097 100.251 834.097 Q98.0521 834.097 95.5984 834.861 Q93.1678 835.625 90.3901 837.176 L90.3901 832.453 Q93.2141 831.319 95.6678 830.741 Q98.1215 830.162 100.159 830.162 Q105.529 830.162 108.723 832.847 Q111.918 835.532 111.918 840.023 Q111.918 842.153 111.108 844.074 Q110.321 845.972 108.214 848.565 Q107.635 849.236 104.534 852.453 Q101.432 855.648 95.7836 861.412 Z" fill="#000000" fill-rule="nonzero" fill-opacity="1"></path><path clip-path="url(#clip380)" d="M121.918 859.467 L126.802 859.467 L126.802 865.347 L121.918 865.347 L121.918 859.467 Z" fill="#000000" fill-rule="nonzero" fill-opacity="1"></path><path clip-path="url(#clip380)" d="M137.033 830.787 L155.39 830.787 L155.39 834.722 L141.316 834.722 L141.316 843.194 Q142.334 842.847 143.353 842.685 Q144.371 842.5 145.39 842.5 Q151.177 842.5 154.556 845.671 Q157.936 848.842 157.936 854.259 Q157.936 859.838 154.464 862.939 Q150.992 866.018 144.672 866.018 Q142.496 866.018 140.228 865.648 Q137.982 865.277 135.575 864.537 L135.575 859.838 Q137.658 860.972 139.881 861.527 Q142.103 862.083 144.58 862.083 Q148.584 862.083 150.922 859.976 Q153.26 857.87 153.26 854.259 Q153.26 850.648 150.922 848.541 Q148.584 846.435 144.58 846.435 Q142.705 846.435 140.83 846.852 Q138.978 847.268 137.033 848.148 L137.033 830.787 Z" fill="#000000" fill-rule="nonzero" fill-opacity="1"></path><path clip-path="url(#clip380)" d="M100.76 619.632 Q97.1493 619.632 95.3206 623.196 Q93.515 626.738 93.515 633.868 Q93.515 640.974 95.3206 644.539 Q97.1493 648.081 100.76 648.081 Q104.395 648.081 106.2 644.539 Q108.029 640.974 108.029 633.868 Q108.029 626.738 106.2 623.196 Q104.395 619.632 100.76 619.632 M100.76 615.928 Q106.571 615.928 109.626 620.534 Q112.705 625.118 112.705 633.868 Q112.705 642.595 109.626 647.201 Q106.571 651.784 100.76 651.784 Q94.9502 651.784 91.8715 647.201 Q88.816 642.595 88.816 633.868 Q88.816 625.118 91.8715 620.534 Q94.9502 615.928 100.76 615.928 Z" fill="#000000" fill-rule="nonzero" fill-opacity="1"></path><path clip-path="url(#clip380)" d="M120.922 645.233 L125.807 645.233 L125.807 651.113 L120.922 651.113 L120.922 645.233 Z" fill="#000000" fill-rule="nonzero" fill-opacity="1"></path><path clip-path="url(#clip380)" d="M145.992 619.632 Q142.381 619.632 140.552 623.196 Q138.746 626.738 138.746 633.868 Q138.746 640.974 140.552 644.539 Q142.381 648.081 145.992 648.081 Q149.626 648.081 151.431 644.539 Q153.26 640.974 153.26 633.868 Q153.26 626.738 151.431 623.196 Q149.626 619.632 145.992 619.632 M145.992 615.928 Q151.802 615.928 154.857 620.534 Q157.936 625.118 157.936 633.868 Q157.936 642.595 154.857 647.201 Q151.802 651.784 145.992 651.784 Q140.181 651.784 137.103 647.201 Q134.047 642.595 134.047 633.868 Q134.047 625.118 137.103 620.534 Q140.181 615.928 145.992 615.928 Z" fill="#000000" fill-rule="nonzero" fill-opacity="1"></path><path clip-path="url(#clip380)" d="M95.7836 432.944 L112.103 432.944 L112.103 436.879 L90.1586 436.879 L90.1586 432.944 Q92.8206 430.189 97.4039 425.56 Q102.01 420.907 103.191 419.564 Q105.436 417.041 106.316 415.305 Q107.219 413.546 107.219 411.856 Q107.219 409.102 105.274 407.365 Q103.353 405.629 100.251 405.629 Q98.0521 405.629 95.5984 406.393 Q93.1678 407.157 90.3901 408.708 L90.3901 403.986 Q93.2141 402.852 95.6678 402.273 Q98.1215 401.694 100.159 401.694 Q105.529 401.694 108.723 404.379 Q111.918 407.065 111.918 411.555 Q111.918 413.685 111.108 415.606 Q110.321 417.504 108.214 420.097 Q107.635 420.768 104.534 423.986 Q101.432 427.18 95.7836 432.944 Z" fill="#000000" fill-rule="nonzero" fill-opacity="1"></path><path clip-path="url(#clip380)" d="M121.918 431 L126.802 431 L126.802 436.879 L121.918 436.879 L121.918 431 Z" fill="#000000" fill-rule="nonzero" fill-opacity="1"></path><path clip-path="url(#clip380)" d="M137.033 402.319 L155.39 402.319 L155.39 406.254 L141.316 406.254 L141.316 414.726 Q142.334 414.379 143.353 414.217 Q144.371 414.032 145.39 414.032 Q151.177 414.032 154.556 417.203 Q157.936 420.375 157.936 425.791 Q157.936 431.37 154.464 434.472 Q150.992 437.55 144.672 437.55 Q142.496 437.55 140.228 437.18 Q137.982 436.81 135.575 436.069 L135.575 431.37 Q137.658 432.504 139.881 433.06 Q142.103 433.615 144.58 433.615 Q148.584 433.615 150.922 431.509 Q153.26 429.402 153.26 425.791 Q153.26 422.18 150.922 420.074 Q148.584 417.967 144.58 417.967 Q142.705 417.967 140.83 418.384 Q138.978 418.801 137.033 419.68 L137.033 402.319 Z" fill="#000000" fill-rule="nonzero" fill-opacity="1"></path><path clip-path="url(#clip380)" d="M90.8067 188.085 L109.163 188.085 L109.163 192.02 L95.0891 192.02 L95.0891 200.493 Q96.1076 200.145 97.1261 199.983 Q98.1447 199.798 99.1632 199.798 Q104.95 199.798 108.33 202.97 Q111.709 206.141 111.709 211.557 Q111.709 217.136 108.237 220.238 Q104.765 223.317 98.4456 223.317 Q96.2697 223.317 94.0012 222.946 Q91.7558 222.576 89.3484 221.835 L89.3484 217.136 Q91.4317 218.27 93.6539 218.826 Q95.8761 219.381 98.353 219.381 Q102.358 219.381 104.696 217.275 Q107.033 215.169 107.033 211.557 Q107.033 207.946 104.696 205.84 Q102.358 203.733 98.353 203.733 Q96.478 203.733 94.603 204.15 Q92.7512 204.567 90.8067 205.446 L90.8067 188.085 Z" fill="#000000" fill-rule="nonzero" fill-opacity="1"></path><path clip-path="url(#clip380)" d="M120.922 216.766 L125.807 216.766 L125.807 222.645 L120.922 222.645 L120.922 216.766 Z" fill="#000000" fill-rule="nonzero" fill-opacity="1"></path><path clip-path="url(#clip380)" d="M145.992 191.164 Q142.381 191.164 140.552 194.729 Q138.746 198.27 138.746 205.4 Q138.746 212.506 140.552 216.071 Q142.381 219.613 145.992 219.613 Q149.626 219.613 151.431 216.071 Q153.26 212.506 153.26 205.4 Q153.26 198.27 151.431 194.729 Q149.626 191.164 145.992 191.164 M145.992 187.46 Q151.802 187.46 154.857 192.067 Q157.936 196.65 157.936 205.4 Q157.936 214.127 154.857 218.733 Q151.802 223.317 145.992 223.317 Q140.181 223.317 137.103 218.733 Q134.047 214.127 134.047 205.4 Q134.047 196.65 137.103 192.067 Q140.181 187.46 145.992 187.46 Z" fill="#000000" fill-rule="nonzero" fill-opacity="1"></path><polyline clip-path="url(#clip382)" style="stroke:#009af9; stroke-linecap:round; stroke-linejoin:round; stroke-width:4; stroke-opacity:1; fill:none" points="255.035,685.772 266.739,683.087 278.444,681.582 290.149,680.465 301.854,679.508 313.558,678.55 325.263,677.349 336.968,675.991 348.672,674.956 360.377,674.67 372.082,675.1 383.787,675.989 395.491,677.53 407.196,678.96 418.901,679.189 430.606,678.003 442.31,673.492 454.015,664.3 465.72,649.236 477.424,626.991 489.129,597.132 500.834,559.83 512.539,516.392 524.243,468.439 535.948,418.318 547.653,368.765 559.358,321.047 571.062,276.203 582.767,234.156 594.472,195.016 606.176,158.907 617.881,127.22 629.586,102.213 641.291,87.9763 652.995,88.3702 664.7,107.871 676.405,147.946 688.11,208.316 699.814,285.752 711.519,375.755 723.224,471.204 734.928,566.099 746.633,655.69 758.338,735.738 770.043,805.901 781.747,866.064 793.452,918.809 805.157,965.975 816.862,1010.11 828.566,1052.71 840.271,1094.58 851.976,1134.54 863.68,1171.3 875.385,1202.69 887.09,1226.14 898.795,1239.06 910.499,1239.93 922.204,1227.57 933.909,1202.35 945.614,1165.01 957.318,1117.81 969.023,1063.45 980.728,1004.5 992.432,944.407 1004.14,885.276 1015.84,829.829 1027.55,779.031 1039.25,733.336 1050.96,693.253 1062.66,657.963 1074.37,626.781 1086.07,598.894 1097.78,573.759 1109.48,550.809 1121.18,530.298 1132.89,511.64 1144.59,495.329 1156.3,481.569 1168,470.626 1179.71,462.106 1191.41,457.038 1203.12,455.02 1214.82,456.201 1226.53,460.871 1238.23,468.821 1249.94,478.826 1261.64,490.786 1273.35,502.71 1285.05,514.26 1296.76,523.772 1308.46,530.39 1320.16,533.442 1331.87,533.063 1343.57,528.79 1355.28,521.231 1366.98,510.748 1378.69,497.674 1390.39,483.056 1402.1,466.607 1413.8,449.279 1425.51,431.088 1437.21,412.209 1448.92,393.38 1460.62,374.35 1472.33,355.788 1484.03,338.799 1495.74,324.112 1507.44,312.36 1519.15,305.439 1530.85,302.997 1542.55,305.868 1554.26,313.428 1565.96,324.557 1577.67,338.291 1589.37,352.863 1601.08,367.946 1612.78,382.309 1624.49,397.019 1636.19,412.555 1647.9,430.5 1659.6,451.408 1671.31,475.956 1683.01,503.566 1694.72,533.948 1706.42,565.503 1718.13,596.769 1729.83,626.497 1741.54,653.898 1753.24,678.714 1764.94,700.9 1776.65,720.381 1788.35,737.954 1800.06,753.453 1811.76,766.788 1823.47,778.06 1835.17,787.134 1846.88,794.566 1858.58,800.839 1870.29,805.849 1881.99,810.539 1893.7,815.032 1905.4,819.359 1917.11,822.995 1928.81,825.649 1940.52,826.883 1952.22,826.272 1963.92,824.054 1975.63,820.459 1987.33,816.943 1999.04,813.865 2010.74,812.338 2022.45,810.629 2034.15,809.151 2045.86,807.045 2057.56,804.174 2069.27,800.525 2080.97,795.963 2092.68,790.396 2104.38,784.463 2116.09,777.861 2127.79,771.184 2139.5,765.297 2151.2,758.318 2162.91,751.382 2174.61,744.573 2186.31,738.726 2198.02,733.815 2209.72,730.097 2221.43,727.482 2233.13,725.288 2244.84,723.872 2256.54,722.832 2268.25,721.767 2279.95,721.213 2291.66,721.234 "></polyline>
<polyline clip-path="url(#clip382)" style="stroke:#e26f46; stroke-linecap:round; stroke-linejoin:round; stroke-width:4; stroke-opacity:1; fill:none" points="255.035,577.598 266.739,586.022 278.444,591.412 290.149,594.012 301.854,594.01 313.558,592.04 325.263,589.218 336.968,585.961 348.672,583.071 360.377,580.686 372.082,578.645 383.787,576.66 395.491,575.366 407.196,575.2 418.901,577 430.606,582.39 442.31,592.181 454.015,606.935 465.72,626.128 477.424,648.549 489.129,672.636 500.834,696.448 512.539,718.856 524.243,738.835 535.948,756.946 547.653,773.371 559.358,787.928 571.062,800.182 582.767,807.577 594.472,808.044 606.176,798.304 617.881,776.681 629.586,742.482 641.291,697.859 652.995,646.482 664.7,593.159 676.405,542.811 688.11,499.714 699.814,466.445 711.519,444.052 723.224,432.196 734.928,430.612 746.633,438.782 758.338,457.237 770.043,487.51 781.747,531.307 793.452,590.274 805.157,664.8 816.862,753.823 828.566,854.19 840.271,961.723 851.976,1070.69 863.68,1174.48 875.385,1267.4 887.09,1344.29 898.795,1400.99 910.499,1435.04 922.204,1445.72 933.909,1433.52 945.614,1400.78 957.318,1350.54 969.023,1287.19 980.728,1216.21 992.432,1141.96 1004.14,1069.62 1015.84,1003.08 1027.55,945.063 1039.25,897.157 1050.96,860.042 1062.66,832.659 1074.37,813.627 1086.07,800.958 1097.78,792.68 1109.48,786.57 1121.18,781.312 1132.89,775.204 1144.59,767.342 1156.3,756.965 1168,743.452 1179.71,726.658 1191.41,706.681 1203.12,684.258 1214.82,660.234 1226.53,635.945 1238.23,612.735 1249.94,591.843 1261.64,574.523 1273.35,560.88 1285.05,551.25 1296.76,545.603 1308.46,542.651 1320.16,541.837 1331.87,542.296 1343.57,543.43 1355.28,544.584 1366.98,545.233 1378.69,545.274 1390.39,543.784 1402.1,540.573 1413.8,534.727 1425.51,525.539 1437.21,512.832 1448.92,495.774 1460.62,474.285 1472.33,449.082 1484.03,420.588 1495.74,390.507 1507.44,360.479 1519.15,332.245 1530.85,308.174 1542.55,289.687 1554.26,277.773 1565.96,273.132 1577.67,275.33 1589.37,283.044 1601.08,294.981 1612.78,309.741 1624.49,326.337 1636.19,343.595 1647.9,361.261 1659.6,379.196 1671.31,397.44 1683.01,416.234 1694.72,434.928 1706.42,453.412 1718.13,470.958 1729.83,486.773 1741.54,500.197 1753.24,511.311 1764.94,519.787 1776.65,526.049 1788.35,531.272 1800.06,535.072 1811.76,538.526 1823.47,541.437 1835.17,544.103 1846.88,546.899 1858.58,549.637 1870.29,551.933 1881.99,555.017 1893.7,557.918 1905.4,560.922 1917.11,564.325 1928.81,568.064 1940.52,571.799 1952.22,575.258 1963.92,577.746 1975.63,578.518 1987.33,580.244 1999.04,580.93 2010.74,580.654 2022.45,579.705 2034.15,577.678 2045.86,574.435 2057.56,569.759 2069.27,564.498 2080.97,558.786 2092.68,552.245 2104.38,546.926 2116.09,541.811 2127.79,538.054 2139.5,536.031 2151.2,534.2 2162.91,533.382 2174.61,533.637 2186.31,534.793 2198.02,536.959 2209.72,540.284 2221.43,544.159 2233.13,549.094 2244.84,554.441 2256.54,560.066 2268.25,565.863 2279.95,571.6 2291.66,577.532 "></polyline>
<polyline clip-path="url(#clip382)" style="stroke:#3da44d; stroke-linecap:round; stroke-linejoin:round; stroke-width:4; stroke-opacity:1; fill:none" points="255.035,439.155 266.739,440.943 278.444,440.359 290.149,437.466 301.854,432.989 313.558,427.746 325.263,422.185 336.968,416.716 348.672,411.344 360.377,406.047 372.082,400.799 383.787,395.999 395.491,392.157 407.196,390.531 418.901,392.308 430.606,398.994 442.31,411.713 454.015,431.244 465.72,457.801 477.424,491.053 489.129,530.127 500.834,573.87 512.539,620.887 524.243,669.946 535.948,719.292 547.653,767.685 559.358,813.397 571.062,854.269 582.767,888.379 594.472,913.022 606.176,925.94 617.881,925.123 629.586,908.998 641.291,877.054 652.995,830.036 664.7,769.994 676.405,699.953 688.11,623.389 699.814,544.565 711.519,467.935 723.224,397.23 734.928,336.027 746.633,287.692 758.338,254.081 770.043,237.105 781.747,237.063 793.452,253.751 805.157,285.518 816.862,330.062 828.566,384.282 840.271,444.62 851.976,506.99 863.68,568.446 875.385,625.997 887.09,677.343 898.795,721.035 910.499,756.512 922.204,783.471 933.909,802.616 945.614,814.736 957.318,821.227 969.023,823.821 980.728,823.575 992.432,822.587 1004.14,821.942 1015.84,822.98 1027.55,826.244 1039.25,832.175 1050.96,840.843 1062.66,852.048 1074.37,865.301 1086.07,880.283 1097.78,896.142 1109.48,912.335 1121.18,927.996 1132.89,942.31 1144.59,954.063 1156.3,962.584 1168,967.072 1179.71,966.706 1191.41,961.674 1203.12,951.929 1214.82,938.248 1226.53,921.936 1238.23,904.229 1249.94,886.035 1261.64,868.955 1273.35,853.484 1285.05,840.351 1296.76,829.369 1308.46,820.857 1320.16,814.457 1331.87,810.201 1343.57,807.901 1355.28,807.421 1366.98,808.598 1378.69,810.645 1390.39,813.603 1402.1,816.13 1413.8,817.908 1425.51,818.225 1437.21,816.348 1448.92,812.653 1460.62,806.901 1472.33,799.36 1484.03,790.664 1495.74,780.741 1507.44,769.963 1519.15,758.873 1530.85,747.261 1542.55,735.847 1554.26,725.188 1565.96,715.702 1577.67,708.175 1589.37,702.899 1601.08,700.205 1612.78,699.481 1624.49,700.107 1636.19,701.406 1647.9,702.415 1659.6,702.071 1671.31,699.9 1683.01,695.371 1694.72,689.158 1706.42,681.27 1718.13,672.281 1729.83,662.709 1741.54,653.126 1753.24,643.727 1764.94,634.603 1776.65,625.612 1788.35,616.501 1800.06,607.539 1811.76,598.2 1823.47,588.738 1835.17,579.208 1846.88,569.618 1858.58,560.135 1870.29,551.086 1881.99,542.661 1893.7,534.698 1905.4,527.494 1917.11,520.985 1928.81,514.795 1940.52,509.31 1952.22,504.005 1963.92,498.869 1975.63,493.983 1987.33,488.54 1999.04,482.977 2010.74,476.573 2022.45,469.648 2034.15,462.226 2045.86,454.291 2057.56,446.338 2069.27,438.377 2080.97,430.831 2092.68,424.253 2104.38,418.618 2116.09,414.544 2127.79,411.633 2139.5,410.341 2151.2,409.066 2162.91,407.926 2174.61,406.629 2186.31,405.335 2198.02,404.077 2209.72,403.226 2221.43,403.374 2233.13,404.401 2244.84,406.669 2256.54,409.853 2268.25,413.098 2279.95,416.542 2291.66,419.167 "></polyline>
<polyline clip-path="url(#clip382)" style="stroke:#c271d2; stroke-linecap:round; stroke-linejoin:round; stroke-width:4; stroke-opacity:1; fill:none" points="255.035,630.689 266.739,630.387 278.444,630.106 290.149,629.695 301.854,628.582 313.558,626.476 325.263,623.526 336.968,619.785 348.672,615.939 360.377,612.333 372.082,609.675 383.787,608.258 395.491,608.414 407.196,610.156 418.901,613.516 430.606,618.234 442.31,624.352 454.015,631.753 465.72,640.384 477.424,650.024 489.129,660.709 500.834,671.924 512.539,683.3 524.243,694.179 535.948,703.992 547.653,712.139 559.358,718.4 571.062,722.737 582.767,725.106 594.472,725.887 606.176,725.098 617.881,722.754 629.586,718.702 641.291,712.451 652.995,703.816 664.7,692.569 676.405,678.739 688.11,663.259 699.814,646.994 711.519,631.1 723.224,617.069 734.928,605.943 746.633,598.384 758.338,594.879 770.043,595.351 781.747,599.805 793.452,607.958 805.157,619.617 816.862,634.467 828.566,652.039 840.271,671.776 851.976,692.985 863.68,714.446 875.385,734.976 887.09,753.536 898.795,769.092 910.499,781.209 922.204,789.644 933.909,794.392 945.614,796.051 957.318,795.063 969.023,791.91 980.728,787.506 992.432,782.303 1004.14,776.838 1015.84,771.646 1027.55,767.098 1039.25,763.519 1050.96,761.178 1062.66,759.958 1074.37,759.935 1086.07,760.543 1097.78,761.55 1109.48,762.504 1121.18,762.761 1132.89,761.983 1144.59,759.958 1156.3,756.573 1168,751.916 1179.71,746.316 1191.41,739.826 1203.12,733.028 1214.82,725.9 1226.53,718.541 1238.23,710.88 1249.94,702.788 1261.64,693.983 1273.35,684.282 1285.05,673.604 1296.76,662.236 1308.46,650.164 1320.16,637.932 1331.87,625.78 1343.57,614.133 1355.28,603.363 1366.98,593.485 1378.69,584.623 1390.39,576.568 1402.1,569.588 1413.8,563.279 1425.51,557.934 1437.21,553.562 1448.92,550.157 1460.62,547.932 1472.33,546.821 1484.03,546.704 1495.74,547.397 1507.44,548.652 1519.15,549.985 1530.85,551.186 1542.55,552.007 1554.26,552.358 1565.96,552.308 1577.67,552.112 1589.37,551.985 1601.08,552.099 1612.78,552.827 1624.49,554.271 1636.19,556.463 1647.9,559.036 1659.6,561.879 1671.31,564.505 1683.01,566.749 1694.72,568.137 1706.42,568.732 1718.13,568.651 1729.83,568.206 1741.54,567.826 1753.24,568.156 1764.94,569.492 1776.65,572.004 1788.35,575.752 1800.06,579.823 1811.76,583.902 1823.47,586.983 1835.17,588.491 1846.88,588.068 1858.58,586.005 1870.29,582.606 1881.99,578.597 1893.7,574.723 1905.4,571.894 1917.11,570.495 1928.81,570.695 1940.52,571.67 1952.22,573.201 1963.92,574.293 1975.63,575.019 1987.33,574.765 1999.04,573.35 2010.74,571.415 2022.45,569.366 2034.15,567.925 2045.86,567.726 2057.56,568.826 2069.27,571.253 2080.97,574.451 2092.68,577.588 2104.38,579.897 2116.09,580.657 2127.79,579.796 2139.5,577.735 2151.2,574.375 2162.91,570.683 2174.61,567.432 2186.31,564.982 2198.02,563.624 2209.72,563.39 2221.43,563.833 2233.13,564.726 2244.84,565.678 2256.54,566.527 2268.25,567.138 2279.95,567.79 2291.66,568.693 "></polyline>
<polyline clip-path="url(#clip382)" style="stroke:#ac8d18; stroke-linecap:round; stroke-linejoin:round; stroke-width:4; stroke-opacity:1; fill:none" points="255.035,512.65 266.739,515.351 278.444,517.028 290.149,517.791 301.854,517.575 313.558,516.584 325.263,515.157 336.968,513.36 348.672,511.417 360.377,509.286 372.082,507.125 383.787,504.691 395.491,502.284 407.196,500.16 418.901,498.997 430.606,499.934 442.31,504.279 454.015,513.195 465.72,527.486 477.424,547.479 489.129,572.809 500.834,602.158 512.539,633.979 524.243,666.229 535.948,697.306 547.653,725.698 559.358,750.296 571.062,770.427 582.767,785.462 594.472,794.714 606.176,797.192 617.881,791.967 629.586,777.855 641.291,754.235 652.995,721.146 664.7,679.515 676.405,631.281 688.11,579.297 699.814,527.063 711.519,477.946 723.224,434.881 734.928,400.052 746.633,374.33 758.338,358.127 770.043,350.79 781.747,351.334 793.452,358.972 805.157,372.553 816.862,391.347 828.566,414.456 840.271,441.073 851.976,470.065 863.68,499.963 875.385,529.571 887.09,557.768 898.795,583.52 910.499,606.633 922.204,627.189 933.909,645.606 945.614,662.565 957.318,678.64 969.023,694.14 980.728,709.266 992.432,723.715 1004.14,737.286 1015.84,749.809 1027.55,761.088 1039.25,771.287 1050.96,780.746 1062.66,789.847 1074.37,798.893 1086.07,808.133 1097.78,817.549 1109.48,826.813 1121.18,835.559 1132.89,843.17 1144.59,849.309 1156.3,853.467 1168,855.66 1179.71,855.683 1191.41,853.806 1203.12,850.424 1214.82,845.861 1226.53,840.415 1238.23,834.595 1249.94,828.633 1261.64,822.94 1273.35,817.685 1285.05,812.981 1296.76,809.144 1308.46,806.346 1320.16,804.631 1331.87,804.332 1343.57,805.541 1355.28,808.342 1366.98,812.518 1378.69,817.891 1390.39,823.614 1402.1,829.137 1413.8,833.48 1425.51,835.766 1437.21,835.48 1448.92,832.343 1460.62,826.361 1472.33,818.041 1484.03,807.972 1495.74,797.105 1507.44,786.178 1519.15,775.778 1530.85,766.314 1542.55,758.063 1554.26,750.795 1565.96,744.559 1577.67,739.046 1589.37,734.024 1601.08,729.217 1612.78,724.359 1624.49,719.276 1636.19,713.7 1647.9,707.349 1659.6,700.149 1671.31,692.096 1683.01,683.192 1694.72,673.757 1706.42,663.983 1718.13,654.049 1729.83,644.229 1741.54,634.515 1753.24,624.805 1764.94,614.936 1776.65,604.766 1788.35,594.353 1800.06,583.897 1811.76,573.799 1823.47,564.468 1835.17,556.494 1846.88,550.707 1858.58,546.324 1870.29,543.511 1881.99,542.24 1893.7,541.404 1905.4,540.558 1917.11,539.52 1928.81,538.004 1940.52,536.324 1952.22,534.546 1963.92,532.906 1975.63,531.345 1987.33,530.283 1999.04,528.877 2010.74,526.769 2022.45,523.359 2034.15,518.519 2045.86,512.282 2057.56,504.886 2069.27,497.021 2080.97,489.395 2092.68,482.946 2104.38,477.858 2116.09,474.385 2127.79,472.686 2139.5,472.486 2151.2,473.34 2162.91,474.925 2174.61,477.012 2186.31,479.6 2198.02,482.337 2209.72,485.318 2221.43,488.462 2233.13,491.684 2244.84,494.739 2256.54,497.406 2268.25,499.331 2279.95,500.342 2291.66,500.352 "></polyline>
<polyline clip-path="url(#clip382)" style="stroke:#00a9ad; stroke-linecap:round; stroke-linejoin:round; stroke-width:4; stroke-opacity:1; fill:none" points="255.035,642.665 266.739,641.332 278.444,639.6 290.149,637.434 301.854,635.034 313.558,632.669 325.263,630.812 336.968,629.645 348.672,629.508 360.377,630.292 372.082,631.727 383.787,633.252 395.491,634.45 407.196,634.833 418.901,634.048 430.606,632.02 442.31,628.749 454.015,624.196 465.72,618.67 477.424,612.31 489.129,605.146 500.834,597.483 512.539,589.396 524.243,581.084 535.948,572.858 547.653,564.951 559.358,557.597 571.062,550.915 582.767,544.981 594.472,540.032 606.176,535.903 617.881,532.742 629.586,530.524 641.291,529.413 652.995,529.417 664.7,530.764 676.405,533.381 688.11,537.17 699.814,541.866 711.519,547.232 723.224,552.657 734.928,557.818 746.633,562.313 758.338,565.744 770.043,567.957 781.747,568.878 793.452,568.488 805.157,566.868 816.862,564.028 828.566,560.145 840.271,555.309 851.976,549.687 863.68,543.576 875.385,537.545 887.09,531.991 898.795,527.65 910.499,525.062 922.204,524.633 933.909,526.565 945.614,530.992 957.318,537.32 969.023,545.223 980.728,553.79 992.432,562.525 1004.14,570.694 1015.84,577.991 1027.55,584.049 1039.25,588.907 1050.96,592.587 1062.66,595.188 1074.37,596.817 1086.07,597.562 1097.78,597.606 1109.48,596.951 1121.18,595.847 1132.89,594.36 1144.59,592.839 1156.3,591.379 1168,590.186 1179.71,589.453 1191.41,589.201 1203.12,589.474 1214.82,590.254 1226.53,591.719 1238.23,593.927 1249.94,596.897 1261.64,600.803 1273.35,605.611 1285.05,611.415 1296.76,618.062 1308.46,625.394 1320.16,633.105 1331.87,641.091 1343.57,648.942 1355.28,656.531 1366.98,663.731 1378.69,670.491 1390.39,676.868 1402.1,682.739 1413.8,688.146 1425.51,692.946 1437.21,697.055 1448.92,700.116 1460.62,702.095 1472.33,702.859 1484.03,702.623 1495.74,701.532 1507.44,700.089 1519.15,698.704 1530.85,697.727 1542.55,697.569 1554.26,698.158 1565.96,699.621 1577.67,701.577 1589.37,703.665 1601.08,705.608 1612.78,707.055 1624.49,707.776 1636.19,707.71 1647.9,706.958 1659.6,705.733 1671.31,704.345 1683.01,703.032 1694.72,702.124 1706.42,701.686 1718.13,701.684 1729.83,701.935 1741.54,702.158 1753.24,702.022 1764.94,701.383 1776.65,700 1788.35,698.175 1800.06,696.001 1811.76,693.946 1823.47,692.171 1835.17,690.936 1846.88,690.366 1858.58,690.184 1870.29,690.191 1881.99,690.165 1893.7,690.067 1905.4,689.726 1917.11,689.261 1928.81,688.857 1940.52,688.756 1952.22,689.051 1963.92,689.771 1975.63,690.803 1987.33,691.982 1999.04,693.096 2010.74,693.929 2022.45,694.184 2034.15,693.789 2045.86,692.799 2057.56,691.386 2069.27,689.867 2080.97,688.496 2092.68,687.376 2104.38,686.814 2116.09,686.635 2127.79,686.702 2139.5,686.663 2151.2,686.603 2162.91,686.122 2174.61,685.264 2186.31,684.167 2198.02,682.904 2209.72,681.772 2221.43,680.871 2233.13,680.073 2244.84,679.379 2256.54,678.483 2268.25,677.293 2279.95,675.445 2291.66,673.024 "></polyline>
<path clip-path="url(#clip380)" d="M2010.77 1438.47 L2280.8 1438.47 L2280.8 1075.59 L2010.77 1075.59  Z" fill="#ffffff" fill-rule="evenodd" fill-opacity="1"></path>
<polyline clip-path="url(#clip380)" style="stroke:#000000; stroke-linecap:round; stroke-linejoin:round; stroke-width:4; stroke-opacity:1; fill:none" points="2010.77,1438.47 2280.8,1438.47 2280.8,1075.59 2010.77,1075.59 2010.77,1438.47 "></polyline>
<polyline clip-path="url(#clip380)" style="stroke:#009af9; stroke-linecap:round; stroke-linejoin:round; stroke-width:4; stroke-opacity:1; fill:none" points="2034.76,1127.43 2178.68,1127.43 "></polyline>
<path clip-path="url(#clip380)" d="M2216.51 1147.12 Q2214.7 1151.75 2212.99 1153.16 Q2211.28 1154.58 2208.41 1154.58 L2205 1154.58 L2205 1151.01 L2207.5 1151.01 Q2209.26 1151.01 2210.23 1150.18 Q2211.21 1149.34 2212.39 1146.24 L2213.15 1144.3 L2202.67 1118.79 L2207.18 1118.79 L2215.28 1139.07 L2223.38 1118.79 L2227.9 1118.79 L2216.51 1147.12 Z" fill="#000000" fill-rule="nonzero" fill-opacity="1"></path><path clip-path="url(#clip380)" d="M2235.19 1140.78 L2242.83 1140.78 L2242.83 1114.41 L2234.52 1116.08 L2234.52 1111.82 L2242.78 1110.15 L2247.46 1110.15 L2247.46 1140.78 L2255.1 1140.78 L2255.1 1144.71 L2235.19 1144.71 L2235.19 1140.78 Z" fill="#000000" fill-rule="nonzero" fill-opacity="1"></path><polyline clip-path="url(#clip380)" style="stroke:#e26f46; stroke-linecap:round; stroke-linejoin:round; stroke-width:4; stroke-opacity:1; fill:none" points="2034.76,1179.27 2178.68,1179.27 "></polyline>
<path clip-path="url(#clip380)" d="M2216.51 1198.96 Q2214.7 1203.59 2212.99 1205 Q2211.28 1206.42 2208.41 1206.42 L2205 1206.42 L2205 1202.85 L2207.5 1202.85 Q2209.26 1202.85 2210.23 1202.02 Q2211.21 1201.18 2212.39 1198.08 L2213.15 1196.14 L2202.67 1170.63 L2207.18 1170.63 L2215.28 1190.91 L2223.38 1170.63 L2227.9 1170.63 L2216.51 1198.96 Z" fill="#000000" fill-rule="nonzero" fill-opacity="1"></path><path clip-path="url(#clip380)" d="M2238.41 1192.62 L2254.73 1192.62 L2254.73 1196.55 L2232.78 1196.55 L2232.78 1192.62 Q2235.44 1189.86 2240.03 1185.24 Q2244.63 1180.58 2245.81 1179.24 Q2248.06 1176.72 2248.94 1174.98 Q2249.84 1173.22 2249.84 1171.53 Q2249.84 1168.78 2247.9 1167.04 Q2245.98 1165.3 2242.87 1165.3 Q2240.67 1165.3 2238.22 1166.07 Q2235.79 1166.83 2233.01 1168.38 L2233.01 1163.66 Q2235.84 1162.53 2238.29 1161.95 Q2240.74 1161.37 2242.78 1161.37 Q2248.15 1161.37 2251.35 1164.05 Q2254.54 1166.74 2254.54 1171.23 Q2254.54 1173.36 2253.73 1175.28 Q2252.94 1177.18 2250.84 1179.77 Q2250.26 1180.44 2247.16 1183.66 Q2244.05 1186.86 2238.41 1192.62 Z" fill="#000000" fill-rule="nonzero" fill-opacity="1"></path><polyline clip-path="url(#clip380)" style="stroke:#3da44d; stroke-linecap:round; stroke-linejoin:round; stroke-width:4; stroke-opacity:1; fill:none" points="2034.76,1231.11 2178.68,1231.11 "></polyline>
<path clip-path="url(#clip380)" d="M2216.51 1250.8 Q2214.7 1255.43 2212.99 1256.84 Q2211.28 1258.26 2208.41 1258.26 L2205 1258.26 L2205 1254.69 L2207.5 1254.69 Q2209.26 1254.69 2210.23 1253.86 Q2211.21 1253.02 2212.39 1249.92 L2213.15 1247.98 L2202.67 1222.47 L2207.18 1222.47 L2215.28 1242.75 L2223.38 1222.47 L2227.9 1222.47 L2216.51 1250.8 Z" fill="#000000" fill-rule="nonzero" fill-opacity="1"></path><path clip-path="url(#clip380)" d="M2248.54 1229.76 Q2251.9 1230.48 2253.78 1232.75 Q2255.67 1235.01 2255.67 1238.35 Q2255.67 1243.46 2252.16 1246.26 Q2248.64 1249.07 2242.16 1249.07 Q2239.98 1249.07 2237.66 1248.63 Q2235.37 1248.21 2232.92 1247.35 L2232.92 1242.84 Q2234.86 1243.97 2237.18 1244.55 Q2239.49 1245.13 2242.02 1245.13 Q2246.41 1245.13 2248.71 1243.39 Q2251.02 1241.66 2251.02 1238.35 Q2251.02 1235.29 2248.87 1233.58 Q2246.74 1231.84 2242.92 1231.84 L2238.89 1231.84 L2238.89 1228 L2243.1 1228 Q2246.55 1228 2248.38 1226.64 Q2250.21 1225.25 2250.21 1222.65 Q2250.21 1219.99 2248.31 1218.58 Q2246.44 1217.14 2242.92 1217.14 Q2241 1217.14 2238.8 1217.56 Q2236.6 1217.98 2233.96 1218.86 L2233.96 1214.69 Q2236.62 1213.95 2238.94 1213.58 Q2241.28 1213.21 2243.34 1213.21 Q2248.66 1213.21 2251.76 1215.64 Q2254.86 1218.05 2254.86 1222.17 Q2254.86 1225.04 2253.22 1227.03 Q2251.58 1229 2248.54 1229.76 Z" fill="#000000" fill-rule="nonzero" fill-opacity="1"></path><polyline clip-path="url(#clip380)" style="stroke:#c271d2; stroke-linecap:round; stroke-linejoin:round; stroke-width:4; stroke-opacity:1; fill:none" points="2034.76,1282.95 2178.68,1282.95 "></polyline>
<path clip-path="url(#clip380)" d="M2216.51 1302.64 Q2214.7 1307.27 2212.99 1308.68 Q2211.28 1310.1 2208.41 1310.1 L2205 1310.1 L2205 1306.53 L2207.5 1306.53 Q2209.26 1306.53 2210.23 1305.7 Q2211.21 1304.86 2212.39 1301.76 L2213.15 1299.82 L2202.67 1274.31 L2207.18 1274.31 L2215.28 1294.59 L2223.38 1274.31 L2227.9 1274.31 L2216.51 1302.64 Z" fill="#000000" fill-rule="nonzero" fill-opacity="1"></path><path clip-path="url(#clip380)" d="M2247.23 1269.75 L2235.42 1288.2 L2247.23 1288.2 L2247.23 1269.75 M2246 1265.67 L2251.88 1265.67 L2251.88 1288.2 L2256.81 1288.2 L2256.81 1292.09 L2251.88 1292.09 L2251.88 1300.23 L2247.23 1300.23 L2247.23 1292.09 L2231.62 1292.09 L2231.62 1287.57 L2246 1265.67 Z" fill="#000000" fill-rule="nonzero" fill-opacity="1"></path><polyline clip-path="url(#clip380)" style="stroke:#ac8d18; stroke-linecap:round; stroke-linejoin:round; stroke-width:4; stroke-opacity:1; fill:none" points="2034.76,1334.79 2178.68,1334.79 "></polyline>
<path clip-path="url(#clip380)" d="M2216.51 1354.48 Q2214.7 1359.11 2212.99 1360.52 Q2211.28 1361.94 2208.41 1361.94 L2205 1361.94 L2205 1358.37 L2207.5 1358.37 Q2209.26 1358.37 2210.23 1357.54 Q2211.21 1356.7 2212.39 1353.6 L2213.15 1351.66 L2202.67 1326.15 L2207.18 1326.15 L2215.28 1346.43 L2223.38 1326.15 L2227.9 1326.15 L2216.51 1354.48 Z" fill="#000000" fill-rule="nonzero" fill-opacity="1"></path><path clip-path="url(#clip380)" d="M2234.42 1317.51 L2252.78 1317.51 L2252.78 1321.45 L2238.71 1321.45 L2238.71 1329.92 Q2239.73 1329.57 2240.74 1329.41 Q2241.76 1329.23 2242.78 1329.23 Q2248.57 1329.23 2251.95 1332.4 Q2255.33 1335.57 2255.33 1340.99 Q2255.33 1346.57 2251.85 1349.67 Q2248.38 1352.75 2242.06 1352.75 Q2239.89 1352.75 2237.62 1352.38 Q2235.37 1352 2232.97 1351.26 L2232.97 1346.57 Q2235.05 1347.7 2237.27 1348.25 Q2239.49 1348.81 2241.97 1348.81 Q2245.98 1348.81 2248.31 1346.7 Q2250.65 1344.6 2250.65 1340.99 Q2250.65 1337.38 2248.31 1335.27 Q2245.98 1333.16 2241.97 1333.16 Q2240.1 1333.16 2238.22 1333.58 Q2236.37 1334 2234.42 1334.88 L2234.42 1317.51 Z" fill="#000000" fill-rule="nonzero" fill-opacity="1"></path><polyline clip-path="url(#clip380)" style="stroke:#00a9ad; stroke-linecap:round; stroke-linejoin:round; stroke-width:4; stroke-opacity:1; fill:none" points="2034.76,1386.63 2178.68,1386.63 "></polyline>
<path clip-path="url(#clip380)" d="M2216.51 1406.32 Q2214.7 1410.95 2212.99 1412.36 Q2211.28 1413.78 2208.41 1413.78 L2205 1413.78 L2205 1410.21 L2207.5 1410.21 Q2209.26 1410.21 2210.23 1409.38 Q2211.21 1408.54 2212.39 1405.44 L2213.15 1403.5 L2202.67 1377.99 L2207.18 1377.99 L2215.28 1398.27 L2223.38 1377.99 L2227.9 1377.99 L2216.51 1406.32 Z" fill="#000000" fill-rule="nonzero" fill-opacity="1"></path><path clip-path="url(#clip380)" d="M2244.96 1384.77 Q2241.81 1384.77 2239.96 1386.92 Q2238.13 1389.08 2238.13 1392.83 Q2238.13 1396.55 2239.96 1398.73 Q2241.81 1400.88 2244.96 1400.88 Q2248.1 1400.88 2249.93 1398.73 Q2251.79 1396.55 2251.79 1392.83 Q2251.79 1389.08 2249.93 1386.92 Q2248.1 1384.77 2244.96 1384.77 M2254.24 1370.12 L2254.24 1374.38 Q2252.48 1373.54 2250.67 1373.1 Q2248.89 1372.66 2247.13 1372.66 Q2242.5 1372.66 2240.05 1375.79 Q2237.62 1378.91 2237.27 1385.23 Q2238.64 1383.22 2240.7 1382.16 Q2242.76 1381.07 2245.23 1381.07 Q2250.44 1381.07 2253.45 1384.24 Q2256.48 1387.39 2256.48 1392.83 Q2256.48 1398.15 2253.34 1401.37 Q2250.19 1404.59 2244.96 1404.59 Q2238.96 1404.59 2235.79 1400 Q2232.62 1395.4 2232.62 1386.67 Q2232.62 1378.47 2236.51 1373.61 Q2240.4 1368.73 2246.95 1368.73 Q2248.71 1368.73 2250.49 1369.08 Q2252.29 1369.42 2254.24 1370.12 Z" fill="#000000" fill-rule="nonzero" fill-opacity="1"></path></svg>