<svg xmlns="http://www.w3.org/2000/svg" xmlns:xlink="http://www.w3.org/1999/xlink" width="600" height="400" viewBox="0 0 2400 1600">
<defs>
  <clipPath id="clip620">
    <rect x="0" y="0" width="2400" height="1600"></rect>
  </clipPath>
</defs>
<path clip-path="url(#clip620)" d="M0 1600 L2400 1600 L2400 0 L0 0  Z" fill="#ffffff" fill-rule="evenodd" fill-opacity="1"></path>
<defs>
  <clipPath id="clip621">
    <rect x="480" y="0" width="1681" height="1600"></rect>
  </clipPath>
</defs>
<path clip-path="url(#clip620)" d="M156.598 1486.45 L2352.76 1486.45 L2352.76 47.2441 L156.598 47.2441  Z" fill="#ffffff" fill-rule="evenodd" fill-opacity="1"></path>
<defs>
  <clipPath id="clip622">
    <rect x="156" y="47" width="2197" height="1440"></rect>
  </clipPath>
</defs>
<polyline clip-path="url(#clip622)" style="stroke:#000000; stroke-linecap:round; stroke-linejoin:round; stroke-width:2; stroke-opacity:0.1; fill:none" points="218.754,1486.45 218.754,47.2441 "></polyline>
<polyline clip-path="url(#clip622)" style="stroke:#000000; stroke-linecap:round; stroke-linejoin:round; stroke-width:2; stroke-opacity:0.1; fill:none" points="633.123,1486.45 633.123,47.2441 "></polyline>
<polyline clip-path="url(#clip622)" style="stroke:#000000; stroke-linecap:round; stroke-linejoin:round; stroke-width:2; stroke-opacity:0.1; fill:none" points="1047.49,1486.45 1047.49,47.2441 "></polyline>
<polyline clip-path="url(#clip622)" style="stroke:#000000; stroke-linecap:round; stroke-linejoin:round; stroke-width:2; stroke-opacity:0.1; fill:none" points="1461.86,1486.45 1461.86,47.2441 "></polyline>
<polyline clip-path="url(#clip622)" style="stroke:#000000; stroke-linecap:round; stroke-linejoin:round; stroke-width:2; stroke-opacity:0.1; fill:none" points="1876.23,1486.45 1876.23,47.2441 "></polyline>
<polyline clip-path="url(#clip622)" style="stroke:#000000; stroke-linecap:round; stroke-linejoin:round; stroke-width:2; stroke-opacity:0.1; fill:none" points="2290.6,1486.45 2290.6,47.2441 "></polyline>
<polyline clip-path="url(#clip620)" style="stroke:#000000; stroke-linecap:round; stroke-linejoin:round; stroke-width:4; stroke-opacity:1; fill:none" points="156.598,1486.45 2352.76,1486.45 "></polyline>
<polyline clip-path="url(#clip620)" style="stroke:#000000; stroke-linecap:round; stroke-linejoin:round; stroke-width:4; stroke-opacity:1; fill:none" points="218.754,1486.45 218.754,1467.55 "></polyline>
<polyline clip-path="url(#clip620)" style="stroke:#000000; stroke-linecap:round; stroke-linejoin:round; stroke-width:4; stroke-opacity:1; fill:none" points="633.123,1486.45 633.123,1467.55 "></polyline>
<polyline clip-path="url(#clip620)" style="stroke:#000000; stroke-linecap:round; stroke-linejoin:round; stroke-width:4; stroke-opacity:1; fill:none" points="1047.49,1486.45 1047.49,1467.55 "></polyline>
<polyline clip-path="url(#clip620)" style="stroke:#000000; stroke-linecap:round; stroke-linejoin:round; stroke-width:4; stroke-opacity:1; fill:none" points="1461.86,1486.45 1461.86,1467.55 "></polyline>
<polyline clip-path="url(#clip620)" style="stroke:#000000; stroke-linecap:round; stroke-linejoin:round; stroke-width:4; stroke-opacity:1; fill:none" points="1876.23,1486.45 1876.23,1467.55 "></polyline>
<polyline clip-path="url(#clip620)" style="stroke:#000000; stroke-linecap:round; stroke-linejoin:round; stroke-width:4; stroke-opacity:1; fill:none" points="2290.6,1486.45 2290.6,1467.55 "></polyline>
<path clip-path="url(#clip620)" d="M209.136 1544.91 L216.774 1544.91 L216.774 1518.55 L208.464 1520.21 L208.464 1515.95 L216.728 1514.29 L221.404 1514.29 L221.404 1544.91 L229.043 1544.91 L229.043 1548.85 L209.136 1548.85 L209.136 1544.91 Z" fill="#000000" fill-rule="nonzero" fill-opacity="1"></path><path clip-path="url(#clip620)" d="M627.776 1544.91 L644.095 1544.91 L644.095 1548.85 L622.151 1548.85 L622.151 1544.91 Q624.813 1542.16 629.396 1537.53 Q634.003 1532.88 635.183 1531.53 Q637.429 1529.01 638.308 1527.27 Q639.211 1525.51 639.211 1523.82 Q639.211 1521.07 637.267 1519.33 Q635.345 1517.6 632.243 1517.6 Q630.044 1517.6 627.591 1518.36 Q625.16 1519.13 622.382 1520.68 L622.382 1515.95 Q625.206 1514.82 627.66 1514.24 Q630.114 1513.66 632.151 1513.66 Q637.521 1513.66 640.716 1516.35 Q643.91 1519.03 643.91 1523.52 Q643.91 1525.65 643.1 1527.57 Q642.313 1529.47 640.206 1532.07 Q639.628 1532.74 636.526 1535.95 Q633.424 1539.15 627.776 1544.91 Z" fill="#000000" fill-rule="nonzero" fill-opacity="1"></path><path clip-path="url(#clip620)" d="M1051.74 1530.21 Q1055.1 1530.93 1056.97 1533.2 Q1058.87 1535.47 1058.87 1538.8 Q1058.87 1543.92 1055.35 1546.72 Q1051.83 1549.52 1045.35 1549.52 Q1043.18 1549.52 1040.86 1549.08 Q1038.57 1548.66 1036.12 1547.81 L1036.12 1543.29 Q1038.06 1544.43 1040.37 1545.01 Q1042.69 1545.58 1045.21 1545.58 Q1049.61 1545.58 1051.9 1543.85 Q1054.22 1542.11 1054.22 1538.8 Q1054.22 1535.75 1052.06 1534.03 Q1049.93 1532.3 1046.12 1532.3 L1042.09 1532.3 L1042.09 1528.45 L1046.3 1528.45 Q1049.75 1528.45 1051.58 1527.09 Q1053.41 1525.7 1053.41 1523.11 Q1053.41 1520.45 1051.51 1519.03 Q1049.63 1517.6 1046.12 1517.6 Q1044.19 1517.6 1041.99 1518.01 Q1039.8 1518.43 1037.16 1519.31 L1037.16 1515.14 Q1039.82 1514.4 1042.13 1514.03 Q1044.47 1513.66 1046.53 1513.66 Q1051.86 1513.66 1054.96 1516.09 Q1058.06 1518.5 1058.06 1522.62 Q1058.06 1525.49 1056.42 1527.48 Q1054.77 1529.45 1051.74 1530.21 Z" fill="#000000" fill-rule="nonzero" fill-opacity="1"></path><path clip-path="url(#clip620)" d="M1464.87 1518.36 L1453.07 1536.81 L1464.87 1536.81 L1464.87 1518.36 M1463.64 1514.29 L1469.52 1514.29 L1469.52 1536.81 L1474.45 1536.81 L1474.45 1540.7 L1469.52 1540.7 L1469.52 1548.85 L1464.87 1548.85 L1464.87 1540.7 L1449.27 1540.7 L1449.27 1536.19 L1463.64 1514.29 Z" fill="#000000" fill-rule="nonzero" fill-opacity="1"></path><path clip-path="url(#clip620)" d="M1866.51 1514.29 L1884.87 1514.29 L1884.87 1518.22 L1870.79 1518.22 L1870.79 1526.7 Q1871.81 1526.35 1872.83 1526.19 Q1873.85 1526 1874.87 1526 Q1880.65 1526 1884.03 1529.17 Q1887.41 1532.34 1887.41 1537.76 Q1887.41 1543.34 1883.94 1546.44 Q1880.47 1549.52 1874.15 1549.52 Q1871.97 1549.52 1869.7 1549.15 Q1867.46 1548.78 1865.05 1548.04 L1865.05 1543.34 Q1867.13 1544.47 1869.36 1545.03 Q1871.58 1545.58 1874.06 1545.58 Q1878.06 1545.58 1880.4 1543.48 Q1882.74 1541.37 1882.74 1537.76 Q1882.74 1534.15 1880.4 1532.04 Q1878.06 1529.94 1874.06 1529.94 Q1872.18 1529.94 1870.31 1530.35 Q1868.45 1530.77 1866.51 1531.65 L1866.51 1514.29 Z" fill="#000000" fill-rule="nonzero" fill-opacity="1"></path><path clip-path="url(#clip620)" d="M2291.01 1529.7 Q2287.86 1529.7 2286.01 1531.86 Q2284.18 1534.01 2284.18 1537.76 Q2284.18 1541.49 2286.01 1543.66 Q2287.86 1545.82 2291.01 1545.82 Q2294.15 1545.82 2295.98 1543.66 Q2297.83 1541.49 2297.83 1537.76 Q2297.83 1534.01 2295.98 1531.86 Q2294.15 1529.7 2291.01 1529.7 M2300.29 1515.05 L2300.29 1519.31 Q2298.53 1518.48 2296.72 1518.04 Q2294.94 1517.6 2293.18 1517.6 Q2288.55 1517.6 2286.1 1520.72 Q2283.67 1523.85 2283.32 1530.17 Q2284.69 1528.15 2286.75 1527.09 Q2288.81 1526 2291.28 1526 Q2296.49 1526 2299.5 1529.17 Q2302.53 1532.32 2302.53 1537.76 Q2302.53 1543.08 2299.39 1546.3 Q2296.24 1549.52 2291.01 1549.52 Q2285.01 1549.52 2281.84 1544.94 Q2278.67 1540.33 2278.67 1531.6 Q2278.67 1523.41 2282.56 1518.55 Q2286.45 1513.66 2293 1513.66 Q2294.76 1513.66 2296.54 1514.01 Q2298.34 1514.36 2300.29 1515.05 Z" fill="#000000" fill-rule="nonzero" fill-opacity="1"></path><polyline clip-path="url(#clip622)" style="stroke:#000000; stroke-linecap:round; stroke-linejoin:round; stroke-width:2; stroke-opacity:0.1; fill:none" points="156.598,1486.45 2352.76,1486.45 "></polyline>
<polyline clip-path="url(#clip622)" style="stroke:#000000; stroke-linecap:round; stroke-linejoin:round; stroke-width:2; stroke-opacity:0.1; fill:none" points="156.598,1198.61 2352.76,1198.61 "></polyline>
<polyline clip-path="url(#clip622)" style="stroke:#000000; stroke-linecap:round; stroke-linejoin:round; stroke-width:2; stroke-opacity:0.1; fill:none" points="156.598,910.766 2352.76,910.766 "></polyline>
<polyline clip-path="url(#clip622)" style="stroke:#000000; stroke-linecap:round; stroke-linejoin:round; stroke-width:2; stroke-opacity:0.1; fill:none" points="156.598,622.926 2352.76,622.926 "></polyline>
<polyline clip-path="url(#clip622)" style="stroke:#000000; stroke-linecap:round; stroke-linejoin:round; stroke-width:2; stroke-opacity:0.1; fill:none" points="156.598,335.085 2352.76,335.085 "></polyline>
<polyline clip-path="url(#clip622)" style="stroke:#000000; stroke-linecap:round; stroke-linejoin:round; stroke-width:2; stroke-opacity:0.1; fill:none" points="156.598,47.2441 2352.76,47.2441 "></polyline>
<polyline clip-path="url(#clip620)" style="stroke:#000000; stroke-linecap:round; stroke-linejoin:round; stroke-width:4; stroke-opacity:1; fill:none" points="156.598,1486.45 156.598,47.2441 "></polyline>
<polyline clip-path="url(#clip620)" style="stroke:#000000; stroke-linecap:round; stroke-linejoin:round; stroke-width:4; stroke-opacity:1; fill:none" points="156.598,1486.45 175.496,1486.45 "></polyline>
<polyline clip-path="url(#clip620)" style="stroke:#000000; stroke-linecap:round; stroke-linejoin:round; stroke-width:4; stroke-opacity:1; fill:none" points="156.598,1198.61 175.496,1198.61 "></polyline>
<polyline clip-path="url(#clip620)" style="stroke:#000000; stroke-linecap:round; stroke-linejoin:round; stroke-width:4; stroke-opacity:1; fill:none" points="156.598,910.766 175.496,910.766 "></polyline>
<polyline clip-path="url(#clip620)" style="stroke:#000000; stroke-linecap:round; stroke-linejoin:round; stroke-width:4; stroke-opacity:1; fill:none" points="156.598,622.926 175.496,622.926 "></polyline>
<polyline clip-path="url(#clip620)" style="stroke:#000000; stroke-linecap:round; stroke-linejoin:round; stroke-width:4; stroke-opacity:1; fill:none" points="156.598,335.085 175.496,335.085 "></polyline>
<polyline clip-path="url(#clip620)" style="stroke:#000000; stroke-linecap:round; stroke-linejoin:round; stroke-width:4; stroke-opacity:1; fill:none" points="156.598,47.2441 175.496,47.2441 "></polyline>
<path clip-path="url(#clip620)" d="M63.4226 1472.25 Q59.8115 1472.25 57.9828 1475.81 Q56.1773 1479.35 56.1773 1486.48 Q56.1773 1493.59 57.9828 1497.15 Q59.8115 1500.7 63.4226 1500.7 Q67.0569 1500.7 68.8624 1497.15 Q70.6911 1493.59 70.6911 1486.48 Q70.6911 1479.35 68.8624 1475.81 Q67.0569 1472.25 63.4226 1472.25 M63.4226 1468.54 Q69.2328 1468.54 72.2883 1473.15 Q75.367 1477.73 75.367 1486.48 Q75.367 1495.21 72.2883 1499.82 Q69.2328 1504.4 63.4226 1504.4 Q57.6125 1504.4 54.5338 1499.82 Q51.4782 1495.21 51.4782 1486.48 Q51.4782 1477.73 54.5338 1473.15 Q57.6125 1468.54 63.4226 1468.54 Z" fill="#000000" fill-rule="nonzero" fill-opacity="1"></path><path clip-path="url(#clip620)" d="M83.5845 1497.85 L88.4688 1497.85 L88.4688 1503.73 L83.5845 1503.73 L83.5845 1497.85 Z" fill="#000000" fill-rule="nonzero" fill-opacity="1"></path><path clip-path="url(#clip620)" d="M108.654 1472.25 Q105.043 1472.25 103.214 1475.81 Q101.409 1479.35 101.409 1486.48 Q101.409 1493.59 103.214 1497.15 Q105.043 1500.7 108.654 1500.7 Q112.288 1500.7 114.094 1497.15 Q115.922 1493.59 115.922 1486.48 Q115.922 1479.35 114.094 1475.81 Q112.288 1472.25 108.654 1472.25 M108.654 1468.54 Q114.464 1468.54 117.52 1473.15 Q120.598 1477.73 120.598 1486.48 Q120.598 1495.21 117.52 1499.82 Q114.464 1504.4 108.654 1504.4 Q102.844 1504.4 99.765 1499.82 Q96.7095 1495.21 96.7095 1486.48 Q96.7095 1477.73 99.765 1473.15 Q102.844 1468.54 108.654 1468.54 Z" fill="#000000" fill-rule="nonzero" fill-opacity="1"></path><path clip-path="url(#clip620)" d="M65.0198 1184.41 Q61.4087 1184.41 59.58 1187.97 Q57.7745 1191.51 57.7745 1198.64 Q57.7745 1205.75 59.58 1209.31 Q61.4087 1212.85 65.0198 1212.85 Q68.6541 1212.85 70.4596 1209.31 Q72.2883 1205.75 72.2883 1198.64 Q72.2883 1191.51 70.4596 1187.97 Q68.6541 1184.41 65.0198 1184.41 M65.0198 1180.7 Q70.83 1180.7 73.8855 1185.31 Q76.9642 1189.89 76.9642 1198.64 Q76.9642 1207.37 73.8855 1211.98 Q70.83 1216.56 65.0198 1216.56 Q59.2097 1216.56 56.131 1211.98 Q53.0754 1207.37 53.0754 1198.64 Q53.0754 1189.89 56.131 1185.31 Q59.2097 1180.7 65.0198 1180.7 Z" fill="#000000" fill-rule="nonzero" fill-opacity="1"></path><path clip-path="url(#clip620)" d="M85.1818 1210.01 L90.066 1210.01 L90.066 1215.89 L85.1818 1215.89 L85.1818 1210.01 Z" fill="#000000" fill-rule="nonzero" fill-opacity="1"></path><path clip-path="url(#clip620)" d="M104.279 1211.95 L120.598 1211.95 L120.598 1215.89 L98.6539 1215.89 L98.6539 1211.95 Q101.316 1209.2 105.899 1204.57 Q110.506 1199.91 111.686 1198.57 Q113.932 1196.05 114.811 1194.31 Q115.714 1192.55 115.714 1190.86 Q115.714 1188.11 113.77 1186.37 Q111.848 1184.64 108.746 1184.64 Q106.547 1184.64 104.094 1185.4 Q101.663 1186.17 98.8854 1187.72 L98.8854 1182.99 Q101.709 1181.86 104.163 1181.28 Q106.617 1180.7 108.654 1180.7 Q114.024 1180.7 117.219 1183.39 Q120.413 1186.07 120.413 1190.56 Q120.413 1192.69 119.603 1194.61 Q118.816 1196.51 116.709 1199.1 Q116.131 1199.78 113.029 1202.99 Q109.927 1206.19 104.279 1211.95 Z" fill="#000000" fill-rule="nonzero" fill-opacity="1"></path><path clip-path="url(#clip620)" d="M62.9365 896.565 Q59.3254 896.565 57.4967 900.13 Q55.6912 903.671 55.6912 910.801 Q55.6912 917.908 57.4967 921.472 Q59.3254 925.014 62.9365 925.014 Q66.5707 925.014 68.3763 921.472 Q70.205 917.908 70.205 910.801 Q70.205 903.671 68.3763 900.13 Q66.5707 896.565 62.9365 896.565 M62.9365 892.861 Q68.7467 892.861 71.8022 897.468 Q74.8809 902.051 74.8809 910.801 Q74.8809 919.528 71.8022 924.134 Q68.7467 928.718 62.9365 928.718 Q57.1264 928.718 54.0477 924.134 Q50.9921 919.528 50.9921 910.801 Q50.9921 902.051 54.0477 897.468 Q57.1264 892.861 62.9365 892.861 Z" fill="#000000" fill-rule="nonzero" fill-opacity="1"></path><path clip-path="url(#clip620)" d="M83.0984 922.167 L87.9827 922.167 L87.9827 928.046 L83.0984 928.046 L83.0984 922.167 Z" fill="#000000" fill-rule="nonzero" fill-opacity="1"></path><path clip-path="url(#clip620)" d="M111.015 897.56 L99.2095 916.009 L111.015 916.009 L111.015 897.56 M109.788 893.486 L115.668 893.486 L115.668 916.009 L120.598 916.009 L120.598 919.898 L115.668 919.898 L115.668 928.046 L111.015 928.046 L111.015 919.898 L95.4132 919.898 L95.4132 915.384 L109.788 893.486 Z" fill="#000000" fill-rule="nonzero" fill-opacity="1"></path><path clip-path="url(#clip620)" d="M63.2606 608.724 Q59.6495 608.724 57.8208 612.289 Q56.0152 615.831 56.0152 622.96 Q56.0152 630.067 57.8208 633.632 Q59.6495 637.173 63.2606 637.173 Q66.8948 637.173 68.7004 633.632 Q70.5291 630.067 70.5291 622.96 Q70.5291 615.831 68.7004 612.289 Q66.8948 608.724 63.2606 608.724 M63.2606 605.021 Q69.0707 605.021 72.1263 609.627 Q75.205 614.21 75.205 622.96 Q75.205 631.687 72.1263 636.294 Q69.0707 640.877 63.2606 640.877 Q57.4504 640.877 54.3717 636.294 Q51.3162 631.687 51.3162 622.96 Q51.3162 614.21 54.3717 609.627 Q57.4504 605.021 63.2606 605.021 Z" fill="#000000" fill-rule="nonzero" fill-opacity="1"></path><path clip-path="url(#clip620)" d="M83.4225 634.326 L88.3067 634.326 L88.3067 640.206 L83.4225 640.206 L83.4225 634.326 Z" fill="#000000" fill-rule="nonzero" fill-opacity="1"></path><path clip-path="url(#clip620)" d="M109.071 621.062 Q105.922 621.062 104.071 623.215 Q102.242 625.368 102.242 629.118 Q102.242 632.845 104.071 635.02 Q105.922 637.173 109.071 637.173 Q112.219 637.173 114.047 635.02 Q115.899 632.845 115.899 629.118 Q115.899 625.368 114.047 623.215 Q112.219 621.062 109.071 621.062 M118.353 606.409 L118.353 610.669 Q116.594 609.835 114.788 609.396 Q113.006 608.956 111.246 608.956 Q106.617 608.956 104.163 612.081 Q101.733 615.206 101.385 621.525 Q102.751 619.511 104.811 618.446 Q106.871 617.359 109.348 617.359 Q114.557 617.359 117.566 620.53 Q120.598 623.678 120.598 629.118 Q120.598 634.442 117.45 637.659 Q114.302 640.877 109.071 640.877 Q103.075 640.877 99.9039 636.294 Q96.7326 631.687 96.7326 622.96 Q96.7326 614.766 100.621 609.905 Q104.51 605.021 111.061 605.021 Q112.82 605.021 114.603 605.368 Q116.408 605.715 118.353 606.409 Z" fill="#000000" fill-rule="nonzero" fill-opacity="1"></path><path clip-path="url(#clip620)" d="M63.5152 320.884 Q59.9041 320.884 58.0754 324.448 Q56.2699 327.99 56.2699 335.12 Q56.2699 342.226 58.0754 345.791 Q59.9041 349.332 63.5152 349.332 Q67.1494 349.332 68.955 345.791 Q70.7837 342.226 70.7837 335.12 Q70.7837 327.99 68.955 324.448 Q67.1494 320.884 63.5152 320.884 M63.5152 317.18 Q69.3254 317.18 72.3809 321.786 Q75.4596 326.37 75.4596 335.12 Q75.4596 343.846 72.3809 348.453 Q69.3254 353.036 63.5152 353.036 Q57.7051 353.036 54.6264 348.453 Q51.5708 343.846 51.5708 335.12 Q51.5708 326.37 54.6264 321.786 Q57.7051 317.18 63.5152 317.18 Z" fill="#000000" fill-rule="nonzero" fill-opacity="1"></path><path clip-path="url(#clip620)" d="M83.6771 346.485 L88.5614 346.485 L88.5614 352.365 L83.6771 352.365 L83.6771 346.485 Z" fill="#000000" fill-rule="nonzero" fill-opacity="1"></path><path clip-path="url(#clip620)" d="M108.746 335.953 Q105.413 335.953 103.492 337.735 Q101.594 339.518 101.594 342.643 Q101.594 345.768 103.492 347.55 Q105.413 349.332 108.746 349.332 Q112.08 349.332 114.001 347.55 Q115.922 345.745 115.922 342.643 Q115.922 339.518 114.001 337.735 Q112.103 335.953 108.746 335.953 M104.071 333.962 Q101.061 333.221 99.3715 331.161 Q97.7048 329.101 97.7048 326.138 Q97.7048 321.995 100.645 319.587 Q103.608 317.18 108.746 317.18 Q113.908 317.18 116.848 319.587 Q119.788 321.995 119.788 326.138 Q119.788 329.101 118.098 331.161 Q116.432 333.221 113.445 333.962 Q116.825 334.749 118.7 337.041 Q120.598 339.333 120.598 342.643 Q120.598 347.666 117.52 350.351 Q114.464 353.036 108.746 353.036 Q103.029 353.036 99.9502 350.351 Q96.8947 347.666 96.8947 342.643 Q96.8947 339.333 98.7928 337.041 Q100.691 334.749 104.071 333.962 M102.358 326.578 Q102.358 329.263 104.024 330.768 Q105.714 332.272 108.746 332.272 Q111.756 332.272 113.445 330.768 Q115.158 329.263 115.158 326.578 Q115.158 323.893 113.445 322.388 Q111.756 320.884 108.746 320.884 Q105.714 320.884 104.024 322.388 Q102.358 323.893 102.358 326.578 Z" fill="#000000" fill-rule="nonzero" fill-opacity="1"></path><path clip-path="url(#clip620)" d="M54.2328 60.5889 L61.8717 60.5889 L61.8717 34.2233 L53.5616 35.89 L53.5616 31.6308 L61.8254 29.9641 L66.5013 29.9641 L66.5013 60.5889 L74.1402 60.5889 L74.1402 64.5241 L54.2328 64.5241 L54.2328 60.5889 Z" fill="#000000" fill-rule="nonzero" fill-opacity="1"></path><path clip-path="url(#clip620)" d="M83.5845 58.6445 L88.4688 58.6445 L88.4688 64.5241 L83.5845 64.5241 L83.5845 58.6445 Z" fill="#000000" fill-rule="nonzero" fill-opacity="1"></path><path clip-path="url(#clip620)" d="M108.654 33.0428 Q105.043 33.0428 103.214 36.6076 Q101.409 40.1492 101.409 47.2788 Q101.409 54.3853 103.214 57.9501 Q105.043 61.4917 108.654 61.4917 Q112.288 61.4917 114.094 57.9501 Q115.922 54.3853 115.922 47.2788 Q115.922 40.1492 114.094 36.6076 Q112.288 33.0428 108.654 33.0428 M108.654 29.3391 Q114.464 29.3391 117.52 33.9456 Q120.598 38.5289 120.598 47.2788 Q120.598 56.0056 117.52 60.6121 Q114.464 65.1954 108.654 65.1954 Q102.844 65.1954 99.765 60.6121 Q96.7095 56.0056 96.7095 47.2788 Q96.7095 38.5289 99.765 33.9456 Q102.844 29.3391 108.654 29.3391 Z" fill="#000000" fill-rule="nonzero" fill-opacity="1"></path><polyline clip-path="url(#clip622)" style="stroke:#009af9; stroke-linecap:round; stroke-linejoin:round; stroke-width:4; stroke-opacity:1; fill:none" points="218.754,586.072 633.123,1315.96 1047.49,1407.39 1461.86,1425.77 1876.23,1445.85 2290.6,1460.7 "></polyline>
<polyline clip-path="url(#clip622)" style="stroke:#e26f46; stroke-linecap:round; stroke-linejoin:round; stroke-width:4; stroke-opacity:1; fill:none" points="218.754,586.072 633.123,415.58 1047.49,336.52 1461.86,275.842 1876.23,235.246 2290.6,209.495 "></polyline>
<path clip-path="url(#clip620)" d="M229.803 250.738 L1171.45 250.738 L1171.45 95.2176 L229.803 95.2176  Z" fill="#ffffff" fill-rule="evenodd" fill-opacity="1"></path>
<polyline clip-path="url(#clip620)" style="stroke:#000000; stroke-linecap:round; stroke-linejoin:round; stroke-width:4; stroke-opacity:1; fill:none" points="229.803,250.738 1171.45,250.738 1171.45,95.2176 229.803,95.2176 229.803,250.738 "></polyline>
<polyline clip-path="url(#clip620)" style="stroke:#009af9; stroke-linecap:round; stroke-linejoin:round; stroke-width:4; stroke-opacity:1; fill:none" points="254.205,147.058 400.616,147.058 "></polyline>
<path clip-path="url(#clip620)" d="M425.018 138.412 L429.531 138.412 L437.633 160.171 L445.735 138.412 L450.249 138.412 L440.527 164.338 L434.74 164.338 L425.018 138.412 Z" fill="#000000" fill-rule="nonzero" fill-opacity="1"></path><path clip-path="url(#clip620)" d="M467.911 151.305 Q462.749 151.305 460.758 152.486 Q458.767 153.666 458.767 156.514 Q458.767 158.782 460.249 160.125 Q461.753 161.444 464.323 161.444 Q467.864 161.444 469.994 158.944 Q472.147 156.421 472.147 152.254 L472.147 151.305 L467.911 151.305 M476.406 149.546 L476.406 164.338 L472.147 164.338 L472.147 160.402 Q470.689 162.763 468.513 163.898 Q466.337 165.009 463.189 165.009 Q459.207 165.009 456.846 162.787 Q454.508 160.541 454.508 156.791 Q454.508 152.416 457.425 150.194 Q460.365 147.972 466.175 147.972 L472.147 147.972 L472.147 147.555 Q472.147 144.615 470.202 143.018 Q468.281 141.398 464.786 141.398 Q462.564 141.398 460.457 141.93 Q458.351 142.463 456.406 143.527 L456.406 139.592 Q458.744 138.69 460.943 138.25 Q463.142 137.787 465.226 137.787 Q470.851 137.787 473.628 140.703 Q476.406 143.62 476.406 149.546 Z" fill="#000000" fill-rule="nonzero" fill-opacity="1"></path><path clip-path="url(#clip620)" d="M500.202 142.393 Q499.485 141.977 498.628 141.791 Q497.795 141.583 496.776 141.583 Q493.165 141.583 491.221 143.944 Q489.3 146.282 489.3 150.68 L489.3 164.338 L485.017 164.338 L485.017 138.412 L489.3 138.412 L489.3 142.44 Q490.642 140.078 492.795 138.944 Q494.948 137.787 498.026 137.787 Q498.466 137.787 498.999 137.856 Q499.531 137.903 500.179 138.018 L500.202 142.393 Z" fill="#000000" fill-rule="nonzero" fill-opacity="1"></path><path clip-path="url(#clip620)" d="M504.67 138.412 L508.929 138.412 L508.929 164.338 L504.67 164.338 L504.67 138.412 M504.67 128.319 L508.929 128.319 L508.929 133.713 L504.67 133.713 L504.67 128.319 Z" fill="#000000" fill-rule="nonzero" fill-opacity="1"></path><path clip-path="url(#clip620)" d="M529.623 151.305 Q524.461 151.305 522.471 152.486 Q520.48 153.666 520.48 156.514 Q520.48 158.782 521.961 160.125 Q523.466 161.444 526.035 161.444 Q529.577 161.444 531.707 158.944 Q533.86 156.421 533.86 152.254 L533.86 151.305 L529.623 151.305 M538.119 149.546 L538.119 164.338 L533.86 164.338 L533.86 160.402 Q532.401 162.763 530.225 163.898 Q528.049 165.009 524.901 165.009 Q520.92 165.009 518.559 162.787 Q516.221 160.541 516.221 156.791 Q516.221 152.416 519.137 150.194 Q522.077 147.972 527.887 147.972 L533.86 147.972 L533.86 147.555 Q533.86 144.615 531.915 143.018 Q529.994 141.398 526.498 141.398 Q524.276 141.398 522.17 141.93 Q520.063 142.463 518.119 143.527 L518.119 139.592 Q520.457 138.69 522.656 138.25 Q524.855 137.787 526.938 137.787 Q532.563 137.787 535.341 140.703 Q538.119 143.62 538.119 149.546 Z" fill="#000000" fill-rule="nonzero" fill-opacity="1"></path><path clip-path="url(#clip620)" d="M568.443 148.689 L568.443 164.338 L564.183 164.338 L564.183 148.828 Q564.183 145.148 562.748 143.319 Q561.313 141.49 558.443 141.49 Q554.994 141.49 553.003 143.69 Q551.012 145.889 551.012 149.685 L551.012 164.338 L546.73 164.338 L546.73 138.412 L551.012 138.412 L551.012 142.44 Q552.54 140.102 554.6 138.944 Q556.683 137.787 559.392 137.787 Q563.859 137.787 566.151 140.565 Q568.443 143.319 568.443 148.689 Z" fill="#000000" fill-rule="nonzero" fill-opacity="1"></path><path clip-path="url(#clip620)" d="M595.595 139.407 L595.595 143.389 Q593.79 142.393 591.961 141.907 Q590.156 141.398 588.304 141.398 Q584.16 141.398 581.869 144.037 Q579.577 146.652 579.577 151.398 Q579.577 156.143 581.869 158.782 Q584.16 161.398 588.304 161.398 Q590.156 161.398 591.961 160.912 Q593.79 160.402 595.595 159.407 L595.595 163.342 Q593.813 164.176 591.892 164.592 Q589.993 165.009 587.841 165.009 Q581.984 165.009 578.535 161.328 Q575.086 157.648 575.086 151.398 Q575.086 145.055 578.558 141.421 Q582.054 137.787 588.118 137.787 Q590.086 137.787 591.961 138.203 Q593.836 138.597 595.595 139.407 Z" fill="#000000" fill-rule="nonzero" fill-opacity="1"></path><path clip-path="url(#clip620)" d="M625.178 150.31 L625.178 152.393 L605.595 152.393 Q605.873 156.791 608.234 159.106 Q610.618 161.398 614.854 161.398 Q617.308 161.398 619.6 160.796 Q621.915 160.194 624.183 158.99 L624.183 163.018 Q621.891 163.99 619.484 164.5 Q617.077 165.009 614.6 165.009 Q608.396 165.009 604.762 161.398 Q601.151 157.787 601.151 151.629 Q601.151 145.264 604.577 141.537 Q608.026 137.787 613.859 137.787 Q619.091 137.787 622.123 141.166 Q625.178 144.523 625.178 150.31 M620.919 149.06 Q620.873 145.565 618.952 143.481 Q617.054 141.398 613.905 141.398 Q610.341 141.398 608.188 143.412 Q606.058 145.426 605.734 149.083 L620.919 149.06 Z" fill="#000000" fill-rule="nonzero" fill-opacity="1"></path><path clip-path="url(#clip620)" d="M669.414 150.31 L669.414 152.393 L649.831 152.393 Q650.109 156.791 652.47 159.106 Q654.854 161.398 659.09 161.398 Q661.544 161.398 663.836 160.796 Q666.15 160.194 668.419 158.99 L668.419 163.018 Q666.127 163.99 663.72 164.5 Q661.313 165.009 658.836 165.009 Q652.632 165.009 648.998 161.398 Q645.387 157.787 645.387 151.629 Q645.387 145.264 648.813 141.537 Q652.262 137.787 658.095 137.787 Q663.326 137.787 666.359 141.166 Q669.414 144.523 669.414 150.31 M665.155 149.06 Q665.109 145.565 663.188 143.481 Q661.289 141.398 658.141 141.398 Q654.576 141.398 652.424 143.412 Q650.294 145.426 649.97 149.083 L665.155 149.06 Z" fill="#000000" fill-rule="nonzero" fill-opacity="1"></path><path clip-path="url(#clip620)" d="M697.123 138.412 L687.748 151.027 L697.609 164.338 L692.586 164.338 L685.039 154.152 L677.493 164.338 L672.47 164.338 L682.539 150.773 L673.326 138.412 L678.349 138.412 L685.224 147.648 L692.099 138.412 L697.123 138.412 Z" fill="#000000" fill-rule="nonzero" fill-opacity="1"></path><path clip-path="url(#clip620)" d="M707.747 160.449 L707.747 174.199 L703.465 174.199 L703.465 138.412 L707.747 138.412 L707.747 142.347 Q709.09 140.032 711.127 138.921 Q713.187 137.787 716.034 137.787 Q720.757 137.787 723.696 141.537 Q726.659 145.287 726.659 151.398 Q726.659 157.509 723.696 161.259 Q720.757 165.009 716.034 165.009 Q713.187 165.009 711.127 163.898 Q709.09 162.763 707.747 160.449 M722.238 151.398 Q722.238 146.699 720.294 144.037 Q718.372 141.352 714.993 141.352 Q711.613 141.352 709.669 144.037 Q707.747 146.699 707.747 151.398 Q707.747 156.097 709.669 158.782 Q711.613 161.444 714.993 161.444 Q718.372 161.444 720.294 158.782 Q722.238 156.097 722.238 151.398 Z" fill="#000000" fill-rule="nonzero" fill-opacity="1"></path><path clip-path="url(#clip620)" d="M733.72 128.319 L737.979 128.319 L737.979 164.338 L733.72 164.338 L733.72 128.319 Z" fill="#000000" fill-rule="nonzero" fill-opacity="1"></path><path clip-path="url(#clip620)" d="M758.673 151.305 Q753.511 151.305 751.52 152.486 Q749.53 153.666 749.53 156.514 Q749.53 158.782 751.011 160.125 Q752.516 161.444 755.085 161.444 Q758.627 161.444 760.756 158.944 Q762.909 156.421 762.909 152.254 L762.909 151.305 L758.673 151.305 M767.168 149.546 L767.168 164.338 L762.909 164.338 L762.909 160.402 Q761.451 162.763 759.275 163.898 Q757.099 165.009 753.951 165.009 Q749.969 165.009 747.608 162.787 Q745.27 160.541 745.27 156.791 Q745.27 152.416 748.187 150.194 Q751.127 147.972 756.937 147.972 L762.909 147.972 L762.909 147.555 Q762.909 144.615 760.965 143.018 Q759.043 141.398 755.548 141.398 Q753.326 141.398 751.219 141.93 Q749.113 142.463 747.169 143.527 L747.169 139.592 Q749.507 138.69 751.706 138.25 Q753.905 137.787 755.988 137.787 Q761.613 137.787 764.391 140.703 Q767.168 143.62 767.168 149.546 Z" fill="#000000" fill-rule="nonzero" fill-opacity="1"></path><path clip-path="url(#clip620)" d="M775.942 138.412 L780.201 138.412 L780.201 164.338 L775.942 164.338 L775.942 138.412 M775.942 128.319 L780.201 128.319 L780.201 133.713 L775.942 133.713 L775.942 128.319 Z" fill="#000000" fill-rule="nonzero" fill-opacity="1"></path><path clip-path="url(#clip620)" d="M810.664 148.689 L810.664 164.338 L806.404 164.338 L806.404 148.828 Q806.404 145.148 804.969 143.319 Q803.534 141.49 800.664 141.49 Q797.215 141.49 795.224 143.69 Q793.233 145.889 793.233 149.685 L793.233 164.338 L788.951 164.338 L788.951 138.412 L793.233 138.412 L793.233 142.44 Q794.761 140.102 796.821 138.944 Q798.904 137.787 801.613 137.787 Q806.08 137.787 808.372 140.565 Q810.664 143.319 810.664 148.689 Z" fill="#000000" fill-rule="nonzero" fill-opacity="1"></path><path clip-path="url(#clip620)" d="M841.335 150.31 L841.335 152.393 L821.751 152.393 Q822.029 156.791 824.39 159.106 Q826.775 161.398 831.011 161.398 Q833.464 161.398 835.756 160.796 Q838.071 160.194 840.339 158.99 L840.339 163.018 Q838.048 163.99 835.64 164.5 Q833.233 165.009 830.756 165.009 Q824.552 165.009 820.918 161.398 Q817.307 157.787 817.307 151.629 Q817.307 145.264 820.733 141.537 Q824.182 137.787 830.015 137.787 Q835.247 137.787 838.279 141.166 Q841.335 144.523 841.335 150.31 M837.075 149.06 Q837.029 145.565 835.108 143.481 Q833.21 141.398 830.062 141.398 Q826.497 141.398 824.344 143.412 Q822.214 145.426 821.89 149.083 L837.075 149.06 Z" fill="#000000" fill-rule="nonzero" fill-opacity="1"></path><path clip-path="url(#clip620)" d="M865.386 142.347 L865.386 128.319 L869.645 128.319 L869.645 164.338 L865.386 164.338 L865.386 160.449 Q864.043 162.763 861.983 163.898 Q859.946 165.009 857.075 165.009 Q852.376 165.009 849.413 161.259 Q846.474 157.509 846.474 151.398 Q846.474 145.287 849.413 141.537 Q852.376 137.787 857.075 137.787 Q859.946 137.787 861.983 138.921 Q864.043 140.032 865.386 142.347 M850.872 151.398 Q850.872 156.097 852.793 158.782 Q854.737 161.444 858.117 161.444 Q861.497 161.444 863.441 158.782 Q865.386 156.097 865.386 151.398 Q865.386 146.699 863.441 144.037 Q861.497 141.352 858.117 141.352 Q854.737 141.352 852.793 144.037 Q850.872 146.699 850.872 151.398 Z" fill="#000000" fill-rule="nonzero" fill-opacity="1"></path><polyline clip-path="url(#clip620)" style="stroke:#e26f46; stroke-linecap:round; stroke-linejoin:round; stroke-width:4; stroke-opacity:1; fill:none" points="254.205,198.898 400.616,198.898 "></polyline>
<path clip-path="url(#clip620)" d="M445.527 191.247 L445.527 195.229 Q443.721 194.233 441.892 193.747 Q440.087 193.238 438.235 193.238 Q434.092 193.238 431.8 195.877 Q429.508 198.492 429.508 203.238 Q429.508 207.983 431.8 210.622 Q434.092 213.238 438.235 213.238 Q440.087 213.238 441.892 212.752 Q443.721 212.242 445.527 211.247 L445.527 215.182 Q443.744 216.016 441.823 216.432 Q439.925 216.849 437.772 216.849 Q431.916 216.849 428.467 213.168 Q425.018 209.488 425.018 203.238 Q425.018 196.895 428.49 193.261 Q431.985 189.627 438.05 189.627 Q440.017 189.627 441.892 190.043 Q443.767 190.437 445.527 191.247 Z" fill="#000000" fill-rule="nonzero" fill-opacity="1"></path><path clip-path="url(#clip620)" d="M452.494 205.946 L452.494 190.252 L456.753 190.252 L456.753 205.784 Q456.753 209.465 458.189 211.316 Q459.624 213.145 462.494 213.145 Q465.943 213.145 467.934 210.946 Q469.948 208.747 469.948 204.951 L469.948 190.252 L474.207 190.252 L474.207 216.178 L469.948 216.178 L469.948 212.196 Q468.397 214.557 466.337 215.715 Q464.3 216.849 461.591 216.849 Q457.124 216.849 454.809 214.071 Q452.494 211.293 452.494 205.946 M463.212 189.627 L463.212 189.627 Z" fill="#000000" fill-rule="nonzero" fill-opacity="1"></path><path clip-path="url(#clip620)" d="M503.165 195.229 Q504.762 192.358 506.985 190.993 Q509.207 189.627 512.216 189.627 Q516.267 189.627 518.466 192.474 Q520.665 195.298 520.665 200.529 L520.665 216.178 L516.383 216.178 L516.383 200.668 Q516.383 196.942 515.063 195.136 Q513.744 193.33 511.036 193.33 Q507.725 193.33 505.804 195.53 Q503.883 197.729 503.883 201.525 L503.883 216.178 L499.6 216.178 L499.6 200.668 Q499.6 196.918 498.281 195.136 Q496.962 193.33 494.207 193.33 Q490.943 193.33 489.022 195.553 Q487.101 197.752 487.101 201.525 L487.101 216.178 L482.818 216.178 L482.818 190.252 L487.101 190.252 L487.101 194.28 Q488.559 191.895 490.596 190.761 Q492.633 189.627 495.434 189.627 Q498.258 189.627 500.225 191.062 Q502.216 192.497 503.165 195.229 Z" fill="#000000" fill-rule="nonzero" fill-opacity="1"></path><path clip-path="url(#clip620)" d="M528.721 205.946 L528.721 190.252 L532.98 190.252 L532.98 205.784 Q532.98 209.465 534.415 211.316 Q535.85 213.145 538.721 213.145 Q542.17 213.145 544.16 210.946 Q546.174 208.747 546.174 204.951 L546.174 190.252 L550.434 190.252 L550.434 216.178 L546.174 216.178 L546.174 212.196 Q544.623 214.557 542.563 215.715 Q540.526 216.849 537.818 216.849 Q533.35 216.849 531.035 214.071 Q528.721 211.293 528.721 205.946 M539.438 189.627 L539.438 189.627 Z" fill="#000000" fill-rule="nonzero" fill-opacity="1"></path><path clip-path="url(#clip620)" d="M559.207 180.159 L563.466 180.159 L563.466 216.178 L559.207 216.178 L559.207 180.159 Z" fill="#000000" fill-rule="nonzero" fill-opacity="1"></path><path clip-path="url(#clip620)" d="M584.16 203.145 Q578.998 203.145 577.007 204.326 Q575.017 205.506 575.017 208.354 Q575.017 210.622 576.498 211.965 Q578.003 213.284 580.572 213.284 Q584.114 213.284 586.243 210.784 Q588.396 208.261 588.396 204.094 L588.396 203.145 L584.16 203.145 M592.655 201.386 L592.655 216.178 L588.396 216.178 L588.396 212.242 Q586.938 214.603 584.762 215.738 Q582.586 216.849 579.438 216.849 Q575.457 216.849 573.095 214.627 Q570.757 212.381 570.757 208.631 Q570.757 204.256 573.674 202.034 Q576.614 199.812 582.424 199.812 L588.396 199.812 L588.396 199.395 Q588.396 196.455 586.452 194.858 Q584.531 193.238 581.035 193.238 Q578.813 193.238 576.707 193.77 Q574.6 194.303 572.656 195.367 L572.656 191.432 Q574.994 190.53 577.193 190.09 Q579.392 189.627 581.475 189.627 Q587.1 189.627 589.878 192.543 Q592.655 195.46 592.655 201.386 Z" fill="#000000" fill-rule="nonzero" fill-opacity="1"></path><path clip-path="url(#clip620)" d="M605.642 182.891 L605.642 190.252 L614.415 190.252 L614.415 193.562 L605.642 193.562 L605.642 207.636 Q605.642 210.807 606.498 211.71 Q607.378 212.613 610.04 212.613 L614.415 212.613 L614.415 216.178 L610.04 216.178 Q605.109 216.178 603.234 214.349 Q601.359 212.497 601.359 207.636 L601.359 193.562 L598.234 193.562 L598.234 190.252 L601.359 190.252 L601.359 182.891 L605.642 182.891 Z" fill="#000000" fill-rule="nonzero" fill-opacity="1"></path><path clip-path="url(#clip620)" d="M620.016 190.252 L624.276 190.252 L624.276 216.178 L620.016 216.178 L620.016 190.252 M620.016 180.159 L624.276 180.159 L624.276 185.553 L620.016 185.553 L620.016 180.159 Z" fill="#000000" fill-rule="nonzero" fill-opacity="1"></path><path clip-path="url(#clip620)" d="M630.132 190.252 L634.646 190.252 L642.748 212.011 L650.85 190.252 L655.363 190.252 L645.641 216.178 L639.854 216.178 L630.132 190.252 Z" fill="#000000" fill-rule="nonzero" fill-opacity="1"></path><path clip-path="url(#clip620)" d="M683.419 202.15 L683.419 204.233 L663.836 204.233 Q664.113 208.631 666.475 210.946 Q668.859 213.238 673.095 213.238 Q675.549 213.238 677.84 212.636 Q680.155 212.034 682.424 210.83 L682.424 214.858 Q680.132 215.83 677.724 216.34 Q675.317 216.849 672.84 216.849 Q666.637 216.849 663.002 213.238 Q659.391 209.627 659.391 203.469 Q659.391 197.104 662.817 193.377 Q666.266 189.627 672.1 189.627 Q677.331 189.627 680.363 193.006 Q683.419 196.363 683.419 202.15 M679.16 200.9 Q679.113 197.405 677.192 195.321 Q675.294 193.238 672.146 193.238 Q668.581 193.238 666.428 195.252 Q664.299 197.266 663.975 200.923 L679.16 200.9 Z" fill="#000000" fill-rule="nonzero" fill-opacity="1"></path><path clip-path="url(#clip620)" d="M702.423 190.252 L706.937 190.252 L715.039 212.011 L723.141 190.252 L727.655 190.252 L717.933 216.178 L712.146 216.178 L702.423 190.252 Z" fill="#000000" fill-rule="nonzero" fill-opacity="1"></path><path clip-path="url(#clip620)" d="M745.317 203.145 Q740.155 203.145 738.164 204.326 Q736.173 205.506 736.173 208.354 Q736.173 210.622 737.655 211.965 Q739.159 213.284 741.729 213.284 Q745.27 213.284 747.4 210.784 Q749.553 208.261 749.553 204.094 L749.553 203.145 L745.317 203.145 M753.812 201.386 L753.812 216.178 L749.553 216.178 L749.553 212.242 Q748.094 214.603 745.919 215.738 Q743.743 216.849 740.595 216.849 Q736.613 216.849 734.252 214.627 Q731.914 212.381 731.914 208.631 Q731.914 204.256 734.831 202.034 Q737.77 199.812 743.581 199.812 L749.553 199.812 L749.553 199.395 Q749.553 196.455 747.608 194.858 Q745.687 193.238 742.192 193.238 Q739.97 193.238 737.863 193.77 Q735.757 194.303 733.812 195.367 L733.812 191.432 Q736.15 190.53 738.349 190.09 Q740.548 189.627 742.632 189.627 Q748.257 189.627 751.034 192.543 Q753.812 195.46 753.812 201.386 Z" fill="#000000" fill-rule="nonzero" fill-opacity="1"></path><path clip-path="url(#clip620)" d="M777.608 194.233 Q776.891 193.817 776.034 193.631 Q775.201 193.423 774.182 193.423 Q770.571 193.423 768.627 195.784 Q766.705 198.122 766.705 202.52 L766.705 216.178 L762.423 216.178 L762.423 190.252 L766.705 190.252 L766.705 194.28 Q768.048 191.918 770.201 190.784 Q772.354 189.627 775.432 189.627 Q775.872 189.627 776.405 189.696 Q776.937 189.743 777.585 189.858 L777.608 194.233 Z" fill="#000000" fill-rule="nonzero" fill-opacity="1"></path><path clip-path="url(#clip620)" d="M782.076 190.252 L786.335 190.252 L786.335 216.178 L782.076 216.178 L782.076 190.252 M782.076 180.159 L786.335 180.159 L786.335 185.553 L782.076 185.553 L782.076 180.159 Z" fill="#000000" fill-rule="nonzero" fill-opacity="1"></path><path clip-path="url(#clip620)" d="M807.029 203.145 Q801.867 203.145 799.877 204.326 Q797.886 205.506 797.886 208.354 Q797.886 210.622 799.367 211.965 Q800.872 213.284 803.441 213.284 Q806.983 213.284 809.113 210.784 Q811.265 208.261 811.265 204.094 L811.265 203.145 L807.029 203.145 M815.525 201.386 L815.525 216.178 L811.265 216.178 L811.265 212.242 Q809.807 214.603 807.631 215.738 Q805.455 216.849 802.307 216.849 Q798.326 216.849 795.965 214.627 Q793.627 212.381 793.627 208.631 Q793.627 204.256 796.543 202.034 Q799.483 199.812 805.293 199.812 L811.265 199.812 L811.265 199.395 Q811.265 196.455 809.321 194.858 Q807.4 193.238 803.904 193.238 Q801.682 193.238 799.576 193.77 Q797.469 194.303 795.525 195.367 L795.525 191.432 Q797.863 190.53 800.062 190.09 Q802.261 189.627 804.344 189.627 Q809.969 189.627 812.747 192.543 Q815.525 195.46 815.525 201.386 Z" fill="#000000" fill-rule="nonzero" fill-opacity="1"></path><path clip-path="url(#clip620)" d="M845.849 200.529 L845.849 216.178 L841.589 216.178 L841.589 200.668 Q841.589 196.988 840.154 195.159 Q838.719 193.33 835.849 193.33 Q832.4 193.33 830.409 195.53 Q828.418 197.729 828.418 201.525 L828.418 216.178 L824.136 216.178 L824.136 190.252 L828.418 190.252 L828.418 194.28 Q829.946 191.942 832.006 190.784 Q834.089 189.627 836.798 189.627 Q841.265 189.627 843.557 192.405 Q845.849 195.159 845.849 200.529 Z" fill="#000000" fill-rule="nonzero" fill-opacity="1"></path><path clip-path="url(#clip620)" d="M873.001 191.247 L873.001 195.229 Q871.196 194.233 869.367 193.747 Q867.561 193.238 865.71 193.238 Q861.566 193.238 859.274 195.877 Q856.983 198.492 856.983 203.238 Q856.983 207.983 859.274 210.622 Q861.566 213.238 865.71 213.238 Q867.561 213.238 869.367 212.752 Q871.196 212.242 873.001 211.247 L873.001 215.182 Q871.219 216.016 869.298 216.432 Q867.399 216.849 865.247 216.849 Q859.39 216.849 855.941 213.168 Q852.492 209.488 852.492 203.238 Q852.492 196.895 855.964 193.261 Q859.46 189.627 865.524 189.627 Q867.492 189.627 869.367 190.043 Q871.242 190.437 873.001 191.247 Z" fill="#000000" fill-rule="nonzero" fill-opacity="1"></path><path clip-path="url(#clip620)" d="M902.584 202.15 L902.584 204.233 L883.001 204.233 Q883.279 208.631 885.64 210.946 Q888.024 213.238 892.26 213.238 Q894.714 213.238 897.006 212.636 Q899.321 212.034 901.589 210.83 L901.589 214.858 Q899.297 215.83 896.89 216.34 Q894.483 216.849 892.006 216.849 Q885.802 216.849 882.168 213.238 Q878.557 209.627 878.557 203.469 Q878.557 197.104 881.983 193.377 Q885.432 189.627 891.265 189.627 Q896.496 189.627 899.529 193.006 Q902.584 196.363 902.584 202.15 M898.325 200.9 Q898.279 197.405 896.358 195.321 Q894.459 193.238 891.311 193.238 Q887.747 193.238 885.594 195.252 Q883.464 197.266 883.14 200.923 L898.325 200.9 Z" fill="#000000" fill-rule="nonzero" fill-opacity="1"></path><path clip-path="url(#clip620)" d="M946.82 202.15 L946.82 204.233 L927.237 204.233 Q927.515 208.631 929.876 210.946 Q932.26 213.238 936.496 213.238 Q938.95 213.238 941.242 212.636 Q943.556 212.034 945.825 210.83 L945.825 214.858 Q943.533 215.83 941.126 216.34 Q938.718 216.849 936.242 216.849 Q930.038 216.849 926.404 213.238 Q922.793 209.627 922.793 203.469 Q922.793 197.104 926.219 193.377 Q929.668 189.627 935.501 189.627 Q940.732 189.627 943.765 193.006 Q946.82 196.363 946.82 202.15 M942.561 200.9 Q942.515 197.405 940.593 195.321 Q938.695 193.238 935.547 193.238 Q931.982 193.238 929.83 195.252 Q927.7 197.266 927.376 200.923 L942.561 200.9 Z" fill="#000000" fill-rule="nonzero" fill-opacity="1"></path><path clip-path="url(#clip620)" d="M974.528 190.252 L965.154 202.867 L975.015 216.178 L969.991 216.178 L962.445 205.992 L954.899 216.178 L949.876 216.178 L959.945 202.613 L950.732 190.252 L955.755 190.252 L962.63 199.488 L969.505 190.252 L974.528 190.252 Z" fill="#000000" fill-rule="nonzero" fill-opacity="1"></path><path clip-path="url(#clip620)" d="M985.153 212.289 L985.153 226.039 L980.871 226.039 L980.871 190.252 L985.153 190.252 L985.153 194.187 Q986.496 191.872 988.533 190.761 Q990.593 189.627 993.44 189.627 Q998.163 189.627 1001.1 193.377 Q1004.07 197.127 1004.07 203.238 Q1004.07 209.349 1001.1 213.099 Q998.163 216.849 993.44 216.849 Q990.593 216.849 988.533 215.738 Q986.496 214.603 985.153 212.289 M999.644 203.238 Q999.644 198.539 997.7 195.877 Q995.778 193.192 992.399 193.192 Q989.019 193.192 987.075 195.877 Q985.153 198.539 985.153 203.238 Q985.153 207.937 987.075 210.622 Q989.019 213.284 992.399 213.284 Q995.778 213.284 997.7 210.622 Q999.644 207.937 999.644 203.238 Z" fill="#000000" fill-rule="nonzero" fill-opacity="1"></path><path clip-path="url(#clip620)" d="M1011.13 180.159 L1015.38 180.159 L1015.38 216.178 L1011.13 216.178 L1011.13 180.159 Z" fill="#000000" fill-rule="nonzero" fill-opacity="1"></path><path clip-path="url(#clip620)" d="M1036.08 203.145 Q1030.92 203.145 1028.93 204.326 Q1026.94 205.506 1026.94 208.354 Q1026.94 210.622 1028.42 211.965 Q1029.92 213.284 1032.49 213.284 Q1036.03 213.284 1038.16 210.784 Q1040.32 208.261 1040.32 204.094 L1040.32 203.145 L1036.08 203.145 M1044.57 201.386 L1044.57 216.178 L1040.32 216.178 L1040.32 212.242 Q1038.86 214.603 1036.68 215.738 Q1034.5 216.849 1031.36 216.849 Q1027.38 216.849 1025.01 214.627 Q1022.68 212.381 1022.68 208.631 Q1022.68 204.256 1025.59 202.034 Q1028.53 199.812 1034.34 199.812 L1040.32 199.812 L1040.32 199.395 Q1040.32 196.455 1038.37 194.858 Q1036.45 193.238 1032.95 193.238 Q1030.73 193.238 1028.63 193.77 Q1026.52 194.303 1024.57 195.367 L1024.57 191.432 Q1026.91 190.53 1029.11 190.09 Q1031.31 189.627 1033.39 189.627 Q1039.02 189.627 1041.8 192.543 Q1044.57 195.46 1044.57 201.386 Z" fill="#000000" fill-rule="nonzero" fill-opacity="1"></path><path clip-path="url(#clip620)" d="M1053.35 190.252 L1057.61 190.252 L1057.61 216.178 L1053.35 216.178 L1053.35 190.252 M1053.35 180.159 L1057.61 180.159 L1057.61 185.553 L1053.35 185.553 L1053.35 180.159 Z" fill="#000000" fill-rule="nonzero" fill-opacity="1"></path><path clip-path="url(#clip620)" d="M1088.07 200.529 L1088.07 216.178 L1083.81 216.178 L1083.81 200.668 Q1083.81 196.988 1082.38 195.159 Q1080.94 193.33 1078.07 193.33 Q1074.62 193.33 1072.63 195.53 Q1070.64 197.729 1070.64 201.525 L1070.64 216.178 L1066.36 216.178 L1066.36 190.252 L1070.64 190.252 L1070.64 194.28 Q1072.17 191.942 1074.23 190.784 Q1076.31 189.627 1079.02 189.627 Q1083.49 189.627 1085.78 192.405 Q1088.07 195.159 1088.07 200.529 Z" fill="#000000" fill-rule="nonzero" fill-opacity="1"></path><path clip-path="url(#clip620)" d="M1118.74 202.15 L1118.74 204.233 L1099.16 204.233 Q1099.44 208.631 1101.8 210.946 Q1104.18 213.238 1108.42 213.238 Q1110.87 213.238 1113.16 212.636 Q1115.48 212.034 1117.75 210.83 L1117.75 214.858 Q1115.45 215.83 1113.05 216.34 Q1110.64 216.849 1108.16 216.849 Q1101.96 216.849 1098.32 213.238 Q1094.71 209.627 1094.71 203.469 Q1094.71 197.104 1098.14 193.377 Q1101.59 189.627 1107.42 189.627 Q1112.65 189.627 1115.69 193.006 Q1118.74 196.363 1118.74 202.15 M1114.48 200.9 Q1114.44 197.405 1112.51 195.321 Q1110.62 193.238 1107.47 193.238 Q1103.9 193.238 1101.75 195.252 Q1099.62 197.266 1099.3 200.923 L1114.48 200.9 Z" fill="#000000" fill-rule="nonzero" fill-opacity="1"></path><path clip-path="url(#clip620)" d="M1142.79 194.187 L1142.79 180.159 L1147.05 180.159 L1147.05 216.178 L1142.79 216.178 L1142.79 212.289 Q1141.45 214.603 1139.39 215.738 Q1137.35 216.849 1134.48 216.849 Q1129.78 216.849 1126.82 213.099 Q1123.88 209.349 1123.88 203.238 Q1123.88 197.127 1126.82 193.377 Q1129.78 189.627 1134.48 189.627 Q1137.35 189.627 1139.39 190.761 Q1141.45 191.872 1142.79 194.187 M1128.28 203.238 Q1128.28 207.937 1130.2 210.622 Q1132.14 213.284 1135.52 213.284 Q1138.9 213.284 1140.85 210.622 Q1142.79 207.937 1142.79 203.238 Q1142.79 198.539 1140.85 195.877 Q1138.9 193.192 1135.52 193.192 Q1132.14 193.192 1130.2 195.877 Q1128.28 198.539 1128.28 203.238 Z" fill="#000000" fill-rule="nonzero" fill-opacity="1"></path></svg>