<svg xmlns="http://www.w3.org/2000/svg" xmlns:xlink="http://www.w3.org/1999/xlink" width="600" height="400" viewBox="0 0 2400 1600">
<defs>
  <clipPath id="clip740">
    <rect x="0" y="0" width="2400" height="1600"></rect>
  </clipPath>
</defs>
<path clip-path="url(#clip740)" d="M0 1600 L2400 1600 L2400 0 L0 0  Z" fill="#ffffff" fill-rule="evenodd" fill-opacity="1"></path>
<defs>
  <clipPath id="clip741">
    <rect x="480" y="0" width="1681" height="1600"></rect>
  </clipPath>
</defs>
<path clip-path="url(#clip740)" d="M192.709 1486.45 L2352.76 1486.45 L2352.76 47.2441 L192.709 47.2441  Z" fill="#ffffff" fill-rule="evenodd" fill-opacity="1"></path>
<defs>
  <clipPath id="clip742">
    <rect x="192" y="47" width="2161" height="1440"></rect>
  </clipPath>
</defs>
<polyline clip-path="url(#clip742)" style="stroke:#000000; stroke-linecap:round; stroke-linejoin:round; stroke-width:2; stroke-opacity:0.1; fill:none" points="253.843,1486.45 253.843,47.2441 "></polyline>
<polyline clip-path="url(#clip742)" style="stroke:#000000; stroke-linecap:round; stroke-linejoin:round; stroke-width:2; stroke-opacity:0.1; fill:none" points="836.065,1486.45 836.065,47.2441 "></polyline>
<polyline clip-path="url(#clip742)" style="stroke:#000000; stroke-linecap:round; stroke-linejoin:round; stroke-width:2; stroke-opacity:0.1; fill:none" points="1418.29,1486.45 1418.29,47.2441 "></polyline>
<polyline clip-path="url(#clip742)" style="stroke:#000000; stroke-linecap:round; stroke-linejoin:round; stroke-width:2; stroke-opacity:0.1; fill:none" points="2000.51,1486.45 2000.51,47.2441 "></polyline>
<polyline clip-path="url(#clip740)" style="stroke:#000000; stroke-linecap:round; stroke-linejoin:round; stroke-width:4; stroke-opacity:1; fill:none" points="192.709,1486.45 2352.76,1486.45 "></polyline>
<polyline clip-path="url(#clip740)" style="stroke:#000000; stroke-linecap:round; stroke-linejoin:round; stroke-width:4; stroke-opacity:1; fill:none" points="253.843,1486.45 253.843,1467.55 "></polyline>
<polyline clip-path="url(#clip740)" style="stroke:#000000; stroke-linecap:round; stroke-linejoin:round; stroke-width:4; stroke-opacity:1; fill:none" points="836.065,1486.45 836.065,1467.55 "></polyline>
<polyline clip-path="url(#clip740)" style="stroke:#000000; stroke-linecap:round; stroke-linejoin:round; stroke-width:4; stroke-opacity:1; fill:none" points="1418.29,1486.45 1418.29,1467.55 "></polyline>
<polyline clip-path="url(#clip740)" style="stroke:#000000; stroke-linecap:round; stroke-linejoin:round; stroke-width:4; stroke-opacity:1; fill:none" points="2000.51,1486.45 2000.51,1467.55 "></polyline>
<path clip-path="url(#clip740)" d="M253.843 1517.37 Q250.231 1517.37 248.403 1520.93 Q246.597 1524.47 246.597 1531.6 Q246.597 1538.71 248.403 1542.27 Q250.231 1545.82 253.843 1545.82 Q257.477 1545.82 259.282 1542.27 Q261.111 1538.71 261.111 1531.6 Q261.111 1524.47 259.282 1520.93 Q257.477 1517.37 253.843 1517.37 M253.843 1513.66 Q259.653 1513.66 262.708 1518.27 Q265.787 1522.85 265.787 1531.6 Q265.787 1540.33 262.708 1544.94 Q259.653 1549.52 253.843 1549.52 Q248.032 1549.52 244.954 1544.94 Q241.898 1540.33 241.898 1531.6 Q241.898 1522.85 244.954 1518.27 Q248.032 1513.66 253.843 1513.66 Z" fill="#000000" fill-rule="nonzero" fill-opacity="1"></path><path clip-path="url(#clip740)" d="M799.758 1544.91 L816.077 1544.91 L816.077 1548.85 L794.133 1548.85 L794.133 1544.91 Q796.795 1542.16 801.378 1537.53 Q805.985 1532.88 807.165 1531.53 Q809.41 1529.01 810.29 1527.27 Q811.193 1525.51 811.193 1523.82 Q811.193 1521.07 809.248 1519.33 Q807.327 1517.6 804.225 1517.6 Q802.026 1517.6 799.573 1518.36 Q797.142 1519.13 794.364 1520.68 L794.364 1515.95 Q797.188 1514.82 799.642 1514.24 Q802.096 1513.66 804.133 1513.66 Q809.503 1513.66 812.697 1516.35 Q815.892 1519.03 815.892 1523.52 Q815.892 1525.65 815.082 1527.57 Q814.295 1529.47 812.188 1532.07 Q811.61 1532.74 808.508 1535.95 Q805.406 1539.15 799.758 1544.91 Z" fill="#000000" fill-rule="nonzero" fill-opacity="1"></path><path clip-path="url(#clip740)" d="M835.892 1517.37 Q832.281 1517.37 830.452 1520.93 Q828.646 1524.47 828.646 1531.6 Q828.646 1538.71 830.452 1542.27 Q832.281 1545.82 835.892 1545.82 Q839.526 1545.82 841.332 1542.27 Q843.16 1538.71 843.16 1531.6 Q843.16 1524.47 841.332 1520.93 Q839.526 1517.37 835.892 1517.37 M835.892 1513.66 Q841.702 1513.66 844.757 1518.27 Q847.836 1522.85 847.836 1531.6 Q847.836 1540.33 844.757 1544.94 Q841.702 1549.52 835.892 1549.52 Q830.082 1549.52 827.003 1544.94 Q823.947 1540.33 823.947 1531.6 Q823.947 1522.85 827.003 1518.27 Q830.082 1513.66 835.892 1513.66 Z" fill="#000000" fill-rule="nonzero" fill-opacity="1"></path><path clip-path="url(#clip740)" d="M866.054 1517.37 Q862.443 1517.37 860.614 1520.93 Q858.808 1524.47 858.808 1531.6 Q858.808 1538.71 860.614 1542.27 Q862.443 1545.82 866.054 1545.82 Q869.688 1545.82 871.493 1542.27 Q873.322 1538.71 873.322 1531.6 Q873.322 1524.47 871.493 1520.93 Q869.688 1517.37 866.054 1517.37 M866.054 1513.66 Q871.864 1513.66 874.919 1518.27 Q877.998 1522.85 877.998 1531.6 Q877.998 1540.33 874.919 1544.94 Q871.864 1549.52 866.054 1549.52 Q860.244 1549.52 857.165 1544.94 Q854.109 1540.33 854.109 1531.6 Q854.109 1522.85 857.165 1518.27 Q860.244 1513.66 866.054 1513.66 Z" fill="#000000" fill-rule="nonzero" fill-opacity="1"></path><path clip-path="url(#clip740)" d="M1391.38 1518.36 L1379.57 1536.81 L1391.38 1536.81 L1391.38 1518.36 M1390.15 1514.29 L1396.03 1514.29 L1396.03 1536.81 L1400.96 1536.81 L1400.96 1540.7 L1396.03 1540.7 L1396.03 1548.85 L1391.38 1548.85 L1391.38 1540.7 L1375.78 1540.7 L1375.78 1536.19 L1390.15 1514.29 Z" fill="#000000" fill-rule="nonzero" fill-opacity="1"></path><path clip-path="url(#clip740)" d="M1418.69 1517.37 Q1415.08 1517.37 1413.25 1520.93 Q1411.45 1524.47 1411.45 1531.6 Q1411.45 1538.71 1413.25 1542.27 Q1415.08 1545.82 1418.69 1545.82 Q1422.33 1545.82 1424.13 1542.27 Q1425.96 1538.71 1425.96 1531.6 Q1425.96 1524.47 1424.13 1520.93 Q1422.33 1517.37 1418.69 1517.37 M1418.69 1513.66 Q1424.5 1513.66 1427.56 1518.27 Q1430.64 1522.85 1430.64 1531.6 Q1430.64 1540.33 1427.56 1544.94 Q1424.5 1549.52 1418.69 1549.52 Q1412.88 1549.52 1409.8 1544.94 Q1406.75 1540.33 1406.75 1531.6 Q1406.75 1522.85 1409.8 1518.27 Q1412.88 1513.66 1418.69 1513.66 Z" fill="#000000" fill-rule="nonzero" fill-opacity="1"></path><path clip-path="url(#clip740)" d="M1448.86 1517.37 Q1445.24 1517.37 1443.42 1520.93 Q1441.61 1524.47 1441.61 1531.6 Q1441.61 1538.71 1443.42 1542.27 Q1445.24 1545.82 1448.86 1545.82 Q1452.49 1545.82 1454.29 1542.27 Q1456.12 1538.71 1456.12 1531.6 Q1456.12 1524.47 1454.29 1520.93 Q1452.49 1517.37 1448.86 1517.37 M1448.86 1513.66 Q1454.67 1513.66 1457.72 1518.27 Q1460.8 1522.85 1460.8 1531.6 Q1460.8 1540.33 1457.72 1544.94 Q1454.67 1549.52 1448.86 1549.52 Q1443.05 1549.52 1439.97 1544.94 Q1436.91 1540.33 1436.91 1531.6 Q1436.91 1522.85 1439.97 1518.27 Q1443.05 1513.66 1448.86 1513.66 Z" fill="#000000" fill-rule="nonzero" fill-opacity="1"></path><path clip-path="url(#clip740)" d="M1970.84 1529.7 Q1967.69 1529.7 1965.84 1531.86 Q1964.01 1534.01 1964.01 1537.76 Q1964.01 1541.49 1965.84 1543.66 Q1967.69 1545.82 1970.84 1545.82 Q1973.98 1545.82 1975.81 1543.66 Q1977.66 1541.49 1977.66 1537.76 Q1977.66 1534.01 1975.81 1531.86 Q1973.98 1529.7 1970.84 1529.7 M1980.12 1515.05 L1980.12 1519.31 Q1978.36 1518.48 1976.55 1518.04 Q1974.77 1517.6 1973.01 1517.6 Q1968.38 1517.6 1965.93 1520.72 Q1963.5 1523.85 1963.15 1530.17 Q1964.52 1528.15 1966.58 1527.09 Q1968.64 1526 1971.11 1526 Q1976.32 1526 1979.33 1529.17 Q1982.36 1532.32 1982.36 1537.76 Q1982.36 1543.08 1979.21 1546.3 Q1976.07 1549.52 1970.84 1549.52 Q1964.84 1549.52 1961.67 1544.94 Q1958.5 1540.33 1958.5 1531.6 Q1958.5 1523.41 1962.39 1518.55 Q1966.28 1513.66 1972.83 1513.66 Q1974.59 1513.66 1976.37 1514.01 Q1978.17 1514.36 1980.12 1515.05 Z" fill="#000000" fill-rule="nonzero" fill-opacity="1"></path><path clip-path="url(#clip740)" d="M2000.42 1517.37 Q1996.81 1517.37 1994.98 1520.93 Q1993.17 1524.47 1993.17 1531.6 Q1993.17 1538.71 1994.98 1542.27 Q1996.81 1545.82 2000.42 1545.82 Q2004.05 1545.82 2005.86 1542.27 Q2007.69 1538.71 2007.69 1531.6 Q2007.69 1524.47 2005.86 1520.93 Q2004.05 1517.37 2000.42 1517.37 M2000.42 1513.66 Q2006.23 1513.66 2009.28 1518.27 Q2012.36 1522.85 2012.36 1531.6 Q2012.36 1540.33 2009.28 1544.94 Q2006.23 1549.52 2000.42 1549.52 Q1994.61 1549.52 1991.53 1544.94 Q1988.47 1540.33 1988.47 1531.6 Q1988.47 1522.85 1991.53 1518.27 Q1994.61 1513.66 2000.42 1513.66 Z" fill="#000000" fill-rule="nonzero" fill-opacity="1"></path><path clip-path="url(#clip740)" d="M2030.58 1517.37 Q2026.97 1517.37 2025.14 1520.93 Q2023.34 1524.47 2023.34 1531.6 Q2023.34 1538.71 2025.14 1542.27 Q2026.97 1545.82 2030.58 1545.82 Q2034.21 1545.82 2036.02 1542.27 Q2037.85 1538.71 2037.85 1531.6 Q2037.85 1524.47 2036.02 1520.93 Q2034.21 1517.37 2030.58 1517.37 M2030.58 1513.66 Q2036.39 1513.66 2039.45 1518.27 Q2042.52 1522.85 2042.52 1531.6 Q2042.52 1540.33 2039.45 1544.94 Q2036.39 1549.52 2030.58 1549.52 Q2024.77 1549.52 2021.69 1544.94 Q2018.64 1540.33 2018.64 1531.6 Q2018.64 1522.85 2021.69 1518.27 Q2024.77 1513.66 2030.58 1513.66 Z" fill="#000000" fill-rule="nonzero" fill-opacity="1"></path><polyline clip-path="url(#clip742)" style="stroke:#000000; stroke-linecap:round; stroke-linejoin:round; stroke-width:2; stroke-opacity:0.1; fill:none" points="192.709,1423.42 2352.76,1423.42 "></polyline>
<polyline clip-path="url(#clip742)" style="stroke:#000000; stroke-linecap:round; stroke-linejoin:round; stroke-width:2; stroke-opacity:0.1; fill:none" points="192.709,1112.9 2352.76,1112.9 "></polyline>
<polyline clip-path="url(#clip742)" style="stroke:#000000; stroke-linecap:round; stroke-linejoin:round; stroke-width:2; stroke-opacity:0.1; fill:none" points="192.709,802.366 2352.76,802.366 "></polyline>
<polyline clip-path="url(#clip742)" style="stroke:#000000; stroke-linecap:round; stroke-linejoin:round; stroke-width:2; stroke-opacity:0.1; fill:none" points="192.709,491.837 2352.76,491.837 "></polyline>
<polyline clip-path="url(#clip742)" style="stroke:#000000; stroke-linecap:round; stroke-linejoin:round; stroke-width:2; stroke-opacity:0.1; fill:none" points="192.709,181.308 2352.76,181.308 "></polyline>
<polyline clip-path="url(#clip740)" style="stroke:#000000; stroke-linecap:round; stroke-linejoin:round; stroke-width:4; stroke-opacity:1; fill:none" points="192.709,1486.45 192.709,47.2441 "></polyline>
<polyline clip-path="url(#clip740)" style="stroke:#000000; stroke-linecap:round; stroke-linejoin:round; stroke-width:4; stroke-opacity:1; fill:none" points="192.709,1423.42 211.607,1423.42 "></polyline>
<polyline clip-path="url(#clip740)" style="stroke:#000000; stroke-linecap:round; stroke-linejoin:round; stroke-width:4; stroke-opacity:1; fill:none" points="192.709,1112.9 211.607,1112.9 "></polyline>
<polyline clip-path="url(#clip740)" style="stroke:#000000; stroke-linecap:round; stroke-linejoin:round; stroke-width:4; stroke-opacity:1; fill:none" points="192.709,802.366 211.607,802.366 "></polyline>
<polyline clip-path="url(#clip740)" style="stroke:#000000; stroke-linecap:round; stroke-linejoin:round; stroke-width:4; stroke-opacity:1; fill:none" points="192.709,491.837 211.607,491.837 "></polyline>
<polyline clip-path="url(#clip740)" style="stroke:#000000; stroke-linecap:round; stroke-linejoin:round; stroke-width:4; stroke-opacity:1; fill:none" points="192.709,181.308 211.607,181.308 "></polyline>
<path clip-path="url(#clip740)" d="M51.3625 1423.88 L81.0383 1423.88 L81.0383 1427.81 L51.3625 1427.81 L51.3625 1423.88 Z" fill="#000000" fill-rule="nonzero" fill-opacity="1"></path><path clip-path="url(#clip740)" d="M101.131 1409.22 Q97.5197 1409.22 95.691 1412.79 Q93.8854 1416.33 93.8854 1423.46 Q93.8854 1430.57 95.691 1434.13 Q97.5197 1437.67 101.131 1437.67 Q104.765 1437.67 106.571 1434.13 Q108.399 1430.57 108.399 1423.46 Q108.399 1416.33 106.571 1412.79 Q104.765 1409.22 101.131 1409.22 M101.131 1405.52 Q106.941 1405.52 109.996 1410.13 Q113.075 1414.71 113.075 1423.46 Q113.075 1432.19 109.996 1436.79 Q106.941 1441.38 101.131 1441.38 Q95.3206 1441.38 92.2419 1436.79 Q89.1864 1432.19 89.1864 1423.46 Q89.1864 1414.71 92.2419 1410.13 Q95.3206 1405.52 101.131 1405.52 Z" fill="#000000" fill-rule="nonzero" fill-opacity="1"></path><path clip-path="url(#clip740)" d="M121.293 1434.83 L126.177 1434.83 L126.177 1440.7 L121.293 1440.7 L121.293 1434.83 Z" fill="#000000" fill-rule="nonzero" fill-opacity="1"></path><path clip-path="url(#clip740)" d="M140.39 1436.77 L156.709 1436.77 L156.709 1440.7 L134.765 1440.7 L134.765 1436.77 Q137.427 1434.02 142.01 1429.39 Q146.617 1424.73 147.797 1423.39 Q150.043 1420.87 150.922 1419.13 Q151.825 1417.37 151.825 1415.68 Q151.825 1412.93 149.88 1411.19 Q147.959 1409.46 144.857 1409.46 Q142.658 1409.46 140.205 1410.22 Q137.774 1410.98 134.996 1412.53 L134.996 1407.81 Q137.82 1406.68 140.274 1406.1 Q142.728 1405.52 144.765 1405.52 Q150.135 1405.52 153.33 1408.21 Q156.524 1410.89 156.524 1415.38 Q156.524 1417.51 155.714 1419.43 Q154.927 1421.33 152.82 1423.92 Q152.242 1424.59 149.14 1427.81 Q146.038 1431.01 140.39 1436.77 Z" fill="#000000" fill-rule="nonzero" fill-opacity="1"></path><path clip-path="url(#clip740)" d="M50.9921 1113.35 L80.6679 1113.35 L80.6679 1117.28 L50.9921 1117.28 L50.9921 1113.35 Z" fill="#000000" fill-rule="nonzero" fill-opacity="1"></path><path clip-path="url(#clip740)" d="M100.76 1098.69 Q97.1493 1098.69 95.3206 1102.26 Q93.515 1105.8 93.515 1112.93 Q93.515 1120.04 95.3206 1123.6 Q97.1493 1127.14 100.76 1127.14 Q104.395 1127.14 106.2 1123.6 Q108.029 1120.04 108.029 1112.93 Q108.029 1105.8 106.2 1102.26 Q104.395 1098.69 100.76 1098.69 M100.76 1094.99 Q106.571 1094.99 109.626 1099.6 Q112.705 1104.18 112.705 1112.93 Q112.705 1121.66 109.626 1126.26 Q106.571 1130.85 100.76 1130.85 Q94.9502 1130.85 91.8715 1126.26 Q88.816 1121.66 88.816 1112.93 Q88.816 1104.18 91.8715 1099.6 Q94.9502 1094.99 100.76 1094.99 Z" fill="#000000" fill-rule="nonzero" fill-opacity="1"></path><path clip-path="url(#clip740)" d="M120.922 1124.3 L125.807 1124.3 L125.807 1130.18 L120.922 1130.18 L120.922 1124.3 Z" fill="#000000" fill-rule="nonzero" fill-opacity="1"></path><path clip-path="url(#clip740)" d="M136.802 1126.24 L144.441 1126.24 L144.441 1099.87 L136.131 1101.54 L136.131 1097.28 L144.394 1095.62 L149.07 1095.62 L149.07 1126.24 L156.709 1126.24 L156.709 1130.18 L136.802 1130.18 L136.802 1126.24 Z" fill="#000000" fill-rule="nonzero" fill-opacity="1"></path><path clip-path="url(#clip740)" d="M99.5335 788.165 Q95.9224 788.165 94.0937 791.73 Q92.2882 795.271 92.2882 802.401 Q92.2882 809.507 94.0937 813.072 Q95.9224 816.614 99.5335 816.614 Q103.168 816.614 104.973 813.072 Q106.802 809.507 106.802 802.401 Q106.802 795.271 104.973 791.73 Q103.168 788.165 99.5335 788.165 M99.5335 784.461 Q105.344 784.461 108.399 789.068 Q111.478 793.651 111.478 802.401 Q111.478 811.128 108.399 815.734 Q105.344 820.318 99.5335 820.318 Q93.7234 820.318 90.6447 815.734 Q87.5892 811.128 87.5892 802.401 Q87.5892 793.651 90.6447 789.068 Q93.7234 784.461 99.5335 784.461 Z" fill="#000000" fill-rule="nonzero" fill-opacity="1"></path><path clip-path="url(#clip740)" d="M119.695 813.767 L124.58 813.767 L124.58 819.646 L119.695 819.646 L119.695 813.767 Z" fill="#000000" fill-rule="nonzero" fill-opacity="1"></path><path clip-path="url(#clip740)" d="M144.765 788.165 Q141.154 788.165 139.325 791.73 Q137.519 795.271 137.519 802.401 Q137.519 809.507 139.325 813.072 Q141.154 816.614 144.765 816.614 Q148.399 816.614 150.205 813.072 Q152.033 809.507 152.033 802.401 Q152.033 795.271 150.205 791.73 Q148.399 788.165 144.765 788.165 M144.765 784.461 Q150.575 784.461 153.63 789.068 Q156.709 793.651 156.709 802.401 Q156.709 811.128 153.63 815.734 Q150.575 820.318 144.765 820.318 Q138.955 820.318 135.876 815.734 Q132.82 811.128 132.82 802.401 Q132.82 793.651 135.876 789.068 Q138.955 784.461 144.765 784.461 Z" fill="#000000" fill-rule="nonzero" fill-opacity="1"></path><path clip-path="url(#clip740)" d="M100.76 477.636 Q97.1493 477.636 95.3206 481.2 Q93.515 484.742 93.515 491.872 Q93.515 498.978 95.3206 502.543 Q97.1493 506.085 100.76 506.085 Q104.395 506.085 106.2 502.543 Q108.029 498.978 108.029 491.872 Q108.029 484.742 106.2 481.2 Q104.395 477.636 100.76 477.636 M100.76 473.932 Q106.571 473.932 109.626 478.538 Q112.705 483.122 112.705 491.872 Q112.705 500.599 109.626 505.205 Q106.571 509.788 100.76 509.788 Q94.9502 509.788 91.8715 505.205 Q88.816 500.599 88.816 491.872 Q88.816 483.122 91.8715 478.538 Q94.9502 473.932 100.76 473.932 Z" fill="#000000" fill-rule="nonzero" fill-opacity="1"></path><path clip-path="url(#clip740)" d="M120.922 503.237 L125.807 503.237 L125.807 509.117 L120.922 509.117 L120.922 503.237 Z" fill="#000000" fill-rule="nonzero" fill-opacity="1"></path><path clip-path="url(#clip740)" d="M136.802 505.182 L144.441 505.182 L144.441 478.816 L136.131 480.483 L136.131 476.224 L144.394 474.557 L149.07 474.557 L149.07 505.182 L156.709 505.182 L156.709 509.117 L136.802 509.117 L136.802 505.182 Z" fill="#000000" fill-rule="nonzero" fill-opacity="1"></path><path clip-path="url(#clip740)" d="M101.131 167.106 Q97.5197 167.106 95.691 170.671 Q93.8854 174.213 93.8854 181.342 Q93.8854 188.449 95.691 192.014 Q97.5197 195.555 101.131 195.555 Q104.765 195.555 106.571 192.014 Q108.399 188.449 108.399 181.342 Q108.399 174.213 106.571 170.671 Q104.765 167.106 101.131 167.106 M101.131 163.403 Q106.941 163.403 109.996 168.009 Q113.075 172.592 113.075 181.342 Q113.075 190.069 109.996 194.676 Q106.941 199.259 101.131 199.259 Q95.3206 199.259 92.2419 194.676 Q89.1864 190.069 89.1864 181.342 Q89.1864 172.592 92.2419 168.009 Q95.3206 163.403 101.131 163.403 Z" fill="#000000" fill-rule="nonzero" fill-opacity="1"></path><path clip-path="url(#clip740)" d="M121.293 192.708 L126.177 192.708 L126.177 198.588 L121.293 198.588 L121.293 192.708 Z" fill="#000000" fill-rule="nonzero" fill-opacity="1"></path><path clip-path="url(#clip740)" d="M140.39 194.653 L156.709 194.653 L156.709 198.588 L134.765 198.588 L134.765 194.653 Q137.427 191.898 142.01 187.268 Q146.617 182.616 147.797 181.273 Q150.043 178.75 150.922 177.014 Q151.825 175.254 151.825 173.565 Q151.825 170.81 149.88 169.074 Q147.959 167.338 144.857 167.338 Q142.658 167.338 140.205 168.102 Q137.774 168.866 134.996 170.417 L134.996 165.694 Q137.82 164.56 140.274 163.981 Q142.728 163.403 144.765 163.403 Q150.135 163.403 153.33 166.088 Q156.524 168.773 156.524 173.264 Q156.524 175.393 155.714 177.315 Q154.927 179.213 152.82 181.805 Q152.242 182.477 149.14 185.694 Q146.038 188.889 140.39 194.653 Z" fill="#000000" fill-rule="nonzero" fill-opacity="1"></path><polyline clip-path="url(#clip742)" style="stroke:#009af9; stroke-linecap:round; stroke-linejoin:round; stroke-width:4; stroke-opacity:1; fill:none" points="253.843,640.486 265.554,639.073 277.265,637.607 288.977,636.187 300.688,634.98 312.399,634.028 324.111,632.785 335.822,631.149 347.534,628.447 359.245,624.603 370.956,620.042 382.668,615.607 394.379,611.678 406.09,609.441 417.802,609.919 429.513,613.657 441.225,621.804 452.936,635.287 464.647,654.89 476.359,681.392 488.07,715.086 499.782,755.538 511.493,801.535 523.204,851.522 534.916,902.589 546.627,952.427 558.338,999.105 570.05,1040.89 581.761,1077.76 593.473,1108.76 605.184,1134.1 616.895,1152.71 628.607,1163.07 640.318,1162.33 652.029,1147.98 663.741,1117.79 675.452,1071.34 687.164,1009.7 698.875,936.47 710.586,856.499 722.298,775.632 734.009,698.784 745.72,630.123 757.432,571.865 769.143,524.231 780.855,486.037 792.566,455.308 804.277,429.808 815.989,407.841 827.7,388.458 839.412,371.26 851.123,356.614 862.834,345.913 874.546,340.041 886.257,340.247 897.968,347.531 909.68,362.792 921.391,386.186 933.103,417.835 944.814,456.933 956.525,502.844 968.237,553.931 979.948,607.909 991.659,663.127 1003.37,717.248 1015.08,768.471 1026.79,815.536 1038.5,857.74 1050.22,894.77 1061.93,927.37 1073.64,956.251 1085.35,982.554 1097.06,1006.86 1108.77,1030.1 1120.48,1052.06 1132.2,1073.02 1143.91,1092.19 1155.62,1109.29 1167.33,1123.96 1179.04,1135.64 1190.75,1144.29 1202.46,1149.7 1214.18,1151.97 1225.89,1151.11 1237.6,1147.31 1249.31,1140.7 1261.02,1131.6 1272.73,1120.72 1284.44,1108.38 1296.16,1095.04 1307.87,1082.08 1319.58,1070.01 1331.29,1059.61 1343,1051.6 1354.71,1046.35 1366.42,1044.01 1378.13,1044.03 1389.85,1046.41 1401.56,1050.31 1413.27,1055.42 1424.98,1061.48 1436.69,1067.92 1448.4,1075.52 1460.11,1084.27 1471.83,1094.08 1483.54,1104.99 1495.25,1116.02 1506.96,1126.2 1518.67,1134.35 1530.38,1138.84 1542.09,1138.88 1553.81,1134.3 1565.52,1125.09 1577.23,1112.4 1588.94,1097.76 1600.65,1082.36 1612.36,1067.08 1624.07,1052.02 1635.79,1037.32 1647.5,1021.94 1659.21,1004.99 1670.92,985.694 1682.63,963.475 1694.34,939.071 1706.05,912.891 1717.76,886.148 1729.48,860.189 1741.19,836.202 1752.9,814.584 1764.61,795.677 1776.32,779.278 1788.03,764.151 1799.74,750.661 1811.46,737.596 1823.17,725.174 1834.88,713.266 1846.59,701.757 1858.3,690.696 1870.01,680.806 1881.72,671.51 1893.44,662.919 1905.15,655.086 1916.86,647.757 1928.57,640.534 1940.28,633.83 1951.99,627.477 1963.7,621.829 1975.42,617.421 1987.13,612.038 1998.84,606.919 2010.55,601.412 2022.26,595.886 2033.97,590.604 2045.68,585.838 2057.39,582.052 2069.11,578.787 2080.82,576.312 2092.53,575.476 2104.24,574.645 2115.95,575.079 2127.66,575.851 2139.37,577.064 2151.09,578.695 2162.8,580.369 2174.51,581.791 2186.22,582.95 2197.93,583.636 2209.64,583.776 2221.35,584.001 2233.07,584.081 2244.78,584.447 2256.49,585.159 2268.2,585.695 2279.91,586.424 2291.62,586.417 "></polyline>
<polyline clip-path="url(#clip742)" style="stroke:#e26f46; stroke-linecap:round; stroke-linejoin:round; stroke-width:4; stroke-opacity:1; fill:none" points="253.843,1102.21 265.554,1093.08 277.265,1088.54 288.977,1088.34 300.688,1091.96 312.399,1098.29 324.111,1106.07 335.822,1114.69 347.534,1123.42 359.245,1132.11 370.956,1140.53 382.668,1148.5 394.379,1154.77 406.09,1157.66 417.802,1154.98 429.513,1143.6 441.225,1121.02 452.936,1085.33 464.647,1036.13 476.359,974.284 488.07,901.792 499.782,822.071 511.493,738.321 523.204,654.03 534.916,571.819 546.627,494.015 558.338,423.194 570.05,362.045 581.761,314.321 593.473,284.14 605.184,276.194 616.895,294.006 628.607,340.308 640.318,414.847 652.029,514.725 663.741,634.599 675.452,767.288 687.164,904.705 698.875,1038.6 710.586,1161.55 722.298,1267.79 734.009,1352.37 745.72,1411.8 757.432,1443.61 769.143,1445.72 780.855,1417.55 792.566,1358.93 804.277,1272.02 815.989,1160.08 827.7,1028.57 839.412,883.915 851.123,734.241 862.834,587.652 874.546,451.585 886.257,332.404 897.968,235.158 909.68,162.244 921.391,114.456 933.103,90.6146 944.814,87.9763 956.525,102.759 968.237,130.326 979.948,165.792 991.659,204.659 1003.37,242.645 1015.08,276.127 1026.79,302.939 1038.5,321.528 1050.22,331.097 1061.93,332.224 1073.64,325.957 1085.35,313.75 1097.06,297.667 1108.77,279.901 1120.48,262.502 1132.2,247.795 1143.91,237.785 1155.62,233.966 1167.33,237.431 1179.04,249.119 1190.75,268.59 1202.46,295.003 1214.18,326.917 1225.89,362.179 1237.6,398.531 1249.31,434.279 1261.02,467.06 1272.73,496.283 1284.44,521.069 1296.16,541.248 1307.87,557.168 1319.58,569.243 1331.29,577.643 1343,582.619 1354.71,584.517 1366.42,583.927 1378.13,581.691 1389.85,579.066 1401.56,577.659 1413.27,579.175 1424.98,585.246 1436.69,596.988 1448.4,614.714 1460.11,638.621 1471.83,667.616 1483.54,700.518 1495.25,735.669 1506.96,771.352 1518.67,805.78 1530.38,837.492 1542.09,864.939 1553.81,887.212 1565.52,903.503 1577.23,913.487 1588.94,917.769 1600.65,916.965 1612.36,912.499 1624.07,905.567 1635.79,897.657 1647.5,890.083 1659.21,883.983 1670.92,879.932 1682.63,878.336 1694.34,878.957 1706.05,881.714 1717.76,886.382 1729.48,892.68 1741.19,900.358 1752.9,909.052 1764.61,918.908 1776.32,929.798 1788.03,941.234 1799.74,953.291 1811.46,965.637 1823.17,978.119 1834.88,990.238 1846.59,1001.22 1858.3,1011.51 1870.01,1020.81 1881.72,1028.01 1893.44,1034.54 1905.15,1040.06 1916.86,1044.55 1928.57,1048.6 1940.28,1052.08 1951.99,1055.65 1963.7,1059.77 1975.42,1064.83 1987.13,1069.65 1998.84,1075.72 2010.55,1083.69 2022.26,1093.41 2033.97,1105.04 2045.68,1118.52 2057.39,1133.41 2069.11,1148.71 2080.82,1163.63 2092.53,1177.38 2104.24,1188.83 2115.95,1198 2127.66,1204.36 2139.37,1207.31 2151.09,1209.59 2162.8,1210.52 2174.51,1210.33 2186.22,1208.95 2197.93,1206.52 2209.64,1202.62 2221.35,1197.3 2233.07,1190.45 2244.78,1182.42 2256.49,1173.7 2268.2,1165.38 2279.91,1157.45 2291.62,1150.68 "></polyline>
<polyline clip-path="url(#clip742)" style="stroke:#3da44d; stroke-linecap:round; stroke-linejoin:round; stroke-width:4; stroke-opacity:1; fill:none" points="253.843,803.873 265.554,801.94 277.265,798.814 288.977,794.597 300.688,790.546 312.399,787.548 324.111,785.98 335.822,786.197 347.534,787.736 359.245,790.196 370.956,792.52 382.668,794.419 394.379,795.242 406.09,795.14 417.802,793.955 429.513,791.761 441.225,788.12 452.936,782.554 464.647,774.794 476.359,764.649 488.07,751.866 499.782,737.656 511.493,722.909 523.204,709.482 534.916,698.509 546.627,691.256 558.338,688.042 570.05,688.187 581.761,691.051 593.473,695.351 605.184,700.244 616.895,705.289 628.607,710.552 640.318,716.704 652.029,724.255 663.741,733.925 675.452,745.771 687.164,758.52 698.875,770.784 710.586,781.225 722.298,787.964 734.009,790.368 745.72,789.146 757.432,784.665 769.143,778.879 780.855,773.036 792.566,767.915 804.277,763.739 815.989,759.758 827.7,755.124 839.412,748.588 851.123,739.15 862.834,727.434 874.546,714.122 886.257,700.047 897.968,686.899 909.68,675.394 921.391,665.917 933.103,658.7 944.814,653.262 956.525,648.952 968.237,645.896 979.948,643.009 991.659,641.077 1003.37,639.967 1015.08,639.982 1026.79,641.085 1038.5,643.219 1050.22,645.868 1061.93,648.712 1073.64,651.137 1085.35,653.188 1097.06,654.634 1108.77,655.752 1120.48,657.049 1132.2,658.925 1143.91,661.364 1155.62,664.58 1167.33,668.101 1179.04,671.546 1190.75,674.648 1202.46,676.603 1214.18,677.62 1225.89,678.399 1237.6,679.436 1249.31,681.395 1261.02,685.393 1272.73,691.877 1284.44,701.418 1296.16,713.31 1307.87,727.433 1319.58,742.765 1331.29,758.612 1343,773.989 1354.71,788.19 1366.42,801.126 1378.13,812.282 1389.85,822.639 1401.56,831.555 1413.27,840.079 1424.98,848.214 1436.69,855.894 1448.4,863.189 1460.11,869.738 1471.83,875.106 1483.54,879.347 1495.25,881.778 1506.96,882.642 1518.67,882.452 1530.38,881.355 1542.09,880.168 1553.81,879.613 1565.52,880.116 1577.23,881.97 1588.94,885.127 1600.65,889.615 1612.36,894.662 1624.07,899.577 1635.79,903.99 1647.5,907.828 1659.21,910.725 1670.92,913.043 1682.63,914.872 1694.34,917.04 1706.05,919.492 1717.76,922.365 1729.48,925.325 1741.19,928.135 1752.9,930.177 1764.61,931.269 1776.32,931.111 1788.03,929.733 1799.74,927.965 1811.46,925.856 1823.17,924.146 1834.88,923.036 1846.59,922.083 1858.3,921.626 1870.01,921.238 1881.72,920.229 1893.44,918.892 1905.15,916.954 1916.86,914.411 1928.57,911.376 1940.28,908.732 1951.99,906.368 1963.7,904.843 1975.42,904.03 1987.13,903.371 1998.84,903.809 2010.55,904.391 2022.26,905.471 2033.97,906.45 2045.68,906.866 2057.39,906.918 2069.11,906.243 2080.82,905.136 2092.53,903.782 2104.24,903.006 2115.95,903.35 2127.66,904.333 2139.37,905.783 2151.09,907.345 2162.8,908.166 2174.51,907.673 2186.22,905.724 2197.93,902.536 2209.64,898.509 2221.35,894.561 2233.07,890.854 2244.78,888.141 2256.49,886.296 2268.2,885.178 2279.91,884.394 2291.62,883.289 "></polyline>
<polyline clip-path="url(#clip742)" style="stroke:#c271d2; stroke-linecap:round; stroke-linejoin:round; stroke-width:4; stroke-opacity:1; fill:none" points="253.843,875.247 265.554,878.13 277.265,880.992 288.977,884.149 300.688,887.3 312.399,890.194 324.111,892.915 335.822,895.313 347.534,897.42 359.245,899.198 370.956,900.714 382.668,901.953 394.379,902.9 406.09,903.434 417.802,903.636 429.513,903.237 441.225,902.459 452.936,901.434 464.647,900.11 476.359,898.616 488.07,897.05 499.782,895.327 511.493,893.455 523.204,891.297 534.916,889.181 546.627,886.919 558.338,884.935 570.05,883.847 581.761,883.838 593.473,885.572 605.184,889.194 616.895,894.735 628.607,902.099 640.318,910.839 652.029,920.448 663.741,929.765 675.452,938.202 687.164,945.293 698.875,950.594 710.586,953.523 722.298,954.485 734.009,953.582 745.72,950.66 757.432,946.539 769.143,941.019 780.855,934.709 792.566,927.447 804.277,919.655 815.989,911.303 827.7,902.383 839.412,893.031 851.123,883.815 862.834,874.458 874.546,865.22 886.257,856.383 897.968,848.048 909.68,840.049 921.391,832.585 933.103,825.235 944.814,818.047 956.525,810.671 968.237,802.85 979.948,795.279 991.659,787.363 1003.37,779.825 1015.08,772.487 1026.79,765.8 1038.5,759.913 1050.22,754.811 1061.93,750.444 1073.64,746.767 1085.35,743.464 1097.06,740.425 1108.77,737.382 1120.48,734.172 1132.2,730.873 1143.91,727.553 1155.62,724.248 1167.33,721.009 1179.04,718.331 1190.75,715.757 1202.46,713.678 1214.18,711.9 1225.89,710.042 1237.6,707.932 1249.31,705.923 1261.02,703.556 1272.73,701.295 1284.44,698.962 1296.16,697.245 1307.87,695.868 1319.58,695.164 1331.29,694.779 1343,694.889 1354.71,695.173 1366.42,695.469 1378.13,696.062 1389.85,696.331 1401.56,697.101 1413.27,697.973 1424.98,699.226 1436.69,701.191 1448.4,703.267 1460.11,705.655 1471.83,708.196 1483.54,710.191 1495.25,711.828 1506.96,713.015 1518.67,713.193 1530.38,713.235 1542.09,712.816 1553.81,712.247 1565.52,711.919 1577.23,711.781 1588.94,711.995 1600.65,712.193 1612.36,712.786 1624.07,713.462 1635.79,714.049 1647.5,714.373 1659.21,714.669 1670.92,714.842 1682.63,715.368 1694.34,715.638 1706.05,716.133 1717.76,716.828 1729.48,717.667 1741.19,718.516 1752.9,719.539 1764.61,720.669 1776.32,722.239 1788.03,724.411 1799.74,726.872 1811.46,730.088 1823.17,733.675 1834.88,737.575 1846.59,741.556 1858.3,745.489 1870.01,749.168 1881.72,752.691 1893.44,755.962 1905.15,759.077 1916.86,762.37 1928.57,766.108 1940.28,769.982 1951.99,774.266 1963.7,778.547 1975.42,782.491 1987.13,786.846 1998.84,790.741 2010.55,794.314 2022.26,798.288 2033.97,802.452 2045.68,807.091 2057.39,811.859 2069.11,816.878 2080.82,821.838 2092.53,826.171 2104.24,830.206 2115.95,833.362 2127.66,836.033 2139.37,837.966 2151.09,840.129 2162.8,842.546 2174.51,845.424 2186.22,848.317 2197.93,851.3 2209.64,854.06 2221.35,856.082 2233.07,857.867 2244.78,858.895 2256.49,859.52 2268.2,860.336 2279.91,861.139 2291.62,862.505 "></polyline>
<polyline clip-path="url(#clip742)" style="stroke:#ac8d18; stroke-linecap:round; stroke-linejoin:round; stroke-width:4; stroke-opacity:1; fill:none" points="253.843,759.405 265.554,756.915 277.265,753.384 288.977,748.702 300.688,742.833 312.399,736.155 324.111,729.773 335.822,724.086 347.534,720.257 359.245,718.261 370.956,718.185 382.668,719.083 394.379,720.434 406.09,721.431 417.802,721.709 429.513,721.304 441.225,720.904 452.936,720.907 464.647,722.409 476.359,725.89 488.07,731.459 499.782,738.937 511.493,747.505 523.204,756.13 534.916,763.993 546.627,770.183 558.338,774.374 570.05,776.375 581.761,776.266 593.473,774.642 605.184,771.049 616.895,765.414 628.607,756.913 640.318,744.666 652.029,727.887 663.741,706.453 675.452,680.522 687.164,651.493 698.875,621.118 710.586,591.644 722.298,564.945 734.009,542.715 745.72,525.559 757.432,513.527 769.143,505.876 780.855,501.832 792.566,500.411 804.277,500.878 815.989,502.555 827.7,505.207 839.412,508.553 851.123,512.517 862.834,516.912 874.546,522.181 886.257,528.555 897.968,536.908 909.68,548.292 921.391,563.528 933.103,583.147 944.814,607.862 956.525,636.6 968.237,668.555 979.948,701.868 991.659,735.068 1003.37,766.258 1015.08,794.544 1026.79,819.004 1038.5,839.826 1050.22,857.291 1061.93,871.858 1073.64,884.127 1085.35,894.245 1097.06,902.647 1108.77,909.135 1120.48,913.677 1132.2,916.09 1143.91,916.794 1155.62,915.725 1167.33,913.389 1179.04,910.347 1190.75,906.721 1202.46,903.149 1214.18,899.642 1225.89,896.629 1237.6,894.301 1249.31,892.666 1261.02,891.965 1272.73,892.203 1284.44,893.577 1296.16,896.238 1307.87,900.168 1319.58,905.283 1331.29,911.8 1343,919.358 1354.71,928.049 1366.42,937.571 1378.13,947.795 1389.85,958.344 1401.56,968.919 1413.27,978.9 1424.98,987.893 1436.69,995.482 1448.4,1000.9 1460.11,1004.24 1471.83,1005.31 1483.54,1004.6 1495.25,1002.43 1506.96,999.7 1518.67,996.818 1530.38,994.233 1542.09,992.497 1553.81,991.242 1565.52,990.804 1577.23,990.624 1588.94,990.335 1600.65,989.579 1612.36,988.053 1624.07,985.316 1635.79,981.237 1647.5,975.499 1659.21,968.351 1670.92,959.973 1682.63,950.708 1694.34,941.13 1706.05,931.622 1717.76,922.5 1729.48,913.955 1741.19,905.904 1752.9,898.135 1764.61,890.562 1776.32,882.713 1788.03,875.052 1799.74,867.24 1811.46,860.004 1823.17,853.12 1834.88,846.91 1846.59,841.637 1858.3,836.621 1870.01,831.829 1881.72,827.144 1893.44,822.663 1905.15,818.509 1916.86,815.125 1928.57,812.897 1940.28,811.912 1951.99,812.264 1963.7,813.435 1975.42,815.307 1987.13,816.808 1998.84,817.246 2010.55,816.398 2022.26,813.8 2033.97,809.82 2045.68,805.137 2057.39,800.301 2069.11,796.168 2080.82,793.154 2092.53,791.33 2104.24,790.515 2115.95,790.101 2127.66,789.629 2139.37,788.505 2151.09,786.875 2162.8,784.354 2174.51,781.482 2186.22,778.782 2197.93,776.448 2209.64,775.127 2221.35,774.751 2233.07,774.833 2244.78,775.04 2256.49,774.571 2268.2,772.988 2279.91,769.692 2291.62,764.896 "></polyline>
<polyline clip-path="url(#clip742)" style="stroke:#00a9ad; stroke-linecap:round; stroke-linejoin:round; stroke-width:4; stroke-opacity:1; fill:none" points="253.843,706.961 265.554,709.326 277.265,710.92 288.977,712.017 300.688,713.043 312.399,714.454 324.111,716.582 335.822,719.411 347.534,722.604 359.245,725.672 370.956,727.943 382.668,728.424 394.379,726.774 406.09,722.726 417.802,716.617 429.513,709.689 441.225,703.295 452.936,698.845 464.647,697.586 476.359,700.424 488.07,707.184 499.782,717.255 511.493,729.463 523.204,742.304 534.916,754.858 546.627,766.19 558.338,775.66 570.05,783.085 581.761,788.379 593.473,791.195 605.184,790.915 616.895,786.992 628.607,778.456 640.318,765.06 652.029,746.604 663.741,723.767 675.452,697.919 687.164,670.571 698.875,643.995 710.586,620.038 722.298,599.757 734.009,583.864 745.72,571.779 757.432,562.868 769.143,555.691 780.855,548.756 792.566,541.258 804.277,532.34 815.989,522.031 827.7,510.731 839.412,499.198 851.123,488.209 862.834,478.465 874.546,471.095 886.257,466.883 897.968,466.599 909.68,471.022 921.391,480.855 933.103,496.521 944.814,517.984 956.525,544.655 968.237,575.517 979.948,608.805 991.659,642.538 1003.37,674.93 1015.08,704.422 1026.79,729.881 1038.5,750.98 1050.22,767.824 1061.93,781.205 1073.64,791.704 1085.35,800.504 1097.06,808.258 1108.77,815.296 1120.48,822.256 1132.2,829.046 1143.91,835.989 1155.62,842.809 1167.33,849.774 1179.04,856.593 1190.75,863.496 1202.46,870.377 1214.18,877.414 1225.89,884.547 1237.6,892.14 1249.31,900.359 1261.02,909.63 1272.73,920.249 1284.44,932.286 1296.16,945.857 1307.87,961.116 1319.58,977.526 1331.29,995.243 1343,1013.82 1354.71,1032.97 1366.42,1052.39 1378.13,1071.9 1389.85,1090.67 1401.56,1108.01 1413.27,1123.21 1424.98,1134.98 1436.69,1142.79 1448.4,1146.04 1460.11,1144.57 1471.83,1138.92 1483.54,1129.89 1495.25,1118.9 1506.96,1107.23 1518.67,1096.1 1530.38,1086.39 1542.09,1078.63 1553.81,1072.41 1565.52,1067.64 1577.23,1063.29 1588.94,1058.66 1600.65,1053.05 1612.36,1045.81 1624.07,1036.69 1635.79,1025.5 1647.5,1012.57 1659.21,998.323 1670.92,983.534 1682.63,968.647 1694.34,954.6 1706.05,941.642 1717.76,929.767 1729.48,918.831 1741.19,908.115 1752.9,896.575 1764.61,883.602 1776.32,868.733 1788.03,852.121 1799.74,835.001 1811.46,818.561 1823.17,804.435 1834.88,794.115 1846.59,789.098 1858.3,787.871 1870.01,790.157 1881.72,794.897 1893.44,799.911 1905.15,803.455 1916.86,804.946 1928.57,804.025 1940.28,802.032 1951.99,799.495 1963.7,797.848 1975.42,796.892 1987.13,797.822 1998.84,799.601 2010.55,801.141 2022.26,801.006 2033.97,798.219 2045.68,792.193 2057.39,783.134 2069.11,772.022 2080.82,760.387 2092.53,750.267 2104.24,742.775 2115.95,738.825 2127.66,738.679 2139.37,741.194 2151.09,746.485 2162.8,752.804 2174.51,759.109 2186.22,765.027 2197.93,769.803 2209.64,773.554 2221.35,776.572 2233.07,778.954 2244.78,780.726 2256.49,781.733 2268.2,781.863 2279.91,780.378 2291.62,777.244 "></polyline>
<path clip-path="url(#clip740)" d="M2010.61 458.098 L2280.75 458.098 L2280.75 95.2176 L2010.61 95.2176  Z" fill="#ffffff" fill-rule="evenodd" fill-opacity="1"></path>
<polyline clip-path="url(#clip740)" style="stroke:#000000; stroke-linecap:round; stroke-linejoin:round; stroke-width:4; stroke-opacity:1; fill:none" points="2010.61,458.098 2280.75,458.098 2280.75,95.2176 2010.61,95.2176 2010.61,458.098 "></polyline>
<polyline clip-path="url(#clip740)" style="stroke:#009af9; stroke-linecap:round; stroke-linejoin:round; stroke-width:4; stroke-opacity:1; fill:none" points="2034.61,147.058 2178.61,147.058 "></polyline>
<path clip-path="url(#clip740)" d="M2216.45 166.745 Q2214.65 171.375 2212.93 172.787 Q2211.22 174.199 2208.35 174.199 L2204.95 174.199 L2204.95 170.634 L2207.45 170.634 Q2209.21 170.634 2210.18 169.8 Q2211.15 168.967 2212.33 165.865 L2213.1 163.921 L2202.61 138.412 L2207.12 138.412 L2215.23 158.689 L2223.33 138.412 L2227.84 138.412 L2216.45 166.745 Z" fill="#000000" fill-rule="nonzero" fill-opacity="1"></path><path clip-path="url(#clip740)" d="M2235.13 160.402 L2242.77 160.402 L2242.77 134.037 L2234.46 135.703 L2234.46 131.444 L2242.73 129.778 L2247.4 129.778 L2247.4 160.402 L2255.04 160.402 L2255.04 164.338 L2235.13 164.338 L2235.13 160.402 Z" fill="#000000" fill-rule="nonzero" fill-opacity="1"></path><polyline clip-path="url(#clip740)" style="stroke:#e26f46; stroke-linecap:round; stroke-linejoin:round; stroke-width:4; stroke-opacity:1; fill:none" points="2034.61,198.898 2178.61,198.898 "></polyline>
<path clip-path="url(#clip740)" d="M2216.45 218.585 Q2214.65 223.215 2212.93 224.627 Q2211.22 226.039 2208.35 226.039 L2204.95 226.039 L2204.95 222.474 L2207.45 222.474 Q2209.21 222.474 2210.18 221.64 Q2211.15 220.807 2212.33 217.705 L2213.1 215.761 L2202.61 190.252 L2207.12 190.252 L2215.23 210.529 L2223.33 190.252 L2227.84 190.252 L2216.45 218.585 Z" fill="#000000" fill-rule="nonzero" fill-opacity="1"></path><path clip-path="url(#clip740)" d="M2238.35 212.242 L2254.67 212.242 L2254.67 216.178 L2232.73 216.178 L2232.73 212.242 Q2235.39 209.488 2239.97 204.858 Q2244.58 200.205 2245.76 198.863 Q2248 196.34 2248.88 194.604 Q2249.79 192.844 2249.79 191.155 Q2249.79 188.4 2247.84 186.664 Q2245.92 184.928 2242.82 184.928 Q2240.62 184.928 2238.17 185.692 Q2235.74 186.455 2232.96 188.006 L2232.96 183.284 Q2235.78 182.15 2238.24 181.571 Q2240.69 180.993 2242.73 180.993 Q2248.1 180.993 2251.29 183.678 Q2254.49 186.363 2254.49 190.854 Q2254.49 192.983 2253.68 194.905 Q2252.89 196.803 2250.78 199.395 Q2250.2 200.067 2247.1 203.284 Q2244 206.479 2238.35 212.242 Z" fill="#000000" fill-rule="nonzero" fill-opacity="1"></path><polyline clip-path="url(#clip740)" style="stroke:#3da44d; stroke-linecap:round; stroke-linejoin:round; stroke-width:4; stroke-opacity:1; fill:none" points="2034.61,250.738 2178.61,250.738 "></polyline>
<path clip-path="url(#clip740)" d="M2216.45 270.425 Q2214.65 275.055 2212.93 276.467 Q2211.22 277.879 2208.35 277.879 L2204.95 277.879 L2204.95 274.314 L2207.45 274.314 Q2209.21 274.314 2210.18 273.48 Q2211.15 272.647 2212.33 269.545 L2213.1 267.601 L2202.61 242.092 L2207.12 242.092 L2215.23 262.369 L2223.33 242.092 L2227.84 242.092 L2216.45 270.425 Z" fill="#000000" fill-rule="nonzero" fill-opacity="1"></path><path clip-path="url(#clip740)" d="M2248.49 249.383 Q2251.85 250.101 2253.72 252.369 Q2255.62 254.638 2255.62 257.971 Q2255.62 263.087 2252.1 265.888 Q2248.58 268.689 2242.1 268.689 Q2239.93 268.689 2237.61 268.249 Q2235.32 267.832 2232.87 266.976 L2232.87 262.462 Q2234.81 263.596 2237.12 264.175 Q2239.44 264.754 2241.96 264.754 Q2246.36 264.754 2248.65 263.018 Q2250.97 261.281 2250.97 257.971 Q2250.97 254.916 2248.81 253.203 Q2246.68 251.467 2242.87 251.467 L2238.84 251.467 L2238.84 247.624 L2243.05 247.624 Q2246.5 247.624 2248.33 246.258 Q2250.16 244.87 2250.16 242.277 Q2250.16 239.615 2248.26 238.203 Q2246.38 236.768 2242.87 236.768 Q2240.94 236.768 2238.74 237.184 Q2236.55 237.601 2233.91 238.481 L2233.91 234.314 Q2236.57 233.573 2238.88 233.203 Q2241.22 232.833 2243.28 232.833 Q2248.61 232.833 2251.71 235.263 Q2254.81 237.67 2254.81 241.791 Q2254.81 244.661 2253.17 246.652 Q2251.52 248.62 2248.49 249.383 Z" fill="#000000" fill-rule="nonzero" fill-opacity="1"></path><polyline clip-path="url(#clip740)" style="stroke:#c271d2; stroke-linecap:round; stroke-linejoin:round; stroke-width:4; stroke-opacity:1; fill:none" points="2034.61,302.578 2178.61,302.578 "></polyline>
<path clip-path="url(#clip740)" d="M2216.45 322.265 Q2214.65 326.895 2212.93 328.307 Q2211.22 329.719 2208.35 329.719 L2204.95 329.719 L2204.95 326.154 L2207.45 326.154 Q2209.21 326.154 2210.18 325.32 Q2211.15 324.487 2212.33 321.385 L2213.1 319.441 L2202.61 293.932 L2207.12 293.932 L2215.23 314.209 L2223.33 293.932 L2227.84 293.932 L2216.45 322.265 Z" fill="#000000" fill-rule="nonzero" fill-opacity="1"></path><path clip-path="url(#clip740)" d="M2247.17 289.372 L2235.37 307.821 L2247.17 307.821 L2247.17 289.372 M2245.94 285.298 L2251.82 285.298 L2251.82 307.821 L2256.75 307.821 L2256.75 311.709 L2251.82 311.709 L2251.82 319.858 L2247.17 319.858 L2247.17 311.709 L2231.57 311.709 L2231.57 307.196 L2245.94 285.298 Z" fill="#000000" fill-rule="nonzero" fill-opacity="1"></path><polyline clip-path="url(#clip740)" style="stroke:#ac8d18; stroke-linecap:round; stroke-linejoin:round; stroke-width:4; stroke-opacity:1; fill:none" points="2034.61,354.418 2178.61,354.418 "></polyline>
<path clip-path="url(#clip740)" d="M2216.45 374.105 Q2214.65 378.735 2212.93 380.147 Q2211.22 381.559 2208.35 381.559 L2204.95 381.559 L2204.95 377.994 L2207.45 377.994 Q2209.21 377.994 2210.18 377.16 Q2211.15 376.327 2212.33 373.225 L2213.1 371.281 L2202.61 345.772 L2207.12 345.772 L2215.23 366.049 L2223.33 345.772 L2227.84 345.772 L2216.45 374.105 Z" fill="#000000" fill-rule="nonzero" fill-opacity="1"></path><path clip-path="url(#clip740)" d="M2234.37 337.138 L2252.73 337.138 L2252.73 341.073 L2238.65 341.073 L2238.65 349.545 Q2239.67 349.198 2240.69 349.036 Q2241.71 348.85 2242.73 348.85 Q2248.51 348.85 2251.89 352.022 Q2255.27 355.193 2255.27 360.61 Q2255.27 366.188 2251.8 369.29 Q2248.33 372.369 2242.01 372.369 Q2239.83 372.369 2237.56 371.998 Q2235.32 371.628 2232.91 370.887 L2232.91 366.188 Q2234.99 367.323 2237.22 367.878 Q2239.44 368.434 2241.92 368.434 Q2245.92 368.434 2248.26 366.327 Q2250.6 364.221 2250.6 360.61 Q2250.6 356.999 2248.26 354.892 Q2245.92 352.786 2241.92 352.786 Q2240.04 352.786 2238.17 353.202 Q2236.31 353.619 2234.37 354.499 L2234.37 337.138 Z" fill="#000000" fill-rule="nonzero" fill-opacity="1"></path><polyline clip-path="url(#clip740)" style="stroke:#00a9ad; stroke-linecap:round; stroke-linejoin:round; stroke-width:4; stroke-opacity:1; fill:none" points="2034.61,406.258 2178.61,406.258 "></polyline>
<path clip-path="url(#clip740)" d="M2216.45 425.945 Q2214.65 430.575 2212.93 431.987 Q2211.22 433.399 2208.35 433.399 L2204.95 433.399 L2204.95 429.834 L2207.45 429.834 Q2209.21 429.834 2210.18 429 Q2211.15 428.167 2212.33 425.065 L2213.1 423.121 L2202.61 397.612 L2207.12 397.612 L2215.23 417.889 L2223.33 397.612 L2227.84 397.612 L2216.45 425.945 Z" fill="#000000" fill-rule="nonzero" fill-opacity="1"></path><path clip-path="url(#clip740)" d="M2244.9 404.394 Q2241.75 404.394 2239.9 406.547 Q2238.07 408.7 2238.07 412.45 Q2238.07 416.176 2239.9 418.352 Q2241.75 420.505 2244.9 420.505 Q2248.05 420.505 2249.88 418.352 Q2251.73 416.176 2251.73 412.45 Q2251.73 408.7 2249.88 406.547 Q2248.05 404.394 2244.9 404.394 M2254.18 389.741 L2254.18 394.001 Q2252.43 393.167 2250.62 392.728 Q2248.84 392.288 2247.08 392.288 Q2242.45 392.288 2239.99 395.413 Q2237.56 398.538 2237.22 404.857 Q2238.58 402.843 2240.64 401.778 Q2242.7 400.69 2245.18 400.69 Q2250.39 400.69 2253.4 403.862 Q2256.43 407.01 2256.43 412.45 Q2256.43 417.774 2253.28 420.991 Q2250.13 424.209 2244.9 424.209 Q2238.91 424.209 2235.74 419.626 Q2232.56 415.019 2232.56 406.292 Q2232.56 398.098 2236.45 393.237 Q2240.34 388.353 2246.89 388.353 Q2248.65 388.353 2250.43 388.7 Q2252.24 389.047 2254.18 389.741 Z" fill="#000000" fill-rule="nonzero" fill-opacity="1"></path></svg>