<svg xmlns="http://www.w3.org/2000/svg" xmlns:xlink="http://www.w3.org/1999/xlink" width="600" height="400" viewBox="0 0 2400 1600">
<defs>
  <clipPath id="clip500">
    <rect x="0" y="0" width="2400" height="1600"></rect>
  </clipPath>
</defs>
<path clip-path="url(#clip500)" d="M0 1600 L2400 1600 L2400 0 L0 0  Z" fill="#ffffff" fill-rule="evenodd" fill-opacity="1"></path>
<defs>
  <clipPath id="clip501">
    <rect x="480" y="0" width="1681" height="1600"></rect>
  </clipPath>
</defs>
<path clip-path="url(#clip500)" d="M193.936 1486.45 L2352.76 1486.45 L2352.76 123.472 L193.936 123.472  Z" fill="#ffffff" fill-rule="evenodd" fill-opacity="1"></path>
<defs>
  <clipPath id="clip502">
    <rect x="193" y="123" width="2160" height="1364"></rect>
  </clipPath>
</defs>
<polyline clip-path="url(#clip502)" style="stroke:#000000; stroke-linecap:round; stroke-linejoin:round; stroke-width:2; stroke-opacity:0.1; fill:none" points="255.035,1486.45 255.035,123.472 "></polyline>
<polyline clip-path="url(#clip502)" style="stroke:#000000; stroke-linecap:round; stroke-linejoin:round; stroke-width:2; stroke-opacity:0.1; fill:none" points="662.359,1486.45 662.359,123.472 "></polyline>
<polyline clip-path="url(#clip502)" style="stroke:#000000; stroke-linecap:round; stroke-linejoin:round; stroke-width:2; stroke-opacity:0.1; fill:none" points="1069.68,1486.45 1069.68,123.472 "></polyline>
<polyline clip-path="url(#clip502)" style="stroke:#000000; stroke-linecap:round; stroke-linejoin:round; stroke-width:2; stroke-opacity:0.1; fill:none" points="1477.01,1486.45 1477.01,123.472 "></polyline>
<polyline clip-path="url(#clip502)" style="stroke:#000000; stroke-linecap:round; stroke-linejoin:round; stroke-width:2; stroke-opacity:0.1; fill:none" points="1884.33,1486.45 1884.33,123.472 "></polyline>
<polyline clip-path="url(#clip502)" style="stroke:#000000; stroke-linecap:round; stroke-linejoin:round; stroke-width:2; stroke-opacity:0.1; fill:none" points="2291.66,1486.45 2291.66,123.472 "></polyline>
<polyline clip-path="url(#clip500)" style="stroke:#000000; stroke-linecap:round; stroke-linejoin:round; stroke-width:4; stroke-opacity:1; fill:none" points="193.936,1486.45 2352.76,1486.45 "></polyline>
<polyline clip-path="url(#clip500)" style="stroke:#000000; stroke-linecap:round; stroke-linejoin:round; stroke-width:4; stroke-opacity:1; fill:none" points="255.035,1486.45 255.035,1467.55 "></polyline>
<polyline clip-path="url(#clip500)" style="stroke:#000000; stroke-linecap:round; stroke-linejoin:round; stroke-width:4; stroke-opacity:1; fill:none" points="662.359,1486.45 662.359,1467.55 "></polyline>
<polyline clip-path="url(#clip500)" style="stroke:#000000; stroke-linecap:round; stroke-linejoin:round; stroke-width:4; stroke-opacity:1; fill:none" points="1069.68,1486.45 1069.68,1467.55 "></polyline>
<polyline clip-path="url(#clip500)" style="stroke:#000000; stroke-linecap:round; stroke-linejoin:round; stroke-width:4; stroke-opacity:1; fill:none" points="1477.01,1486.45 1477.01,1467.55 "></polyline>
<polyline clip-path="url(#clip500)" style="stroke:#000000; stroke-linecap:round; stroke-linejoin:round; stroke-width:4; stroke-opacity:1; fill:none" points="1884.33,1486.45 1884.33,1467.55 "></polyline>
<polyline clip-path="url(#clip500)" style="stroke:#000000; stroke-linecap:round; stroke-linejoin:round; stroke-width:4; stroke-opacity:1; fill:none" points="2291.66,1486.45 2291.66,1467.55 "></polyline>
<path clip-path="url(#clip500)" d="M245.417 1544.91 L253.056 1544.91 L253.056 1518.55 L244.745 1520.21 L244.745 1515.95 L253.009 1514.29 L257.685 1514.29 L257.685 1544.91 L265.324 1544.91 L265.324 1548.85 L245.417 1548.85 L245.417 1544.91 Z" fill="#000000" fill-rule="nonzero" fill-opacity="1"></path><path clip-path="url(#clip500)" d="M657.012 1544.91 L673.331 1544.91 L673.331 1548.85 L651.387 1548.85 L651.387 1544.91 Q654.049 1542.16 658.632 1537.53 Q663.239 1532.88 664.419 1531.53 Q666.665 1529.01 667.544 1527.27 Q668.447 1525.51 668.447 1523.82 Q668.447 1521.07 666.503 1519.33 Q664.581 1517.6 661.48 1517.6 Q659.28 1517.6 656.827 1518.36 Q654.396 1519.13 651.619 1520.68 L651.619 1515.95 Q654.443 1514.82 656.896 1514.24 Q659.35 1513.66 661.387 1513.66 Q666.757 1513.66 669.952 1516.35 Q673.146 1519.03 673.146 1523.52 Q673.146 1525.65 672.336 1527.57 Q671.549 1529.47 669.442 1532.07 Q668.864 1532.74 665.762 1535.95 Q662.66 1539.15 657.012 1544.91 Z" fill="#000000" fill-rule="nonzero" fill-opacity="1"></path><path clip-path="url(#clip500)" d="M1073.93 1530.21 Q1077.29 1530.93 1079.16 1533.2 Q1081.06 1535.47 1081.06 1538.8 Q1081.06 1543.92 1077.54 1546.72 Q1074.02 1549.52 1067.54 1549.52 Q1065.37 1549.52 1063.05 1549.08 Q1060.76 1548.66 1058.31 1547.81 L1058.31 1543.29 Q1060.25 1544.43 1062.57 1545.01 Q1064.88 1545.58 1067.4 1545.58 Q1071.8 1545.58 1074.09 1543.85 Q1076.41 1542.11 1076.41 1538.8 Q1076.41 1535.75 1074.26 1534.03 Q1072.13 1532.3 1068.31 1532.3 L1064.28 1532.3 L1064.28 1528.45 L1068.49 1528.45 Q1071.94 1528.45 1073.77 1527.09 Q1075.6 1525.7 1075.6 1523.11 Q1075.6 1520.45 1073.7 1519.03 Q1071.82 1517.6 1068.31 1517.6 Q1066.39 1517.6 1064.19 1518.01 Q1061.99 1518.43 1059.35 1519.31 L1059.35 1515.14 Q1062.01 1514.4 1064.32 1514.03 Q1066.66 1513.66 1068.72 1513.66 Q1074.05 1513.66 1077.15 1516.09 Q1080.25 1518.5 1080.25 1522.62 Q1080.25 1525.49 1078.61 1527.48 Q1076.96 1529.45 1073.93 1530.21 Z" fill="#000000" fill-rule="nonzero" fill-opacity="1"></path><path clip-path="url(#clip500)" d="M1480.02 1518.36 L1468.21 1536.81 L1480.02 1536.81 L1480.02 1518.36 M1478.79 1514.29 L1484.67 1514.29 L1484.67 1536.81 L1489.6 1536.81 L1489.6 1540.7 L1484.67 1540.7 L1484.67 1548.85 L1480.02 1548.85 L1480.02 1540.7 L1464.42 1540.7 L1464.42 1536.19 L1478.79 1514.29 Z" fill="#000000" fill-rule="nonzero" fill-opacity="1"></path><path clip-path="url(#clip500)" d="M1874.61 1514.29 L1892.97 1514.29 L1892.97 1518.22 L1878.89 1518.22 L1878.89 1526.7 Q1879.91 1526.35 1880.93 1526.19 Q1881.95 1526 1882.97 1526 Q1888.75 1526 1892.13 1529.17 Q1895.51 1532.34 1895.51 1537.76 Q1895.51 1543.34 1892.04 1546.44 Q1888.57 1549.52 1882.25 1549.52 Q1880.07 1549.52 1877.8 1549.15 Q1875.56 1548.78 1873.15 1548.04 L1873.15 1543.34 Q1875.24 1544.47 1877.46 1545.03 Q1879.68 1545.58 1882.16 1545.58 Q1886.16 1545.58 1888.5 1543.48 Q1890.84 1541.37 1890.84 1537.76 Q1890.84 1534.15 1888.5 1532.04 Q1886.16 1529.94 1882.16 1529.94 Q1880.28 1529.94 1878.41 1530.35 Q1876.55 1530.77 1874.61 1531.65 L1874.61 1514.29 Z" fill="#000000" fill-rule="nonzero" fill-opacity="1"></path><path clip-path="url(#clip500)" d="M2292.06 1529.7 Q2288.91 1529.7 2287.06 1531.86 Q2285.23 1534.01 2285.23 1537.76 Q2285.23 1541.49 2287.06 1543.66 Q2288.91 1545.82 2292.06 1545.82 Q2295.21 1545.82 2297.04 1543.66 Q2298.89 1541.49 2298.89 1537.76 Q2298.89 1534.01 2297.04 1531.86 Q2295.21 1529.7 2292.06 1529.7 M2301.34 1515.05 L2301.34 1519.31 Q2299.59 1518.48 2297.78 1518.04 Q2296 1517.6 2294.24 1517.6 Q2289.61 1517.6 2287.15 1520.72 Q2284.72 1523.85 2284.38 1530.17 Q2285.74 1528.15 2287.8 1527.09 Q2289.86 1526 2292.34 1526 Q2297.55 1526 2300.56 1529.17 Q2303.59 1532.32 2303.59 1537.76 Q2303.59 1543.08 2300.44 1546.3 Q2297.29 1549.52 2292.06 1549.52 Q2286.07 1549.52 2282.9 1544.94 Q2279.72 1540.33 2279.72 1531.6 Q2279.72 1523.41 2283.61 1518.55 Q2287.5 1513.66 2294.05 1513.66 Q2295.81 1513.66 2297.59 1514.01 Q2299.4 1514.36 2301.34 1515.05 Z" fill="#000000" fill-rule="nonzero" fill-opacity="1"></path><polyline clip-path="url(#clip502)" style="stroke:#000000; stroke-linecap:round; stroke-linejoin:round; stroke-width:2; stroke-opacity:0.1; fill:none" points="193.936,1441.88 2352.76,1441.88 "></polyline>
<polyline clip-path="url(#clip502)" style="stroke:#000000; stroke-linecap:round; stroke-linejoin:round; stroke-width:2; stroke-opacity:0.1; fill:none" points="193.936,1189.22 2352.76,1189.22 "></polyline>
<polyline clip-path="url(#clip502)" style="stroke:#000000; stroke-linecap:round; stroke-linejoin:round; stroke-width:2; stroke-opacity:0.1; fill:none" points="193.936,936.556 2352.76,936.556 "></polyline>
<polyline clip-path="url(#clip502)" style="stroke:#000000; stroke-linecap:round; stroke-linejoin:round; stroke-width:2; stroke-opacity:0.1; fill:none" points="193.936,683.894 2352.76,683.894 "></polyline>
<polyline clip-path="url(#clip502)" style="stroke:#000000; stroke-linecap:round; stroke-linejoin:round; stroke-width:2; stroke-opacity:0.1; fill:none" points="193.936,431.232 2352.76,431.232 "></polyline>
<polyline clip-path="url(#clip502)" style="stroke:#000000; stroke-linecap:round; stroke-linejoin:round; stroke-width:2; stroke-opacity:0.1; fill:none" points="193.936,178.569 2352.76,178.569 "></polyline>
<polyline clip-path="url(#clip500)" style="stroke:#000000; stroke-linecap:round; stroke-linejoin:round; stroke-width:4; stroke-opacity:1; fill:none" points="193.936,1486.45 193.936,123.472 "></polyline>
<polyline clip-path="url(#clip500)" style="stroke:#000000; stroke-linecap:round; stroke-linejoin:round; stroke-width:4; stroke-opacity:1; fill:none" points="193.936,1441.88 212.834,1441.88 "></polyline>
<polyline clip-path="url(#clip500)" style="stroke:#000000; stroke-linecap:round; stroke-linejoin:round; stroke-width:4; stroke-opacity:1; fill:none" points="193.936,1189.22 212.834,1189.22 "></polyline>
<polyline clip-path="url(#clip500)" style="stroke:#000000; stroke-linecap:round; stroke-linejoin:round; stroke-width:4; stroke-opacity:1; fill:none" points="193.936,936.556 212.834,936.556 "></polyline>
<polyline clip-path="url(#clip500)" style="stroke:#000000; stroke-linecap:round; stroke-linejoin:round; stroke-width:4; stroke-opacity:1; fill:none" points="193.936,683.894 212.834,683.894 "></polyline>
<polyline clip-path="url(#clip500)" style="stroke:#000000; stroke-linecap:round; stroke-linejoin:round; stroke-width:4; stroke-opacity:1; fill:none" points="193.936,431.232 212.834,431.232 "></polyline>
<polyline clip-path="url(#clip500)" style="stroke:#000000; stroke-linecap:round; stroke-linejoin:round; stroke-width:4; stroke-opacity:1; fill:none" points="193.936,178.569 212.834,178.569 "></polyline>
<path clip-path="url(#clip500)" d="M50.9921 1442.33 L80.6679 1442.33 L80.6679 1446.27 L50.9921 1446.27 L50.9921 1442.33 Z" fill="#000000" fill-rule="nonzero" fill-opacity="1"></path><path clip-path="url(#clip500)" d="M91.5706 1455.22 L99.2095 1455.22 L99.2095 1428.86 L90.8993 1430.53 L90.8993 1426.27 L99.1632 1424.6 L103.839 1424.6 L103.839 1455.22 L111.478 1455.22 L111.478 1459.16 L91.5706 1459.16 L91.5706 1455.22 Z" fill="#000000" fill-rule="nonzero" fill-opacity="1"></path><path clip-path="url(#clip500)" d="M120.922 1453.28 L125.807 1453.28 L125.807 1459.16 L120.922 1459.16 L120.922 1453.28 Z" fill="#000000" fill-rule="nonzero" fill-opacity="1"></path><path clip-path="url(#clip500)" d="M145.992 1427.68 Q142.381 1427.68 140.552 1431.24 Q138.746 1434.79 138.746 1441.91 Q138.746 1449.02 140.552 1452.59 Q142.381 1456.13 145.992 1456.13 Q149.626 1456.13 151.431 1452.59 Q153.26 1449.02 153.26 1441.91 Q153.26 1434.79 151.431 1431.24 Q149.626 1427.68 145.992 1427.68 M145.992 1423.98 Q151.802 1423.98 154.857 1428.58 Q157.936 1433.16 157.936 1441.91 Q157.936 1450.64 154.857 1455.25 Q151.802 1459.83 145.992 1459.83 Q140.181 1459.83 137.103 1455.25 Q134.047 1450.64 134.047 1441.91 Q134.047 1433.16 137.103 1428.58 Q140.181 1423.98 145.992 1423.98 Z" fill="#000000" fill-rule="nonzero" fill-opacity="1"></path><path clip-path="url(#clip500)" d="M51.9875 1189.67 L81.6633 1189.67 L81.6633 1193.6 L51.9875 1193.6 L51.9875 1189.67 Z" fill="#000000" fill-rule="nonzero" fill-opacity="1"></path><path clip-path="url(#clip500)" d="M101.756 1175.02 Q98.1447 1175.02 96.316 1178.58 Q94.5104 1182.12 94.5104 1189.25 Q94.5104 1196.36 96.316 1199.92 Q98.1447 1203.47 101.756 1203.47 Q105.39 1203.47 107.196 1199.92 Q109.024 1196.36 109.024 1189.25 Q109.024 1182.12 107.196 1178.58 Q105.39 1175.02 101.756 1175.02 M101.756 1171.31 Q107.566 1171.31 110.621 1175.92 Q113.7 1180.5 113.7 1189.25 Q113.7 1197.98 110.621 1202.59 Q107.566 1207.17 101.756 1207.17 Q95.9456 1207.17 92.8669 1202.59 Q89.8114 1197.98 89.8114 1189.25 Q89.8114 1180.5 92.8669 1175.92 Q95.9456 1171.31 101.756 1171.31 Z" fill="#000000" fill-rule="nonzero" fill-opacity="1"></path><path clip-path="url(#clip500)" d="M121.918 1200.62 L126.802 1200.62 L126.802 1206.5 L121.918 1206.5 L121.918 1200.62 Z" fill="#000000" fill-rule="nonzero" fill-opacity="1"></path><path clip-path="url(#clip500)" d="M137.033 1171.94 L155.39 1171.94 L155.39 1175.87 L141.316 1175.87 L141.316 1184.35 Q142.334 1184 143.353 1183.84 Q144.371 1183.65 145.39 1183.65 Q151.177 1183.65 154.556 1186.82 Q157.936 1189.99 157.936 1195.41 Q157.936 1200.99 154.464 1204.09 Q150.992 1207.17 144.672 1207.17 Q142.496 1207.17 140.228 1206.8 Q137.982 1206.43 135.575 1205.69 L135.575 1200.99 Q137.658 1202.12 139.881 1202.68 Q142.103 1203.23 144.58 1203.23 Q148.584 1203.23 150.922 1201.13 Q153.26 1199.02 153.26 1195.41 Q153.26 1191.8 150.922 1189.69 Q148.584 1187.59 144.58 1187.59 Q142.705 1187.59 140.83 1188 Q138.978 1188.42 137.033 1189.3 L137.033 1171.94 Z" fill="#000000" fill-rule="nonzero" fill-opacity="1"></path><path clip-path="url(#clip500)" d="M100.76 922.354 Q97.1493 922.354 95.3206 925.919 Q93.515 929.461 93.515 936.591 Q93.515 943.697 95.3206 947.262 Q97.1493 950.803 100.76 950.803 Q104.395 950.803 106.2 947.262 Q108.029 943.697 108.029 936.591 Q108.029 929.461 106.2 925.919 Q104.395 922.354 100.76 922.354 M100.76 918.651 Q106.571 918.651 109.626 923.257 Q112.705 927.841 112.705 936.591 Q112.705 945.317 109.626 949.924 Q106.571 954.507 100.76 954.507 Q94.9502 954.507 91.8715 949.924 Q88.816 945.317 88.816 936.591 Q88.816 927.841 91.8715 923.257 Q94.9502 918.651 100.76 918.651 Z" fill="#000000" fill-rule="nonzero" fill-opacity="1"></path><path clip-path="url(#clip500)" d="M120.922 947.956 L125.807 947.956 L125.807 953.836 L120.922 953.836 L120.922 947.956 Z" fill="#000000" fill-rule="nonzero" fill-opacity="1"></path><path clip-path="url(#clip500)" d="M145.992 922.354 Q142.381 922.354 140.552 925.919 Q138.746 929.461 138.746 936.591 Q138.746 943.697 140.552 947.262 Q142.381 950.803 145.992 950.803 Q149.626 950.803 151.431 947.262 Q153.26 943.697 153.26 936.591 Q153.26 929.461 151.431 925.919 Q149.626 922.354 145.992 922.354 M145.992 918.651 Q151.802 918.651 154.857 923.257 Q157.936 927.841 157.936 936.591 Q157.936 945.317 154.857 949.924 Q151.802 954.507 145.992 954.507 Q140.181 954.507 137.103 949.924 Q134.047 945.317 134.047 936.591 Q134.047 927.841 137.103 923.257 Q140.181 918.651 145.992 918.651 Z" fill="#000000" fill-rule="nonzero" fill-opacity="1"></path><path clip-path="url(#clip500)" d="M101.756 669.692 Q98.1447 669.692 96.316 673.257 Q94.5104 676.799 94.5104 683.928 Q94.5104 691.035 96.316 694.6 Q98.1447 698.141 101.756 698.141 Q105.39 698.141 107.196 694.6 Q109.024 691.035 109.024 683.928 Q109.024 676.799 107.196 673.257 Q105.39 669.692 101.756 669.692 M101.756 665.989 Q107.566 665.989 110.621 670.595 Q113.7 675.178 113.7 683.928 Q113.7 692.655 110.621 697.262 Q107.566 701.845 101.756 701.845 Q95.9456 701.845 92.8669 697.262 Q89.8114 692.655 89.8114 683.928 Q89.8114 675.178 92.8669 670.595 Q95.9456 665.989 101.756 665.989 Z" fill="#000000" fill-rule="nonzero" fill-opacity="1"></path><path clip-path="url(#clip500)" d="M121.918 695.294 L126.802 695.294 L126.802 701.174 L121.918 701.174 L121.918 695.294 Z" fill="#000000" fill-rule="nonzero" fill-opacity="1"></path><path clip-path="url(#clip500)" d="M137.033 666.614 L155.39 666.614 L155.39 670.549 L141.316 670.549 L141.316 679.021 Q142.334 678.674 143.353 678.512 Q144.371 678.327 145.39 678.327 Q151.177 678.327 154.556 681.498 Q157.936 684.669 157.936 690.086 Q157.936 695.664 154.464 698.766 Q150.992 701.845 144.672 701.845 Q142.496 701.845 140.228 701.475 Q137.982 701.104 135.575 700.363 L135.575 695.664 Q137.658 696.799 139.881 697.354 Q142.103 697.91 144.58 697.91 Q148.584 697.91 150.922 695.803 Q153.26 693.697 153.26 690.086 Q153.26 686.475 150.922 684.368 Q148.584 682.262 144.58 682.262 Q142.705 682.262 140.83 682.678 Q138.978 683.095 137.033 683.975 L137.033 666.614 Z" fill="#000000" fill-rule="nonzero" fill-opacity="1"></path><path clip-path="url(#clip500)" d="M91.5706 444.576 L99.2095 444.576 L99.2095 418.211 L90.8993 419.877 L90.8993 415.618 L99.1632 413.952 L103.839 413.952 L103.839 444.576 L111.478 444.576 L111.478 448.512 L91.5706 448.512 L91.5706 444.576 Z" fill="#000000" fill-rule="nonzero" fill-opacity="1"></path><path clip-path="url(#clip500)" d="M120.922 442.632 L125.807 442.632 L125.807 448.512 L120.922 448.512 L120.922 442.632 Z" fill="#000000" fill-rule="nonzero" fill-opacity="1"></path><path clip-path="url(#clip500)" d="M145.992 417.03 Q142.381 417.03 140.552 420.595 Q138.746 424.137 138.746 431.266 Q138.746 438.373 140.552 441.937 Q142.381 445.479 145.992 445.479 Q149.626 445.479 151.431 441.937 Q153.26 438.373 153.26 431.266 Q153.26 424.137 151.431 420.595 Q149.626 417.03 145.992 417.03 M145.992 413.327 Q151.802 413.327 154.857 417.933 Q157.936 422.516 157.936 431.266 Q157.936 439.993 154.857 444.599 Q151.802 449.183 145.992 449.183 Q140.181 449.183 137.103 444.599 Q134.047 439.993 134.047 431.266 Q134.047 422.516 137.103 417.933 Q140.181 413.327 145.992 413.327 Z" fill="#000000" fill-rule="nonzero" fill-opacity="1"></path><path clip-path="url(#clip500)" d="M92.566 191.914 L100.205 191.914 L100.205 165.549 L91.8947 167.215 L91.8947 162.956 L100.159 161.289 L104.834 161.289 L104.834 191.914 L112.473 191.914 L112.473 195.849 L92.566 195.849 L92.566 191.914 Z" fill="#000000" fill-rule="nonzero" fill-opacity="1"></path><path clip-path="url(#clip500)" d="M121.918 189.97 L126.802 189.97 L126.802 195.849 L121.918 195.849 L121.918 189.97 Z" fill="#000000" fill-rule="nonzero" fill-opacity="1"></path><path clip-path="url(#clip500)" d="M137.033 161.289 L155.39 161.289 L155.39 165.225 L141.316 165.225 L141.316 173.697 Q142.334 173.349 143.353 173.187 Q144.371 173.002 145.39 173.002 Q151.177 173.002 154.556 176.174 Q157.936 179.345 157.936 184.761 Q157.936 190.34 154.464 193.442 Q150.992 196.521 144.672 196.521 Q142.496 196.521 140.228 196.15 Q137.982 195.78 135.575 195.039 L135.575 190.34 Q137.658 191.474 139.881 192.03 Q142.103 192.585 144.58 192.585 Q148.584 192.585 150.922 190.479 Q153.26 188.373 153.26 184.761 Q153.26 181.15 150.922 179.044 Q148.584 176.937 144.58 176.937 Q142.705 176.937 140.83 177.354 Q138.978 177.771 137.033 178.65 L137.033 161.289 Z" fill="#000000" fill-rule="nonzero" fill-opacity="1"></path><path clip-path="url(#clip500)" d="M934.245 12.096 L942.428 12.096 L942.428 72.576 L934.245 72.576 L934.245 12.096 Z" fill="#000000" fill-rule="nonzero" fill-opacity="1"></path><path clip-path="url(#clip500)" d="M1004 16.7545 L1004 25.383 Q999.869 21.5346 995.17 19.6307 Q990.512 17.7268 985.246 17.7268 Q974.875 17.7268 969.366 24.0867 Q963.857 30.4061 963.857 42.3968 Q963.857 54.3469 969.366 60.7069 Q974.875 67.0263 985.246 67.0263 Q990.512 67.0263 995.17 65.1223 Q999.869 63.2184 1004 59.3701 L1004 67.9175 Q999.707 70.8341 994.887 72.2924 Q990.107 73.7508 984.76 73.7508 Q971.027 73.7508 963.128 65.3654 Q955.228 56.9395 955.228 42.3968 Q955.228 27.8135 963.128 19.4281 Q971.027 11.0023 984.76 11.0023 Q990.188 11.0023 994.968 12.4606 Q999.788 13.8784 1004 16.7545 Z" fill="#000000" fill-rule="nonzero" fill-opacity="1"></path><path clip-path="url(#clip500)" d="M1036.85 20.1573 L1025.75 50.2555 L1047.99 50.2555 L1036.85 20.1573 M1032.24 12.096 L1041.51 12.096 L1064.56 72.576 L1056.06 72.576 L1050.55 57.061 L1023.28 57.061 L1017.77 72.576 L1009.15 72.576 L1032.24 12.096 Z" fill="#000000" fill-rule="nonzero" fill-opacity="1"></path><path clip-path="url(#clip500)" d="M1145.05 16.7545 L1145.05 25.383 Q1140.92 21.5346 1136.22 19.6307 Q1131.56 17.7268 1126.3 17.7268 Q1115.93 17.7268 1110.42 24.0867 Q1104.91 30.4061 1104.91 42.3968 Q1104.91 54.3469 1110.42 60.7069 Q1115.93 67.0263 1126.3 67.0263 Q1131.56 67.0263 1136.22 65.1223 Q1140.92 63.2184 1145.05 59.3701 L1145.05 67.9175 Q1140.76 70.8341 1135.94 72.2924 Q1131.16 73.7508 1125.81 73.7508 Q1112.08 73.7508 1104.18 65.3654 Q1096.28 56.9395 1096.28 42.3968 Q1096.28 27.8135 1104.18 19.4281 Q1112.08 11.0023 1125.81 11.0023 Q1131.24 11.0023 1136.02 12.4606 Q1140.84 13.8784 1145.05 16.7545 Z" fill="#000000" fill-rule="nonzero" fill-opacity="1"></path><path clip-path="url(#clip500)" d="M1174.95 32.4315 Q1168.95 32.4315 1165.47 37.1306 Q1161.99 41.7891 1161.99 49.9314 Q1161.99 58.0738 1165.43 62.7728 Q1168.91 67.4314 1174.95 67.4314 Q1180.9 67.4314 1184.39 62.7323 Q1187.87 58.0333 1187.87 49.9314 Q1187.87 41.8701 1184.39 37.1711 Q1180.9 32.4315 1174.95 32.4315 M1174.95 26.1121 Q1184.67 26.1121 1190.22 32.4315 Q1195.77 38.7509 1195.77 49.9314 Q1195.77 61.0714 1190.22 67.4314 Q1184.67 73.7508 1174.95 73.7508 Q1165.19 73.7508 1159.64 67.4314 Q1154.13 61.0714 1154.13 49.9314 Q1154.13 38.7509 1159.64 32.4315 Q1165.19 26.1121 1174.95 26.1121 Z" fill="#000000" fill-rule="nonzero" fill-opacity="1"></path><path clip-path="url(#clip500)" d="M1243.45 35.9153 Q1246.25 30.8922 1250.13 28.5022 Q1254.02 26.1121 1259.29 26.1121 Q1266.38 26.1121 1270.23 31.0947 Q1274.08 36.0368 1274.08 45.1919 L1274.08 72.576 L1266.58 72.576 L1266.58 45.4349 Q1266.58 38.913 1264.27 35.7533 Q1261.96 32.5936 1257.22 32.5936 Q1251.43 32.5936 1248.07 36.4419 Q1244.71 40.2903 1244.71 46.9338 L1244.71 72.576 L1237.21 72.576 L1237.21 45.4349 Q1237.21 38.8725 1234.9 35.7533 Q1232.59 32.5936 1227.77 32.5936 Q1222.06 32.5936 1218.7 36.4824 Q1215.34 40.3308 1215.34 46.9338 L1215.34 72.576 L1207.84 72.576 L1207.84 27.2059 L1215.34 27.2059 L1215.34 34.2544 Q1217.89 30.082 1221.45 28.0971 Q1225.02 26.1121 1229.92 26.1121 Q1234.86 26.1121 1238.31 28.6237 Q1241.79 31.1352 1243.45 35.9153 Z" fill="#000000" fill-rule="nonzero" fill-opacity="1"></path><path clip-path="url(#clip500)" d="M1296.15 65.7705 L1296.15 89.8329 L1288.66 89.8329 L1288.66 27.2059 L1296.15 27.2059 L1296.15 34.0924 Q1298.5 30.0415 1302.07 28.0971 Q1305.67 26.1121 1310.65 26.1121 Q1318.92 26.1121 1324.06 32.6746 Q1329.25 39.2371 1329.25 49.9314 Q1329.25 60.6258 1324.06 67.1883 Q1318.92 73.7508 1310.65 73.7508 Q1305.67 73.7508 1302.07 71.8063 Q1298.5 69.8214 1296.15 65.7705 M1321.51 49.9314 Q1321.51 41.7081 1318.11 37.0496 Q1314.75 32.3505 1308.83 32.3505 Q1302.92 32.3505 1299.51 37.0496 Q1296.15 41.7081 1296.15 49.9314 Q1296.15 58.1548 1299.51 62.8538 Q1302.92 67.5124 1308.83 67.5124 Q1314.75 67.5124 1318.11 62.8538 Q1321.51 58.1548 1321.51 49.9314 Z" fill="#000000" fill-rule="nonzero" fill-opacity="1"></path><path clip-path="url(#clip500)" d="M1359.18 32.4315 Q1353.19 32.4315 1349.71 37.1306 Q1346.22 41.7891 1346.22 49.9314 Q1346.22 58.0738 1349.66 62.7728 Q1353.15 67.4314 1359.18 67.4314 Q1365.14 67.4314 1368.62 62.7323 Q1372.11 58.0333 1372.11 49.9314 Q1372.11 41.8701 1368.62 37.1711 Q1365.14 32.4315 1359.18 32.4315 M1359.18 26.1121 Q1368.91 26.1121 1374.46 32.4315 Q1380.01 38.7509 1380.01 49.9314 Q1380.01 61.0714 1374.46 67.4314 Q1368.91 73.7508 1359.18 73.7508 Q1349.42 73.7508 1343.87 67.4314 Q1338.36 61.0714 1338.36 49.9314 Q1338.36 38.7509 1343.87 32.4315 Q1349.42 26.1121 1359.18 26.1121 Z" fill="#000000" fill-rule="nonzero" fill-opacity="1"></path><path clip-path="url(#clip500)" d="M1430.08 45.1919 L1430.08 72.576 L1422.62 72.576 L1422.62 45.4349 Q1422.62 38.994 1420.11 35.7938 Q1417.6 32.5936 1412.58 32.5936 Q1406.54 32.5936 1403.06 36.4419 Q1399.57 40.2903 1399.57 46.9338 L1399.57 72.576 L1392.08 72.576 L1392.08 27.2059 L1399.57 27.2059 L1399.57 34.2544 Q1402.25 30.163 1405.85 28.1376 Q1409.5 26.1121 1414.24 26.1121 Q1422.05 26.1121 1426.07 30.9732 Q1430.08 35.7938 1430.08 45.1919 Z" fill="#000000" fill-rule="nonzero" fill-opacity="1"></path><path clip-path="url(#clip500)" d="M1483.75 48.0275 L1483.75 51.6733 L1449.48 51.6733 Q1449.97 59.3701 1454.1 63.421 Q1458.27 67.4314 1465.68 67.4314 Q1469.98 67.4314 1473.99 66.3781 Q1478.04 65.3249 1482.01 63.2184 L1482.01 70.267 Q1478 71.9684 1473.78 72.8596 Q1469.57 73.7508 1465.24 73.7508 Q1454.38 73.7508 1448.02 67.4314 Q1441.7 61.1119 1441.7 50.3365 Q1441.7 39.1965 1447.7 32.6746 Q1453.73 26.1121 1463.94 26.1121 Q1473.1 26.1121 1478.4 32.0264 Q1483.75 37.9003 1483.75 48.0275 M1476.3 45.84 Q1476.22 39.7232 1472.85 36.0774 Q1469.53 32.4315 1464.02 32.4315 Q1457.78 32.4315 1454.02 35.9558 Q1450.29 39.4801 1449.72 45.8805 L1476.3 45.84 Z" fill="#000000" fill-rule="nonzero" fill-opacity="1"></path><path clip-path="url(#clip500)" d="M1533.7 45.1919 L1533.7 72.576 L1526.24 72.576 L1526.24 45.4349 Q1526.24 38.994 1523.73 35.7938 Q1521.22 32.5936 1516.2 32.5936 Q1510.16 32.5936 1506.68 36.4419 Q1503.19 40.2903 1503.19 46.9338 L1503.19 72.576 L1495.7 72.576 L1495.7 27.2059 L1503.19 27.2059 L1503.19 34.2544 Q1505.87 30.163 1509.47 28.1376 Q1513.12 26.1121 1517.86 26.1121 Q1525.68 26.1121 1529.69 30.9732 Q1533.7 35.7938 1533.7 45.1919 Z" fill="#000000" fill-rule="nonzero" fill-opacity="1"></path><path clip-path="url(#clip500)" d="M1555.94 14.324 L1555.94 27.2059 L1571.29 27.2059 L1571.29 32.9987 L1555.94 32.9987 L1555.94 57.6282 Q1555.94 63.1779 1557.44 64.7578 Q1558.98 66.3376 1563.63 66.3376 L1571.29 66.3376 L1571.29 72.576 L1563.63 72.576 Q1555.01 72.576 1551.72 69.3758 Q1548.44 66.1351 1548.44 57.6282 L1548.44 32.9987 L1542.97 32.9987 L1542.97 27.2059 L1548.44 27.2059 L1548.44 14.324 L1555.94 14.324 Z" fill="#000000" fill-rule="nonzero" fill-opacity="1"></path><path clip-path="url(#clip500)" d="M1610.02 28.5427 L1610.02 35.5912 Q1606.86 33.9709 1603.45 33.1607 Q1600.05 32.3505 1596.41 32.3505 Q1590.86 32.3505 1588.06 34.0519 Q1585.31 35.7533 1585.31 39.156 Q1585.31 41.7486 1587.29 43.2475 Q1589.28 44.7058 1595.27 46.0426 L1597.82 46.6097 Q1605.76 48.3111 1609.08 51.4303 Q1612.45 54.509 1612.45 60.0587 Q1612.45 66.3781 1607.42 70.0644 Q1602.44 73.7508 1593.69 73.7508 Q1590.05 73.7508 1586.08 73.0216 Q1582.15 72.3329 1577.77 70.9151 L1577.77 63.2184 Q1581.9 65.3654 1585.91 66.4591 Q1589.92 67.5124 1593.85 67.5124 Q1599.12 67.5124 1601.96 65.73 Q1604.79 63.9071 1604.79 60.6258 Q1604.79 57.5877 1602.72 55.9673 Q1600.7 54.3469 1593.77 52.8481 L1591.18 52.2405 Q1584.25 50.7821 1581.17 47.7845 Q1578.1 44.7463 1578.1 39.4801 Q1578.1 33.0797 1582.63 29.5959 Q1587.17 26.1121 1595.51 26.1121 Q1599.65 26.1121 1603.29 26.7198 Q1606.94 27.3274 1610.02 28.5427 Z" fill="#000000" fill-rule="nonzero" fill-opacity="1"></path><circle clip-path="url(#clip502)" cx="255.035" cy="970.009" r="14.4" fill="#009af9" fill-rule="evenodd" fill-opacity="1" stroke="#000000" stroke-opacity="1" stroke-width="3.2"></circle>
<circle clip-path="url(#clip502)" cx="662.359" cy="1071.93" r="14.4" fill="#009af9" fill-rule="evenodd" fill-opacity="1" stroke="#000000" stroke-opacity="1" stroke-width="3.2"></circle>
<circle clip-path="url(#clip502)" cx="1069.68" cy="732.031" r="14.4" fill="#009af9" fill-rule="evenodd" fill-opacity="1" stroke="#000000" stroke-opacity="1" stroke-width="3.2"></circle>
<circle clip-path="url(#clip502)" cx="1477.01" cy="1372.85" r="14.4" fill="#009af9" fill-rule="evenodd" fill-opacity="1" stroke="#000000" stroke-opacity="1" stroke-width="3.2"></circle>
<circle clip-path="url(#clip502)" cx="1884.33" cy="1030.97" r="14.4" fill="#009af9" fill-rule="evenodd" fill-opacity="1" stroke="#000000" stroke-opacity="1" stroke-width="3.2"></circle>
<circle clip-path="url(#clip502)" cx="2291.66" cy="952.134" r="14.4" fill="#009af9" fill-rule="evenodd" fill-opacity="1" stroke="#000000" stroke-opacity="1" stroke-width="3.2"></circle>
<circle clip-path="url(#clip502)" cx="255.035" cy="1226.1" r="14.4" fill="#e26f46" fill-rule="evenodd" fill-opacity="1" stroke="#000000" stroke-opacity="1" stroke-width="3.2"></circle>
<circle clip-path="url(#clip502)" cx="662.359" cy="939.669" r="14.4" fill="#e26f46" fill-rule="evenodd" fill-opacity="1" stroke="#000000" stroke-opacity="1" stroke-width="3.2"></circle>
<circle clip-path="url(#clip502)" cx="1069.68" cy="1447.87" r="14.4" fill="#e26f46" fill-rule="evenodd" fill-opacity="1" stroke="#000000" stroke-opacity="1" stroke-width="3.2"></circle>
<circle clip-path="url(#clip502)" cx="1477.01" cy="1059.91" r="14.4" fill="#e26f46" fill-rule="evenodd" fill-opacity="1" stroke="#000000" stroke-opacity="1" stroke-width="3.2"></circle>
<circle clip-path="url(#clip502)" cx="1884.33" cy="1050.86" r="14.4" fill="#e26f46" fill-rule="evenodd" fill-opacity="1" stroke="#000000" stroke-opacity="1" stroke-width="3.2"></circle>
<circle clip-path="url(#clip502)" cx="2291.66" cy="837.285" r="14.4" fill="#e26f46" fill-rule="evenodd" fill-opacity="1" stroke="#000000" stroke-opacity="1" stroke-width="3.2"></circle>
<circle clip-path="url(#clip502)" cx="255.035" cy="879.911" r="14.4" fill="#3da44d" fill-rule="evenodd" fill-opacity="1" stroke="#000000" stroke-opacity="1" stroke-width="3.2"></circle>
<circle clip-path="url(#clip502)" cx="662.359" cy="963.188" r="14.4" fill="#3da44d" fill-rule="evenodd" fill-opacity="1" stroke="#000000" stroke-opacity="1" stroke-width="3.2"></circle>
<circle clip-path="url(#clip502)" cx="1069.68" cy="851.316" r="14.4" fill="#3da44d" fill-rule="evenodd" fill-opacity="1" stroke="#000000" stroke-opacity="1" stroke-width="3.2"></circle>
<circle clip-path="url(#clip502)" cx="1477.01" cy="966.687" r="14.4" fill="#3da44d" fill-rule="evenodd" fill-opacity="1" stroke="#000000" stroke-opacity="1" stroke-width="3.2"></circle>
<circle clip-path="url(#clip502)" cx="1884.33" cy="550.772" r="14.4" fill="#3da44d" fill-rule="evenodd" fill-opacity="1" stroke="#000000" stroke-opacity="1" stroke-width="3.2"></circle>
<circle clip-path="url(#clip502)" cx="2291.66" cy="1365.46" r="14.4" fill="#3da44d" fill-rule="evenodd" fill-opacity="1" stroke="#000000" stroke-opacity="1" stroke-width="3.2"></circle>
<circle clip-path="url(#clip502)" cx="255.035" cy="162.047" r="14.4" fill="#c271d2" fill-rule="evenodd" fill-opacity="1" stroke="#000000" stroke-opacity="1" stroke-width="3.2"></circle>
<circle clip-path="url(#clip502)" cx="662.359" cy="1030.7" r="14.4" fill="#c271d2" fill-rule="evenodd" fill-opacity="1" stroke="#000000" stroke-opacity="1" stroke-width="3.2"></circle>
<circle clip-path="url(#clip502)" cx="1069.68" cy="969.168" r="14.4" fill="#c271d2" fill-rule="evenodd" fill-opacity="1" stroke="#000000" stroke-opacity="1" stroke-width="3.2"></circle>
<circle clip-path="url(#clip502)" cx="1477.01" cy="958.054" r="14.4" fill="#c271d2" fill-rule="evenodd" fill-opacity="1" stroke="#000000" stroke-opacity="1" stroke-width="3.2"></circle>
<circle clip-path="url(#clip502)" cx="1884.33" cy="1011.72" r="14.4" fill="#c271d2" fill-rule="evenodd" fill-opacity="1" stroke="#000000" stroke-opacity="1" stroke-width="3.2"></circle>
<circle clip-path="url(#clip502)" cx="2291.66" cy="844.432" r="14.4" fill="#c271d2" fill-rule="evenodd" fill-opacity="1" stroke="#000000" stroke-opacity="1" stroke-width="3.2"></circle>
<circle clip-path="url(#clip502)" cx="255.035" cy="838.519" r="14.4" fill="#ac8d18" fill-rule="evenodd" fill-opacity="1" stroke="#000000" stroke-opacity="1" stroke-width="3.2"></circle>
<circle clip-path="url(#clip502)" cx="662.359" cy="1153.43" r="14.4" fill="#ac8d18" fill-rule="evenodd" fill-opacity="1" stroke="#000000" stroke-opacity="1" stroke-width="3.2"></circle>
<circle clip-path="url(#clip502)" cx="1069.68" cy="954.482" r="14.4" fill="#ac8d18" fill-rule="evenodd" fill-opacity="1" stroke="#000000" stroke-opacity="1" stroke-width="3.2"></circle>
<circle clip-path="url(#clip502)" cx="1477.01" cy="995.461" r="14.4" fill="#ac8d18" fill-rule="evenodd" fill-opacity="1" stroke="#000000" stroke-opacity="1" stroke-width="3.2"></circle>
<circle clip-path="url(#clip502)" cx="1884.33" cy="610.984" r="14.4" fill="#ac8d18" fill-rule="evenodd" fill-opacity="1" stroke="#000000" stroke-opacity="1" stroke-width="3.2"></circle>
<circle clip-path="url(#clip502)" cx="2291.66" cy="401.506" r="14.4" fill="#ac8d18" fill-rule="evenodd" fill-opacity="1" stroke="#000000" stroke-opacity="1" stroke-width="3.2"></circle>
<circle clip-path="url(#clip502)" cx="255.035" cy="1046.19" r="14.4" fill="#00a9ad" fill-rule="evenodd" fill-opacity="1" stroke="#000000" stroke-opacity="1" stroke-width="3.2"></circle>
<circle clip-path="url(#clip502)" cx="662.359" cy="801.156" r="14.4" fill="#00a9ad" fill-rule="evenodd" fill-opacity="1" stroke="#000000" stroke-opacity="1" stroke-width="3.2"></circle>
<circle clip-path="url(#clip502)" cx="1069.68" cy="918.285" r="14.4" fill="#00a9ad" fill-rule="evenodd" fill-opacity="1" stroke="#000000" stroke-opacity="1" stroke-width="3.2"></circle>
<circle clip-path="url(#clip502)" cx="1477.01" cy="964.164" r="14.4" fill="#00a9ad" fill-rule="evenodd" fill-opacity="1" stroke="#000000" stroke-opacity="1" stroke-width="3.2"></circle>
<circle clip-path="url(#clip502)" cx="1884.33" cy="957.782" r="14.4" fill="#00a9ad" fill-rule="evenodd" fill-opacity="1" stroke="#000000" stroke-opacity="1" stroke-width="3.2"></circle>
<circle clip-path="url(#clip502)" cx="2291.66" cy="985.953" r="14.4" fill="#00a9ad" fill-rule="evenodd" fill-opacity="1" stroke="#000000" stroke-opacity="1" stroke-width="3.2"></circle>
<path clip-path="url(#clip500)" d="M1946.77 531.785 L2280.8 531.785 L2280.8 168.905 L1946.77 168.905  Z" fill="#ffffff" fill-rule="evenodd" fill-opacity="1"></path>
<polyline clip-path="url(#clip500)" style="stroke:#000000; stroke-linecap:round; stroke-linejoin:round; stroke-width:4; stroke-opacity:1; fill:none" points="1946.77,531.785 2280.8,531.785 2280.8,168.905 1946.77,168.905 1946.77,531.785 "></polyline>
<circle clip-path="url(#clip500)" cx="2042.71" cy="220.745" r="20.48" fill="#009af9" fill-rule="evenodd" fill-opacity="1" stroke="#000000" stroke-opacity="1" stroke-width="4.55111"></circle>
<path clip-path="url(#clip500)" d="M2138.66 203.465 L2160.51 203.465 L2160.51 207.4 L2143.34 207.4 L2143.34 217.631 L2159.79 217.631 L2159.79 221.566 L2143.34 221.566 L2143.34 234.089 L2160.93 234.089 L2160.93 238.025 L2138.66 238.025 L2138.66 203.465 Z" fill="#000000" fill-rule="nonzero" fill-opacity="1"></path><path clip-path="url(#clip500)" d="M2168.61 203.465 L2173.29 203.465 L2173.29 234.089 L2190.12 234.089 L2190.12 238.025 L2168.61 238.025 L2168.61 203.465 Z" fill="#000000" fill-rule="nonzero" fill-opacity="1"></path><path clip-path="url(#clip500)" d="M2207.67 208.071 L2201.32 225.27 L2214.03 225.27 L2207.67 208.071 M2205.03 203.465 L2210.33 203.465 L2223.5 238.025 L2218.64 238.025 L2215.49 229.159 L2199.91 229.159 L2196.76 238.025 L2191.83 238.025 L2205.03 203.465 Z" fill="#000000" fill-rule="nonzero" fill-opacity="1"></path><path clip-path="url(#clip500)" d="M2228.54 203.465 L2234.84 203.465 L2250.16 232.377 L2250.16 203.465 L2254.7 203.465 L2254.7 238.025 L2248.41 238.025 L2233.08 209.113 L2233.08 238.025 L2228.54 238.025 L2228.54 203.465 Z" fill="#000000" fill-rule="nonzero" fill-opacity="1"></path><circle clip-path="url(#clip500)" cx="2042.71" cy="272.585" r="20.48" fill="#e26f46" fill-rule="evenodd" fill-opacity="1" stroke="#000000" stroke-opacity="1" stroke-width="4.55111"></circle>
<path clip-path="url(#clip500)" d="M2138.66 255.305 L2143.34 255.305 L2143.34 285.929 L2160.17 285.929 L2160.17 289.865 L2138.66 289.865 L2138.66 255.305 Z" fill="#000000" fill-rule="nonzero" fill-opacity="1"></path><path clip-path="url(#clip500)" d="M2177.71 259.911 L2171.37 277.11 L2184.08 277.11 L2177.71 259.911 M2175.07 255.305 L2180.37 255.305 L2193.54 289.865 L2188.68 289.865 L2185.54 280.999 L2169.96 280.999 L2166.81 289.865 L2161.88 289.865 L2175.07 255.305 Z" fill="#000000" fill-rule="nonzero" fill-opacity="1"></path><path clip-path="url(#clip500)" d="M2198.59 255.305 L2204.89 255.305 L2220.21 284.217 L2220.21 255.305 L2224.75 255.305 L2224.75 289.865 L2218.45 289.865 L2203.13 260.953 L2203.13 289.865 L2198.59 289.865 L2198.59 255.305 Z" fill="#000000" fill-rule="nonzero" fill-opacity="1"></path><circle clip-path="url(#clip500)" cx="2042.71" cy="324.425" r="20.48" fill="#3da44d" fill-rule="evenodd" fill-opacity="1" stroke="#000000" stroke-opacity="1" stroke-width="4.55111"></circle>
<path clip-path="url(#clip500)" d="M2138.66 307.145 L2144.96 307.145 L2160.28 336.057 L2160.28 307.145 L2164.82 307.145 L2164.82 341.705 L2158.52 341.705 L2143.2 312.793 L2143.2 341.705 L2138.66 341.705 L2138.66 307.145 Z" fill="#000000" fill-rule="nonzero" fill-opacity="1"></path><path clip-path="url(#clip500)" d="M2187.39 311.219 L2175.58 329.668 L2187.39 329.668 L2187.39 311.219 M2186.16 307.145 L2192.04 307.145 L2192.04 329.668 L2196.97 329.668 L2196.97 333.557 L2192.04 333.557 L2192.04 341.705 L2187.39 341.705 L2187.39 333.557 L2171.79 333.557 L2171.79 329.043 L2186.16 307.145 Z" fill="#000000" fill-rule="nonzero" fill-opacity="1"></path><path clip-path="url(#clip500)" d="M2214.7 310.223 Q2211.09 310.223 2209.26 313.788 Q2207.46 317.33 2207.46 324.459 Q2207.46 331.566 2209.26 335.131 Q2211.09 338.672 2214.7 338.672 Q2218.34 338.672 2220.14 335.131 Q2221.97 331.566 2221.97 324.459 Q2221.97 317.33 2220.14 313.788 Q2218.34 310.223 2214.7 310.223 M2214.7 306.52 Q2220.51 306.52 2223.57 311.126 Q2226.65 315.709 2226.65 324.459 Q2226.65 333.186 2223.57 337.793 Q2220.51 342.376 2214.7 342.376 Q2208.89 342.376 2205.81 337.793 Q2202.76 333.186 2202.76 324.459 Q2202.76 315.709 2205.81 311.126 Q2208.89 306.52 2214.7 306.52 Z" fill="#000000" fill-rule="nonzero" fill-opacity="1"></path><path clip-path="url(#clip500)" d="M2244.86 310.223 Q2241.25 310.223 2239.42 313.788 Q2237.62 317.33 2237.62 324.459 Q2237.62 331.566 2239.42 335.131 Q2241.25 338.672 2244.86 338.672 Q2248.5 338.672 2250.3 335.131 Q2252.13 331.566 2252.13 324.459 Q2252.13 317.33 2250.3 313.788 Q2248.5 310.223 2244.86 310.223 M2244.86 306.52 Q2250.67 306.52 2253.73 311.126 Q2256.81 315.709 2256.81 324.459 Q2256.81 333.186 2253.73 337.793 Q2250.67 342.376 2244.86 342.376 Q2239.05 342.376 2235.98 337.793 Q2232.92 333.186 2232.92 324.459 Q2232.92 315.709 2235.98 311.126 Q2239.05 306.52 2244.86 306.52 Z" fill="#000000" fill-rule="nonzero" fill-opacity="1"></path><circle clip-path="url(#clip500)" cx="2042.71" cy="376.265" r="20.48" fill="#c271d2" fill-rule="evenodd" fill-opacity="1" stroke="#000000" stroke-opacity="1" stroke-width="4.55111"></circle>
<path clip-path="url(#clip500)" d="M2138.66 358.985 L2160.51 358.985 L2160.51 362.92 L2143.34 362.92 L2143.34 373.151 L2159.79 373.151 L2159.79 377.086 L2143.34 377.086 L2143.34 389.609 L2160.93 389.609 L2160.93 393.545 L2138.66 393.545 L2138.66 358.985 Z" fill="#000000" fill-rule="nonzero" fill-opacity="1"></path><path clip-path="url(#clip500)" d="M2173.29 362.827 L2173.29 375.813 L2179.17 375.813 Q2182.43 375.813 2184.22 374.123 Q2186 372.434 2186 369.309 Q2186 366.207 2184.22 364.517 Q2182.43 362.827 2179.17 362.827 L2173.29 362.827 M2168.61 358.985 L2179.17 358.985 Q2184.98 358.985 2187.94 361.624 Q2190.93 364.239 2190.93 369.309 Q2190.93 374.424 2187.94 377.04 Q2184.98 379.656 2179.17 379.656 L2173.29 379.656 L2173.29 393.545 L2168.61 393.545 L2168.61 358.985 Z" fill="#000000" fill-rule="nonzero" fill-opacity="1"></path><path clip-path="url(#clip500)" d="M2197.2 358.985 L2203.5 358.985 L2218.82 387.897 L2218.82 358.985 L2223.36 358.985 L2223.36 393.545 L2217.06 393.545 L2201.74 364.633 L2201.74 393.545 L2197.2 393.545 L2197.2 358.985 Z" fill="#000000" fill-rule="nonzero" fill-opacity="1"></path><path clip-path="url(#clip500)" d="M2237.34 362.827 L2237.34 375.813 L2243.22 375.813 Q2246.48 375.813 2248.27 374.123 Q2250.05 372.434 2250.05 369.309 Q2250.05 366.207 2248.27 364.517 Q2246.48 362.827 2243.22 362.827 L2237.34 362.827 M2232.66 358.985 L2243.22 358.985 Q2249.03 358.985 2251.99 361.624 Q2254.98 364.239 2254.98 369.309 Q2254.98 374.424 2251.99 377.04 Q2249.03 379.656 2243.22 379.656 L2237.34 379.656 L2237.34 393.545 L2232.66 393.545 L2232.66 358.985 Z" fill="#000000" fill-rule="nonzero" fill-opacity="1"></path><circle clip-path="url(#clip500)" cx="2042.71" cy="428.105" r="20.48" fill="#ac8d18" fill-rule="evenodd" fill-opacity="1" stroke="#000000" stroke-opacity="1" stroke-width="4.55111"></circle>
<path clip-path="url(#clip500)" d="M2143.34 414.667 L2143.34 427.653 L2149.22 427.653 Q2152.48 427.653 2154.26 425.963 Q2156.05 424.274 2156.05 421.149 Q2156.05 418.047 2154.26 416.357 Q2152.48 414.667 2149.22 414.667 L2143.34 414.667 M2138.66 410.825 L2149.22 410.825 Q2155.03 410.825 2157.99 413.464 Q2160.98 416.079 2160.98 421.149 Q2160.98 426.264 2157.99 428.88 Q2155.03 431.496 2149.22 431.496 L2143.34 431.496 L2143.34 445.385 L2138.66 445.385 L2138.66 410.825 Z" fill="#000000" fill-rule="nonzero" fill-opacity="1"></path><path clip-path="url(#clip500)" d="M2178.24 426.241 Q2175.1 426.241 2173.24 428.394 Q2171.42 430.547 2171.42 434.297 Q2171.42 438.024 2173.24 440.199 Q2175.1 442.352 2178.24 442.352 Q2181.39 442.352 2183.22 440.199 Q2185.07 438.024 2185.07 434.297 Q2185.07 430.547 2183.22 428.394 Q2181.39 426.241 2178.24 426.241 M2187.53 411.589 L2187.53 415.848 Q2185.77 415.014 2183.96 414.575 Q2182.18 414.135 2180.42 414.135 Q2175.79 414.135 2173.34 417.26 Q2170.91 420.385 2170.56 426.704 Q2171.92 424.69 2173.98 423.626 Q2176.04 422.538 2178.52 422.538 Q2183.73 422.538 2186.74 425.709 Q2189.77 428.857 2189.77 434.297 Q2189.77 439.621 2186.62 442.838 Q2183.48 446.056 2178.24 446.056 Q2172.25 446.056 2169.08 441.473 Q2165.91 436.866 2165.91 428.139 Q2165.91 419.945 2169.79 415.084 Q2173.68 410.2 2180.23 410.2 Q2181.99 410.2 2183.78 410.547 Q2185.58 410.894 2187.53 411.589 Z" fill="#000000" fill-rule="nonzero" fill-opacity="1"></path><path clip-path="url(#clip500)" d="M2207.83 413.903 Q2204.22 413.903 2202.39 417.468 Q2200.58 421.01 2200.58 428.139 Q2200.58 435.246 2202.39 438.811 Q2204.22 442.352 2207.83 442.352 Q2211.46 442.352 2213.27 438.811 Q2215.1 435.246 2215.1 428.139 Q2215.1 421.01 2213.27 417.468 Q2211.46 413.903 2207.83 413.903 M2207.83 410.2 Q2213.64 410.2 2216.69 414.806 Q2219.77 419.389 2219.77 428.139 Q2219.77 436.866 2216.69 441.473 Q2213.64 446.056 2207.83 446.056 Q2202.02 446.056 2198.94 441.473 Q2195.88 436.866 2195.88 428.139 Q2195.88 419.389 2198.94 414.806 Q2202.02 410.2 2207.83 410.2 Z" fill="#000000" fill-rule="nonzero" fill-opacity="1"></path><path clip-path="url(#clip500)" d="M2237.99 413.903 Q2234.38 413.903 2232.55 417.468 Q2230.74 421.01 2230.74 428.139 Q2230.74 435.246 2232.55 438.811 Q2234.38 442.352 2237.99 442.352 Q2241.62 442.352 2243.43 438.811 Q2245.26 435.246 2245.26 428.139 Q2245.26 421.01 2243.43 417.468 Q2241.62 413.903 2237.99 413.903 M2237.99 410.2 Q2243.8 410.2 2246.85 414.806 Q2249.93 419.389 2249.93 428.139 Q2249.93 436.866 2246.85 441.473 Q2243.8 446.056 2237.99 446.056 Q2232.18 446.056 2229.1 441.473 Q2226.04 436.866 2226.04 428.139 Q2226.04 419.389 2229.1 414.806 Q2232.18 410.2 2237.99 410.2 Z" fill="#000000" fill-rule="nonzero" fill-opacity="1"></path><circle clip-path="url(#clip500)" cx="2042.71" cy="479.945" r="20.48" fill="#00a9ad" fill-rule="evenodd" fill-opacity="1" stroke="#000000" stroke-opacity="1" stroke-width="4.55111"></circle>
<path clip-path="url(#clip500)" d="M2143.34 466.507 L2143.34 479.493 L2149.22 479.493 Q2152.48 479.493 2154.26 477.803 Q2156.05 476.114 2156.05 472.989 Q2156.05 469.887 2154.26 468.197 Q2152.48 466.507 2149.22 466.507 L2143.34 466.507 M2138.66 462.665 L2149.22 462.665 Q2155.03 462.665 2157.99 465.304 Q2160.98 467.919 2160.98 472.989 Q2160.98 478.104 2157.99 480.72 Q2155.03 483.336 2149.22 483.336 L2143.34 483.336 L2143.34 497.225 L2138.66 497.225 L2138.66 462.665 Z" fill="#000000" fill-rule="nonzero" fill-opacity="1"></path><path clip-path="url(#clip500)" d="M2167.25 462.665 L2173.54 462.665 L2188.87 491.577 L2188.87 462.665 L2193.41 462.665 L2193.41 497.225 L2187.11 497.225 L2171.79 468.313 L2171.79 497.225 L2167.25 497.225 L2167.25 462.665 Z" fill="#000000" fill-rule="nonzero" fill-opacity="1"></path><path clip-path="url(#clip500)" d="M2207.39 466.507 L2207.39 479.493 L2213.27 479.493 Q2216.53 479.493 2218.31 477.803 Q2220.1 476.114 2220.1 472.989 Q2220.1 469.887 2218.31 468.197 Q2216.53 466.507 2213.27 466.507 L2207.39 466.507 M2202.71 462.665 L2213.27 462.665 Q2219.08 462.665 2222.04 465.304 Q2225.03 467.919 2225.03 472.989 Q2225.03 478.104 2222.04 480.72 Q2219.08 483.336 2213.27 483.336 L2207.39 483.336 L2207.39 497.225 L2202.71 497.225 L2202.71 462.665 Z" fill="#000000" fill-rule="nonzero" fill-opacity="1"></path></svg>