<svg xmlns="http://www.w3.org/2000/svg" xmlns:xlink="http://www.w3.org/1999/xlink" width="600" height="400" viewBox="0 0 2400 1600">
<defs>
  <clipPath id="clip880">
    <rect x="0" y="0" width="2400" height="1600"></rect>
  </clipPath>
</defs>
<path clip-path="url(#clip880)" d="M0 1600 L2400 1600 L2400 0 L0 0  Z" fill="#ffffff" fill-rule="evenodd" fill-opacity="1"></path>
<defs>
  <clipPath id="clip881">
    <rect x="480" y="0" width="1681" height="1600"></rect>
  </clipPath>
</defs>
<path clip-path="url(#clip880)" d="M169.121 1486.45 L2352.76 1486.45 L2352.76 47.2441 L169.121 47.2441  Z" fill="#ffffff" fill-rule="evenodd" fill-opacity="1"></path>
<defs>
  <clipPath id="clip882">
    <rect x="169" y="47" width="2185" height="1440"></rect>
  </clipPath>
</defs>
<polyline clip-path="url(#clip882)" style="stroke:#000000; stroke-linecap:round; stroke-linejoin:round; stroke-width:2; stroke-opacity:0.1; fill:none" points="228.86,1486.45 228.86,47.2441 "></polyline>
<polyline clip-path="url(#clip882)" style="stroke:#000000; stroke-linecap:round; stroke-linejoin:round; stroke-width:2; stroke-opacity:0.1; fill:none" points="744.384,1486.45 744.384,47.2441 "></polyline>
<polyline clip-path="url(#clip882)" style="stroke:#000000; stroke-linecap:round; stroke-linejoin:round; stroke-width:2; stroke-opacity:0.1; fill:none" points="1259.91,1486.45 1259.91,47.2441 "></polyline>
<polyline clip-path="url(#clip882)" style="stroke:#000000; stroke-linecap:round; stroke-linejoin:round; stroke-width:2; stroke-opacity:0.1; fill:none" points="1775.43,1486.45 1775.43,47.2441 "></polyline>
<polyline clip-path="url(#clip882)" style="stroke:#000000; stroke-linecap:round; stroke-linejoin:round; stroke-width:2; stroke-opacity:0.1; fill:none" points="2290.95,1486.45 2290.95,47.2441 "></polyline>
<polyline clip-path="url(#clip880)" style="stroke:#000000; stroke-linecap:round; stroke-linejoin:round; stroke-width:4; stroke-opacity:1; fill:none" points="169.121,1486.45 2352.76,1486.45 "></polyline>
<polyline clip-path="url(#clip880)" style="stroke:#000000; stroke-linecap:round; stroke-linejoin:round; stroke-width:4; stroke-opacity:1; fill:none" points="228.86,1486.45 228.86,1467.55 "></polyline>
<polyline clip-path="url(#clip880)" style="stroke:#000000; stroke-linecap:round; stroke-linejoin:round; stroke-width:4; stroke-opacity:1; fill:none" points="744.384,1486.45 744.384,1467.55 "></polyline>
<polyline clip-path="url(#clip880)" style="stroke:#000000; stroke-linecap:round; stroke-linejoin:round; stroke-width:4; stroke-opacity:1; fill:none" points="1259.91,1486.45 1259.91,1467.55 "></polyline>
<polyline clip-path="url(#clip880)" style="stroke:#000000; stroke-linecap:round; stroke-linejoin:round; stroke-width:4; stroke-opacity:1; fill:none" points="1775.43,1486.45 1775.43,1467.55 "></polyline>
<polyline clip-path="url(#clip880)" style="stroke:#000000; stroke-linecap:round; stroke-linejoin:round; stroke-width:4; stroke-opacity:1; fill:none" points="2290.95,1486.45 2290.95,1467.55 "></polyline>
<path clip-path="url(#clip880)" d="M228.86 1517.37 Q225.249 1517.37 223.42 1520.93 Q221.615 1524.47 221.615 1531.6 Q221.615 1538.71 223.42 1542.27 Q225.249 1545.82 228.86 1545.82 Q232.494 1545.82 234.3 1542.27 Q236.129 1538.71 236.129 1531.6 Q236.129 1524.47 234.3 1520.93 Q232.494 1517.37 228.86 1517.37 M228.86 1513.66 Q234.67 1513.66 237.726 1518.27 Q240.805 1522.85 240.805 1531.6 Q240.805 1540.33 237.726 1544.94 Q234.67 1549.52 228.86 1549.52 Q223.05 1549.52 219.971 1544.94 Q216.916 1540.33 216.916 1531.6 Q216.916 1522.85 219.971 1518.27 Q223.05 1513.66 228.86 1513.66 Z" fill="#000000" fill-rule="nonzero" fill-opacity="1"></path><path clip-path="url(#clip880)" d="M708.076 1544.91 L724.396 1544.91 L724.396 1548.85 L702.451 1548.85 L702.451 1544.91 Q705.113 1542.16 709.697 1537.53 Q714.303 1532.88 715.484 1531.53 Q717.729 1529.01 718.609 1527.27 Q719.511 1525.51 719.511 1523.82 Q719.511 1521.07 717.567 1519.33 Q715.646 1517.6 712.544 1517.6 Q710.345 1517.6 707.891 1518.36 Q705.46 1519.13 702.683 1520.68 L702.683 1515.95 Q705.507 1514.82 707.96 1514.24 Q710.414 1513.66 712.451 1513.66 Q717.822 1513.66 721.016 1516.35 Q724.21 1519.03 724.21 1523.52 Q724.21 1525.65 723.4 1527.57 Q722.613 1529.47 720.507 1532.07 Q719.928 1532.74 716.826 1535.95 Q713.724 1539.15 708.076 1544.91 Z" fill="#000000" fill-rule="nonzero" fill-opacity="1"></path><path clip-path="url(#clip880)" d="M734.257 1514.29 L752.613 1514.29 L752.613 1518.22 L738.539 1518.22 L738.539 1526.7 Q739.558 1526.35 740.576 1526.19 Q741.595 1526 742.613 1526 Q748.4 1526 751.78 1529.17 Q755.159 1532.34 755.159 1537.76 Q755.159 1543.34 751.687 1546.44 Q748.215 1549.52 741.895 1549.52 Q739.72 1549.52 737.451 1549.15 Q735.206 1548.78 732.798 1548.04 L732.798 1543.34 Q734.882 1544.47 737.104 1545.03 Q739.326 1545.58 741.803 1545.58 Q745.807 1545.58 748.145 1543.48 Q750.483 1541.37 750.483 1537.76 Q750.483 1534.15 748.145 1532.04 Q745.807 1529.94 741.803 1529.94 Q739.928 1529.94 738.053 1530.35 Q736.201 1530.77 734.257 1531.65 L734.257 1514.29 Z" fill="#000000" fill-rule="nonzero" fill-opacity="1"></path><path clip-path="url(#clip880)" d="M774.372 1517.37 Q770.761 1517.37 768.932 1520.93 Q767.127 1524.47 767.127 1531.6 Q767.127 1538.71 768.932 1542.27 Q770.761 1545.82 774.372 1545.82 Q778.006 1545.82 779.812 1542.27 Q781.641 1538.71 781.641 1531.6 Q781.641 1524.47 779.812 1520.93 Q778.006 1517.37 774.372 1517.37 M774.372 1513.66 Q780.182 1513.66 783.238 1518.27 Q786.317 1522.85 786.317 1531.6 Q786.317 1540.33 783.238 1544.94 Q780.182 1549.52 774.372 1549.52 Q768.562 1549.52 765.483 1544.94 Q762.428 1540.33 762.428 1531.6 Q762.428 1522.85 765.483 1518.27 Q768.562 1513.66 774.372 1513.66 Z" fill="#000000" fill-rule="nonzero" fill-opacity="1"></path><path clip-path="url(#clip880)" d="M1219.53 1514.29 L1237.88 1514.29 L1237.88 1518.22 L1223.81 1518.22 L1223.81 1526.7 Q1224.83 1526.35 1225.85 1526.19 Q1226.86 1526 1227.88 1526 Q1233.67 1526 1237.05 1529.17 Q1240.43 1532.34 1240.43 1537.76 Q1240.43 1543.34 1236.96 1546.44 Q1233.48 1549.52 1227.16 1549.52 Q1224.99 1549.52 1222.72 1549.15 Q1220.47 1548.78 1218.07 1548.04 L1218.07 1543.34 Q1220.15 1544.47 1222.37 1545.03 Q1224.6 1545.58 1227.07 1545.58 Q1231.08 1545.58 1233.41 1543.48 Q1235.75 1541.37 1235.75 1537.76 Q1235.75 1534.15 1233.41 1532.04 Q1231.08 1529.94 1227.07 1529.94 Q1225.2 1529.94 1223.32 1530.35 Q1221.47 1530.77 1219.53 1531.65 L1219.53 1514.29 Z" fill="#000000" fill-rule="nonzero" fill-opacity="1"></path><path clip-path="url(#clip880)" d="M1259.64 1517.37 Q1256.03 1517.37 1254.2 1520.93 Q1252.4 1524.47 1252.4 1531.6 Q1252.4 1538.71 1254.2 1542.27 Q1256.03 1545.82 1259.64 1545.82 Q1263.28 1545.82 1265.08 1542.27 Q1266.91 1538.71 1266.91 1531.6 Q1266.91 1524.47 1265.08 1520.93 Q1263.28 1517.37 1259.64 1517.37 M1259.64 1513.66 Q1265.45 1513.66 1268.51 1518.27 Q1271.59 1522.85 1271.59 1531.6 Q1271.59 1540.33 1268.51 1544.94 Q1265.45 1549.52 1259.64 1549.52 Q1253.83 1549.52 1250.75 1544.94 Q1247.7 1540.33 1247.7 1531.6 Q1247.7 1522.85 1250.75 1518.27 Q1253.83 1513.66 1259.64 1513.66 Z" fill="#000000" fill-rule="nonzero" fill-opacity="1"></path><path clip-path="url(#clip880)" d="M1289.8 1517.37 Q1286.19 1517.37 1284.36 1520.93 Q1282.56 1524.47 1282.56 1531.6 Q1282.56 1538.71 1284.36 1542.27 Q1286.19 1545.82 1289.8 1545.82 Q1293.44 1545.82 1295.24 1542.27 Q1297.07 1538.71 1297.07 1531.6 Q1297.07 1524.47 1295.24 1520.93 Q1293.44 1517.37 1289.8 1517.37 M1289.8 1513.66 Q1295.61 1513.66 1298.67 1518.27 Q1301.75 1522.85 1301.75 1531.6 Q1301.75 1540.33 1298.67 1544.94 Q1295.61 1549.52 1289.8 1549.52 Q1283.99 1549.52 1280.91 1544.94 Q1277.86 1540.33 1277.86 1531.6 Q1277.86 1522.85 1280.91 1518.27 Q1283.99 1513.66 1289.8 1513.66 Z" fill="#000000" fill-rule="nonzero" fill-opacity="1"></path><path clip-path="url(#clip880)" d="M1733.71 1514.29 L1755.93 1514.29 L1755.93 1516.28 L1743.38 1548.85 L1738.5 1548.85 L1750.3 1518.22 L1733.71 1518.22 L1733.71 1514.29 Z" fill="#000000" fill-rule="nonzero" fill-opacity="1"></path><path clip-path="url(#clip880)" d="M1765.1 1514.29 L1783.45 1514.29 L1783.45 1518.22 L1769.38 1518.22 L1769.38 1526.7 Q1770.4 1526.35 1771.42 1526.19 Q1772.43 1526 1773.45 1526 Q1779.24 1526 1782.62 1529.17 Q1786 1532.34 1786 1537.76 Q1786 1543.34 1782.53 1546.44 Q1779.05 1549.52 1772.73 1549.52 Q1770.56 1549.52 1768.29 1549.15 Q1766.04 1548.78 1763.64 1548.04 L1763.64 1543.34 Q1765.72 1544.47 1767.94 1545.03 Q1770.17 1545.58 1772.64 1545.58 Q1776.65 1545.58 1778.98 1543.48 Q1781.32 1541.37 1781.32 1537.76 Q1781.32 1534.15 1778.98 1532.04 Q1776.65 1529.94 1772.64 1529.94 Q1770.77 1529.94 1768.89 1530.35 Q1767.04 1530.77 1765.1 1531.65 L1765.1 1514.29 Z" fill="#000000" fill-rule="nonzero" fill-opacity="1"></path><path clip-path="url(#clip880)" d="M1805.21 1517.37 Q1801.6 1517.37 1799.77 1520.93 Q1797.97 1524.47 1797.97 1531.6 Q1797.97 1538.71 1799.77 1542.27 Q1801.6 1545.82 1805.21 1545.82 Q1808.85 1545.82 1810.65 1542.27 Q1812.48 1538.71 1812.48 1531.6 Q1812.48 1524.47 1810.65 1520.93 Q1808.85 1517.37 1805.21 1517.37 M1805.21 1513.66 Q1811.02 1513.66 1814.08 1518.27 Q1817.16 1522.85 1817.16 1531.6 Q1817.16 1540.33 1814.08 1544.94 Q1811.02 1549.52 1805.21 1549.52 Q1799.4 1549.52 1796.32 1544.94 Q1793.27 1540.33 1793.27 1531.6 Q1793.27 1522.85 1796.32 1518.27 Q1799.4 1513.66 1805.21 1513.66 Z" fill="#000000" fill-rule="nonzero" fill-opacity="1"></path><path clip-path="url(#clip880)" d="M2235.48 1544.91 L2243.12 1544.91 L2243.12 1518.55 L2234.81 1520.21 L2234.81 1515.95 L2243.07 1514.29 L2247.75 1514.29 L2247.75 1544.91 L2255.39 1544.91 L2255.39 1548.85 L2235.48 1548.85 L2235.48 1544.91 Z" fill="#000000" fill-rule="nonzero" fill-opacity="1"></path><path clip-path="url(#clip880)" d="M2274.83 1517.37 Q2271.22 1517.37 2269.39 1520.93 Q2267.59 1524.47 2267.59 1531.6 Q2267.59 1538.71 2269.39 1542.27 Q2271.22 1545.82 2274.83 1545.82 Q2278.47 1545.82 2280.27 1542.27 Q2282.1 1538.71 2282.1 1531.6 Q2282.1 1524.47 2280.27 1520.93 Q2278.47 1517.37 2274.83 1517.37 M2274.83 1513.66 Q2280.64 1513.66 2283.7 1518.27 Q2286.78 1522.85 2286.78 1531.6 Q2286.78 1540.33 2283.7 1544.94 Q2280.64 1549.52 2274.83 1549.52 Q2269.02 1549.52 2265.94 1544.94 Q2262.89 1540.33 2262.89 1531.6 Q2262.89 1522.85 2265.94 1518.27 Q2269.02 1513.66 2274.83 1513.66 Z" fill="#000000" fill-rule="nonzero" fill-opacity="1"></path><path clip-path="url(#clip880)" d="M2304.99 1517.37 Q2301.38 1517.37 2299.55 1520.93 Q2297.75 1524.47 2297.75 1531.6 Q2297.75 1538.71 2299.55 1542.27 Q2301.38 1545.82 2304.99 1545.82 Q2308.63 1545.82 2310.43 1542.27 Q2312.26 1538.71 2312.26 1531.6 Q2312.26 1524.47 2310.43 1520.93 Q2308.63 1517.37 2304.99 1517.37 M2304.99 1513.66 Q2310.8 1513.66 2313.86 1518.27 Q2316.94 1522.85 2316.94 1531.6 Q2316.94 1540.33 2313.86 1544.94 Q2310.8 1549.52 2304.99 1549.52 Q2299.18 1549.52 2296.11 1544.94 Q2293.05 1540.33 2293.05 1531.6 Q2293.05 1522.85 2296.11 1518.27 Q2299.18 1513.66 2304.99 1513.66 Z" fill="#000000" fill-rule="nonzero" fill-opacity="1"></path><path clip-path="url(#clip880)" d="M2335.16 1517.37 Q2331.54 1517.37 2329.72 1520.93 Q2327.91 1524.47 2327.91 1531.6 Q2327.91 1538.71 2329.72 1542.27 Q2331.54 1545.82 2335.16 1545.82 Q2338.79 1545.82 2340.6 1542.27 Q2342.42 1538.71 2342.42 1531.6 Q2342.42 1524.47 2340.6 1520.93 Q2338.79 1517.37 2335.16 1517.37 M2335.16 1513.66 Q2340.97 1513.66 2344.02 1518.27 Q2347.1 1522.85 2347.1 1531.6 Q2347.1 1540.33 2344.02 1544.94 Q2340.97 1549.52 2335.16 1549.52 Q2329.35 1549.52 2326.27 1544.94 Q2323.21 1540.33 2323.21 1531.6 Q2323.21 1522.85 2326.27 1518.27 Q2329.35 1513.66 2335.16 1513.66 Z" fill="#000000" fill-rule="nonzero" fill-opacity="1"></path><polyline clip-path="url(#clip882)" style="stroke:#000000; stroke-linecap:round; stroke-linejoin:round; stroke-width:2; stroke-opacity:0.1; fill:none" points="169.121,1207.98 2352.76,1207.98 "></polyline>
<polyline clip-path="url(#clip882)" style="stroke:#000000; stroke-linecap:round; stroke-linejoin:round; stroke-width:2; stroke-opacity:0.1; fill:none" points="169.121,927.867 2352.76,927.867 "></polyline>
<polyline clip-path="url(#clip882)" style="stroke:#000000; stroke-linecap:round; stroke-linejoin:round; stroke-width:2; stroke-opacity:0.1; fill:none" points="169.121,647.749 2352.76,647.749 "></polyline>
<polyline clip-path="url(#clip882)" style="stroke:#000000; stroke-linecap:round; stroke-linejoin:round; stroke-width:2; stroke-opacity:0.1; fill:none" points="169.121,367.632 2352.76,367.632 "></polyline>
<polyline clip-path="url(#clip882)" style="stroke:#000000; stroke-linecap:round; stroke-linejoin:round; stroke-width:2; stroke-opacity:0.1; fill:none" points="169.121,87.515 2352.76,87.515 "></polyline>
<polyline clip-path="url(#clip880)" style="stroke:#000000; stroke-linecap:round; stroke-linejoin:round; stroke-width:4; stroke-opacity:1; fill:none" points="169.121,1486.45 169.121,47.2441 "></polyline>
<polyline clip-path="url(#clip880)" style="stroke:#000000; stroke-linecap:round; stroke-linejoin:round; stroke-width:4; stroke-opacity:1; fill:none" points="169.121,1207.98 188.019,1207.98 "></polyline>
<polyline clip-path="url(#clip880)" style="stroke:#000000; stroke-linecap:round; stroke-linejoin:round; stroke-width:4; stroke-opacity:1; fill:none" points="169.121,927.867 188.019,927.867 "></polyline>
<polyline clip-path="url(#clip880)" style="stroke:#000000; stroke-linecap:round; stroke-linejoin:round; stroke-width:4; stroke-opacity:1; fill:none" points="169.121,647.749 188.019,647.749 "></polyline>
<polyline clip-path="url(#clip880)" style="stroke:#000000; stroke-linecap:round; stroke-linejoin:round; stroke-width:4; stroke-opacity:1; fill:none" points="169.121,367.632 188.019,367.632 "></polyline>
<polyline clip-path="url(#clip880)" style="stroke:#000000; stroke-linecap:round; stroke-linejoin:round; stroke-width:4; stroke-opacity:1; fill:none" points="169.121,87.515 188.019,87.515 "></polyline>
<path clip-path="url(#clip880)" d="M86.0382 1221.33 L102.358 1221.33 L102.358 1225.26 L80.4133 1225.26 L80.4133 1221.33 Q83.0753 1218.57 87.6586 1213.94 Q92.2651 1209.29 93.4456 1207.95 Q95.691 1205.43 96.5706 1203.69 Q97.4734 1201.93 97.4734 1200.24 Q97.4734 1197.49 95.5289 1195.75 Q93.6076 1194.01 90.5058 1194.01 Q88.3067 1194.01 85.8531 1194.78 Q83.4225 1195.54 80.6447 1197.09 L80.6447 1192.37 Q83.4688 1191.24 85.9225 1190.66 Q88.3762 1190.08 90.4132 1190.08 Q95.7836 1190.08 98.978 1192.76 Q102.172 1195.45 102.172 1199.94 Q102.172 1202.07 101.362 1203.99 Q100.575 1205.89 98.4687 1208.48 Q97.89 1209.15 94.7882 1212.37 Q91.6864 1215.56 86.0382 1221.33 Z" fill="#000000" fill-rule="nonzero" fill-opacity="1"></path><path clip-path="url(#clip880)" d="M112.219 1190.7 L130.575 1190.7 L130.575 1194.64 L116.501 1194.64 L116.501 1203.11 Q117.52 1202.76 118.538 1202.6 Q119.557 1202.42 120.575 1202.42 Q126.362 1202.42 129.742 1205.59 Q133.121 1208.76 133.121 1214.18 Q133.121 1219.75 129.649 1222.86 Q126.177 1225.93 119.857 1225.93 Q117.682 1225.93 115.413 1225.56 Q113.168 1225.19 110.76 1224.45 L110.76 1219.75 Q112.844 1220.89 115.066 1221.44 Q117.288 1222 119.765 1222 Q123.77 1222 126.107 1219.89 Q128.445 1217.79 128.445 1214.18 Q128.445 1210.56 126.107 1208.46 Q123.77 1206.35 119.765 1206.35 Q117.89 1206.35 116.015 1206.77 Q114.163 1207.19 112.219 1208.06 L112.219 1190.7 Z" fill="#000000" fill-rule="nonzero" fill-opacity="1"></path><path clip-path="url(#clip880)" d="M81.0614 910.587 L99.4178 910.587 L99.4178 914.522 L85.3438 914.522 L85.3438 922.994 Q86.3623 922.647 87.3808 922.485 Q88.3993 922.299 89.4178 922.299 Q95.2049 922.299 98.5845 925.471 Q101.964 928.642 101.964 934.059 Q101.964 939.637 98.4919 942.739 Q95.0197 945.818 88.7003 945.818 Q86.5243 945.818 84.2558 945.447 Q82.0105 945.077 79.6031 944.336 L79.6031 939.637 Q81.6864 940.772 83.9086 941.327 Q86.1308 941.883 88.6077 941.883 Q92.6123 941.883 94.9502 939.776 Q97.2882 937.67 97.2882 934.059 Q97.2882 930.448 94.9502 928.341 Q92.6123 926.235 88.6077 926.235 Q86.7327 926.235 84.8577 926.651 Q83.0058 927.068 81.0614 927.948 L81.0614 910.587 Z" fill="#000000" fill-rule="nonzero" fill-opacity="1"></path><path clip-path="url(#clip880)" d="M121.177 913.665 Q117.566 913.665 115.737 917.23 Q113.932 920.772 113.932 927.901 Q113.932 935.008 115.737 938.572 Q117.566 942.114 121.177 942.114 Q124.811 942.114 126.617 938.572 Q128.445 935.008 128.445 927.901 Q128.445 920.772 126.617 917.23 Q124.811 913.665 121.177 913.665 M121.177 909.962 Q126.987 909.962 130.043 914.568 Q133.121 919.151 133.121 927.901 Q133.121 936.628 130.043 941.235 Q126.987 945.818 121.177 945.818 Q115.367 945.818 112.288 941.235 Q109.233 936.628 109.233 927.901 Q109.233 919.151 112.288 914.568 Q115.367 909.962 121.177 909.962 Z" fill="#000000" fill-rule="nonzero" fill-opacity="1"></path><path clip-path="url(#clip880)" d="M80.8299 630.469 L103.052 630.469 L103.052 632.46 L90.5058 665.029 L85.6216 665.029 L97.4271 634.405 L80.8299 634.405 L80.8299 630.469 Z" fill="#000000" fill-rule="nonzero" fill-opacity="1"></path><path clip-path="url(#clip880)" d="M112.219 630.469 L130.575 630.469 L130.575 634.405 L116.501 634.405 L116.501 642.877 Q117.52 642.529 118.538 642.367 Q119.557 642.182 120.575 642.182 Q126.362 642.182 129.742 645.354 Q133.121 648.525 133.121 653.941 Q133.121 659.52 129.649 662.622 Q126.177 665.701 119.857 665.701 Q117.682 665.701 115.413 665.33 Q113.168 664.96 110.76 664.219 L110.76 659.52 Q112.844 660.654 115.066 661.21 Q117.288 661.765 119.765 661.765 Q123.77 661.765 126.107 659.659 Q128.445 657.553 128.445 653.941 Q128.445 650.33 126.107 648.224 Q123.77 646.117 119.765 646.117 Q117.89 646.117 116.015 646.534 Q114.163 646.951 112.219 647.83 L112.219 630.469 Z" fill="#000000" fill-rule="nonzero" fill-opacity="1"></path><path clip-path="url(#clip880)" d="M51.6634 380.977 L59.3023 380.977 L59.3023 354.611 L50.9921 356.278 L50.9921 352.019 L59.256 350.352 L63.9319 350.352 L63.9319 380.977 L71.5707 380.977 L71.5707 384.912 L51.6634 384.912 L51.6634 380.977 Z" fill="#000000" fill-rule="nonzero" fill-opacity="1"></path><path clip-path="url(#clip880)" d="M91.0151 353.431 Q87.404 353.431 85.5753 356.996 Q83.7697 360.537 83.7697 367.667 Q83.7697 374.773 85.5753 378.338 Q87.404 381.88 91.0151 381.88 Q94.6493 381.88 96.4548 378.338 Q98.2835 374.773 98.2835 367.667 Q98.2835 360.537 96.4548 356.996 Q94.6493 353.431 91.0151 353.431 M91.0151 349.727 Q96.8252 349.727 99.8808 354.334 Q102.959 358.917 102.959 367.667 Q102.959 376.394 99.8808 381 Q96.8252 385.583 91.0151 385.583 Q85.2049 385.583 82.1262 381 Q79.0707 376.394 79.0707 367.667 Q79.0707 358.917 82.1262 354.334 Q85.2049 349.727 91.0151 349.727 Z" fill="#000000" fill-rule="nonzero" fill-opacity="1"></path><path clip-path="url(#clip880)" d="M121.177 353.431 Q117.566 353.431 115.737 356.996 Q113.932 360.537 113.932 367.667 Q113.932 374.773 115.737 378.338 Q117.566 381.88 121.177 381.88 Q124.811 381.88 126.617 378.338 Q128.445 374.773 128.445 367.667 Q128.445 360.537 126.617 356.996 Q124.811 353.431 121.177 353.431 M121.177 349.727 Q126.987 349.727 130.043 354.334 Q133.121 358.917 133.121 367.667 Q133.121 376.394 130.043 381 Q126.987 385.583 121.177 385.583 Q115.367 385.583 112.288 381 Q109.233 376.394 109.233 367.667 Q109.233 358.917 112.288 354.334 Q115.367 349.727 121.177 349.727 Z" fill="#000000" fill-rule="nonzero" fill-opacity="1"></path><path clip-path="url(#clip880)" d="M52.6588 100.86 L60.2976 100.86 L60.2976 74.4943 L51.9875 76.1609 L51.9875 71.9017 L60.2513 70.235 L64.9272 70.235 L64.9272 100.86 L72.5661 100.86 L72.5661 104.795 L52.6588 104.795 L52.6588 100.86 Z" fill="#000000" fill-rule="nonzero" fill-opacity="1"></path><path clip-path="url(#clip880)" d="M86.0382 100.86 L102.358 100.86 L102.358 104.795 L80.4133 104.795 L80.4133 100.86 Q83.0753 98.1052 87.6586 93.4756 Q92.2651 88.8229 93.4456 87.4803 Q95.691 84.9572 96.5706 83.2211 Q97.4734 81.4618 97.4734 79.772 Q97.4734 77.0174 95.5289 75.2813 Q93.6076 73.5452 90.5058 73.5452 Q88.3067 73.5452 85.8531 74.3091 Q83.4225 75.073 80.6447 76.6239 L80.6447 71.9017 Q83.4688 70.7674 85.9225 70.1887 Q88.3762 69.61 90.4132 69.61 Q95.7836 69.61 98.978 72.2952 Q102.172 74.9804 102.172 79.4711 Q102.172 81.6007 101.362 83.522 Q100.575 85.4201 98.4687 88.0127 Q97.89 88.684 94.7882 91.9016 Q91.6864 95.096 86.0382 100.86 Z" fill="#000000" fill-rule="nonzero" fill-opacity="1"></path><path clip-path="url(#clip880)" d="M112.219 70.235 L130.575 70.235 L130.575 74.1702 L116.501 74.1702 L116.501 82.6424 Q117.52 82.2951 118.538 82.1331 Q119.557 81.9479 120.575 81.9479 Q126.362 81.9479 129.742 85.1192 Q133.121 88.2905 133.121 93.7071 Q133.121 99.2858 129.649 102.388 Q126.177 105.466 119.857 105.466 Q117.682 105.466 115.413 105.096 Q113.168 104.726 110.76 103.985 L110.76 99.2858 Q112.844 100.42 115.066 100.976 Q117.288 101.531 119.765 101.531 Q123.77 101.531 126.107 99.4247 Q128.445 97.3182 128.445 93.7071 Q128.445 90.096 126.107 87.9896 Q123.77 85.8831 119.765 85.8831 Q117.89 85.8831 116.015 86.2997 Q114.163 86.7164 112.219 87.596 L112.219 70.235 Z" fill="#000000" fill-rule="nonzero" fill-opacity="1"></path><polyline clip-path="url(#clip882)" style="stroke:#009af9; stroke-linecap:round; stroke-linejoin:round; stroke-width:4; stroke-opacity:1; fill:none" points="230.922,89.0003 232.984,165.069 235.046,211.099 237.109,258.59 239.171,220.861 241.233,267.926 243.295,286.426 245.357,279.522 247.419,290.733 249.481,288.928 251.543,321.773 253.605,353.181 255.667,351.672 257.73,333.426 259.792,332.48 261.854,371.258 263.916,362.326 265.978,381.386 268.04,387.432 270.102,388.447 272.164,392.83 274.226,437.349 276.288,466.743 278.35,491.277 280.413,524.101 282.475,549.903 284.537,571.401 286.599,585.247 288.661,596.827 290.723,622.214 292.785,641.072 294.847,635.739 296.909,671.735 298.971,657.408 301.034,670.495 303.096,685.575 305.158,676.023 307.22,676.674 309.282,693.284 311.344,689.431 313.406,688.506 315.468,711.872 317.53,706.804 319.592,711.853 321.654,708.965 323.717,713.668 325.779,714.238 327.841,714.635 329.903,721.568 331.965,701.468 334.027,714.851 336.089,730.302 338.151,723.23 340.213,716.996 342.275,730.059 344.338,726.708 346.4,723.606 348.462,710.821 350.524,742.614 352.586,728.786 354.648,748.324 356.71,743.38 358.772,741.599 360.834,739.986 362.896,745.158 364.958,748.956 367.021,769.628 369.083,791.208 371.145,801.765 373.207,793.202 375.269,823.613 377.331,830.756 379.393,840.378 381.455,848.493 383.517,858.78 385.579,877.967 387.641,899.229 389.704,900.27 391.766,913.966 393.828,917.594 395.89,918.926 397.952,928.119 400.014,930.563 402.076,952.634 404.138,961.399 406.2,969.904 408.262,972.75 410.325,977.091 412.387,977.992 414.449,969.794 416.511,996.312 418.573,993.951 420.635,995.573 422.697,1012.33 424.759,1015.09 426.821,1024.98 428.883,1022.58 430.945,1039.43 433.008,1043.61 435.07,1058.67 437.132,1063.24 439.194,1056.08 441.256,1063.75 443.318,1065.41 445.38,1078.75 447.442,1082.96 449.504,1083.11 451.566,1084.83 453.629,1085.79 455.691,1094.06 457.753,1084.79 459.815,1089.31 461.877,1099.79 463.939,1105.32 466.001,1097.63 468.063,1110.04 470.125,1115.46 472.187,1113.34 474.249,1122.4 476.312,1124.01 478.374,1130.83 480.436,1122.75 482.498,1128.13 484.56,1121.24 486.622,1130.23 488.684,1137.32 490.746,1140.35 492.808,1141.57 494.87,1152.52 496.933,1147.35 498.995,1161.84 501.057,1163.77 503.119,1160.14 505.181,1165.53 507.243,1170.3 509.305,1173.83 511.367,1176.31 513.429,1181.68 515.491,1166.55 517.553,1188.69 519.616,1187.96 521.678,1185.22 523.74,1197.3 525.802,1192.73 527.864,1192.65 529.926,1199.99 531.988,1199.17 534.05,1196.03 536.112,1207.01 538.174,1202.02 540.237,1201.93 542.299,1201.14 544.361,1203.16 546.423,1207.47 548.485,1202.84 550.547,1206.05 552.609,1208.65 554.671,1207.56 556.733,1208.92 558.795,1211.79 560.857,1208.7 562.92,1216.86 564.982,1213.29 567.044,1208.69 569.106,1213.7 571.168,1215.6 573.23,1216.25 575.292,1216.72 577.354,1213.51 579.416,1222.45 581.478,1217.26 583.54,1223.6 585.603,1225.1 587.665,1216.8 589.727,1220.86 591.789,1219.01 593.851,1222.3 595.913,1224.36 597.975,1224.8 600.037,1226.4 602.099,1226.32 604.161,1222.99 606.224,1230.63 608.286,1230.96 610.348,1228.86 612.41,1226.16 614.472,1220.58 616.534,1230.66 618.596,1230.9 620.658,1231.09 622.72,1234.62 624.782,1231.64 626.844,1233.37 628.907,1234.43 630.969,1226.57 633.031,1235.88 635.093,1236.68 637.155,1238.5 639.217,1236.22 641.279,1237.22 643.341,1237.2 645.403,1239.59 647.465,1242.26 649.528,1240.35 651.59,1241.97 653.652,1236.28 655.714,1237.82 657.776,1241.53 659.838,1244.95 661.9,1236.8 663.962,1245.54 666.024,1245.77 668.086,1239.42 670.148,1242.81 672.211,1239.55 674.273,1246.79 676.335,1245.77 678.397,1247.02 680.459,1247.64 682.521,1245.35 684.583,1251.21 686.645,1247.5 688.707,1245.5 690.769,1248.83 692.832,1246.14 694.894,1250.09 696.956,1253.14 699.018,1252.2 701.08,1253.3 703.142,1252.02 705.204,1252.41 707.266,1252.98 709.328,1254.39 711.39,1258.47 713.452,1250.41 715.515,1259.73 717.577,1258.1 719.639,1252.75 721.701,1259.65 723.763,1254.89 725.825,1258.74 727.887,1254.82 729.949,1257.68 732.011,1259.44 734.073,1258.14 736.136,1260.06 738.198,1259.19 740.26,1261.28 742.322,1263.02 744.384,1258.98 746.446,1264.77 748.508,1266.91 750.57,1264.43 752.632,1263.49 754.694,1262.35 756.756,1266.68 758.819,1265.53 760.881,1267.02 762.943,1266.41 765.005,1262.93 767.067,1266.61 769.129,1270.26 771.191,1269.78 773.253,1265.67 775.315,1272.1 777.377,1271.67 779.439,1264.71 781.502,1267.67 783.564,1272.35 785.626,1273.35 787.688,1274.14 789.75,1276.91 791.812,1276.86 793.874,1274.88 795.936,1273.39 797.998,1273.91 800.06,1273.22 802.123,1276.94 804.185,1273.9 806.247,1275.5 808.309,1278.47 810.371,1277.76 812.433,1278.83 814.495,1277.32 816.557,1279.68 818.619,1276.72 820.681,1281.07 822.743,1282.92 824.806,1282.05 826.868,1281.27 828.93,1277.46 830.992,1278.76 833.054,1287.37 835.116,1282.37 837.178,1281.53 839.24,1287.25 841.302,1285.24 843.364,1285.77 845.427,1288.63 847.489,1286.68 849.551,1287.45 851.613,1288.05 853.675,1289.01 855.737,1288.86 857.799,1290.91 859.861,1290.05 861.923,1292.98 863.985,1293.49 866.047,1297.13 868.11,1294.5 870.172,1299.09 872.234,1297.54 874.296,1295.66 876.358,1299.92 878.42,1301.88 880.482,1302.16 882.544,1304.85 884.606,1300.01 886.668,1307.55 888.731,1305.94 890.793,1310.06 892.855,1311.81 894.917,1308.17 896.979,1311.99 899.041,1311.86 901.103,1314.68 903.165,1315.5 905.227,1315.81 907.289,1323.98 909.351,1318.53 911.414,1321.44 913.476,1321.05 915.538,1328.43 917.6,1328.49 919.662,1329.26 921.724,1333.45 923.786,1326.01 925.848,1333.84 927.91,1333.77 929.972,1338.04 932.035,1334.66 934.097,1338.82 936.159,1334.78 938.221,1340.37 940.283,1341.83 942.345,1341.55 944.407,1341.54 946.469,1337.8 948.531,1341.04 950.593,1345.12 952.655,1342.68 954.718,1345.45 956.78,1348.1 958.842,1349.47 960.904,1349.71 962.966,1350.69 965.028,1349.87 967.09,1353.78 969.152,1352.06 971.214,1356.14 973.276,1354.92 975.338,1353.66 977.401,1353.98 979.463,1356.82 981.525,1355.21 983.587,1356.29 985.649,1356.29 987.711,1357.74 989.773,1357.54 991.835,1357.01 993.897,1360.78 995.959,1359.59 998.022,1360.28 1000.08,1362.54 1002.15,1360.82 1004.21,1363.37 1006.27,1362.59 1008.33,1363.04 1010.39,1360.24 1012.46,1365.48 1014.52,1366.02 1016.58,1362.98 1018.64,1365.46 1020.7,1366.29 1022.77,1364.28 1024.83,1368.92 1026.89,1369.77 1028.95,1368.01 1031.02,1372.31 1033.08,1370.93 1035.14,1369.86 1037.2,1371.24 1039.26,1372.64 1041.33,1371.2 1043.39,1368.71 1045.45,1372.8 1047.51,1372.37 1049.57,1371.81 1051.64,1372.94 1053.7,1375.02 1055.76,1374.43 1057.82,1377.04 1059.88,1376.95 1061.95,1377.61 1064.01,1376.25 1066.07,1375.6 1068.13,1376.35 1070.19,1375.31 1072.26,1372.37 1074.32,1377.43 1076.38,1376.84 1078.44,1378.06 1080.51,1380.45 1082.57,1377.62 1084.63,1379.62 1086.69,1381.92 1088.75,1379.73 1090.82,1378.15 1092.88,1381.11 1094.94,1379.19 1097,1380.9 1099.06,1381.56 1101.13,1380.43 1103.19,1383.28 1105.25,1383.05 1107.31,1383.72 1109.37,1380.83 1111.44,1385.61 1113.5,1383.16 1115.56,1384.05 1117.62,1382.77 1119.69,1383.65 1121.75,1385.18 1123.81,1386.42 1125.87,1384.05 1127.93,1384.5 1130,1385.7 1132.06,1384.49 1134.12,1385.03 1136.18,1386 1138.24,1387.56 1140.31,1386.4 1142.37,1386.95 1144.43,1385.67 1146.49,1384.99 1148.55,1387.47 1150.62,1384.14 1152.68,1386.49 1154.74,1387.55 1156.8,1388.12 1158.86,1388.46 1160.93,1389.22 1162.99,1387.08 1165.05,1387.12 1167.11,1390.2 1169.18,1387.47 1171.24,1389.75 1173.3,1389.75 1175.36,1389.6 1177.42,1390.22 1179.49,1392.06 1181.55,1389.51 1183.61,1392.42 1185.67,1390.92 1187.73,1389.98 1189.8,1391.63 1191.86,1389.89 1193.92,1390.02 1195.98,1393.14 1198.04,1391.71 1200.11,1391.58 1202.17,1393.11 1204.23,1393.45 1206.29,1392.97 1208.36,1392.93 1210.42,1392.6 1212.48,1393.1 1214.54,1393.34 1216.6,1389.9 1218.67,1387.76 1220.73,1395 1222.79,1392.98 1224.85,1393.35 1226.91,1394.03 1228.98,1393.55 1231.04,1394.61 1233.1,1393.92 1235.16,1393.66 1237.22,1393.65 1239.29,1395.63 1241.35,1393.57 1243.41,1394.23 1245.47,1392.45 1247.53,1395.23 1249.6,1397.51 1251.66,1395.97 1253.72,1395.84 1255.78,1394.73 1257.85,1396.73 1259.91,1395.75 1261.97,1395.74 1264.03,1398.39 1266.09,1396.32 1268.16,1395.28 1270.22,1397.83 1272.28,1398.46 1274.34,1398.85 1276.4,1396.7 1278.47,1396.29 1280.53,1398.85 1282.59,1397.81 1284.65,1397.57 1286.71,1397.37 1288.78,1400.31 1290.84,1398.97 1292.9,1396.45 1294.96,1399.26 1297.03,1400.25 1299.09,1400.17 1301.15,1400.15 1303.21,1399.88 1305.27,1400.1 1307.34,1400.17 1309.4,1400.65 1311.46,1401.29 1313.52,1400.03 1315.58,1401.62 1317.65,1400.44 1319.71,1402.27 1321.77,1400.87 1323.83,1399.76 1325.89,1401.81 1327.96,1399.07 1330.02,1400.92 1332.08,1400.57 1334.14,1401.27 1336.21,1400.83 1338.27,1400.08 1340.33,1401.87 1342.39,1402.78 1344.45,1400.73 1346.52,1401.91 1348.58,1403.84 1350.64,1401.52 1352.7,1402.02 1354.76,1402.25 1356.83,1403.09 1358.89,1402.83 1360.95,1403.41 1363.01,1403.42 1365.07,1403.03 1367.14,1404 1369.2,1402.11 1371.26,1403.57 1373.32,1403.77 1375.38,1401.34 1377.45,1404.34 1379.51,1403.62 1381.57,1405.11 1383.63,1403.84 1385.7,1405.7 1387.76,1403.77 1389.82,1402.21 1391.88,1404.7 1393.94,1405.28 1396.01,1405.08 1398.07,1404.59 1400.13,1404.04 1402.19,1406.15 1404.25,1406.44 1406.32,1406.59 1408.38,1405.23 1410.44,1405.28 1412.5,1406.96 1414.56,1406.02 1416.63,1406.32 1418.69,1407.34 1420.75,1407.35 1422.81,1405.9 1424.88,1408.1 1426.94,1408.52 1429,1407.97 1431.06,1406.92 1433.12,1406.88 1435.19,1407.08 1437.25,1405.82 1439.31,1407.08 1441.37,1408.19 1443.43,1408.11 1445.5,1409.27 1447.56,1408.69 1449.62,1407.9 1451.68,1410.05 1453.74,1408.09 1455.81,1409.63 1457.87,1406.7 1459.93,1409.45 1461.99,1408.93 1464.05,1409.62 1466.12,1408.08 1468.18,1410.69 1470.24,1410.57 1472.3,1409.27 1474.37,1410.45 1476.43,1409.77 1478.49,1411.04 1480.55,1410.02 1482.61,1409.37 1484.68,1411.27 1486.74,1409.36 1488.8,1410.88 1490.86,1410.19 1492.92,1410.78 1494.99,1410.61 1497.05,1409.69 1499.11,1409.96 1501.17,1411.11 1503.23,1409.95 1505.3,1411.36 1507.36,1411.62 1509.42,1411.3 1511.48,1410.73 1513.55,1410.21 1515.61,1411.78 1517.67,1413.34 1519.73,1412.33 1521.79,1412.05 1523.86,1409.46 1525.92,1413 1527.98,1412.62 1530.04,1411.28 1532.1,1412.69 1534.17,1410.32 1536.23,1411.93 1538.29,1413.06 1540.35,1413.24 1542.41,1413.02 1544.48,1413.52 1546.54,1412.68 1548.6,1413.38 1550.66,1413.25 1552.73,1414.04 1554.79,1413.9 1556.85,1413.82 1558.91,1412.89 1560.97,1413.56 1563.04,1413.43 1565.1,1414.08 1567.16,1414.35 1569.22,1413.74 1571.28,1412.14 1573.35,1414.16 1575.41,1414.52 1577.47,1413.96 1579.53,1413.96 1581.59,1414.98 1583.66,1416.28 1585.72,1416.01 1587.78,1415.59 1589.84,1415.05 1591.9,1415.24 1593.97,1416 1596.03,1416.07 1598.09,1415.89 1600.15,1415.18 1602.22,1416.31 1604.28,1415.78 1606.34,1415.77 1608.4,1415.87 1610.46,1415.74 1612.53,1416.07 1614.59,1416.78 1616.65,1415.74 1618.71,1417.63 1620.77,1417.77 1622.84,1417.49 1624.9,1416.29 1626.96,1416.41 1629.02,1416.81 1631.08,1417.74 1633.15,1416.82 1635.21,1417.27 1637.27,1417.64 1639.33,1416.31 1641.4,1417.81 1643.46,1417.83 1645.52,1417.73 1647.58,1417.85 1649.64,1418.18 1651.71,1418.03 1653.77,1417.89 1655.83,1417.68 1657.89,1418.52 1659.95,1418.67 1662.02,1418.52 1664.08,1417.9 1666.14,1419.61 1668.2,1419.69 1670.26,1420.18 1672.33,1419.65 1674.39,1418.26 1676.45,1420.01 1678.51,1418.25 1680.57,1419.95 1682.64,1418.84 1684.7,1419.61 1686.76,1420.26 1688.82,1421.09 1690.89,1420.36 1692.95,1420.56 1695.01,1420.25 1697.07,1419.14 1699.13,1419.6 1701.2,1420.63 1703.26,1420.1 1705.32,1420.23 1707.38,1420.91 1709.44,1421.17 1711.51,1421.78 1713.57,1420.6 1715.63,1421.06 1717.69,1420.81 1719.75,1421.04 1721.82,1420.41 1723.88,1420 1725.94,1420.97 1728,1420.87 1730.07,1421.3 1732.13,1421.77 1734.19,1421.39 1736.25,1421 1738.31,1421.91 1740.38,1422.29 1742.44,1421.45 1744.5,1421.34 1746.56,1421.6 1748.62,1422.37 1750.69,1422.56 1752.75,1422.58 1754.81,1423.68 1756.87,1423.41 1758.93,1422 1761,1423.11 1763.06,1423.36 1765.12,1423.28 1767.18,1422.94 1769.24,1423.09 1771.31,1422.8 1773.37,1423.93 1775.43,1423.98 1777.49,1423.25 1779.56,1424.56 1781.62,1424.44 1783.68,1424.24 1785.74,1424.15 1787.8,1424.23 1789.87,1423.8 1791.93,1424.29 1793.99,1423.9 1796.05,1423.94 1798.11,1424.72 1800.18,1424.6 1802.24,1425.44 1804.3,1424.99 1806.36,1425.02 1808.42,1424.35 1810.49,1425.72 1812.55,1425.01 1814.61,1424.94 1816.67,1426.44 1818.74,1425.8 1820.8,1424.94 1822.86,1425.18 1824.92,1425.58 1826.98,1425.99 1829.05,1426.01 1831.11,1426.05 1833.17,1425.84 1835.23,1426.77 1837.29,1426.17 1839.36,1426.75 1841.42,1426.8 1843.48,1426.8 1845.54,1425.79 1847.6,1426.73 1849.67,1427.27 1851.73,1427.51 1853.79,1427.57 1855.85,1427.89 1857.92,1427.38 1859.98,1427.78 1862.04,1427.25 1864.1,1427.7 1866.16,1428.26 1868.23,1428.58 1870.29,1426.95 1872.35,1428.23 1874.41,1428.18 1876.47,1428.27 1878.54,1428.27 1880.6,1427.96 1882.66,1428.08 1884.72,1428.55 1886.78,1428.43 1888.85,1428.87 1890.91,1429.23 1892.97,1428.63 1895.03,1429.26 1897.09,1428.57 1899.16,1429.39 1901.22,1428.89 1903.28,1429.96 1905.34,1429.5 1907.41,1429.52 1909.47,1429.44 1911.53,1429.41 1913.59,1429.99 1915.65,1430.2 1917.72,1429.91 1919.78,1430.21 1921.84,1430.33 1923.9,1430.09 1925.96,1430.15 1928.03,1429.94 1930.09,1430.66 1932.15,1430.27 1934.21,1430.27 1936.27,1431.2 1938.34,1429.87 1940.4,1431.15 1942.46,1430.54 1944.52,1431 1946.59,1431.45 1948.65,1431.2 1950.71,1431.93 1952.77,1431.23 1954.83,1431.36 1956.9,1431.32 1958.96,1431.67 1961.02,1431.44 1963.08,1431.94 1965.14,1431.5 1967.21,1432.38 1969.27,1432.37 1971.33,1432.45 1973.39,1432.28 1975.45,1432.37 1977.52,1432.53 1979.58,1432.39 1981.64,1432.78 1983.7,1432.54 1985.76,1432.78 1987.83,1433.12 1989.89,1433.04 1991.95,1433.25 1994.01,1433.19 1996.08,1433.28 1998.14,1433.28 2000.2,1433.36 2002.26,1433.38 2004.32,1433.8 2006.39,1433.73 2008.45,1433.79 2010.51,1433.91 2012.57,1433.89 2014.63,1434.51 2016.7,1434.18 2018.76,1433.85 2020.82,1434.12 2022.88,1434.47 2024.94,1434.35 2027.01,1434.53 2029.07,1434.66 2031.13,1435.38 2033.19,1434.95 2035.26,1434.92 2037.32,1434.99 2039.38,1434.79 2041.44,1435.3 2043.5,1435.39 2045.57,1435.17 2047.63,1435.61 2049.69,1435.59 2051.75,1435.47 2053.81,1435.48 2055.88,1435.79 2057.94,1435.78 2060,1435.76 2062.06,1435.77 2064.12,1436.18 2066.19,1435.79 2068.25,1436.12 2070.31,1436.65 2072.37,1436.39 2074.43,1436.78 2076.5,1436.87 2078.56,1436.3 2080.62,1437.01 2082.68,1437.12 2084.75,1436.94 2086.81,1437.01 2088.87,1437.09 2090.93,1437.01 2092.99,1437.34 2095.06,1437.24 2097.12,1437.6 2099.18,1437.82 2101.24,1437.25 2103.3,1437.72 2105.37,1437.47 2107.43,1437.94 2109.49,1438.05 2111.55,1438.13 2113.61,1438.22 2115.68,1438.23 2117.74,1438.3 2119.8,1438.41 2121.86,1438.69 2123.93,1438.28 2125.99,1438.9 2128.05,1438.72 2130.11,1438.82 2132.17,1438.59 2134.24,1438.74 2136.3,1439.18 2138.36,1439.31 2140.42,1439.03 2142.48,1439.08 2144.55,1439.43 2146.61,1439.51 2148.67,1439.72 2150.73,1439.56 2152.79,1439.71 2154.86,1439.72 2156.92,1439.76 2158.98,1440.2 2161.04,1440.14 2163.11,1440.44 2165.17,1440.34 2167.23,1440.38 2169.29,1440.47 2171.35,1440.45 2173.42,1440.74 2175.48,1440.87 2177.54,1440.91 2179.6,1441 2181.66,1440.88 2183.73,1440.98 2185.79,1441.26 2187.85,1441.17 2189.91,1441.4 2191.97,1441.36 2194.04,1441.25 2196.1,1441.68 2198.16,1441.68 2200.22,1441.78 2202.28,1441.74 2204.35,1441.95 2206.41,1441.89 2208.47,1442.24 2210.53,1442.18 2212.6,1442.16 2214.66,1442.28 2216.72,1442.42 2218.78,1442.51 2220.84,1442.47 2222.91,1442.73 2224.97,1442.76 2227.03,1442.88 2229.09,1442.9 2231.15,1443.09 2233.22,1443.19 2235.28,1443.23 2237.34,1443.21 2239.4,1443.41 2241.46,1443.49 2243.53,1443.52 2245.59,1443.59 2247.65,1443.71 2249.71,1443.82 2251.78,1443.85 2253.84,1443.93 2255.9,1443.83 2257.96,1443.96 2260.02,1444.21 2262.09,1444.3 2264.15,1444.37 2266.21,1444.48 2268.27,1444.5 2270.33,1444.61 2272.4,1444.79 2274.46,1444.78 2276.52,1444.88 2278.58,1445 2280.64,1445.07 2282.71,1445.08 2284.77,1445.22 2286.83,1445.31 2288.89,1445.44 2290.95,1445.52 "></polyline>
<polyline clip-path="url(#clip882)" style="stroke:#e26f46; stroke-linecap:round; stroke-linejoin:round; stroke-width:4; stroke-opacity:1; fill:none" points="230.922,87.9763 232.984,162.934 235.046,207.804 237.109,254.18 239.171,215.024 241.233,261.075 243.295,278.449 245.357,270.27 247.419,280.363 249.481,277.352 251.543,309.354 253.605,339.985 255.667,337.333 257.73,317.708 259.792,315.601 261.854,353.857 263.916,343.661 265.978,361.949 268.04,367.012 270.102,366.945 272.164,370.322 274.226,414.744 276.288,443.781 278.35,467.896 280.413,500.564 282.475,526.087 284.537,547.236 286.599,560.562 288.661,571.58 290.723,596.836 292.785,615.394 294.847,609.012 296.909,645.374 298.971,629.705 301.034,642.416 303.096,657.232 305.158,646.494 307.22,646.332 309.282,662.795 311.344,657.966 313.406,656.179 315.468,679.748 317.53,673.66 319.592,678.124 321.654,674.303 323.717,678.423 325.779,678.216 327.841,677.829 329.903,684.318 331.965,662.355 334.027,675.634 336.089,691.117 338.151,682.856 340.213,675.456 342.275,688.474 344.338,684.099 346.4,680.004 348.462,665.634 350.524,698.58 352.586,683.07 354.648,703.069 356.71,697.013 358.772,694.307 360.834,691.786 362.896,696.512 364.958,699.783 367.021,721.143 369.083,743.518 371.145,754.103 373.207,744.144 375.269,776.123 377.331,783.112 379.393,792.782 381.455,800.829 383.517,811.263 385.579,831.336 387.641,853.706 389.704,854.194 391.766,868.422 393.828,871.738 395.89,872.562 397.952,881.953 400.014,883.976 402.076,907.463 404.138,916.444 406.2,925.164 408.262,927.718 410.325,931.911 412.387,932.34 414.449,922.766 416.511,951.361 418.573,948.214 420.635,949.463 422.697,967.41 424.759,969.923 426.821,980.347 428.883,977.162 430.945,995.332 433.008,999.47 435.07,1015.72 437.132,1020.32 439.194,1011.86 441.256,1019.93 443.318,1021.32 445.38,1035.74 447.442,1039.99 449.504,1039.71 451.566,1041.19 453.629,1041.8 455.691,1050.65 457.753,1039.77 459.815,1044.41 461.877,1055.76 463.939,1061.58 466.001,1052.44 468.063,1066.04 470.125,1071.76 472.187,1068.93 474.249,1078.79 476.312,1080.18 478.374,1087.56 480.436,1077.93 482.498,1083.65 484.56,1075.35 486.622,1085.22 488.684,1092.91 490.746,1095.98 492.808,1096.98 494.87,1109.16 496.933,1102.81 498.995,1119.09 501.057,1120.95 503.119,1116.37 505.181,1122.24 507.243,1127.34 509.305,1131.07 511.367,1133.59 513.429,1139.45 515.491,1121.53 517.553,1146.9 519.616,1145.68 521.678,1142.16 523.74,1155.9 525.802,1150.23 527.864,1149.79 529.926,1158.03 531.988,1156.74 534.05,1152.7 536.112,1165.28 538.174,1159.06 540.237,1158.63 542.299,1157.36 544.361,1159.37 546.423,1164.16 548.485,1158.32 550.547,1161.8 552.609,1164.53 554.671,1162.94 556.733,1164.22 558.795,1167.29 560.857,1163.29 562.92,1172.67 564.982,1168.09 567.044,1162.23 569.106,1167.89 571.168,1169.82 573.23,1170.32 575.292,1170.54 577.354,1166.36 579.416,1176.79 581.478,1170.19 583.54,1177.54 585.603,1179 587.665,1168.64 589.727,1173.22 591.789,1170.64 593.851,1174.32 595.913,1176.47 597.975,1176.68 600.037,1178.33 602.099,1177.9 604.161,1173.53 606.224,1182.5 608.286,1182.59 610.348,1179.71 612.41,1176.04 614.472,1168.86 616.534,1180.9 618.596,1180.91 620.658,1180.83 622.72,1184.82 624.782,1180.83 626.844,1182.63 628.907,1183.64 630.969,1173.56 633.031,1184.8 635.093,1185.48 637.155,1187.4 639.217,1184.23 641.279,1185.16 643.341,1184.83 645.403,1187.5 647.465,1190.52 649.528,1187.8 651.59,1189.51 653.652,1181.99 655.714,1183.64 657.776,1187.98 659.838,1191.95 661.9,1181.35 663.962,1192.07 666.024,1192.06 668.086,1183.65 670.148,1187.66 672.211,1183.17 674.273,1192.05 676.335,1190.47 678.397,1191.72 680.459,1192.17 682.521,1188.93 684.583,1196.11 686.645,1191.01 688.707,1188.13 690.769,1192.1 692.832,1188.27 694.894,1193.06 696.956,1196.67 699.018,1195.12 701.08,1196.22 703.142,1194.26 705.204,1194.4 707.266,1194.87 709.328,1196.38 711.39,1201.32 713.452,1190.48 715.515,1202.36 717.577,1199.92 719.639,1192.57 721.701,1201.31 723.763,1194.74 725.825,1199.45 727.887,1193.95 729.949,1197.4 732.011,1199.39 734.073,1197.38 736.136,1199.62 738.198,1198.09 740.26,1200.55 742.322,1202.57 744.384,1196.83 746.446,1204.24 748.508,1206.8 750.57,1203.14 752.632,1201.54 754.694,1199.74 756.756,1205.17 758.819,1203.3 760.881,1205.01 762.943,1203.86 765.005,1198.75 767.067,1203.47 769.129,1208.03 771.191,1207.09 773.253,1201.19 775.315,1209.6 777.377,1208.69 779.439,1198.85 781.502,1202.58 783.564,1208.68 785.626,1209.7 787.688,1210.48 789.75,1213.98 791.812,1213.55 793.874,1210.49 795.936,1208.15 797.998,1208.51 800.06,1207.17 802.123,1212.06 804.185,1207.52 806.247,1209.4 808.309,1213.26 810.371,1211.87 812.433,1213.12 814.495,1210.67 816.557,1213.58 818.619,1209.17 820.681,1214.93 822.743,1217.18 824.806,1215.66 826.868,1214.2 828.93,1208.47 830.992,1210.04 833.054,1221.87 835.116,1214.48 837.178,1212.96 839.24,1220.75 841.302,1217.56 843.364,1218.01 845.427,1221.79 847.489,1218.6 849.551,1219.42 851.613,1219.94 853.675,1220.99 855.737,1220.48 857.799,1223.12 859.861,1221.55 861.923,1225.38 863.985,1225.88 866.047,1230.84 868.11,1226.66 870.172,1233.03 872.234,1230.48 874.296,1227.44 876.358,1233.32 878.42,1235.87 880.482,1236 882.544,1239.6 884.606,1232.19 886.668,1242.95 888.731,1240.32 890.793,1246.09 892.855,1248.33 894.917,1242.67 896.979,1248.01 899.041,1247.57 901.103,1251.41 903.165,1252.4 905.227,1252.54 907.289,1264.46 909.351,1255.99 911.414,1260.05 913.476,1259.32 915.538,1270.01 917.6,1269.83 919.662,1270.72 921.724,1276.77 923.786,1265.27 925.848,1276.82 927.91,1276.5 929.972,1282.74 932.035,1277.34 934.097,1283.44 936.159,1276.98 938.221,1285.29 940.283,1287.28 942.345,1286.54 944.407,1286.34 946.469,1280.33 948.531,1285.03 950.593,1291.13 952.655,1287.16 954.718,1291.11 956.78,1294.99 958.842,1296.91 960.904,1297.06 962.966,1298.35 965.028,1296.77 967.09,1302.65 969.152,1299.84 971.214,1305.94 973.276,1303.77 975.338,1301.53 977.401,1301.83 979.463,1306.13 981.525,1303.34 983.587,1304.84 985.649,1304.54 987.711,1306.67 989.773,1306.08 991.835,1305.14 993.897,1310.77 995.959,1308.76 998.022,1309.62 1000.08,1312.98 1002.15,1310.04 1004.21,1313.95 1006.27,1312.44 1008.33,1312.99 1010.39,1308.24 1012.46,1316.45 1014.52,1317.07 1016.58,1312.01 1018.64,1315.78 1020.7,1316.94 1022.77,1313.43 1024.83,1320.83 1026.89,1322.01 1028.95,1318.86 1031.02,1325.79 1033.08,1323.26 1035.14,1321.34 1037.2,1323.4 1039.26,1325.52 1041.33,1322.84 1043.39,1318.62 1045.45,1325.14 1047.51,1324.25 1049.57,1323.12 1051.64,1324.84 1053.7,1328.12 1055.76,1326.84 1057.82,1331.05 1059.88,1330.81 1061.95,1331.62 1064.01,1329.19 1066.07,1327.85 1068.13,1328.94 1070.19,1326.97 1072.26,1321.8 1074.32,1330.14 1076.38,1328.96 1078.44,1330.9 1080.51,1334.71 1082.57,1329.71 1084.63,1332.95 1086.69,1336.68 1088.75,1332.72 1090.82,1329.82 1092.88,1334.78 1094.94,1331.27 1097,1333.96 1099.06,1334.95 1101.13,1332.8 1103.19,1337.52 1105.25,1336.87 1107.31,1338.02 1109.37,1332.68 1111.44,1340.79 1113.5,1336.37 1115.56,1337.74 1117.62,1335.23 1119.69,1336.65 1121.75,1339.16 1123.81,1341.17 1125.87,1336.77 1127.93,1337.32 1130,1339.25 1132.06,1336.98 1134.12,1337.72 1136.18,1339.23 1138.24,1341.97 1140.31,1339.68 1142.37,1340.44 1144.43,1337.89 1146.49,1336.47 1148.55,1340.76 1150.62,1334.56 1152.68,1338.64 1154.74,1340.3 1156.8,1341.17 1158.86,1341.62 1160.93,1342.78 1162.99,1338.73 1165.05,1338.52 1167.11,1343.86 1169.18,1338.89 1171.24,1342.93 1173.3,1342.56 1175.36,1342.14 1177.42,1343.24 1179.49,1346.44 1181.55,1341.55 1183.61,1346.71 1185.67,1343.64 1187.73,1341.83 1189.8,1344.6 1191.86,1341.3 1193.92,1341.32 1195.98,1346.82 1198.04,1344.05 1200.11,1343.58 1202.17,1346.31 1204.23,1346.85 1206.29,1345.64 1208.36,1345.37 1210.42,1344.58 1212.48,1345.29 1214.54,1345.72 1216.6,1338.95 1218.67,1334.61 1220.73,1348.25 1222.79,1344.21 1224.85,1344.56 1226.91,1345.78 1228.98,1344.64 1231.04,1346.55 1233.1,1345.04 1235.16,1344.06 1237.22,1344 1239.29,1347.7 1241.35,1343.5 1243.41,1344.68 1245.47,1340.99 1247.53,1346.26 1249.6,1350.49 1251.66,1347.3 1253.72,1346.85 1255.78,1344.31 1257.85,1348.15 1259.91,1345.99 1261.97,1345.85 1264.03,1350.96 1266.09,1346.6 1268.16,1344.28 1270.22,1349.26 1272.28,1350.34 1274.34,1350.97 1276.4,1346.37 1278.47,1345.28 1280.53,1350.36 1282.59,1348.06 1284.65,1347.31 1286.71,1346.76 1288.78,1352.51 1290.84,1349.57 1292.9,1344.23 1294.96,1349.8 1297.03,1351.58 1299.09,1351.29 1301.15,1351.07 1303.21,1350.39 1305.27,1350.51 1307.34,1350.41 1309.4,1351.24 1311.46,1352.59 1313.52,1349.75 1315.58,1352.82 1317.65,1350.07 1319.71,1353.82 1321.77,1350.55 1323.83,1347.99 1325.89,1352.21 1327.96,1346.1 1330.02,1349.86 1332.08,1348.98 1334.14,1350.17 1336.21,1349.02 1338.27,1347.25 1340.33,1350.78 1342.39,1352.57 1344.45,1348 1346.52,1350.4 1348.58,1354.41 1350.64,1349.06 1352.7,1349.9 1354.76,1350.21 1356.83,1351.97 1358.89,1351.1 1360.95,1352.15 1363.01,1351.92 1365.07,1350.91 1367.14,1352.94 1369.2,1348.44 1371.26,1351.49 1373.32,1351.81 1375.38,1345.91 1377.45,1352.68 1379.51,1350.8 1381.57,1353.97 1383.63,1350.9 1385.7,1354.91 1387.76,1350.15 1389.82,1346.67 1391.88,1351.89 1393.94,1353.13 1396.01,1352.25 1398.07,1351.09 1400.13,1349.55 1402.19,1354.05 1404.25,1354.78 1406.32,1354.86 1408.38,1351.49 1410.44,1351.23 1412.5,1354.78 1414.56,1352.64 1416.63,1353.13 1418.69,1355.34 1420.75,1355.05 1422.81,1351.44 1424.88,1356.39 1426.94,1357.21 1429,1355.73 1431.06,1353.04 1433.12,1352.78 1435.19,1353 1437.25,1349.74 1439.31,1352.45 1441.37,1354.98 1443.43,1354.48 1445.5,1357.18 1447.56,1355.58 1449.62,1353.46 1451.68,1358.47 1453.74,1353.44 1455.81,1357.01 1457.87,1349.51 1459.93,1356.06 1461.99,1354.51 1464.05,1356.1 1466.12,1352.03 1468.18,1358.41 1470.24,1357.84 1472.3,1354.26 1474.37,1357.01 1476.43,1355.14 1478.49,1358.22 1480.55,1355.29 1482.61,1353.39 1484.68,1357.91 1486.74,1353.06 1488.8,1356.55 1490.86,1354.43 1492.92,1355.76 1494.99,1355.26 1497.05,1352.68 1499.11,1352.88 1501.17,1355.89 1503.23,1352.39 1505.3,1355.9 1507.36,1356.29 1509.42,1355.32 1511.48,1353.52 1513.55,1351.94 1515.61,1355.9 1517.67,1359.78 1519.73,1356.73 1521.79,1355.72 1523.86,1348.51 1525.92,1357.95 1527.98,1356.72 1530.04,1352.78 1532.1,1356.33 1534.17,1349.42 1536.23,1354.04 1538.29,1356.59 1540.35,1356.87 1542.41,1356.11 1544.48,1357.35 1546.54,1354.7 1548.6,1356.14 1550.66,1355.74 1552.73,1357.73 1554.79,1357.04 1556.85,1356.5 1558.91,1353.52 1560.97,1355.22 1563.04,1354.75 1565.1,1356.42 1567.16,1356.75 1569.22,1354.98 1571.28,1349.93 1573.35,1355.53 1575.41,1356.41 1577.47,1354.52 1579.53,1354.13 1581.59,1357.16 1583.66,1360.33 1585.72,1359.23 1587.78,1357.75 1589.84,1355.78 1591.9,1356.37 1593.97,1358.32 1596.03,1358.24 1598.09,1357.43 1600.15,1355.12 1602.22,1358.19 1604.28,1356.26 1606.34,1355.98 1608.4,1356.08 1610.46,1355.45 1612.53,1356.09 1614.59,1357.95 1616.65,1354.42 1618.71,1359.99 1620.77,1360.16 1622.84,1358.98 1624.9,1355.22 1626.96,1355.21 1629.02,1356.13 1631.08,1358.8 1633.15,1355.65 1635.21,1356.75 1637.27,1357.51 1639.33,1353.07 1641.4,1357.76 1643.46,1357.37 1645.52,1356.61 1647.58,1356.8 1649.64,1357.79 1651.71,1356.95 1653.77,1356.2 1655.83,1355.24 1657.89,1357.94 1659.95,1357.66 1662.02,1357.11 1664.08,1354.66 1666.14,1360.15 1668.2,1360.16 1670.26,1361.3 1672.33,1359.23 1674.39,1354.29 1676.45,1360.05 1678.51,1353.87 1680.57,1359.13 1682.64,1355.59 1684.7,1357.54 1686.76,1359.39 1688.82,1362.18 1690.89,1359.4 1692.95,1359.4 1695.01,1358.13 1697.07,1354.17 1699.13,1355.46 1701.2,1358.6 1703.26,1356.41 1705.32,1356.81 1707.38,1358.55 1709.44,1359.53 1711.51,1361.43 1713.57,1356.7 1715.63,1358.15 1717.69,1356.59 1719.75,1357.15 1721.82,1354.58 1723.88,1352.69 1725.94,1356.19 1728,1355.35 1730.07,1356.66 1732.13,1358.06 1734.19,1356.1 1736.25,1354.83 1738.31,1357.76 1740.38,1358.83 1742.44,1355.16 1744.5,1354.29 1746.56,1355.03 1748.62,1357.73 1750.69,1358.07 1752.75,1357.92 1754.81,1361.63 1756.87,1360.42 1758.93,1354.37 1761,1358.59 1763.06,1359.34 1765.12,1358.69 1767.18,1356.6 1769.24,1357.33 1771.31,1355.59 1773.37,1359.83 1775.43,1359.3 1777.49,1356.29 1779.56,1361.04 1781.62,1360.29 1783.68,1359.04 1785.74,1358.53 1787.8,1358.21 1789.87,1356.13 1791.93,1358.01 1793.99,1356.34 1796.05,1355.77 1798.11,1358.64 1800.18,1357.66 1802.24,1361.13 1804.3,1358.64 1806.36,1358.37 1808.42,1355.5 1810.49,1360.49 1812.55,1357.31 1814.61,1356.56 1816.67,1362.71 1818.74,1360.21 1820.8,1355.13 1822.86,1355.76 1824.92,1356.97 1826.98,1358.39 1829.05,1358.95 1831.11,1358.29 1833.17,1357.29 1835.23,1360.45 1837.29,1357.74 1839.36,1359.79 1841.42,1359.95 1843.48,1359.02 1845.54,1354.5 1847.6,1358.7 1849.67,1360.3 1851.73,1361.51 1853.79,1360.83 1855.85,1361.94 1857.92,1359.31 1859.98,1360.79 1862.04,1357.42 1864.1,1359.61 1866.16,1362.2 1868.23,1363.14 1870.29,1354.37 1872.35,1360.39 1874.41,1359.54 1876.47,1360.16 1878.54,1359.8 1880.6,1357.54 1882.66,1357.7 1884.72,1360.09 1886.78,1358.85 1888.85,1360 1890.91,1361.35 1892.97,1358.26 1895.03,1360.86 1897.09,1356.99 1899.16,1360.47 1901.22,1357.67 1903.28,1362.64 1905.34,1360.71 1907.41,1359.56 1909.47,1358.96 1911.53,1357.98 1913.59,1360.65 1915.65,1361.6 1917.72,1359.54 1919.78,1360.49 1921.84,1361.63 1923.9,1358.77 1925.96,1358.91 1928.03,1357 1930.09,1360.44 1932.15,1357.77 1934.21,1357.62 1936.27,1362.07 1938.34,1354.33 1940.4,1361.78 1942.46,1357.28 1944.52,1359.26 1946.59,1361.07 1948.65,1359.72 1950.71,1363.27 1952.77,1358.64 1954.83,1358.93 1956.9,1358.07 1958.96,1360.08 1961.02,1358.41 1963.08,1360.83 1965.14,1356.66 1967.21,1361.82 1969.27,1361.45 1971.33,1361.86 1973.39,1360.02 1975.45,1359.96 1977.52,1360.44 1979.58,1359.64 1981.64,1360.08 1983.7,1358.87 1985.76,1359.81 1987.83,1361.3 1989.89,1360.07 1991.95,1360.54 1994.01,1360.83 1996.08,1359.99 1998.14,1359.25 2000.2,1359.67 2002.26,1358.94 2004.32,1361.19 2006.39,1360.27 2008.45,1359.79 2010.51,1360.47 2012.57,1359.78 2014.63,1363.34 2016.7,1360.81 2018.76,1356.61 2020.82,1359.22 2022.88,1361.24 2024.94,1359.05 2027.01,1359.05 2029.07,1360.58 2031.13,1364.6 2033.19,1360.9 2035.26,1360.34 2037.32,1361.03 2039.38,1357.52 2041.44,1360.61 2043.5,1361.51 2045.57,1358.7 2047.63,1362.85 2049.69,1361.45 2051.75,1358.96 2053.81,1358.68 2055.88,1360.45 2057.94,1360.13 2060,1358.77 2062.06,1358.06 2064.12,1360.65 2066.19,1356.87 2068.25,1358.94 2070.31,1362.08 2072.37,1359.82 2074.43,1361.59 2076.5,1363.32 2078.56,1356.8 2080.62,1362.17 2082.68,1362.44 2084.75,1359.28 2086.81,1359.68 2088.87,1360.46 2090.93,1358.3 2092.99,1361.28 2095.06,1359.08 2097.12,1362.01 2099.18,1363.52 2101.24,1357.15 2103.3,1360.46 2105.37,1357.02 2107.43,1361.69 2109.49,1360.59 2111.55,1360.38 2113.61,1361.8 2115.68,1360.58 2117.74,1359.96 2119.8,1359.63 2121.86,1361.97 2123.93,1356.64 2125.99,1363.44 2128.05,1359.35 2130.11,1359.97 2132.17,1356.83 2134.24,1358.08 2136.3,1361.14 2138.36,1361.85 2140.42,1356.96 2142.48,1357.04 2144.55,1360.26 2146.61,1360.59 2148.67,1363.07 2150.73,1358.71 2152.79,1360.88 2154.86,1359.78 2156.92,1359.05 2158.98,1362.83 2161.04,1360.64 2163.11,1364.04 2165.17,1362.2 2167.23,1360.5 2169.29,1360.99 2171.35,1359.74 2173.42,1360.7 2175.48,1363.05 2177.54,1361.13 2179.6,1362.34 2181.66,1357.71 2183.73,1359.24 2185.79,1362.12 2187.85,1358.52 2189.91,1362.41 2191.97,1362.7 2194.04,1356.78 2196.1,1363.31 2198.16,1361.26 2200.22,1361.69 2202.28,1358.98 2204.35,1361.22 2206.41,1357.13 2208.47,1365.45 2210.53,1359.35 2212.6,1358.13 2214.66,1359.28 2216.72,1360.05 2218.78,1360.74 2220.84,1359.16 2222.91,1361.53 2224.97,1360.22 2227.03,1361.83 2229.09,1359.46 2231.15,1362.12 2233.22,1364.2 2235.28,1363.39 2237.34,1360.29 2239.4,1361.24 2241.46,1362.25 2243.53,1357.39 2245.59,1360.67 2247.65,1360.18 2249.71,1363.34 2251.78,1362.67 2253.84,1358.14 2255.9,1355.35 2257.96,1357.24 2260.02,1363.02 2262.09,1359.99 2264.15,1362.14 2266.21,1359.88 2268.27,1365.33 2270.33,1361.18 2272.4,1360.84 2274.46,1360.61 2276.52,1363.16 2278.58,1362.32 2280.64,1361.45 2282.71,1355.43 2284.77,1360.73 2286.83,1363.17 2288.89,1358.74 2290.95,1359.19 "></polyline>
<polyline clip-path="url(#clip882)" style="stroke:#3da44d; stroke-linecap:round; stroke-linejoin:round; stroke-width:4; stroke-opacity:1; fill:none" points="230.922,1111.99 232.984,1230.05 235.046,1306.25 237.109,1356.62 239.171,1382.41 241.233,1402.98 243.295,1418.02 245.357,1426.82 247.419,1432.5 249.481,1434.88 251.543,1438.35 253.605,1439.65 255.667,1440.29 257.73,1440.41 259.792,1440.9 261.854,1441.44 263.916,1441.63 265.978,1441.76 268.04,1441.79 270.102,1442.02 272.164,1442.13 274.226,1442.27 276.288,1442.15 278.35,1442.1 280.413,1442.01 282.475,1442.08 284.537,1442.24 286.599,1442.2 288.661,1442.19 290.723,1442.75 292.785,1443.74 294.847,1444.23 296.909,1444.2 298.971,1444.49 301.034,1444.67 303.096,1444.53 305.158,1444.58 307.22,1444.81 309.282,1444.57 311.344,1444.6 313.406,1444.65 315.468,1444.6 317.53,1444.46 319.592,1444.69 321.654,1444.57 323.717,1444.62 325.779,1444.64 327.841,1444.63 329.903,1444.53 331.965,1444.62 334.027,1444.6 336.089,1444.67 338.151,1444.63 340.213,1444.72 342.275,1444.56 344.338,1444.96 346.4,1444.96 348.462,1444.71 350.524,1444.91 352.586,1445 354.648,1444.96 356.71,1444.87 358.772,1444.97 360.834,1444.91 362.896,1444.91 364.958,1444.84 367.021,1444.81 369.083,1444.83 371.145,1444.85 373.207,1444.98 375.269,1445 377.331,1444.84 379.393,1444.79 381.455,1444.93 383.517,1444.83 385.579,1444.9 387.641,1444.92 389.704,1444.92 391.766,1444.93 393.828,1444.94 395.89,1444.96 397.952,1444.95 400.014,1445.26 402.076,1445.22 404.138,1445.33 406.2,1445.39 408.262,1445.33 410.325,1445.32 412.387,1445.28 414.449,1445.3 416.511,1445.33 418.573,1445.36 420.635,1445.27 422.697,1445.32 424.759,1445.34 426.821,1445.24 428.883,1445.43 430.945,1445.29 433.008,1445.29 435.07,1445.27 437.132,1445.27 439.194,1445.34 441.256,1445.36 443.318,1445.33 445.38,1445.41 447.442,1445.33 449.504,1445.27 451.566,1445.23 453.629,1445.39 455.691,1445.29 457.753,1445.38 459.815,1445.36 461.877,1445.41 463.939,1445.29 466.001,1445.41 468.063,1445.35 470.125,1445.32 472.187,1445.25 474.249,1445.25 476.312,1445.38 478.374,1445.16 480.436,1445.33 482.498,1445.31 484.56,1445.42 486.622,1445.35 488.684,1445.4 490.746,1445.37 492.808,1445.38 494.87,1445.31 496.933,1445.42 498.995,1445.45 501.057,1445.35 503.119,1445.47 505.181,1445.33 507.243,1445.51 509.305,1445.46 511.367,1445.45 513.429,1445.46 515.491,1445.41 517.553,1445.43 519.616,1445.53 521.678,1445.38 523.74,1445.41 525.802,1445.38 527.864,1445.34 529.926,1445.44 531.988,1445.38 534.05,1445.45 536.112,1445.37 538.174,1445.48 540.237,1445.39 542.299,1445.36 544.361,1445.55 546.423,1445.37 548.485,1445.54 550.547,1445.47 552.609,1445.51 554.671,1445.38 556.733,1445.35 558.795,1445.38 560.857,1445.34 562.92,1445.47 564.982,1445.4 567.044,1445.48 569.106,1445.5 571.168,1445.58 573.23,1445.36 575.292,1445.41 577.354,1445.34 579.416,1445.37 581.478,1445.47 583.54,1445.36 585.603,1445.45 587.665,1445.43 589.727,1445.47 591.789,1445.48 593.851,1445.42 595.913,1445.48 597.975,1445.53 600.037,1445.41 602.099,1445.43 604.161,1445.28 606.224,1445.48 608.286,1445.46 610.348,1445.41 612.41,1445.52 614.472,1445.43 616.534,1445.58 618.596,1445.4 620.658,1445.35 622.72,1445.52 624.782,1445.47 626.844,1445.5 628.907,1445.42 630.969,1445.38 633.031,1445.41 635.093,1445.4 637.155,1445.48 639.217,1445.48 641.279,1445.46 643.341,1445.41 645.403,1445.35 647.465,1445.39 649.528,1445.4 651.59,1445.38 653.652,1445.55 655.714,1445.39 657.776,1445.46 659.838,1445.52 661.9,1445.37 663.962,1445.49 666.024,1445.41 668.086,1445.49 670.148,1445.37 672.211,1445.42 674.273,1445.47 676.335,1445.31 678.397,1445.37 680.459,1445.47 682.521,1445.4 684.583,1445.43 686.645,1445.44 688.707,1445.4 690.769,1445.39 692.832,1445.48 694.894,1445.39 696.956,1445.42 699.018,1445.5 701.08,1445.49 703.142,1445.39 705.204,1445.52 707.266,1445.33 709.328,1445.34 711.39,1445.53 713.452,1445.49 715.515,1445.47 717.577,1445.42 719.639,1445.43 721.701,1445.42 723.763,1445.39 725.825,1445.48 727.887,1445.49 729.949,1445.47 732.011,1445.49 734.073,1445.38 736.136,1445.33 738.198,1445.45 740.26,1445.43 742.322,1445.34 744.384,1445.46 746.446,1445.39 748.508,1445.31 750.57,1445.43 752.632,1445.42 754.694,1445.29 756.756,1445.42 758.819,1445.45 760.881,1445.36 762.943,1445.37 765.005,1445.58 767.067,1445.36 769.129,1445.53 771.191,1445.45 773.253,1445.41 775.315,1445.47 777.377,1445.48 779.439,1445.51 781.502,1445.44 783.564,1445.37 785.626,1445.42 787.688,1445.37 789.75,1445.34 791.812,1445.46 793.874,1445.48 795.936,1445.36 797.998,1445.46 800.06,1445.6 802.123,1445.43 804.185,1445.43 806.247,1445.47 808.309,1445.32 810.371,1445.52 812.433,1445.32 814.495,1445.37 816.557,1445.53 818.619,1445.35 820.681,1445.38 822.743,1445.45 824.806,1445.38 826.868,1445.49 828.93,1445.54 830.992,1445.4 833.054,1445.43 835.116,1445.4 837.178,1445.41 839.24,1445.4 841.302,1445.43 843.364,1445.39 845.427,1445.34 847.489,1445.54 849.551,1445.44 851.613,1445.46 853.675,1445.47 855.737,1445.41 857.799,1445.38 859.861,1445.42 861.923,1445.59 863.985,1445.4 866.047,1445.36 868.11,1445.49 870.172,1445.46 872.234,1445.43 874.296,1445.38 876.358,1445.42 878.42,1445.43 880.482,1445.37 882.544,1445.42 884.606,1445.47 886.668,1445.45 888.731,1445.38 890.793,1445.37 892.855,1445.47 894.917,1445.45 896.979,1445.48 899.041,1445.39 901.103,1445.5 903.165,1445.38 905.227,1445.44 907.289,1445.38 909.351,1445.49 911.414,1445.5 913.476,1445.27 915.538,1445.46 917.6,1445.47 919.662,1445.47 921.724,1445.46 923.786,1445.5 925.848,1445.51 927.91,1445.45 929.972,1445.38 932.035,1445.42 934.097,1445.35 936.159,1445.48 938.221,1445.4 940.283,1445.42 942.345,1445.53 944.407,1445.43 946.469,1445.46 948.531,1445.53 950.593,1445.4 952.655,1445.35 954.718,1445.49 956.78,1445.44 958.842,1445.37 960.904,1445.37 962.966,1445.38 965.028,1445.51 967.09,1445.48 969.152,1445.31 971.214,1445.38 973.276,1445.47 975.338,1445.54 977.401,1445.48 979.463,1445.37 981.525,1445.44 983.587,1445.42 985.649,1445.55 987.711,1445.45 989.773,1445.52 991.835,1445.33 993.897,1445.55 995.959,1445.4 998.022,1445.43 1000.08,1445.51 1002.15,1445.46 1004.21,1445.39 1006.27,1445.47 1008.33,1445.41 1010.39,1445.44 1012.46,1445.47 1014.52,1445.54 1016.58,1445.44 1018.64,1445.5 1020.7,1445.45 1022.77,1445.51 1024.83,1445.42 1026.89,1445.42 1028.95,1445.52 1031.02,1445.38 1033.08,1445.49 1035.14,1445.42 1037.2,1445.44 1039.26,1445.42 1041.33,1445.57 1043.39,1445.43 1045.45,1445.49 1047.51,1445.45 1049.57,1445.47 1051.64,1445.39 1053.7,1445.36 1055.76,1445.51 1057.82,1445.46 1059.88,1445.31 1061.95,1445.45 1064.01,1445.39 1066.07,1445.45 1068.13,1445.42 1070.19,1445.44 1072.26,1445.43 1074.32,1445.49 1076.38,1445.45 1078.44,1445.35 1080.51,1445.46 1082.57,1445.43 1084.63,1445.4 1086.69,1445.43 1088.75,1445.44 1090.82,1445.43 1092.88,1445.36 1094.94,1445.37 1097,1445.45 1099.06,1445.4 1101.13,1445.41 1103.19,1445.45 1105.25,1445.52 1107.31,1445.28 1109.37,1445.45 1111.44,1445.51 1113.5,1445.43 1115.56,1445.45 1117.62,1445.53 1119.69,1445.45 1121.75,1445.44 1123.81,1445.44 1125.87,1445.46 1127.93,1445.53 1130,1445.55 1132.06,1445.45 1134.12,1445.48 1136.18,1445.52 1138.24,1445.34 1140.31,1445.39 1142.37,1445.43 1144.43,1445.51 1146.49,1445.51 1148.55,1445.49 1150.62,1445.48 1152.68,1445.44 1154.74,1445.55 1156.8,1445.5 1158.86,1445.47 1160.93,1445.53 1162.99,1445.47 1165.05,1445.57 1167.11,1445.72 1169.18,1445.42 1171.24,1445.39 1173.3,1445.6 1175.36,1445.54 1177.42,1445.36 1179.49,1445.39 1181.55,1445.37 1183.61,1445.42 1185.67,1445.54 1187.73,1445.39 1189.8,1445.51 1191.86,1445.35 1193.92,1445.38 1195.98,1445.59 1198.04,1445.46 1200.11,1445.49 1202.17,1445.46 1204.23,1445.36 1206.29,1445.48 1208.36,1445.49 1210.42,1445.47 1212.48,1445.51 1214.54,1445.34 1216.6,1445.32 1218.67,1445.35 1220.73,1445.45 1222.79,1445.39 1224.85,1445.56 1226.91,1445.47 1228.98,1445.49 1231.04,1445.44 1233.1,1445.41 1235.16,1445.69 1237.22,1445.54 1239.29,1445.51 1241.35,1445.48 1243.41,1445.39 1245.47,1445.38 1247.53,1445.4 1249.6,1445.48 1251.66,1445.42 1253.72,1445.43 1255.78,1445.55 1257.85,1445.5 1259.91,1445.51 1261.97,1445.43 1264.03,1445.44 1266.09,1445.45 1268.16,1445.47 1270.22,1445.43 1272.28,1445.44 1274.34,1445.41 1276.4,1445.45 1278.47,1445.5 1280.53,1445.43 1282.59,1445.42 1284.65,1445.46 1286.71,1445.42 1288.78,1445.5 1290.84,1445.5 1292.9,1445.43 1294.96,1445.47 1297.03,1445.54 1299.09,1445.47 1301.15,1445.46 1303.21,1445.39 1305.27,1445.52 1307.34,1445.54 1309.4,1445.54 1311.46,1445.35 1313.52,1445.35 1315.58,1445.42 1317.65,1445.46 1319.71,1445.42 1321.77,1445.49 1323.83,1445.49 1325.89,1445.45 1327.96,1445.48 1330.02,1445.48 1332.08,1445.41 1334.14,1445.5 1336.21,1445.51 1338.27,1445.45 1340.33,1445.56 1342.39,1445.55 1344.45,1445.47 1346.52,1445.45 1348.58,1445.44 1350.64,1445.5 1352.7,1445.53 1354.76,1445.52 1356.83,1445.43 1358.89,1445.5 1360.95,1445.51 1363.01,1445.56 1365.07,1445.51 1367.14,1445.45 1369.2,1445.5 1371.26,1445.49 1373.32,1445.42 1375.38,1445.6 1377.45,1445.42 1379.51,1445.46 1381.57,1445.44 1383.63,1445.44 1385.7,1445.45 1387.76,1445.55 1389.82,1445.33 1391.88,1445.53 1393.94,1445.43 1396.01,1445.59 1398.07,1445.45 1400.13,1445.47 1402.19,1445.62 1404.25,1445.41 1406.32,1445.46 1408.38,1445.43 1410.44,1445.56 1412.5,1445.69 1414.56,1445.47 1416.63,1445.48 1418.69,1445.46 1420.75,1445.53 1422.81,1445.49 1424.88,1445.55 1426.94,1445.52 1429,1445.49 1431.06,1445.46 1433.12,1445.41 1435.19,1445.45 1437.25,1445.44 1439.31,1445.51 1441.37,1445.46 1443.43,1445.54 1445.5,1445.47 1447.56,1445.45 1449.62,1445.41 1451.68,1445.45 1453.74,1445.44 1455.81,1445.45 1457.87,1445.46 1459.93,1445.48 1461.99,1445.52 1464.05,1445.45 1466.12,1445.44 1468.18,1445.4 1470.24,1445.43 1472.3,1445.48 1474.37,1445.49 1476.43,1445.44 1478.49,1445.38 1480.55,1445.46 1482.61,1445.46 1484.68,1445.54 1486.74,1445.36 1488.8,1445.46 1490.86,1445.54 1492.92,1445.51 1494.99,1445.4 1497.05,1445.38 1499.11,1445.54 1501.17,1445.39 1503.23,1445.53 1505.3,1445.49 1507.36,1445.54 1509.42,1445.46 1511.48,1445.49 1513.55,1445.47 1515.61,1445.45 1517.67,1445.48 1519.73,1445.55 1521.79,1445.57 1523.86,1445.56 1525.92,1445.48 1527.98,1445.44 1530.04,1445.48 1532.1,1445.51 1534.17,1445.63 1536.23,1445.35 1538.29,1445.52 1540.35,1445.51 1542.41,1445.45 1544.48,1445.39 1546.54,1445.43 1548.6,1445.58 1550.66,1445.46 1552.73,1445.43 1554.79,1445.47 1556.85,1445.5 1558.91,1445.56 1560.97,1445.53 1563.04,1445.46 1565.1,1445.4 1567.16,1445.51 1569.22,1445.38 1571.28,1445.5 1573.35,1445.46 1575.41,1445.4 1577.47,1445.4 1579.53,1445.48 1581.59,1445.3 1583.66,1445.49 1585.72,1445.53 1587.78,1445.51 1589.84,1445.58 1591.9,1445.42 1593.97,1445.45 1596.03,1445.46 1598.09,1445.47 1600.15,1445.43 1602.22,1445.46 1604.28,1445.49 1606.34,1445.49 1608.4,1445.46 1610.46,1445.43 1612.53,1445.47 1614.59,1445.49 1616.65,1445.53 1618.71,1445.51 1620.77,1445.5 1622.84,1445.54 1624.9,1445.43 1626.96,1445.48 1629.02,1445.49 1631.08,1445.47 1633.15,1445.48 1635.21,1445.48 1637.27,1445.55 1639.33,1445.52 1641.4,1445.43 1643.46,1445.5 1645.52,1445.58 1647.58,1445.53 1649.64,1445.45 1651.71,1445.47 1653.77,1445.47 1655.83,1445.47 1657.89,1445.35 1659.95,1445.57 1662.02,1445.48 1664.08,1445.52 1666.14,1445.46 1668.2,1445.44 1670.26,1445.53 1672.33,1445.54 1674.39,1445.54 1676.45,1445.47 1678.51,1445.45 1680.57,1445.52 1682.64,1445.31 1684.7,1445.46 1686.76,1445.49 1688.82,1445.39 1690.89,1445.39 1692.95,1445.54 1695.01,1445.5 1697.07,1445.42 1699.13,1445.41 1701.2,1445.48 1703.26,1445.49 1705.32,1445.38 1707.38,1445.53 1709.44,1445.38 1711.51,1445.37 1713.57,1445.45 1715.63,1445.4 1717.69,1445.54 1719.75,1445.52 1721.82,1445.5 1723.88,1445.54 1725.94,1445.43 1728,1445.47 1730.07,1445.45 1732.13,1445.45 1734.19,1445.54 1736.25,1445.35 1738.31,1445.4 1740.38,1445.41 1742.44,1445.47 1744.5,1445.51 1746.56,1445.48 1748.62,1445.43 1750.69,1445.45 1752.75,1445.41 1754.81,1445.48 1756.87,1445.43 1758.93,1445.51 1761,1445.43 1763.06,1445.38 1765.12,1445.39 1767.18,1445.53 1769.24,1445.36 1771.31,1445.45 1773.37,1445.41 1775.43,1445.54 1777.49,1445.45 1779.56,1445.51 1781.62,1445.49 1783.68,1445.51 1785.74,1445.44 1787.8,1445.54 1789.87,1445.52 1791.93,1445.45 1793.99,1445.35 1796.05,1445.47 1798.11,1445.48 1800.18,1445.51 1802.24,1445.42 1804.3,1445.48 1806.36,1445.49 1808.42,1445.38 1810.49,1445.53 1812.55,1445.46 1814.61,1445.49 1816.67,1445.47 1818.74,1445.28 1820.8,1445.55 1822.86,1445.56 1824.92,1445.61 1826.98,1445.61 1829.05,1445.37 1831.11,1445.49 1833.17,1445.4 1835.23,1445.59 1837.29,1445.48 1839.36,1445.53 1841.42,1445.43 1843.48,1445.58 1845.54,1445.43 1847.6,1445.36 1849.67,1445.5 1851.73,1445.37 1853.79,1445.52 1855.85,1445.53 1857.92,1445.48 1859.98,1445.48 1862.04,1445.6 1864.1,1445.47 1866.16,1445.4 1868.23,1445.46 1870.29,1445.55 1872.35,1445.5 1874.41,1445.55 1876.47,1445.41 1878.54,1445.38 1880.6,1445.45 1882.66,1445.46 1884.72,1445.34 1886.78,1445.4 1888.85,1445.55 1890.91,1445.57 1892.97,1445.46 1895.03,1445.52 1897.09,1445.46 1899.16,1445.55 1901.22,1445.48 1903.28,1445.54 1905.34,1445.32 1907.41,1445.5 1909.47,1445.44 1911.53,1445.51 1913.59,1445.53 1915.65,1445.46 1917.72,1445.46 1919.78,1445.52 1921.84,1445.31 1923.9,1445.53 1925.96,1445.48 1928.03,1445.52 1930.09,1445.56 1932.15,1445.54 1934.21,1445.47 1936.27,1445.56 1938.34,1445.45 1940.4,1445.35 1942.46,1445.45 1944.52,1445.49 1946.59,1445.55 1948.65,1445.42 1950.71,1445.5 1952.77,1445.47 1954.83,1445.47 1956.9,1445.48 1958.96,1445.41 1961.02,1445.35 1963.08,1445.39 1965.14,1445.55 1967.21,1445.52 1969.27,1445.48 1971.33,1445.4 1973.39,1445.43 1975.45,1445.45 1977.52,1445.45 1979.58,1445.32 1981.64,1445.62 1983.7,1445.44 1985.76,1445.46 1987.83,1445.5 1989.89,1445.52 1991.95,1445.58 1994.01,1445.37 1996.08,1445.51 1998.14,1445.54 2000.2,1445.45 2002.26,1445.5 2004.32,1445.52 2006.39,1445.49 2008.45,1445.54 2010.51,1445.47 2012.57,1445.46 2014.63,1445.52 2016.7,1445.44 2018.76,1445.59 2020.82,1445.41 2022.88,1445.41 2024.94,1445.5 2027.01,1445.61 2029.07,1445.44 2031.13,1445.58 2033.19,1445.53 2035.26,1445.48 2037.32,1445.36 2039.38,1445.53 2041.44,1445.58 2043.5,1445.46 2045.57,1445.5 2047.63,1445.35 2049.69,1445.41 2051.75,1445.51 2053.81,1445.46 2055.88,1445.48 2057.94,1445.42 2060,1445.47 2062.06,1445.47 2064.12,1445.51 2066.19,1445.45 2068.25,1445.46 2070.31,1445.59 2072.37,1445.47 2074.43,1445.6 2076.5,1445.41 2078.56,1445.43 2080.62,1445.51 2082.68,1445.5 2084.75,1445.56 2086.81,1445.5 2088.87,1445.41 2090.93,1445.47 2092.99,1445.42 2095.06,1445.45 2097.12,1445.44 2099.18,1445.44 2101.24,1445.36 2103.3,1445.45 2105.37,1445.42 2107.43,1445.39 2109.49,1445.53 2111.55,1445.54 2113.61,1445.41 2115.68,1445.45 2117.74,1445.48 2119.8,1445.54 2121.86,1445.54 2123.93,1445.47 2125.99,1445.46 2128.05,1445.53 2130.11,1445.49 2132.17,1445.41 2134.24,1445.38 2136.3,1445.51 2138.36,1445.51 2140.42,1445.49 2142.48,1445.44 2144.55,1445.48 2146.61,1445.45 2148.67,1445.4 2150.73,1445.46 2152.79,1445.37 2154.86,1445.37 2156.92,1445.38 2158.98,1445.49 2161.04,1445.49 2163.11,1445.49 2165.17,1445.42 2167.23,1445.48 2169.29,1445.45 2171.35,1445.42 2173.42,1445.58 2175.48,1445.49 2177.54,1445.56 2179.6,1445.49 2181.66,1445.54 2183.73,1445.46 2185.79,1445.52 2187.85,1445.52 2189.91,1445.47 2191.97,1445.32 2194.04,1445.42 2196.1,1445.46 2198.16,1445.47 2200.22,1445.47 2202.28,1445.46 2204.35,1445.49 2206.41,1445.52 2208.47,1445.44 2210.53,1445.55 2212.6,1445.48 2214.66,1445.47 2216.72,1445.5 2218.78,1445.48 2220.84,1445.4 2222.91,1445.51 2224.97,1445.49 2227.03,1445.47 2229.09,1445.48 2231.15,1445.51 2233.22,1445.46 2235.28,1445.44 2237.34,1445.42 2239.4,1445.51 2241.46,1445.48 2243.53,1445.54 2245.59,1445.46 2247.65,1445.5 2249.71,1445.46 2251.78,1445.42 2253.84,1445.5 2255.9,1445.36 2257.96,1445.37 2260.02,1445.44 2262.09,1445.5 2264.15,1445.45 2266.21,1445.5 2268.27,1445.38 2270.33,1445.45 2272.4,1445.55 2274.46,1445.46 2276.52,1445.46 2278.58,1445.5 2280.64,1445.49 2282.71,1445.44 2284.77,1445.47 2286.83,1445.48 2288.89,1445.53 2290.95,1445.52 "></polyline>
<path clip-path="url(#clip880)" d="M1660.4 302.578 L2279.97 302.578 L2279.97 95.2176 L1660.4 95.2176  Z" fill="#ffffff" fill-rule="evenodd" fill-opacity="1"></path>
<polyline clip-path="url(#clip880)" style="stroke:#000000; stroke-linecap:round; stroke-linejoin:round; stroke-width:4; stroke-opacity:1; fill:none" points="1660.4,302.578 2279.97,302.578 2279.97,95.2176 1660.4,95.2176 1660.4,302.578 "></polyline>
<polyline clip-path="url(#clip880)" style="stroke:#009af9; stroke-linecap:round; stroke-linejoin:round; stroke-width:4; stroke-opacity:1; fill:none" points="1684.67,147.058 1830.24,147.058 "></polyline>
<path clip-path="url(#clip880)" d="M1875.01 139.407 L1875.01 143.389 Q1873.21 142.393 1871.38 141.907 Q1869.57 141.398 1867.72 141.398 Q1863.58 141.398 1861.29 144.037 Q1858.99 146.652 1858.99 151.398 Q1858.99 156.143 1861.29 158.782 Q1863.58 161.398 1867.72 161.398 Q1869.57 161.398 1871.38 160.912 Q1873.21 160.402 1875.01 159.407 L1875.01 163.342 Q1873.23 164.176 1871.31 164.592 Q1869.41 165.009 1867.26 165.009 Q1861.4 165.009 1857.95 161.328 Q1854.5 157.648 1854.5 151.398 Q1854.5 145.055 1857.98 141.421 Q1861.47 137.787 1867.54 137.787 Q1869.5 137.787 1871.38 138.203 Q1873.25 138.597 1875.01 139.407 Z" fill="#000000" fill-rule="nonzero" fill-opacity="1"></path><path clip-path="url(#clip880)" d="M1892.47 141.398 Q1889.04 141.398 1887.05 144.083 Q1885.06 146.745 1885.06 151.398 Q1885.06 156.051 1887.03 158.736 Q1889.02 161.398 1892.47 161.398 Q1895.87 161.398 1897.86 158.713 Q1899.85 156.027 1899.85 151.398 Q1899.85 146.791 1897.86 144.106 Q1895.87 141.398 1892.47 141.398 M1892.47 137.787 Q1898.02 137.787 1901.19 141.398 Q1904.36 145.009 1904.36 151.398 Q1904.36 157.764 1901.19 161.398 Q1898.02 165.009 1892.47 165.009 Q1886.89 165.009 1883.72 161.398 Q1880.57 157.764 1880.57 151.398 Q1880.57 145.009 1883.72 141.398 Q1886.89 137.787 1892.47 137.787 Z" fill="#000000" fill-rule="nonzero" fill-opacity="1"></path><path clip-path="url(#clip880)" d="M1931.61 143.389 Q1933.21 140.518 1935.43 139.153 Q1937.65 137.787 1940.66 137.787 Q1944.71 137.787 1946.91 140.634 Q1949.11 143.458 1949.11 148.689 L1949.11 164.338 L1944.83 164.338 L1944.83 148.828 Q1944.83 145.102 1943.51 143.296 Q1942.19 141.49 1939.48 141.49 Q1936.17 141.49 1934.25 143.69 Q1932.33 145.889 1932.33 149.685 L1932.33 164.338 L1928.05 164.338 L1928.05 148.828 Q1928.05 145.078 1926.73 143.296 Q1925.41 141.49 1922.65 141.49 Q1919.39 141.49 1917.47 143.713 Q1915.55 145.912 1915.55 149.685 L1915.55 164.338 L1911.26 164.338 L1911.26 138.412 L1915.55 138.412 L1915.55 142.44 Q1917 140.055 1919.04 138.921 Q1921.08 137.787 1923.88 137.787 Q1926.7 137.787 1928.67 139.222 Q1930.66 140.657 1931.61 143.389 Z" fill="#000000" fill-rule="nonzero" fill-opacity="1"></path><path clip-path="url(#clip880)" d="M1976.22 151.398 Q1976.22 146.699 1974.27 144.037 Q1972.35 141.352 1968.97 141.352 Q1965.59 141.352 1963.65 144.037 Q1961.73 146.699 1961.73 151.398 Q1961.73 156.097 1963.65 158.782 Q1965.59 161.444 1968.97 161.444 Q1972.35 161.444 1974.27 158.782 Q1976.22 156.097 1976.22 151.398 M1961.73 142.347 Q1963.07 140.032 1965.11 138.921 Q1967.17 137.787 1970.01 137.787 Q1974.73 137.787 1977.67 141.537 Q1980.64 145.287 1980.64 151.398 Q1980.64 157.509 1977.67 161.259 Q1974.73 165.009 1970.01 165.009 Q1967.17 165.009 1965.11 163.898 Q1963.07 162.763 1961.73 160.449 L1961.73 164.338 L1957.44 164.338 L1957.44 128.319 L1961.73 128.319 L1961.73 142.347 Z" fill="#000000" fill-rule="nonzero" fill-opacity="1"></path><path clip-path="url(#clip880)" d="M1987.7 138.412 L1991.96 138.412 L1991.96 164.338 L1987.7 164.338 L1987.7 138.412 M1987.7 128.319 L1991.96 128.319 L1991.96 133.713 L1987.7 133.713 L1987.7 128.319 Z" fill="#000000" fill-rule="nonzero" fill-opacity="1"></path><path clip-path="url(#clip880)" d="M2022.42 148.689 L2022.42 164.338 L2018.16 164.338 L2018.16 148.828 Q2018.16 145.148 2016.73 143.319 Q2015.29 141.49 2012.42 141.49 Q2008.97 141.49 2006.98 143.69 Q2004.99 145.889 2004.99 149.685 L2004.99 164.338 L2000.71 164.338 L2000.71 138.412 L2004.99 138.412 L2004.99 142.44 Q2006.52 140.102 2008.58 138.944 Q2010.66 137.787 2013.37 137.787 Q2017.84 137.787 2020.13 140.565 Q2022.42 143.319 2022.42 148.689 Z" fill="#000000" fill-rule="nonzero" fill-opacity="1"></path><path clip-path="url(#clip880)" d="M2053.09 150.31 L2053.09 152.393 L2033.51 152.393 Q2033.79 156.791 2036.15 159.106 Q2038.53 161.398 2042.77 161.398 Q2045.22 161.398 2047.51 160.796 Q2049.83 160.194 2052.1 158.99 L2052.1 163.018 Q2049.8 163.99 2047.4 164.5 Q2044.99 165.009 2042.51 165.009 Q2036.31 165.009 2032.67 161.398 Q2029.06 157.787 2029.06 151.629 Q2029.06 145.264 2032.49 141.537 Q2035.94 137.787 2041.77 137.787 Q2047 137.787 2050.04 141.166 Q2053.09 144.523 2053.09 150.31 M2048.83 149.06 Q2048.79 145.565 2046.86 143.481 Q2044.97 141.398 2041.82 141.398 Q2038.25 141.398 2036.1 143.412 Q2033.97 145.426 2033.65 149.083 L2048.83 149.06 Z" fill="#000000" fill-rule="nonzero" fill-opacity="1"></path><path clip-path="url(#clip880)" d="M2077.14 142.347 L2077.14 128.319 L2081.4 128.319 L2081.4 164.338 L2077.14 164.338 L2077.14 160.449 Q2075.8 162.763 2073.74 163.898 Q2071.7 165.009 2068.83 165.009 Q2064.13 165.009 2061.17 161.259 Q2058.23 157.509 2058.23 151.398 Q2058.23 145.287 2061.17 141.537 Q2064.13 137.787 2068.83 137.787 Q2071.7 137.787 2073.74 138.921 Q2075.8 140.032 2077.14 142.347 M2062.63 151.398 Q2062.63 156.097 2064.55 158.782 Q2066.49 161.444 2069.87 161.444 Q2073.25 161.444 2075.2 158.782 Q2077.14 156.097 2077.14 151.398 Q2077.14 146.699 2075.2 144.037 Q2073.25 141.352 2069.87 141.352 Q2066.49 141.352 2064.55 144.037 Q2062.63 146.699 2062.63 151.398 Z" fill="#000000" fill-rule="nonzero" fill-opacity="1"></path><path clip-path="url(#clip880)" d="M2105.24 128.319 L2109.5 128.319 L2109.5 164.338 L2105.24 164.338 L2105.24 128.319 Z" fill="#000000" fill-rule="nonzero" fill-opacity="1"></path><path clip-path="url(#clip880)" d="M2128.46 141.398 Q2125.03 141.398 2123.04 144.083 Q2121.05 146.745 2121.05 151.398 Q2121.05 156.051 2123.02 158.736 Q2125.01 161.398 2128.46 161.398 Q2131.86 161.398 2133.85 158.713 Q2135.85 156.027 2135.85 151.398 Q2135.85 146.791 2133.85 144.106 Q2131.86 141.398 2128.46 141.398 M2128.46 137.787 Q2134.02 137.787 2137.19 141.398 Q2140.36 145.009 2140.36 151.398 Q2140.36 157.764 2137.19 161.398 Q2134.02 165.009 2128.46 165.009 Q2122.88 165.009 2119.71 161.398 Q2116.56 157.764 2116.56 151.398 Q2116.56 145.009 2119.71 141.398 Q2122.88 137.787 2128.46 137.787 Z" fill="#000000" fill-rule="nonzero" fill-opacity="1"></path><path clip-path="url(#clip880)" d="M2163.95 139.176 L2163.95 143.203 Q2162.14 142.277 2160.2 141.815 Q2158.25 141.352 2156.17 141.352 Q2153 141.352 2151.4 142.324 Q2149.83 143.296 2149.83 145.24 Q2149.83 146.722 2150.96 147.578 Q2152.09 148.412 2155.52 149.176 L2156.98 149.5 Q2161.52 150.472 2163.41 152.254 Q2165.34 154.014 2165.34 157.185 Q2165.34 160.796 2162.47 162.902 Q2159.62 165.009 2154.62 165.009 Q2152.53 165.009 2150.27 164.592 Q2148.02 164.199 2145.52 163.388 L2145.52 158.99 Q2147.88 160.217 2150.17 160.842 Q2152.47 161.444 2154.71 161.444 Q2157.72 161.444 2159.34 160.426 Q2160.96 159.384 2160.96 157.509 Q2160.96 155.773 2159.78 154.847 Q2158.62 153.921 2154.66 153.064 L2153.18 152.717 Q2149.22 151.884 2147.47 150.171 Q2145.71 148.435 2145.71 145.426 Q2145.71 141.768 2148.3 139.778 Q2150.89 137.787 2155.66 137.787 Q2158.02 137.787 2160.1 138.134 Q2162.19 138.481 2163.95 139.176 Z" fill="#000000" fill-rule="nonzero" fill-opacity="1"></path><path clip-path="url(#clip880)" d="M2188.65 139.176 L2188.65 143.203 Q2186.84 142.277 2184.9 141.815 Q2182.95 141.352 2180.87 141.352 Q2177.7 141.352 2176.1 142.324 Q2174.53 143.296 2174.53 145.24 Q2174.53 146.722 2175.66 147.578 Q2176.79 148.412 2180.22 149.176 L2181.68 149.5 Q2186.22 150.472 2188.11 152.254 Q2190.03 154.014 2190.03 157.185 Q2190.03 160.796 2187.16 162.902 Q2184.32 165.009 2179.32 165.009 Q2177.23 165.009 2174.97 164.592 Q2172.72 164.199 2170.22 163.388 L2170.22 158.99 Q2172.58 160.217 2174.87 160.842 Q2177.16 161.444 2179.41 161.444 Q2182.42 161.444 2184.04 160.426 Q2185.66 159.384 2185.66 157.509 Q2185.66 155.773 2184.48 154.847 Q2183.32 153.921 2179.36 153.064 L2177.88 152.717 Q2173.92 151.884 2172.16 150.171 Q2170.41 148.435 2170.41 145.426 Q2170.41 141.768 2173 139.778 Q2175.59 137.787 2180.36 137.787 Q2182.72 137.787 2184.8 138.134 Q2186.89 138.481 2188.65 139.176 Z" fill="#000000" fill-rule="nonzero" fill-opacity="1"></path><polyline clip-path="url(#clip880)" style="stroke:#e26f46; stroke-linecap:round; stroke-linejoin:round; stroke-width:4; stroke-opacity:1; fill:none" points="1684.67,198.898 1830.24,198.898 "></polyline>
<path clip-path="url(#clip880)" d="M1867.91 203.145 Q1862.74 203.145 1860.75 204.326 Q1858.76 205.506 1858.76 208.354 Q1858.76 210.622 1860.24 211.965 Q1861.75 213.284 1864.32 213.284 Q1867.86 213.284 1869.99 210.784 Q1872.14 208.261 1872.14 204.094 L1872.14 203.145 L1867.91 203.145 M1876.4 201.386 L1876.4 216.178 L1872.14 216.178 L1872.14 212.242 Q1870.68 214.603 1868.51 215.738 Q1866.33 216.849 1863.18 216.849 Q1859.2 216.849 1856.84 214.627 Q1854.5 212.381 1854.5 208.631 Q1854.5 204.256 1857.42 202.034 Q1860.36 199.812 1866.17 199.812 L1872.14 199.812 L1872.14 199.395 Q1872.14 196.455 1870.2 194.858 Q1868.28 193.238 1864.78 193.238 Q1862.56 193.238 1860.45 193.77 Q1858.35 194.303 1856.4 195.367 L1856.4 191.432 Q1858.74 190.53 1860.94 190.09 Q1863.14 189.627 1865.22 189.627 Q1870.85 189.627 1873.62 192.543 Q1876.4 195.46 1876.4 201.386 Z" fill="#000000" fill-rule="nonzero" fill-opacity="1"></path><path clip-path="url(#clip880)" d="M1884.74 205.946 L1884.74 190.252 L1888.99 190.252 L1888.99 205.784 Q1888.99 209.465 1890.43 211.316 Q1891.86 213.145 1894.74 213.145 Q1898.18 213.145 1900.17 210.946 Q1902.19 208.747 1902.19 204.951 L1902.19 190.252 L1906.45 190.252 L1906.45 216.178 L1902.19 216.178 L1902.19 212.196 Q1900.64 214.557 1898.58 215.715 Q1896.54 216.849 1893.83 216.849 Q1889.36 216.849 1887.05 214.071 Q1884.74 211.293 1884.74 205.946 M1895.45 189.627 L1895.45 189.627 Z" fill="#000000" fill-rule="nonzero" fill-opacity="1"></path><path clip-path="url(#clip880)" d="M1919.43 182.891 L1919.43 190.252 L1928.21 190.252 L1928.21 193.562 L1919.43 193.562 L1919.43 207.636 Q1919.43 210.807 1920.29 211.71 Q1921.17 212.613 1923.83 212.613 L1928.21 212.613 L1928.21 216.178 L1923.83 216.178 Q1918.9 216.178 1917.03 214.349 Q1915.15 212.497 1915.15 207.636 L1915.15 193.562 L1912.03 193.562 L1912.03 190.252 L1915.15 190.252 L1915.15 182.891 L1919.43 182.891 Z" fill="#000000" fill-rule="nonzero" fill-opacity="1"></path><path clip-path="url(#clip880)" d="M1943.86 193.238 Q1940.43 193.238 1938.44 195.923 Q1936.45 198.585 1936.45 203.238 Q1936.45 207.891 1938.42 210.576 Q1940.41 213.238 1943.86 213.238 Q1947.26 213.238 1949.25 210.553 Q1951.24 207.867 1951.24 203.238 Q1951.24 198.631 1949.25 195.946 Q1947.26 193.238 1943.86 193.238 M1943.86 189.627 Q1949.41 189.627 1952.58 193.238 Q1955.75 196.849 1955.75 203.238 Q1955.75 209.604 1952.58 213.238 Q1949.41 216.849 1943.86 216.849 Q1938.28 216.849 1935.11 213.238 Q1931.96 209.604 1931.96 203.238 Q1931.96 196.849 1935.11 193.238 Q1938.28 189.627 1943.86 189.627 Z" fill="#000000" fill-rule="nonzero" fill-opacity="1"></path><path clip-path="url(#clip880)" d="M1984.99 202.15 L1984.99 204.233 L1965.41 204.233 Q1965.68 208.631 1968.04 210.946 Q1970.43 213.238 1974.67 213.238 Q1977.12 213.238 1979.41 212.636 Q1981.73 212.034 1983.99 210.83 L1983.99 214.858 Q1981.7 215.83 1979.29 216.34 Q1976.89 216.849 1974.41 216.849 Q1968.21 216.849 1964.57 213.238 Q1960.96 209.627 1960.96 203.469 Q1960.96 197.104 1964.39 193.377 Q1967.84 189.627 1973.67 189.627 Q1978.9 189.627 1981.93 193.006 Q1984.99 196.363 1984.99 202.15 M1980.73 200.9 Q1980.68 197.405 1978.76 195.321 Q1976.86 193.238 1973.72 193.238 Q1970.15 193.238 1968 195.252 Q1965.87 197.266 1965.54 200.923 L1980.73 200.9 Z" fill="#000000" fill-rule="nonzero" fill-opacity="1"></path><path clip-path="url(#clip880)" d="M2013.53 200.529 L2013.53 216.178 L2009.27 216.178 L2009.27 200.668 Q2009.27 196.988 2007.84 195.159 Q2006.4 193.33 2003.53 193.33 Q2000.08 193.33 1998.09 195.53 Q1996.1 197.729 1996.1 201.525 L1996.1 216.178 L1991.82 216.178 L1991.82 190.252 L1996.1 190.252 L1996.1 194.28 Q1997.63 191.942 1999.69 190.784 Q2001.77 189.627 2004.48 189.627 Q2008.95 189.627 2011.24 192.405 Q2013.53 195.159 2013.53 200.529 Z" fill="#000000" fill-rule="nonzero" fill-opacity="1"></path><path clip-path="url(#clip880)" d="M2040.68 191.247 L2040.68 195.229 Q2038.88 194.233 2037.05 193.747 Q2035.24 193.238 2033.39 193.238 Q2029.25 193.238 2026.96 195.877 Q2024.67 198.492 2024.67 203.238 Q2024.67 207.983 2026.96 210.622 Q2029.25 213.238 2033.39 213.238 Q2035.24 213.238 2037.05 212.752 Q2038.88 212.242 2040.68 211.247 L2040.68 215.182 Q2038.9 216.016 2036.98 216.432 Q2035.08 216.849 2032.93 216.849 Q2027.07 216.849 2023.62 213.168 Q2020.17 209.488 2020.17 203.238 Q2020.17 196.895 2023.65 193.261 Q2027.14 189.627 2033.21 189.627 Q2035.17 189.627 2037.05 190.043 Q2038.92 190.437 2040.68 191.247 Z" fill="#000000" fill-rule="nonzero" fill-opacity="1"></path><path clip-path="url(#clip880)" d="M2058.14 193.238 Q2054.71 193.238 2052.72 195.923 Q2050.73 198.585 2050.73 203.238 Q2050.73 207.891 2052.7 210.576 Q2054.69 213.238 2058.14 213.238 Q2061.54 213.238 2063.53 210.553 Q2065.52 207.867 2065.52 203.238 Q2065.52 198.631 2063.53 195.946 Q2061.54 193.238 2058.14 193.238 M2058.14 189.627 Q2063.69 189.627 2066.86 193.238 Q2070.04 196.849 2070.04 203.238 Q2070.04 209.604 2066.86 213.238 Q2063.69 216.849 2058.14 216.849 Q2052.56 216.849 2049.39 213.238 Q2046.24 209.604 2046.24 203.238 Q2046.24 196.849 2049.39 193.238 Q2052.56 189.627 2058.14 189.627 Z" fill="#000000" fill-rule="nonzero" fill-opacity="1"></path><path clip-path="url(#clip880)" d="M2094.16 194.187 L2094.16 180.159 L2098.41 180.159 L2098.41 216.178 L2094.16 216.178 L2094.16 212.289 Q2092.81 214.603 2090.75 215.738 Q2088.72 216.849 2085.85 216.849 Q2081.15 216.849 2078.18 213.099 Q2075.24 209.349 2075.24 203.238 Q2075.24 197.127 2078.18 193.377 Q2081.15 189.627 2085.85 189.627 Q2088.72 189.627 2090.75 190.761 Q2092.81 191.872 2094.16 194.187 M2079.64 203.238 Q2079.64 207.937 2081.56 210.622 Q2083.51 213.284 2086.89 213.284 Q2090.27 213.284 2092.21 210.622 Q2094.16 207.937 2094.16 203.238 Q2094.16 198.539 2092.21 195.877 Q2090.27 193.192 2086.89 193.192 Q2083.51 193.192 2081.56 195.877 Q2079.64 198.539 2079.64 203.238 Z" fill="#000000" fill-rule="nonzero" fill-opacity="1"></path><path clip-path="url(#clip880)" d="M2129.36 202.15 L2129.36 204.233 L2109.78 204.233 Q2110.06 208.631 2112.42 210.946 Q2114.8 213.238 2119.04 213.238 Q2121.49 213.238 2123.78 212.636 Q2126.1 212.034 2128.37 210.83 L2128.37 214.858 Q2126.08 215.83 2123.67 216.34 Q2121.26 216.849 2118.78 216.849 Q2112.58 216.849 2108.95 213.238 Q2105.34 209.627 2105.34 203.469 Q2105.34 197.104 2108.76 193.377 Q2112.21 189.627 2118.04 189.627 Q2123.28 189.627 2126.31 193.006 Q2129.36 196.363 2129.36 202.15 M2125.1 200.9 Q2125.06 197.405 2123.14 195.321 Q2121.24 193.238 2118.09 193.238 Q2114.53 193.238 2112.37 195.252 Q2110.24 197.266 2109.92 200.923 L2125.1 200.9 Z" fill="#000000" fill-rule="nonzero" fill-opacity="1"></path><path clip-path="url(#clip880)" d="M2151.38 194.233 Q2150.66 193.817 2149.8 193.631 Q2148.97 193.423 2147.95 193.423 Q2144.34 193.423 2142.4 195.784 Q2140.47 198.122 2140.47 202.52 L2140.47 216.178 L2136.19 216.178 L2136.19 190.252 L2140.47 190.252 L2140.47 194.28 Q2141.82 191.918 2143.97 190.784 Q2146.12 189.627 2149.2 189.627 Q2149.64 189.627 2150.17 189.696 Q2150.71 189.743 2151.35 189.858 L2151.38 194.233 Z" fill="#000000" fill-rule="nonzero" fill-opacity="1"></path><path clip-path="url(#clip880)" d="M2170.91 180.159 L2175.17 180.159 L2175.17 216.178 L2170.91 216.178 L2170.91 180.159 Z" fill="#000000" fill-rule="nonzero" fill-opacity="1"></path><path clip-path="url(#clip880)" d="M2194.13 193.238 Q2190.71 193.238 2188.72 195.923 Q2186.72 198.585 2186.72 203.238 Q2186.72 207.891 2188.69 210.576 Q2190.68 213.238 2194.13 213.238 Q2197.53 213.238 2199.53 210.553 Q2201.52 207.867 2201.52 203.238 Q2201.52 198.631 2199.53 195.946 Q2197.53 193.238 2194.13 193.238 M2194.13 189.627 Q2199.69 189.627 2202.86 193.238 Q2206.03 196.849 2206.03 203.238 Q2206.03 209.604 2202.86 213.238 Q2199.69 216.849 2194.13 216.849 Q2188.55 216.849 2185.38 213.238 Q2182.23 209.604 2182.23 203.238 Q2182.23 196.849 2185.38 193.238 Q2188.55 189.627 2194.13 189.627 Z" fill="#000000" fill-rule="nonzero" fill-opacity="1"></path><path clip-path="url(#clip880)" d="M2229.62 191.016 L2229.62 195.043 Q2227.81 194.117 2225.87 193.655 Q2223.92 193.192 2221.84 193.192 Q2218.67 193.192 2217.07 194.164 Q2215.5 195.136 2215.5 197.08 Q2215.5 198.562 2216.63 199.418 Q2217.77 200.252 2221.19 201.016 L2222.65 201.34 Q2227.19 202.312 2229.09 204.094 Q2231.01 205.854 2231.01 209.025 Q2231.01 212.636 2228.14 214.742 Q2225.29 216.849 2220.29 216.849 Q2218.21 216.849 2215.94 216.432 Q2213.69 216.039 2211.19 215.228 L2211.19 210.83 Q2213.55 212.057 2215.84 212.682 Q2218.14 213.284 2220.38 213.284 Q2223.39 213.284 2225.01 212.266 Q2226.63 211.224 2226.63 209.349 Q2226.63 207.613 2225.45 206.687 Q2224.29 205.761 2220.34 204.904 L2218.85 204.557 Q2214.9 203.724 2213.14 202.011 Q2211.38 200.275 2211.38 197.266 Q2211.38 193.608 2213.97 191.618 Q2216.56 189.627 2221.33 189.627 Q2223.69 189.627 2225.78 189.974 Q2227.86 190.321 2229.62 191.016 Z" fill="#000000" fill-rule="nonzero" fill-opacity="1"></path><path clip-path="url(#clip880)" d="M2254.32 191.016 L2254.32 195.043 Q2252.51 194.117 2250.57 193.655 Q2248.62 193.192 2246.54 193.192 Q2243.37 193.192 2241.77 194.164 Q2240.2 195.136 2240.2 197.08 Q2240.2 198.562 2241.33 199.418 Q2242.46 200.252 2245.89 201.016 L2247.35 201.34 Q2251.89 202.312 2253.78 204.094 Q2255.71 205.854 2255.71 209.025 Q2255.71 212.636 2252.84 214.742 Q2249.99 216.849 2244.99 216.849 Q2242.9 216.849 2240.64 216.432 Q2238.39 216.039 2235.89 215.228 L2235.89 210.83 Q2238.25 212.057 2240.54 212.682 Q2242.84 213.284 2245.08 213.284 Q2248.09 213.284 2249.71 212.266 Q2251.33 211.224 2251.33 209.349 Q2251.33 207.613 2250.15 206.687 Q2248.99 205.761 2245.03 204.904 L2243.55 204.557 Q2239.59 203.724 2237.84 202.011 Q2236.08 200.275 2236.08 197.266 Q2236.08 193.608 2238.67 191.618 Q2241.26 189.627 2246.03 189.627 Q2248.39 189.627 2250.47 189.974 Q2252.56 190.321 2254.32 191.016 Z" fill="#000000" fill-rule="nonzero" fill-opacity="1"></path><polyline clip-path="url(#clip880)" style="stroke:#3da44d; stroke-linecap:round; stroke-linejoin:round; stroke-width:4; stroke-opacity:1; fill:none" points="1684.67,250.738 1830.24,250.738 "></polyline>
<path clip-path="url(#clip880)" d="M1854.5 242.092 L1858.76 242.092 L1864.09 262.323 L1869.39 242.092 L1874.41 242.092 L1879.74 262.323 L1885.04 242.092 L1889.3 242.092 L1882.51 268.018 L1877.49 268.018 L1871.91 246.768 L1866.31 268.018 L1861.29 268.018 L1854.5 242.092 Z" fill="#000000" fill-rule="nonzero" fill-opacity="1"></path><path clip-path="url(#clip880)" d="M1905.8 245.078 Q1902.37 245.078 1900.38 247.763 Q1898.39 250.425 1898.39 255.078 Q1898.39 259.731 1900.36 262.416 Q1902.35 265.078 1905.8 265.078 Q1909.2 265.078 1911.19 262.393 Q1913.18 259.707 1913.18 255.078 Q1913.18 250.471 1911.19 247.786 Q1909.2 245.078 1905.8 245.078 M1905.8 241.467 Q1911.36 241.467 1914.53 245.078 Q1917.7 248.689 1917.7 255.078 Q1917.7 261.444 1914.53 265.078 Q1911.36 268.689 1905.8 268.689 Q1900.22 268.689 1897.05 265.078 Q1893.9 261.444 1893.9 255.078 Q1893.9 248.689 1897.05 245.078 Q1900.22 241.467 1905.8 241.467 Z" fill="#000000" fill-rule="nonzero" fill-opacity="1"></path><path clip-path="url(#clip880)" d="M1939.78 246.073 Q1939.06 245.657 1938.21 245.471 Q1937.37 245.263 1936.36 245.263 Q1932.74 245.263 1930.8 247.624 Q1928.88 249.962 1928.88 254.36 L1928.88 268.018 L1924.6 268.018 L1924.6 242.092 L1928.88 242.092 L1928.88 246.12 Q1930.22 243.758 1932.37 242.624 Q1934.53 241.467 1937.61 241.467 Q1938.05 241.467 1938.58 241.536 Q1939.11 241.583 1939.76 241.698 L1939.78 246.073 Z" fill="#000000" fill-rule="nonzero" fill-opacity="1"></path><path clip-path="url(#clip880)" d="M1960.48 246.027 L1960.48 231.999 L1964.73 231.999 L1964.73 268.018 L1960.48 268.018 L1960.48 264.129 Q1959.13 266.443 1957.07 267.578 Q1955.04 268.689 1952.17 268.689 Q1947.47 268.689 1944.5 264.939 Q1941.56 261.189 1941.56 255.078 Q1941.56 248.967 1944.5 245.217 Q1947.47 241.467 1952.17 241.467 Q1955.04 241.467 1957.07 242.601 Q1959.13 243.712 1960.48 246.027 M1945.96 255.078 Q1945.96 259.777 1947.88 262.462 Q1949.83 265.124 1953.21 265.124 Q1956.59 265.124 1958.53 262.462 Q1960.48 259.777 1960.48 255.078 Q1960.48 250.379 1958.53 247.717 Q1956.59 245.032 1953.21 245.032 Q1949.83 245.032 1947.88 247.717 Q1945.96 250.379 1945.96 255.078 Z" fill="#000000" fill-rule="nonzero" fill-opacity="1"></path><path clip-path="url(#clip880)" d="M1992.79 234.731 L1992.79 242.092 L2001.56 242.092 L2001.56 245.402 L1992.79 245.402 L1992.79 259.476 Q1992.79 262.647 1993.65 263.55 Q1994.53 264.453 1997.19 264.453 L2001.56 264.453 L2001.56 268.018 L1997.19 268.018 Q1992.26 268.018 1990.38 266.189 Q1988.51 264.337 1988.51 259.476 L1988.51 245.402 L1985.38 245.402 L1985.38 242.092 L1988.51 242.092 L1988.51 234.731 L1992.79 234.731 Z" fill="#000000" fill-rule="nonzero" fill-opacity="1"></path><path clip-path="url(#clip880)" d="M2017.95 270.425 Q2016.15 275.055 2014.43 276.467 Q2012.72 277.879 2009.85 277.879 L2006.45 277.879 L2006.45 274.314 L2008.95 274.314 Q2010.71 274.314 2011.68 273.48 Q2012.65 272.647 2013.83 269.545 L2014.6 267.601 L2004.11 242.092 L2008.62 242.092 L2016.73 262.369 L2024.83 242.092 L2029.34 242.092 L2017.95 270.425 Z" fill="#000000" fill-rule="nonzero" fill-opacity="1"></path><path clip-path="url(#clip880)" d="M2039.34 264.129 L2039.34 277.879 L2035.06 277.879 L2035.06 242.092 L2039.34 242.092 L2039.34 246.027 Q2040.68 243.712 2042.72 242.601 Q2044.78 241.467 2047.63 241.467 Q2052.35 241.467 2055.29 245.217 Q2058.25 248.967 2058.25 255.078 Q2058.25 261.189 2055.29 264.939 Q2052.35 268.689 2047.63 268.689 Q2044.78 268.689 2042.72 267.578 Q2040.68 266.443 2039.34 264.129 M2053.83 255.078 Q2053.83 250.379 2051.89 247.717 Q2049.97 245.032 2046.59 245.032 Q2043.21 245.032 2041.26 247.717 Q2039.34 250.379 2039.34 255.078 Q2039.34 259.777 2041.26 262.462 Q2043.21 265.124 2046.59 265.124 Q2049.97 265.124 2051.89 262.462 Q2053.83 259.777 2053.83 255.078 Z" fill="#000000" fill-rule="nonzero" fill-opacity="1"></path><path clip-path="url(#clip880)" d="M2087.49 253.99 L2087.49 256.073 L2067.91 256.073 Q2068.18 260.471 2070.54 262.786 Q2072.93 265.078 2077.16 265.078 Q2079.62 265.078 2081.91 264.476 Q2084.22 263.874 2086.49 262.67 L2086.49 266.698 Q2084.2 267.67 2081.79 268.18 Q2079.39 268.689 2076.91 268.689 Q2070.71 268.689 2067.07 265.078 Q2063.46 261.467 2063.46 255.309 Q2063.46 248.944 2066.89 245.217 Q2070.34 241.467 2076.17 241.467 Q2081.4 241.467 2084.43 244.846 Q2087.49 248.203 2087.49 253.99 M2083.23 252.74 Q2083.18 249.245 2081.26 247.161 Q2079.36 245.078 2076.22 245.078 Q2072.65 245.078 2070.5 247.092 Q2068.37 249.106 2068.04 252.763 L2083.23 252.74 Z" fill="#000000" fill-rule="nonzero" fill-opacity="1"></path><path clip-path="url(#clip880)" d="M2109.55 231.999 L2113.81 231.999 L2113.81 268.018 L2109.55 268.018 L2109.55 231.999 Z" fill="#000000" fill-rule="nonzero" fill-opacity="1"></path><path clip-path="url(#clip880)" d="M2132.77 245.078 Q2129.34 245.078 2127.35 247.763 Q2125.36 250.425 2125.36 255.078 Q2125.36 259.731 2127.33 262.416 Q2129.32 265.078 2132.77 265.078 Q2136.17 265.078 2138.16 262.393 Q2140.15 259.707 2140.15 255.078 Q2140.15 250.471 2138.16 247.786 Q2136.17 245.078 2132.77 245.078 M2132.77 241.467 Q2138.32 241.467 2141.49 245.078 Q2144.66 248.689 2144.66 255.078 Q2144.66 261.444 2141.49 265.078 Q2138.32 268.689 2132.77 268.689 Q2127.19 268.689 2124.02 265.078 Q2120.87 261.444 2120.87 255.078 Q2120.87 248.689 2124.02 245.078 Q2127.19 241.467 2132.77 241.467 Z" fill="#000000" fill-rule="nonzero" fill-opacity="1"></path><path clip-path="url(#clip880)" d="M2168.25 242.856 L2168.25 246.883 Q2166.45 245.957 2164.5 245.495 Q2162.56 245.032 2160.47 245.032 Q2157.3 245.032 2155.71 246.004 Q2154.13 246.976 2154.13 248.92 Q2154.13 250.402 2155.27 251.258 Q2156.4 252.092 2159.83 252.856 L2161.28 253.18 Q2165.82 254.152 2167.72 255.934 Q2169.64 257.694 2169.64 260.865 Q2169.64 264.476 2166.77 266.582 Q2163.92 268.689 2158.92 268.689 Q2156.84 268.689 2154.57 268.272 Q2152.33 267.879 2149.83 267.068 L2149.83 262.67 Q2152.19 263.897 2154.48 264.522 Q2156.77 265.124 2159.02 265.124 Q2162.03 265.124 2163.65 264.106 Q2165.27 263.064 2165.27 261.189 Q2165.27 259.453 2164.09 258.527 Q2162.93 257.601 2158.97 256.744 L2157.49 256.397 Q2153.53 255.564 2151.77 253.851 Q2150.01 252.115 2150.01 249.106 Q2150.01 245.448 2152.6 243.458 Q2155.2 241.467 2159.97 241.467 Q2162.33 241.467 2164.41 241.814 Q2166.49 242.161 2168.25 242.856 Z" fill="#000000" fill-rule="nonzero" fill-opacity="1"></path><path clip-path="url(#clip880)" d="M2192.95 242.856 L2192.95 246.883 Q2191.15 245.957 2189.2 245.495 Q2187.26 245.032 2185.17 245.032 Q2182 245.032 2180.4 246.004 Q2178.83 246.976 2178.83 248.92 Q2178.83 250.402 2179.97 251.258 Q2181.1 252.092 2184.53 252.856 L2185.98 253.18 Q2190.52 254.152 2192.42 255.934 Q2194.34 257.694 2194.34 260.865 Q2194.34 264.476 2191.47 266.582 Q2188.62 268.689 2183.62 268.689 Q2181.54 268.689 2179.27 268.272 Q2177.03 267.879 2174.53 267.068 L2174.53 262.67 Q2176.89 263.897 2179.18 264.522 Q2181.47 265.124 2183.72 265.124 Q2186.72 265.124 2188.34 264.106 Q2189.97 263.064 2189.97 261.189 Q2189.97 259.453 2188.78 258.527 Q2187.63 257.601 2183.67 256.744 L2182.19 256.397 Q2178.23 255.564 2176.47 253.851 Q2174.71 252.115 2174.71 249.106 Q2174.71 245.448 2177.3 243.458 Q2179.9 241.467 2184.66 241.467 Q2187.03 241.467 2189.11 241.814 Q2191.19 242.161 2192.95 242.856 Z" fill="#000000" fill-rule="nonzero" fill-opacity="1"></path></svg>