<svg xmlns="http://www.w3.org/2000/svg" xmlns:xlink="http://www.w3.org/1999/xlink" width="600" height="400" viewBox="0 0 2400 1600">
<defs>
  <clipPath id="clip040">
    <rect x="0" y="0" width="2400" height="1600"></rect>
  </clipPath>
</defs>
<path clip-path="url(#clip040)" d="M0 1600 L2400 1600 L2400 0 L0 0  Z" fill="#ffffff" fill-rule="evenodd" fill-opacity="1"></path>
<defs>
  <clipPath id="clip041">
    <rect x="480" y="0" width="1681" height="1600"></rect>
  </clipPath>
</defs>
<path clip-path="url(#clip040)" d="M149.191 1423.18 L2352.76 1423.18 L2352.76 47.2441 L149.191 47.2441  Z" fill="#ffffff" fill-rule="evenodd" fill-opacity="1"></path>
<defs>
  <clipPath id="clip042">
    <rect x="149" y="47" width="2205" height="1377"></rect>
  </clipPath>
</defs>
<polyline clip-path="url(#clip042)" style="stroke:#000000; stroke-linecap:round; stroke-linejoin:round; stroke-width:2; stroke-opacity:0.1; fill:none" points="318.163,1423.18 318.163,47.2441 "></polyline>
<polyline clip-path="url(#clip042)" style="stroke:#000000; stroke-linecap:round; stroke-linejoin:round; stroke-width:2; stroke-opacity:0.1; fill:none" points="691.287,1423.18 691.287,47.2441 "></polyline>
<polyline clip-path="url(#clip042)" style="stroke:#000000; stroke-linecap:round; stroke-linejoin:round; stroke-width:2; stroke-opacity:0.1; fill:none" points="1064.41,1423.18 1064.41,47.2441 "></polyline>
<polyline clip-path="url(#clip042)" style="stroke:#000000; stroke-linecap:round; stroke-linejoin:round; stroke-width:2; stroke-opacity:0.1; fill:none" points="1437.54,1423.18 1437.54,47.2441 "></polyline>
<polyline clip-path="url(#clip042)" style="stroke:#000000; stroke-linecap:round; stroke-linejoin:round; stroke-width:2; stroke-opacity:0.1; fill:none" points="1810.66,1423.18 1810.66,47.2441 "></polyline>
<polyline clip-path="url(#clip042)" style="stroke:#000000; stroke-linecap:round; stroke-linejoin:round; stroke-width:2; stroke-opacity:0.1; fill:none" points="2183.78,1423.18 2183.78,47.2441 "></polyline>
<polyline clip-path="url(#clip040)" style="stroke:#000000; stroke-linecap:round; stroke-linejoin:round; stroke-width:4; stroke-opacity:1; fill:none" points="149.191,1423.18 2352.76,1423.18 "></polyline>
<polyline clip-path="url(#clip040)" style="stroke:#000000; stroke-linecap:round; stroke-linejoin:round; stroke-width:4; stroke-opacity:1; fill:none" points="318.163,1423.18 318.163,1404.28 "></polyline>
<polyline clip-path="url(#clip040)" style="stroke:#000000; stroke-linecap:round; stroke-linejoin:round; stroke-width:4; stroke-opacity:1; fill:none" points="691.287,1423.18 691.287,1404.28 "></polyline>
<polyline clip-path="url(#clip040)" style="stroke:#000000; stroke-linecap:round; stroke-linejoin:round; stroke-width:4; stroke-opacity:1; fill:none" points="1064.41,1423.18 1064.41,1404.28 "></polyline>
<polyline clip-path="url(#clip040)" style="stroke:#000000; stroke-linecap:round; stroke-linejoin:round; stroke-width:4; stroke-opacity:1; fill:none" points="1437.54,1423.18 1437.54,1404.28 "></polyline>
<polyline clip-path="url(#clip040)" style="stroke:#000000; stroke-linecap:round; stroke-linejoin:round; stroke-width:4; stroke-opacity:1; fill:none" points="1810.66,1423.18 1810.66,1404.28 "></polyline>
<polyline clip-path="url(#clip040)" style="stroke:#000000; stroke-linecap:round; stroke-linejoin:round; stroke-width:4; stroke-opacity:1; fill:none" points="2183.78,1423.18 2183.78,1404.28 "></polyline>
<path clip-path="url(#clip040)" d="M279.656 1454.86 L279.656 1467.85 L285.536 1467.85 Q288.8 1467.85 290.582 1466.16 Q292.364 1464.47 292.364 1461.34 Q292.364 1458.24 290.582 1456.55 Q288.8 1454.86 285.536 1454.86 L279.656 1454.86 M274.98 1451.02 L285.536 1451.02 Q291.346 1451.02 294.309 1453.66 Q297.295 1456.27 297.295 1461.34 Q297.295 1466.46 294.309 1469.08 Q291.346 1471.69 285.536 1471.69 L279.656 1471.69 L279.656 1485.58 L274.98 1485.58 L274.98 1451.02 Z" fill="#000000" fill-rule="nonzero" fill-opacity="1"></path><path clip-path="url(#clip040)" d="M303.568 1451.02 L309.864 1451.02 L325.188 1479.93 L325.188 1451.02 L329.725 1451.02 L329.725 1485.58 L323.429 1485.58 L308.105 1456.67 L308.105 1485.58 L303.568 1485.58 L303.568 1451.02 Z" fill="#000000" fill-rule="nonzero" fill-opacity="1"></path><path clip-path="url(#clip040)" d="M343.707 1454.86 L343.707 1467.85 L349.586 1467.85 Q352.85 1467.85 354.633 1466.16 Q356.415 1464.47 356.415 1461.34 Q356.415 1458.24 354.633 1456.55 Q352.85 1454.86 349.586 1454.86 L343.707 1454.86 M339.031 1451.02 L349.586 1451.02 Q355.396 1451.02 358.359 1453.66 Q361.345 1456.27 361.345 1461.34 Q361.345 1466.46 358.359 1469.08 Q355.396 1471.69 349.586 1471.69 L343.707 1471.69 L343.707 1485.58 L339.031 1485.58 L339.031 1451.02 Z" fill="#000000" fill-rule="nonzero" fill-opacity="1"></path><path clip-path="url(#clip040)" d="M640.327 1454.86 L640.327 1467.85 L646.206 1467.85 Q649.47 1467.85 651.253 1466.16 Q653.035 1464.47 653.035 1461.34 Q653.035 1458.24 651.253 1456.55 Q649.47 1454.86 646.206 1454.86 L640.327 1454.86 M635.651 1451.02 L646.206 1451.02 Q652.016 1451.02 654.979 1453.66 Q657.965 1456.27 657.965 1461.34 Q657.965 1466.46 654.979 1469.08 Q652.016 1471.69 646.206 1471.69 L640.327 1471.69 L640.327 1485.58 L635.651 1485.58 L635.651 1451.02 Z" fill="#000000" fill-rule="nonzero" fill-opacity="1"></path><path clip-path="url(#clip040)" d="M675.234 1466.44 Q672.086 1466.44 670.234 1468.59 Q668.405 1470.74 668.405 1474.49 Q668.405 1478.22 670.234 1480.39 Q672.086 1482.55 675.234 1482.55 Q678.382 1482.55 680.211 1480.39 Q682.063 1478.22 682.063 1474.49 Q682.063 1470.74 680.211 1468.59 Q678.382 1466.44 675.234 1466.44 M684.516 1451.78 L684.516 1456.04 Q682.757 1455.21 680.951 1454.77 Q679.169 1454.33 677.41 1454.33 Q672.78 1454.33 670.327 1457.45 Q667.896 1460.58 667.549 1466.9 Q668.914 1464.89 670.975 1463.82 Q673.035 1462.73 675.512 1462.73 Q680.72 1462.73 683.729 1465.9 Q686.762 1469.05 686.762 1474.49 Q686.762 1479.82 683.613 1483.03 Q680.465 1486.25 675.234 1486.25 Q669.239 1486.25 666.067 1481.67 Q662.896 1477.06 662.896 1468.33 Q662.896 1460.14 666.785 1455.28 Q670.674 1450.39 677.225 1450.39 Q678.984 1450.39 680.766 1450.74 Q682.572 1451.09 684.516 1451.78 Z" fill="#000000" fill-rule="nonzero" fill-opacity="1"></path><path clip-path="url(#clip040)" d="M704.817 1454.1 Q701.206 1454.1 699.377 1457.66 Q697.572 1461.2 697.572 1468.33 Q697.572 1475.44 699.377 1479.01 Q701.206 1482.55 704.817 1482.55 Q708.451 1482.55 710.257 1479.01 Q712.086 1475.44 712.086 1468.33 Q712.086 1461.2 710.257 1457.66 Q708.451 1454.1 704.817 1454.1 M704.817 1450.39 Q710.627 1450.39 713.683 1455 Q716.761 1459.58 716.761 1468.33 Q716.761 1477.06 713.683 1481.67 Q710.627 1486.25 704.817 1486.25 Q699.007 1486.25 695.928 1481.67 Q692.873 1477.06 692.873 1468.33 Q692.873 1459.58 695.928 1455 Q699.007 1450.39 704.817 1450.39 Z" fill="#000000" fill-rule="nonzero" fill-opacity="1"></path><path clip-path="url(#clip040)" d="M734.979 1454.1 Q731.368 1454.1 729.539 1457.66 Q727.734 1461.2 727.734 1468.33 Q727.734 1475.44 729.539 1479.01 Q731.368 1482.55 734.979 1482.55 Q738.613 1482.55 740.419 1479.01 Q742.247 1475.44 742.247 1468.33 Q742.247 1461.2 740.419 1457.66 Q738.613 1454.1 734.979 1454.1 M734.979 1450.39 Q740.789 1450.39 743.845 1455 Q746.923 1459.58 746.923 1468.33 Q746.923 1477.06 743.845 1481.67 Q740.789 1486.25 734.979 1486.25 Q729.169 1486.25 726.09 1481.67 Q723.035 1477.06 723.035 1468.33 Q723.035 1459.58 726.09 1455 Q729.169 1450.39 734.979 1450.39 Z" fill="#000000" fill-rule="nonzero" fill-opacity="1"></path><path clip-path="url(#clip040)" d="M1006.25 1451.02 L1028.1 1451.02 L1028.1 1454.96 L1010.93 1454.96 L1010.93 1465.19 L1027.39 1465.19 L1027.39 1469.12 L1010.93 1469.12 L1010.93 1481.64 L1028.52 1481.64 L1028.52 1485.58 L1006.25 1485.58 L1006.25 1451.02 Z" fill="#000000" fill-rule="nonzero" fill-opacity="1"></path><path clip-path="url(#clip040)" d="M1040.88 1454.86 L1040.88 1467.85 L1046.76 1467.85 Q1050.02 1467.85 1051.81 1466.16 Q1053.59 1464.47 1053.59 1461.34 Q1053.59 1458.24 1051.81 1456.55 Q1050.02 1454.86 1046.76 1454.86 L1040.88 1454.86 M1036.21 1451.02 L1046.76 1451.02 Q1052.57 1451.02 1055.53 1453.66 Q1058.52 1456.27 1058.52 1461.34 Q1058.52 1466.46 1055.53 1469.08 Q1052.57 1471.69 1046.76 1471.69 L1040.88 1471.69 L1040.88 1485.58 L1036.21 1485.58 L1036.21 1451.02 Z" fill="#000000" fill-rule="nonzero" fill-opacity="1"></path><path clip-path="url(#clip040)" d="M1064.79 1451.02 L1071.09 1451.02 L1086.41 1479.93 L1086.41 1451.02 L1090.95 1451.02 L1090.95 1485.58 L1084.65 1485.58 L1069.33 1456.67 L1069.33 1485.58 L1064.79 1485.58 L1064.79 1451.02 Z" fill="#000000" fill-rule="nonzero" fill-opacity="1"></path><path clip-path="url(#clip040)" d="M1104.93 1454.86 L1104.93 1467.85 L1110.81 1467.85 Q1114.08 1467.85 1115.86 1466.16 Q1117.64 1464.47 1117.64 1461.34 Q1117.64 1458.24 1115.86 1456.55 Q1114.08 1454.86 1110.81 1454.86 L1104.93 1454.86 M1100.26 1451.02 L1110.81 1451.02 Q1116.62 1451.02 1119.58 1453.66 Q1122.57 1456.27 1122.57 1461.34 Q1122.57 1466.46 1119.58 1469.08 Q1116.62 1471.69 1110.81 1471.69 L1104.93 1471.69 L1104.93 1485.58 L1100.26 1485.58 L1100.26 1451.02 Z" fill="#000000" fill-rule="nonzero" fill-opacity="1"></path><path clip-path="url(#clip040)" d="M1378.46 1451.02 L1384.76 1451.02 L1400.08 1479.93 L1400.08 1451.02 L1404.62 1451.02 L1404.62 1485.58 L1398.32 1485.58 L1383 1456.67 L1383 1485.58 L1378.46 1485.58 L1378.46 1451.02 Z" fill="#000000" fill-rule="nonzero" fill-opacity="1"></path><path clip-path="url(#clip040)" d="M1427.19 1455.09 L1415.38 1473.54 L1427.19 1473.54 L1427.19 1455.09 M1425.96 1451.02 L1431.84 1451.02 L1431.84 1473.54 L1436.77 1473.54 L1436.77 1477.43 L1431.84 1477.43 L1431.84 1485.58 L1427.19 1485.58 L1427.19 1477.43 L1411.59 1477.43 L1411.59 1472.92 L1425.96 1451.02 Z" fill="#000000" fill-rule="nonzero" fill-opacity="1"></path><path clip-path="url(#clip040)" d="M1454.5 1454.1 Q1450.89 1454.1 1449.06 1457.66 Q1447.26 1461.2 1447.26 1468.33 Q1447.26 1475.44 1449.06 1479.01 Q1450.89 1482.55 1454.5 1482.55 Q1458.14 1482.55 1459.94 1479.01 Q1461.77 1475.44 1461.77 1468.33 Q1461.77 1461.2 1459.94 1457.66 Q1458.14 1454.1 1454.5 1454.1 M1454.5 1450.39 Q1460.31 1450.39 1463.37 1455 Q1466.45 1459.58 1466.45 1468.33 Q1466.45 1477.06 1463.37 1481.67 Q1460.31 1486.25 1454.5 1486.25 Q1448.69 1486.25 1445.61 1481.67 Q1442.56 1477.06 1442.56 1468.33 Q1442.56 1459.58 1445.61 1455 Q1448.69 1450.39 1454.5 1450.39 Z" fill="#000000" fill-rule="nonzero" fill-opacity="1"></path><path clip-path="url(#clip040)" d="M1484.66 1454.1 Q1481.05 1454.1 1479.23 1457.66 Q1477.42 1461.2 1477.42 1468.33 Q1477.42 1475.44 1479.23 1479.01 Q1481.05 1482.55 1484.66 1482.55 Q1488.3 1482.55 1490.1 1479.01 Q1491.93 1475.44 1491.93 1468.33 Q1491.93 1461.2 1490.1 1457.66 Q1488.3 1454.1 1484.66 1454.1 M1484.66 1450.39 Q1490.48 1450.39 1493.53 1455 Q1496.61 1459.58 1496.61 1468.33 Q1496.61 1477.06 1493.53 1481.67 Q1490.48 1486.25 1484.66 1486.25 Q1478.85 1486.25 1475.78 1481.67 Q1472.72 1477.06 1472.72 1468.33 Q1472.72 1459.58 1475.78 1455 Q1478.85 1450.39 1484.66 1450.39 Z" fill="#000000" fill-rule="nonzero" fill-opacity="1"></path><path clip-path="url(#clip040)" d="M1767.62 1451.02 L1772.29 1451.02 L1772.29 1481.64 L1789.12 1481.64 L1789.12 1485.58 L1767.62 1485.58 L1767.62 1451.02 Z" fill="#000000" fill-rule="nonzero" fill-opacity="1"></path><path clip-path="url(#clip040)" d="M1806.67 1455.63 L1800.32 1472.83 L1813.03 1472.83 L1806.67 1455.63 M1804.03 1451.02 L1809.33 1451.02 L1822.5 1485.58 L1817.64 1485.58 L1814.49 1476.71 L1798.91 1476.71 L1795.76 1485.58 L1790.83 1485.58 L1804.03 1451.02 Z" fill="#000000" fill-rule="nonzero" fill-opacity="1"></path><path clip-path="url(#clip040)" d="M1827.55 1451.02 L1833.84 1451.02 L1849.17 1479.93 L1849.17 1451.02 L1853.7 1451.02 L1853.7 1485.58 L1847.41 1485.58 L1832.08 1456.67 L1832.08 1485.58 L1827.55 1485.58 L1827.55 1451.02 Z" fill="#000000" fill-rule="nonzero" fill-opacity="1"></path><path clip-path="url(#clip040)" d="M2125.76 1451.02 L2147.62 1451.02 L2147.62 1454.96 L2130.44 1454.96 L2130.44 1465.19 L2146.9 1465.19 L2146.9 1469.12 L2130.44 1469.12 L2130.44 1481.64 L2148.03 1481.64 L2148.03 1485.58 L2125.76 1485.58 L2125.76 1451.02 Z" fill="#000000" fill-rule="nonzero" fill-opacity="1"></path><path clip-path="url(#clip040)" d="M2155.72 1451.02 L2160.39 1451.02 L2160.39 1481.64 L2177.22 1481.64 L2177.22 1485.58 L2155.72 1485.58 L2155.72 1451.02 Z" fill="#000000" fill-rule="nonzero" fill-opacity="1"></path><path clip-path="url(#clip040)" d="M2194.77 1455.63 L2188.43 1472.83 L2201.13 1472.83 L2194.77 1455.63 M2192.13 1451.02 L2197.43 1451.02 L2210.6 1485.58 L2205.74 1485.58 L2202.59 1476.71 L2187.01 1476.71 L2183.86 1485.58 L2178.93 1485.58 L2192.13 1451.02 Z" fill="#000000" fill-rule="nonzero" fill-opacity="1"></path><path clip-path="url(#clip040)" d="M2215.65 1451.02 L2221.94 1451.02 L2237.27 1479.93 L2237.27 1451.02 L2241.8 1451.02 L2241.8 1485.58 L2235.51 1485.58 L2220.18 1456.67 L2220.18 1485.58 L2215.65 1485.58 L2215.65 1451.02 Z" fill="#000000" fill-rule="nonzero" fill-opacity="1"></path><path clip-path="url(#clip040)" d="M1012.69 1525.81 L1012.69 1543.66 L1020.77 1543.66 Q1025.26 1543.66 1027.71 1541.34 Q1030.16 1539.02 1030.16 1534.72 Q1030.16 1530.45 1027.71 1528.13 Q1025.26 1525.81 1020.77 1525.81 L1012.69 1525.81 M1006.26 1520.52 L1020.77 1520.52 Q1028.76 1520.52 1032.84 1524.15 Q1036.94 1527.75 1036.94 1534.72 Q1036.94 1541.75 1032.84 1545.35 Q1028.76 1548.95 1020.77 1548.95 L1012.69 1548.95 L1012.69 1568.04 L1006.26 1568.04 L1006.26 1520.52 Z" fill="#000000" fill-rule="nonzero" fill-opacity="1"></path><path clip-path="url(#clip040)" d="M1056.8 1536.5 Q1052.09 1536.5 1049.36 1540.19 Q1046.62 1543.85 1046.62 1550.25 Q1046.62 1556.65 1049.32 1560.34 Q1052.06 1564 1056.8 1564 Q1061.48 1564 1064.22 1560.31 Q1066.96 1556.62 1066.96 1550.25 Q1066.96 1543.92 1064.22 1540.23 Q1061.48 1536.5 1056.8 1536.5 M1056.8 1531.54 Q1064.44 1531.54 1068.8 1536.5 Q1073.16 1541.47 1073.16 1550.25 Q1073.16 1559 1068.8 1564 Q1064.44 1568.97 1056.8 1568.97 Q1049.13 1568.97 1044.77 1564 Q1040.44 1559 1040.44 1550.25 Q1040.44 1541.47 1044.77 1536.5 Q1049.13 1531.54 1056.8 1531.54 Z" fill="#000000" fill-rule="nonzero" fill-opacity="1"></path><path clip-path="url(#clip040)" d="M1105.6 1533.45 L1105.6 1538.98 Q1103.11 1537.71 1100.44 1537.07 Q1097.77 1536.44 1094.9 1536.44 Q1090.54 1536.44 1088.35 1537.77 Q1086.18 1539.11 1086.18 1541.79 Q1086.18 1543.82 1087.74 1545 Q1089.3 1546.15 1094.01 1547.2 L1096.02 1547.64 Q1102.25 1548.98 1104.86 1551.43 Q1107.51 1553.85 1107.51 1558.21 Q1107.51 1563.17 1103.56 1566.07 Q1099.64 1568.97 1092.77 1568.97 Q1089.91 1568.97 1086.79 1568.39 Q1083.7 1567.85 1080.26 1566.74 L1080.26 1560.69 Q1083.51 1562.38 1086.66 1563.24 Q1089.81 1564.07 1092.9 1564.07 Q1097.03 1564.07 1099.26 1562.66 Q1101.49 1561.23 1101.49 1558.65 Q1101.49 1556.27 1099.87 1554.99 Q1098.28 1553.72 1092.83 1552.54 L1090.8 1552.07 Q1085.35 1550.92 1082.93 1548.56 Q1080.52 1546.18 1080.52 1542.04 Q1080.52 1537.01 1084.08 1534.27 Q1087.65 1531.54 1094.2 1531.54 Q1097.45 1531.54 1100.31 1532.01 Q1103.18 1532.49 1105.6 1533.45 Z" fill="#000000" fill-rule="nonzero" fill-opacity="1"></path><path clip-path="url(#clip040)" d="M1122.62 1522.27 L1122.62 1532.4 L1134.69 1532.4 L1134.69 1536.95 L1122.62 1536.95 L1122.62 1556.3 Q1122.62 1560.66 1123.8 1561.9 Q1125.01 1563.14 1128.67 1563.14 L1134.69 1563.14 L1134.69 1568.04 L1128.67 1568.04 Q1121.89 1568.04 1119.31 1565.53 Q1116.74 1562.98 1116.74 1556.3 L1116.74 1536.95 L1112.44 1536.95 L1112.44 1532.4 L1116.74 1532.4 L1116.74 1522.27 L1122.62 1522.27 Z" fill="#000000" fill-rule="nonzero" fill-opacity="1"></path><path clip-path="url(#clip040)" d="M1172.88 1548.76 L1172.88 1551.62 L1145.96 1551.62 Q1146.34 1557.67 1149.58 1560.85 Q1152.86 1564 1158.69 1564 Q1162.06 1564 1165.21 1563.17 Q1168.39 1562.35 1171.51 1560.69 L1171.51 1566.23 Q1168.36 1567.57 1165.05 1568.27 Q1161.74 1568.97 1158.34 1568.97 Q1149.81 1568.97 1144.81 1564 Q1139.84 1559.04 1139.84 1550.57 Q1139.84 1541.82 1144.55 1536.69 Q1149.3 1531.54 1157.32 1531.54 Q1164.51 1531.54 1168.68 1536.18 Q1172.88 1540.8 1172.88 1548.76 M1167.03 1547.04 Q1166.96 1542.23 1164.32 1539.37 Q1161.71 1536.5 1157.38 1536.5 Q1152.48 1536.5 1149.52 1539.27 Q1146.59 1542.04 1146.15 1547.07 L1167.03 1547.04 Z" fill="#000000" fill-rule="nonzero" fill-opacity="1"></path><path clip-path="url(#clip040)" d="M1203.15 1537.87 Q1202.16 1537.3 1200.99 1537.04 Q1199.84 1536.76 1198.44 1536.76 Q1193.48 1536.76 1190.8 1540 Q1188.16 1543.22 1188.16 1549.27 L1188.16 1568.04 L1182.27 1568.04 L1182.27 1532.4 L1188.16 1532.4 L1188.16 1537.93 Q1190.01 1534.69 1192.97 1533.13 Q1195.93 1531.54 1200.16 1531.54 Q1200.76 1531.54 1201.5 1531.63 Q1202.23 1531.7 1203.12 1531.85 L1203.15 1537.87 Z" fill="#000000" fill-rule="nonzero" fill-opacity="1"></path><path clip-path="url(#clip040)" d="M1209.29 1532.4 L1215.15 1532.4 L1215.15 1568.04 L1209.29 1568.04 L1209.29 1532.4 M1209.29 1518.52 L1215.15 1518.52 L1215.15 1525.93 L1209.29 1525.93 L1209.29 1518.52 Z" fill="#000000" fill-rule="nonzero" fill-opacity="1"></path><path clip-path="url(#clip040)" d="M1241.22 1536.5 Q1236.51 1536.5 1233.77 1540.19 Q1231.03 1543.85 1231.03 1550.25 Q1231.03 1556.65 1233.74 1560.34 Q1236.48 1564 1241.22 1564 Q1245.9 1564 1248.63 1560.31 Q1251.37 1556.62 1251.37 1550.25 Q1251.37 1543.92 1248.63 1540.23 Q1245.9 1536.5 1241.22 1536.5 M1241.22 1531.54 Q1248.86 1531.54 1253.22 1536.5 Q1257.58 1541.47 1257.58 1550.25 Q1257.58 1559 1253.22 1564 Q1248.86 1568.97 1241.22 1568.97 Q1233.55 1568.97 1229.19 1564 Q1224.86 1559 1224.86 1550.25 Q1224.86 1541.47 1229.19 1536.5 Q1233.55 1531.54 1241.22 1531.54 Z" fill="#000000" fill-rule="nonzero" fill-opacity="1"></path><path clip-path="url(#clip040)" d="M1287.94 1537.87 Q1286.96 1537.3 1285.78 1537.04 Q1284.63 1536.76 1283.23 1536.76 Q1278.27 1536.76 1275.59 1540 Q1272.95 1543.22 1272.95 1549.27 L1272.95 1568.04 L1267.06 1568.04 L1267.06 1532.4 L1272.95 1532.4 L1272.95 1537.93 Q1274.8 1534.69 1277.76 1533.13 Q1280.72 1531.54 1284.95 1531.54 Q1285.56 1531.54 1286.29 1531.63 Q1287.02 1531.7 1287.91 1531.85 L1287.94 1537.87 Z" fill="#000000" fill-rule="nonzero" fill-opacity="1"></path><path clip-path="url(#clip040)" d="M1315.06 1520.52 L1345.11 1520.52 L1345.11 1525.93 L1321.49 1525.93 L1321.49 1540 L1344.12 1540 L1344.12 1545.41 L1321.49 1545.41 L1321.49 1562.63 L1345.68 1562.63 L1345.68 1568.04 L1315.06 1568.04 L1315.06 1520.52 Z" fill="#000000" fill-rule="nonzero" fill-opacity="1"></path><path clip-path="url(#clip040)" d="M1374.04 1518.52 L1374.04 1523.39 L1368.44 1523.39 Q1365.29 1523.39 1364.04 1524.66 Q1362.83 1525.93 1362.83 1529.24 L1362.83 1532.4 L1372.48 1532.4 L1372.48 1536.95 L1362.83 1536.95 L1362.83 1568.04 L1356.95 1568.04 L1356.95 1536.95 L1351.34 1536.95 L1351.34 1532.4 L1356.95 1532.4 L1356.95 1529.91 Q1356.95 1523.96 1359.72 1521.26 Q1362.48 1518.52 1368.5 1518.52 L1374.04 1518.52 Z" fill="#000000" fill-rule="nonzero" fill-opacity="1"></path><path clip-path="url(#clip040)" d="M1396.99 1518.52 L1396.99 1523.39 L1391.38 1523.39 Q1388.23 1523.39 1386.99 1524.66 Q1385.78 1525.93 1385.78 1529.24 L1385.78 1532.4 L1395.43 1532.4 L1395.43 1536.95 L1385.78 1536.95 L1385.78 1568.04 L1379.89 1568.04 L1379.89 1536.95 L1374.29 1536.95 L1374.29 1532.4 L1379.89 1532.4 L1379.89 1529.91 Q1379.89 1523.96 1382.66 1521.26 Q1385.43 1518.52 1391.45 1518.52 L1396.99 1518.52 Z" fill="#000000" fill-rule="nonzero" fill-opacity="1"></path><path clip-path="url(#clip040)" d="M1432.38 1548.76 L1432.38 1551.62 L1405.45 1551.62 Q1405.84 1557.67 1409.08 1560.85 Q1412.36 1564 1418.18 1564 Q1421.56 1564 1424.71 1563.17 Q1427.89 1562.35 1431.01 1560.69 L1431.01 1566.23 Q1427.86 1567.57 1424.55 1568.27 Q1421.24 1568.97 1417.83 1568.97 Q1409.3 1568.97 1404.31 1564 Q1399.34 1559.04 1399.34 1550.57 Q1399.34 1541.82 1404.05 1536.69 Q1408.8 1531.54 1416.82 1531.54 Q1424.01 1531.54 1428.18 1536.18 Q1432.38 1540.8 1432.38 1548.76 M1426.52 1547.04 Q1426.46 1542.23 1423.82 1539.37 Q1421.21 1536.5 1416.88 1536.5 Q1411.98 1536.5 1409.02 1539.27 Q1406.09 1542.04 1405.64 1547.07 L1426.52 1547.04 Z" fill="#000000" fill-rule="nonzero" fill-opacity="1"></path><path clip-path="url(#clip040)" d="M1467.65 1533.76 L1467.65 1539.24 Q1465.16 1537.87 1462.65 1537.2 Q1460.17 1536.5 1457.62 1536.5 Q1451.92 1536.5 1448.77 1540.13 Q1445.62 1543.73 1445.62 1550.25 Q1445.62 1556.78 1448.77 1560.4 Q1451.92 1564 1457.62 1564 Q1460.17 1564 1462.65 1563.33 Q1465.16 1562.63 1467.65 1561.26 L1467.65 1566.68 Q1465.2 1567.82 1462.55 1568.39 Q1459.94 1568.97 1456.98 1568.97 Q1448.93 1568.97 1444.19 1563.91 Q1439.45 1558.85 1439.45 1550.25 Q1439.45 1541.53 1444.22 1536.53 Q1449.03 1531.54 1457.37 1531.54 Q1460.07 1531.54 1462.65 1532.11 Q1465.23 1532.65 1467.65 1533.76 Z" fill="#000000" fill-rule="nonzero" fill-opacity="1"></path><path clip-path="url(#clip040)" d="M1483.62 1522.27 L1483.62 1532.4 L1495.69 1532.4 L1495.69 1536.95 L1483.62 1536.95 L1483.62 1556.3 Q1483.62 1560.66 1484.8 1561.9 Q1486.01 1563.14 1489.67 1563.14 L1495.69 1563.14 L1495.69 1568.04 L1489.67 1568.04 Q1482.89 1568.04 1480.31 1565.53 Q1477.74 1562.98 1477.74 1556.3 L1477.74 1536.95 L1473.44 1536.95 L1473.44 1532.4 L1477.74 1532.4 L1477.74 1522.27 L1483.62 1522.27 Z" fill="#000000" fill-rule="nonzero" fill-opacity="1"></path><polyline clip-path="url(#clip042)" style="stroke:#000000; stroke-linecap:round; stroke-linejoin:round; stroke-width:2; stroke-opacity:0.1; fill:none" points="149.191,1349.51 2352.76,1349.51 "></polyline>
<polyline clip-path="url(#clip042)" style="stroke:#000000; stroke-linecap:round; stroke-linejoin:round; stroke-width:2; stroke-opacity:0.1; fill:none" points="149.191,1024.23 2352.76,1024.23 "></polyline>
<polyline clip-path="url(#clip042)" style="stroke:#000000; stroke-linecap:round; stroke-linejoin:round; stroke-width:2; stroke-opacity:0.1; fill:none" points="149.191,698.947 2352.76,698.947 "></polyline>
<polyline clip-path="url(#clip042)" style="stroke:#000000; stroke-linecap:round; stroke-linejoin:round; stroke-width:2; stroke-opacity:0.1; fill:none" points="149.191,373.664 2352.76,373.664 "></polyline>
<polyline clip-path="url(#clip042)" style="stroke:#000000; stroke-linecap:round; stroke-linejoin:round; stroke-width:2; stroke-opacity:0.1; fill:none" points="149.191,48.381 2352.76,48.381 "></polyline>
<polyline clip-path="url(#clip040)" style="stroke:#000000; stroke-linecap:round; stroke-linejoin:round; stroke-width:4; stroke-opacity:1; fill:none" points="149.191,1423.18 149.191,47.2441 "></polyline>
<polyline clip-path="url(#clip040)" style="stroke:#000000; stroke-linecap:round; stroke-linejoin:round; stroke-width:4; stroke-opacity:1; fill:none" points="149.191,1349.51 168.089,1349.51 "></polyline>
<polyline clip-path="url(#clip040)" style="stroke:#000000; stroke-linecap:round; stroke-linejoin:round; stroke-width:4; stroke-opacity:1; fill:none" points="149.191,1024.23 168.089,1024.23 "></polyline>
<polyline clip-path="url(#clip040)" style="stroke:#000000; stroke-linecap:round; stroke-linejoin:round; stroke-width:4; stroke-opacity:1; fill:none" points="149.191,698.947 168.089,698.947 "></polyline>
<polyline clip-path="url(#clip040)" style="stroke:#000000; stroke-linecap:round; stroke-linejoin:round; stroke-width:4; stroke-opacity:1; fill:none" points="149.191,373.664 168.089,373.664 "></polyline>
<polyline clip-path="url(#clip040)" style="stroke:#000000; stroke-linecap:round; stroke-linejoin:round; stroke-width:4; stroke-opacity:1; fill:none" points="149.191,48.381 168.089,48.381 "></polyline>
<path clip-path="url(#clip040)" d="M50.9921 1349.96 L80.6679 1349.96 L80.6679 1353.9 L50.9921 1353.9 L50.9921 1349.96 Z" fill="#000000" fill-rule="nonzero" fill-opacity="1"></path><path clip-path="url(#clip040)" d="M103.608 1336.31 L91.8021 1354.76 L103.608 1354.76 L103.608 1336.31 M102.381 1332.23 L108.26 1332.23 L108.26 1354.76 L113.191 1354.76 L113.191 1358.64 L108.26 1358.64 L108.26 1366.79 L103.608 1366.79 L103.608 1358.64 L88.0058 1358.64 L88.0058 1354.13 L102.381 1332.23 Z" fill="#000000" fill-rule="nonzero" fill-opacity="1"></path><path clip-path="url(#clip040)" d="M53.0754 1024.68 L82.7512 1024.68 L82.7512 1028.62 L53.0754 1028.62 L53.0754 1024.68 Z" fill="#000000" fill-rule="nonzero" fill-opacity="1"></path><path clip-path="url(#clip040)" d="M96.8715 1037.57 L113.191 1037.57 L113.191 1041.51 L91.2465 1041.51 L91.2465 1037.57 Q93.9086 1034.82 98.4919 1030.19 Q103.098 1025.54 104.279 1024.2 Q106.524 1021.67 107.404 1019.94 Q108.307 1018.18 108.307 1016.49 Q108.307 1013.73 106.362 1012 Q104.441 1010.26 101.339 1010.26 Q99.14 1010.26 96.6863 1011.02 Q94.2558 1011.79 91.478 1013.34 L91.478 1008.62 Q94.3021 1007.48 96.7558 1006.9 Q99.2095 1006.32 101.246 1006.32 Q106.617 1006.32 109.811 1009.01 Q113.006 1011.7 113.006 1016.19 Q113.006 1018.32 112.196 1020.24 Q111.408 1022.13 109.302 1024.73 Q108.723 1025.4 105.621 1028.62 Q102.52 1031.81 96.8715 1037.57 Z" fill="#000000" fill-rule="nonzero" fill-opacity="1"></path><path clip-path="url(#clip040)" d="M101.246 684.746 Q97.6354 684.746 95.8067 688.31 Q94.0012 691.852 94.0012 698.982 Q94.0012 706.088 95.8067 709.653 Q97.6354 713.195 101.246 713.195 Q104.881 713.195 106.686 709.653 Q108.515 706.088 108.515 698.982 Q108.515 691.852 106.686 688.31 Q104.881 684.746 101.246 684.746 M101.246 681.042 Q107.057 681.042 110.112 685.648 Q113.191 690.232 113.191 698.982 Q113.191 707.708 110.112 712.315 Q107.057 716.898 101.246 716.898 Q95.4363 716.898 92.3576 712.315 Q89.3021 707.708 89.3021 698.982 Q89.3021 690.232 92.3576 685.648 Q95.4363 681.042 101.246 681.042 Z" fill="#000000" fill-rule="nonzero" fill-opacity="1"></path><path clip-path="url(#clip040)" d="M96.8715 387.009 L113.191 387.009 L113.191 390.944 L91.2465 390.944 L91.2465 387.009 Q93.9086 384.254 98.4919 379.625 Q103.098 374.972 104.279 373.629 Q106.524 371.106 107.404 369.37 Q108.307 367.611 108.307 365.921 Q108.307 363.166 106.362 361.43 Q104.441 359.694 101.339 359.694 Q99.14 359.694 96.6863 360.458 Q94.2558 361.222 91.478 362.773 L91.478 358.051 Q94.3021 356.916 96.7558 356.338 Q99.2095 355.759 101.246 355.759 Q106.617 355.759 109.811 358.444 Q113.006 361.129 113.006 365.62 Q113.006 367.75 112.196 369.671 Q111.408 371.569 109.302 374.162 Q108.723 374.833 105.621 378.051 Q102.52 381.245 96.8715 387.009 Z" fill="#000000" fill-rule="nonzero" fill-opacity="1"></path><path clip-path="url(#clip040)" d="M103.608 35.1751 L91.8021 53.624 L103.608 53.624 L103.608 35.1751 M102.381 31.101 L108.26 31.101 L108.26 53.624 L113.191 53.624 L113.191 57.5129 L108.26 57.5129 L108.26 65.661 L103.608 65.661 L103.608 57.5129 L88.0058 57.5129 L88.0058 52.999 L102.381 31.101 Z" fill="#000000" fill-rule="nonzero" fill-opacity="1"></path><path clip-path="url(#clip042)" d="M318.614 1384.24 L318.601 1376.65 L318.573 1369.06 L318.533 1361.48 L318.487 1353.89 L318.437 1346.3 L318.391 1338.71 L318.352 1331.13 L318.323 1323.54 L318.309 1315.95 L318.311 1308.36 L318.332 1300.78 L318.372 1293.19 L318.432 1285.6 L318.512 1278.02 L318.61 1270.43 L318.723 1262.84 L318.848 1255.25 L318.98 1247.67 L319.118 1240.08 L319.257 1232.49 L319.399 1224.9 L319.547 1217.32 L319.706 1209.73 L319.884 1202.14 L320.09 1194.55 L320.333 1186.97 L320.621 1179.38 L320.961 1171.79 L321.354 1164.2 L321.8 1156.62 L322.298 1149.03 L322.84 1141.44 L323.42 1133.86 L324.032 1126.27 L324.67 1118.68 L325.332 1111.09 L326.021 1103.51 L326.747 1095.92 L327.524 1088.33 L328.372 1080.74 L329.313 1073.16 L330.369 1065.57 L331.558 1057.98 L332.89 1050.39 L334.37 1042.81 L335.989 1035.22 L337.734 1027.63 L339.585 1020.05 L341.519 1012.46 L343.514 1004.87 L345.551 997.283 L347.614 989.696 L349.693 982.108 L351.779 974.521 L353.865 966.933 L355.945 959.346 L358.014 951.759 L360.067 944.171 L362.097 936.584 L364.103 928.997 L366.081 921.409 L368.029 913.822 L369.944 906.235 L371.824 898.647 L373.666 891.06 L375.466 883.473 L377.226 875.885 L378.953 868.298 L380.658 860.71 L382.357 853.123 L384.071 845.536 L385.821 837.948 L387.629 830.361 L389.513 822.774 L391.485 815.186 L393.556 807.599 L395.732 800.012 L398.014 792.424 L400.404 784.837 L402.895 777.25 L405.478 769.662 L408.132 762.075 L410.824 754.487 L413.503 746.9 L416.101 739.313 L418.532 731.725 L420.696 724.138 L422.49 716.551 L423.815 708.963 L424.591 701.376 L424.77 693.789 L424.339 686.201 L423.328 678.614 L421.806 671.026 L419.873 663.439 L417.645 655.852 L415.243 648.264 L412.776 640.677 L410.334 633.09 L407.977 625.502 L405.739 617.915 L403.629 610.328 L401.638 602.74 L399.745 595.153 L397.927 587.566 L396.158 579.978 L394.414 572.391 L392.673 564.803 L390.917 557.216 L389.125 549.629 L387.277 542.041 L385.348 534.454 L383.314 526.867 L381.15 519.279 L378.834 511.692 L376.356 504.105 L373.715 496.517 L370.929 488.93 L368.032 481.342 L365.072 473.755 L362.106 466.168 L359.195 458.58 L356.39 450.993 L353.736 443.406 L351.259 435.818 L348.969 428.231 L346.865 420.644 L344.934 413.056 L343.156 405.469 L341.508 397.882 L339.969 390.294 L338.518 382.707 L337.135 375.119 L335.806 367.532 L334.519 359.945 L333.269 352.357 L332.054 344.77 L330.877 337.183 L329.742 329.595 L328.658 322.008 L327.631 314.421 L326.668 306.833 L325.773 299.246 L324.946 291.659 L324.188 284.071 L323.495 276.484 L322.865 268.896 L322.293 261.309 L321.778 253.722 L321.315 246.134 L320.902 238.547 L320.534 230.96 L320.21 223.372 L319.924 215.785 L319.672 208.198 L319.451 200.61 L319.256 193.023 L317.07 193.023 L316.875 200.61 L316.653 208.198 L316.402 215.785 L316.116 223.372 L315.791 230.96 L315.424 238.547 L315.011 246.134 L314.548 253.722 L314.032 261.309 L313.461 268.896 L312.831 276.484 L312.138 284.071 L311.379 291.659 L310.553 299.246 L309.657 306.833 L308.694 314.421 L307.668 322.008 L306.584 329.595 L305.449 337.183 L304.271 344.77 L303.056 352.357 L301.806 359.945 L300.52 367.532 L299.191 375.119 L297.808 382.707 L296.356 390.294 L294.817 397.882 L293.17 405.469 L291.392 413.056 L289.46 420.644 L287.356 428.231 L285.067 435.818 L282.589 443.406 L279.935 450.993 L277.131 458.58 L274.219 466.168 L271.254 473.755 L268.294 481.342 L265.396 488.93 L262.611 496.517 L259.97 504.105 L257.491 511.692 L255.176 519.279 L253.012 526.867 L250.978 534.454 L249.049 542.041 L247.2 549.629 L245.408 557.216 L243.652 564.803 L241.912 572.391 L240.168 579.978 L238.398 587.566 L236.58 595.153 L234.688 602.74 L232.697 610.328 L230.587 617.915 L228.349 625.502 L225.992 633.09 L223.55 640.677 L221.083 648.264 L218.681 655.852 L216.453 663.439 L214.519 671.026 L212.998 678.614 L211.987 686.201 L211.556 693.789 L211.734 701.376 L212.511 708.963 L213.836 716.551 L215.629 724.138 L217.793 731.725 L220.224 739.313 L222.823 746.9 L225.502 754.487 L228.194 762.075 L230.848 769.662 L233.431 777.25 L235.922 784.837 L238.311 792.424 L240.594 800.012 L242.77 807.599 L244.841 815.186 L246.813 822.774 L248.696 830.361 L250.505 837.948 L252.255 845.536 L253.969 853.123 L255.668 860.71 L257.373 868.298 L259.099 875.885 L260.86 883.473 L262.66 891.06 L264.501 898.647 L266.381 906.235 L268.297 913.822 L270.245 921.409 L272.223 928.997 L274.229 936.584 L276.259 944.171 L278.311 951.759 L280.38 959.346 L282.461 966.933 L284.547 974.521 L286.633 982.108 L288.712 989.696 L290.775 997.283 L292.812 1004.87 L294.807 1012.46 L296.74 1020.05 L298.591 1027.63 L300.336 1035.22 L301.956 1042.81 L303.435 1050.39 L304.768 1057.98 L305.957 1065.57 L307.013 1073.16 L307.954 1080.74 L308.802 1088.33 L309.579 1095.92 L310.305 1103.51 L310.994 1111.09 L311.656 1118.68 L312.294 1126.27 L312.906 1133.86 L313.486 1141.44 L314.028 1149.03 L314.525 1156.62 L314.972 1164.2 L315.365 1171.79 L315.704 1179.38 L315.993 1186.97 L316.236 1194.55 L316.442 1202.14 L316.62 1209.73 L316.779 1217.32 L316.926 1224.9 L317.069 1232.49 L317.208 1240.08 L317.345 1247.67 L317.478 1255.25 L317.603 1262.84 L317.716 1270.43 L317.814 1278.02 L317.894 1285.6 L317.954 1293.19 L317.994 1300.78 L318.015 1308.36 L318.017 1315.95 L318.003 1323.54 L317.974 1331.13 L317.935 1338.71 L317.888 1346.3 L317.839 1353.89 L317.792 1361.48 L317.753 1369.06 L317.725 1376.65 L317.712 1384.24 L318.614 1384.24  Z" fill="#009af9" fill-rule="evenodd" fill-opacity="1"></path>
<polyline clip-path="url(#clip042)" style="stroke:#000000; stroke-linecap:round; stroke-linejoin:round; stroke-width:4; stroke-opacity:1; fill:none" points="318.614,1384.24 318.601,1376.65 318.573,1369.06 318.533,1361.48 318.487,1353.89 318.437,1346.3 318.391,1338.71 318.352,1331.13 318.323,1323.54 318.309,1315.95 318.311,1308.36 318.332,1300.78 318.372,1293.19 318.432,1285.6 318.512,1278.02 318.61,1270.43 318.723,1262.84 318.848,1255.25 318.98,1247.67 319.118,1240.08 319.257,1232.49 319.399,1224.9 319.547,1217.32 319.706,1209.73 319.884,1202.14 320.09,1194.55 320.333,1186.97 320.621,1179.38 320.961,1171.79 321.354,1164.2 321.8,1156.62 322.298,1149.03 322.84,1141.44 323.42,1133.86 324.032,1126.27 324.67,1118.68 325.332,1111.09 326.021,1103.51 326.747,1095.92 327.524,1088.33 328.372,1080.74 329.313,1073.16 330.369,1065.57 331.558,1057.98 332.89,1050.39 334.37,1042.81 335.989,1035.22 337.734,1027.63 339.585,1020.05 341.519,1012.46 343.514,1004.87 345.551,997.283 347.614,989.696 349.693,982.108 351.779,974.521 353.865,966.933 355.945,959.346 358.014,951.759 360.067,944.171 362.097,936.584 364.103,928.997 366.081,921.409 368.029,913.822 369.944,906.235 371.824,898.647 373.666,891.06 375.466,883.473 377.226,875.885 378.953,868.298 380.658,860.71 382.357,853.123 384.071,845.536 385.821,837.948 387.629,830.361 389.513,822.774 391.485,815.186 393.556,807.599 395.732,800.012 398.014,792.424 400.404,784.837 402.895,777.25 405.478,769.662 408.132,762.075 410.824,754.487 413.503,746.9 416.101,739.313 418.532,731.725 420.696,724.138 422.49,716.551 423.815,708.963 424.591,701.376 424.77,693.789 424.339,686.201 423.328,678.614 421.806,671.026 419.873,663.439 417.645,655.852 415.243,648.264 412.776,640.677 410.334,633.09 407.977,625.502 405.739,617.915 403.629,610.328 401.638,602.74 399.745,595.153 397.927,587.566 396.158,579.978 394.414,572.391 392.673,564.803 390.917,557.216 389.125,549.629 387.277,542.041 385.348,534.454 383.314,526.867 381.15,519.279 378.834,511.692 376.356,504.105 373.715,496.517 370.929,488.93 368.032,481.342 365.072,473.755 362.106,466.168 359.195,458.58 356.39,450.993 353.736,443.406 351.259,435.818 348.969,428.231 346.865,420.644 344.934,413.056 343.156,405.469 341.508,397.882 339.969,390.294 338.518,382.707 337.135,375.119 335.806,367.532 334.519,359.945 333.269,352.357 332.054,344.77 330.877,337.183 329.742,329.595 328.658,322.008 327.631,314.421 326.668,306.833 325.773,299.246 324.946,291.659 324.188,284.071 323.495,276.484 322.865,268.896 322.293,261.309 321.778,253.722 321.315,246.134 320.902,238.547 320.534,230.96 320.21,223.372 319.924,215.785 319.672,208.198 319.451,200.61 319.256,193.023 317.07,193.023 316.875,200.61 316.653,208.198 316.402,215.785 316.116,223.372 315.791,230.96 315.424,238.547 315.011,246.134 314.548,253.722 314.032,261.309 313.461,268.896 312.831,276.484 312.138,284.071 311.379,291.659 310.553,299.246 309.657,306.833 308.694,314.421 307.668,322.008 306.584,329.595 305.449,337.183 304.271,344.77 303.056,352.357 301.806,359.945 300.52,367.532 299.191,375.119 297.808,382.707 296.356,390.294 294.817,397.882 293.17,405.469 291.392,413.056 289.46,420.644 287.356,428.231 285.067,435.818 282.589,443.406 279.935,450.993 277.131,458.58 274.219,466.168 271.254,473.755 268.294,481.342 265.396,488.93 262.611,496.517 259.97,504.105 257.491,511.692 255.176,519.279 253.012,526.867 250.978,534.454 249.049,542.041 247.2,549.629 245.408,557.216 243.652,564.803 241.912,572.391 240.168,579.978 238.398,587.566 236.58,595.153 234.688,602.74 232.697,610.328 230.587,617.915 228.349,625.502 225.992,633.09 223.55,640.677 221.083,648.264 218.681,655.852 216.453,663.439 214.519,671.026 212.998,678.614 211.987,686.201 211.556,693.789 211.734,701.376 212.511,708.963 213.836,716.551 215.629,724.138 217.793,731.725 220.224,739.313 222.823,746.9 225.502,754.487 228.194,762.075 230.848,769.662 233.431,777.25 235.922,784.837 238.311,792.424 240.594,800.012 242.77,807.599 244.841,815.186 246.813,822.774 248.696,830.361 250.505,837.948 252.255,845.536 253.969,853.123 255.668,860.71 257.373,868.298 259.099,875.885 260.86,883.473 262.66,891.06 264.501,898.647 266.381,906.235 268.297,913.822 270.245,921.409 272.223,928.997 274.229,936.584 276.259,944.171 278.311,951.759 280.38,959.346 282.461,966.933 284.547,974.521 286.633,982.108 288.712,989.696 290.775,997.283 292.812,1004.87 294.807,1012.46 296.74,1020.05 298.591,1027.63 300.336,1035.22 301.956,1042.81 303.435,1050.39 304.768,1057.98 305.957,1065.57 307.013,1073.16 307.954,1080.74 308.802,1088.33 309.579,1095.92 310.305,1103.51 310.994,1111.09 311.656,1118.68 312.294,1126.27 312.906,1133.86 313.486,1141.44 314.028,1149.03 314.525,1156.62 314.972,1164.2 315.365,1171.79 315.704,1179.38 315.993,1186.97 316.236,1194.55 316.442,1202.14 316.62,1209.73 316.779,1217.32 316.926,1224.9 317.069,1232.49 317.208,1240.08 317.345,1247.67 317.478,1255.25 317.603,1262.84 317.716,1270.43 317.814,1278.02 317.894,1285.6 317.954,1293.19 317.994,1300.78 318.015,1308.36 318.017,1315.95 318.003,1323.54 317.974,1331.13 317.935,1338.71 317.888,1346.3 317.839,1353.89 317.792,1361.48 317.753,1369.06 317.725,1376.65 317.712,1384.24 318.614,1384.24 "></polyline>
<path clip-path="url(#clip042)" d="M691.917 1275.28 L691.957 1268.16 L691.984 1261.03 L691.998 1253.91 L692 1246.79 L691.99 1239.67 L691.969 1232.55 L691.94 1225.43 L691.907 1218.31 L691.876 1211.19 L691.853 1204.07 L691.849 1196.95 L691.875 1189.83 L691.939 1182.71 L692.051 1175.59 L692.217 1168.46 L692.439 1161.34 L692.716 1154.22 L693.04 1147.1 L693.404 1139.98 L693.795 1132.86 L694.2 1125.74 L694.61 1118.62 L695.014 1111.5 L695.409 1104.38 L695.793 1097.26 L696.173 1090.14 L696.563 1083.02 L696.981 1075.89 L697.453 1068.77 L698.009 1061.65 L698.678 1054.53 L699.485 1047.41 L700.444 1040.29 L701.559 1033.17 L702.818 1026.05 L704.197 1018.93 L705.667 1011.81 L707.195 1004.69 L708.758 997.566 L710.342 990.445 L711.949 983.324 L713.594 976.204 L715.304 969.083 L717.109 961.962 L719.036 954.841 L721.106 947.72 L723.324 940.6 L725.68 933.479 L728.155 926.358 L730.716 919.237 L733.333 912.116 L735.975 904.996 L738.621 897.875 L741.258 890.754 L743.882 883.633 L746.494 876.513 L749.098 869.392 L751.695 862.271 L754.289 855.15 L756.877 848.029 L759.461 840.909 L762.037 833.788 L764.607 826.667 L767.168 819.546 L769.717 812.425 L772.248 805.305 L774.753 798.184 L777.222 791.063 L779.644 783.942 L782.012 776.822 L784.315 769.701 L786.543 762.58 L788.679 755.459 L790.7 748.338 L792.57 741.218 L794.242 734.097 L795.662 726.976 L796.775 719.855 L797.531 712.734 L797.894 705.614 L797.846 698.493 L797.392 691.372 L796.555 684.251 L795.38 677.131 L793.925 670.01 L792.26 662.889 L790.456 655.768 L788.586 648.647 L786.711 641.527 L784.874 634.406 L783.094 627.285 L781.364 620.164 L779.648 613.043 L777.892 605.923 L776.034 598.802 L774.016 591.681 L771.796 584.56 L769.356 577.44 L766.704 570.319 L763.873 563.198 L760.907 556.077 L757.858 548.956 L754.774 541.836 L751.696 534.715 L748.656 527.594 L745.679 520.473 L742.785 513.352 L739.993 506.232 L737.321 499.111 L734.785 491.99 L732.392 484.869 L730.142 477.748 L728.019 470.628 L725.994 463.507 L724.027 456.386 L722.072 449.265 L720.088 442.145 L718.052 435.024 L715.958 427.903 L713.829 420.782 L711.706 413.661 L709.647 406.541 L707.714 399.42 L705.958 392.299 L704.415 385.178 L703.097 378.057 L701.991 370.937 L701.067 363.816 L700.283 356.695 L699.596 349.574 L698.966 342.454 L698.365 335.333 L697.774 328.212 L697.189 321.091 L696.614 313.97 L696.058 306.85 L695.533 299.729 L695.051 292.608 L694.623 285.487 L694.255 278.366 L693.952 271.246 L693.712 264.125 L693.534 257.004 L693.408 249.883 L693.326 242.763 L693.275 235.642 L693.243 228.521 L693.218 221.4 L693.191 214.279 L693.154 207.159 L693.103 200.038 L693.036 192.917 L692.954 185.796 L692.858 178.675 L692.75 171.555 L692.633 164.434 L692.51 157.313 L692.383 150.192 L692.253 143.072 L690.321 143.072 L690.191 150.192 L690.064 157.313 L689.941 164.434 L689.824 171.555 L689.717 178.675 L689.62 185.796 L689.538 192.917 L689.471 200.038 L689.42 207.159 L689.383 214.279 L689.356 221.4 L689.331 228.521 L689.299 235.642 L689.248 242.763 L689.166 249.883 L689.04 257.004 L688.862 264.125 L688.623 271.246 L688.319 278.366 L687.951 285.487 L687.523 292.608 L687.041 299.729 L686.516 306.85 L685.96 313.97 L685.385 321.091 L684.8 328.212 L684.21 335.333 L683.608 342.454 L682.978 349.574 L682.291 356.695 L681.507 363.816 L680.583 370.937 L679.477 378.057 L678.159 385.178 L676.616 392.299 L674.86 399.42 L672.927 406.541 L670.868 413.661 L668.745 420.782 L666.616 427.903 L664.522 435.024 L662.486 442.145 L660.503 449.265 L658.547 456.386 L656.58 463.507 L654.555 470.628 L652.432 477.748 L650.182 484.869 L647.789 491.99 L645.253 499.111 L642.581 506.232 L639.789 513.352 L636.895 520.473 L633.918 527.594 L630.879 534.715 L627.801 541.836 L624.716 548.956 L621.667 556.077 L618.701 563.198 L615.87 570.319 L613.218 577.44 L610.778 584.56 L608.558 591.681 L606.54 598.802 L604.682 605.923 L602.926 613.043 L601.211 620.164 L599.48 627.285 L597.701 634.406 L595.863 641.527 L593.988 648.647 L592.118 655.768 L590.315 662.889 L588.649 670.01 L587.194 677.131 L586.019 684.251 L585.183 691.372 L584.728 698.493 L584.68 705.614 L585.043 712.734 L585.799 719.855 L586.912 726.976 L588.332 734.097 L590.004 741.218 L591.874 748.338 L593.895 755.459 L596.031 762.58 L598.259 769.701 L600.562 776.822 L602.93 783.942 L605.352 791.063 L607.821 798.184 L610.326 805.305 L612.857 812.425 L615.406 819.546 L617.967 826.667 L620.537 833.788 L623.114 840.909 L625.697 848.029 L628.285 855.15 L630.879 862.271 L633.476 869.392 L636.08 876.513 L638.692 883.633 L641.316 890.754 L643.953 897.875 L646.599 904.996 L649.241 912.116 L651.858 919.237 L654.419 926.358 L656.894 933.479 L659.25 940.6 L661.468 947.72 L663.538 954.841 L665.465 961.962 L667.27 969.083 L668.98 976.204 L670.625 983.324 L672.232 990.445 L673.816 997.566 L675.379 1004.69 L676.907 1011.81 L678.377 1018.93 L679.756 1026.05 L681.015 1033.17 L682.13 1040.29 L683.09 1047.41 L683.896 1054.53 L684.565 1061.65 L685.121 1068.77 L685.594 1075.89 L686.011 1083.02 L686.401 1090.14 L686.781 1097.26 L687.165 1104.38 L687.56 1111.5 L687.964 1118.62 L688.374 1125.74 L688.78 1132.86 L689.17 1139.98 L689.534 1147.1 L689.858 1154.22 L690.135 1161.34 L690.357 1168.46 L690.523 1175.59 L690.635 1182.71 L690.699 1189.83 L690.725 1196.95 L690.721 1204.07 L690.698 1211.19 L690.667 1218.31 L690.634 1225.43 L690.605 1232.55 L690.584 1239.67 L690.574 1246.79 L690.576 1253.91 L690.59 1261.03 L690.618 1268.16 L690.657 1275.28 L691.917 1275.28  Z" fill="#e26f46" fill-rule="evenodd" fill-opacity="1"></path>
<polyline clip-path="url(#clip042)" style="stroke:#000000; stroke-linecap:round; stroke-linejoin:round; stroke-width:4; stroke-opacity:1; fill:none" points="691.917,1275.28 691.957,1268.16 691.984,1261.03 691.998,1253.91 692,1246.79 691.99,1239.67 691.969,1232.55 691.94,1225.43 691.907,1218.31 691.876,1211.19 691.853,1204.07 691.849,1196.95 691.875,1189.83 691.939,1182.71 692.051,1175.59 692.217,1168.46 692.439,1161.34 692.716,1154.22 693.04,1147.1 693.404,1139.98 693.795,1132.86 694.2,1125.74 694.61,1118.62 695.014,1111.5 695.409,1104.38 695.793,1097.26 696.173,1090.14 696.563,1083.02 696.981,1075.89 697.453,1068.77 698.009,1061.65 698.678,1054.53 699.485,1047.41 700.444,1040.29 701.559,1033.17 702.818,1026.05 704.197,1018.93 705.667,1011.81 707.195,1004.69 708.758,997.566 710.342,990.445 711.949,983.324 713.594,976.204 715.304,969.083 717.109,961.962 719.036,954.841 721.106,947.72 723.324,940.6 725.68,933.479 728.155,926.358 730.716,919.237 733.333,912.116 735.975,904.996 738.621,897.875 741.258,890.754 743.882,883.633 746.494,876.513 749.098,869.392 751.695,862.271 754.289,855.15 756.877,848.029 759.461,840.909 762.037,833.788 764.607,826.667 767.168,819.546 769.717,812.425 772.248,805.305 774.753,798.184 777.222,791.063 779.644,783.942 782.012,776.822 784.315,769.701 786.543,762.58 788.679,755.459 790.7,748.338 792.57,741.218 794.242,734.097 795.662,726.976 796.775,719.855 797.531,712.734 797.894,705.614 797.846,698.493 797.392,691.372 796.555,684.251 795.38,677.131 793.925,670.01 792.26,662.889 790.456,655.768 788.586,648.647 786.711,641.527 784.874,634.406 783.094,627.285 781.364,620.164 779.648,613.043 777.892,605.923 776.034,598.802 774.016,591.681 771.796,584.56 769.356,577.44 766.704,570.319 763.873,563.198 760.907,556.077 757.858,548.956 754.774,541.836 751.696,534.715 748.656,527.594 745.679,520.473 742.785,513.352 739.993,506.232 737.321,499.111 734.785,491.99 732.392,484.869 730.142,477.748 728.019,470.628 725.994,463.507 724.027,456.386 722.072,449.265 720.088,442.145 718.052,435.024 715.958,427.903 713.829,420.782 711.706,413.661 709.647,406.541 707.714,399.42 705.958,392.299 704.415,385.178 703.097,378.057 701.991,370.937 701.067,363.816 700.283,356.695 699.596,349.574 698.966,342.454 698.365,335.333 697.774,328.212 697.189,321.091 696.614,313.97 696.058,306.85 695.533,299.729 695.051,292.608 694.623,285.487 694.255,278.366 693.952,271.246 693.712,264.125 693.534,257.004 693.408,249.883 693.326,242.763 693.275,235.642 693.243,228.521 693.218,221.4 693.191,214.279 693.154,207.159 693.103,200.038 693.036,192.917 692.954,185.796 692.858,178.675 692.75,171.555 692.633,164.434 692.51,157.313 692.383,150.192 692.253,143.072 690.321,143.072 690.191,150.192 690.064,157.313 689.941,164.434 689.824,171.555 689.717,178.675 689.62,185.796 689.538,192.917 689.471,200.038 689.42,207.159 689.383,214.279 689.356,221.4 689.331,228.521 689.299,235.642 689.248,242.763 689.166,249.883 689.04,257.004 688.862,264.125 688.623,271.246 688.319,278.366 687.951,285.487 687.523,292.608 687.041,299.729 686.516,306.85 685.96,313.97 685.385,321.091 684.8,328.212 684.21,335.333 683.608,342.454 682.978,349.574 682.291,356.695 681.507,363.816 680.583,370.937 679.477,378.057 678.159,385.178 676.616,392.299 674.86,399.42 672.927,406.541 670.868,413.661 668.745,420.782 666.616,427.903 664.522,435.024 662.486,442.145 660.503,449.265 658.547,456.386 656.58,463.507 654.555,470.628 652.432,477.748 650.182,484.869 647.789,491.99 645.253,499.111 642.581,506.232 639.789,513.352 636.895,520.473 633.918,527.594 630.879,534.715 627.801,541.836 624.716,548.956 621.667,556.077 618.701,563.198 615.87,570.319 613.218,577.44 610.778,584.56 608.558,591.681 606.54,598.802 604.682,605.923 602.926,613.043 601.211,620.164 599.48,627.285 597.701,634.406 595.863,641.527 593.988,648.647 592.118,655.768 590.315,662.889 588.649,670.01 587.194,677.131 586.019,684.251 585.183,691.372 584.728,698.493 584.68,705.614 585.043,712.734 585.799,719.855 586.912,726.976 588.332,734.097 590.004,741.218 591.874,748.338 593.895,755.459 596.031,762.58 598.259,769.701 600.562,776.822 602.93,783.942 605.352,791.063 607.821,798.184 610.326,805.305 612.857,812.425 615.406,819.546 617.967,826.667 620.537,833.788 623.114,840.909 625.697,848.029 628.285,855.15 630.879,862.271 633.476,869.392 636.08,876.513 638.692,883.633 641.316,890.754 643.953,897.875 646.599,904.996 649.241,912.116 651.858,919.237 654.419,926.358 656.894,933.479 659.25,940.6 661.468,947.72 663.538,954.841 665.465,961.962 667.27,969.083 668.98,976.204 670.625,983.324 672.232,990.445 673.816,997.566 675.379,1004.69 676.907,1011.81 678.377,1018.93 679.756,1026.05 681.015,1033.17 682.13,1040.29 683.09,1047.41 683.896,1054.53 684.565,1061.65 685.121,1068.77 685.594,1075.89 686.011,1083.02 686.401,1090.14 686.781,1097.26 687.165,1104.38 687.56,1111.5 687.964,1118.62 688.374,1125.74 688.78,1132.86 689.17,1139.98 689.534,1147.1 689.858,1154.22 690.135,1161.34 690.357,1168.46 690.523,1175.59 690.635,1182.71 690.699,1189.83 690.725,1196.95 690.721,1204.07 690.698,1211.19 690.667,1218.31 690.634,1225.43 690.605,1232.55 690.584,1239.67 690.574,1246.79 690.576,1253.91 690.59,1261.03 690.618,1268.16 690.657,1275.28 691.917,1275.28 "></polyline>
<path clip-path="url(#clip042)" d="M1066.35 1154.8 L1066.6 1148.89 L1066.86 1142.99 L1067.15 1137.08 L1067.47 1131.18 L1067.83 1125.27 L1068.24 1119.37 L1068.69 1113.46 L1069.19 1107.56 L1069.72 1101.65 L1070.29 1095.74 L1070.87 1089.84 L1071.46 1083.93 L1072.06 1078.03 L1072.64 1072.12 L1073.22 1066.22 L1073.8 1060.31 L1074.4 1054.4 L1075.03 1048.5 L1075.71 1042.59 L1076.49 1036.69 L1077.37 1030.78 L1078.39 1024.88 L1079.55 1018.97 L1080.87 1013.07 L1082.34 1007.16 L1083.95 1001.25 L1085.68 995.348 L1087.51 989.442 L1089.41 983.537 L1091.36 977.631 L1093.32 971.726 L1095.28 965.82 L1097.2 959.914 L1099.09 954.009 L1100.91 948.103 L1102.67 942.197 L1104.37 936.292 L1106.02 930.386 L1107.62 924.48 L1109.2 918.575 L1110.75 912.669 L1112.31 906.763 L1113.87 900.858 L1115.45 894.952 L1117.04 889.047 L1118.65 883.141 L1120.24 877.235 L1121.82 871.33 L1123.35 865.424 L1124.82 859.518 L1126.22 853.613 L1127.54 847.707 L1128.8 841.801 L1130 835.896 L1131.18 829.99 L1132.38 824.084 L1133.64 818.179 L1135.01 812.273 L1136.52 806.368 L1138.22 800.462 L1140.14 794.556 L1142.29 788.651 L1144.67 782.745 L1147.24 776.839 L1149.98 770.934 L1152.82 765.028 L1155.69 759.122 L1158.5 753.217 L1161.18 747.311 L1163.63 741.405 L1165.78 735.5 L1167.59 729.594 L1169.02 723.689 L1170.05 717.783 L1170.71 711.877 L1171.02 705.972 L1171.02 700.066 L1170.77 694.16 L1170.31 688.255 L1169.7 682.349 L1168.97 676.443 L1168.12 670.538 L1167.18 664.632 L1166.13 658.726 L1164.96 652.821 L1163.65 646.915 L1162.19 641.01 L1160.57 635.104 L1158.79 629.198 L1156.86 623.293 L1154.82 617.387 L1152.7 611.481 L1150.56 605.576 L1148.45 599.67 L1146.41 593.764 L1144.51 587.859 L1142.76 581.953 L1141.18 576.047 L1139.78 570.142 L1138.54 564.236 L1137.42 558.331 L1136.37 552.425 L1135.34 546.519 L1134.26 540.614 L1133.07 534.708 L1131.72 528.802 L1130.17 522.897 L1128.4 516.991 L1126.4 511.085 L1124.18 505.18 L1121.78 499.274 L1119.23 493.368 L1116.6 487.463 L1113.93 481.557 L1111.29 475.652 L1108.73 469.746 L1106.31 463.84 L1104.05 457.935 L1101.97 452.029 L1100.09 446.123 L1098.39 440.218 L1096.86 434.312 L1095.45 428.406 L1094.15 422.501 L1092.9 416.595 L1091.68 410.689 L1090.44 404.784 L1089.16 398.878 L1087.83 392.973 L1086.44 387.067 L1085 381.161 L1083.53 375.256 L1082.04 369.35 L1080.56 363.444 L1079.12 357.539 L1077.74 351.633 L1076.44 345.727 L1075.24 339.822 L1074.14 333.916 L1073.14 328.01 L1072.25 322.105 L1071.45 316.199 L1070.73 310.294 L1070.08 304.388 L1069.49 298.482 L1068.95 292.577 L1068.45 286.671 L1067.98 280.765 L1067.54 274.86 L1061.28 274.86 L1060.84 280.765 L1060.37 286.671 L1059.87 292.577 L1059.33 298.482 L1058.74 304.388 L1058.09 310.294 L1057.38 316.199 L1056.57 322.105 L1055.68 328.01 L1054.68 333.916 L1053.58 339.822 L1052.38 345.727 L1051.08 351.633 L1049.7 357.539 L1048.26 363.444 L1046.78 369.35 L1045.29 375.256 L1043.82 381.161 L1042.38 387.067 L1040.99 392.973 L1039.66 398.878 L1038.38 404.784 L1037.14 410.689 L1035.92 416.595 L1034.67 422.501 L1033.37 428.406 L1031.97 434.312 L1030.43 440.218 L1028.73 446.123 L1026.85 452.029 L1024.77 457.935 L1022.51 463.84 L1020.09 469.746 L1017.53 475.652 L1014.89 481.557 L1012.23 487.463 L1009.59 493.368 L1007.04 499.274 L1004.64 505.18 L1002.42 511.085 L1000.42 516.991 L998.653 522.897 L997.105 528.802 L995.756 534.708 L994.567 540.614 L993.484 546.519 L992.449 552.425 L991.4 558.331 L990.28 564.236 L989.038 570.142 L987.64 576.047 L986.066 581.953 L984.317 587.859 L982.409 593.764 L980.376 599.67 L978.262 605.576 L976.12 611.481 L974.003 617.387 L971.961 623.293 L970.034 629.198 L968.252 635.104 L966.629 641.01 L965.168 646.915 L963.86 652.821 L962.691 658.726 L961.642 664.632 L960.699 670.538 L959.857 676.443 L959.12 682.349 L958.508 688.255 L958.055 694.16 L957.804 700.066 L957.807 705.972 L958.115 711.877 L958.77 717.783 L959.806 723.689 L961.232 729.594 L963.04 735.5 L965.196 741.405 L967.646 747.311 L970.318 753.217 L973.132 759.122 L976 765.028 L978.841 770.934 L981.579 776.839 L984.156 782.745 L986.531 788.651 L988.679 794.556 L990.598 800.462 L992.301 806.368 L993.816 812.273 L995.18 818.179 L996.439 824.084 L997.638 829.99 L998.822 835.896 L1000.03 841.801 L1001.28 847.707 L1002.61 853.613 L1004.01 859.518 L1005.48 865.424 L1007.01 871.33 L1008.58 877.235 L1010.18 883.141 L1011.78 889.047 L1013.37 894.952 L1014.95 900.858 L1016.52 906.763 L1018.07 912.669 L1019.63 918.575 L1021.2 924.48 L1022.8 930.386 L1024.45 936.292 L1026.15 942.197 L1027.91 948.103 L1029.74 954.009 L1031.62 959.914 L1033.54 965.82 L1035.5 971.726 L1037.46 977.631 L1039.41 983.537 L1041.31 989.442 L1043.14 995.348 L1044.87 1001.25 L1046.48 1007.16 L1047.95 1013.07 L1049.27 1018.97 L1050.43 1024.88 L1051.45 1030.78 L1052.34 1036.69 L1053.11 1042.59 L1053.8 1048.5 L1054.42 1054.4 L1055.02 1060.31 L1055.6 1066.22 L1056.18 1072.12 L1056.76 1078.03 L1057.36 1083.93 L1057.95 1089.84 L1058.54 1095.74 L1059.1 1101.65 L1059.64 1107.56 L1060.13 1113.46 L1060.58 1119.37 L1060.99 1125.27 L1061.35 1131.18 L1061.67 1137.08 L1061.96 1142.99 L1062.23 1148.89 L1062.47 1154.8 L1066.35 1154.8  Z" fill="#3da44d" fill-rule="evenodd" fill-opacity="1"></path>
<polyline clip-path="url(#clip042)" style="stroke:#000000; stroke-linecap:round; stroke-linejoin:round; stroke-width:4; stroke-opacity:1; fill:none" points="1066.35,1154.8 1066.6,1148.89 1066.86,1142.99 1067.15,1137.08 1067.47,1131.18 1067.83,1125.27 1068.24,1119.37 1068.69,1113.46 1069.19,1107.56 1069.72,1101.65 1070.29,1095.74 1070.87,1089.84 1071.46,1083.93 1072.06,1078.03 1072.64,1072.12 1073.22,1066.22 1073.8,1060.31 1074.4,1054.4 1075.03,1048.5 1075.71,1042.59 1076.49,1036.69 1077.37,1030.78 1078.39,1024.88 1079.55,1018.97 1080.87,1013.07 1082.34,1007.16 1083.95,1001.25 1085.68,995.348 1087.51,989.442 1089.41,983.537 1091.36,977.631 1093.32,971.726 1095.28,965.82 1097.2,959.914 1099.09,954.009 1100.91,948.103 1102.67,942.197 1104.37,936.292 1106.02,930.386 1107.62,924.48 1109.2,918.575 1110.75,912.669 1112.31,906.763 1113.87,900.858 1115.45,894.952 1117.04,889.047 1118.65,883.141 1120.24,877.235 1121.82,871.33 1123.35,865.424 1124.82,859.518 1126.22,853.613 1127.54,847.707 1128.8,841.801 1130,835.896 1131.18,829.99 1132.38,824.084 1133.64,818.179 1135.01,812.273 1136.52,806.368 1138.22,800.462 1140.14,794.556 1142.29,788.651 1144.67,782.745 1147.24,776.839 1149.98,770.934 1152.82,765.028 1155.69,759.122 1158.5,753.217 1161.18,747.311 1163.63,741.405 1165.78,735.5 1167.59,729.594 1169.02,723.689 1170.05,717.783 1170.71,711.877 1171.02,705.972 1171.02,700.066 1170.77,694.16 1170.31,688.255 1169.7,682.349 1168.97,676.443 1168.12,670.538 1167.18,664.632 1166.13,658.726 1164.96,652.821 1163.65,646.915 1162.19,641.01 1160.57,635.104 1158.79,629.198 1156.86,623.293 1154.82,617.387 1152.7,611.481 1150.56,605.576 1148.45,599.67 1146.41,593.764 1144.51,587.859 1142.76,581.953 1141.18,576.047 1139.78,570.142 1138.54,564.236 1137.42,558.331 1136.37,552.425 1135.34,546.519 1134.26,540.614 1133.07,534.708 1131.72,528.802 1130.17,522.897 1128.4,516.991 1126.4,511.085 1124.18,505.18 1121.78,499.274 1119.23,493.368 1116.6,487.463 1113.93,481.557 1111.29,475.652 1108.73,469.746 1106.31,463.84 1104.05,457.935 1101.97,452.029 1100.09,446.123 1098.39,440.218 1096.86,434.312 1095.45,428.406 1094.15,422.501 1092.9,416.595 1091.68,410.689 1090.44,404.784 1089.16,398.878 1087.83,392.973 1086.44,387.067 1085,381.161 1083.53,375.256 1082.04,369.35 1080.56,363.444 1079.12,357.539 1077.74,351.633 1076.44,345.727 1075.24,339.822 1074.14,333.916 1073.14,328.01 1072.25,322.105 1071.45,316.199 1070.73,310.294 1070.08,304.388 1069.49,298.482 1068.95,292.577 1068.45,286.671 1067.98,280.765 1067.54,274.86 1061.28,274.86 1060.84,280.765 1060.37,286.671 1059.87,292.577 1059.33,298.482 1058.74,304.388 1058.09,310.294 1057.38,316.199 1056.57,322.105 1055.68,328.01 1054.68,333.916 1053.58,339.822 1052.38,345.727 1051.08,351.633 1049.7,357.539 1048.26,363.444 1046.78,369.35 1045.29,375.256 1043.82,381.161 1042.38,387.067 1040.99,392.973 1039.66,398.878 1038.38,404.784 1037.14,410.689 1035.92,416.595 1034.67,422.501 1033.37,428.406 1031.97,434.312 1030.43,440.218 1028.73,446.123 1026.85,452.029 1024.77,457.935 1022.51,463.84 1020.09,469.746 1017.53,475.652 1014.89,481.557 1012.23,487.463 1009.59,493.368 1007.04,499.274 1004.64,505.18 1002.42,511.085 1000.42,516.991 998.653,522.897 997.105,528.802 995.756,534.708 994.567,540.614 993.484,546.519 992.449,552.425 991.4,558.331 990.28,564.236 989.038,570.142 987.64,576.047 986.066,581.953 984.317,587.859 982.409,593.764 980.376,599.67 978.262,605.576 976.12,611.481 974.003,617.387 971.961,623.293 970.034,629.198 968.252,635.104 966.629,641.01 965.168,646.915 963.86,652.821 962.691,658.726 961.642,664.632 960.699,670.538 959.857,676.443 959.12,682.349 958.508,688.255 958.055,694.16 957.804,700.066 957.807,705.972 958.115,711.877 958.77,717.783 959.806,723.689 961.232,729.594 963.04,735.5 965.196,741.405 967.646,747.311 970.318,753.217 973.132,759.122 976,765.028 978.841,770.934 981.579,776.839 984.156,782.745 986.531,788.651 988.679,794.556 990.598,800.462 992.301,806.368 993.816,812.273 995.18,818.179 996.439,824.084 997.638,829.99 998.822,835.896 1000.03,841.801 1001.28,847.707 1002.61,853.613 1004.01,859.518 1005.48,865.424 1007.01,871.33 1008.58,877.235 1010.18,883.141 1011.78,889.047 1013.37,894.952 1014.95,900.858 1016.52,906.763 1018.07,912.669 1019.63,918.575 1021.2,924.48 1022.8,930.386 1024.45,936.292 1026.15,942.197 1027.91,948.103 1029.74,954.009 1031.62,959.914 1033.54,965.82 1035.5,971.726 1037.46,977.631 1039.41,983.537 1041.31,989.442 1043.14,995.348 1044.87,1001.25 1046.48,1007.16 1047.95,1013.07 1049.27,1018.97 1050.43,1024.88 1051.45,1030.78 1052.34,1036.69 1053.11,1042.59 1053.8,1048.5 1054.42,1054.4 1055.02,1060.31 1055.6,1066.22 1056.18,1072.12 1056.76,1078.03 1057.36,1083.93 1057.95,1089.84 1058.54,1095.74 1059.1,1101.65 1059.64,1107.56 1060.13,1113.46 1060.58,1119.37 1060.99,1125.27 1061.35,1131.18 1061.67,1137.08 1061.96,1142.99 1062.23,1148.89 1062.47,1154.8 1066.35,1154.8 "></polyline>
<path clip-path="url(#clip042)" d="M1439.4 1136.76 L1439.65 1130.99 L1439.91 1125.22 L1440.18 1119.45 L1440.47 1113.68 L1440.77 1107.91 L1441.11 1102.14 L1441.49 1096.37 L1441.92 1090.6 L1442.41 1084.83 L1442.97 1079.06 L1443.61 1073.29 L1444.32 1067.52 L1445.1 1061.75 L1445.95 1055.98 L1446.85 1050.22 L1447.8 1044.45 L1448.77 1038.68 L1449.77 1032.91 L1450.77 1027.14 L1451.78 1021.37 L1452.8 1015.6 L1453.83 1009.83 L1454.88 1004.06 L1455.96 998.288 L1457.1 992.519 L1458.31 986.749 L1459.61 980.979 L1461.02 975.21 L1462.55 969.44 L1464.22 963.67 L1466.04 957.901 L1467.98 952.131 L1470.05 946.361 L1472.23 940.592 L1474.49 934.822 L1476.8 929.052 L1479.12 923.283 L1481.41 917.513 L1483.64 911.744 L1485.75 905.974 L1487.73 900.204 L1489.55 894.435 L1491.2 888.665 L1492.67 882.895 L1493.99 877.126 L1495.18 871.356 L1496.26 865.586 L1497.28 859.817 L1498.28 854.047 L1499.3 848.277 L1500.37 842.508 L1501.54 836.738 L1502.83 830.968 L1504.27 825.199 L1505.9 819.429 L1507.72 813.659 L1509.76 807.89 L1512 802.12 L1514.44 796.351 L1517.06 790.581 L1519.8 784.811 L1522.63 779.042 L1525.47 773.272 L1528.27 767.502 L1530.96 761.733 L1533.47 755.963 L1535.75 750.193 L1537.76 744.424 L1539.49 738.654 L1540.91 732.884 L1542.05 727.115 L1542.91 721.345 L1543.53 715.575 L1543.93 709.806 L1544.13 704.036 L1544.14 698.266 L1543.96 692.497 L1543.58 686.727 L1542.97 680.958 L1542.1 675.188 L1540.94 669.418 L1539.47 663.649 L1537.68 657.879 L1535.57 652.109 L1533.18 646.34 L1530.56 640.57 L1527.78 634.8 L1524.9 629.031 L1522.02 623.261 L1519.19 617.491 L1516.47 611.722 L1513.9 605.952 L1511.49 600.182 L1509.24 594.413 L1507.12 588.643 L1505.12 582.874 L1503.2 577.104 L1501.33 571.334 L1499.5 565.565 L1497.68 559.795 L1495.87 554.025 L1494.07 548.256 L1492.27 542.486 L1490.46 536.716 L1488.66 530.947 L1486.85 525.177 L1485.03 519.407 L1483.19 513.638 L1481.33 507.868 L1479.45 502.098 L1477.55 496.329 L1475.66 490.559 L1473.79 484.789 L1471.98 479.02 L1470.24 473.25 L1468.59 467.481 L1467.07 461.711 L1465.68 455.941 L1464.41 450.172 L1463.28 444.402 L1462.25 438.632 L1461.32 432.863 L1460.46 427.093 L1459.64 421.323 L1458.84 415.554 L1458.04 409.784 L1457.22 404.014 L1456.36 398.245 L1455.46 392.475 L1454.52 386.705 L1453.54 380.936 L1452.52 375.166 L1451.47 369.396 L1450.41 363.627 L1449.35 357.857 L1448.3 352.088 L1447.29 346.318 L1446.32 340.548 L1445.4 334.779 L1444.55 329.009 L1443.78 323.239 L1443.09 317.47 L1442.48 311.7 L1441.95 305.93 L1441.49 300.161 L1441.09 294.391 L1440.75 288.621 L1440.44 282.852 L1440.16 277.082 L1439.9 271.312 L1439.65 265.543 L1435.42 265.543 L1435.17 271.312 L1434.91 277.082 L1434.63 282.852 L1434.32 288.621 L1433.98 294.391 L1433.58 300.161 L1433.12 305.93 L1432.59 311.7 L1431.98 317.47 L1431.29 323.239 L1430.52 329.009 L1429.67 334.779 L1428.76 340.548 L1427.78 346.318 L1426.77 352.088 L1425.72 357.857 L1424.66 363.627 L1423.6 369.396 L1422.55 375.166 L1421.53 380.936 L1420.55 386.705 L1419.61 392.475 L1418.71 398.245 L1417.85 404.014 L1417.03 409.784 L1416.23 415.554 L1415.43 421.323 L1414.61 427.093 L1413.75 432.863 L1412.82 438.632 L1411.79 444.402 L1410.66 450.172 L1409.39 455.941 L1408 461.711 L1406.48 467.481 L1404.84 473.25 L1403.09 479.02 L1401.28 484.789 L1399.41 490.559 L1397.52 496.329 L1395.62 502.098 L1393.74 507.868 L1391.88 513.638 L1390.04 519.407 L1388.22 525.177 L1386.41 530.947 L1384.61 536.716 L1382.81 542.486 L1381 548.256 L1379.2 554.025 L1377.39 559.795 L1375.57 565.565 L1373.74 571.334 L1371.87 577.104 L1369.95 582.874 L1367.95 588.643 L1365.84 594.413 L1363.58 600.182 L1361.17 605.952 L1358.6 611.722 L1355.88 617.491 L1353.05 623.261 L1350.17 629.031 L1347.29 634.8 L1344.51 640.57 L1341.89 646.34 L1339.5 652.109 L1337.39 657.879 L1335.6 663.649 L1334.13 669.418 L1332.97 675.188 L1332.1 680.958 L1331.49 686.727 L1331.11 692.497 L1330.93 698.266 L1330.94 704.036 L1331.14 709.806 L1331.54 715.575 L1332.16 721.345 L1333.02 727.115 L1334.16 732.884 L1335.59 738.654 L1337.31 744.424 L1339.32 750.193 L1341.6 755.963 L1344.11 761.733 L1346.8 767.502 L1349.6 773.272 L1352.44 779.042 L1355.27 784.811 L1358.01 790.581 L1360.63 796.351 L1363.07 802.12 L1365.32 807.89 L1367.35 813.659 L1369.17 819.429 L1370.8 825.199 L1372.24 830.968 L1373.53 836.738 L1374.7 842.508 L1375.77 848.277 L1376.79 854.047 L1377.79 859.817 L1378.81 865.586 L1379.89 871.356 L1381.08 877.126 L1382.4 882.895 L1383.87 888.665 L1385.52 894.435 L1387.34 900.204 L1389.32 905.974 L1391.43 911.744 L1393.66 917.513 L1395.95 923.283 L1398.27 929.052 L1400.58 934.822 L1402.84 940.592 L1405.02 946.361 L1407.09 952.131 L1409.04 957.901 L1410.85 963.67 L1412.52 969.44 L1414.05 975.21 L1415.46 980.979 L1416.77 986.749 L1417.97 992.519 L1419.11 998.288 L1420.19 1004.06 L1421.24 1009.83 L1422.27 1015.6 L1423.29 1021.37 L1424.3 1027.14 L1425.3 1032.91 L1426.3 1038.68 L1427.27 1044.45 L1428.22 1050.22 L1429.12 1055.98 L1429.97 1061.75 L1430.75 1067.52 L1431.46 1073.29 L1432.1 1079.06 L1432.66 1084.83 L1433.15 1090.6 L1433.58 1096.37 L1433.96 1102.14 L1434.3 1107.91 L1434.61 1113.68 L1434.89 1119.45 L1435.16 1125.22 L1435.42 1130.99 L1435.67 1136.76 L1439.4 1136.76  Z" fill="#c271d2" fill-rule="evenodd" fill-opacity="1"></path>
<polyline clip-path="url(#clip042)" style="stroke:#000000; stroke-linecap:round; stroke-linejoin:round; stroke-width:4; stroke-opacity:1; fill:none" points="1439.4,1136.76 1439.65,1130.99 1439.91,1125.22 1440.18,1119.45 1440.47,1113.68 1440.77,1107.91 1441.11,1102.14 1441.49,1096.37 1441.92,1090.6 1442.41,1084.83 1442.97,1079.06 1443.61,1073.29 1444.32,1067.52 1445.1,1061.75 1445.95,1055.98 1446.85,1050.22 1447.8,1044.45 1448.77,1038.68 1449.77,1032.91 1450.77,1027.14 1451.78,1021.37 1452.8,1015.6 1453.83,1009.83 1454.88,1004.06 1455.96,998.288 1457.1,992.519 1458.31,986.749 1459.61,980.979 1461.02,975.21 1462.55,969.44 1464.22,963.67 1466.04,957.901 1467.98,952.131 1470.05,946.361 1472.23,940.592 1474.49,934.822 1476.8,929.052 1479.12,923.283 1481.41,917.513 1483.64,911.744 1485.75,905.974 1487.73,900.204 1489.55,894.435 1491.2,888.665 1492.67,882.895 1493.99,877.126 1495.18,871.356 1496.26,865.586 1497.28,859.817 1498.28,854.047 1499.3,848.277 1500.37,842.508 1501.54,836.738 1502.83,830.968 1504.27,825.199 1505.9,819.429 1507.72,813.659 1509.76,807.89 1512,802.12 1514.44,796.351 1517.06,790.581 1519.8,784.811 1522.63,779.042 1525.47,773.272 1528.27,767.502 1530.96,761.733 1533.47,755.963 1535.75,750.193 1537.76,744.424 1539.49,738.654 1540.91,732.884 1542.05,727.115 1542.91,721.345 1543.53,715.575 1543.93,709.806 1544.13,704.036 1544.14,698.266 1543.96,692.497 1543.58,686.727 1542.97,680.958 1542.1,675.188 1540.94,669.418 1539.47,663.649 1537.68,657.879 1535.57,652.109 1533.18,646.34 1530.56,640.57 1527.78,634.8 1524.9,629.031 1522.02,623.261 1519.19,617.491 1516.47,611.722 1513.9,605.952 1511.49,600.182 1509.24,594.413 1507.12,588.643 1505.12,582.874 1503.2,577.104 1501.33,571.334 1499.5,565.565 1497.68,559.795 1495.87,554.025 1494.07,548.256 1492.27,542.486 1490.46,536.716 1488.66,530.947 1486.85,525.177 1485.03,519.407 1483.19,513.638 1481.33,507.868 1479.45,502.098 1477.55,496.329 1475.66,490.559 1473.79,484.789 1471.98,479.02 1470.24,473.25 1468.59,467.481 1467.07,461.711 1465.68,455.941 1464.41,450.172 1463.28,444.402 1462.25,438.632 1461.32,432.863 1460.46,427.093 1459.64,421.323 1458.84,415.554 1458.04,409.784 1457.22,404.014 1456.36,398.245 1455.46,392.475 1454.52,386.705 1453.54,380.936 1452.52,375.166 1451.47,369.396 1450.41,363.627 1449.35,357.857 1448.3,352.088 1447.29,346.318 1446.32,340.548 1445.4,334.779 1444.55,329.009 1443.78,323.239 1443.09,317.47 1442.48,311.7 1441.95,305.93 1441.49,300.161 1441.09,294.391 1440.75,288.621 1440.44,282.852 1440.16,277.082 1439.9,271.312 1439.65,265.543 1435.42,265.543 1435.17,271.312 1434.91,277.082 1434.63,282.852 1434.32,288.621 1433.98,294.391 1433.58,300.161 1433.12,305.93 1432.59,311.7 1431.98,317.47 1431.29,323.239 1430.52,329.009 1429.67,334.779 1428.76,340.548 1427.78,346.318 1426.77,352.088 1425.72,357.857 1424.66,363.627 1423.6,369.396 1422.55,375.166 1421.53,380.936 1420.55,386.705 1419.61,392.475 1418.71,398.245 1417.85,404.014 1417.03,409.784 1416.23,415.554 1415.43,421.323 1414.61,427.093 1413.75,432.863 1412.82,438.632 1411.79,444.402 1410.66,450.172 1409.39,455.941 1408,461.711 1406.48,467.481 1404.84,473.25 1403.09,479.02 1401.28,484.789 1399.41,490.559 1397.52,496.329 1395.62,502.098 1393.74,507.868 1391.88,513.638 1390.04,519.407 1388.22,525.177 1386.41,530.947 1384.61,536.716 1382.81,542.486 1381,548.256 1379.2,554.025 1377.39,559.795 1375.57,565.565 1373.74,571.334 1371.87,577.104 1369.95,582.874 1367.95,588.643 1365.84,594.413 1363.58,600.182 1361.17,605.952 1358.6,611.722 1355.88,617.491 1353.05,623.261 1350.17,629.031 1347.29,634.8 1344.51,640.57 1341.89,646.34 1339.5,652.109 1337.39,657.879 1335.6,663.649 1334.13,669.418 1332.97,675.188 1332.1,680.958 1331.49,686.727 1331.11,692.497 1330.93,698.266 1330.94,704.036 1331.14,709.806 1331.54,715.575 1332.16,721.345 1333.02,727.115 1334.16,732.884 1335.59,738.654 1337.31,744.424 1339.32,750.193 1341.6,755.963 1344.11,761.733 1346.8,767.502 1349.6,773.272 1352.44,779.042 1355.27,784.811 1358.01,790.581 1360.63,796.351 1363.07,802.12 1365.32,807.89 1367.35,813.659 1369.17,819.429 1370.8,825.199 1372.24,830.968 1373.53,836.738 1374.7,842.508 1375.77,848.277 1376.79,854.047 1377.79,859.817 1378.81,865.586 1379.89,871.356 1381.08,877.126 1382.4,882.895 1383.87,888.665 1385.52,894.435 1387.34,900.204 1389.32,905.974 1391.43,911.744 1393.66,917.513 1395.95,923.283 1398.27,929.052 1400.58,934.822 1402.84,940.592 1405.02,946.361 1407.09,952.131 1409.04,957.901 1410.85,963.67 1412.52,969.44 1414.05,975.21 1415.46,980.979 1416.77,986.749 1417.97,992.519 1419.11,998.288 1420.19,1004.06 1421.24,1009.83 1422.27,1015.6 1423.29,1021.37 1424.3,1027.14 1425.3,1032.91 1426.3,1038.68 1427.27,1044.45 1428.22,1050.22 1429.12,1055.98 1429.97,1061.75 1430.75,1067.52 1431.46,1073.29 1432.1,1079.06 1432.66,1084.83 1433.15,1090.6 1433.58,1096.37 1433.96,1102.14 1434.3,1107.91 1434.61,1113.68 1434.89,1119.45 1435.16,1125.22 1435.42,1130.99 1435.67,1136.76 1439.4,1136.76 "></polyline>
<path clip-path="url(#clip042)" d="M1812.15 1194.64 L1812.47 1187.39 L1812.87 1180.15 L1813.35 1172.9 L1813.9 1165.66 L1814.55 1158.41 L1815.28 1151.17 L1816.08 1143.92 L1816.95 1136.68 L1817.87 1129.43 L1818.83 1122.19 L1819.82 1114.94 L1820.83 1107.7 L1821.85 1100.45 L1822.89 1093.21 L1823.97 1085.96 L1825.1 1078.72 L1826.3 1071.47 L1827.59 1064.23 L1828.99 1056.99 L1830.5 1049.74 L1832.14 1042.5 L1833.9 1035.25 L1835.75 1028.01 L1837.67 1020.76 L1839.63 1013.52 L1841.58 1006.27 L1843.48 999.027 L1845.27 991.782 L1846.93 984.537 L1848.42 977.293 L1849.75 970.048 L1850.93 962.803 L1851.99 955.558 L1853 948.313 L1854.01 941.069 L1855.1 933.824 L1856.37 926.579 L1857.87 919.334 L1859.66 912.09 L1861.78 904.845 L1864.24 897.6 L1867.03 890.355 L1870.11 883.111 L1873.43 875.866 L1876.92 868.621 L1880.53 861.376 L1884.18 854.131 L1887.82 846.887 L1891.37 839.642 L1894.8 832.397 L1898.06 825.152 L1901.11 817.908 L1903.92 810.663 L1906.48 803.418 L1908.77 796.173 L1910.79 788.928 L1912.52 781.684 L1913.98 774.439 L1915.15 767.194 L1916.05 759.949 L1916.69 752.705 L1917.08 745.46 L1917.26 738.215 L1917.27 730.97 L1917.14 723.726 L1916.93 716.481 L1916.69 709.236 L1916.46 701.991 L1916.26 694.746 L1916.12 687.502 L1916.02 680.257 L1915.95 673.012 L1915.89 665.767 L1915.78 658.523 L1915.6 651.278 L1915.33 644.033 L1914.92 636.788 L1914.36 629.544 L1913.64 622.299 L1912.73 615.054 L1911.63 607.809 L1910.3 600.564 L1908.74 593.32 L1906.93 586.075 L1904.84 578.83 L1902.46 571.585 L1899.82 564.341 L1896.91 557.096 L1893.8 549.851 L1890.52 542.606 L1887.17 535.361 L1883.81 528.117 L1880.53 520.872 L1877.39 513.627 L1874.45 506.382 L1871.74 499.138 L1869.26 491.893 L1867.01 484.648 L1864.95 477.403 L1863.04 470.159 L1861.21 462.914 L1859.41 455.669 L1857.59 448.424 L1855.7 441.179 L1853.71 433.935 L1851.61 426.69 L1849.41 419.445 L1847.11 412.2 L1844.75 404.956 L1842.38 397.711 L1840.04 390.466 L1837.78 383.221 L1835.65 375.977 L1833.67 368.732 L1831.87 361.487 L1830.25 354.242 L1828.81 346.997 L1827.53 339.753 L1826.4 332.508 L1825.38 325.263 L1824.46 318.018 L1823.59 310.774 L1822.78 303.529 L1821.99 296.284 L1821.23 289.039 L1820.48 281.794 L1819.74 274.55 L1819.01 267.305 L1818.29 260.06 L1817.58 252.815 L1816.89 245.571 L1816.22 238.326 L1815.57 231.081 L1814.95 223.836 L1814.37 216.592 L1813.83 209.347 L1813.33 202.102 L1812.89 194.857 L1812.5 187.612 L1812.16 180.368 L1811.88 173.123 L1811.65 165.878 L1811.46 158.633 L1811.33 151.389 L1811.23 144.144 L1811.16 136.899 L1811.13 129.654 L1811.12 122.41 L1811.12 115.165 L1811.14 107.92 L1811.16 100.675 L1811.17 93.4304 L1811.18 86.1857 L1810.14 86.1857 L1810.15 93.4304 L1810.16 100.675 L1810.18 107.92 L1810.2 115.165 L1810.2 122.41 L1810.19 129.654 L1810.16 136.899 L1810.09 144.144 L1809.99 151.389 L1809.86 158.633 L1809.67 165.878 L1809.44 173.123 L1809.16 180.368 L1808.82 187.612 L1808.43 194.857 L1807.99 202.102 L1807.49 209.347 L1806.95 216.592 L1806.37 223.836 L1805.75 231.081 L1805.1 238.326 L1804.43 245.571 L1803.74 252.815 L1803.03 260.06 L1802.31 267.305 L1801.58 274.55 L1800.84 281.794 L1800.09 289.039 L1799.33 296.284 L1798.54 303.529 L1797.73 310.774 L1796.86 318.018 L1795.94 325.263 L1794.92 332.508 L1793.79 339.753 L1792.51 346.997 L1791.07 354.242 L1789.45 361.487 L1787.65 368.732 L1785.67 375.977 L1783.53 383.221 L1781.28 390.466 L1778.94 397.711 L1776.57 404.956 L1774.21 412.2 L1771.91 419.445 L1769.7 426.69 L1767.6 433.935 L1765.62 441.179 L1763.73 448.424 L1761.91 455.669 L1760.11 462.914 L1758.28 470.159 L1756.37 477.403 L1754.31 484.648 L1752.06 491.893 L1749.58 499.138 L1746.87 506.382 L1743.93 513.627 L1740.79 520.872 L1737.51 528.117 L1734.15 535.361 L1730.8 542.606 L1727.52 549.851 L1724.41 557.096 L1721.5 564.341 L1718.86 571.585 L1716.48 578.83 L1714.39 586.075 L1712.58 593.32 L1711.02 600.564 L1709.69 607.809 L1708.59 615.054 L1707.68 622.299 L1706.95 629.544 L1706.4 636.788 L1705.99 644.033 L1705.71 651.278 L1705.54 658.523 L1705.43 665.767 L1705.36 673.012 L1705.3 680.257 L1705.2 687.502 L1705.06 694.746 L1704.86 701.991 L1704.63 709.236 L1704.39 716.481 L1704.18 723.726 L1704.05 730.97 L1704.06 738.215 L1704.24 745.46 L1704.63 752.705 L1705.27 759.949 L1706.17 767.194 L1707.34 774.439 L1708.8 781.684 L1710.53 788.928 L1712.55 796.173 L1714.84 803.418 L1717.4 810.663 L1720.21 817.908 L1723.26 825.152 L1726.52 832.397 L1729.95 839.642 L1733.5 846.887 L1737.14 854.131 L1740.79 861.376 L1744.4 868.621 L1747.89 875.866 L1751.21 883.111 L1754.29 890.355 L1757.08 897.6 L1759.54 904.845 L1761.66 912.09 L1763.45 919.334 L1764.95 926.579 L1766.22 933.824 L1767.31 941.069 L1768.32 948.313 L1769.33 955.558 L1770.39 962.803 L1771.57 970.048 L1772.9 977.293 L1774.39 984.537 L1776.05 991.782 L1777.84 999.027 L1779.74 1006.27 L1781.69 1013.52 L1783.64 1020.76 L1785.57 1028.01 L1787.42 1035.25 L1789.18 1042.5 L1790.82 1049.74 L1792.33 1056.99 L1793.73 1064.23 L1795.02 1071.47 L1796.22 1078.72 L1797.35 1085.96 L1798.42 1093.21 L1799.47 1100.45 L1800.49 1107.7 L1801.5 1114.94 L1802.48 1122.19 L1803.45 1129.43 L1804.37 1136.68 L1805.24 1143.92 L1806.04 1151.17 L1806.77 1158.41 L1807.42 1165.66 L1807.97 1172.9 L1808.45 1180.15 L1808.85 1187.39 L1809.17 1194.64 L1812.15 1194.64  Z" fill="#ac8d18" fill-rule="evenodd" fill-opacity="1"></path>
<polyline clip-path="url(#clip042)" style="stroke:#000000; stroke-linecap:round; stroke-linejoin:round; stroke-width:4; stroke-opacity:1; fill:none" points="1812.15,1194.64 1812.47,1187.39 1812.87,1180.15 1813.35,1172.9 1813.9,1165.66 1814.55,1158.41 1815.28,1151.17 1816.08,1143.92 1816.95,1136.68 1817.87,1129.43 1818.83,1122.19 1819.82,1114.94 1820.83,1107.7 1821.85,1100.45 1822.89,1093.21 1823.97,1085.96 1825.1,1078.72 1826.3,1071.47 1827.59,1064.23 1828.99,1056.99 1830.5,1049.74 1832.14,1042.5 1833.9,1035.25 1835.75,1028.01 1837.67,1020.76 1839.63,1013.52 1841.58,1006.27 1843.48,999.027 1845.27,991.782 1846.93,984.537 1848.42,977.293 1849.75,970.048 1850.93,962.803 1851.99,955.558 1853,948.313 1854.01,941.069 1855.1,933.824 1856.37,926.579 1857.87,919.334 1859.66,912.09 1861.78,904.845 1864.24,897.6 1867.03,890.355 1870.11,883.111 1873.43,875.866 1876.92,868.621 1880.53,861.376 1884.18,854.131 1887.82,846.887 1891.37,839.642 1894.8,832.397 1898.06,825.152 1901.11,817.908 1903.92,810.663 1906.48,803.418 1908.77,796.173 1910.79,788.928 1912.52,781.684 1913.98,774.439 1915.15,767.194 1916.05,759.949 1916.69,752.705 1917.08,745.46 1917.26,738.215 1917.27,730.97 1917.14,723.726 1916.93,716.481 1916.69,709.236 1916.46,701.991 1916.26,694.746 1916.12,687.502 1916.02,680.257 1915.95,673.012 1915.89,665.767 1915.78,658.523 1915.6,651.278 1915.33,644.033 1914.92,636.788 1914.36,629.544 1913.64,622.299 1912.73,615.054 1911.63,607.809 1910.3,600.564 1908.74,593.32 1906.93,586.075 1904.84,578.83 1902.46,571.585 1899.82,564.341 1896.91,557.096 1893.8,549.851 1890.52,542.606 1887.17,535.361 1883.81,528.117 1880.53,520.872 1877.39,513.627 1874.45,506.382 1871.74,499.138 1869.26,491.893 1867.01,484.648 1864.95,477.403 1863.04,470.159 1861.21,462.914 1859.41,455.669 1857.59,448.424 1855.7,441.179 1853.71,433.935 1851.61,426.69 1849.41,419.445 1847.11,412.2 1844.75,404.956 1842.38,397.711 1840.04,390.466 1837.78,383.221 1835.65,375.977 1833.67,368.732 1831.87,361.487 1830.25,354.242 1828.81,346.997 1827.53,339.753 1826.4,332.508 1825.38,325.263 1824.46,318.018 1823.59,310.774 1822.78,303.529 1821.99,296.284 1821.23,289.039 1820.48,281.794 1819.74,274.55 1819.01,267.305 1818.29,260.06 1817.58,252.815 1816.89,245.571 1816.22,238.326 1815.57,231.081 1814.95,223.836 1814.37,216.592 1813.83,209.347 1813.33,202.102 1812.89,194.857 1812.5,187.612 1812.16,180.368 1811.88,173.123 1811.65,165.878 1811.46,158.633 1811.33,151.389 1811.23,144.144 1811.16,136.899 1811.13,129.654 1811.12,122.41 1811.12,115.165 1811.14,107.92 1811.16,100.675 1811.17,93.4304 1811.18,86.1857 1810.14,86.1857 1810.15,93.4304 1810.16,100.675 1810.18,107.92 1810.2,115.165 1810.2,122.41 1810.19,129.654 1810.16,136.899 1810.09,144.144 1809.99,151.389 1809.86,158.633 1809.67,165.878 1809.44,173.123 1809.16,180.368 1808.82,187.612 1808.43,194.857 1807.99,202.102 1807.49,209.347 1806.95,216.592 1806.37,223.836 1805.75,231.081 1805.1,238.326 1804.43,245.571 1803.74,252.815 1803.03,260.06 1802.31,267.305 1801.58,274.55 1800.84,281.794 1800.09,289.039 1799.33,296.284 1798.54,303.529 1797.73,310.774 1796.86,318.018 1795.94,325.263 1794.92,332.508 1793.79,339.753 1792.51,346.997 1791.07,354.242 1789.45,361.487 1787.65,368.732 1785.67,375.977 1783.53,383.221 1781.28,390.466 1778.94,397.711 1776.57,404.956 1774.21,412.2 1771.91,419.445 1769.7,426.69 1767.6,433.935 1765.62,441.179 1763.73,448.424 1761.91,455.669 1760.11,462.914 1758.28,470.159 1756.37,477.403 1754.31,484.648 1752.06,491.893 1749.58,499.138 1746.87,506.382 1743.93,513.627 1740.79,520.872 1737.51,528.117 1734.15,535.361 1730.8,542.606 1727.52,549.851 1724.41,557.096 1721.5,564.341 1718.86,571.585 1716.48,578.83 1714.39,586.075 1712.58,593.32 1711.02,600.564 1709.69,607.809 1708.59,615.054 1707.68,622.299 1706.95,629.544 1706.4,636.788 1705.99,644.033 1705.71,651.278 1705.54,658.523 1705.43,665.767 1705.36,673.012 1705.3,680.257 1705.2,687.502 1705.06,694.746 1704.86,701.991 1704.63,709.236 1704.39,716.481 1704.18,723.726 1704.05,730.97 1704.06,738.215 1704.24,745.46 1704.63,752.705 1705.27,759.949 1706.17,767.194 1707.34,774.439 1708.8,781.684 1710.53,788.928 1712.55,796.173 1714.84,803.418 1717.4,810.663 1720.21,817.908 1723.26,825.152 1726.52,832.397 1729.95,839.642 1733.5,846.887 1737.14,854.131 1740.79,861.376 1744.4,868.621 1747.89,875.866 1751.21,883.111 1754.29,890.355 1757.08,897.6 1759.54,904.845 1761.66,912.09 1763.45,919.334 1764.95,926.579 1766.22,933.824 1767.31,941.069 1768.32,948.313 1769.33,955.558 1770.39,962.803 1771.57,970.048 1772.9,977.293 1774.39,984.537 1776.05,991.782 1777.84,999.027 1779.74,1006.27 1781.69,1013.52 1783.64,1020.76 1785.57,1028.01 1787.42,1035.25 1789.18,1042.5 1790.82,1049.74 1792.33,1056.99 1793.73,1064.23 1795.02,1071.47 1796.22,1078.72 1797.35,1085.96 1798.42,1093.21 1799.47,1100.45 1800.49,1107.7 1801.5,1114.94 1802.48,1122.19 1803.45,1129.43 1804.37,1136.68 1805.24,1143.92 1806.04,1151.17 1806.77,1158.41 1807.42,1165.66 1807.97,1172.9 1808.45,1180.15 1808.85,1187.39 1809.17,1194.64 1812.15,1194.64 "></polyline>
<path clip-path="url(#clip042)" d="M2184.78 1248.48 L2184.85 1241.48 L2184.9 1234.48 L2184.95 1227.48 L2184.99 1220.48 L2185.04 1213.47 L2185.09 1206.47 L2185.16 1199.47 L2185.25 1192.47 L2185.37 1185.47 L2185.52 1178.47 L2185.72 1171.46 L2185.96 1164.46 L2186.27 1157.46 L2186.65 1150.46 L2187.12 1143.46 L2187.68 1136.46 L2188.34 1129.45 L2189.11 1122.45 L2189.99 1115.45 L2190.98 1108.45 L2192.06 1101.45 L2193.22 1094.45 L2194.45 1087.44 L2195.7 1080.44 L2196.97 1073.44 L2198.21 1066.44 L2199.42 1059.44 L2200.56 1052.44 L2201.64 1045.43 L2202.65 1038.43 L2203.6 1031.43 L2204.54 1024.43 L2205.48 1017.43 L2206.48 1010.43 L2207.59 1003.42 L2208.85 996.422 L2210.32 989.421 L2212.01 982.419 L2213.97 975.417 L2216.17 968.416 L2218.62 961.414 L2221.26 954.412 L2224.06 947.411 L2226.95 940.409 L2229.87 933.407 L2232.75 926.406 L2235.55 919.404 L2238.22 912.402 L2240.73 905.401 L2243.09 898.399 L2245.29 891.397 L2247.35 884.396 L2249.32 877.394 L2251.22 870.392 L2253.1 863.391 L2255 856.389 L2256.95 849.387 L2258.99 842.386 L2261.15 835.384 L2263.45 828.383 L2265.89 821.381 L2268.47 814.379 L2271.14 807.378 L2273.88 800.376 L2276.62 793.374 L2279.28 786.373 L2281.79 779.371 L2284.08 772.369 L2286.07 765.368 L2287.71 758.366 L2288.96 751.364 L2289.82 744.363 L2290.29 737.361 L2290.39 730.359 L2290.16 723.358 L2289.65 716.356 L2288.89 709.354 L2287.94 702.353 L2286.84 695.351 L2285.61 688.349 L2284.27 681.348 L2282.83 674.346 L2281.29 667.344 L2279.65 660.343 L2277.89 653.341 L2276 646.339 L2273.97 639.338 L2271.82 632.336 L2269.56 625.334 L2267.22 618.333 L2264.86 611.331 L2262.53 604.329 L2260.29 597.328 L2258.2 590.326 L2256.3 583.324 L2254.6 576.323 L2253.12 569.321 L2251.83 562.319 L2250.69 555.318 L2249.66 548.316 L2248.69 541.314 L2247.74 534.313 L2246.77 527.311 L2245.74 520.309 L2244.63 513.308 L2243.43 506.306 L2242.12 499.304 L2240.7 492.303 L2239.17 485.301 L2237.52 478.299 L2235.77 471.298 L2233.92 464.296 L2231.99 457.294 L2230 450.293 L2227.96 443.291 L2225.9 436.289 L2223.83 429.288 L2221.76 422.286 L2219.72 415.284 L2217.7 408.283 L2215.71 401.281 L2213.76 394.28 L2211.85 387.278 L2209.99 380.276 L2208.18 373.275 L2206.44 366.273 L2204.76 359.271 L2203.15 352.27 L2201.62 345.268 L2200.16 338.266 L2198.77 331.265 L2197.46 324.263 L2196.21 317.261 L2195.03 310.26 L2193.92 303.258 L2192.86 296.256 L2191.88 289.255 L2190.95 282.253 L2190.1 275.251 L2189.33 268.25 L2188.62 261.248 L2188 254.246 L2187.46 247.245 L2186.99 240.243 L2186.59 233.241 L2186.25 226.24 L2185.96 219.238 L2185.72 212.236 L2185.51 205.235 L2185.32 198.233 L2185.15 191.231 L2185 184.23 L2184.86 177.228 L2182.71 177.228 L2182.57 184.23 L2182.41 191.231 L2182.25 198.233 L2182.06 205.235 L2181.85 212.236 L2181.61 219.238 L2181.32 226.24 L2180.98 233.241 L2180.58 240.243 L2180.11 247.245 L2179.57 254.246 L2178.94 261.248 L2178.24 268.25 L2177.47 275.251 L2176.61 282.253 L2175.69 289.255 L2174.7 296.256 L2173.65 303.258 L2172.54 310.26 L2171.36 317.261 L2170.11 324.263 L2168.8 331.265 L2167.41 338.266 L2165.95 345.268 L2164.42 352.27 L2162.81 359.271 L2161.13 366.273 L2159.39 373.275 L2157.58 380.276 L2155.72 387.278 L2153.81 394.28 L2151.86 401.281 L2149.87 408.283 L2147.85 415.284 L2145.8 422.286 L2143.74 429.288 L2141.67 436.289 L2139.61 443.291 L2137.57 450.293 L2135.58 457.294 L2133.65 464.296 L2131.8 471.298 L2130.05 478.299 L2128.4 485.301 L2126.87 492.303 L2125.45 499.304 L2124.14 506.306 L2122.94 513.308 L2121.83 520.309 L2120.8 527.311 L2119.83 534.313 L2118.87 541.314 L2117.91 548.316 L2116.88 555.318 L2115.74 562.319 L2114.45 569.321 L2112.96 576.323 L2111.27 583.324 L2109.37 590.326 L2107.28 597.328 L2105.04 604.329 L2102.71 611.331 L2100.35 618.333 L2098.01 625.334 L2095.75 632.336 L2093.59 639.338 L2091.57 646.339 L2089.68 653.341 L2087.92 660.343 L2086.28 667.344 L2084.74 674.346 L2083.3 681.348 L2081.96 688.349 L2080.73 695.351 L2079.62 702.353 L2078.67 709.354 L2077.92 716.356 L2077.41 723.358 L2077.18 730.359 L2077.28 737.361 L2077.75 744.363 L2078.61 751.364 L2079.86 758.366 L2081.5 765.368 L2083.49 772.369 L2085.78 779.371 L2088.29 786.373 L2090.95 793.374 L2093.69 800.376 L2096.43 807.378 L2099.1 814.379 L2101.67 821.381 L2104.12 828.383 L2106.41 835.384 L2108.58 842.386 L2110.62 849.387 L2112.57 856.389 L2114.47 863.391 L2116.35 870.392 L2118.25 877.394 L2120.22 884.396 L2122.28 891.397 L2124.48 898.399 L2126.84 905.401 L2129.35 912.402 L2132.02 919.404 L2134.82 926.406 L2137.7 933.407 L2140.62 940.409 L2143.51 947.411 L2146.31 954.412 L2148.95 961.414 L2151.4 968.416 L2153.6 975.417 L2155.55 982.419 L2157.25 989.421 L2158.72 996.422 L2159.98 1003.42 L2161.09 1010.43 L2162.09 1017.43 L2163.03 1024.43 L2163.96 1031.43 L2164.92 1038.43 L2165.93 1045.43 L2167.01 1052.44 L2168.15 1059.44 L2169.36 1066.44 L2170.6 1073.44 L2171.87 1080.44 L2173.12 1087.44 L2174.34 1094.45 L2175.51 1101.45 L2176.59 1108.45 L2177.58 1115.45 L2178.46 1122.45 L2179.23 1129.45 L2179.89 1136.46 L2180.45 1143.46 L2180.91 1150.46 L2181.3 1157.46 L2181.61 1164.46 L2181.85 1171.46 L2182.05 1178.47 L2182.2 1185.47 L2182.32 1192.47 L2182.41 1199.47 L2182.48 1206.47 L2182.53 1213.47 L2182.58 1220.48 L2182.62 1227.48 L2182.67 1234.48 L2182.72 1241.48 L2182.79 1248.48 L2184.78 1248.48  Z" fill="#00a9ad" fill-rule="evenodd" fill-opacity="1"></path>
<polyline clip-path="url(#clip042)" style="stroke:#000000; stroke-linecap:round; stroke-linejoin:round; stroke-width:4; stroke-opacity:1; fill:none" points="2184.78,1248.48 2184.85,1241.48 2184.9,1234.48 2184.95,1227.48 2184.99,1220.48 2185.04,1213.47 2185.09,1206.47 2185.16,1199.47 2185.25,1192.47 2185.37,1185.47 2185.52,1178.47 2185.72,1171.46 2185.96,1164.46 2186.27,1157.46 2186.65,1150.46 2187.12,1143.46 2187.68,1136.46 2188.34,1129.45 2189.11,1122.45 2189.99,1115.45 2190.98,1108.45 2192.06,1101.45 2193.22,1094.45 2194.45,1087.44 2195.7,1080.44 2196.97,1073.44 2198.21,1066.44 2199.42,1059.44 2200.56,1052.44 2201.64,1045.43 2202.65,1038.43 2203.6,1031.43 2204.54,1024.43 2205.48,1017.43 2206.48,1010.43 2207.59,1003.42 2208.85,996.422 2210.32,989.421 2212.01,982.419 2213.97,975.417 2216.17,968.416 2218.62,961.414 2221.26,954.412 2224.06,947.411 2226.95,940.409 2229.87,933.407 2232.75,926.406 2235.55,919.404 2238.22,912.402 2240.73,905.401 2243.09,898.399 2245.29,891.397 2247.35,884.396 2249.32,877.394 2251.22,870.392 2253.1,863.391 2255,856.389 2256.95,849.387 2258.99,842.386 2261.15,835.384 2263.45,828.383 2265.89,821.381 2268.47,814.379 2271.14,807.378 2273.88,800.376 2276.62,793.374 2279.28,786.373 2281.79,779.371 2284.08,772.369 2286.07,765.368 2287.71,758.366 2288.96,751.364 2289.82,744.363 2290.29,737.361 2290.39,730.359 2290.16,723.358 2289.65,716.356 2288.89,709.354 2287.94,702.353 2286.84,695.351 2285.61,688.349 2284.27,681.348 2282.83,674.346 2281.29,667.344 2279.65,660.343 2277.89,653.341 2276,646.339 2273.97,639.338 2271.82,632.336 2269.56,625.334 2267.22,618.333 2264.86,611.331 2262.53,604.329 2260.29,597.328 2258.2,590.326 2256.3,583.324 2254.6,576.323 2253.12,569.321 2251.83,562.319 2250.69,555.318 2249.66,548.316 2248.69,541.314 2247.74,534.313 2246.77,527.311 2245.74,520.309 2244.63,513.308 2243.43,506.306 2242.12,499.304 2240.7,492.303 2239.17,485.301 2237.52,478.299 2235.77,471.298 2233.92,464.296 2231.99,457.294 2230,450.293 2227.96,443.291 2225.9,436.289 2223.83,429.288 2221.76,422.286 2219.72,415.284 2217.7,408.283 2215.71,401.281 2213.76,394.28 2211.85,387.278 2209.99,380.276 2208.18,373.275 2206.44,366.273 2204.76,359.271 2203.15,352.27 2201.62,345.268 2200.16,338.266 2198.77,331.265 2197.46,324.263 2196.21,317.261 2195.03,310.26 2193.92,303.258 2192.86,296.256 2191.88,289.255 2190.95,282.253 2190.1,275.251 2189.33,268.25 2188.62,261.248 2188,254.246 2187.46,247.245 2186.99,240.243 2186.59,233.241 2186.25,226.24 2185.96,219.238 2185.72,212.236 2185.51,205.235 2185.32,198.233 2185.15,191.231 2185,184.23 2184.86,177.228 2182.71,177.228 2182.57,184.23 2182.41,191.231 2182.25,198.233 2182.06,205.235 2181.85,212.236 2181.61,219.238 2181.32,226.24 2180.98,233.241 2180.58,240.243 2180.11,247.245 2179.57,254.246 2178.94,261.248 2178.24,268.25 2177.47,275.251 2176.61,282.253 2175.69,289.255 2174.7,296.256 2173.65,303.258 2172.54,310.26 2171.36,317.261 2170.11,324.263 2168.8,331.265 2167.41,338.266 2165.95,345.268 2164.42,352.27 2162.81,359.271 2161.13,366.273 2159.39,373.275 2157.58,380.276 2155.72,387.278 2153.81,394.28 2151.86,401.281 2149.87,408.283 2147.85,415.284 2145.8,422.286 2143.74,429.288 2141.67,436.289 2139.61,443.291 2137.57,450.293 2135.58,457.294 2133.65,464.296 2131.8,471.298 2130.05,478.299 2128.4,485.301 2126.87,492.303 2125.45,499.304 2124.14,506.306 2122.94,513.308 2121.83,520.309 2120.8,527.311 2119.83,534.313 2118.87,541.314 2117.91,548.316 2116.88,555.318 2115.74,562.319 2114.45,569.321 2112.96,576.323 2111.27,583.324 2109.37,590.326 2107.28,597.328 2105.04,604.329 2102.71,611.331 2100.35,618.333 2098.01,625.334 2095.75,632.336 2093.59,639.338 2091.57,646.339 2089.68,653.341 2087.92,660.343 2086.28,667.344 2084.74,674.346 2083.3,681.348 2081.96,688.349 2080.73,695.351 2079.62,702.353 2078.67,709.354 2077.92,716.356 2077.41,723.358 2077.18,730.359 2077.28,737.361 2077.75,744.363 2078.61,751.364 2079.86,758.366 2081.5,765.368 2083.49,772.369 2085.78,779.371 2088.29,786.373 2090.95,793.374 2093.69,800.376 2096.43,807.378 2099.1,814.379 2101.67,821.381 2104.12,828.383 2106.41,835.384 2108.58,842.386 2110.62,849.387 2112.57,856.389 2114.47,863.391 2116.35,870.392 2118.25,877.394 2120.22,884.396 2122.28,891.397 2124.48,898.399 2126.84,905.401 2129.35,912.402 2132.02,919.404 2134.82,926.406 2137.7,933.407 2140.62,940.409 2143.51,947.411 2146.31,954.412 2148.95,961.414 2151.4,968.416 2153.6,975.417 2155.55,982.419 2157.25,989.421 2158.72,996.422 2159.98,1003.42 2161.09,1010.43 2162.09,1017.43 2163.03,1024.43 2163.96,1031.43 2164.92,1038.43 2165.93,1045.43 2167.01,1052.44 2168.15,1059.44 2169.36,1066.44 2170.6,1073.44 2171.87,1080.44 2173.12,1087.44 2174.34,1094.45 2175.51,1101.45 2176.59,1108.45 2177.58,1115.45 2178.46,1122.45 2179.23,1129.45 2179.89,1136.46 2180.45,1143.46 2180.91,1150.46 2181.3,1157.46 2181.61,1164.46 2181.85,1171.46 2182.05,1178.47 2182.2,1185.47 2182.32,1192.47 2182.41,1199.47 2182.48,1206.47 2182.53,1213.47 2182.58,1220.48 2182.62,1227.48 2182.67,1234.48 2182.72,1241.48 2182.79,1248.48 2184.78,1248.48 "></polyline>
</svg>