<svg xmlns="http://www.w3.org/2000/svg" xmlns:xlink="http://www.w3.org/1999/xlink" width="600" height="400" viewBox="0 0 2400 1600">
<defs>
  <clipPath id="clip080">
    <rect x="0" y="0" width="2400" height="1600"></rect>
  </clipPath>
</defs>
<path clip-path="url(#clip080)" d="M0 1600 L2400 1600 L2400 0 L0 0  Z" fill="#ffffff" fill-rule="evenodd" fill-opacity="1"></path>
<defs>
  <clipPath id="clip081">
    <rect x="480" y="0" width="1681" height="1600"></rect>
  </clipPath>
</defs>
<path clip-path="url(#clip080)" d="M156.598 1423.18 L2352.76 1423.18 L2352.76 47.2441 L156.598 47.2441  Z" fill="#ffffff" fill-rule="evenodd" fill-opacity="1"></path>
<defs>
  <clipPath id="clip082">
    <rect x="156" y="47" width="2197" height="1377"></rect>
  </clipPath>
</defs>
<polyline clip-path="url(#clip082)" style="stroke:#000000; stroke-linecap:round; stroke-linejoin:round; stroke-width:2; stroke-opacity:0.1; fill:none" points="356.728,1423.18 356.728,47.2441 "></polyline>
<polyline clip-path="url(#clip082)" style="stroke:#000000; stroke-linecap:round; stroke-linejoin:round; stroke-width:2; stroke-opacity:0.1; fill:none" points="787.992,1423.18 787.992,47.2441 "></polyline>
<polyline clip-path="url(#clip082)" style="stroke:#000000; stroke-linecap:round; stroke-linejoin:round; stroke-width:2; stroke-opacity:0.1; fill:none" points="1219.26,1423.18 1219.26,47.2441 "></polyline>
<polyline clip-path="url(#clip082)" style="stroke:#000000; stroke-linecap:round; stroke-linejoin:round; stroke-width:2; stroke-opacity:0.1; fill:none" points="1650.52,1423.18 1650.52,47.2441 "></polyline>
<polyline clip-path="url(#clip082)" style="stroke:#000000; stroke-linecap:round; stroke-linejoin:round; stroke-width:2; stroke-opacity:0.1; fill:none" points="2081.78,1423.18 2081.78,47.2441 "></polyline>
<polyline clip-path="url(#clip080)" style="stroke:#000000; stroke-linecap:round; stroke-linejoin:round; stroke-width:4; stroke-opacity:1; fill:none" points="156.598,1423.18 2352.76,1423.18 "></polyline>
<polyline clip-path="url(#clip080)" style="stroke:#000000; stroke-linecap:round; stroke-linejoin:round; stroke-width:4; stroke-opacity:1; fill:none" points="356.728,1423.18 356.728,1404.28 "></polyline>
<polyline clip-path="url(#clip080)" style="stroke:#000000; stroke-linecap:round; stroke-linejoin:round; stroke-width:4; stroke-opacity:1; fill:none" points="787.992,1423.18 787.992,1404.28 "></polyline>
<polyline clip-path="url(#clip080)" style="stroke:#000000; stroke-linecap:round; stroke-linejoin:round; stroke-width:4; stroke-opacity:1; fill:none" points="1219.26,1423.18 1219.26,1404.28 "></polyline>
<polyline clip-path="url(#clip080)" style="stroke:#000000; stroke-linecap:round; stroke-linejoin:round; stroke-width:4; stroke-opacity:1; fill:none" points="1650.52,1423.18 1650.52,1404.28 "></polyline>
<polyline clip-path="url(#clip080)" style="stroke:#000000; stroke-linecap:round; stroke-linejoin:round; stroke-width:4; stroke-opacity:1; fill:none" points="2081.78,1423.18 2081.78,1404.28 "></polyline>
<path clip-path="url(#clip080)" d="M325.628 1468.75 L355.304 1468.75 L355.304 1472.69 L325.628 1472.69 L325.628 1468.75 Z" fill="#000000" fill-rule="nonzero" fill-opacity="1"></path><path clip-path="url(#clip080)" d="M378.244 1455.09 L366.438 1473.54 L378.244 1473.54 L378.244 1455.09 M377.017 1451.02 L382.897 1451.02 L382.897 1473.54 L387.827 1473.54 L387.827 1477.43 L382.897 1477.43 L382.897 1485.58 L378.244 1485.58 L378.244 1477.43 L362.642 1477.43 L362.642 1472.92 L377.017 1451.02 Z" fill="#000000" fill-rule="nonzero" fill-opacity="1"></path><path clip-path="url(#clip080)" d="M757.934 1468.75 L787.61 1468.75 L787.61 1472.69 L757.934 1472.69 L757.934 1468.75 Z" fill="#000000" fill-rule="nonzero" fill-opacity="1"></path><path clip-path="url(#clip080)" d="M801.73 1481.64 L818.05 1481.64 L818.05 1485.58 L796.105 1485.58 L796.105 1481.64 Q798.767 1478.89 803.351 1474.26 Q807.957 1469.61 809.138 1468.27 Q811.383 1465.74 812.263 1464.01 Q813.165 1462.25 813.165 1460.56 Q813.165 1457.8 811.221 1456.07 Q809.3 1454.33 806.198 1454.33 Q803.999 1454.33 801.545 1455.09 Q799.115 1455.86 796.337 1457.41 L796.337 1452.69 Q799.161 1451.55 801.615 1450.97 Q804.068 1450.39 806.105 1450.39 Q811.476 1450.39 814.67 1453.08 Q817.865 1455.77 817.865 1460.26 Q817.865 1462.39 817.054 1464.31 Q816.267 1466.2 814.161 1468.8 Q813.582 1469.47 810.48 1472.69 Q807.378 1475.88 801.73 1481.64 Z" fill="#000000" fill-rule="nonzero" fill-opacity="1"></path><path clip-path="url(#clip080)" d="M1219.26 1454.1 Q1215.65 1454.1 1213.82 1457.66 Q1212.01 1461.2 1212.01 1468.33 Q1212.01 1475.44 1213.82 1479.01 Q1215.65 1482.55 1219.26 1482.55 Q1222.89 1482.55 1224.7 1479.01 Q1226.52 1475.44 1226.52 1468.33 Q1226.52 1461.2 1224.7 1457.66 Q1222.89 1454.1 1219.26 1454.1 M1219.26 1450.39 Q1225.07 1450.39 1228.12 1455 Q1231.2 1459.58 1231.2 1468.33 Q1231.2 1477.06 1228.12 1481.67 Q1225.07 1486.25 1219.26 1486.25 Q1213.45 1486.25 1210.37 1481.67 Q1207.31 1477.06 1207.31 1468.33 Q1207.31 1459.58 1210.37 1455 Q1213.45 1450.39 1219.26 1450.39 Z" fill="#000000" fill-rule="nonzero" fill-opacity="1"></path><path clip-path="url(#clip080)" d="M1645.17 1481.64 L1661.49 1481.64 L1661.49 1485.58 L1639.55 1485.58 L1639.55 1481.64 Q1642.21 1478.89 1646.79 1474.26 Q1651.4 1469.61 1652.58 1468.27 Q1654.83 1465.74 1655.71 1464.01 Q1656.61 1462.25 1656.61 1460.56 Q1656.61 1457.8 1654.66 1456.07 Q1652.74 1454.33 1649.64 1454.33 Q1647.44 1454.33 1644.99 1455.09 Q1642.56 1455.86 1639.78 1457.41 L1639.78 1452.69 Q1642.6 1451.55 1645.06 1450.97 Q1647.51 1450.39 1649.55 1450.39 Q1654.92 1450.39 1658.11 1453.08 Q1661.31 1455.77 1661.31 1460.26 Q1661.31 1462.39 1660.5 1464.31 Q1659.71 1466.2 1657.6 1468.8 Q1657.03 1469.47 1653.92 1472.69 Q1650.82 1475.88 1645.17 1481.64 Z" fill="#000000" fill-rule="nonzero" fill-opacity="1"></path><path clip-path="url(#clip080)" d="M2084.79 1455.09 L2072.99 1473.54 L2084.79 1473.54 L2084.79 1455.09 M2083.57 1451.02 L2089.45 1451.02 L2089.45 1473.54 L2094.38 1473.54 L2094.38 1477.43 L2089.45 1477.43 L2089.45 1485.58 L2084.79 1485.58 L2084.79 1477.43 L2069.19 1477.43 L2069.19 1472.92 L2083.57 1451.02 Z" fill="#000000" fill-rule="nonzero" fill-opacity="1"></path><path clip-path="url(#clip080)" d="M1016.39 1525.81 L1016.39 1543.66 L1024.48 1543.66 Q1028.97 1543.66 1031.42 1541.34 Q1033.87 1539.02 1033.87 1534.72 Q1033.87 1530.45 1031.42 1528.13 Q1028.97 1525.81 1024.48 1525.81 L1016.39 1525.81 M1009.96 1520.52 L1024.48 1520.52 Q1032.47 1520.52 1036.54 1524.15 Q1040.65 1527.75 1040.65 1534.72 Q1040.65 1541.75 1036.54 1545.35 Q1032.47 1548.95 1024.48 1548.95 L1016.39 1548.95 L1016.39 1568.04 L1009.96 1568.04 L1009.96 1520.52 Z" fill="#000000" fill-rule="nonzero" fill-opacity="1"></path><path clip-path="url(#clip080)" d="M1060.51 1536.5 Q1055.8 1536.5 1053.06 1540.19 Q1050.32 1543.85 1050.32 1550.25 Q1050.32 1556.65 1053.03 1560.34 Q1055.76 1564 1060.51 1564 Q1065.19 1564 1067.92 1560.31 Q1070.66 1556.62 1070.66 1550.25 Q1070.66 1543.92 1067.92 1540.23 Q1065.19 1536.5 1060.51 1536.5 M1060.51 1531.54 Q1068.15 1531.54 1072.51 1536.5 Q1076.87 1541.47 1076.87 1550.25 Q1076.87 1559 1072.51 1564 Q1068.15 1568.97 1060.51 1568.97 Q1052.84 1568.97 1048.48 1564 Q1044.15 1559 1044.15 1550.25 Q1044.15 1541.47 1048.48 1536.5 Q1052.84 1531.54 1060.51 1531.54 Z" fill="#000000" fill-rule="nonzero" fill-opacity="1"></path><path clip-path="url(#clip080)" d="M1109.3 1533.45 L1109.3 1538.98 Q1106.82 1537.71 1104.14 1537.07 Q1101.47 1536.44 1098.61 1536.44 Q1094.25 1536.44 1092.05 1537.77 Q1089.88 1539.11 1089.88 1541.79 Q1089.88 1543.82 1091.44 1545 Q1093 1546.15 1097.71 1547.2 L1099.72 1547.64 Q1105.96 1548.98 1108.57 1551.43 Q1111.21 1553.85 1111.21 1558.21 Q1111.21 1563.17 1107.26 1566.07 Q1103.35 1568.97 1096.47 1568.97 Q1093.61 1568.97 1090.49 1568.39 Q1087.4 1567.85 1083.96 1566.74 L1083.96 1560.69 Q1087.21 1562.38 1090.36 1563.24 Q1093.51 1564.07 1096.6 1564.07 Q1100.74 1564.07 1102.97 1562.66 Q1105.19 1561.23 1105.19 1558.65 Q1105.19 1556.27 1103.57 1554.99 Q1101.98 1553.72 1096.54 1552.54 L1094.5 1552.07 Q1089.06 1550.92 1086.64 1548.56 Q1084.22 1546.18 1084.22 1542.04 Q1084.22 1537.01 1087.78 1534.27 Q1091.35 1531.54 1097.91 1531.54 Q1101.15 1531.54 1104.02 1532.01 Q1106.88 1532.49 1109.3 1533.45 Z" fill="#000000" fill-rule="nonzero" fill-opacity="1"></path><path clip-path="url(#clip080)" d="M1126.33 1522.27 L1126.33 1532.4 L1138.39 1532.4 L1138.39 1536.95 L1126.33 1536.95 L1126.33 1556.3 Q1126.33 1560.66 1127.51 1561.9 Q1128.72 1563.14 1132.38 1563.14 L1138.39 1563.14 L1138.39 1568.04 L1132.38 1568.04 Q1125.6 1568.04 1123.02 1565.53 Q1120.44 1562.98 1120.44 1556.3 L1120.44 1536.95 L1116.14 1536.95 L1116.14 1532.4 L1120.44 1532.4 L1120.44 1522.27 L1126.33 1522.27 Z" fill="#000000" fill-rule="nonzero" fill-opacity="1"></path><path clip-path="url(#clip080)" d="M1176.59 1548.76 L1176.59 1551.62 L1149.66 1551.62 Q1150.04 1557.67 1153.29 1560.85 Q1156.57 1564 1162.39 1564 Q1165.76 1564 1168.92 1563.17 Q1172.1 1562.35 1175.22 1560.69 L1175.22 1566.23 Q1172.07 1567.57 1168.76 1568.27 Q1165.45 1568.97 1162.04 1568.97 Q1153.51 1568.97 1148.51 1564 Q1143.55 1559.04 1143.55 1550.57 Q1143.55 1541.82 1148.26 1536.69 Q1153 1531.54 1161.02 1531.54 Q1168.21 1531.54 1172.38 1536.18 Q1176.59 1540.8 1176.59 1548.76 M1170.73 1547.04 Q1170.67 1542.23 1168.02 1539.37 Q1165.41 1536.5 1161.09 1536.5 Q1156.18 1536.5 1153.22 1539.27 Q1150.3 1542.04 1149.85 1547.07 L1170.73 1547.04 Z" fill="#000000" fill-rule="nonzero" fill-opacity="1"></path><path clip-path="url(#clip080)" d="M1206.85 1537.87 Q1205.87 1537.3 1204.69 1537.04 Q1203.54 1536.76 1202.14 1536.76 Q1197.18 1536.76 1194.51 1540 Q1191.86 1543.22 1191.86 1549.27 L1191.86 1568.04 L1185.98 1568.04 L1185.98 1532.4 L1191.86 1532.4 L1191.86 1537.93 Q1193.71 1534.69 1196.67 1533.13 Q1199.63 1531.54 1203.86 1531.54 Q1204.47 1531.54 1205.2 1531.63 Q1205.93 1531.7 1206.82 1531.85 L1206.85 1537.87 Z" fill="#000000" fill-rule="nonzero" fill-opacity="1"></path><path clip-path="url(#clip080)" d="M1213 1532.4 L1218.85 1532.4 L1218.85 1568.04 L1213 1568.04 L1213 1532.4 M1213 1518.52 L1218.85 1518.52 L1218.85 1525.93 L1213 1525.93 L1213 1518.52 Z" fill="#000000" fill-rule="nonzero" fill-opacity="1"></path><path clip-path="url(#clip080)" d="M1244.92 1536.5 Q1240.21 1536.5 1237.47 1540.19 Q1234.74 1543.85 1234.74 1550.25 Q1234.74 1556.65 1237.44 1560.34 Q1240.18 1564 1244.92 1564 Q1249.6 1564 1252.34 1560.31 Q1255.07 1556.62 1255.07 1550.25 Q1255.07 1543.92 1252.34 1540.23 Q1249.6 1536.5 1244.92 1536.5 M1244.92 1531.54 Q1252.56 1531.54 1256.92 1536.5 Q1261.28 1541.47 1261.28 1550.25 Q1261.28 1559 1256.92 1564 Q1252.56 1568.97 1244.92 1568.97 Q1237.25 1568.97 1232.89 1564 Q1228.56 1559 1228.56 1550.25 Q1228.56 1541.47 1232.89 1536.5 Q1237.25 1531.54 1244.92 1531.54 Z" fill="#000000" fill-rule="nonzero" fill-opacity="1"></path><path clip-path="url(#clip080)" d="M1291.65 1537.87 Q1290.66 1537.3 1289.48 1537.04 Q1288.34 1536.76 1286.94 1536.76 Q1281.97 1536.76 1279.3 1540 Q1276.65 1543.22 1276.65 1549.27 L1276.65 1568.04 L1270.77 1568.04 L1270.77 1532.4 L1276.65 1532.4 L1276.65 1537.93 Q1278.5 1534.69 1281.46 1533.13 Q1284.42 1531.54 1288.65 1531.54 Q1289.26 1531.54 1289.99 1531.63 Q1290.72 1531.7 1291.61 1531.85 L1291.65 1537.87 Z" fill="#000000" fill-rule="nonzero" fill-opacity="1"></path><path clip-path="url(#clip080)" d="M1318.76 1520.52 L1348.81 1520.52 L1348.81 1525.93 L1325.19 1525.93 L1325.19 1540 L1347.82 1540 L1347.82 1545.41 L1325.19 1545.41 L1325.19 1562.63 L1349.38 1562.63 L1349.38 1568.04 L1318.76 1568.04 L1318.76 1520.52 Z" fill="#000000" fill-rule="nonzero" fill-opacity="1"></path><path clip-path="url(#clip080)" d="M1377.74 1518.52 L1377.74 1523.39 L1372.14 1523.39 Q1368.99 1523.39 1367.75 1524.66 Q1366.54 1525.93 1366.54 1529.24 L1366.54 1532.4 L1376.18 1532.4 L1376.18 1536.95 L1366.54 1536.95 L1366.54 1568.04 L1360.65 1568.04 L1360.65 1536.95 L1355.05 1536.95 L1355.05 1532.4 L1360.65 1532.4 L1360.65 1529.91 Q1360.65 1523.96 1363.42 1521.26 Q1366.19 1518.52 1372.2 1518.52 L1377.74 1518.52 Z" fill="#000000" fill-rule="nonzero" fill-opacity="1"></path><path clip-path="url(#clip080)" d="M1400.69 1518.52 L1400.69 1523.39 L1395.09 1523.39 Q1391.94 1523.39 1390.7 1524.66 Q1389.49 1525.93 1389.49 1529.24 L1389.49 1532.4 L1399.13 1532.4 L1399.13 1536.95 L1389.49 1536.95 L1389.49 1568.04 L1383.6 1568.04 L1383.6 1536.95 L1378 1536.95 L1378 1532.4 L1383.6 1532.4 L1383.6 1529.91 Q1383.6 1523.96 1386.37 1521.26 Q1389.14 1518.52 1395.15 1518.52 L1400.69 1518.52 Z" fill="#000000" fill-rule="nonzero" fill-opacity="1"></path><path clip-path="url(#clip080)" d="M1436.08 1548.76 L1436.08 1551.62 L1409.16 1551.62 Q1409.54 1557.67 1412.79 1560.85 Q1416.06 1564 1421.89 1564 Q1425.26 1564 1428.41 1563.17 Q1431.6 1562.35 1434.72 1560.69 L1434.72 1566.23 Q1431.56 1567.57 1428.25 1568.27 Q1424.94 1568.97 1421.54 1568.97 Q1413.01 1568.97 1408.01 1564 Q1403.05 1559.04 1403.05 1550.57 Q1403.05 1541.82 1407.76 1536.69 Q1412.5 1531.54 1420.52 1531.54 Q1427.71 1531.54 1431.88 1536.18 Q1436.08 1540.8 1436.08 1548.76 M1430.23 1547.04 Q1430.16 1542.23 1427.52 1539.37 Q1424.91 1536.5 1420.58 1536.5 Q1415.68 1536.5 1412.72 1539.27 Q1409.79 1542.04 1409.35 1547.07 L1430.23 1547.04 Z" fill="#000000" fill-rule="nonzero" fill-opacity="1"></path><path clip-path="url(#clip080)" d="M1471.35 1533.76 L1471.35 1539.24 Q1468.87 1537.87 1466.35 1537.2 Q1463.87 1536.5 1461.32 1536.5 Q1455.63 1536.5 1452.48 1540.13 Q1449.32 1543.73 1449.32 1550.25 Q1449.32 1556.78 1452.48 1560.4 Q1455.63 1564 1461.32 1564 Q1463.87 1564 1466.35 1563.33 Q1468.87 1562.63 1471.35 1561.26 L1471.35 1566.68 Q1468.9 1567.82 1466.26 1568.39 Q1463.65 1568.97 1460.69 1568.97 Q1452.63 1568.97 1447.89 1563.91 Q1443.15 1558.85 1443.15 1550.25 Q1443.15 1541.53 1447.92 1536.53 Q1452.73 1531.54 1461.07 1531.54 Q1463.77 1531.54 1466.35 1532.11 Q1468.93 1532.65 1471.35 1533.76 Z" fill="#000000" fill-rule="nonzero" fill-opacity="1"></path><path clip-path="url(#clip080)" d="M1487.33 1522.27 L1487.33 1532.4 L1499.39 1532.4 L1499.39 1536.95 L1487.33 1536.95 L1487.33 1556.3 Q1487.33 1560.66 1488.51 1561.9 Q1489.71 1563.14 1493.38 1563.14 L1499.39 1563.14 L1499.39 1568.04 L1493.38 1568.04 Q1486.6 1568.04 1484.02 1565.53 Q1481.44 1562.98 1481.44 1556.3 L1481.44 1536.95 L1477.14 1536.95 L1477.14 1532.4 L1481.44 1532.4 L1481.44 1522.27 L1487.33 1522.27 Z" fill="#000000" fill-rule="nonzero" fill-opacity="1"></path><polyline clip-path="url(#clip082)" style="stroke:#000000; stroke-linecap:round; stroke-linejoin:round; stroke-width:2; stroke-opacity:0.1; fill:none" points="156.598,1384.24 2352.76,1384.24 "></polyline>
<polyline clip-path="url(#clip082)" style="stroke:#000000; stroke-linecap:round; stroke-linejoin:round; stroke-width:2; stroke-opacity:0.1; fill:none" points="156.598,1051 2352.76,1051 "></polyline>
<polyline clip-path="url(#clip082)" style="stroke:#000000; stroke-linecap:round; stroke-linejoin:round; stroke-width:2; stroke-opacity:0.1; fill:none" points="156.598,717.76 2352.76,717.76 "></polyline>
<polyline clip-path="url(#clip082)" style="stroke:#000000; stroke-linecap:round; stroke-linejoin:round; stroke-width:2; stroke-opacity:0.1; fill:none" points="156.598,384.519 2352.76,384.519 "></polyline>
<polyline clip-path="url(#clip082)" style="stroke:#000000; stroke-linecap:round; stroke-linejoin:round; stroke-width:2; stroke-opacity:0.1; fill:none" points="156.598,51.2788 2352.76,51.2788 "></polyline>
<polyline clip-path="url(#clip080)" style="stroke:#000000; stroke-linecap:round; stroke-linejoin:round; stroke-width:4; stroke-opacity:1; fill:none" points="156.598,1423.18 156.598,47.2441 "></polyline>
<polyline clip-path="url(#clip080)" style="stroke:#000000; stroke-linecap:round; stroke-linejoin:round; stroke-width:4; stroke-opacity:1; fill:none" points="156.598,1384.24 175.496,1384.24 "></polyline>
<polyline clip-path="url(#clip080)" style="stroke:#000000; stroke-linecap:round; stroke-linejoin:round; stroke-width:4; stroke-opacity:1; fill:none" points="156.598,1051 175.496,1051 "></polyline>
<polyline clip-path="url(#clip080)" style="stroke:#000000; stroke-linecap:round; stroke-linejoin:round; stroke-width:4; stroke-opacity:1; fill:none" points="156.598,717.76 175.496,717.76 "></polyline>
<polyline clip-path="url(#clip080)" style="stroke:#000000; stroke-linecap:round; stroke-linejoin:round; stroke-width:4; stroke-opacity:1; fill:none" points="156.598,384.519 175.496,384.519 "></polyline>
<polyline clip-path="url(#clip080)" style="stroke:#000000; stroke-linecap:round; stroke-linejoin:round; stroke-width:4; stroke-opacity:1; fill:none" points="156.598,51.2788 175.496,51.2788 "></polyline>
<path clip-path="url(#clip080)" d="M63.4226 1370.04 Q59.8115 1370.04 57.9828 1373.6 Q56.1773 1377.15 56.1773 1384.28 Q56.1773 1391.38 57.9828 1394.95 Q59.8115 1398.49 63.4226 1398.49 Q67.0569 1398.49 68.8624 1394.95 Q70.6911 1391.38 70.6911 1384.28 Q70.6911 1377.15 68.8624 1373.6 Q67.0569 1370.04 63.4226 1370.04 M63.4226 1366.34 Q69.2328 1366.34 72.2883 1370.94 Q75.367 1375.53 75.367 1384.28 Q75.367 1393 72.2883 1397.61 Q69.2328 1402.19 63.4226 1402.19 Q57.6125 1402.19 54.5338 1397.61 Q51.4782 1393 51.4782 1384.28 Q51.4782 1375.53 54.5338 1370.94 Q57.6125 1366.34 63.4226 1366.34 Z" fill="#000000" fill-rule="nonzero" fill-opacity="1"></path><path clip-path="url(#clip080)" d="M83.5845 1395.64 L88.4688 1395.64 L88.4688 1401.52 L83.5845 1401.52 L83.5845 1395.64 Z" fill="#000000" fill-rule="nonzero" fill-opacity="1"></path><path clip-path="url(#clip080)" d="M108.654 1370.04 Q105.043 1370.04 103.214 1373.6 Q101.409 1377.15 101.409 1384.28 Q101.409 1391.38 103.214 1394.95 Q105.043 1398.49 108.654 1398.49 Q112.288 1398.49 114.094 1394.95 Q115.922 1391.38 115.922 1384.28 Q115.922 1377.15 114.094 1373.6 Q112.288 1370.04 108.654 1370.04 M108.654 1366.34 Q114.464 1366.34 117.52 1370.94 Q120.598 1375.53 120.598 1384.28 Q120.598 1393 117.52 1397.61 Q114.464 1402.19 108.654 1402.19 Q102.844 1402.19 99.765 1397.61 Q96.7095 1393 96.7095 1384.28 Q96.7095 1375.53 99.765 1370.94 Q102.844 1366.34 108.654 1366.34 Z" fill="#000000" fill-rule="nonzero" fill-opacity="1"></path><path clip-path="url(#clip080)" d="M64.6495 1036.8 Q61.0384 1036.8 59.2097 1040.36 Q57.4041 1043.91 57.4041 1051.04 Q57.4041 1058.14 59.2097 1061.71 Q61.0384 1065.25 64.6495 1065.25 Q68.2837 1065.25 70.0892 1061.71 Q71.9179 1058.14 71.9179 1051.04 Q71.9179 1043.91 70.0892 1040.36 Q68.2837 1036.8 64.6495 1036.8 M64.6495 1033.1 Q70.4596 1033.1 73.5152 1037.7 Q76.5938 1042.29 76.5938 1051.04 Q76.5938 1059.76 73.5152 1064.37 Q70.4596 1068.95 64.6495 1068.95 Q58.8393 1068.95 55.7606 1064.37 Q52.7051 1059.76 52.7051 1051.04 Q52.7051 1042.29 55.7606 1037.7 Q58.8393 1033.1 64.6495 1033.1 Z" fill="#000000" fill-rule="nonzero" fill-opacity="1"></path><path clip-path="url(#clip080)" d="M84.8114 1062.4 L89.6956 1062.4 L89.6956 1068.28 L84.8114 1068.28 L84.8114 1062.4 Z" fill="#000000" fill-rule="nonzero" fill-opacity="1"></path><path clip-path="url(#clip080)" d="M100.691 1064.35 L108.33 1064.35 L108.33 1037.98 L100.02 1039.65 L100.02 1035.39 L108.283 1033.72 L112.959 1033.72 L112.959 1064.35 L120.598 1064.35 L120.598 1068.28 L100.691 1068.28 L100.691 1064.35 Z" fill="#000000" fill-rule="nonzero" fill-opacity="1"></path><path clip-path="url(#clip080)" d="M65.0198 703.559 Q61.4087 703.559 59.58 707.123 Q57.7745 710.665 57.7745 717.795 Q57.7745 724.901 59.58 728.466 Q61.4087 732.008 65.0198 732.008 Q68.6541 732.008 70.4596 728.466 Q72.2883 724.901 72.2883 717.795 Q72.2883 710.665 70.4596 707.123 Q68.6541 703.559 65.0198 703.559 M65.0198 699.855 Q70.83 699.855 73.8855 704.461 Q76.9642 709.045 76.9642 717.795 Q76.9642 726.521 73.8855 731.128 Q70.83 735.711 65.0198 735.711 Q59.2097 735.711 56.131 731.128 Q53.0754 726.521 53.0754 717.795 Q53.0754 709.045 56.131 704.461 Q59.2097 699.855 65.0198 699.855 Z" fill="#000000" fill-rule="nonzero" fill-opacity="1"></path><path clip-path="url(#clip080)" d="M85.1818 729.16 L90.066 729.16 L90.066 735.04 L85.1818 735.04 L85.1818 729.16 Z" fill="#000000" fill-rule="nonzero" fill-opacity="1"></path><path clip-path="url(#clip080)" d="M104.279 731.105 L120.598 731.105 L120.598 735.04 L98.6539 735.04 L98.6539 731.105 Q101.316 728.35 105.899 723.721 Q110.506 719.068 111.686 717.725 Q113.932 715.202 114.811 713.466 Q115.714 711.707 115.714 710.017 Q115.714 707.262 113.77 705.526 Q111.848 703.79 108.746 703.79 Q106.547 703.79 104.094 704.554 Q101.663 705.318 98.8854 706.869 L98.8854 702.147 Q101.709 701.012 104.163 700.434 Q106.617 699.855 108.654 699.855 Q114.024 699.855 117.219 702.54 Q120.413 705.225 120.413 709.716 Q120.413 711.846 119.603 713.767 Q118.816 715.665 116.709 718.258 Q116.131 718.929 113.029 722.146 Q109.927 725.341 104.279 731.105 Z" fill="#000000" fill-rule="nonzero" fill-opacity="1"></path><path clip-path="url(#clip080)" d="M64.0708 370.318 Q60.4597 370.318 58.631 373.883 Q56.8254 377.424 56.8254 384.554 Q56.8254 391.661 58.631 395.225 Q60.4597 398.767 64.0708 398.767 Q67.705 398.767 69.5105 395.225 Q71.3392 391.661 71.3392 384.554 Q71.3392 377.424 69.5105 373.883 Q67.705 370.318 64.0708 370.318 M64.0708 366.614 Q69.8809 366.614 72.9365 371.221 Q76.0151 375.804 76.0151 384.554 Q76.0151 393.281 72.9365 397.887 Q69.8809 402.471 64.0708 402.471 Q58.2606 402.471 55.1819 397.887 Q52.1264 393.281 52.1264 384.554 Q52.1264 375.804 55.1819 371.221 Q58.2606 366.614 64.0708 366.614 Z" fill="#000000" fill-rule="nonzero" fill-opacity="1"></path><path clip-path="url(#clip080)" d="M84.2327 395.92 L89.1169 395.92 L89.1169 401.799 L84.2327 401.799 L84.2327 395.92 Z" fill="#000000" fill-rule="nonzero" fill-opacity="1"></path><path clip-path="url(#clip080)" d="M113.469 383.165 Q116.825 383.883 118.7 386.151 Q120.598 388.42 120.598 391.753 Q120.598 396.869 117.08 399.67 Q113.561 402.471 107.08 402.471 Q104.904 402.471 102.589 402.031 Q100.297 401.614 97.8437 400.758 L97.8437 396.244 Q99.7882 397.378 102.103 397.957 Q104.418 398.535 106.941 398.535 Q111.339 398.535 113.631 396.799 Q115.945 395.063 115.945 391.753 Q115.945 388.698 113.793 386.985 Q111.663 385.249 107.844 385.249 L103.816 385.249 L103.816 381.406 L108.029 381.406 Q111.478 381.406 113.307 380.04 Q115.135 378.651 115.135 376.059 Q115.135 373.397 113.237 371.985 Q111.362 370.55 107.844 370.55 Q105.922 370.55 103.723 370.966 Q101.524 371.383 98.8854 372.262 L98.8854 368.096 Q101.547 367.355 103.862 366.985 Q106.2 366.614 108.26 366.614 Q113.584 366.614 116.686 369.045 Q119.788 371.452 119.788 375.573 Q119.788 378.443 118.145 380.434 Q116.501 382.401 113.469 383.165 Z" fill="#000000" fill-rule="nonzero" fill-opacity="1"></path><path clip-path="url(#clip080)" d="M62.9365 37.0775 Q59.3254 37.0775 57.4967 40.6423 Q55.6912 44.1839 55.6912 51.3135 Q55.6912 58.42 57.4967 61.9848 Q59.3254 65.5264 62.9365 65.5264 Q66.5707 65.5264 68.3763 61.9848 Q70.205 58.42 70.205 51.3135 Q70.205 44.1839 68.3763 40.6423 Q66.5707 37.0775 62.9365 37.0775 M62.9365 33.3738 Q68.7467 33.3738 71.8022 37.9802 Q74.8809 42.5636 74.8809 51.3135 Q74.8809 60.0403 71.8022 64.6468 Q68.7467 69.2301 62.9365 69.2301 Q57.1264 69.2301 54.0477 64.6468 Q50.9921 60.0403 50.9921 51.3135 Q50.9921 42.5636 54.0477 37.9802 Q57.1264 33.3738 62.9365 33.3738 Z" fill="#000000" fill-rule="nonzero" fill-opacity="1"></path><path clip-path="url(#clip080)" d="M83.0984 62.6792 L87.9827 62.6792 L87.9827 68.5588 L83.0984 68.5588 L83.0984 62.6792 Z" fill="#000000" fill-rule="nonzero" fill-opacity="1"></path><path clip-path="url(#clip080)" d="M111.015 38.0728 L99.2095 56.5218 L111.015 56.5218 L111.015 38.0728 M109.788 33.9988 L115.668 33.9988 L115.668 56.5218 L120.598 56.5218 L120.598 60.4107 L115.668 60.4107 L115.668 68.5588 L111.015 68.5588 L111.015 60.4107 L95.4132 60.4107 L95.4132 55.8968 L109.788 33.9988 Z" fill="#000000" fill-rule="nonzero" fill-opacity="1"></path><polyline clip-path="url(#clip082)" style="stroke:#009af9; stroke-linecap:round; stroke-linejoin:round; stroke-width:4; stroke-opacity:1; fill:none" points="218.754,1384.24 229.165,1384.24 239.576,1384.23 249.988,1384.22 260.399,1384.21 270.81,1384.18 281.221,1384.12 291.633,1384.04 302.044,1383.91 312.455,1383.72 322.867,1383.45 333.278,1383.09 343.689,1382.63 354.1,1382.07 364.512,1381.44 374.923,1380.77 385.334,1380.1 395.746,1379.5 406.157,1379.02 416.568,1378.71 426.979,1378.59 437.391,1378.65 447.802,1378.84 458.213,1379.11 468.625,1379.34 479.036,1379.42 489.447,1379.25 499.858,1378.71 510.27,1377.72 520.681,1376.24 531.092,1374.24 541.504,1371.73 551.915,1368.77 562.326,1365.43 572.738,1361.8 583.149,1357.97 593.56,1354.02 603.971,1350.02 614.383,1345.97 624.794,1341.85 635.205,1337.55 645.617,1332.91 656.028,1327.71 666.439,1321.69 676.85,1314.61 687.262,1306.23 697.673,1296.39 708.084,1285.03 718.496,1272.13 728.907,1257.78 739.318,1242.06 749.729,1225.04 760.141,1206.69 770.552,1186.86 780.963,1165.27 791.375,1141.53 801.786,1115.22 812.197,1085.99 822.609,1053.67 833.02,1018.37 843.431,980.54 853.842,941.018 864.254,900.929 874.665,861.584 885.076,824.311 895.488,790.267 905.899,760.268 916.31,734.668 926.721,713.31 937.133,695.566 947.544,680.459 957.955,666.83 968.367,653.531 978.778,639.599 989.189,624.369 999.6,607.524 1010.01,589.069 1020.42,569.26 1030.83,548.492 1041.25,527.188 1051.66,505.696 1062.07,484.222 1072.48,462.78 1082.89,441.196 1093.3,419.139 1103.71,396.192 1114.12,371.962 1124.54,346.201 1134.95,318.932 1145.36,290.542 1155.77,261.819 1166.18,233.912 1176.59,208.205 1187,186.134 1197.41,168.968 1207.83,157.617 1218.24,152.491 1228.65,153.458 1239.06,159.9 1249.47,170.846 1259.88,185.16 1270.29,201.723 1280.71,219.582 1291.12,238.035 1301.53,256.651 1311.94,275.231 1322.35,293.75 1332.76,312.284 1343.17,330.968 1353.58,349.966 1364,369.479 1374.41,389.746 1384.82,411.056 1395.23,433.731 1405.64,458.097 1416.05,484.444 1426.46,512.965 1436.87,543.713 1447.29,576.56 1457.7,611.186 1468.11,647.095 1478.52,683.657 1488.93,720.179 1499.34,755.998 1509.75,790.567 1520.16,823.54 1530.58,854.818 1540.99,884.556 1551.4,913.129 1561.81,941.05 1572.22,968.867 1582.63,997.059 1593.04,1025.93 1603.46,1055.56 1613.87,1085.77 1624.28,1116.13 1634.69,1146.04 1645.1,1174.8 1655.51,1201.73 1665.92,1226.23 1676.33,1247.84 1686.75,1266.35 1697.16,1281.73 1707.57,1294.15 1717.98,1303.94 1728.39,1311.51 1738.8,1317.32 1749.21,1321.82 1759.62,1325.41 1770.04,1328.42 1780.45,1331.12 1790.86,1333.68 1801.27,1336.24 1811.68,1338.88 1822.09,1341.65 1832.5,1344.59 1842.91,1347.74 1853.33,1351.1 1863.74,1354.65 1874.15,1358.35 1884.56,1362.1 1894.97,1365.79 1905.38,1369.29 1915.79,1372.48 1926.21,1375.26 1936.62,1377.59 1947.03,1379.42 1957.44,1380.78 1967.85,1381.7 1978.26,1382.23 1988.67,1382.42 1999.08,1382.34 2009.5,1382.03 2019.91,1381.55 2030.32,1380.96 2040.73,1380.32 2051.14,1379.71 2061.55,1379.2 2071.96,1378.85 2082.37,1378.7 2092.79,1378.77 2103.2,1379.05 2113.61,1379.51 2124.02,1380.11 2134.43,1380.77 2144.84,1381.44 2155.25,1382.07 2165.67,1382.63 2176.08,1383.09 2186.49,1383.45 2196.9,1383.72 2207.31,1383.91 2217.72,1384.04 2228.13,1384.12 2238.54,1384.18 2248.96,1384.21 2259.37,1384.22 2269.78,1384.23 2280.19,1384.24 2290.6,1384.24 "></polyline>
<polyline clip-path="url(#clip082)" style="stroke:#e26f46; stroke-linecap:round; stroke-linejoin:round; stroke-width:4; stroke-opacity:1; fill:none" points="339.166,1384.24 348.405,1384.24 357.644,1384.23 366.882,1384.22 376.121,1384.21 385.36,1384.18 394.599,1384.14 403.837,1384.07 413.076,1383.97 422.315,1383.81 431.554,1383.58 440.793,1383.27 450.031,1382.87 459.27,1382.36 468.509,1381.74 477.748,1381.04 486.986,1380.26 496.225,1379.44 505.464,1378.6 514.703,1377.77 523.942,1376.97 533.18,1376.19 542.419,1375.41 551.658,1374.58 560.897,1373.64 570.135,1372.52 579.374,1371.13 588.613,1369.43 597.852,1367.35 607.091,1364.88 616.329,1362.02 625.568,1358.79 634.807,1355.24 644.046,1351.43 653.284,1347.39 662.523,1343.17 671.762,1338.73 681.001,1334 690.24,1328.82 699.478,1322.94 708.717,1316.08 717.956,1307.89 727.195,1298.06 736.433,1286.34 745.672,1272.58 754.911,1256.78 764.15,1239.14 773.389,1219.95 782.627,1199.64 791.866,1178.63 801.105,1157.31 810.344,1135.93 819.582,1114.57 828.821,1093.11 838.06,1071.29 847.299,1048.78 856.538,1025.23 865.776,1000.4 875.015,974.254 884.254,946.946 893.493,918.864 902.731,890.56 911.97,862.657 921.209,835.733 930.448,810.201 939.687,786.215 948.925,763.611 958.164,741.904 967.403,720.343 976.642,698.027 985.88,674.049 995.119,647.662 1004.36,618.421 1013.6,586.294 1022.84,551.694 1032.07,515.445 1041.31,478.674 1050.55,442.655 1059.79,408.624 1069.03,377.615 1078.27,350.32 1087.51,327.017 1096.75,307.562 1105.98,291.438 1115.22,277.856 1124.46,265.877 1133.7,254.55 1142.94,243.024 1152.18,230.649 1161.42,217.026 1170.66,202.041 1179.89,185.854 1189.13,168.873 1198.37,151.703 1207.61,135.087 1216.85,119.834 1226.09,106.732 1235.33,96.4667 1244.57,89.5351 1253.8,86.1857 1263.04,86.387 1272.28,89.8443 1281.52,96.0666 1290.76,104.475 1300,114.535 1309.24,125.877 1318.48,138.376 1327.72,152.181 1336.95,167.66 1346.19,185.309 1355.43,205.622 1364.67,228.979 1373.91,255.571 1383.15,285.387 1392.39,318.242 1401.63,353.852 1410.86,391.899 1420.1,432.086 1429.34,474.153 1438.58,517.852 1447.82,562.914 1457.06,609.004 1466.3,655.694 1475.54,702.464 1484.77,748.726 1494.01,793.861 1503.25,837.271 1512.49,878.418 1521.73,916.867 1530.97,952.309 1540.21,984.58 1549.45,1013.67 1558.68,1039.72 1567.92,1063 1577.16,1083.89 1586.4,1102.81 1595.64,1120.21 1604.88,1136.48 1614.12,1151.93 1623.36,1166.77 1632.59,1181.12 1641.83,1195.02 1651.07,1208.45 1660.31,1221.37 1669.55,1233.74 1678.79,1245.53 1688.03,1256.68 1697.27,1267.18 1706.5,1276.97 1715.74,1286.01 1724.98,1294.25 1734.22,1301.67 1743.46,1308.25 1752.7,1314.04 1761.94,1319.09 1771.18,1323.51 1780.42,1327.44 1789.65,1331 1798.89,1334.34 1808.13,1337.54 1817.37,1340.7 1826.61,1343.82 1835.85,1346.89 1845.09,1349.87 1854.33,1352.69 1863.56,1355.29 1872.8,1357.6 1882.04,1359.6 1891.28,1361.3 1900.52,1362.73 1909.76,1363.96 1919,1365.04 1928.24,1366.06 1937.47,1367.08 1946.71,1368.13 1955.95,1369.25 1965.19,1370.46 1974.43,1371.73 1983.67,1373.06 1992.91,1374.43 2002.15,1375.79 2011.38,1377.11 2020.62,1378.37 2029.86,1379.52 2039.1,1380.54 2048.34,1381.43 2057.58,1382.16 2066.82,1382.75 2076.06,1383.2 2085.29,1383.54 2094.53,1383.79 2103.77,1383.96 2113.01,1384.07 2122.25,1384.14 2131.49,1384.18 2140.73,1384.21 2149.97,1384.22 2159.2,1384.23 2168.44,1384.24 2177.68,1384.24 "></polyline>
<path clip-path="url(#clip080)" d="M1866.97 248.629 L2279.55 248.629 L2279.55 93.1086 L1866.97 93.1086  Z" fill="#ffffff" fill-rule="evenodd" fill-opacity="1"></path>
<polyline clip-path="url(#clip080)" style="stroke:#000000; stroke-linecap:round; stroke-linejoin:round; stroke-width:4; stroke-opacity:1; fill:none" points="1866.97,248.629 2279.55,248.629 2279.55,93.1086 1866.97,93.1086 1866.97,248.629 "></polyline>
<polyline clip-path="url(#clip080)" style="stroke:#009af9; stroke-linecap:round; stroke-linejoin:round; stroke-width:4; stroke-opacity:1; fill:none" points="1891.37,144.949 2037.79,144.949 "></polyline>
<path clip-path="url(#clip080)" d="M2090.06 130.331 L2090.06 135.261 Q2087.7 133.062 2085.01 131.974 Q2082.35 130.886 2079.34 130.886 Q2073.41 130.886 2070.27 134.52 Q2067.12 138.132 2067.12 144.983 Q2067.12 151.812 2070.27 155.446 Q2073.41 159.057 2079.34 159.057 Q2082.35 159.057 2085.01 157.969 Q2087.7 156.881 2090.06 154.682 L2090.06 159.567 Q2087.6 161.233 2084.85 162.067 Q2082.12 162.9 2079.06 162.9 Q2071.21 162.9 2066.7 158.108 Q2062.19 153.293 2062.19 144.983 Q2062.19 136.65 2066.7 131.858 Q2071.21 127.044 2079.06 127.044 Q2082.16 127.044 2084.9 127.877 Q2087.65 128.687 2090.06 130.331 Z" fill="#000000" fill-rule="nonzero" fill-opacity="1"></path><path clip-path="url(#clip080)" d="M2107.14 139.289 Q2103.71 139.289 2101.72 141.974 Q2099.73 144.636 2099.73 149.289 Q2099.73 153.942 2101.7 156.627 Q2103.69 159.289 2107.14 159.289 Q2110.54 159.289 2112.53 156.604 Q2114.52 153.918 2114.52 149.289 Q2114.52 144.682 2112.53 141.997 Q2110.54 139.289 2107.14 139.289 M2107.14 135.678 Q2112.7 135.678 2115.87 139.289 Q2119.04 142.9 2119.04 149.289 Q2119.04 155.655 2115.87 159.289 Q2112.7 162.9 2107.14 162.9 Q2101.56 162.9 2098.39 159.289 Q2095.24 155.655 2095.24 149.289 Q2095.24 142.9 2098.39 139.289 Q2101.56 135.678 2107.14 135.678 Z" fill="#000000" fill-rule="nonzero" fill-opacity="1"></path><path clip-path="url(#clip080)" d="M2147.65 146.581 L2147.65 162.229 L2143.39 162.229 L2143.39 146.719 Q2143.39 143.039 2141.96 141.21 Q2140.52 139.382 2137.65 139.382 Q2134.2 139.382 2132.21 141.581 Q2130.22 143.78 2130.22 147.576 L2130.22 162.229 L2125.94 162.229 L2125.94 136.303 L2130.22 136.303 L2130.22 140.331 Q2131.75 137.993 2133.81 136.835 Q2135.89 135.678 2138.6 135.678 Q2143.07 135.678 2145.36 138.456 Q2147.65 141.21 2147.65 146.581 Z" fill="#000000" fill-rule="nonzero" fill-opacity="1"></path><path clip-path="url(#clip080)" d="M2160.36 128.942 L2160.36 136.303 L2169.13 136.303 L2169.13 139.613 L2160.36 139.613 L2160.36 153.687 Q2160.36 156.858 2161.21 157.761 Q2162.09 158.664 2164.76 158.664 L2169.13 158.664 L2169.13 162.229 L2164.76 162.229 Q2159.83 162.229 2157.95 160.4 Q2156.08 158.548 2156.08 153.687 L2156.08 139.613 L2152.95 139.613 L2152.95 136.303 L2156.08 136.303 L2156.08 128.942 L2160.36 128.942 Z" fill="#000000" fill-rule="nonzero" fill-opacity="1"></path><path clip-path="url(#clip080)" d="M2196.91 148.201 L2196.91 150.284 L2177.33 150.284 Q2177.6 154.682 2179.96 156.997 Q2182.35 159.289 2186.58 159.289 Q2189.04 159.289 2191.33 158.687 Q2193.64 158.085 2195.91 156.881 L2195.91 160.909 Q2193.62 161.881 2191.21 162.391 Q2188.81 162.9 2186.33 162.9 Q2180.13 162.9 2176.49 159.289 Q2172.88 155.678 2172.88 149.52 Q2172.88 143.155 2176.31 139.428 Q2179.76 135.678 2185.59 135.678 Q2190.82 135.678 2193.85 139.057 Q2196.91 142.414 2196.91 148.201 M2192.65 146.951 Q2192.6 143.456 2190.68 141.372 Q2188.78 139.289 2185.64 139.289 Q2182.07 139.289 2179.92 141.303 Q2177.79 143.317 2177.46 146.974 L2192.65 146.951 Z" fill="#000000" fill-rule="nonzero" fill-opacity="1"></path><path clip-path="url(#clip080)" d="M2225.45 146.581 L2225.45 162.229 L2221.19 162.229 L2221.19 146.719 Q2221.19 143.039 2219.76 141.21 Q2218.32 139.382 2215.45 139.382 Q2212 139.382 2210.01 141.581 Q2208.02 143.78 2208.02 147.576 L2208.02 162.229 L2203.74 162.229 L2203.74 136.303 L2208.02 136.303 L2208.02 140.331 Q2209.55 137.993 2211.61 136.835 Q2213.69 135.678 2216.4 135.678 Q2220.87 135.678 2223.16 138.456 Q2225.45 141.21 2225.45 146.581 Z" fill="#000000" fill-rule="nonzero" fill-opacity="1"></path><path clip-path="url(#clip080)" d="M2238.16 128.942 L2238.16 136.303 L2246.93 136.303 L2246.93 139.613 L2238.16 139.613 L2238.16 153.687 Q2238.16 156.858 2239.01 157.761 Q2239.89 158.664 2242.56 158.664 L2246.93 158.664 L2246.93 162.229 L2242.56 162.229 Q2237.63 162.229 2235.75 160.4 Q2233.88 158.548 2233.88 153.687 L2233.88 139.613 L2230.75 139.613 L2230.75 136.303 L2233.88 136.303 L2233.88 128.942 L2238.16 128.942 Z" fill="#000000" fill-rule="nonzero" fill-opacity="1"></path><polyline clip-path="url(#clip080)" style="stroke:#e26f46; stroke-linecap:round; stroke-linejoin:round; stroke-width:4; stroke-opacity:1; fill:none" points="1891.37,196.789 2037.79,196.789 "></polyline>
<path clip-path="url(#clip080)" d="M2062.19 179.509 L2082.05 179.509 L2082.05 183.444 L2066.86 183.444 L2066.86 193.629 L2080.57 193.629 L2080.57 197.564 L2066.86 197.564 L2066.86 214.069 L2062.19 214.069 L2062.19 179.509 Z" fill="#000000" fill-rule="nonzero" fill-opacity="1"></path><path clip-path="url(#clip080)" d="M2086.24 203.837 L2086.24 188.143 L2090.5 188.143 L2090.5 203.675 Q2090.5 207.356 2091.93 209.208 Q2093.37 211.036 2096.24 211.036 Q2099.69 211.036 2101.68 208.837 Q2103.69 206.638 2103.69 202.842 L2103.69 188.143 L2107.95 188.143 L2107.95 214.069 L2103.69 214.069 L2103.69 210.087 Q2102.14 212.448 2100.08 213.606 Q2098.04 214.74 2095.33 214.74 Q2090.87 214.74 2088.55 211.962 Q2086.24 209.184 2086.24 203.837 M2096.96 187.518 L2096.96 187.518 Z" fill="#000000" fill-rule="nonzero" fill-opacity="1"></path><path clip-path="url(#clip080)" d="M2138.27 198.421 L2138.27 214.069 L2134.02 214.069 L2134.02 198.559 Q2134.02 194.879 2132.58 193.05 Q2131.14 191.222 2128.27 191.222 Q2124.83 191.222 2122.83 193.421 Q2120.84 195.62 2120.84 199.416 L2120.84 214.069 L2116.56 214.069 L2116.56 188.143 L2120.84 188.143 L2120.84 192.171 Q2122.37 189.833 2124.43 188.675 Q2126.52 187.518 2129.22 187.518 Q2133.69 187.518 2135.98 190.296 Q2138.27 193.05 2138.27 198.421 Z" fill="#000000" fill-rule="nonzero" fill-opacity="1"></path><path clip-path="url(#clip080)" d="M2165.43 189.138 L2165.43 193.12 Q2163.62 192.124 2161.79 191.638 Q2159.99 191.129 2158.14 191.129 Q2153.99 191.129 2151.7 193.768 Q2149.41 196.384 2149.41 201.129 Q2149.41 205.874 2151.7 208.513 Q2153.99 211.129 2158.14 211.129 Q2159.99 211.129 2161.79 210.643 Q2163.62 210.133 2165.43 209.138 L2165.43 213.073 Q2163.64 213.907 2161.72 214.323 Q2159.83 214.74 2157.67 214.74 Q2151.82 214.74 2148.37 211.059 Q2144.92 207.379 2144.92 201.129 Q2144.92 194.786 2148.39 191.152 Q2151.89 187.518 2157.95 187.518 Q2159.92 187.518 2161.79 187.935 Q2163.67 188.328 2165.43 189.138 Z" fill="#000000" fill-rule="nonzero" fill-opacity="1"></path><path clip-path="url(#clip080)" d="M2177.05 180.782 L2177.05 188.143 L2185.82 188.143 L2185.82 191.453 L2177.05 191.453 L2177.05 205.527 Q2177.05 208.698 2177.9 209.601 Q2178.78 210.504 2181.45 210.504 L2185.82 210.504 L2185.82 214.069 L2181.45 214.069 Q2176.52 214.069 2174.64 212.24 Q2172.77 210.388 2172.77 205.527 L2172.77 191.453 L2169.64 191.453 L2169.64 188.143 L2172.77 188.143 L2172.77 180.782 L2177.05 180.782 Z" fill="#000000" fill-rule="nonzero" fill-opacity="1"></path><path clip-path="url(#clip080)" d="M2191.42 188.143 L2195.68 188.143 L2195.68 214.069 L2191.42 214.069 L2191.42 188.143 M2191.42 178.05 L2195.68 178.05 L2195.68 183.444 L2191.42 183.444 L2191.42 178.05 Z" fill="#000000" fill-rule="nonzero" fill-opacity="1"></path><path clip-path="url(#clip080)" d="M2214.64 191.129 Q2211.21 191.129 2209.22 193.814 Q2207.23 196.476 2207.23 201.129 Q2207.23 205.782 2209.2 208.467 Q2211.19 211.129 2214.64 211.129 Q2218.04 211.129 2220.03 208.444 Q2222.02 205.758 2222.02 201.129 Q2222.02 196.522 2220.03 193.837 Q2218.04 191.129 2214.64 191.129 M2214.64 187.518 Q2220.2 187.518 2223.37 191.129 Q2226.54 194.74 2226.54 201.129 Q2226.54 207.495 2223.37 211.129 Q2220.2 214.74 2214.64 214.74 Q2209.06 214.74 2205.89 211.129 Q2202.74 207.495 2202.74 201.129 Q2202.74 194.74 2205.89 191.129 Q2209.06 187.518 2214.64 187.518 Z" fill="#000000" fill-rule="nonzero" fill-opacity="1"></path><path clip-path="url(#clip080)" d="M2255.15 198.421 L2255.15 214.069 L2250.89 214.069 L2250.89 198.559 Q2250.89 194.879 2249.45 193.05 Q2248.02 191.222 2245.15 191.222 Q2241.7 191.222 2239.71 193.421 Q2237.72 195.62 2237.72 199.416 L2237.72 214.069 L2233.44 214.069 L2233.44 188.143 L2237.72 188.143 L2237.72 192.171 Q2239.25 189.833 2241.31 188.675 Q2243.39 187.518 2246.1 187.518 Q2250.57 187.518 2252.86 190.296 Q2255.15 193.05 2255.15 198.421 Z" fill="#000000" fill-rule="nonzero" fill-opacity="1"></path></svg>