<svg xmlns="http://www.w3.org/2000/svg" xmlns:xlink="http://www.w3.org/1999/xlink" width="600" height="400" viewBox="0 0 2400 1600">
<defs>
  <clipPath id="clip500">
    <rect x="0" y="0" width="2400" height="1600"></rect>
  </clipPath>
</defs>
<path clip-path="url(#clip500)" d="M0 1600 L2400 1600 L2400 0 L0 0  Z" fill="#ffffff" fill-rule="evenodd" fill-opacity="1"></path>
<defs>
  <clipPath id="clip501">
    <rect x="480" y="0" width="1681" height="1600"></rect>
  </clipPath>
</defs>
<path clip-path="url(#clip500)" d="M192.941 1486.45 L2352.76 1486.45 L2352.76 47.2441 L192.941 47.2441  Z" fill="#ffffff" fill-rule="evenodd" fill-opacity="1"></path>
<defs>
  <clipPath id="clip502">
    <rect x="192" y="47" width="2161" height="1440"></rect>
  </clipPath>
</defs>
<polyline clip-path="url(#clip502)" style="stroke:#000000; stroke-linecap:round; stroke-linejoin:round; stroke-width:2; stroke-opacity:0.1; fill:none" points="254.067,1486.45 254.067,47.2441 "></polyline>
<polyline clip-path="url(#clip502)" style="stroke:#000000; stroke-linecap:round; stroke-linejoin:round; stroke-width:2; stroke-opacity:0.1; fill:none" points="661.58,1486.45 661.58,47.2441 "></polyline>
<polyline clip-path="url(#clip502)" style="stroke:#000000; stroke-linecap:round; stroke-linejoin:round; stroke-width:2; stroke-opacity:0.1; fill:none" points="1069.09,1486.45 1069.09,47.2441 "></polyline>
<polyline clip-path="url(#clip502)" style="stroke:#000000; stroke-linecap:round; stroke-linejoin:round; stroke-width:2; stroke-opacity:0.1; fill:none" points="1476.6,1486.45 1476.6,47.2441 "></polyline>
<polyline clip-path="url(#clip502)" style="stroke:#000000; stroke-linecap:round; stroke-linejoin:round; stroke-width:2; stroke-opacity:0.1; fill:none" points="1884.12,1486.45 1884.12,47.2441 "></polyline>
<polyline clip-path="url(#clip502)" style="stroke:#000000; stroke-linecap:round; stroke-linejoin:round; stroke-width:2; stroke-opacity:0.1; fill:none" points="2291.63,1486.45 2291.63,47.2441 "></polyline>
<polyline clip-path="url(#clip500)" style="stroke:#000000; stroke-linecap:round; stroke-linejoin:round; stroke-width:4; stroke-opacity:1; fill:none" points="192.941,1486.45 2352.76,1486.45 "></polyline>
<polyline clip-path="url(#clip500)" style="stroke:#000000; stroke-linecap:round; stroke-linejoin:round; stroke-width:4; stroke-opacity:1; fill:none" points="254.067,1486.45 254.067,1467.55 "></polyline>
<polyline clip-path="url(#clip500)" style="stroke:#000000; stroke-linecap:round; stroke-linejoin:round; stroke-width:4; stroke-opacity:1; fill:none" points="661.58,1486.45 661.58,1467.55 "></polyline>
<polyline clip-path="url(#clip500)" style="stroke:#000000; stroke-linecap:round; stroke-linejoin:round; stroke-width:4; stroke-opacity:1; fill:none" points="1069.09,1486.45 1069.09,1467.55 "></polyline>
<polyline clip-path="url(#clip500)" style="stroke:#000000; stroke-linecap:round; stroke-linejoin:round; stroke-width:4; stroke-opacity:1; fill:none" points="1476.6,1486.45 1476.6,1467.55 "></polyline>
<polyline clip-path="url(#clip500)" style="stroke:#000000; stroke-linecap:round; stroke-linejoin:round; stroke-width:4; stroke-opacity:1; fill:none" points="1884.12,1486.45 1884.12,1467.55 "></polyline>
<polyline clip-path="url(#clip500)" style="stroke:#000000; stroke-linecap:round; stroke-linejoin:round; stroke-width:4; stroke-opacity:1; fill:none" points="2291.63,1486.45 2291.63,1467.55 "></polyline>
<path clip-path="url(#clip500)" d="M244.449 1544.91 L252.088 1544.91 L252.088 1518.55 L243.778 1520.21 L243.778 1515.95 L252.042 1514.29 L256.718 1514.29 L256.718 1544.91 L264.357 1544.91 L264.357 1548.85 L244.449 1548.85 L244.449 1544.91 Z" fill="#000000" fill-rule="nonzero" fill-opacity="1"></path><path clip-path="url(#clip500)" d="M656.233 1544.91 L672.552 1544.91 L672.552 1548.85 L650.608 1548.85 L650.608 1544.91 Q653.27 1542.16 657.853 1537.53 Q662.459 1532.88 663.64 1531.53 Q665.885 1529.01 666.765 1527.27 Q667.668 1525.51 667.668 1523.82 Q667.668 1521.07 665.723 1519.33 Q663.802 1517.6 660.7 1517.6 Q658.501 1517.6 656.047 1518.36 Q653.617 1519.13 650.839 1520.68 L650.839 1515.95 Q653.663 1514.82 656.117 1514.24 Q658.571 1513.66 660.608 1513.66 Q665.978 1513.66 669.172 1516.35 Q672.367 1519.03 672.367 1523.52 Q672.367 1525.65 671.557 1527.57 Q670.77 1529.47 668.663 1532.07 Q668.084 1532.74 664.983 1535.95 Q661.881 1539.15 656.233 1544.91 Z" fill="#000000" fill-rule="nonzero" fill-opacity="1"></path><path clip-path="url(#clip500)" d="M1073.34 1530.21 Q1076.7 1530.93 1078.57 1533.2 Q1080.47 1535.47 1080.47 1538.8 Q1080.47 1543.92 1076.95 1546.72 Q1073.43 1549.52 1066.95 1549.52 Q1064.78 1549.52 1062.46 1549.08 Q1060.17 1548.66 1057.71 1547.81 L1057.71 1543.29 Q1059.66 1544.43 1061.97 1545.01 Q1064.29 1545.58 1066.81 1545.58 Q1071.21 1545.58 1073.5 1543.85 Q1075.82 1542.11 1075.82 1538.8 Q1075.82 1535.75 1073.66 1534.03 Q1071.53 1532.3 1067.71 1532.3 L1063.69 1532.3 L1063.69 1528.45 L1067.9 1528.45 Q1071.35 1528.45 1073.18 1527.09 Q1075.01 1525.7 1075.01 1523.11 Q1075.01 1520.45 1073.11 1519.03 Q1071.23 1517.6 1067.71 1517.6 Q1065.79 1517.6 1063.59 1518.01 Q1061.4 1518.43 1058.76 1519.31 L1058.76 1515.14 Q1061.42 1514.4 1063.73 1514.03 Q1066.07 1513.66 1068.13 1513.66 Q1073.46 1513.66 1076.56 1516.09 Q1079.66 1518.5 1079.66 1522.62 Q1079.66 1525.49 1078.02 1527.48 Q1076.37 1529.45 1073.34 1530.21 Z" fill="#000000" fill-rule="nonzero" fill-opacity="1"></path><path clip-path="url(#clip500)" d="M1479.61 1518.36 L1467.81 1536.81 L1479.61 1536.81 L1479.61 1518.36 M1478.39 1514.29 L1484.27 1514.29 L1484.27 1536.81 L1489.2 1536.81 L1489.2 1540.7 L1484.27 1540.7 L1484.27 1548.85 L1479.61 1548.85 L1479.61 1540.7 L1464.01 1540.7 L1464.01 1536.19 L1478.39 1514.29 Z" fill="#000000" fill-rule="nonzero" fill-opacity="1"></path><path clip-path="url(#clip500)" d="M1874.39 1514.29 L1892.75 1514.29 L1892.75 1518.22 L1878.68 1518.22 L1878.68 1526.7 Q1879.7 1526.35 1880.71 1526.19 Q1881.73 1526 1882.75 1526 Q1888.54 1526 1891.92 1529.17 Q1895.3 1532.34 1895.3 1537.76 Q1895.3 1543.34 1891.83 1546.44 Q1888.35 1549.52 1882.03 1549.52 Q1879.86 1549.52 1877.59 1549.15 Q1875.34 1548.78 1872.94 1548.04 L1872.94 1543.34 Q1875.02 1544.47 1877.24 1545.03 Q1879.46 1545.58 1881.94 1545.58 Q1885.95 1545.58 1888.28 1543.48 Q1890.62 1541.37 1890.62 1537.76 Q1890.62 1534.15 1888.28 1532.04 Q1885.95 1529.94 1881.94 1529.94 Q1880.07 1529.94 1878.19 1530.35 Q1876.34 1530.77 1874.39 1531.65 L1874.39 1514.29 Z" fill="#000000" fill-rule="nonzero" fill-opacity="1"></path><path clip-path="url(#clip500)" d="M2292.03 1529.7 Q2288.89 1529.7 2287.03 1531.86 Q2285.21 1534.01 2285.21 1537.76 Q2285.21 1541.49 2287.03 1543.66 Q2288.89 1545.82 2292.03 1545.82 Q2295.18 1545.82 2297.01 1543.66 Q2298.86 1541.49 2298.86 1537.76 Q2298.86 1534.01 2297.01 1531.86 Q2295.18 1529.7 2292.03 1529.7 M2301.32 1515.05 L2301.32 1519.31 Q2299.56 1518.48 2297.75 1518.04 Q2295.97 1517.6 2294.21 1517.6 Q2289.58 1517.6 2287.13 1520.72 Q2284.7 1523.85 2284.35 1530.17 Q2285.71 1528.15 2287.77 1527.09 Q2289.84 1526 2292.31 1526 Q2297.52 1526 2300.53 1529.17 Q2303.56 1532.32 2303.56 1537.76 Q2303.56 1543.08 2300.41 1546.3 Q2297.27 1549.52 2292.03 1549.52 Q2286.04 1549.52 2282.87 1544.94 Q2279.7 1540.33 2279.7 1531.6 Q2279.7 1523.41 2283.59 1518.55 Q2287.47 1513.66 2294.02 1513.66 Q2295.78 1513.66 2297.57 1514.01 Q2299.37 1514.36 2301.32 1515.05 Z" fill="#000000" fill-rule="nonzero" fill-opacity="1"></path><polyline clip-path="url(#clip502)" style="stroke:#000000; stroke-linecap:round; stroke-linejoin:round; stroke-width:2; stroke-opacity:0.1; fill:none" points="192.941,1142.34 2352.76,1142.34 "></polyline>
<polyline clip-path="url(#clip502)" style="stroke:#000000; stroke-linecap:round; stroke-linejoin:round; stroke-width:2; stroke-opacity:0.1; fill:none" points="192.941,786.133 2352.76,786.133 "></polyline>
<polyline clip-path="url(#clip502)" style="stroke:#000000; stroke-linecap:round; stroke-linejoin:round; stroke-width:2; stroke-opacity:0.1; fill:none" points="192.941,429.926 2352.76,429.926 "></polyline>
<polyline clip-path="url(#clip502)" style="stroke:#000000; stroke-linecap:round; stroke-linejoin:round; stroke-width:2; stroke-opacity:0.1; fill:none" points="192.941,73.7181 2352.76,73.7181 "></polyline>
<polyline clip-path="url(#clip500)" style="stroke:#000000; stroke-linecap:round; stroke-linejoin:round; stroke-width:4; stroke-opacity:1; fill:none" points="192.941,1486.45 192.941,47.2441 "></polyline>
<polyline clip-path="url(#clip500)" style="stroke:#000000; stroke-linecap:round; stroke-linejoin:round; stroke-width:4; stroke-opacity:1; fill:none" points="192.941,1142.34 211.838,1142.34 "></polyline>
<polyline clip-path="url(#clip500)" style="stroke:#000000; stroke-linecap:round; stroke-linejoin:round; stroke-width:4; stroke-opacity:1; fill:none" points="192.941,786.133 211.838,786.133 "></polyline>
<polyline clip-path="url(#clip500)" style="stroke:#000000; stroke-linecap:round; stroke-linejoin:round; stroke-width:4; stroke-opacity:1; fill:none" points="192.941,429.926 211.838,429.926 "></polyline>
<polyline clip-path="url(#clip500)" style="stroke:#000000; stroke-linecap:round; stroke-linejoin:round; stroke-width:4; stroke-opacity:1; fill:none" points="192.941,73.7181 211.838,73.7181 "></polyline>
<path clip-path="url(#clip500)" d="M50.9921 1142.79 L80.6679 1142.79 L80.6679 1146.73 L50.9921 1146.73 L50.9921 1142.79 Z" fill="#000000" fill-rule="nonzero" fill-opacity="1"></path><path clip-path="url(#clip500)" d="M100.76 1128.14 Q97.1493 1128.14 95.3206 1131.7 Q93.515 1135.25 93.515 1142.38 Q93.515 1149.48 95.3206 1153.05 Q97.1493 1156.59 100.76 1156.59 Q104.395 1156.59 106.2 1153.05 Q108.029 1149.48 108.029 1142.38 Q108.029 1135.25 106.2 1131.7 Q104.395 1128.14 100.76 1128.14 M100.76 1124.44 Q106.571 1124.44 109.626 1129.04 Q112.705 1133.63 112.705 1142.38 Q112.705 1151.1 109.626 1155.71 Q106.571 1160.29 100.76 1160.29 Q94.9502 1160.29 91.8715 1155.71 Q88.816 1151.1 88.816 1142.38 Q88.816 1133.63 91.8715 1129.04 Q94.9502 1124.44 100.76 1124.44 Z" fill="#000000" fill-rule="nonzero" fill-opacity="1"></path><path clip-path="url(#clip500)" d="M120.922 1153.74 L125.807 1153.74 L125.807 1159.62 L120.922 1159.62 L120.922 1153.74 Z" fill="#000000" fill-rule="nonzero" fill-opacity="1"></path><path clip-path="url(#clip500)" d="M136.038 1125.06 L154.394 1125.06 L154.394 1129 L140.32 1129 L140.32 1137.47 Q141.339 1137.12 142.357 1136.96 Q143.376 1136.77 144.394 1136.77 Q150.181 1136.77 153.561 1139.94 Q156.941 1143.12 156.941 1148.53 Q156.941 1154.11 153.468 1157.21 Q149.996 1160.29 143.677 1160.29 Q141.501 1160.29 139.232 1159.92 Q136.987 1159.55 134.58 1158.81 L134.58 1154.11 Q136.663 1155.25 138.885 1155.8 Q141.107 1156.36 143.584 1156.36 Q147.589 1156.36 149.927 1154.25 Q152.265 1152.14 152.265 1148.53 Q152.265 1144.92 149.927 1142.81 Q147.589 1140.71 143.584 1140.71 Q141.709 1140.71 139.834 1141.13 Q137.982 1141.54 136.038 1142.42 L136.038 1125.06 Z" fill="#000000" fill-rule="nonzero" fill-opacity="1"></path><path clip-path="url(#clip500)" d="M99.765 771.932 Q96.1539 771.932 94.3252 775.496 Q92.5197 779.038 92.5197 786.168 Q92.5197 793.274 94.3252 796.839 Q96.1539 800.381 99.765 800.381 Q103.399 800.381 105.205 796.839 Q107.033 793.274 107.033 786.168 Q107.033 779.038 105.205 775.496 Q103.399 771.932 99.765 771.932 M99.765 768.228 Q105.575 768.228 108.631 772.834 Q111.709 777.418 111.709 786.168 Q111.709 794.894 108.631 799.501 Q105.575 804.084 99.765 804.084 Q93.9549 804.084 90.8762 799.501 Q87.8206 794.894 87.8206 786.168 Q87.8206 777.418 90.8762 772.834 Q93.9549 768.228 99.765 768.228 Z" fill="#000000" fill-rule="nonzero" fill-opacity="1"></path><path clip-path="url(#clip500)" d="M119.927 797.533 L124.811 797.533 L124.811 803.413 L119.927 803.413 L119.927 797.533 Z" fill="#000000" fill-rule="nonzero" fill-opacity="1"></path><path clip-path="url(#clip500)" d="M144.996 771.932 Q141.385 771.932 139.556 775.496 Q137.751 779.038 137.751 786.168 Q137.751 793.274 139.556 796.839 Q141.385 800.381 144.996 800.381 Q148.63 800.381 150.436 796.839 Q152.265 793.274 152.265 786.168 Q152.265 779.038 150.436 775.496 Q148.63 771.932 144.996 771.932 M144.996 768.228 Q150.806 768.228 153.862 772.834 Q156.941 777.418 156.941 786.168 Q156.941 794.894 153.862 799.501 Q150.806 804.084 144.996 804.084 Q139.186 804.084 136.107 799.501 Q133.052 794.894 133.052 786.168 Q133.052 777.418 136.107 772.834 Q139.186 768.228 144.996 768.228 Z" fill="#000000" fill-rule="nonzero" fill-opacity="1"></path><path clip-path="url(#clip500)" d="M100.76 415.724 Q97.1493 415.724 95.3206 419.289 Q93.515 422.831 93.515 429.96 Q93.515 437.067 95.3206 440.632 Q97.1493 444.173 100.76 444.173 Q104.395 444.173 106.2 440.632 Q108.029 437.067 108.029 429.96 Q108.029 422.831 106.2 419.289 Q104.395 415.724 100.76 415.724 M100.76 412.021 Q106.571 412.021 109.626 416.627 Q112.705 421.21 112.705 429.96 Q112.705 438.687 109.626 443.294 Q106.571 447.877 100.76 447.877 Q94.9502 447.877 91.8715 443.294 Q88.816 438.687 88.816 429.96 Q88.816 421.21 91.8715 416.627 Q94.9502 412.021 100.76 412.021 Z" fill="#000000" fill-rule="nonzero" fill-opacity="1"></path><path clip-path="url(#clip500)" d="M120.922 441.326 L125.807 441.326 L125.807 447.206 L120.922 447.206 L120.922 441.326 Z" fill="#000000" fill-rule="nonzero" fill-opacity="1"></path><path clip-path="url(#clip500)" d="M136.038 412.646 L154.394 412.646 L154.394 416.581 L140.32 416.581 L140.32 425.053 Q141.339 424.706 142.357 424.544 Q143.376 424.358 144.394 424.358 Q150.181 424.358 153.561 427.53 Q156.941 430.701 156.941 436.118 Q156.941 441.696 153.468 444.798 Q149.996 447.877 143.677 447.877 Q141.501 447.877 139.232 447.506 Q136.987 447.136 134.58 446.395 L134.58 441.696 Q136.663 442.831 138.885 443.386 Q141.107 443.942 143.584 443.942 Q147.589 443.942 149.927 441.835 Q152.265 439.729 152.265 436.118 Q152.265 432.507 149.927 430.4 Q147.589 428.294 143.584 428.294 Q141.709 428.294 139.834 428.71 Q137.982 429.127 136.038 430.007 L136.038 412.646 Z" fill="#000000" fill-rule="nonzero" fill-opacity="1"></path><path clip-path="url(#clip500)" d="M90.5752 87.063 L98.2141 87.063 L98.2141 60.6974 L89.904 62.364 L89.904 58.1048 L98.1678 56.4381 L102.844 56.4381 L102.844 87.063 L110.483 87.063 L110.483 90.9981 L90.5752 90.9981 L90.5752 87.063 Z" fill="#000000" fill-rule="nonzero" fill-opacity="1"></path><path clip-path="url(#clip500)" d="M119.927 85.1186 L124.811 85.1186 L124.811 90.9981 L119.927 90.9981 L119.927 85.1186 Z" fill="#000000" fill-rule="nonzero" fill-opacity="1"></path><path clip-path="url(#clip500)" d="M144.996 59.5168 Q141.385 59.5168 139.556 63.0816 Q137.751 66.6233 137.751 73.7529 Q137.751 80.8593 139.556 84.4241 Q141.385 87.9658 144.996 87.9658 Q148.63 87.9658 150.436 84.4241 Q152.265 80.8593 152.265 73.7529 Q152.265 66.6233 150.436 63.0816 Q148.63 59.5168 144.996 59.5168 M144.996 55.8132 Q150.806 55.8132 153.862 60.4196 Q156.941 65.0029 156.941 73.7529 Q156.941 82.4797 153.862 87.0861 Q150.806 91.6694 144.996 91.6694 Q139.186 91.6694 136.107 87.0861 Q133.052 82.4797 133.052 73.7529 Q133.052 65.0029 136.107 60.4196 Q139.186 55.8132 144.996 55.8132 Z" fill="#000000" fill-rule="nonzero" fill-opacity="1"></path><circle clip-path="url(#clip502)" cx="254.067" cy="796.447" r="14.4" fill="#009af9" fill-rule="evenodd" fill-opacity="1" stroke="#000000" stroke-opacity="1" stroke-width="3.2"></circle>
<circle clip-path="url(#clip502)" cx="661.58" cy="622.566" r="14.4" fill="#009af9" fill-rule="evenodd" fill-opacity="1" stroke="#000000" stroke-opacity="1" stroke-width="3.2"></circle>
<circle clip-path="url(#clip502)" cx="1069.09" cy="1445.72" r="14.4" fill="#009af9" fill-rule="evenodd" fill-opacity="1" stroke="#000000" stroke-opacity="1" stroke-width="3.2"></circle>
<circle clip-path="url(#clip502)" cx="1476.6" cy="575.186" r="14.4" fill="#009af9" fill-rule="evenodd" fill-opacity="1" stroke="#000000" stroke-opacity="1" stroke-width="3.2"></circle>
<circle clip-path="url(#clip502)" cx="1884.12" cy="756.195" r="14.4" fill="#009af9" fill-rule="evenodd" fill-opacity="1" stroke="#000000" stroke-opacity="1" stroke-width="3.2"></circle>
<circle clip-path="url(#clip502)" cx="2291.63" cy="801.294" r="14.4" fill="#009af9" fill-rule="evenodd" fill-opacity="1" stroke="#000000" stroke-opacity="1" stroke-width="3.2"></circle>
<circle clip-path="url(#clip502)" cx="254.067" cy="768.65" r="14.4" fill="#e26f46" fill-rule="evenodd" fill-opacity="1" stroke="#000000" stroke-opacity="1" stroke-width="3.2"></circle>
<circle clip-path="url(#clip502)" cx="661.58" cy="291.843" r="14.4" fill="#e26f46" fill-rule="evenodd" fill-opacity="1" stroke="#000000" stroke-opacity="1" stroke-width="3.2"></circle>
<circle clip-path="url(#clip502)" cx="1069.09" cy="755.951" r="14.4" fill="#e26f46" fill-rule="evenodd" fill-opacity="1" stroke="#000000" stroke-opacity="1" stroke-width="3.2"></circle>
<circle clip-path="url(#clip502)" cx="1476.6" cy="1001.75" r="14.4" fill="#e26f46" fill-rule="evenodd" fill-opacity="1" stroke="#000000" stroke-opacity="1" stroke-width="3.2"></circle>
<circle clip-path="url(#clip502)" cx="1884.12" cy="1151.21" r="14.4" fill="#e26f46" fill-rule="evenodd" fill-opacity="1" stroke="#000000" stroke-opacity="1" stroke-width="3.2"></circle>
<circle clip-path="url(#clip502)" cx="2291.63" cy="499.395" r="14.4" fill="#e26f46" fill-rule="evenodd" fill-opacity="1" stroke="#000000" stroke-opacity="1" stroke-width="3.2"></circle>
<circle clip-path="url(#clip502)" cx="254.067" cy="757.495" r="14.4" fill="#3da44d" fill-rule="evenodd" fill-opacity="1" stroke="#000000" stroke-opacity="1" stroke-width="3.2"></circle>
<circle clip-path="url(#clip502)" cx="661.58" cy="350.952" r="14.4" fill="#3da44d" fill-rule="evenodd" fill-opacity="1" stroke="#000000" stroke-opacity="1" stroke-width="3.2"></circle>
<circle clip-path="url(#clip502)" cx="1069.09" cy="567.273" r="14.4" fill="#3da44d" fill-rule="evenodd" fill-opacity="1" stroke="#000000" stroke-opacity="1" stroke-width="3.2"></circle>
<circle clip-path="url(#clip502)" cx="1476.6" cy="499.899" r="14.4" fill="#3da44d" fill-rule="evenodd" fill-opacity="1" stroke="#000000" stroke-opacity="1" stroke-width="3.2"></circle>
<circle clip-path="url(#clip502)" cx="1884.12" cy="353.201" r="14.4" fill="#3da44d" fill-rule="evenodd" fill-opacity="1" stroke="#000000" stroke-opacity="1" stroke-width="3.2"></circle>
<circle clip-path="url(#clip502)" cx="2291.63" cy="794.638" r="14.4" fill="#3da44d" fill-rule="evenodd" fill-opacity="1" stroke="#000000" stroke-opacity="1" stroke-width="3.2"></circle>
<circle clip-path="url(#clip502)" cx="254.067" cy="683.602" r="14.4" fill="#c271d2" fill-rule="evenodd" fill-opacity="1" stroke="#000000" stroke-opacity="1" stroke-width="3.2"></circle>
<circle clip-path="url(#clip502)" cx="661.58" cy="579.229" r="14.4" fill="#c271d2" fill-rule="evenodd" fill-opacity="1" stroke="#000000" stroke-opacity="1" stroke-width="3.2"></circle>
<circle clip-path="url(#clip502)" cx="1069.09" cy="823.015" r="14.4" fill="#c271d2" fill-rule="evenodd" fill-opacity="1" stroke="#000000" stroke-opacity="1" stroke-width="3.2"></circle>
<circle clip-path="url(#clip502)" cx="1476.6" cy="1099.59" r="14.4" fill="#c271d2" fill-rule="evenodd" fill-opacity="1" stroke="#000000" stroke-opacity="1" stroke-width="3.2"></circle>
<circle clip-path="url(#clip502)" cx="1884.12" cy="786.703" r="14.4" fill="#c271d2" fill-rule="evenodd" fill-opacity="1" stroke="#000000" stroke-opacity="1" stroke-width="3.2"></circle>
<circle clip-path="url(#clip502)" cx="2291.63" cy="1381.61" r="14.4" fill="#c271d2" fill-rule="evenodd" fill-opacity="1" stroke="#000000" stroke-opacity="1" stroke-width="3.2"></circle>
<circle clip-path="url(#clip502)" cx="254.067" cy="694.66" r="14.4" fill="#ac8d18" fill-rule="evenodd" fill-opacity="1" stroke="#000000" stroke-opacity="1" stroke-width="3.2"></circle>
<circle clip-path="url(#clip502)" cx="661.58" cy="763.295" r="14.4" fill="#ac8d18" fill-rule="evenodd" fill-opacity="1" stroke="#000000" stroke-opacity="1" stroke-width="3.2"></circle>
<circle clip-path="url(#clip502)" cx="1069.09" cy="640.477" r="14.4" fill="#ac8d18" fill-rule="evenodd" fill-opacity="1" stroke="#000000" stroke-opacity="1" stroke-width="3.2"></circle>
<circle clip-path="url(#clip502)" cx="1476.6" cy="300.414" r="14.4" fill="#ac8d18" fill-rule="evenodd" fill-opacity="1" stroke="#000000" stroke-opacity="1" stroke-width="3.2"></circle>
<circle clip-path="url(#clip502)" cx="1884.12" cy="1214.64" r="14.4" fill="#ac8d18" fill-rule="evenodd" fill-opacity="1" stroke="#000000" stroke-opacity="1" stroke-width="3.2"></circle>
<circle clip-path="url(#clip502)" cx="2291.63" cy="1026.74" r="14.4" fill="#ac8d18" fill-rule="evenodd" fill-opacity="1" stroke="#000000" stroke-opacity="1" stroke-width="3.2"></circle>
<circle clip-path="url(#clip502)" cx="254.067" cy="87.9763" r="14.4" fill="#00a9ad" fill-rule="evenodd" fill-opacity="1" stroke="#000000" stroke-opacity="1" stroke-width="3.2"></circle>
<circle clip-path="url(#clip502)" cx="661.58" cy="847.323" r="14.4" fill="#00a9ad" fill-rule="evenodd" fill-opacity="1" stroke="#000000" stroke-opacity="1" stroke-width="3.2"></circle>
<circle clip-path="url(#clip502)" cx="1069.09" cy="819.278" r="14.4" fill="#00a9ad" fill-rule="evenodd" fill-opacity="1" stroke="#000000" stroke-opacity="1" stroke-width="3.2"></circle>
<circle clip-path="url(#clip502)" cx="1476.6" cy="806.963" r="14.4" fill="#00a9ad" fill-rule="evenodd" fill-opacity="1" stroke="#000000" stroke-opacity="1" stroke-width="3.2"></circle>
<circle clip-path="url(#clip502)" cx="1884.12" cy="738.08" r="14.4" fill="#00a9ad" fill-rule="evenodd" fill-opacity="1" stroke="#000000" stroke-opacity="1" stroke-width="3.2"></circle>
<circle clip-path="url(#clip502)" cx="2291.63" cy="674.212" r="14.4" fill="#00a9ad" fill-rule="evenodd" fill-opacity="1" stroke="#000000" stroke-opacity="1" stroke-width="3.2"></circle>
<path clip-path="url(#clip500)" d="M264.934 1438.47 L599.064 1438.47 L599.064 1075.59 L264.934 1075.59  Z" fill="#ffffff" fill-rule="evenodd" fill-opacity="1"></path>
<polyline clip-path="url(#clip500)" style="stroke:#000000; stroke-linecap:round; stroke-linejoin:round; stroke-width:4; stroke-opacity:1; fill:none" points="264.934,1438.47 599.064,1438.47 599.064,1075.59 264.934,1075.59 264.934,1438.47 "></polyline>
<circle clip-path="url(#clip500)" cx="360.926" cy="1127.43" r="20.48" fill="#009af9" fill-rule="evenodd" fill-opacity="1" stroke="#000000" stroke-opacity="1" stroke-width="4.55111"></circle>
<path clip-path="url(#clip500)" d="M456.918 1110.15 L478.77 1110.15 L478.77 1114.09 L461.594 1114.09 L461.594 1124.32 L478.052 1124.32 L478.052 1128.26 L461.594 1128.26 L461.594 1140.78 L479.186 1140.78 L479.186 1144.71 L456.918 1144.71 L456.918 1110.15 Z" fill="#000000" fill-rule="nonzero" fill-opacity="1"></path><path clip-path="url(#clip500)" d="M486.872 1110.15 L491.547 1110.15 L491.547 1140.78 L508.376 1140.78 L508.376 1144.71 L486.872 1144.71 L486.872 1110.15 Z" fill="#000000" fill-rule="nonzero" fill-opacity="1"></path><path clip-path="url(#clip500)" d="M525.922 1114.76 L519.58 1131.96 L532.288 1131.96 L525.922 1114.76 M523.283 1110.15 L528.584 1110.15 L541.756 1144.71 L536.894 1144.71 L533.746 1135.85 L518.168 1135.85 L515.02 1144.71 L510.089 1144.71 L523.283 1110.15 Z" fill="#000000" fill-rule="nonzero" fill-opacity="1"></path><path clip-path="url(#clip500)" d="M546.802 1110.15 L553.098 1110.15 L568.422 1139.07 L568.422 1110.15 L572.959 1110.15 L572.959 1144.71 L566.663 1144.71 L551.339 1115.8 L551.339 1144.71 L546.802 1144.71 L546.802 1110.15 Z" fill="#000000" fill-rule="nonzero" fill-opacity="1"></path><circle clip-path="url(#clip500)" cx="360.926" cy="1179.27" r="20.48" fill="#e26f46" fill-rule="evenodd" fill-opacity="1" stroke="#000000" stroke-opacity="1" stroke-width="4.55111"></circle>
<path clip-path="url(#clip500)" d="M456.918 1161.99 L461.594 1161.99 L461.594 1192.62 L478.423 1192.62 L478.423 1196.55 L456.918 1196.55 L456.918 1161.99 Z" fill="#000000" fill-rule="nonzero" fill-opacity="1"></path><path clip-path="url(#clip500)" d="M495.969 1166.6 L489.626 1183.8 L502.334 1183.8 L495.969 1166.6 M493.33 1161.99 L498.631 1161.99 L511.802 1196.55 L506.941 1196.55 L503.793 1187.69 L488.214 1187.69 L485.066 1196.55 L480.136 1196.55 L493.33 1161.99 Z" fill="#000000" fill-rule="nonzero" fill-opacity="1"></path><path clip-path="url(#clip500)" d="M516.848 1161.99 L523.145 1161.99 L538.469 1190.91 L538.469 1161.99 L543.006 1161.99 L543.006 1196.55 L536.709 1196.55 L521.385 1167.64 L521.385 1196.55 L516.848 1196.55 L516.848 1161.99 Z" fill="#000000" fill-rule="nonzero" fill-opacity="1"></path><circle clip-path="url(#clip500)" cx="360.926" cy="1231.11" r="20.48" fill="#3da44d" fill-rule="evenodd" fill-opacity="1" stroke="#000000" stroke-opacity="1" stroke-width="4.55111"></circle>
<path clip-path="url(#clip500)" d="M456.918 1213.83 L463.214 1213.83 L478.538 1242.75 L478.538 1213.83 L483.075 1213.83 L483.075 1248.39 L476.779 1248.39 L461.455 1219.48 L461.455 1248.39 L456.918 1248.39 L456.918 1213.83 Z" fill="#000000" fill-rule="nonzero" fill-opacity="1"></path><path clip-path="url(#clip500)" d="M505.645 1217.91 L493.839 1236.36 L505.645 1236.36 L505.645 1217.91 M504.418 1213.83 L510.297 1213.83 L510.297 1236.36 L515.228 1236.36 L515.228 1240.25 L510.297 1240.25 L510.297 1248.39 L505.645 1248.39 L505.645 1240.25 L490.043 1240.25 L490.043 1235.73 L504.418 1213.83 Z" fill="#000000" fill-rule="nonzero" fill-opacity="1"></path><path clip-path="url(#clip500)" d="M532.959 1216.91 Q529.348 1216.91 527.52 1220.48 Q525.714 1224.02 525.714 1231.15 Q525.714 1238.26 527.52 1241.82 Q529.348 1245.36 532.959 1245.36 Q536.594 1245.36 538.399 1241.82 Q540.228 1238.26 540.228 1231.15 Q540.228 1224.02 538.399 1220.48 Q536.594 1216.91 532.959 1216.91 M532.959 1213.21 Q538.769 1213.21 541.825 1217.82 Q544.904 1222.4 544.904 1231.15 Q544.904 1239.88 541.825 1244.48 Q538.769 1249.07 532.959 1249.07 Q527.149 1249.07 524.07 1244.48 Q521.015 1239.88 521.015 1231.15 Q521.015 1222.4 524.07 1217.82 Q527.149 1213.21 532.959 1213.21 Z" fill="#000000" fill-rule="nonzero" fill-opacity="1"></path><path clip-path="url(#clip500)" d="M563.121 1216.91 Q559.51 1216.91 557.681 1220.48 Q555.876 1224.02 555.876 1231.15 Q555.876 1238.26 557.681 1241.82 Q559.51 1245.36 563.121 1245.36 Q566.755 1245.36 568.561 1241.82 Q570.39 1238.26 570.39 1231.15 Q570.39 1224.02 568.561 1220.48 Q566.755 1216.91 563.121 1216.91 M563.121 1213.21 Q568.931 1213.21 571.987 1217.82 Q575.066 1222.4 575.066 1231.15 Q575.066 1239.88 571.987 1244.48 Q568.931 1249.07 563.121 1249.07 Q557.311 1249.07 554.232 1244.48 Q551.177 1239.88 551.177 1231.15 Q551.177 1222.4 554.232 1217.82 Q557.311 1213.21 563.121 1213.21 Z" fill="#000000" fill-rule="nonzero" fill-opacity="1"></path><circle clip-path="url(#clip500)" cx="360.926" cy="1282.95" r="20.48" fill="#c271d2" fill-rule="evenodd" fill-opacity="1" stroke="#000000" stroke-opacity="1" stroke-width="4.55111"></circle>
<path clip-path="url(#clip500)" d="M456.918 1265.67 L478.77 1265.67 L478.77 1269.61 L461.594 1269.61 L461.594 1279.84 L478.052 1279.84 L478.052 1283.78 L461.594 1283.78 L461.594 1296.3 L479.186 1296.3 L479.186 1300.23 L456.918 1300.23 L456.918 1265.67 Z" fill="#000000" fill-rule="nonzero" fill-opacity="1"></path><path clip-path="url(#clip500)" d="M491.547 1269.52 L491.547 1282.5 L497.427 1282.5 Q500.691 1282.5 502.473 1280.81 Q504.256 1279.12 504.256 1276 Q504.256 1272.9 502.473 1271.21 Q500.691 1269.52 497.427 1269.52 L491.547 1269.52 M486.872 1265.67 L497.427 1265.67 Q503.237 1265.67 506.2 1268.31 Q509.186 1270.93 509.186 1276 Q509.186 1281.11 506.2 1283.73 Q503.237 1286.35 497.427 1286.35 L491.547 1286.35 L491.547 1300.23 L486.872 1300.23 L486.872 1265.67 Z" fill="#000000" fill-rule="nonzero" fill-opacity="1"></path><path clip-path="url(#clip500)" d="M515.459 1265.67 L521.756 1265.67 L537.08 1294.59 L537.08 1265.67 L541.617 1265.67 L541.617 1300.23 L535.32 1300.23 L519.996 1271.32 L519.996 1300.23 L515.459 1300.23 L515.459 1265.67 Z" fill="#000000" fill-rule="nonzero" fill-opacity="1"></path><path clip-path="url(#clip500)" d="M555.598 1269.52 L555.598 1282.5 L561.478 1282.5 Q564.742 1282.5 566.524 1280.81 Q568.306 1279.12 568.306 1276 Q568.306 1272.9 566.524 1271.21 Q564.742 1269.52 561.478 1269.52 L555.598 1269.52 M550.922 1265.67 L561.478 1265.67 Q567.288 1265.67 570.251 1268.31 Q573.237 1270.93 573.237 1276 Q573.237 1281.11 570.251 1283.73 Q567.288 1286.35 561.478 1286.35 L555.598 1286.35 L555.598 1300.23 L550.922 1300.23 L550.922 1265.67 Z" fill="#000000" fill-rule="nonzero" fill-opacity="1"></path><circle clip-path="url(#clip500)" cx="360.926" cy="1334.79" r="20.48" fill="#ac8d18" fill-rule="evenodd" fill-opacity="1" stroke="#000000" stroke-opacity="1" stroke-width="4.55111"></circle>
<path clip-path="url(#clip500)" d="M461.594 1321.36 L461.594 1334.34 L467.474 1334.34 Q470.737 1334.34 472.52 1332.65 Q474.302 1330.96 474.302 1327.84 Q474.302 1324.74 472.52 1323.05 Q470.737 1321.36 467.474 1321.36 L461.594 1321.36 M456.918 1317.51 L467.474 1317.51 Q473.284 1317.51 476.247 1320.15 Q479.233 1322.77 479.233 1327.84 Q479.233 1332.95 476.247 1335.57 Q473.284 1338.19 467.474 1338.19 L461.594 1338.19 L461.594 1352.07 L456.918 1352.07 L456.918 1317.51 Z" fill="#000000" fill-rule="nonzero" fill-opacity="1"></path><path clip-path="url(#clip500)" d="M496.501 1332.93 Q493.353 1332.93 491.501 1335.08 Q489.673 1337.24 489.673 1340.99 Q489.673 1344.71 491.501 1346.89 Q493.353 1349.04 496.501 1349.04 Q499.649 1349.04 501.478 1346.89 Q503.33 1344.71 503.33 1340.99 Q503.33 1337.24 501.478 1335.08 Q499.649 1332.93 496.501 1332.93 M505.784 1318.28 L505.784 1322.54 Q504.024 1321.7 502.219 1321.26 Q500.436 1320.82 498.677 1320.82 Q494.047 1320.82 491.594 1323.95 Q489.163 1327.07 488.816 1333.39 Q490.182 1331.38 492.242 1330.32 Q494.302 1329.23 496.779 1329.23 Q501.987 1329.23 504.997 1332.4 Q508.029 1335.55 508.029 1340.99 Q508.029 1346.31 504.881 1349.53 Q501.733 1352.75 496.501 1352.75 Q490.506 1352.75 487.335 1348.16 Q484.163 1343.56 484.163 1334.83 Q484.163 1326.63 488.052 1321.77 Q491.941 1316.89 498.492 1316.89 Q500.251 1316.89 502.034 1317.24 Q503.839 1317.58 505.784 1318.28 Z" fill="#000000" fill-rule="nonzero" fill-opacity="1"></path><path clip-path="url(#clip500)" d="M526.084 1320.59 Q522.473 1320.59 520.645 1324.16 Q518.839 1327.7 518.839 1334.83 Q518.839 1341.94 520.645 1345.5 Q522.473 1349.04 526.084 1349.04 Q529.719 1349.04 531.524 1345.5 Q533.353 1341.94 533.353 1334.83 Q533.353 1327.7 531.524 1324.16 Q529.719 1320.59 526.084 1320.59 M526.084 1316.89 Q531.895 1316.89 534.95 1321.5 Q538.029 1326.08 538.029 1334.83 Q538.029 1343.56 534.95 1348.16 Q531.895 1352.75 526.084 1352.75 Q520.274 1352.75 517.196 1348.16 Q514.14 1343.56 514.14 1334.83 Q514.14 1326.08 517.196 1321.5 Q520.274 1316.89 526.084 1316.89 Z" fill="#000000" fill-rule="nonzero" fill-opacity="1"></path><path clip-path="url(#clip500)" d="M556.246 1320.59 Q552.635 1320.59 550.806 1324.16 Q549.001 1327.7 549.001 1334.83 Q549.001 1341.94 550.806 1345.5 Q552.635 1349.04 556.246 1349.04 Q559.88 1349.04 561.686 1345.5 Q563.515 1341.94 563.515 1334.83 Q563.515 1327.7 561.686 1324.16 Q559.88 1320.59 556.246 1320.59 M556.246 1316.89 Q562.056 1316.89 565.112 1321.5 Q568.191 1326.08 568.191 1334.83 Q568.191 1343.56 565.112 1348.16 Q562.056 1352.75 556.246 1352.75 Q550.436 1352.75 547.357 1348.16 Q544.302 1343.56 544.302 1334.83 Q544.302 1326.08 547.357 1321.5 Q550.436 1316.89 556.246 1316.89 Z" fill="#000000" fill-rule="nonzero" fill-opacity="1"></path><circle clip-path="url(#clip500)" cx="360.926" cy="1386.63" r="20.48" fill="#00a9ad" fill-rule="evenodd" fill-opacity="1" stroke="#000000" stroke-opacity="1" stroke-width="4.55111"></circle>
<path clip-path="url(#clip500)" d="M461.594 1373.2 L461.594 1386.18 L467.474 1386.18 Q470.737 1386.18 472.52 1384.49 Q474.302 1382.8 474.302 1379.68 Q474.302 1376.58 472.52 1374.89 Q470.737 1373.2 467.474 1373.2 L461.594 1373.2 M456.918 1369.35 L467.474 1369.35 Q473.284 1369.35 476.247 1371.99 Q479.233 1374.61 479.233 1379.68 Q479.233 1384.79 476.247 1387.41 Q473.284 1390.03 467.474 1390.03 L461.594 1390.03 L461.594 1403.91 L456.918 1403.91 L456.918 1369.35 Z" fill="#000000" fill-rule="nonzero" fill-opacity="1"></path><path clip-path="url(#clip500)" d="M485.506 1369.35 L491.802 1369.35 L507.126 1398.27 L507.126 1369.35 L511.663 1369.35 L511.663 1403.91 L505.367 1403.91 L490.043 1375 L490.043 1403.91 L485.506 1403.91 L485.506 1369.35 Z" fill="#000000" fill-rule="nonzero" fill-opacity="1"></path><path clip-path="url(#clip500)" d="M525.645 1373.2 L525.645 1386.18 L531.524 1386.18 Q534.788 1386.18 536.57 1384.49 Q538.353 1382.8 538.353 1379.68 Q538.353 1376.58 536.57 1374.89 Q534.788 1373.2 531.524 1373.2 L525.645 1373.2 M520.969 1369.35 L531.524 1369.35 Q537.334 1369.35 540.297 1371.99 Q543.283 1374.61 543.283 1379.68 Q543.283 1384.79 540.297 1387.41 Q537.334 1390.03 531.524 1390.03 L525.645 1390.03 L525.645 1403.91 L520.969 1403.91 L520.969 1369.35 Z" fill="#000000" fill-rule="nonzero" fill-opacity="1"></path></svg>