<svg xmlns="http://www.w3.org/2000/svg" xmlns:xlink="http://www.w3.org/1999/xlink" width="600" height="400" viewBox="0 0 2400 1600">
<defs>
  <clipPath id="clip490">
    <rect x="0" y="0" width="2400" height="1600"></rect>
  </clipPath>
</defs>
<path clip-path="url(#clip490)" d="M0 1600 L2400 1600 L2400 0 L0 0  Z" fill="#ffffff" fill-rule="evenodd" fill-opacity="1"></path>
<defs>
  <clipPath id="clip491">
    <rect x="480" y="0" width="1681" height="1600"></rect>
  </clipPath>
</defs>
<path clip-path="url(#clip490)" d="M269.838 1486.45 L2352.76 1486.45 L2352.76 183.952 L269.838 183.952  Z" fill="#ffffff" fill-rule="evenodd" fill-opacity="1"></path>
<defs>
  <clipPath id="clip492">
    <rect x="269" y="183" width="2084" height="1303"></rect>
  </clipPath>
</defs>
<polyline clip-path="url(#clip492)" style="stroke:#000000; stroke-linecap:round; stroke-linejoin:round; stroke-width:2; stroke-opacity:0.1; fill:none" points="547.124,1486.45 547.124,183.952 "></polyline>
<polyline clip-path="url(#clip492)" style="stroke:#000000; stroke-linecap:round; stroke-linejoin:round; stroke-width:2; stroke-opacity:0.1; fill:none" points="983.794,1486.45 983.794,183.952 "></polyline>
<polyline clip-path="url(#clip492)" style="stroke:#000000; stroke-linecap:round; stroke-linejoin:round; stroke-width:2; stroke-opacity:0.1; fill:none" points="1420.46,1486.45 1420.46,183.952 "></polyline>
<polyline clip-path="url(#clip492)" style="stroke:#000000; stroke-linecap:round; stroke-linejoin:round; stroke-width:2; stroke-opacity:0.1; fill:none" points="1857.14,1486.45 1857.14,183.952 "></polyline>
<polyline clip-path="url(#clip492)" style="stroke:#000000; stroke-linecap:round; stroke-linejoin:round; stroke-width:2; stroke-opacity:0.1; fill:none" points="2293.81,1486.45 2293.81,183.952 "></polyline>
<polyline clip-path="url(#clip490)" style="stroke:#000000; stroke-linecap:round; stroke-linejoin:round; stroke-width:4; stroke-opacity:1; fill:none" points="269.838,1486.45 2352.76,1486.45 "></polyline>
<polyline clip-path="url(#clip490)" style="stroke:#000000; stroke-linecap:round; stroke-linejoin:round; stroke-width:4; stroke-opacity:1; fill:none" points="547.124,1486.45 547.124,1467.55 "></polyline>
<polyline clip-path="url(#clip490)" style="stroke:#000000; stroke-linecap:round; stroke-linejoin:round; stroke-width:4; stroke-opacity:1; fill:none" points="983.794,1486.45 983.794,1467.55 "></polyline>
<polyline clip-path="url(#clip490)" style="stroke:#000000; stroke-linecap:round; stroke-linejoin:round; stroke-width:4; stroke-opacity:1; fill:none" points="1420.46,1486.45 1420.46,1467.55 "></polyline>
<polyline clip-path="url(#clip490)" style="stroke:#000000; stroke-linecap:round; stroke-linejoin:round; stroke-width:4; stroke-opacity:1; fill:none" points="1857.14,1486.45 1857.14,1467.55 "></polyline>
<polyline clip-path="url(#clip490)" style="stroke:#000000; stroke-linecap:round; stroke-linejoin:round; stroke-width:4; stroke-opacity:1; fill:none" points="2293.81,1486.45 2293.81,1467.55 "></polyline>
<path clip-path="url(#clip490)" d="M541.777 1544.91 L558.096 1544.91 L558.096 1548.85 L536.152 1548.85 L536.152 1544.91 Q538.814 1542.16 543.397 1537.53 Q548.004 1532.88 549.184 1531.53 Q551.43 1529.01 552.309 1527.27 Q553.212 1525.51 553.212 1523.82 Q553.212 1521.07 551.268 1519.33 Q549.346 1517.6 546.244 1517.6 Q544.045 1517.6 541.592 1518.36 Q539.161 1519.13 536.383 1520.68 L536.383 1515.95 Q539.207 1514.82 541.661 1514.24 Q544.115 1513.66 546.152 1513.66 Q551.522 1513.66 554.717 1516.35 Q557.911 1519.03 557.911 1523.52 Q557.911 1525.65 557.101 1527.57 Q556.314 1529.47 554.207 1532.07 Q553.629 1532.74 550.527 1535.95 Q547.425 1539.15 541.777 1544.91 Z" fill="#000000" fill-rule="nonzero" fill-opacity="1"></path><path clip-path="url(#clip490)" d="M986.804 1518.36 L974.998 1536.81 L986.804 1536.81 L986.804 1518.36 M985.577 1514.29 L991.456 1514.29 L991.456 1536.81 L996.387 1536.81 L996.387 1540.7 L991.456 1540.7 L991.456 1548.85 L986.804 1548.85 L986.804 1540.7 L971.202 1540.7 L971.202 1536.19 L985.577 1514.29 Z" fill="#000000" fill-rule="nonzero" fill-opacity="1"></path><path clip-path="url(#clip490)" d="M1420.87 1529.7 Q1417.72 1529.7 1415.87 1531.86 Q1414.04 1534.01 1414.04 1537.76 Q1414.04 1541.49 1415.87 1543.66 Q1417.72 1545.82 1420.87 1545.82 Q1424.02 1545.82 1425.85 1543.66 Q1427.7 1541.49 1427.7 1537.76 Q1427.7 1534.01 1425.85 1531.86 Q1424.02 1529.7 1420.87 1529.7 M1430.15 1515.05 L1430.15 1519.31 Q1428.39 1518.48 1426.59 1518.04 Q1424.8 1517.6 1423.05 1517.6 Q1418.42 1517.6 1415.96 1520.72 Q1413.53 1523.85 1413.18 1530.17 Q1414.55 1528.15 1416.61 1527.09 Q1418.67 1526 1421.15 1526 Q1426.36 1526 1429.37 1529.17 Q1432.4 1532.32 1432.4 1537.76 Q1432.4 1543.08 1429.25 1546.3 Q1426.1 1549.52 1420.87 1549.52 Q1414.87 1549.52 1411.7 1544.94 Q1408.53 1540.33 1408.53 1531.6 Q1408.53 1523.41 1412.42 1518.55 Q1416.31 1513.66 1422.86 1513.66 Q1424.62 1513.66 1426.4 1514.01 Q1428.21 1514.36 1430.15 1515.05 Z" fill="#000000" fill-rule="nonzero" fill-opacity="1"></path><path clip-path="url(#clip490)" d="M1857.14 1532.44 Q1853.8 1532.44 1851.88 1534.22 Q1849.98 1536 1849.98 1539.13 Q1849.98 1542.25 1851.88 1544.03 Q1853.8 1545.82 1857.14 1545.82 Q1860.47 1545.82 1862.39 1544.03 Q1864.31 1542.23 1864.31 1539.13 Q1864.31 1536 1862.39 1534.22 Q1860.49 1532.44 1857.14 1532.44 M1852.46 1530.45 Q1849.45 1529.7 1847.76 1527.64 Q1846.09 1525.58 1846.09 1522.62 Q1846.09 1518.48 1849.03 1516.07 Q1852 1513.66 1857.14 1513.66 Q1862.3 1513.66 1865.24 1516.07 Q1868.18 1518.48 1868.18 1522.62 Q1868.18 1525.58 1866.49 1527.64 Q1864.82 1529.7 1861.83 1530.45 Q1865.21 1531.23 1867.09 1533.52 Q1868.99 1535.82 1868.99 1539.13 Q1868.99 1544.15 1865.91 1546.83 Q1862.85 1549.52 1857.14 1549.52 Q1851.42 1549.52 1848.34 1546.83 Q1845.28 1544.15 1845.28 1539.13 Q1845.28 1535.82 1847.18 1533.52 Q1849.08 1531.23 1852.46 1530.45 M1850.75 1523.06 Q1850.75 1525.75 1852.41 1527.25 Q1854.1 1528.76 1857.14 1528.76 Q1860.14 1528.76 1861.83 1527.25 Q1863.55 1525.75 1863.55 1523.06 Q1863.55 1520.38 1861.83 1518.87 Q1860.14 1517.37 1857.14 1517.37 Q1854.1 1517.37 1852.41 1518.87 Q1850.75 1520.38 1850.75 1523.06 Z" fill="#000000" fill-rule="nonzero" fill-opacity="1"></path><path clip-path="url(#clip490)" d="M2268.49 1544.91 L2276.13 1544.91 L2276.13 1518.55 L2267.82 1520.21 L2267.82 1515.95 L2276.09 1514.29 L2280.76 1514.29 L2280.76 1544.91 L2288.4 1544.91 L2288.4 1548.85 L2268.49 1548.85 L2268.49 1544.91 Z" fill="#000000" fill-rule="nonzero" fill-opacity="1"></path><path clip-path="url(#clip490)" d="M2307.84 1517.37 Q2304.23 1517.37 2302.4 1520.93 Q2300.6 1524.47 2300.6 1531.6 Q2300.6 1538.71 2302.4 1542.27 Q2304.23 1545.82 2307.84 1545.82 Q2311.48 1545.82 2313.28 1542.27 Q2315.11 1538.71 2315.11 1531.6 Q2315.11 1524.47 2313.28 1520.93 Q2311.48 1517.37 2307.84 1517.37 M2307.84 1513.66 Q2313.65 1513.66 2316.71 1518.27 Q2319.79 1522.85 2319.79 1531.6 Q2319.79 1540.33 2316.71 1544.94 Q2313.65 1549.52 2307.84 1549.52 Q2302.03 1549.52 2298.96 1544.94 Q2295.9 1540.33 2295.9 1531.6 Q2295.9 1522.85 2298.96 1518.27 Q2302.03 1513.66 2307.84 1513.66 Z" fill="#000000" fill-rule="nonzero" fill-opacity="1"></path><polyline clip-path="url(#clip492)" style="stroke:#000000; stroke-linecap:round; stroke-linejoin:round; stroke-width:2; stroke-opacity:0.1; fill:none" points="269.838,1269.96 2352.76,1269.96 "></polyline>
<polyline clip-path="url(#clip492)" style="stroke:#000000; stroke-linecap:round; stroke-linejoin:round; stroke-width:2; stroke-opacity:0.1; fill:none" points="269.838,1033.6 2352.76,1033.6 "></polyline>
<polyline clip-path="url(#clip492)" style="stroke:#000000; stroke-linecap:round; stroke-linejoin:round; stroke-width:2; stroke-opacity:0.1; fill:none" points="269.838,797.236 2352.76,797.236 "></polyline>
<polyline clip-path="url(#clip492)" style="stroke:#000000; stroke-linecap:round; stroke-linejoin:round; stroke-width:2; stroke-opacity:0.1; fill:none" points="269.838,560.872 2352.76,560.872 "></polyline>
<polyline clip-path="url(#clip492)" style="stroke:#000000; stroke-linecap:round; stroke-linejoin:round; stroke-width:2; stroke-opacity:0.1; fill:none" points="269.838,324.508 2352.76,324.508 "></polyline>
<polyline clip-path="url(#clip490)" style="stroke:#000000; stroke-linecap:round; stroke-linejoin:round; stroke-width:4; stroke-opacity:1; fill:none" points="269.838,1486.45 269.838,183.952 "></polyline>
<polyline clip-path="url(#clip490)" style="stroke:#000000; stroke-linecap:round; stroke-linejoin:round; stroke-width:4; stroke-opacity:1; fill:none" points="269.838,1269.96 288.736,1269.96 "></polyline>
<polyline clip-path="url(#clip490)" style="stroke:#000000; stroke-linecap:round; stroke-linejoin:round; stroke-width:4; stroke-opacity:1; fill:none" points="269.838,1033.6 288.736,1033.6 "></polyline>
<polyline clip-path="url(#clip490)" style="stroke:#000000; stroke-linecap:round; stroke-linejoin:round; stroke-width:4; stroke-opacity:1; fill:none" points="269.838,797.236 288.736,797.236 "></polyline>
<polyline clip-path="url(#clip490)" style="stroke:#000000; stroke-linecap:round; stroke-linejoin:round; stroke-width:4; stroke-opacity:1; fill:none" points="269.838,560.872 288.736,560.872 "></polyline>
<polyline clip-path="url(#clip490)" style="stroke:#000000; stroke-linecap:round; stroke-linejoin:round; stroke-width:4; stroke-opacity:1; fill:none" points="269.838,324.508 288.736,324.508 "></polyline>
<path clip-path="url(#clip490)" d="M50.9921 1270.41 L80.6679 1270.41 L80.6679 1274.35 L50.9921 1274.35 L50.9921 1270.41 Z" fill="#000000" fill-rule="nonzero" fill-opacity="1"></path><path clip-path="url(#clip490)" d="M90.8067 1252.68 L109.163 1252.68 L109.163 1256.62 L95.0891 1256.62 L95.0891 1265.09 Q96.1076 1264.74 97.1261 1264.58 Q98.1447 1264.4 99.1632 1264.4 Q104.95 1264.4 108.33 1267.57 Q111.709 1270.74 111.709 1276.16 Q111.709 1281.73 108.237 1284.84 Q104.765 1287.91 98.4456 1287.91 Q96.2697 1287.91 94.0012 1287.54 Q91.7558 1287.17 89.3484 1286.43 L89.3484 1281.73 Q91.4317 1282.87 93.6539 1283.42 Q95.8761 1283.98 98.353 1283.98 Q102.358 1283.98 104.696 1281.87 Q107.033 1279.77 107.033 1276.16 Q107.033 1272.54 104.696 1270.44 Q102.358 1268.33 98.353 1268.33 Q96.478 1268.33 94.603 1268.75 Q92.7512 1269.16 90.8067 1270.04 L90.8067 1252.68 Z" fill="#000000" fill-rule="nonzero" fill-opacity="1"></path><path clip-path="url(#clip490)" d="M130.922 1270.83 Q127.589 1270.83 125.668 1272.61 Q123.77 1274.4 123.77 1277.52 Q123.77 1280.65 125.668 1282.43 Q127.589 1284.21 130.922 1284.21 Q134.256 1284.21 136.177 1282.43 Q138.098 1280.62 138.098 1277.52 Q138.098 1274.4 136.177 1272.61 Q134.279 1270.83 130.922 1270.83 M126.246 1268.84 Q123.237 1268.1 121.547 1266.04 Q119.881 1263.98 119.881 1261.02 Q119.881 1256.87 122.82 1254.47 Q125.783 1252.06 130.922 1252.06 Q136.084 1252.06 139.024 1254.47 Q141.964 1256.87 141.964 1261.02 Q141.964 1263.98 140.274 1266.04 Q138.607 1268.1 135.621 1268.84 Q139.001 1269.63 140.876 1271.92 Q142.774 1274.21 142.774 1277.52 Q142.774 1282.54 139.695 1285.23 Q136.64 1287.91 130.922 1287.91 Q125.205 1287.91 122.126 1285.23 Q119.07 1282.54 119.07 1277.52 Q119.07 1274.21 120.969 1271.92 Q122.867 1269.63 126.246 1268.84 M124.533 1261.46 Q124.533 1264.14 126.2 1265.65 Q127.89 1267.15 130.922 1267.15 Q133.931 1267.15 135.621 1265.65 Q137.334 1264.14 137.334 1261.46 Q137.334 1258.77 135.621 1257.27 Q133.931 1255.76 130.922 1255.76 Q127.89 1255.76 126.2 1257.27 Q124.533 1258.77 124.533 1261.46 Z" fill="#000000" fill-rule="nonzero" fill-opacity="1"></path><path clip-path="url(#clip490)" d="M161.084 1255.76 Q157.473 1255.76 155.644 1259.33 Q153.839 1262.87 153.839 1270 Q153.839 1277.1 155.644 1280.67 Q157.473 1284.21 161.084 1284.21 Q164.718 1284.21 166.524 1280.67 Q168.353 1277.1 168.353 1270 Q168.353 1262.87 166.524 1259.33 Q164.718 1255.76 161.084 1255.76 M161.084 1252.06 Q166.894 1252.06 169.95 1256.66 Q173.029 1261.25 173.029 1270 Q173.029 1278.72 169.95 1283.33 Q166.894 1287.91 161.084 1287.91 Q155.274 1287.91 152.195 1283.33 Q149.14 1278.72 149.14 1270 Q149.14 1261.25 152.195 1256.66 Q155.274 1252.06 161.084 1252.06 Z" fill="#000000" fill-rule="nonzero" fill-opacity="1"></path><path clip-path="url(#clip490)" d="M195.413 1268.61 Q198.769 1269.33 200.644 1271.6 Q202.542 1273.86 202.542 1277.2 Q202.542 1282.31 199.024 1285.11 Q195.505 1287.91 189.024 1287.91 Q186.848 1287.91 184.533 1287.47 Q182.241 1287.06 179.788 1286.2 L179.788 1281.69 Q181.732 1282.82 184.047 1283.4 Q186.362 1283.98 188.885 1283.98 Q193.283 1283.98 195.575 1282.24 Q197.889 1280.51 197.889 1277.2 Q197.889 1274.14 195.737 1272.43 Q193.607 1270.69 189.788 1270.69 L185.76 1270.69 L185.76 1266.85 L189.973 1266.85 Q193.422 1266.85 195.251 1265.48 Q197.079 1264.1 197.079 1261.5 Q197.079 1258.84 195.181 1257.43 Q193.306 1255.99 189.788 1255.99 Q187.866 1255.99 185.667 1256.41 Q183.468 1256.83 180.829 1257.71 L180.829 1253.54 Q183.491 1252.8 185.806 1252.43 Q188.144 1252.06 190.204 1252.06 Q195.528 1252.06 198.63 1254.49 Q201.732 1256.9 201.732 1261.02 Q201.732 1263.89 200.089 1265.88 Q198.445 1267.85 195.413 1268.61 Z" fill="#000000" fill-rule="nonzero" fill-opacity="1"></path><path clip-path="url(#clip490)" d="M224.255 1256.76 L212.45 1275.21 L224.255 1275.21 L224.255 1256.76 M223.028 1252.68 L228.908 1252.68 L228.908 1275.21 L233.838 1275.21 L233.838 1279.1 L228.908 1279.1 L228.908 1287.24 L224.255 1287.24 L224.255 1279.1 L208.653 1279.1 L208.653 1274.58 L223.028 1252.68 Z" fill="#000000" fill-rule="nonzero" fill-opacity="1"></path><path clip-path="url(#clip490)" d="M53.0754 1034.05 L82.7512 1034.05 L82.7512 1037.99 L53.0754 1037.99 L53.0754 1034.05 Z" fill="#000000" fill-rule="nonzero" fill-opacity="1"></path><path clip-path="url(#clip490)" d="M92.89 1016.32 L111.246 1016.32 L111.246 1020.25 L97.1724 1020.25 L97.1724 1028.73 Q98.1909 1028.38 99.2095 1028.22 Q100.228 1028.03 101.246 1028.03 Q107.033 1028.03 110.413 1031.2 Q113.793 1034.37 113.793 1039.79 Q113.793 1045.37 110.321 1048.47 Q106.848 1051.55 100.529 1051.55 Q98.353 1051.55 96.0845 1051.18 Q93.8391 1050.81 91.4317 1050.07 L91.4317 1045.37 Q93.515 1046.5 95.7373 1047.06 Q97.9595 1047.62 100.436 1047.62 Q104.441 1047.62 106.779 1045.51 Q109.117 1043.4 109.117 1039.79 Q109.117 1036.18 106.779 1034.07 Q104.441 1031.97 100.436 1031.97 Q98.5613 1031.97 96.6863 1032.38 Q94.8345 1032.8 92.89 1033.68 L92.89 1016.32 Z" fill="#000000" fill-rule="nonzero" fill-opacity="1"></path><path clip-path="url(#clip490)" d="M133.006 1034.47 Q129.672 1034.47 127.751 1036.25 Q125.853 1038.03 125.853 1041.16 Q125.853 1044.28 127.751 1046.06 Q129.672 1047.85 133.006 1047.85 Q136.339 1047.85 138.26 1046.06 Q140.181 1044.26 140.181 1041.16 Q140.181 1038.03 138.26 1036.25 Q136.362 1034.47 133.006 1034.47 M128.33 1032.48 Q125.32 1031.74 123.631 1029.68 Q121.964 1027.62 121.964 1024.65 Q121.964 1020.51 124.904 1018.1 Q127.867 1015.69 133.006 1015.69 Q138.168 1015.69 141.107 1018.1 Q144.047 1020.51 144.047 1024.65 Q144.047 1027.62 142.357 1029.68 Q140.691 1031.74 137.705 1032.48 Q141.084 1033.26 142.959 1035.56 Q144.857 1037.85 144.857 1041.16 Q144.857 1046.18 141.779 1048.87 Q138.723 1051.55 133.006 1051.55 Q127.288 1051.55 124.209 1048.87 Q121.154 1046.18 121.154 1041.16 Q121.154 1037.85 123.052 1035.56 Q124.95 1033.26 128.33 1032.48 M126.617 1025.09 Q126.617 1027.78 128.283 1029.28 Q129.973 1030.79 133.006 1030.79 Q136.015 1030.79 137.705 1029.28 Q139.418 1027.78 139.418 1025.09 Q139.418 1022.41 137.705 1020.9 Q136.015 1019.4 133.006 1019.4 Q129.973 1019.4 128.283 1020.9 Q126.617 1022.41 126.617 1025.09 Z" fill="#000000" fill-rule="nonzero" fill-opacity="1"></path><path clip-path="url(#clip490)" d="M163.167 1019.4 Q159.556 1019.4 157.728 1022.96 Q155.922 1026.5 155.922 1033.63 Q155.922 1040.74 157.728 1044.31 Q159.556 1047.85 163.167 1047.85 Q166.802 1047.85 168.607 1044.31 Q170.436 1040.74 170.436 1033.63 Q170.436 1026.5 168.607 1022.96 Q166.802 1019.4 163.167 1019.4 M163.167 1015.69 Q168.978 1015.69 172.033 1020.3 Q175.112 1024.88 175.112 1033.63 Q175.112 1042.36 172.033 1046.97 Q168.978 1051.55 163.167 1051.55 Q157.357 1051.55 154.279 1046.97 Q151.223 1042.36 151.223 1033.63 Q151.223 1024.88 154.279 1020.3 Q157.357 1015.69 163.167 1015.69 Z" fill="#000000" fill-rule="nonzero" fill-opacity="1"></path><path clip-path="url(#clip490)" d="M197.496 1032.25 Q200.852 1032.96 202.727 1035.23 Q204.626 1037.5 204.626 1040.83 Q204.626 1045.95 201.107 1048.75 Q197.589 1051.55 191.107 1051.55 Q188.931 1051.55 186.616 1051.11 Q184.325 1050.69 181.871 1049.84 L181.871 1045.32 Q183.815 1046.46 186.13 1047.04 Q188.445 1047.62 190.968 1047.62 Q195.366 1047.62 197.658 1045.88 Q199.973 1044.14 199.973 1040.83 Q199.973 1037.78 197.82 1036.06 Q195.69 1034.33 191.871 1034.33 L187.843 1034.33 L187.843 1030.49 L192.056 1030.49 Q195.505 1030.49 197.334 1029.12 Q199.163 1027.73 199.163 1025.14 Q199.163 1022.48 197.264 1021.06 Q195.39 1019.63 191.871 1019.63 Q189.95 1019.63 187.751 1020.05 Q185.552 1020.46 182.913 1021.34 L182.913 1017.18 Q185.575 1016.44 187.89 1016.06 Q190.227 1015.69 192.288 1015.69 Q197.612 1015.69 200.714 1018.12 Q203.815 1020.53 203.815 1024.65 Q203.815 1027.52 202.172 1029.51 Q200.528 1031.48 197.496 1032.25 Z" fill="#000000" fill-rule="nonzero" fill-opacity="1"></path><path clip-path="url(#clip490)" d="M217.519 1046.94 L233.838 1046.94 L233.838 1050.88 L211.894 1050.88 L211.894 1046.94 Q214.556 1044.19 219.139 1039.56 Q223.746 1034.91 224.926 1033.56 Q227.172 1031.04 228.051 1029.31 Q228.954 1027.55 228.954 1025.86 Q228.954 1023.1 227.01 1021.37 Q225.088 1019.63 221.987 1019.63 Q219.788 1019.63 217.334 1020.39 Q214.903 1021.16 212.126 1022.71 L212.126 1017.99 Q214.95 1016.85 217.403 1016.27 Q219.857 1015.69 221.894 1015.69 Q227.264 1015.69 230.459 1018.38 Q233.653 1021.06 233.653 1025.56 Q233.653 1027.69 232.843 1029.61 Q232.056 1031.5 229.95 1034.1 Q229.371 1034.77 226.269 1037.99 Q223.167 1041.18 217.519 1046.94 Z" fill="#000000" fill-rule="nonzero" fill-opacity="1"></path><path clip-path="url(#clip490)" d="M51.4782 797.687 L81.154 797.687 L81.154 801.622 L51.4782 801.622 L51.4782 797.687 Z" fill="#000000" fill-rule="nonzero" fill-opacity="1"></path><path clip-path="url(#clip490)" d="M91.2928 779.956 L109.649 779.956 L109.649 783.891 L95.5752 783.891 L95.5752 792.363 Q96.5937 792.016 97.6122 791.854 Q98.6308 791.669 99.6493 791.669 Q105.436 791.669 108.816 794.84 Q112.196 798.011 112.196 803.428 Q112.196 809.007 108.723 812.108 Q105.251 815.187 98.9317 815.187 Q96.7558 815.187 94.4873 814.817 Q92.2419 814.446 89.8345 813.706 L89.8345 809.007 Q91.9178 810.141 94.14 810.696 Q96.3623 811.252 98.8391 811.252 Q102.844 811.252 105.182 809.145 Q107.52 807.039 107.52 803.428 Q107.52 799.817 105.182 797.71 Q102.844 795.604 98.8391 795.604 Q96.9641 795.604 95.0891 796.021 Q93.2373 796.437 91.2928 797.317 L91.2928 779.956 Z" fill="#000000" fill-rule="nonzero" fill-opacity="1"></path><path clip-path="url(#clip490)" d="M131.408 798.104 Q128.075 798.104 126.154 799.886 Q124.256 801.669 124.256 804.794 Q124.256 807.919 126.154 809.701 Q128.075 811.483 131.408 811.483 Q134.742 811.483 136.663 809.701 Q138.584 807.895 138.584 804.794 Q138.584 801.669 136.663 799.886 Q134.765 798.104 131.408 798.104 M126.732 796.113 Q123.723 795.372 122.033 793.312 Q120.367 791.252 120.367 788.289 Q120.367 784.146 123.307 781.738 Q126.27 779.331 131.408 779.331 Q136.57 779.331 139.51 781.738 Q142.45 784.146 142.45 788.289 Q142.45 791.252 140.76 793.312 Q139.094 795.372 136.107 796.113 Q139.487 796.9 141.362 799.192 Q143.26 801.483 143.26 804.794 Q143.26 809.817 140.181 812.502 Q137.126 815.187 131.408 815.187 Q125.691 815.187 122.612 812.502 Q119.557 809.817 119.557 804.794 Q119.557 801.483 121.455 799.192 Q123.353 796.9 126.732 796.113 M125.02 788.729 Q125.02 791.414 126.686 792.919 Q128.376 794.423 131.408 794.423 Q134.418 794.423 136.107 792.919 Q137.82 791.414 137.82 788.729 Q137.82 786.044 136.107 784.539 Q134.418 783.034 131.408 783.034 Q128.376 783.034 126.686 784.539 Q125.02 786.044 125.02 788.729 Z" fill="#000000" fill-rule="nonzero" fill-opacity="1"></path><path clip-path="url(#clip490)" d="M161.57 783.034 Q157.959 783.034 156.13 786.599 Q154.325 790.141 154.325 797.27 Q154.325 804.377 156.13 807.942 Q157.959 811.483 161.57 811.483 Q165.204 811.483 167.01 807.942 Q168.839 804.377 168.839 797.27 Q168.839 790.141 167.01 786.599 Q165.204 783.034 161.57 783.034 M161.57 779.331 Q167.38 779.331 170.436 783.937 Q173.515 788.521 173.515 797.27 Q173.515 805.997 170.436 810.604 Q167.38 815.187 161.57 815.187 Q155.76 815.187 152.681 810.604 Q149.626 805.997 149.626 797.27 Q149.626 788.521 152.681 783.937 Q155.76 779.331 161.57 779.331 Z" fill="#000000" fill-rule="nonzero" fill-opacity="1"></path><path clip-path="url(#clip490)" d="M195.899 795.882 Q199.255 796.599 201.13 798.868 Q203.028 801.136 203.028 804.47 Q203.028 809.585 199.51 812.386 Q195.991 815.187 189.51 815.187 Q187.334 815.187 185.019 814.747 Q182.728 814.331 180.274 813.474 L180.274 808.96 Q182.218 810.095 184.533 810.673 Q186.848 811.252 189.371 811.252 Q193.769 811.252 196.061 809.516 Q198.376 807.78 198.376 804.47 Q198.376 801.414 196.223 799.701 Q194.093 797.965 190.274 797.965 L186.246 797.965 L186.246 794.122 L190.459 794.122 Q193.908 794.122 195.737 792.757 Q197.565 791.368 197.565 788.775 Q197.565 786.113 195.667 784.701 Q193.792 783.266 190.274 783.266 Q188.353 783.266 186.153 783.683 Q183.954 784.099 181.316 784.979 L181.316 780.812 Q183.978 780.072 186.292 779.701 Q188.63 779.331 190.69 779.331 Q196.014 779.331 199.116 781.761 Q202.218 784.169 202.218 788.289 Q202.218 791.159 200.575 793.15 Q198.931 795.118 195.899 795.882 Z" fill="#000000" fill-rule="nonzero" fill-opacity="1"></path><path clip-path="url(#clip490)" d="M221.894 783.034 Q218.283 783.034 216.454 786.599 Q214.649 790.141 214.649 797.27 Q214.649 804.377 216.454 807.942 Q218.283 811.483 221.894 811.483 Q225.528 811.483 227.334 807.942 Q229.162 804.377 229.162 797.27 Q229.162 790.141 227.334 786.599 Q225.528 783.034 221.894 783.034 M221.894 779.331 Q227.704 779.331 230.76 783.937 Q233.838 788.521 233.838 797.27 Q233.838 805.997 230.76 810.604 Q227.704 815.187 221.894 815.187 Q216.084 815.187 213.005 810.604 Q209.95 805.997 209.95 797.27 Q209.95 788.521 213.005 783.937 Q216.084 779.331 221.894 779.331 Z" fill="#000000" fill-rule="nonzero" fill-opacity="1"></path><path clip-path="url(#clip490)" d="M51.5708 561.323 L81.2466 561.323 L81.2466 565.259 L51.5708 565.259 L51.5708 561.323 Z" fill="#000000" fill-rule="nonzero" fill-opacity="1"></path><path clip-path="url(#clip490)" d="M91.3854 543.592 L109.742 543.592 L109.742 547.527 L95.6678 547.527 L95.6678 555.999 Q96.6863 555.652 97.7048 555.49 Q98.7234 555.305 99.7419 555.305 Q105.529 555.305 108.908 558.476 Q112.288 561.648 112.288 567.064 Q112.288 572.643 108.816 575.745 Q105.344 578.823 99.0243 578.823 Q96.8484 578.823 94.5799 578.453 Q92.3345 578.083 89.9271 577.342 L89.9271 572.643 Q92.0104 573.777 94.2326 574.333 Q96.4548 574.888 98.9317 574.888 Q102.936 574.888 105.274 572.782 Q107.612 570.675 107.612 567.064 Q107.612 563.453 105.274 561.347 Q102.936 559.24 98.9317 559.24 Q97.0567 559.24 95.1817 559.657 Q93.3299 560.073 91.3854 560.953 L91.3854 543.592 Z" fill="#000000" fill-rule="nonzero" fill-opacity="1"></path><path clip-path="url(#clip490)" d="M131.501 561.74 Q128.168 561.74 126.246 563.523 Q124.348 565.305 124.348 568.43 Q124.348 571.555 126.246 573.337 Q128.168 575.12 131.501 575.12 Q134.834 575.12 136.756 573.337 Q138.677 571.532 138.677 568.43 Q138.677 565.305 136.756 563.523 Q134.857 561.74 131.501 561.74 M126.825 559.749 Q123.816 559.009 122.126 556.949 Q120.459 554.888 120.459 551.925 Q120.459 547.782 123.399 545.375 Q126.362 542.967 131.501 542.967 Q136.663 542.967 139.603 545.375 Q142.543 547.782 142.543 551.925 Q142.543 554.888 140.853 556.949 Q139.186 559.009 136.2 559.749 Q139.58 560.536 141.455 562.828 Q143.353 565.12 143.353 568.43 Q143.353 573.453 140.274 576.138 Q137.219 578.823 131.501 578.823 Q125.783 578.823 122.705 576.138 Q119.649 573.453 119.649 568.43 Q119.649 565.12 121.547 562.828 Q123.445 560.536 126.825 559.749 M125.112 552.365 Q125.112 555.05 126.779 556.555 Q128.469 558.06 131.501 558.06 Q134.51 558.06 136.2 556.555 Q137.913 555.05 137.913 552.365 Q137.913 549.68 136.2 548.175 Q134.51 546.671 131.501 546.671 Q128.469 546.671 126.779 548.175 Q125.112 549.68 125.112 552.365 Z" fill="#000000" fill-rule="nonzero" fill-opacity="1"></path><path clip-path="url(#clip490)" d="M161.663 546.671 Q158.052 546.671 156.223 550.236 Q154.417 553.777 154.417 560.907 Q154.417 568.013 156.223 571.578 Q158.052 575.12 161.663 575.12 Q165.297 575.12 167.103 571.578 Q168.931 568.013 168.931 560.907 Q168.931 553.777 167.103 550.236 Q165.297 546.671 161.663 546.671 M161.663 542.967 Q167.473 542.967 170.529 547.574 Q173.607 552.157 173.607 560.907 Q173.607 569.634 170.529 574.24 Q167.473 578.823 161.663 578.823 Q155.853 578.823 152.774 574.24 Q149.718 569.634 149.718 560.907 Q149.718 552.157 152.774 547.574 Q155.853 542.967 161.663 542.967 Z" fill="#000000" fill-rule="nonzero" fill-opacity="1"></path><path clip-path="url(#clip490)" d="M185.853 574.217 L202.172 574.217 L202.172 578.152 L180.228 578.152 L180.228 574.217 Q182.89 571.462 187.473 566.833 Q192.079 562.18 193.26 560.837 Q195.505 558.314 196.385 556.578 Q197.288 554.819 197.288 553.129 Q197.288 550.374 195.343 548.638 Q193.422 546.902 190.32 546.902 Q188.121 546.902 185.667 547.666 Q183.237 548.43 180.459 549.981 L180.459 545.259 Q183.283 544.125 185.737 543.546 Q188.19 542.967 190.227 542.967 Q195.598 542.967 198.792 545.652 Q201.987 548.337 201.987 552.828 Q201.987 554.958 201.177 556.879 Q200.389 558.777 198.283 561.37 Q197.704 562.041 194.602 565.259 Q191.501 568.453 185.853 574.217 Z" fill="#000000" fill-rule="nonzero" fill-opacity="1"></path><path clip-path="url(#clip490)" d="M221.987 561.74 Q218.653 561.74 216.732 563.523 Q214.834 565.305 214.834 568.43 Q214.834 571.555 216.732 573.337 Q218.653 575.12 221.987 575.12 Q225.32 575.12 227.241 573.337 Q229.162 571.532 229.162 568.43 Q229.162 565.305 227.241 563.523 Q225.343 561.74 221.987 561.74 M217.311 559.749 Q214.301 559.009 212.612 556.949 Q210.945 554.888 210.945 551.925 Q210.945 547.782 213.885 545.375 Q216.848 542.967 221.987 542.967 Q227.149 542.967 230.088 545.375 Q233.028 547.782 233.028 551.925 Q233.028 554.888 231.338 556.949 Q229.672 559.009 226.686 559.749 Q230.065 560.536 231.94 562.828 Q233.838 565.12 233.838 568.43 Q233.838 573.453 230.76 576.138 Q227.704 578.823 221.987 578.823 Q216.269 578.823 213.19 576.138 Q210.135 573.453 210.135 568.43 Q210.135 565.12 212.033 562.828 Q213.931 560.536 217.311 559.749 M215.598 552.365 Q215.598 555.05 217.264 556.555 Q218.954 558.06 221.987 558.06 Q224.996 558.06 226.686 556.555 Q228.399 555.05 228.399 552.365 Q228.399 549.68 226.686 548.175 Q224.996 546.671 221.987 546.671 Q218.954 546.671 217.264 548.175 Q215.598 549.68 215.598 552.365 Z" fill="#000000" fill-rule="nonzero" fill-opacity="1"></path><path clip-path="url(#clip490)" d="M51.3162 324.96 L80.992 324.96 L80.992 328.895 L51.3162 328.895 L51.3162 324.96 Z" fill="#000000" fill-rule="nonzero" fill-opacity="1"></path><path clip-path="url(#clip490)" d="M91.1308 307.228 L109.487 307.228 L109.487 311.164 L95.4132 311.164 L95.4132 319.636 Q96.4317 319.289 97.4502 319.127 Q98.4687 318.941 99.4872 318.941 Q105.274 318.941 108.654 322.113 Q112.033 325.284 112.033 330.701 Q112.033 336.279 108.561 339.381 Q105.089 342.46 98.7696 342.46 Q96.5937 342.46 94.3252 342.089 Q92.0799 341.719 89.6725 340.978 L89.6725 336.279 Q91.7558 337.413 93.978 337.969 Q96.2002 338.525 98.6771 338.525 Q102.682 338.525 105.02 336.418 Q107.358 334.312 107.358 330.701 Q107.358 327.089 105.02 324.983 Q102.682 322.877 98.6771 322.877 Q96.8021 322.877 94.9271 323.293 Q93.0752 323.71 91.1308 324.589 L91.1308 307.228 Z" fill="#000000" fill-rule="nonzero" fill-opacity="1"></path><path clip-path="url(#clip490)" d="M131.246 325.376 Q127.913 325.376 125.992 327.159 Q124.094 328.941 124.094 332.066 Q124.094 335.191 125.992 336.974 Q127.913 338.756 131.246 338.756 Q134.58 338.756 136.501 336.974 Q138.422 335.168 138.422 332.066 Q138.422 328.941 136.501 327.159 Q134.603 325.376 131.246 325.376 M126.57 323.386 Q123.561 322.645 121.871 320.585 Q120.205 318.525 120.205 315.562 Q120.205 311.418 123.145 309.011 Q126.107 306.603 131.246 306.603 Q136.408 306.603 139.348 309.011 Q142.288 311.418 142.288 315.562 Q142.288 318.525 140.598 320.585 Q138.931 322.645 135.945 323.386 Q139.325 324.173 141.2 326.464 Q143.098 328.756 143.098 332.066 Q143.098 337.089 140.019 339.775 Q136.964 342.46 131.246 342.46 Q125.529 342.46 122.45 339.775 Q119.395 337.089 119.395 332.066 Q119.395 328.756 121.293 326.464 Q123.191 324.173 126.57 323.386 M124.857 316.002 Q124.857 318.687 126.524 320.191 Q128.214 321.696 131.246 321.696 Q134.256 321.696 135.945 320.191 Q137.658 318.687 137.658 316.002 Q137.658 313.316 135.945 311.812 Q134.256 310.307 131.246 310.307 Q128.214 310.307 126.524 311.812 Q124.857 313.316 124.857 316.002 Z" fill="#000000" fill-rule="nonzero" fill-opacity="1"></path><path clip-path="url(#clip490)" d="M161.408 310.307 Q157.797 310.307 155.968 313.872 Q154.163 317.414 154.163 324.543 Q154.163 331.65 155.968 335.214 Q157.797 338.756 161.408 338.756 Q165.042 338.756 166.848 335.214 Q168.677 331.65 168.677 324.543 Q168.677 317.414 166.848 313.872 Q165.042 310.307 161.408 310.307 M161.408 306.603 Q167.218 306.603 170.274 311.21 Q173.353 315.793 173.353 324.543 Q173.353 333.27 170.274 337.876 Q167.218 342.46 161.408 342.46 Q155.598 342.46 152.519 337.876 Q149.464 333.27 149.464 324.543 Q149.464 315.793 152.519 311.21 Q155.598 306.603 161.408 306.603 Z" fill="#000000" fill-rule="nonzero" fill-opacity="1"></path><path clip-path="url(#clip490)" d="M185.598 337.853 L201.917 337.853 L201.917 341.788 L179.973 341.788 L179.973 337.853 Q182.635 335.099 187.218 330.469 Q191.825 325.816 193.005 324.474 Q195.251 321.951 196.13 320.214 Q197.033 318.455 197.033 316.765 Q197.033 314.011 195.089 312.275 Q193.167 310.539 190.065 310.539 Q187.866 310.539 185.413 311.302 Q182.982 312.066 180.204 313.617 L180.204 308.895 Q183.028 307.761 185.482 307.182 Q187.936 306.603 189.973 306.603 Q195.343 306.603 198.538 309.289 Q201.732 311.974 201.732 316.464 Q201.732 318.594 200.922 320.515 Q200.135 322.414 198.028 325.006 Q197.45 325.677 194.348 328.895 Q191.246 332.089 185.598 337.853 Z" fill="#000000" fill-rule="nonzero" fill-opacity="1"></path><path clip-path="url(#clip490)" d="M222.311 322.645 Q219.163 322.645 217.311 324.798 Q215.482 326.951 215.482 330.701 Q215.482 334.427 217.311 336.603 Q219.163 338.756 222.311 338.756 Q225.459 338.756 227.287 336.603 Q229.139 334.427 229.139 330.701 Q229.139 326.951 227.287 324.798 Q225.459 322.645 222.311 322.645 M231.593 307.992 L231.593 312.252 Q229.834 311.418 228.028 310.978 Q226.246 310.539 224.487 310.539 Q219.857 310.539 217.403 313.664 Q214.973 316.789 214.626 323.108 Q215.991 321.094 218.051 320.029 Q220.112 318.941 222.588 318.941 Q227.797 318.941 230.806 322.113 Q233.838 325.261 233.838 330.701 Q233.838 336.025 230.69 339.242 Q227.542 342.46 222.311 342.46 Q216.315 342.46 213.144 337.876 Q209.973 333.27 209.973 324.543 Q209.973 316.349 213.862 311.488 Q217.75 306.603 224.301 306.603 Q226.061 306.603 227.843 306.951 Q229.649 307.298 231.593 307.992 Z" fill="#000000" fill-rule="nonzero" fill-opacity="1"></path><path clip-path="url(#clip490)" d="M601.761 39.9885 L601.761 62.7141 L612.05 62.7141 Q617.762 62.7141 620.881 59.7569 Q624 56.7998 624 51.331 Q624 45.9028 620.881 42.9457 Q617.762 39.9885 612.05 39.9885 L601.761 39.9885 M593.578 33.264 L612.05 33.264 Q622.218 33.264 627.403 37.882 Q632.629 42.4596 632.629 51.331 Q632.629 60.2835 627.403 64.8611 Q622.218 69.4386 612.05 69.4386 L601.761 69.4386 L601.761 93.744 L593.578 93.744 L593.578 33.264 Z" fill="#000000" fill-rule="nonzero" fill-opacity="1"></path><path clip-path="url(#clip490)" d="M679.862 35.2489 L679.862 43.2292 Q675.204 41.0012 671.072 39.9075 Q666.94 38.8137 663.092 38.8137 Q656.408 38.8137 652.762 41.4063 Q649.157 43.9989 649.157 48.779 Q649.157 52.7894 651.547 54.8553 Q653.977 56.8808 660.702 58.1366 L665.644 59.1493 Q674.799 60.8912 679.133 65.3067 Q683.508 69.6816 683.508 77.0543 Q683.508 85.8447 677.594 90.3817 Q671.72 94.9188 660.337 94.9188 Q656.043 94.9188 651.182 93.9465 Q646.361 92.9743 641.176 91.0704 L641.176 82.6445 Q646.159 85.4396 650.939 86.8575 Q655.719 88.2753 660.337 88.2753 Q667.345 88.2753 671.153 85.5207 Q674.961 82.766 674.961 77.6619 Q674.961 73.2059 672.206 70.6944 Q669.492 68.1828 663.254 66.927 L658.271 65.9548 Q649.116 64.1319 645.025 60.243 Q640.933 56.3542 640.933 49.4271 Q640.933 41.4063 646.564 36.7883 Q652.235 32.1703 662.16 32.1703 Q666.413 32.1703 670.829 32.9399 Q675.244 33.7096 679.862 35.2489 Z" fill="#000000" fill-rule="nonzero" fill-opacity="1"></path><path clip-path="url(#clip490)" d="M696.269 33.264 L704.451 33.264 L704.451 93.744 L696.269 93.744 L696.269 33.264 Z" fill="#000000" fill-rule="nonzero" fill-opacity="1"></path><path clip-path="url(#clip490)" d="M756.992 35.2489 L756.992 43.2292 Q752.333 41.0012 748.201 39.9075 Q744.069 38.8137 740.221 38.8137 Q733.537 38.8137 729.891 41.4063 Q726.286 43.9989 726.286 48.779 Q726.286 52.7894 728.676 54.8553 Q731.106 56.8808 737.831 58.1366 L742.773 59.1493 Q751.928 60.8912 756.262 65.3067 Q760.637 69.6816 760.637 77.0543 Q760.637 85.8447 754.723 90.3817 Q748.849 94.9188 737.466 94.9188 Q733.172 94.9188 728.311 93.9465 Q723.491 92.9743 718.306 91.0704 L718.306 82.6445 Q723.288 85.4396 728.068 86.8575 Q732.848 88.2753 737.466 88.2753 Q744.474 88.2753 748.282 85.5207 Q752.09 82.766 752.09 77.6619 Q752.09 73.2059 749.335 70.6944 Q746.621 68.1828 740.383 66.927 L735.4 65.9548 Q726.245 64.1319 722.154 60.243 Q718.062 56.3542 718.062 49.4271 Q718.062 41.4063 723.693 36.7883 Q729.364 32.1703 739.289 32.1703 Q743.543 32.1703 747.958 32.9399 Q752.374 33.7096 756.992 35.2489 Z" fill="#000000" fill-rule="nonzero" fill-opacity="1"></path><path clip-path="url(#clip490)" d="M822.414 30.7119 L822.414 36.9098 L815.284 36.9098 Q811.274 36.9098 809.694 38.5302 Q808.155 40.1505 808.155 44.3635 L808.155 48.3739 L820.429 48.3739 L820.429 54.1667 L808.155 54.1667 L808.155 93.744 L800.66 93.744 L800.66 54.1667 L793.531 54.1667 L793.531 48.3739 L800.66 48.3739 L800.66 45.2142 Q800.66 37.639 804.185 34.1957 Q807.709 30.7119 815.365 30.7119 L822.414 30.7119 Z" fill="#000000" fill-rule="nonzero" fill-opacity="1"></path><path clip-path="url(#clip490)" d="M846.233 53.5995 Q840.238 53.5995 836.754 58.2986 Q833.27 62.9571 833.27 71.0994 Q833.27 79.2418 836.713 83.9408 Q840.197 88.5994 846.233 88.5994 Q852.188 88.5994 855.672 83.9003 Q859.155 79.2013 859.155 71.0994 Q859.155 63.0381 855.672 58.3391 Q852.188 53.5995 846.233 53.5995 M846.233 47.2801 Q855.955 47.2801 861.505 53.5995 Q867.055 59.9189 867.055 71.0994 Q867.055 82.2394 861.505 88.5994 Q855.955 94.9188 846.233 94.9188 Q836.47 94.9188 830.921 88.5994 Q825.411 82.2394 825.411 71.0994 Q825.411 59.9189 830.921 53.5995 Q836.47 47.2801 846.233 47.2801 Z" fill="#000000" fill-rule="nonzero" fill-opacity="1"></path><path clip-path="url(#clip490)" d="M905.7 55.3414 Q904.445 54.6123 902.946 54.2882 Q901.487 53.9236 899.705 53.9236 Q893.386 53.9236 889.983 58.0555 Q886.621 62.1469 886.621 69.8437 L886.621 93.744 L879.126 93.744 L879.126 48.3739 L886.621 48.3739 L886.621 55.4224 Q888.97 51.2905 892.737 49.3056 Q896.505 47.2801 901.893 47.2801 Q902.662 47.2801 903.594 47.4017 Q904.526 47.4827 905.66 47.6852 L905.7 55.3414 Z" fill="#000000" fill-rule="nonzero" fill-opacity="1"></path><path clip-path="url(#clip490)" d="M969.745 55.2604 L969.745 30.7119 L977.199 30.7119 L977.199 93.744 L969.745 93.744 L969.745 86.9385 Q967.396 90.9894 963.79 92.9743 Q960.226 94.9188 955.202 94.9188 Q946.979 94.9188 941.794 88.3563 Q936.649 81.7938 936.649 71.0994 Q936.649 60.4051 941.794 53.8426 Q946.979 47.2801 955.202 47.2801 Q960.226 47.2801 963.79 49.2651 Q967.396 51.2095 969.745 55.2604 M944.346 71.0994 Q944.346 79.3228 947.708 84.0218 Q951.111 88.6804 957.025 88.6804 Q962.94 88.6804 966.342 84.0218 Q969.745 79.3228 969.745 71.0994 Q969.745 62.8761 966.342 58.2176 Q962.94 53.5185 957.025 53.5185 Q951.111 53.5185 947.708 58.2176 Q944.346 62.8761 944.346 71.0994 Z" fill="#000000" fill-rule="nonzero" fill-opacity="1"></path><path clip-path="url(#clip490)" d="M992.552 48.3739 L1000.01 48.3739 L1000.01 93.744 L992.552 93.744 L992.552 48.3739 M992.552 30.7119 L1000.01 30.7119 L1000.01 40.1505 L992.552 40.1505 L992.552 30.7119 Z" fill="#000000" fill-rule="nonzero" fill-opacity="1"></path><path clip-path="url(#clip490)" d="M1038.57 30.7119 L1038.57 36.9098 L1031.44 36.9098 Q1027.43 36.9098 1025.85 38.5302 Q1024.31 40.1505 1024.31 44.3635 L1024.31 48.3739 L1036.59 48.3739 L1036.59 54.1667 L1024.31 54.1667 L1024.31 93.744 L1016.82 93.744 L1016.82 54.1667 L1009.69 54.1667 L1009.69 48.3739 L1016.82 48.3739 L1016.82 45.2142 Q1016.82 37.639 1020.34 34.1957 Q1023.87 30.7119 1031.52 30.7119 L1038.57 30.7119 Z" fill="#000000" fill-rule="nonzero" fill-opacity="1"></path><path clip-path="url(#clip490)" d="M1067.78 30.7119 L1067.78 36.9098 L1060.65 36.9098 Q1056.64 36.9098 1055.06 38.5302 Q1053.52 40.1505 1053.52 44.3635 L1053.52 48.3739 L1065.79 48.3739 L1065.79 54.1667 L1053.52 54.1667 L1053.52 93.744 L1046.02 93.744 L1046.02 54.1667 L1038.89 54.1667 L1038.89 48.3739 L1046.02 48.3739 L1046.02 45.2142 Q1046.02 37.639 1049.55 34.1957 Q1053.07 30.7119 1060.73 30.7119 L1067.78 30.7119 Z" fill="#000000" fill-rule="nonzero" fill-opacity="1"></path><path clip-path="url(#clip490)" d="M1112.82 69.1955 L1112.82 72.8413 L1078.55 72.8413 Q1079.04 80.5381 1083.17 84.589 Q1087.34 88.5994 1094.76 88.5994 Q1099.05 88.5994 1103.06 87.5461 Q1107.11 86.4929 1111.08 84.3864 L1111.08 91.435 Q1107.07 93.1364 1102.86 94.0276 Q1098.64 94.9188 1094.31 94.9188 Q1083.45 94.9188 1077.09 88.5994 Q1070.77 82.2799 1070.77 71.5045 Q1070.77 60.3645 1076.77 53.8426 Q1082.81 47.2801 1093.01 47.2801 Q1102.17 47.2801 1107.48 53.1944 Q1112.82 59.0683 1112.82 69.1955 M1105.37 67.008 Q1105.29 60.8912 1101.93 57.2454 Q1098.6 53.5995 1093.1 53.5995 Q1086.86 53.5995 1083.09 57.1238 Q1079.36 60.6481 1078.8 67.0485 L1105.37 67.008 Z" fill="#000000" fill-rule="nonzero" fill-opacity="1"></path><path clip-path="url(#clip490)" d="M1151.35 55.3414 Q1150.09 54.6123 1148.59 54.2882 Q1147.13 53.9236 1145.35 53.9236 Q1139.03 53.9236 1135.63 58.0555 Q1132.27 62.1469 1132.27 69.8437 L1132.27 93.744 L1124.77 93.744 L1124.77 48.3739 L1132.27 48.3739 L1132.27 55.4224 Q1134.62 51.2905 1138.38 49.3056 Q1142.15 47.2801 1147.54 47.2801 Q1148.31 47.2801 1149.24 47.4017 Q1150.17 47.4827 1151.31 47.6852 L1151.35 55.3414 Z" fill="#000000" fill-rule="nonzero" fill-opacity="1"></path><path clip-path="url(#clip490)" d="M1196.15 69.1955 L1196.15 72.8413 L1161.88 72.8413 Q1162.37 80.5381 1166.5 84.589 Q1170.67 88.5994 1178.08 88.5994 Q1182.38 88.5994 1186.39 87.5461 Q1190.44 86.4929 1194.41 84.3864 L1194.41 91.435 Q1190.4 93.1364 1186.18 94.0276 Q1181.97 94.9188 1177.64 94.9188 Q1166.78 94.9188 1160.42 88.5994 Q1154.1 82.2799 1154.1 71.5045 Q1154.1 60.3645 1160.1 53.8426 Q1166.13 47.2801 1176.34 47.2801 Q1185.5 47.2801 1190.8 53.1944 Q1196.15 59.0683 1196.15 69.1955 M1188.7 67.008 Q1188.62 60.8912 1185.25 57.2454 Q1181.93 53.5995 1176.42 53.5995 Q1170.18 53.5995 1166.42 57.1238 Q1162.69 60.6481 1162.12 67.0485 L1188.7 67.008 Z" fill="#000000" fill-rule="nonzero" fill-opacity="1"></path><path clip-path="url(#clip490)" d="M1246.1 66.3599 L1246.1 93.744 L1238.64 93.744 L1238.64 66.6029 Q1238.64 60.162 1236.13 56.9618 Q1233.62 53.7616 1228.6 53.7616 Q1222.56 53.7616 1219.08 57.6099 Q1215.59 61.4583 1215.59 68.1018 L1215.59 93.744 L1208.1 93.744 L1208.1 48.3739 L1215.59 48.3739 L1215.59 55.4224 Q1218.27 51.331 1221.87 49.3056 Q1225.52 47.2801 1230.26 47.2801 Q1238.08 47.2801 1242.09 52.1412 Q1246.1 56.9618 1246.1 66.3599 Z" fill="#000000" fill-rule="nonzero" fill-opacity="1"></path><path clip-path="url(#clip490)" d="M1268.34 35.492 L1268.34 48.3739 L1283.69 48.3739 L1283.69 54.1667 L1268.34 54.1667 L1268.34 78.7962 Q1268.34 84.3459 1269.84 85.9258 Q1271.38 87.5056 1276.03 87.5056 L1283.69 87.5056 L1283.69 93.744 L1276.03 93.744 Q1267.41 93.744 1264.12 90.5438 Q1260.84 87.3031 1260.84 78.7962 L1260.84 54.1667 L1255.37 54.1667 L1255.37 48.3739 L1260.84 48.3739 L1260.84 35.492 L1268.34 35.492 Z" fill="#000000" fill-rule="nonzero" fill-opacity="1"></path><path clip-path="url(#clip490)" d="M1319.86 30.7119 L1327.32 30.7119 L1327.32 93.744 L1319.86 93.744 L1319.86 30.7119 Z" fill="#000000" fill-rule="nonzero" fill-opacity="1"></path><path clip-path="url(#clip490)" d="M1381.72 69.1955 L1381.72 72.8413 L1347.45 72.8413 Q1347.94 80.5381 1352.07 84.589 Q1356.24 88.5994 1363.66 88.5994 Q1367.95 88.5994 1371.96 87.5461 Q1376.01 86.4929 1379.98 84.3864 L1379.98 91.435 Q1375.97 93.1364 1371.76 94.0276 Q1367.54 94.9188 1363.21 94.9188 Q1352.35 94.9188 1345.99 88.5994 Q1339.67 82.2799 1339.67 71.5045 Q1339.67 60.3645 1345.67 53.8426 Q1351.7 47.2801 1361.91 47.2801 Q1371.07 47.2801 1376.37 53.1944 Q1381.72 59.0683 1381.72 69.1955 M1374.27 67.008 Q1374.19 60.8912 1370.83 57.2454 Q1367.5 53.5995 1361.99 53.5995 Q1355.76 53.5995 1351.99 57.1238 Q1348.26 60.6481 1347.69 67.0485 L1374.27 67.008 Z" fill="#000000" fill-rule="nonzero" fill-opacity="1"></path><path clip-path="url(#clip490)" d="M1388.61 48.3739 L1396.51 48.3739 L1410.69 86.4524 L1424.86 48.3739 L1432.76 48.3739 L1415.75 93.744 L1405.62 93.744 L1388.61 48.3739 Z" fill="#000000" fill-rule="nonzero" fill-opacity="1"></path><path clip-path="url(#clip490)" d="M1481.86 69.1955 L1481.86 72.8413 L1447.59 72.8413 Q1448.08 80.5381 1452.21 84.589 Q1456.38 88.5994 1463.79 88.5994 Q1468.09 88.5994 1472.1 87.5461 Q1476.15 86.4929 1480.12 84.3864 L1480.12 91.435 Q1476.11 93.1364 1471.9 94.0276 Q1467.68 94.9188 1463.35 94.9188 Q1452.49 94.9188 1446.13 88.5994 Q1439.81 82.2799 1439.81 71.5045 Q1439.81 60.3645 1445.81 53.8426 Q1451.84 47.2801 1462.05 47.2801 Q1471.21 47.2801 1476.51 53.1944 Q1481.86 59.0683 1481.86 69.1955 M1474.41 67.008 Q1474.33 60.8912 1470.96 57.2454 Q1467.64 53.5995 1462.13 53.5995 Q1455.89 53.5995 1452.13 57.1238 Q1448.4 60.6481 1447.83 67.0485 L1474.41 67.008 Z" fill="#000000" fill-rule="nonzero" fill-opacity="1"></path><path clip-path="url(#clip490)" d="M1494.09 30.7119 L1501.55 30.7119 L1501.55 93.744 L1494.09 93.744 L1494.09 30.7119 Z" fill="#000000" fill-rule="nonzero" fill-opacity="1"></path><path clip-path="url(#clip490)" d="M1546.07 49.7107 L1546.07 56.7592 Q1542.91 55.1389 1539.5 54.3287 Q1536.1 53.5185 1532.46 53.5185 Q1526.91 53.5185 1524.11 55.2199 Q1521.36 56.9213 1521.36 60.324 Q1521.36 62.9166 1523.34 64.4155 Q1525.33 65.8738 1531.32 67.2106 L1533.87 67.7777 Q1541.81 69.4791 1545.14 72.5983 Q1548.5 75.677 1548.5 81.2267 Q1548.5 87.5461 1543.47 91.2324 Q1538.49 94.9188 1529.74 94.9188 Q1526.1 94.9188 1522.13 94.1896 Q1518.2 93.5009 1513.82 92.0831 L1513.82 84.3864 Q1517.95 86.5334 1521.96 87.6271 Q1525.97 88.6804 1529.9 88.6804 Q1535.17 88.6804 1538.01 86.898 Q1540.84 85.0751 1540.84 81.7938 Q1540.84 78.7557 1538.78 77.1353 Q1536.75 75.5149 1529.82 74.0161 L1527.23 73.4085 Q1520.3 71.9501 1517.22 68.9525 Q1514.15 65.9143 1514.15 60.6481 Q1514.15 54.2477 1518.68 50.7639 Q1523.22 47.2801 1531.57 47.2801 Q1535.7 47.2801 1539.34 47.8878 Q1542.99 48.4954 1546.07 49.7107 Z" fill="#000000" fill-rule="nonzero" fill-opacity="1"></path><path clip-path="url(#clip490)" d="M1604.32 53.5995 Q1598.32 53.5995 1594.84 58.2986 Q1591.36 62.9571 1591.36 71.0994 Q1591.36 79.2418 1594.8 83.9408 Q1598.28 88.5994 1604.32 88.5994 Q1610.27 88.5994 1613.76 83.9003 Q1617.24 79.2013 1617.24 71.0994 Q1617.24 63.0381 1613.76 58.3391 Q1610.27 53.5995 1604.32 53.5995 M1604.32 47.2801 Q1614.04 47.2801 1619.59 53.5995 Q1625.14 59.9189 1625.14 71.0994 Q1625.14 82.2394 1619.59 88.5994 Q1614.04 94.9188 1604.32 94.9188 Q1594.56 94.9188 1589.01 88.5994 Q1583.5 82.2394 1583.5 71.0994 Q1583.5 59.9189 1589.01 53.5995 Q1594.56 47.2801 1604.32 47.2801 Z" fill="#000000" fill-rule="nonzero" fill-opacity="1"></path><path clip-path="url(#clip490)" d="M1660.46 30.7119 L1660.46 36.9098 L1653.34 36.9098 Q1649.32 36.9098 1647.74 38.5302 Q1646.21 40.1505 1646.21 44.3635 L1646.21 48.3739 L1658.48 48.3739 L1658.48 54.1667 L1646.21 54.1667 L1646.21 93.744 L1638.71 93.744 L1638.71 54.1667 L1631.58 54.1667 L1631.58 48.3739 L1638.71 48.3739 L1638.71 45.2142 Q1638.71 37.639 1642.24 34.1957 Q1645.76 30.7119 1653.42 30.7119 L1660.46 30.7119 Z" fill="#000000" fill-rule="nonzero" fill-opacity="1"></path><path clip-path="url(#clip490)" d="M1714.18 88.5994 Q1719.53 88.6399 1722.73 91.678 Q1726.13 94.8783 1726.13 99.7393 Q1726.13 104.398 1723.13 107.639 Q1719.89 111.163 1713.29 111.163 Q1713.29 108.125 1713.29 105.046 Q1716.08 105.249 1717.79 103.466 Q1719.08 102.048 1719.08 100.55 Q1719.08 98.4025 1717.79 96.6201 Q1716.53 94.9188 1714.18 94.9188 Q1689.63 94.9188 1689.59 72.1122 Q1689.59 52.1817 1712.72 38.2061 L1691.17 38.2061 L1691.17 30.7119 L1726.41 30.7119 L1726.41 38.2061 Q1697.09 52.9514 1697.09 72.1122 Q1697.09 88.5994 1714.18 88.5994 Z" fill="#000000" fill-rule="nonzero" fill-opacity="1"></path><path clip-path="url(#clip490)" d="M1782.48 30.7929 Q1777.05 40.11 1774.42 49.2246 Q1771.78 58.3391 1771.78 67.6967 Q1771.78 77.0543 1774.42 86.2498 Q1777.09 95.4049 1782.48 104.681 L1776 104.681 Q1769.92 95.1618 1766.88 85.9663 Q1763.88 76.7707 1763.88 67.6967 Q1763.88 58.6632 1766.88 49.5081 Q1769.88 40.3531 1776 30.7929 L1782.48 30.7929 Z" fill="#000000" fill-rule="nonzero" fill-opacity="1"></path><path clip-path="url(#clip490)" d="M1815.49 38.6517 Q1809.17 38.6517 1805.97 44.8901 Q1802.81 51.088 1802.81 63.5648 Q1802.81 76.001 1805.97 82.2394 Q1809.17 88.4373 1815.49 88.4373 Q1821.85 88.4373 1825.01 82.2394 Q1828.21 76.001 1828.21 63.5648 Q1828.21 51.088 1825.01 44.8901 Q1821.85 38.6517 1815.49 38.6517 M1815.49 32.1703 Q1825.66 32.1703 1831.01 40.2316 Q1836.4 48.2523 1836.4 63.5648 Q1836.4 78.8367 1831.01 86.898 Q1825.66 94.9188 1815.49 94.9188 Q1805.33 94.9188 1799.94 86.898 Q1794.59 78.8367 1794.59 63.5648 Q1794.59 48.2523 1799.94 40.2316 Q1805.33 32.1703 1815.49 32.1703 Z" fill="#000000" fill-rule="nonzero" fill-opacity="1"></path><path clip-path="url(#clip490)" d="M1850.78 83.4547 L1859.32 83.4547 L1859.32 93.744 L1850.78 93.744 L1850.78 83.4547 Z" fill="#000000" fill-rule="nonzero" fill-opacity="1"></path><path clip-path="url(#clip490)" d="M1878.57 86.8575 L1891.93 86.8575 L1891.93 40.7177 L1877.39 43.6343 L1877.39 36.1807 L1891.85 33.264 L1900.04 33.264 L1900.04 86.8575 L1913.4 86.8575 L1913.4 93.744 L1878.57 93.744 L1878.57 86.8575 Z" fill="#000000" fill-rule="nonzero" fill-opacity="1"></path><path clip-path="url(#clip490)" d="M1925.11 67.6967 L1946.94 67.6967 L1946.94 74.3402 L1925.11 74.3402 L1925.11 67.6967 Z" fill="#000000" fill-rule="nonzero" fill-opacity="1"></path><path clip-path="url(#clip490)" d="M1961.28 86.8575 L1974.65 86.8575 L1974.65 40.7177 L1960.11 43.6343 L1960.11 36.1807 L1974.57 33.264 L1982.75 33.264 L1982.75 86.8575 L1996.12 86.8575 L1996.12 93.744 L1961.28 93.744 L1961.28 86.8575 Z" fill="#000000" fill-rule="nonzero" fill-opacity="1"></path><path clip-path="url(#clip490)" d="M2010.42 30.7929 L2016.9 30.7929 Q2022.98 40.3531 2025.98 49.5081 Q2029.02 58.6632 2029.02 67.6967 Q2029.02 76.7707 2025.98 85.9663 Q2022.98 95.1618 2016.9 104.681 L2010.42 104.681 Q2015.81 95.4049 2018.44 86.2498 Q2021.12 77.0543 2021.12 67.6967 Q2021.12 58.3391 2018.44 49.2246 Q2015.81 40.11 2010.42 30.7929 Z" fill="#000000" fill-rule="nonzero" fill-opacity="1"></path><polyline clip-path="url(#clip492)" style="stroke:#009af9; stroke-linecap:round; stroke-linejoin:round; stroke-width:4; stroke-opacity:1; fill:none" points="328.789,314.425 547.124,256.719 765.459,341.164 983.794,377.944 1202.13,309.516 1420.46,220.815 1638.8,230.032 1857.14,303.035 2075.47,1449.58 2293.81,288.258 "></polyline>
<path clip-path="url(#clip490)" d="M339.269 1443.03 L599.991 1443.03 L599.991 1339.35 L339.269 1339.35  Z" fill="#ffffff" fill-rule="evenodd" fill-opacity="1"></path>
<polyline clip-path="url(#clip490)" style="stroke:#000000; stroke-linecap:round; stroke-linejoin:round; stroke-width:4; stroke-opacity:1; fill:none" points="339.269,1443.03 599.991,1443.03 599.991,1339.35 339.269,1339.35 339.269,1443.03 "></polyline>
<polyline clip-path="url(#clip490)" style="stroke:#009af9; stroke-linecap:round; stroke-linejoin:round; stroke-width:4; stroke-opacity:1; fill:none" points="362.412,1391.19 501.274,1391.19 "></polyline>
<path clip-path="url(#clip490)" d="M538.26 1410.88 Q536.454 1415.51 534.741 1416.92 Q533.028 1418.33 530.158 1418.33 L526.755 1418.33 L526.755 1414.77 L529.255 1414.77 Q531.014 1414.77 531.987 1413.93 Q532.959 1413.1 534.139 1410 L534.903 1408.05 L524.417 1382.55 L528.931 1382.55 L537.033 1402.82 L545.135 1382.55 L549.649 1382.55 L538.26 1410.88 Z" fill="#000000" fill-rule="nonzero" fill-opacity="1"></path><path clip-path="url(#clip490)" d="M556.94 1404.54 L564.579 1404.54 L564.579 1378.17 L556.269 1379.84 L556.269 1375.58 L564.533 1373.91 L569.209 1373.91 L569.209 1404.54 L576.847 1404.54 L576.847 1408.47 L556.94 1408.47 L556.94 1404.54 Z" fill="#000000" fill-rule="nonzero" fill-opacity="1"></path></svg>