<svg xmlns="http://www.w3.org/2000/svg" xmlns:xlink="http://www.w3.org/1999/xlink" width="600" height="400" viewBox="0 0 2400 1600">
<defs>
  <clipPath id="clip120">
    <rect x="0" y="0" width="2400" height="1600"></rect>
  </clipPath>
</defs>
<path clip-path="url(#clip120)" d="M0 1600 L2400 1600 L2400 0 L0 0  Z" fill="#ffffff" fill-rule="evenodd" fill-opacity="1"></path>
<defs>
  <clipPath id="clip121">
    <rect x="480" y="0" width="1681" height="1600"></rect>
  </clipPath>
</defs>
<path clip-path="url(#clip120)" d="M272.297 1423.18 L2352.76 1423.18 L2352.76 47.2441 L272.297 47.2441  Z" fill="#ffffff" fill-rule="evenodd" fill-opacity="1"></path>
<defs>
  <clipPath id="clip122">
    <rect x="272" y="47" width="2081" height="1377"></rect>
  </clipPath>
</defs>
<polyline clip-path="url(#clip122)" style="stroke:#000000; stroke-linecap:round; stroke-linejoin:round; stroke-width:2; stroke-opacity:0.1; fill:none" points="388.574,1423.18 388.574,47.2441 "></polyline>
<polyline clip-path="url(#clip122)" style="stroke:#000000; stroke-linecap:round; stroke-linejoin:round; stroke-width:2; stroke-opacity:0.1; fill:none" points="786.18,1423.18 786.18,47.2441 "></polyline>
<polyline clip-path="url(#clip122)" style="stroke:#000000; stroke-linecap:round; stroke-linejoin:round; stroke-width:2; stroke-opacity:0.1; fill:none" points="1183.78,1423.18 1183.78,47.2441 "></polyline>
<polyline clip-path="url(#clip122)" style="stroke:#000000; stroke-linecap:round; stroke-linejoin:round; stroke-width:2; stroke-opacity:0.1; fill:none" points="1581.39,1423.18 1581.39,47.2441 "></polyline>
<polyline clip-path="url(#clip122)" style="stroke:#000000; stroke-linecap:round; stroke-linejoin:round; stroke-width:2; stroke-opacity:0.1; fill:none" points="1979,1423.18 1979,47.2441 "></polyline>
<polyline clip-path="url(#clip120)" style="stroke:#000000; stroke-linecap:round; stroke-linejoin:round; stroke-width:4; stroke-opacity:1; fill:none" points="272.297,1423.18 2352.76,1423.18 "></polyline>
<polyline clip-path="url(#clip120)" style="stroke:#000000; stroke-linecap:round; stroke-linejoin:round; stroke-width:4; stroke-opacity:1; fill:none" points="388.574,1423.18 388.574,1404.28 "></polyline>
<polyline clip-path="url(#clip120)" style="stroke:#000000; stroke-linecap:round; stroke-linejoin:round; stroke-width:4; stroke-opacity:1; fill:none" points="786.18,1423.18 786.18,1404.28 "></polyline>
<polyline clip-path="url(#clip120)" style="stroke:#000000; stroke-linecap:round; stroke-linejoin:round; stroke-width:4; stroke-opacity:1; fill:none" points="1183.78,1423.18 1183.78,1404.28 "></polyline>
<polyline clip-path="url(#clip120)" style="stroke:#000000; stroke-linecap:round; stroke-linejoin:round; stroke-width:4; stroke-opacity:1; fill:none" points="1581.39,1423.18 1581.39,1404.28 "></polyline>
<polyline clip-path="url(#clip120)" style="stroke:#000000; stroke-linecap:round; stroke-linejoin:round; stroke-width:4; stroke-opacity:1; fill:none" points="1979,1423.18 1979,1404.28 "></polyline>
<path clip-path="url(#clip120)" d="M327.556 1468.75 L357.232 1468.75 L357.232 1472.69 L327.556 1472.69 L327.556 1468.75 Z" fill="#000000" fill-rule="nonzero" fill-opacity="1"></path><path clip-path="url(#clip120)" d="M371.352 1481.64 L387.672 1481.64 L387.672 1485.58 L365.727 1485.58 L365.727 1481.64 Q368.389 1478.89 372.973 1474.26 Q377.579 1469.61 378.76 1468.27 Q381.005 1465.74 381.885 1464.01 Q382.787 1462.25 382.787 1460.56 Q382.787 1457.8 380.843 1456.07 Q378.922 1454.33 375.82 1454.33 Q373.621 1454.33 371.167 1455.09 Q368.736 1455.86 365.959 1457.41 L365.959 1452.69 Q368.783 1451.55 371.236 1450.97 Q373.69 1450.39 375.727 1450.39 Q381.098 1450.39 384.292 1453.08 Q387.486 1455.77 387.486 1460.26 Q387.486 1462.39 386.676 1464.31 Q385.889 1466.2 383.783 1468.8 Q383.204 1469.47 380.102 1472.69 Q377 1475.88 371.352 1481.64 Z" fill="#000000" fill-rule="nonzero" fill-opacity="1"></path><path clip-path="url(#clip120)" d="M407.486 1454.1 Q403.875 1454.1 402.046 1457.66 Q400.241 1461.2 400.241 1468.33 Q400.241 1475.44 402.046 1479.01 Q403.875 1482.55 407.486 1482.55 Q411.12 1482.55 412.926 1479.01 Q414.755 1475.44 414.755 1468.33 Q414.755 1461.2 412.926 1457.66 Q411.12 1454.1 407.486 1454.1 M407.486 1450.39 Q413.296 1450.39 416.352 1455 Q419.431 1459.58 419.431 1468.33 Q419.431 1477.06 416.352 1481.67 Q413.296 1486.25 407.486 1486.25 Q401.676 1486.25 398.597 1481.67 Q395.542 1477.06 395.542 1468.33 Q395.542 1459.58 398.597 1455 Q401.676 1450.39 407.486 1450.39 Z" fill="#000000" fill-rule="nonzero" fill-opacity="1"></path><path clip-path="url(#clip120)" d="M437.648 1454.1 Q434.037 1454.1 432.208 1457.66 Q430.403 1461.2 430.403 1468.33 Q430.403 1475.44 432.208 1479.01 Q434.037 1482.55 437.648 1482.55 Q441.282 1482.55 443.088 1479.01 Q444.917 1475.44 444.917 1468.33 Q444.917 1461.2 443.088 1457.66 Q441.282 1454.1 437.648 1454.1 M437.648 1450.39 Q443.458 1450.39 446.514 1455 Q449.593 1459.58 449.593 1468.33 Q449.593 1477.06 446.514 1481.67 Q443.458 1486.25 437.648 1486.25 Q431.838 1486.25 428.759 1481.67 Q425.704 1477.06 425.704 1468.33 Q425.704 1459.58 428.759 1455 Q431.838 1450.39 437.648 1450.39 Z" fill="#000000" fill-rule="nonzero" fill-opacity="1"></path><path clip-path="url(#clip120)" d="M786.18 1454.1 Q782.568 1454.1 780.74 1457.66 Q778.934 1461.2 778.934 1468.33 Q778.934 1475.44 780.74 1479.01 Q782.568 1482.55 786.18 1482.55 Q789.814 1482.55 791.619 1479.01 Q793.448 1475.44 793.448 1468.33 Q793.448 1461.2 791.619 1457.66 Q789.814 1454.1 786.18 1454.1 M786.18 1450.39 Q791.99 1450.39 795.045 1455 Q798.124 1459.58 798.124 1468.33 Q798.124 1477.06 795.045 1481.67 Q791.99 1486.25 786.18 1486.25 Q780.369 1486.25 777.291 1481.67 Q774.235 1477.06 774.235 1468.33 Q774.235 1459.58 777.291 1455 Q780.369 1450.39 786.18 1450.39 Z" fill="#000000" fill-rule="nonzero" fill-opacity="1"></path><path clip-path="url(#clip120)" d="M1147.48 1481.64 L1163.8 1481.64 L1163.8 1485.58 L1141.85 1485.58 L1141.85 1481.64 Q1144.51 1478.89 1149.1 1474.26 Q1153.7 1469.61 1154.88 1468.27 Q1157.13 1465.74 1158.01 1464.01 Q1158.91 1462.25 1158.91 1460.56 Q1158.91 1457.8 1156.97 1456.07 Q1155.05 1454.33 1151.94 1454.33 Q1149.75 1454.33 1147.29 1455.09 Q1144.86 1455.86 1142.08 1457.41 L1142.08 1452.69 Q1144.91 1451.55 1147.36 1450.97 Q1149.82 1450.39 1151.85 1450.39 Q1157.22 1450.39 1160.42 1453.08 Q1163.61 1455.77 1163.61 1460.26 Q1163.61 1462.39 1162.8 1464.31 Q1162.01 1466.2 1159.91 1468.8 Q1159.33 1469.47 1156.23 1472.69 Q1153.13 1475.88 1147.48 1481.64 Z" fill="#000000" fill-rule="nonzero" fill-opacity="1"></path><path clip-path="url(#clip120)" d="M1183.61 1454.1 Q1180 1454.1 1178.17 1457.66 Q1176.37 1461.2 1176.37 1468.33 Q1176.37 1475.44 1178.17 1479.01 Q1180 1482.55 1183.61 1482.55 Q1187.25 1482.55 1189.05 1479.01 Q1190.88 1475.44 1190.88 1468.33 Q1190.88 1461.2 1189.05 1457.66 Q1187.25 1454.1 1183.61 1454.1 M1183.61 1450.39 Q1189.42 1450.39 1192.48 1455 Q1195.56 1459.58 1195.56 1468.33 Q1195.56 1477.06 1192.48 1481.67 Q1189.42 1486.25 1183.61 1486.25 Q1177.8 1486.25 1174.72 1481.67 Q1171.67 1477.06 1171.67 1468.33 Q1171.67 1459.58 1174.72 1455 Q1177.8 1450.39 1183.61 1450.39 Z" fill="#000000" fill-rule="nonzero" fill-opacity="1"></path><path clip-path="url(#clip120)" d="M1213.77 1454.1 Q1210.16 1454.1 1208.33 1457.66 Q1206.53 1461.2 1206.53 1468.33 Q1206.53 1475.44 1208.33 1479.01 Q1210.16 1482.55 1213.77 1482.55 Q1217.41 1482.55 1219.21 1479.01 Q1221.04 1475.44 1221.04 1468.33 Q1221.04 1461.2 1219.21 1457.66 Q1217.41 1454.1 1213.77 1454.1 M1213.77 1450.39 Q1219.58 1450.39 1222.64 1455 Q1225.72 1459.58 1225.72 1468.33 Q1225.72 1477.06 1222.64 1481.67 Q1219.58 1486.25 1213.77 1486.25 Q1207.96 1486.25 1204.88 1481.67 Q1201.83 1477.06 1201.83 1468.33 Q1201.83 1459.58 1204.88 1455 Q1207.96 1450.39 1213.77 1450.39 Z" fill="#000000" fill-rule="nonzero" fill-opacity="1"></path><path clip-path="url(#clip120)" d="M1554.48 1455.09 L1542.68 1473.54 L1554.48 1473.54 L1554.48 1455.09 M1553.25 1451.02 L1559.13 1451.02 L1559.13 1473.54 L1564.06 1473.54 L1564.06 1477.43 L1559.13 1477.43 L1559.13 1485.58 L1554.48 1485.58 L1554.48 1477.43 L1538.88 1477.43 L1538.88 1472.92 L1553.25 1451.02 Z" fill="#000000" fill-rule="nonzero" fill-opacity="1"></path><path clip-path="url(#clip120)" d="M1581.8 1454.1 Q1578.18 1454.1 1576.36 1457.66 Q1574.55 1461.2 1574.55 1468.33 Q1574.55 1475.44 1576.36 1479.01 Q1578.18 1482.55 1581.8 1482.55 Q1585.43 1482.55 1587.23 1479.01 Q1589.06 1475.44 1589.06 1468.33 Q1589.06 1461.2 1587.23 1457.66 Q1585.43 1454.1 1581.8 1454.1 M1581.8 1450.39 Q1587.61 1450.39 1590.66 1455 Q1593.74 1459.58 1593.74 1468.33 Q1593.74 1477.06 1590.66 1481.67 Q1587.61 1486.25 1581.8 1486.25 Q1575.99 1486.25 1572.91 1481.67 Q1569.85 1477.06 1569.85 1468.33 Q1569.85 1459.58 1572.91 1455 Q1575.99 1450.39 1581.8 1450.39 Z" fill="#000000" fill-rule="nonzero" fill-opacity="1"></path><path clip-path="url(#clip120)" d="M1611.96 1454.1 Q1608.35 1454.1 1606.52 1457.66 Q1604.71 1461.2 1604.71 1468.33 Q1604.71 1475.44 1606.52 1479.01 Q1608.35 1482.55 1611.96 1482.55 Q1615.59 1482.55 1617.4 1479.01 Q1619.23 1475.44 1619.23 1468.33 Q1619.23 1461.2 1617.4 1457.66 Q1615.59 1454.1 1611.96 1454.1 M1611.96 1450.39 Q1617.77 1450.39 1620.82 1455 Q1623.9 1459.58 1623.9 1468.33 Q1623.9 1477.06 1620.82 1481.67 Q1617.77 1486.25 1611.96 1486.25 Q1606.15 1486.25 1603.07 1481.67 Q1600.01 1477.06 1600.01 1468.33 Q1600.01 1459.58 1603.07 1455 Q1606.15 1450.39 1611.96 1450.39 Z" fill="#000000" fill-rule="nonzero" fill-opacity="1"></path><path clip-path="url(#clip120)" d="M1949.32 1466.44 Q1946.17 1466.44 1944.32 1468.59 Q1942.49 1470.74 1942.49 1474.49 Q1942.49 1478.22 1944.32 1480.39 Q1946.17 1482.55 1949.32 1482.55 Q1952.47 1482.55 1954.3 1480.39 Q1956.15 1478.22 1956.15 1474.49 Q1956.15 1470.74 1954.3 1468.59 Q1952.47 1466.44 1949.32 1466.44 M1958.6 1451.78 L1958.6 1456.04 Q1956.84 1455.21 1955.04 1454.77 Q1953.25 1454.33 1951.5 1454.33 Q1946.87 1454.33 1944.41 1457.45 Q1941.98 1460.58 1941.63 1466.9 Q1943 1464.89 1945.06 1463.82 Q1947.12 1462.73 1949.6 1462.73 Q1954.81 1462.73 1957.81 1465.9 Q1960.85 1469.05 1960.85 1474.49 Q1960.85 1479.82 1957.7 1483.03 Q1954.55 1486.25 1949.32 1486.25 Q1943.32 1486.25 1940.15 1481.67 Q1936.98 1477.06 1936.98 1468.33 Q1936.98 1460.14 1940.87 1455.28 Q1944.76 1450.39 1951.31 1450.39 Q1953.07 1450.39 1954.85 1450.74 Q1956.66 1451.09 1958.6 1451.78 Z" fill="#000000" fill-rule="nonzero" fill-opacity="1"></path><path clip-path="url(#clip120)" d="M1978.9 1454.1 Q1975.29 1454.1 1973.46 1457.66 Q1971.66 1461.2 1971.66 1468.33 Q1971.66 1475.44 1973.46 1479.01 Q1975.29 1482.55 1978.9 1482.55 Q1982.54 1482.55 1984.34 1479.01 Q1986.17 1475.44 1986.17 1468.33 Q1986.17 1461.2 1984.34 1457.66 Q1982.54 1454.1 1978.9 1454.1 M1978.9 1450.39 Q1984.71 1450.39 1987.77 1455 Q1990.85 1459.58 1990.85 1468.33 Q1990.85 1477.06 1987.77 1481.67 Q1984.71 1486.25 1978.9 1486.25 Q1973.09 1486.25 1970.01 1481.67 Q1966.96 1477.06 1966.96 1468.33 Q1966.96 1459.58 1970.01 1455 Q1973.09 1450.39 1978.9 1450.39 Z" fill="#000000" fill-rule="nonzero" fill-opacity="1"></path><path clip-path="url(#clip120)" d="M2009.06 1454.1 Q2005.45 1454.1 2003.62 1457.66 Q2001.82 1461.2 2001.82 1468.33 Q2001.82 1475.44 2003.62 1479.01 Q2005.45 1482.55 2009.06 1482.55 Q2012.7 1482.55 2014.5 1479.01 Q2016.33 1475.44 2016.33 1468.33 Q2016.33 1461.2 2014.5 1457.66 Q2012.7 1454.1 2009.06 1454.1 M2009.06 1450.39 Q2014.87 1450.39 2017.93 1455 Q2021.01 1459.58 2021.01 1468.33 Q2021.01 1477.06 2017.93 1481.67 Q2014.87 1486.25 2009.06 1486.25 Q2003.25 1486.25 2000.18 1481.67 Q1997.12 1477.06 1997.12 1468.33 Q1997.12 1459.58 2000.18 1455 Q2003.25 1450.39 2009.06 1450.39 Z" fill="#000000" fill-rule="nonzero" fill-opacity="1"></path><path clip-path="url(#clip120)" d="M1262.01 1525.81 L1262.01 1543.66 L1270.1 1543.66 Q1274.59 1543.66 1277.04 1541.34 Q1279.49 1539.02 1279.49 1534.72 Q1279.49 1530.45 1277.04 1528.13 Q1274.59 1525.81 1270.1 1525.81 L1262.01 1525.81 M1255.58 1520.52 L1270.1 1520.52 Q1278.09 1520.52 1282.16 1524.15 Q1286.27 1527.75 1286.27 1534.72 Q1286.27 1541.75 1282.16 1545.35 Q1278.09 1548.95 1270.1 1548.95 L1262.01 1548.95 L1262.01 1568.04 L1255.58 1568.04 L1255.58 1520.52 Z" fill="#000000" fill-rule="nonzero" fill-opacity="1"></path><path clip-path="url(#clip120)" d="M1330.48 1524.18 L1330.48 1530.96 Q1327.23 1527.94 1323.54 1526.44 Q1319.88 1524.95 1315.74 1524.95 Q1307.59 1524.95 1303.26 1529.95 Q1298.94 1534.91 1298.94 1544.33 Q1298.94 1553.72 1303.26 1558.72 Q1307.59 1563.68 1315.74 1563.68 Q1319.88 1563.68 1323.54 1562.19 Q1327.23 1560.69 1330.48 1557.67 L1330.48 1564.38 Q1327.1 1566.68 1323.32 1567.82 Q1319.56 1568.97 1315.36 1568.97 Q1304.57 1568.97 1298.36 1562.38 Q1292.16 1555.76 1292.16 1544.33 Q1292.16 1532.87 1298.36 1526.28 Q1304.57 1519.66 1315.36 1519.66 Q1319.62 1519.66 1323.38 1520.81 Q1327.17 1521.92 1330.48 1524.18 Z" fill="#000000" fill-rule="nonzero" fill-opacity="1"></path><path clip-path="url(#clip120)" d="M1342.09 1562.63 L1352.6 1562.63 L1352.6 1526.38 L1341.17 1528.67 L1341.17 1522.82 L1352.53 1520.52 L1358.96 1520.52 L1358.96 1562.63 L1369.47 1562.63 L1369.47 1568.04 L1342.09 1568.04 L1342.09 1562.63 Z" fill="#000000" fill-rule="nonzero" fill-opacity="1"></path><polyline clip-path="url(#clip122)" style="stroke:#000000; stroke-linecap:round; stroke-linejoin:round; stroke-width:2; stroke-opacity:0.1; fill:none" points="272.297,1294.17 2352.76,1294.17 "></polyline>
<polyline clip-path="url(#clip122)" style="stroke:#000000; stroke-linecap:round; stroke-linejoin:round; stroke-width:2; stroke-opacity:0.1; fill:none" points="272.297,1043.39 2352.76,1043.39 "></polyline>
<polyline clip-path="url(#clip122)" style="stroke:#000000; stroke-linecap:round; stroke-linejoin:round; stroke-width:2; stroke-opacity:0.1; fill:none" points="272.297,792.618 2352.76,792.618 "></polyline>
<polyline clip-path="url(#clip122)" style="stroke:#000000; stroke-linecap:round; stroke-linejoin:round; stroke-width:2; stroke-opacity:0.1; fill:none" points="272.297,541.842 2352.76,541.842 "></polyline>
<polyline clip-path="url(#clip122)" style="stroke:#000000; stroke-linecap:round; stroke-linejoin:round; stroke-width:2; stroke-opacity:0.1; fill:none" points="272.297,291.067 2352.76,291.067 "></polyline>
<polyline clip-path="url(#clip120)" style="stroke:#000000; stroke-linecap:round; stroke-linejoin:round; stroke-width:4; stroke-opacity:1; fill:none" points="272.297,1423.18 272.297,47.2441 "></polyline>
<polyline clip-path="url(#clip120)" style="stroke:#000000; stroke-linecap:round; stroke-linejoin:round; stroke-width:4; stroke-opacity:1; fill:none" points="272.297,1294.17 291.194,1294.17 "></polyline>
<polyline clip-path="url(#clip120)" style="stroke:#000000; stroke-linecap:round; stroke-linejoin:round; stroke-width:4; stroke-opacity:1; fill:none" points="272.297,1043.39 291.194,1043.39 "></polyline>
<polyline clip-path="url(#clip120)" style="stroke:#000000; stroke-linecap:round; stroke-linejoin:round; stroke-width:4; stroke-opacity:1; fill:none" points="272.297,792.618 291.194,792.618 "></polyline>
<polyline clip-path="url(#clip120)" style="stroke:#000000; stroke-linecap:round; stroke-linejoin:round; stroke-width:4; stroke-opacity:1; fill:none" points="272.297,541.842 291.194,541.842 "></polyline>
<polyline clip-path="url(#clip120)" style="stroke:#000000; stroke-linecap:round; stroke-linejoin:round; stroke-width:4; stroke-opacity:1; fill:none" points="272.297,291.067 291.194,291.067 "></polyline>
<path clip-path="url(#clip120)" d="M114.26 1294.62 L143.936 1294.62 L143.936 1298.56 L114.26 1298.56 L114.26 1294.62 Z" fill="#000000" fill-rule="nonzero" fill-opacity="1"></path><path clip-path="url(#clip120)" d="M154.839 1307.51 L162.477 1307.51 L162.477 1281.15 L154.167 1282.82 L154.167 1278.56 L162.431 1276.89 L167.107 1276.89 L167.107 1307.51 L174.746 1307.51 L174.746 1311.45 L154.839 1311.45 L154.839 1307.51 Z" fill="#000000" fill-rule="nonzero" fill-opacity="1"></path><path clip-path="url(#clip120)" d="M184.237 1276.89 L202.593 1276.89 L202.593 1280.82 L188.519 1280.82 L188.519 1289.3 Q189.538 1288.95 190.556 1288.79 Q191.575 1288.6 192.593 1288.6 Q198.38 1288.6 201.76 1291.77 Q205.139 1294.95 205.139 1300.36 Q205.139 1305.94 201.667 1309.04 Q198.195 1312.12 191.875 1312.12 Q189.7 1312.12 187.431 1311.75 Q185.186 1311.38 182.778 1310.64 L182.778 1305.94 Q184.862 1307.07 187.084 1307.63 Q189.306 1308.19 191.783 1308.19 Q195.787 1308.19 198.125 1306.08 Q200.463 1303.97 200.463 1300.36 Q200.463 1296.75 198.125 1294.64 Q195.787 1292.54 191.783 1292.54 Q189.908 1292.54 188.033 1292.95 Q186.181 1293.37 184.237 1294.25 L184.237 1276.89 Z" fill="#000000" fill-rule="nonzero" fill-opacity="1"></path><path clip-path="url(#clip120)" d="M224.352 1279.97 Q220.741 1279.97 218.912 1283.53 Q217.107 1287.07 217.107 1294.2 Q217.107 1301.31 218.912 1304.88 Q220.741 1308.42 224.352 1308.42 Q227.986 1308.42 229.792 1304.88 Q231.621 1301.31 231.621 1294.2 Q231.621 1287.07 229.792 1283.53 Q227.986 1279.97 224.352 1279.97 M224.352 1276.26 Q230.162 1276.26 233.218 1280.87 Q236.297 1285.45 236.297 1294.2 Q236.297 1302.93 233.218 1307.54 Q230.162 1312.12 224.352 1312.12 Q218.542 1312.12 215.463 1307.54 Q212.408 1302.93 212.408 1294.2 Q212.408 1285.45 215.463 1280.87 Q218.542 1276.26 224.352 1276.26 Z" fill="#000000" fill-rule="nonzero" fill-opacity="1"></path><path clip-path="url(#clip120)" d="M114.26 1043.85 L143.936 1043.85 L143.936 1047.78 L114.26 1047.78 L114.26 1043.85 Z" fill="#000000" fill-rule="nonzero" fill-opacity="1"></path><path clip-path="url(#clip120)" d="M154.839 1056.74 L162.477 1056.74 L162.477 1030.37 L154.167 1032.04 L154.167 1027.78 L162.431 1026.11 L167.107 1026.11 L167.107 1056.74 L174.746 1056.74 L174.746 1060.67 L154.839 1060.67 L154.839 1056.74 Z" fill="#000000" fill-rule="nonzero" fill-opacity="1"></path><path clip-path="url(#clip120)" d="M194.19 1029.19 Q190.579 1029.19 188.75 1032.76 Q186.945 1036.3 186.945 1043.43 Q186.945 1050.54 188.75 1054.1 Q190.579 1057.64 194.19 1057.64 Q197.825 1057.64 199.63 1054.1 Q201.459 1050.54 201.459 1043.43 Q201.459 1036.3 199.63 1032.76 Q197.825 1029.19 194.19 1029.19 M194.19 1025.49 Q200 1025.49 203.056 1030.1 Q206.135 1034.68 206.135 1043.43 Q206.135 1052.16 203.056 1056.76 Q200 1061.35 194.19 1061.35 Q188.38 1061.35 185.301 1056.76 Q182.246 1052.16 182.246 1043.43 Q182.246 1034.68 185.301 1030.1 Q188.38 1025.49 194.19 1025.49 Z" fill="#000000" fill-rule="nonzero" fill-opacity="1"></path><path clip-path="url(#clip120)" d="M224.352 1029.19 Q220.741 1029.19 218.912 1032.76 Q217.107 1036.3 217.107 1043.43 Q217.107 1050.54 218.912 1054.1 Q220.741 1057.64 224.352 1057.64 Q227.986 1057.64 229.792 1054.1 Q231.621 1050.54 231.621 1043.43 Q231.621 1036.3 229.792 1032.76 Q227.986 1029.19 224.352 1029.19 M224.352 1025.49 Q230.162 1025.49 233.218 1030.1 Q236.297 1034.68 236.297 1043.43 Q236.297 1052.16 233.218 1056.76 Q230.162 1061.35 224.352 1061.35 Q218.542 1061.35 215.463 1056.76 Q212.408 1052.16 212.408 1043.43 Q212.408 1034.68 215.463 1030.1 Q218.542 1025.49 224.352 1025.49 Z" fill="#000000" fill-rule="nonzero" fill-opacity="1"></path><path clip-path="url(#clip120)" d="M144.422 793.07 L174.098 793.07 L174.098 797.005 L144.422 797.005 L144.422 793.07 Z" fill="#000000" fill-rule="nonzero" fill-opacity="1"></path><path clip-path="url(#clip120)" d="M184.237 775.338 L202.593 775.338 L202.593 779.273 L188.519 779.273 L188.519 787.745 Q189.538 787.398 190.556 787.236 Q191.575 787.051 192.593 787.051 Q198.38 787.051 201.76 790.222 Q205.139 793.394 205.139 798.81 Q205.139 804.389 201.667 807.491 Q198.195 810.569 191.875 810.569 Q189.7 810.569 187.431 810.199 Q185.186 809.829 182.778 809.088 L182.778 804.389 Q184.862 805.523 187.084 806.079 Q189.306 806.634 191.783 806.634 Q195.787 806.634 198.125 804.528 Q200.463 802.421 200.463 798.81 Q200.463 795.199 198.125 793.093 Q195.787 790.986 191.783 790.986 Q189.908 790.986 188.033 791.403 Q186.181 791.82 184.237 792.699 L184.237 775.338 Z" fill="#000000" fill-rule="nonzero" fill-opacity="1"></path><path clip-path="url(#clip120)" d="M224.352 778.417 Q220.741 778.417 218.912 781.982 Q217.107 785.523 217.107 792.653 Q217.107 799.759 218.912 803.324 Q220.741 806.866 224.352 806.866 Q227.986 806.866 229.792 803.324 Q231.621 799.759 231.621 792.653 Q231.621 785.523 229.792 781.982 Q227.986 778.417 224.352 778.417 M224.352 774.713 Q230.162 774.713 233.218 779.32 Q236.297 783.903 236.297 792.653 Q236.297 801.38 233.218 805.986 Q230.162 810.569 224.352 810.569 Q218.542 810.569 215.463 805.986 Q212.408 801.38 212.408 792.653 Q212.408 783.903 215.463 779.32 Q218.542 774.713 224.352 774.713 Z" fill="#000000" fill-rule="nonzero" fill-opacity="1"></path><path clip-path="url(#clip120)" d="M224.352 527.641 Q220.741 527.641 218.912 531.206 Q217.107 534.747 217.107 541.877 Q217.107 548.984 218.912 552.548 Q220.741 556.09 224.352 556.09 Q227.986 556.09 229.792 552.548 Q231.621 548.984 231.621 541.877 Q231.621 534.747 229.792 531.206 Q227.986 527.641 224.352 527.641 M224.352 523.937 Q230.162 523.937 233.218 528.544 Q236.297 533.127 236.297 541.877 Q236.297 550.604 233.218 555.21 Q230.162 559.794 224.352 559.794 Q218.542 559.794 215.463 555.21 Q212.408 550.604 212.408 541.877 Q212.408 533.127 215.463 528.544 Q218.542 523.937 224.352 523.937 Z" fill="#000000" fill-rule="nonzero" fill-opacity="1"></path><path clip-path="url(#clip120)" d="M184.237 273.787 L202.593 273.787 L202.593 277.722 L188.519 277.722 L188.519 286.194 Q189.538 285.847 190.556 285.685 Q191.575 285.499 192.593 285.499 Q198.38 285.499 201.76 288.671 Q205.139 291.842 205.139 297.259 Q205.139 302.837 201.667 305.939 Q198.195 309.018 191.875 309.018 Q189.7 309.018 187.431 308.647 Q185.186 308.277 182.778 307.536 L182.778 302.837 Q184.862 303.972 187.084 304.527 Q189.306 305.083 191.783 305.083 Q195.787 305.083 198.125 302.976 Q200.463 300.87 200.463 297.259 Q200.463 293.648 198.125 291.541 Q195.787 289.435 191.783 289.435 Q189.908 289.435 188.033 289.851 Q186.181 290.268 184.237 291.148 L184.237 273.787 Z" fill="#000000" fill-rule="nonzero" fill-opacity="1"></path><path clip-path="url(#clip120)" d="M224.352 276.865 Q220.741 276.865 218.912 280.43 Q217.107 283.972 217.107 291.101 Q217.107 298.208 218.912 301.772 Q220.741 305.314 224.352 305.314 Q227.986 305.314 229.792 301.772 Q231.621 298.208 231.621 291.101 Q231.621 283.972 229.792 280.43 Q227.986 276.865 224.352 276.865 M224.352 273.162 Q230.162 273.162 233.218 277.768 Q236.297 282.351 236.297 291.101 Q236.297 299.828 233.218 304.435 Q230.162 309.018 224.352 309.018 Q218.542 309.018 215.463 304.435 Q212.408 299.828 212.408 291.101 Q212.408 282.351 215.463 277.768 Q218.542 273.162 224.352 273.162 Z" fill="#000000" fill-rule="nonzero" fill-opacity="1"></path><path clip-path="url(#clip120)" d="M21.7677 785.469 L39.6235 785.469 L39.6235 777.385 Q39.6235 772.897 37.3 770.446 Q34.9765 767.995 30.6797 767.995 Q26.4147 767.995 24.0912 770.446 Q21.7677 772.897 21.7677 777.385 L21.7677 785.469 M16.4842 791.899 L16.4842 777.385 Q16.4842 769.396 20.1126 765.322 Q23.7092 761.216 30.6797 761.216 Q37.7138 761.216 41.3104 765.322 Q44.907 769.396 44.907 777.385 L44.907 785.469 L64.0042 785.469 L64.0042 791.899 L16.4842 791.899 Z" fill="#000000" fill-rule="nonzero" fill-opacity="1"></path><path clip-path="url(#clip120)" d="M20.1444 717.006 L26.9239 717.006 Q23.9002 720.253 22.4043 723.945 Q20.9083 727.605 20.9083 731.743 Q20.9083 739.891 25.9054 744.219 Q30.8707 748.548 40.2919 748.548 Q49.6813 748.548 54.6784 744.219 Q59.6436 739.891 59.6436 731.743 Q59.6436 727.605 58.1477 723.945 Q56.6518 720.253 53.6281 717.006 L60.3439 717.006 Q62.6355 720.38 63.7814 724.167 Q64.9272 727.923 64.9272 732.125 Q64.9272 742.914 58.3387 749.121 Q51.7183 755.328 40.2919 755.328 Q28.8336 755.328 22.2451 749.121 Q15.6248 742.914 15.6248 732.125 Q15.6248 727.86 16.7706 724.104 Q17.8846 720.316 20.1444 717.006 Z" fill="#000000" fill-rule="nonzero" fill-opacity="1"></path><path clip-path="url(#clip120)" d="M58.5933 700.964 L58.5933 678.525 L64.0042 678.525 L64.0042 708.699 L58.5933 708.699 Q54.8057 705.039 48.44 698.736 Q42.0425 692.403 40.1964 690.779 Q36.7271 687.692 34.34 686.482 Q31.921 685.241 29.5975 685.241 Q25.8099 685.241 23.4228 687.915 Q21.0356 690.557 21.0356 694.822 Q21.0356 697.845 22.086 701.219 Q23.1363 704.561 25.2688 708.381 L18.7758 708.381 Q17.2162 704.497 16.4205 701.124 Q15.6248 697.75 15.6248 694.949 Q15.6248 687.565 19.3169 683.172 Q23.009 678.78 29.1837 678.78 Q32.112 678.78 34.7537 679.894 Q37.3637 680.976 40.9285 683.873 Q41.8515 684.668 46.2757 688.933 Q50.668 693.198 58.5933 700.964 Z" fill="#000000" fill-rule="nonzero" fill-opacity="1"></path><circle clip-path="url(#clip122)" cx="331.177" cy="1384.24" r="14.4" fill="#009af9" fill-rule="evenodd" fill-opacity="1" stroke="#000000" stroke-opacity="1" stroke-width="3.2"></circle>
<circle clip-path="url(#clip122)" cx="392.439" cy="158.607" r="14.4" fill="#e26f46" fill-rule="evenodd" fill-opacity="1" stroke="#000000" stroke-opacity="1" stroke-width="3.2"></circle>
<circle clip-path="url(#clip122)" cx="426.091" cy="86.1857" r="14.4" fill="#3da44d" fill-rule="evenodd" fill-opacity="1" stroke="#000000" stroke-opacity="1" stroke-width="3.2"></circle>
<circle clip-path="url(#clip122)" cx="648" cy="445.379" r="14.4" fill="#c271d2" fill-rule="evenodd" fill-opacity="1" stroke="#000000" stroke-opacity="1" stroke-width="3.2"></circle>
<circle clip-path="url(#clip122)" cx="625.496" cy="592.888" r="14.4" fill="#ac8d18" fill-rule="evenodd" fill-opacity="1" stroke="#000000" stroke-opacity="1" stroke-width="3.2"></circle>
<circle clip-path="url(#clip122)" cx="2293.87" cy="583.756" r="14.4" fill="#00a9ad" fill-rule="evenodd" fill-opacity="1" stroke="#000000" stroke-opacity="1" stroke-width="3.2"></circle>
<path clip-path="url(#clip120)" d="M1957.21 455.989 L2283.41 455.989 L2283.41 93.1086 L1957.21 93.1086  Z" fill="#ffffff" fill-rule="evenodd" fill-opacity="1"></path>
<polyline clip-path="url(#clip120)" style="stroke:#000000; stroke-linecap:round; stroke-linejoin:round; stroke-width:4; stroke-opacity:1; fill:none" points="1957.21,455.989 2283.41,455.989 2283.41,93.1086 1957.21,93.1086 1957.21,455.989 "></polyline>
<circle clip-path="url(#clip120)" cx="2049.68" cy="144.949" r="20.48" fill="#009af9" fill-rule="evenodd" fill-opacity="1" stroke="#000000" stroke-opacity="1" stroke-width="4.55111"></circle>
<path clip-path="url(#clip120)" d="M2142.14 127.669 L2164 127.669 L2164 131.604 L2146.82 131.604 L2146.82 141.835 L2163.28 141.835 L2163.28 145.77 L2146.82 145.77 L2146.82 158.293 L2164.41 158.293 L2164.41 162.229 L2142.14 162.229 L2142.14 127.669 Z" fill="#000000" fill-rule="nonzero" fill-opacity="1"></path><path clip-path="url(#clip120)" d="M2172.1 127.669 L2176.77 127.669 L2176.77 158.293 L2193.6 158.293 L2193.6 162.229 L2172.1 162.229 L2172.1 127.669 Z" fill="#000000" fill-rule="nonzero" fill-opacity="1"></path><path clip-path="url(#clip120)" d="M2211.15 132.275 L2204.81 149.474 L2217.51 149.474 L2211.15 132.275 M2208.51 127.669 L2213.81 127.669 L2226.98 162.229 L2222.12 162.229 L2218.97 153.363 L2203.39 153.363 L2200.25 162.229 L2195.31 162.229 L2208.51 127.669 Z" fill="#000000" fill-rule="nonzero" fill-opacity="1"></path><path clip-path="url(#clip120)" d="M2232.03 127.669 L2238.32 127.669 L2253.65 156.581 L2253.65 127.669 L2258.18 127.669 L2258.18 162.229 L2251.89 162.229 L2236.56 133.317 L2236.56 162.229 L2232.03 162.229 L2232.03 127.669 Z" fill="#000000" fill-rule="nonzero" fill-opacity="1"></path><circle clip-path="url(#clip120)" cx="2049.68" cy="196.789" r="20.48" fill="#e26f46" fill-rule="evenodd" fill-opacity="1" stroke="#000000" stroke-opacity="1" stroke-width="4.55111"></circle>
<path clip-path="url(#clip120)" d="M2142.14 179.509 L2146.82 179.509 L2146.82 210.133 L2163.65 210.133 L2163.65 214.069 L2142.14 214.069 L2142.14 179.509 Z" fill="#000000" fill-rule="nonzero" fill-opacity="1"></path><path clip-path="url(#clip120)" d="M2181.19 184.115 L2174.85 201.314 L2187.56 201.314 L2181.19 184.115 M2178.56 179.509 L2183.86 179.509 L2197.03 214.069 L2192.17 214.069 L2189.02 205.203 L2173.44 205.203 L2170.29 214.069 L2165.36 214.069 L2178.56 179.509 Z" fill="#000000" fill-rule="nonzero" fill-opacity="1"></path><path clip-path="url(#clip120)" d="M2202.07 179.509 L2208.37 179.509 L2223.69 208.421 L2223.69 179.509 L2228.23 179.509 L2228.23 214.069 L2221.93 214.069 L2206.61 185.157 L2206.61 214.069 L2202.07 214.069 L2202.07 179.509 Z" fill="#000000" fill-rule="nonzero" fill-opacity="1"></path><circle clip-path="url(#clip120)" cx="2049.68" cy="248.629" r="20.48" fill="#3da44d" fill-rule="evenodd" fill-opacity="1" stroke="#000000" stroke-opacity="1" stroke-width="4.55111"></circle>
<path clip-path="url(#clip120)" d="M2142.14 231.349 L2148.44 231.349 L2163.76 260.261 L2163.76 231.349 L2168.3 231.349 L2168.3 265.909 L2162 265.909 L2146.68 236.997 L2146.68 265.909 L2142.14 265.909 L2142.14 231.349 Z" fill="#000000" fill-rule="nonzero" fill-opacity="1"></path><path clip-path="url(#clip120)" d="M2190.87 235.423 L2179.06 253.872 L2190.87 253.872 L2190.87 235.423 M2189.64 231.349 L2195.52 231.349 L2195.52 253.872 L2200.45 253.872 L2200.45 257.761 L2195.52 257.761 L2195.52 265.909 L2190.87 265.909 L2190.87 257.761 L2175.27 257.761 L2175.27 253.247 L2189.64 231.349 Z" fill="#000000" fill-rule="nonzero" fill-opacity="1"></path><path clip-path="url(#clip120)" d="M2218.18 234.427 Q2214.57 234.427 2212.75 237.992 Q2210.94 241.534 2210.94 248.663 Q2210.94 255.77 2212.75 259.335 Q2214.57 262.876 2218.18 262.876 Q2221.82 262.876 2223.62 259.335 Q2225.45 255.77 2225.45 248.663 Q2225.45 241.534 2223.62 237.992 Q2221.82 234.427 2218.18 234.427 M2218.18 230.724 Q2223.99 230.724 2227.05 235.33 Q2230.13 239.913 2230.13 248.663 Q2230.13 257.39 2227.05 261.997 Q2223.99 266.58 2218.18 266.58 Q2212.37 266.58 2209.3 261.997 Q2206.24 257.39 2206.24 248.663 Q2206.24 239.913 2209.3 235.33 Q2212.37 230.724 2218.18 230.724 Z" fill="#000000" fill-rule="nonzero" fill-opacity="1"></path><path clip-path="url(#clip120)" d="M2248.35 234.427 Q2244.74 234.427 2242.91 237.992 Q2241.1 241.534 2241.1 248.663 Q2241.1 255.77 2242.91 259.335 Q2244.74 262.876 2248.35 262.876 Q2251.98 262.876 2253.79 259.335 Q2255.62 255.77 2255.62 248.663 Q2255.62 241.534 2253.79 237.992 Q2251.98 234.427 2248.35 234.427 M2248.35 230.724 Q2254.16 230.724 2257.21 235.33 Q2260.29 239.913 2260.29 248.663 Q2260.29 257.39 2257.21 261.997 Q2254.16 266.58 2248.35 266.58 Q2242.54 266.58 2239.46 261.997 Q2236.4 257.39 2236.4 248.663 Q2236.4 239.913 2239.46 235.33 Q2242.54 230.724 2248.35 230.724 Z" fill="#000000" fill-rule="nonzero" fill-opacity="1"></path><circle clip-path="url(#clip120)" cx="2049.68" cy="300.469" r="20.48" fill="#c271d2" fill-rule="evenodd" fill-opacity="1" stroke="#000000" stroke-opacity="1" stroke-width="4.55111"></circle>
<path clip-path="url(#clip120)" d="M2142.14 283.189 L2164 283.189 L2164 287.124 L2146.82 287.124 L2146.82 297.355 L2163.28 297.355 L2163.28 301.29 L2146.82 301.29 L2146.82 313.813 L2164.41 313.813 L2164.41 317.749 L2142.14 317.749 L2142.14 283.189 Z" fill="#000000" fill-rule="nonzero" fill-opacity="1"></path><path clip-path="url(#clip120)" d="M2176.77 287.031 L2176.77 300.017 L2182.65 300.017 Q2185.92 300.017 2187.7 298.327 Q2189.48 296.638 2189.48 293.513 Q2189.48 290.411 2187.7 288.721 Q2185.92 287.031 2182.65 287.031 L2176.77 287.031 M2172.1 283.189 L2182.65 283.189 Q2188.46 283.189 2191.43 285.827 Q2194.41 288.443 2194.41 293.513 Q2194.41 298.628 2191.43 301.244 Q2188.46 303.86 2182.65 303.86 L2176.77 303.86 L2176.77 317.749 L2172.1 317.749 L2172.1 283.189 Z" fill="#000000" fill-rule="nonzero" fill-opacity="1"></path><path clip-path="url(#clip120)" d="M2200.68 283.189 L2206.98 283.189 L2222.31 312.101 L2222.31 283.189 L2226.84 283.189 L2226.84 317.749 L2220.55 317.749 L2205.22 288.837 L2205.22 317.749 L2200.68 317.749 L2200.68 283.189 Z" fill="#000000" fill-rule="nonzero" fill-opacity="1"></path><path clip-path="url(#clip120)" d="M2240.82 287.031 L2240.82 300.017 L2246.7 300.017 Q2249.97 300.017 2251.75 298.327 Q2253.53 296.638 2253.53 293.513 Q2253.53 290.411 2251.75 288.721 Q2249.97 287.031 2246.7 287.031 L2240.82 287.031 M2236.15 283.189 L2246.7 283.189 Q2252.51 283.189 2255.48 285.827 Q2258.46 288.443 2258.46 293.513 Q2258.46 298.628 2255.48 301.244 Q2252.51 303.86 2246.7 303.86 L2240.82 303.86 L2240.82 317.749 L2236.15 317.749 L2236.15 283.189 Z" fill="#000000" fill-rule="nonzero" fill-opacity="1"></path><circle clip-path="url(#clip120)" cx="2049.68" cy="352.309" r="20.48" fill="#ac8d18" fill-rule="evenodd" fill-opacity="1" stroke="#000000" stroke-opacity="1" stroke-width="4.55111"></circle>
<path clip-path="url(#clip120)" d="M2146.82 338.871 L2146.82 351.857 L2152.7 351.857 Q2155.96 351.857 2157.75 350.167 Q2159.53 348.478 2159.53 345.353 Q2159.53 342.251 2157.75 340.561 Q2155.96 338.871 2152.7 338.871 L2146.82 338.871 M2142.14 335.029 L2152.7 335.029 Q2158.51 335.029 2161.47 337.667 Q2164.46 340.283 2164.46 345.353 Q2164.46 350.468 2161.47 353.084 Q2158.51 355.7 2152.7 355.7 L2146.82 355.7 L2146.82 369.589 L2142.14 369.589 L2142.14 335.029 Z" fill="#000000" fill-rule="nonzero" fill-opacity="1"></path><path clip-path="url(#clip120)" d="M2181.73 350.445 Q2178.58 350.445 2176.73 352.598 Q2174.9 354.751 2174.9 358.501 Q2174.9 362.228 2176.73 364.403 Q2178.58 366.556 2181.73 366.556 Q2184.87 366.556 2186.7 364.403 Q2188.56 362.228 2188.56 358.501 Q2188.56 354.751 2186.7 352.598 Q2184.87 350.445 2181.73 350.445 M2191.01 335.793 L2191.01 340.052 Q2189.25 339.218 2187.44 338.779 Q2185.66 338.339 2183.9 338.339 Q2179.27 338.339 2176.82 341.464 Q2174.39 344.589 2174.04 350.908 Q2175.41 348.894 2177.47 347.829 Q2179.53 346.742 2182 346.742 Q2187.21 346.742 2190.22 349.913 Q2193.25 353.061 2193.25 358.501 Q2193.25 363.825 2190.11 367.042 Q2186.96 370.26 2181.73 370.26 Q2175.73 370.26 2172.56 365.677 Q2169.39 361.07 2169.39 352.343 Q2169.39 344.149 2173.28 339.288 Q2177.17 334.404 2183.72 334.404 Q2185.48 334.404 2187.26 334.751 Q2189.06 335.098 2191.01 335.793 Z" fill="#000000" fill-rule="nonzero" fill-opacity="1"></path><path clip-path="url(#clip120)" d="M2211.31 338.107 Q2207.7 338.107 2205.87 341.672 Q2204.06 345.214 2204.06 352.343 Q2204.06 359.45 2205.87 363.015 Q2207.7 366.556 2211.31 366.556 Q2214.94 366.556 2216.75 363.015 Q2218.58 359.45 2218.58 352.343 Q2218.58 345.214 2216.75 341.672 Q2214.94 338.107 2211.31 338.107 M2211.31 334.404 Q2217.12 334.404 2220.18 339.01 Q2223.25 343.593 2223.25 352.343 Q2223.25 361.07 2220.18 365.677 Q2217.12 370.26 2211.31 370.26 Q2205.5 370.26 2202.42 365.677 Q2199.37 361.07 2199.37 352.343 Q2199.37 343.593 2202.42 339.01 Q2205.5 334.404 2211.31 334.404 Z" fill="#000000" fill-rule="nonzero" fill-opacity="1"></path><path clip-path="url(#clip120)" d="M2241.47 338.107 Q2237.86 338.107 2236.03 341.672 Q2234.23 345.214 2234.23 352.343 Q2234.23 359.45 2236.03 363.015 Q2237.86 366.556 2241.47 366.556 Q2245.11 366.556 2246.91 363.015 Q2248.74 359.45 2248.74 352.343 Q2248.74 345.214 2246.91 341.672 Q2245.11 338.107 2241.47 338.107 M2241.47 334.404 Q2247.28 334.404 2250.34 339.01 Q2253.42 343.593 2253.42 352.343 Q2253.42 361.07 2250.34 365.677 Q2247.28 370.26 2241.47 370.26 Q2235.66 370.26 2232.58 365.677 Q2229.53 361.07 2229.53 352.343 Q2229.53 343.593 2232.58 339.01 Q2235.66 334.404 2241.47 334.404 Z" fill="#000000" fill-rule="nonzero" fill-opacity="1"></path><circle clip-path="url(#clip120)" cx="2049.68" cy="404.149" r="20.48" fill="#00a9ad" fill-rule="evenodd" fill-opacity="1" stroke="#000000" stroke-opacity="1" stroke-width="4.55111"></circle>
<path clip-path="url(#clip120)" d="M2146.82 390.711 L2146.82 403.697 L2152.7 403.697 Q2155.96 403.697 2157.75 402.007 Q2159.53 400.318 2159.53 397.193 Q2159.53 394.091 2157.75 392.401 Q2155.96 390.711 2152.7 390.711 L2146.82 390.711 M2142.14 386.869 L2152.7 386.869 Q2158.51 386.869 2161.47 389.507 Q2164.46 392.123 2164.46 397.193 Q2164.46 402.308 2161.47 404.924 Q2158.51 407.54 2152.7 407.54 L2146.82 407.54 L2146.82 421.429 L2142.14 421.429 L2142.14 386.869 Z" fill="#000000" fill-rule="nonzero" fill-opacity="1"></path><path clip-path="url(#clip120)" d="M2170.73 386.869 L2177.03 386.869 L2192.35 415.781 L2192.35 386.869 L2196.89 386.869 L2196.89 421.429 L2190.59 421.429 L2175.27 392.517 L2175.27 421.429 L2170.73 421.429 L2170.73 386.869 Z" fill="#000000" fill-rule="nonzero" fill-opacity="1"></path><path clip-path="url(#clip120)" d="M2210.87 390.711 L2210.87 403.697 L2216.75 403.697 Q2220.01 403.697 2221.8 402.007 Q2223.58 400.318 2223.58 397.193 Q2223.58 394.091 2221.8 392.401 Q2220.01 390.711 2216.75 390.711 L2210.87 390.711 M2206.19 386.869 L2216.75 386.869 Q2222.56 386.869 2225.52 389.507 Q2228.51 392.123 2228.51 397.193 Q2228.51 402.308 2225.52 404.924 Q2222.56 407.54 2216.75 407.54 L2210.87 407.54 L2210.87 421.429 L2206.19 421.429 L2206.19 386.869 Z" fill="#000000" fill-rule="nonzero" fill-opacity="1"></path></svg>