<svg xmlns="http://www.w3.org/2000/svg" xmlns:xlink="http://www.w3.org/1999/xlink" width="600" height="400" viewBox="0 0 2400 1600">
<defs>
  <clipPath id="clip580">
    <rect x="0" y="0" width="2400" height="1600"></rect>
  </clipPath>
</defs>
<path clip-path="url(#clip580)" d="M0 1600 L2400 1600 L2400 0 L0 0  Z" fill="#ffffff" fill-rule="evenodd" fill-opacity="1"></path>
<defs>
  <clipPath id="clip581">
    <rect x="480" y="0" width="1681" height="1600"></rect>
  </clipPath>
</defs>
<path clip-path="url(#clip580)" d="M192.941 1486.45 L2352.76 1486.45 L2352.76 123.472 L192.941 123.472  Z" fill="#ffffff" fill-rule="evenodd" fill-opacity="1"></path>
<defs>
  <clipPath id="clip582">
    <rect x="192" y="123" width="2161" height="1364"></rect>
  </clipPath>
</defs>
<polyline clip-path="url(#clip582)" style="stroke:#000000; stroke-linecap:round; stroke-linejoin:round; stroke-width:2; stroke-opacity:0.1; fill:none" points="254.067,1486.45 254.067,123.472 "></polyline>
<polyline clip-path="url(#clip582)" style="stroke:#000000; stroke-linecap:round; stroke-linejoin:round; stroke-width:2; stroke-opacity:0.1; fill:none" points="661.58,1486.45 661.58,123.472 "></polyline>
<polyline clip-path="url(#clip582)" style="stroke:#000000; stroke-linecap:round; stroke-linejoin:round; stroke-width:2; stroke-opacity:0.1; fill:none" points="1069.09,1486.45 1069.09,123.472 "></polyline>
<polyline clip-path="url(#clip582)" style="stroke:#000000; stroke-linecap:round; stroke-linejoin:round; stroke-width:2; stroke-opacity:0.1; fill:none" points="1476.6,1486.45 1476.6,123.472 "></polyline>
<polyline clip-path="url(#clip582)" style="stroke:#000000; stroke-linecap:round; stroke-linejoin:round; stroke-width:2; stroke-opacity:0.1; fill:none" points="1884.12,1486.45 1884.12,123.472 "></polyline>
<polyline clip-path="url(#clip582)" style="stroke:#000000; stroke-linecap:round; stroke-linejoin:round; stroke-width:2; stroke-opacity:0.1; fill:none" points="2291.63,1486.45 2291.63,123.472 "></polyline>
<polyline clip-path="url(#clip580)" style="stroke:#000000; stroke-linecap:round; stroke-linejoin:round; stroke-width:4; stroke-opacity:1; fill:none" points="192.941,1486.45 2352.76,1486.45 "></polyline>
<polyline clip-path="url(#clip580)" style="stroke:#000000; stroke-linecap:round; stroke-linejoin:round; stroke-width:4; stroke-opacity:1; fill:none" points="254.067,1486.45 254.067,1467.55 "></polyline>
<polyline clip-path="url(#clip580)" style="stroke:#000000; stroke-linecap:round; stroke-linejoin:round; stroke-width:4; stroke-opacity:1; fill:none" points="661.58,1486.45 661.58,1467.55 "></polyline>
<polyline clip-path="url(#clip580)" style="stroke:#000000; stroke-linecap:round; stroke-linejoin:round; stroke-width:4; stroke-opacity:1; fill:none" points="1069.09,1486.45 1069.09,1467.55 "></polyline>
<polyline clip-path="url(#clip580)" style="stroke:#000000; stroke-linecap:round; stroke-linejoin:round; stroke-width:4; stroke-opacity:1; fill:none" points="1476.6,1486.45 1476.6,1467.55 "></polyline>
<polyline clip-path="url(#clip580)" style="stroke:#000000; stroke-linecap:round; stroke-linejoin:round; stroke-width:4; stroke-opacity:1; fill:none" points="1884.12,1486.45 1884.12,1467.55 "></polyline>
<polyline clip-path="url(#clip580)" style="stroke:#000000; stroke-linecap:round; stroke-linejoin:round; stroke-width:4; stroke-opacity:1; fill:none" points="2291.63,1486.45 2291.63,1467.55 "></polyline>
<path clip-path="url(#clip580)" d="M244.449 1544.91 L252.088 1544.91 L252.088 1518.55 L243.778 1520.21 L243.778 1515.95 L252.042 1514.29 L256.718 1514.29 L256.718 1544.91 L264.357 1544.91 L264.357 1548.85 L244.449 1548.85 L244.449 1544.91 Z" fill="#000000" fill-rule="nonzero" fill-opacity="1"></path><path clip-path="url(#clip580)" d="M656.233 1544.91 L672.552 1544.91 L672.552 1548.85 L650.608 1548.85 L650.608 1544.91 Q653.27 1542.16 657.853 1537.53 Q662.459 1532.88 663.64 1531.53 Q665.885 1529.01 666.765 1527.27 Q667.668 1525.51 667.668 1523.82 Q667.668 1521.07 665.723 1519.33 Q663.802 1517.6 660.7 1517.6 Q658.501 1517.6 656.047 1518.36 Q653.617 1519.13 650.839 1520.68 L650.839 1515.95 Q653.663 1514.82 656.117 1514.24 Q658.571 1513.66 660.608 1513.66 Q665.978 1513.66 669.172 1516.35 Q672.367 1519.03 672.367 1523.52 Q672.367 1525.65 671.557 1527.57 Q670.77 1529.47 668.663 1532.07 Q668.084 1532.74 664.983 1535.95 Q661.881 1539.15 656.233 1544.91 Z" fill="#000000" fill-rule="nonzero" fill-opacity="1"></path><path clip-path="url(#clip580)" d="M1073.34 1530.21 Q1076.7 1530.93 1078.57 1533.2 Q1080.47 1535.47 1080.47 1538.8 Q1080.47 1543.92 1076.95 1546.72 Q1073.43 1549.52 1066.95 1549.52 Q1064.78 1549.52 1062.46 1549.08 Q1060.17 1548.66 1057.71 1547.81 L1057.71 1543.29 Q1059.66 1544.43 1061.97 1545.01 Q1064.29 1545.58 1066.81 1545.58 Q1071.21 1545.58 1073.5 1543.85 Q1075.82 1542.11 1075.82 1538.8 Q1075.82 1535.75 1073.66 1534.03 Q1071.53 1532.3 1067.71 1532.3 L1063.69 1532.3 L1063.69 1528.45 L1067.9 1528.45 Q1071.35 1528.45 1073.18 1527.09 Q1075.01 1525.7 1075.01 1523.11 Q1075.01 1520.45 1073.11 1519.03 Q1071.23 1517.6 1067.71 1517.6 Q1065.79 1517.6 1063.59 1518.01 Q1061.4 1518.43 1058.76 1519.31 L1058.76 1515.14 Q1061.42 1514.4 1063.73 1514.03 Q1066.07 1513.66 1068.13 1513.66 Q1073.46 1513.66 1076.56 1516.09 Q1079.66 1518.5 1079.66 1522.62 Q1079.66 1525.49 1078.02 1527.48 Q1076.37 1529.45 1073.34 1530.21 Z" fill="#000000" fill-rule="nonzero" fill-opacity="1"></path><path clip-path="url(#clip580)" d="M1479.61 1518.36 L1467.81 1536.81 L1479.61 1536.81 L1479.61 1518.36 M1478.39 1514.29 L1484.27 1514.29 L1484.27 1536.81 L1489.2 1536.81 L1489.2 1540.7 L1484.27 1540.7 L1484.27 1548.85 L1479.61 1548.85 L1479.61 1540.7 L1464.01 1540.7 L1464.01 1536.19 L1478.39 1514.29 Z" fill="#000000" fill-rule="nonzero" fill-opacity="1"></path><path clip-path="url(#clip580)" d="M1874.39 1514.29 L1892.75 1514.29 L1892.75 1518.22 L1878.68 1518.22 L1878.68 1526.7 Q1879.7 1526.35 1880.71 1526.19 Q1881.73 1526 1882.75 1526 Q1888.54 1526 1891.92 1529.17 Q1895.3 1532.34 1895.3 1537.76 Q1895.3 1543.34 1891.83 1546.44 Q1888.35 1549.52 1882.03 1549.52 Q1879.86 1549.52 1877.59 1549.15 Q1875.34 1548.78 1872.94 1548.04 L1872.94 1543.34 Q1875.02 1544.47 1877.24 1545.03 Q1879.46 1545.58 1881.94 1545.58 Q1885.95 1545.58 1888.28 1543.48 Q1890.62 1541.37 1890.62 1537.76 Q1890.62 1534.15 1888.28 1532.04 Q1885.95 1529.94 1881.94 1529.94 Q1880.07 1529.94 1878.19 1530.35 Q1876.34 1530.77 1874.39 1531.65 L1874.39 1514.29 Z" fill="#000000" fill-rule="nonzero" fill-opacity="1"></path><path clip-path="url(#clip580)" d="M2292.03 1529.7 Q2288.89 1529.7 2287.03 1531.86 Q2285.21 1534.01 2285.21 1537.76 Q2285.21 1541.49 2287.03 1543.66 Q2288.89 1545.82 2292.03 1545.82 Q2295.18 1545.82 2297.01 1543.66 Q2298.86 1541.49 2298.86 1537.76 Q2298.86 1534.01 2297.01 1531.86 Q2295.18 1529.7 2292.03 1529.7 M2301.32 1515.05 L2301.32 1519.31 Q2299.56 1518.48 2297.75 1518.04 Q2295.97 1517.6 2294.21 1517.6 Q2289.58 1517.6 2287.13 1520.72 Q2284.7 1523.85 2284.35 1530.17 Q2285.71 1528.15 2287.77 1527.09 Q2289.84 1526 2292.31 1526 Q2297.52 1526 2300.53 1529.17 Q2303.56 1532.32 2303.56 1537.76 Q2303.56 1543.08 2300.41 1546.3 Q2297.27 1549.52 2292.03 1549.52 Q2286.04 1549.52 2282.87 1544.94 Q2279.7 1540.33 2279.7 1531.6 Q2279.7 1523.41 2283.59 1518.55 Q2287.47 1513.66 2294.02 1513.66 Q2295.78 1513.66 2297.57 1514.01 Q2299.37 1514.36 2301.32 1515.05 Z" fill="#000000" fill-rule="nonzero" fill-opacity="1"></path><polyline clip-path="url(#clip582)" style="stroke:#000000; stroke-linecap:round; stroke-linejoin:round; stroke-width:2; stroke-opacity:0.1; fill:none" points="192.941,1160.57 2352.76,1160.57 "></polyline>
<polyline clip-path="url(#clip582)" style="stroke:#000000; stroke-linecap:round; stroke-linejoin:round; stroke-width:2; stroke-opacity:0.1; fill:none" points="192.941,823.225 2352.76,823.225 "></polyline>
<polyline clip-path="url(#clip582)" style="stroke:#000000; stroke-linecap:round; stroke-linejoin:round; stroke-width:2; stroke-opacity:0.1; fill:none" points="192.941,485.885 2352.76,485.885 "></polyline>
<polyline clip-path="url(#clip582)" style="stroke:#000000; stroke-linecap:round; stroke-linejoin:round; stroke-width:2; stroke-opacity:0.1; fill:none" points="192.941,148.544 2352.76,148.544 "></polyline>
<polyline clip-path="url(#clip580)" style="stroke:#000000; stroke-linecap:round; stroke-linejoin:round; stroke-width:4; stroke-opacity:1; fill:none" points="192.941,1486.45 192.941,123.472 "></polyline>
<polyline clip-path="url(#clip580)" style="stroke:#000000; stroke-linecap:round; stroke-linejoin:round; stroke-width:4; stroke-opacity:1; fill:none" points="192.941,1160.57 211.838,1160.57 "></polyline>
<polyline clip-path="url(#clip580)" style="stroke:#000000; stroke-linecap:round; stroke-linejoin:round; stroke-width:4; stroke-opacity:1; fill:none" points="192.941,823.225 211.838,823.225 "></polyline>
<polyline clip-path="url(#clip580)" style="stroke:#000000; stroke-linecap:round; stroke-linejoin:round; stroke-width:4; stroke-opacity:1; fill:none" points="192.941,485.885 211.838,485.885 "></polyline>
<polyline clip-path="url(#clip580)" style="stroke:#000000; stroke-linecap:round; stroke-linejoin:round; stroke-width:4; stroke-opacity:1; fill:none" points="192.941,148.544 211.838,148.544 "></polyline>
<path clip-path="url(#clip580)" d="M50.9921 1161.02 L80.6679 1161.02 L80.6679 1164.95 L50.9921 1164.95 L50.9921 1161.02 Z" fill="#000000" fill-rule="nonzero" fill-opacity="1"></path><path clip-path="url(#clip580)" d="M100.76 1146.36 Q97.1493 1146.36 95.3206 1149.93 Q93.515 1153.47 93.515 1160.6 Q93.515 1167.71 95.3206 1171.27 Q97.1493 1174.81 100.76 1174.81 Q104.395 1174.81 106.2 1171.27 Q108.029 1167.71 108.029 1160.6 Q108.029 1153.47 106.2 1149.93 Q104.395 1146.36 100.76 1146.36 M100.76 1142.66 Q106.571 1142.66 109.626 1147.27 Q112.705 1151.85 112.705 1160.6 Q112.705 1169.33 109.626 1173.93 Q106.571 1178.52 100.76 1178.52 Q94.9502 1178.52 91.8715 1173.93 Q88.816 1169.33 88.816 1160.6 Q88.816 1151.85 91.8715 1147.27 Q94.9502 1142.66 100.76 1142.66 Z" fill="#000000" fill-rule="nonzero" fill-opacity="1"></path><path clip-path="url(#clip580)" d="M120.922 1171.97 L125.807 1171.97 L125.807 1177.85 L120.922 1177.85 L120.922 1171.97 Z" fill="#000000" fill-rule="nonzero" fill-opacity="1"></path><path clip-path="url(#clip580)" d="M136.038 1143.29 L154.394 1143.29 L154.394 1147.22 L140.32 1147.22 L140.32 1155.69 Q141.339 1155.35 142.357 1155.18 Q143.376 1155 144.394 1155 Q150.181 1155 153.561 1158.17 Q156.941 1161.34 156.941 1166.76 Q156.941 1172.34 153.468 1175.44 Q149.996 1178.52 143.677 1178.52 Q141.501 1178.52 139.232 1178.15 Q136.987 1177.78 134.58 1177.04 L134.58 1172.34 Q136.663 1173.47 138.885 1174.03 Q141.107 1174.58 143.584 1174.58 Q147.589 1174.58 149.927 1172.48 Q152.265 1170.37 152.265 1166.76 Q152.265 1163.15 149.927 1161.04 Q147.589 1158.93 143.584 1158.93 Q141.709 1158.93 139.834 1159.35 Q137.982 1159.77 136.038 1160.65 L136.038 1143.29 Z" fill="#000000" fill-rule="nonzero" fill-opacity="1"></path><path clip-path="url(#clip580)" d="M99.765 809.024 Q96.1539 809.024 94.3252 812.589 Q92.5197 816.131 92.5197 823.26 Q92.5197 830.367 94.3252 833.931 Q96.1539 837.473 99.765 837.473 Q103.399 837.473 105.205 833.931 Q107.033 830.367 107.033 823.26 Q107.033 816.131 105.205 812.589 Q103.399 809.024 99.765 809.024 M99.765 805.32 Q105.575 805.32 108.631 809.927 Q111.709 814.51 111.709 823.26 Q111.709 831.987 108.631 836.593 Q105.575 841.177 99.765 841.177 Q93.9549 841.177 90.8762 836.593 Q87.8206 831.987 87.8206 823.26 Q87.8206 814.51 90.8762 809.927 Q93.9549 805.32 99.765 805.32 Z" fill="#000000" fill-rule="nonzero" fill-opacity="1"></path><path clip-path="url(#clip580)" d="M119.927 834.626 L124.811 834.626 L124.811 840.505 L119.927 840.505 L119.927 834.626 Z" fill="#000000" fill-rule="nonzero" fill-opacity="1"></path><path clip-path="url(#clip580)" d="M144.996 809.024 Q141.385 809.024 139.556 812.589 Q137.751 816.131 137.751 823.26 Q137.751 830.367 139.556 833.931 Q141.385 837.473 144.996 837.473 Q148.63 837.473 150.436 833.931 Q152.265 830.367 152.265 823.26 Q152.265 816.131 150.436 812.589 Q148.63 809.024 144.996 809.024 M144.996 805.32 Q150.806 805.32 153.862 809.927 Q156.941 814.51 156.941 823.26 Q156.941 831.987 153.862 836.593 Q150.806 841.177 144.996 841.177 Q139.186 841.177 136.107 836.593 Q133.052 831.987 133.052 823.26 Q133.052 814.51 136.107 809.927 Q139.186 805.32 144.996 805.32 Z" fill="#000000" fill-rule="nonzero" fill-opacity="1"></path><path clip-path="url(#clip580)" d="M100.76 471.683 Q97.1493 471.683 95.3206 475.248 Q93.515 478.79 93.515 485.919 Q93.515 493.026 95.3206 496.591 Q97.1493 500.132 100.76 500.132 Q104.395 500.132 106.2 496.591 Q108.029 493.026 108.029 485.919 Q108.029 478.79 106.2 475.248 Q104.395 471.683 100.76 471.683 M100.76 467.98 Q106.571 467.98 109.626 472.586 Q112.705 477.169 112.705 485.919 Q112.705 494.646 109.626 499.253 Q106.571 503.836 100.76 503.836 Q94.9502 503.836 91.8715 499.253 Q88.816 494.646 88.816 485.919 Q88.816 477.169 91.8715 472.586 Q94.9502 467.98 100.76 467.98 Z" fill="#000000" fill-rule="nonzero" fill-opacity="1"></path><path clip-path="url(#clip580)" d="M120.922 497.285 L125.807 497.285 L125.807 503.165 L120.922 503.165 L120.922 497.285 Z" fill="#000000" fill-rule="nonzero" fill-opacity="1"></path><path clip-path="url(#clip580)" d="M136.038 468.605 L154.394 468.605 L154.394 472.54 L140.32 472.54 L140.32 481.012 Q141.339 480.665 142.357 480.503 Q143.376 480.318 144.394 480.318 Q150.181 480.318 153.561 483.489 Q156.941 486.66 156.941 492.077 Q156.941 497.655 153.468 500.757 Q149.996 503.836 143.677 503.836 Q141.501 503.836 139.232 503.466 Q136.987 503.095 134.58 502.355 L134.58 497.655 Q136.663 498.79 138.885 499.345 Q141.107 499.901 143.584 499.901 Q147.589 499.901 149.927 497.794 Q152.265 495.688 152.265 492.077 Q152.265 488.466 149.927 486.359 Q147.589 484.253 143.584 484.253 Q141.709 484.253 139.834 484.669 Q137.982 485.086 136.038 485.966 L136.038 468.605 Z" fill="#000000" fill-rule="nonzero" fill-opacity="1"></path><path clip-path="url(#clip580)" d="M90.5752 161.889 L98.2141 161.889 L98.2141 135.523 L89.904 137.19 L89.904 132.931 L98.1678 131.264 L102.844 131.264 L102.844 161.889 L110.483 161.889 L110.483 165.824 L90.5752 165.824 L90.5752 161.889 Z" fill="#000000" fill-rule="nonzero" fill-opacity="1"></path><path clip-path="url(#clip580)" d="M119.927 159.944 L124.811 159.944 L124.811 165.824 L119.927 165.824 L119.927 159.944 Z" fill="#000000" fill-rule="nonzero" fill-opacity="1"></path><path clip-path="url(#clip580)" d="M144.996 134.343 Q141.385 134.343 139.556 137.907 Q137.751 141.449 137.751 148.579 Q137.751 155.685 139.556 159.25 Q141.385 162.792 144.996 162.792 Q148.63 162.792 150.436 159.25 Q152.265 155.685 152.265 148.579 Q152.265 141.449 150.436 137.907 Q148.63 134.343 144.996 134.343 M144.996 130.639 Q150.806 130.639 153.862 135.245 Q156.941 139.829 156.941 148.579 Q156.941 157.305 153.862 161.912 Q150.806 166.495 144.996 166.495 Q139.186 166.495 136.107 161.912 Q133.052 157.305 133.052 148.579 Q133.052 139.829 136.107 135.245 Q139.186 130.639 144.996 130.639 Z" fill="#000000" fill-rule="nonzero" fill-opacity="1"></path><path clip-path="url(#clip580)" d="M929.149 18.8205 L929.149 41.5461 L939.439 41.5461 Q945.15 41.5461 948.27 38.5889 Q951.389 35.6318 951.389 30.163 Q951.389 24.7348 948.27 21.7777 Q945.15 18.8205 939.439 18.8205 L929.149 18.8205 M920.966 12.096 L939.439 12.096 Q949.606 12.096 954.792 16.714 Q960.017 21.2916 960.017 30.163 Q960.017 39.1155 954.792 43.6931 Q949.606 48.2706 939.439 48.2706 L929.149 48.2706 L929.149 72.576 L920.966 72.576 L920.966 12.096 Z" fill="#000000" fill-rule="nonzero" fill-opacity="1"></path><path clip-path="url(#clip580)" d="M1016.28 16.7545 L1016.28 25.383 Q1012.15 21.5346 1007.45 19.6307 Q1002.79 17.7268 997.529 17.7268 Q987.158 17.7268 981.649 24.0867 Q976.14 30.4061 976.14 42.3968 Q976.14 54.3469 981.649 60.7069 Q987.158 67.0263 997.529 67.0263 Q1002.79 67.0263 1007.45 65.1223 Q1012.15 63.2184 1016.28 59.3701 L1016.28 67.9175 Q1011.99 70.8341 1007.17 72.2924 Q1002.39 73.7508 997.042 73.7508 Q983.31 73.7508 975.411 65.3654 Q967.511 56.9395 967.511 42.3968 Q967.511 27.8135 975.411 19.4281 Q983.31 11.0023 997.042 11.0023 Q1002.47 11.0023 1007.25 12.4606 Q1012.07 13.8784 1016.28 16.7545 Z" fill="#000000" fill-rule="nonzero" fill-opacity="1"></path><path clip-path="url(#clip580)" d="M1049.14 20.1573 L1038.04 50.2555 L1060.28 50.2555 L1049.14 20.1573 M1044.52 12.096 L1053.8 12.096 L1076.85 72.576 L1068.34 72.576 L1062.83 57.061 L1035.57 57.061 L1030.06 72.576 L1021.43 72.576 L1044.52 12.096 Z" fill="#000000" fill-rule="nonzero" fill-opacity="1"></path><path clip-path="url(#clip580)" d="M1157.34 16.7545 L1157.34 25.383 Q1153.2 21.5346 1148.51 19.6307 Q1143.85 17.7268 1138.58 17.7268 Q1128.21 17.7268 1122.7 24.0867 Q1117.19 30.4061 1117.19 42.3968 Q1117.19 54.3469 1122.7 60.7069 Q1128.21 67.0263 1138.58 67.0263 Q1143.85 67.0263 1148.51 65.1223 Q1153.2 63.2184 1157.34 59.3701 L1157.34 67.9175 Q1153.04 70.8341 1148.22 72.2924 Q1143.44 73.7508 1138.09 73.7508 Q1124.36 73.7508 1116.46 65.3654 Q1108.56 56.9395 1108.56 42.3968 Q1108.56 27.8135 1116.46 19.4281 Q1124.36 11.0023 1138.09 11.0023 Q1143.52 11.0023 1148.3 12.4606 Q1153.12 13.8784 1157.34 16.7545 Z" fill="#000000" fill-rule="nonzero" fill-opacity="1"></path><path clip-path="url(#clip580)" d="M1187.23 32.4315 Q1181.24 32.4315 1177.75 37.1306 Q1174.27 41.7891 1174.27 49.9314 Q1174.27 58.0738 1177.71 62.7728 Q1181.2 67.4314 1187.23 67.4314 Q1193.19 67.4314 1196.67 62.7323 Q1200.15 58.0333 1200.15 49.9314 Q1200.15 41.8701 1196.67 37.1711 Q1193.19 32.4315 1187.23 32.4315 M1187.23 26.1121 Q1196.95 26.1121 1202.5 32.4315 Q1208.05 38.7509 1208.05 49.9314 Q1208.05 61.0714 1202.5 67.4314 Q1196.95 73.7508 1187.23 73.7508 Q1177.47 73.7508 1171.92 67.4314 Q1166.41 61.0714 1166.41 49.9314 Q1166.41 38.7509 1171.92 32.4315 Q1177.47 26.1121 1187.23 26.1121 Z" fill="#000000" fill-rule="nonzero" fill-opacity="1"></path><path clip-path="url(#clip580)" d="M1255.73 35.9153 Q1258.53 30.8922 1262.42 28.5022 Q1266.31 26.1121 1271.57 26.1121 Q1278.66 26.1121 1282.51 31.0947 Q1286.36 36.0368 1286.36 45.1919 L1286.36 72.576 L1278.86 72.576 L1278.86 45.4349 Q1278.86 38.913 1276.55 35.7533 Q1274.25 32.5936 1269.51 32.5936 Q1263.71 32.5936 1260.35 36.4419 Q1256.99 40.2903 1256.99 46.9338 L1256.99 72.576 L1249.49 72.576 L1249.49 45.4349 Q1249.49 38.8725 1247.19 35.7533 Q1244.88 32.5936 1240.06 32.5936 Q1234.34 32.5936 1230.98 36.4824 Q1227.62 40.3308 1227.62 46.9338 L1227.62 72.576 L1220.13 72.576 L1220.13 27.2059 L1227.62 27.2059 L1227.62 34.2544 Q1230.17 30.082 1233.74 28.0971 Q1237.3 26.1121 1242.2 26.1121 Q1247.15 26.1121 1250.59 28.6237 Q1254.07 31.1352 1255.73 35.9153 Z" fill="#000000" fill-rule="nonzero" fill-opacity="1"></path><path clip-path="url(#clip580)" d="M1308.44 65.7705 L1308.44 89.8329 L1300.94 89.8329 L1300.94 27.2059 L1308.44 27.2059 L1308.44 34.0924 Q1310.78 30.0415 1314.35 28.0971 Q1317.96 26.1121 1322.94 26.1121 Q1331.2 26.1121 1336.35 32.6746 Q1341.53 39.2371 1341.53 49.9314 Q1341.53 60.6258 1336.35 67.1883 Q1331.2 73.7508 1322.94 73.7508 Q1317.96 73.7508 1314.35 71.8063 Q1310.78 69.8214 1308.44 65.7705 M1333.79 49.9314 Q1333.79 41.7081 1330.39 37.0496 Q1327.03 32.3505 1321.11 32.3505 Q1315.2 32.3505 1311.8 37.0496 Q1308.44 41.7081 1308.44 49.9314 Q1308.44 58.1548 1311.8 62.8538 Q1315.2 67.5124 1321.11 67.5124 Q1327.03 67.5124 1330.39 62.8538 Q1333.79 58.1548 1333.79 49.9314 Z" fill="#000000" fill-rule="nonzero" fill-opacity="1"></path><path clip-path="url(#clip580)" d="M1371.47 32.4315 Q1365.47 32.4315 1361.99 37.1306 Q1358.5 41.7891 1358.5 49.9314 Q1358.5 58.0738 1361.95 62.7728 Q1365.43 67.4314 1371.47 67.4314 Q1377.42 67.4314 1380.91 62.7323 Q1384.39 58.0333 1384.39 49.9314 Q1384.39 41.8701 1380.91 37.1711 Q1377.42 32.4315 1371.47 32.4315 M1371.47 26.1121 Q1381.19 26.1121 1386.74 32.4315 Q1392.29 38.7509 1392.29 49.9314 Q1392.29 61.0714 1386.74 67.4314 Q1381.19 73.7508 1371.47 73.7508 Q1361.7 73.7508 1356.16 67.4314 Q1350.65 61.0714 1350.65 49.9314 Q1350.65 38.7509 1356.16 32.4315 Q1361.7 26.1121 1371.47 26.1121 Z" fill="#000000" fill-rule="nonzero" fill-opacity="1"></path><path clip-path="url(#clip580)" d="M1442.36 45.1919 L1442.36 72.576 L1434.9 72.576 L1434.9 45.4349 Q1434.9 38.994 1432.39 35.7938 Q1429.88 32.5936 1424.86 32.5936 Q1418.82 32.5936 1415.34 36.4419 Q1411.86 40.2903 1411.86 46.9338 L1411.86 72.576 L1404.36 72.576 L1404.36 27.2059 L1411.86 27.2059 L1411.86 34.2544 Q1414.53 30.163 1418.13 28.1376 Q1421.78 26.1121 1426.52 26.1121 Q1434.34 26.1121 1438.35 30.9732 Q1442.36 35.7938 1442.36 45.1919 Z" fill="#000000" fill-rule="nonzero" fill-opacity="1"></path><path clip-path="url(#clip580)" d="M1496.03 48.0275 L1496.03 51.6733 L1461.76 51.6733 Q1462.25 59.3701 1466.38 63.421 Q1470.55 67.4314 1477.97 67.4314 Q1482.26 67.4314 1486.27 66.3781 Q1490.32 65.3249 1494.29 63.2184 L1494.29 70.267 Q1490.28 71.9684 1486.07 72.8596 Q1481.85 73.7508 1477.52 73.7508 Q1466.66 73.7508 1460.3 67.4314 Q1453.98 61.1119 1453.98 50.3365 Q1453.98 39.1965 1459.98 32.6746 Q1466.02 26.1121 1476.22 26.1121 Q1485.38 26.1121 1490.69 32.0264 Q1496.03 37.9003 1496.03 48.0275 M1488.58 45.84 Q1488.5 39.7232 1485.14 36.0774 Q1481.81 32.4315 1476.3 32.4315 Q1470.07 32.4315 1466.3 35.9558 Q1462.57 39.4801 1462.01 45.8805 L1488.58 45.84 Z" fill="#000000" fill-rule="nonzero" fill-opacity="1"></path><path clip-path="url(#clip580)" d="M1545.98 45.1919 L1545.98 72.576 L1538.53 72.576 L1538.53 45.4349 Q1538.53 38.994 1536.02 35.7938 Q1533.5 32.5936 1528.48 32.5936 Q1522.44 32.5936 1518.96 36.4419 Q1515.48 40.2903 1515.48 46.9338 L1515.48 72.576 L1507.98 72.576 L1507.98 27.2059 L1515.48 27.2059 L1515.48 34.2544 Q1518.15 30.163 1521.76 28.1376 Q1525.4 26.1121 1530.14 26.1121 Q1537.96 26.1121 1541.97 30.9732 Q1545.98 35.7938 1545.98 45.1919 Z" fill="#000000" fill-rule="nonzero" fill-opacity="1"></path><path clip-path="url(#clip580)" d="M1568.22 14.324 L1568.22 27.2059 L1583.57 27.2059 L1583.57 32.9987 L1568.22 32.9987 L1568.22 57.6282 Q1568.22 63.1779 1569.72 64.7578 Q1571.26 66.3376 1575.92 66.3376 L1583.57 66.3376 L1583.57 72.576 L1575.92 72.576 Q1567.29 72.576 1564.01 69.3758 Q1560.73 66.1351 1560.73 57.6282 L1560.73 32.9987 L1555.26 32.9987 L1555.26 27.2059 L1560.73 27.2059 L1560.73 14.324 L1568.22 14.324 Z" fill="#000000" fill-rule="nonzero" fill-opacity="1"></path><path clip-path="url(#clip580)" d="M1622.3 28.5427 L1622.3 35.5912 Q1619.14 33.9709 1615.74 33.1607 Q1612.33 32.3505 1608.69 32.3505 Q1603.14 32.3505 1600.34 34.0519 Q1597.59 35.7533 1597.59 39.156 Q1597.59 41.7486 1599.57 43.2475 Q1601.56 44.7058 1607.55 46.0426 L1610.11 46.6097 Q1618.05 48.3111 1621.37 51.4303 Q1624.73 54.509 1624.73 60.0587 Q1624.73 66.3781 1619.71 70.0644 Q1614.72 73.7508 1605.97 73.7508 Q1602.33 73.7508 1598.36 73.0216 Q1594.43 72.3329 1590.05 70.9151 L1590.05 63.2184 Q1594.19 65.3654 1598.2 66.4591 Q1602.21 67.5124 1606.14 67.5124 Q1611.4 67.5124 1614.24 65.73 Q1617.07 63.9071 1617.07 60.6258 Q1617.07 57.5877 1615.01 55.9673 Q1612.98 54.3469 1606.06 52.8481 L1603.46 52.2405 Q1596.54 50.7821 1593.46 47.7845 Q1590.38 44.7463 1590.38 39.4801 Q1590.38 33.0797 1594.92 29.5959 Q1599.45 26.1121 1607.8 26.1121 Q1611.93 26.1121 1615.58 26.7198 Q1619.22 27.3274 1622.3 28.5427 Z" fill="#000000" fill-rule="nonzero" fill-opacity="1"></path><circle clip-path="url(#clip582)" cx="254.067" cy="832.994" r="14.4" fill="#009af9" fill-rule="evenodd" fill-opacity="1" stroke="#000000" stroke-opacity="1" stroke-width="3.2"></circle>
<circle clip-path="url(#clip582)" cx="661.58" cy="668.322" r="14.4" fill="#009af9" fill-rule="evenodd" fill-opacity="1" stroke="#000000" stroke-opacity="1" stroke-width="3.2"></circle>
<circle clip-path="url(#clip582)" cx="1069.09" cy="1447.87" r="14.4" fill="#009af9" fill-rule="evenodd" fill-opacity="1" stroke="#000000" stroke-opacity="1" stroke-width="3.2"></circle>
<circle clip-path="url(#clip582)" cx="1476.6" cy="623.451" r="14.4" fill="#009af9" fill-rule="evenodd" fill-opacity="1" stroke="#000000" stroke-opacity="1" stroke-width="3.2"></circle>
<circle clip-path="url(#clip582)" cx="1884.12" cy="794.873" r="14.4" fill="#009af9" fill-rule="evenodd" fill-opacity="1" stroke="#000000" stroke-opacity="1" stroke-width="3.2"></circle>
<circle clip-path="url(#clip582)" cx="2291.63" cy="837.584" r="14.4" fill="#009af9" fill-rule="evenodd" fill-opacity="1" stroke="#000000" stroke-opacity="1" stroke-width="3.2"></circle>
<circle clip-path="url(#clip582)" cx="254.067" cy="806.669" r="14.4" fill="#e26f46" fill-rule="evenodd" fill-opacity="1" stroke="#000000" stroke-opacity="1" stroke-width="3.2"></circle>
<circle clip-path="url(#clip582)" cx="661.58" cy="355.115" r="14.4" fill="#e26f46" fill-rule="evenodd" fill-opacity="1" stroke="#000000" stroke-opacity="1" stroke-width="3.2"></circle>
<circle clip-path="url(#clip582)" cx="1069.09" cy="794.642" r="14.4" fill="#e26f46" fill-rule="evenodd" fill-opacity="1" stroke="#000000" stroke-opacity="1" stroke-width="3.2"></circle>
<circle clip-path="url(#clip582)" cx="1476.6" cy="1027.43" r="14.4" fill="#e26f46" fill-rule="evenodd" fill-opacity="1" stroke="#000000" stroke-opacity="1" stroke-width="3.2"></circle>
<circle clip-path="url(#clip582)" cx="1884.12" cy="1168.97" r="14.4" fill="#e26f46" fill-rule="evenodd" fill-opacity="1" stroke="#000000" stroke-opacity="1" stroke-width="3.2"></circle>
<circle clip-path="url(#clip582)" cx="2291.63" cy="551.674" r="14.4" fill="#e26f46" fill-rule="evenodd" fill-opacity="1" stroke="#000000" stroke-opacity="1" stroke-width="3.2"></circle>
<circle clip-path="url(#clip582)" cx="254.067" cy="796.105" r="14.4" fill="#3da44d" fill-rule="evenodd" fill-opacity="1" stroke="#000000" stroke-opacity="1" stroke-width="3.2"></circle>
<circle clip-path="url(#clip582)" cx="661.58" cy="411.094" r="14.4" fill="#3da44d" fill-rule="evenodd" fill-opacity="1" stroke="#000000" stroke-opacity="1" stroke-width="3.2"></circle>
<circle clip-path="url(#clip582)" cx="1069.09" cy="615.957" r="14.4" fill="#3da44d" fill-rule="evenodd" fill-opacity="1" stroke="#000000" stroke-opacity="1" stroke-width="3.2"></circle>
<circle clip-path="url(#clip582)" cx="1476.6" cy="552.152" r="14.4" fill="#3da44d" fill-rule="evenodd" fill-opacity="1" stroke="#000000" stroke-opacity="1" stroke-width="3.2"></circle>
<circle clip-path="url(#clip582)" cx="1884.12" cy="413.224" r="14.4" fill="#3da44d" fill-rule="evenodd" fill-opacity="1" stroke="#000000" stroke-opacity="1" stroke-width="3.2"></circle>
<circle clip-path="url(#clip582)" cx="2291.63" cy="831.28" r="14.4" fill="#3da44d" fill-rule="evenodd" fill-opacity="1" stroke="#000000" stroke-opacity="1" stroke-width="3.2"></circle>
<circle clip-path="url(#clip582)" cx="254.067" cy="726.125" r="14.4" fill="#c271d2" fill-rule="evenodd" fill-opacity="1" stroke="#000000" stroke-opacity="1" stroke-width="3.2"></circle>
<circle clip-path="url(#clip582)" cx="661.58" cy="627.28" r="14.4" fill="#c271d2" fill-rule="evenodd" fill-opacity="1" stroke="#000000" stroke-opacity="1" stroke-width="3.2"></circle>
<circle clip-path="url(#clip582)" cx="1069.09" cy="858.154" r="14.4" fill="#c271d2" fill-rule="evenodd" fill-opacity="1" stroke="#000000" stroke-opacity="1" stroke-width="3.2"></circle>
<circle clip-path="url(#clip582)" cx="1476.6" cy="1120.08" r="14.4" fill="#c271d2" fill-rule="evenodd" fill-opacity="1" stroke="#000000" stroke-opacity="1" stroke-width="3.2"></circle>
<circle clip-path="url(#clip582)" cx="1884.12" cy="823.766" r="14.4" fill="#c271d2" fill-rule="evenodd" fill-opacity="1" stroke="#000000" stroke-opacity="1" stroke-width="3.2"></circle>
<circle clip-path="url(#clip582)" cx="2291.63" cy="1387.16" r="14.4" fill="#c271d2" fill-rule="evenodd" fill-opacity="1" stroke="#000000" stroke-opacity="1" stroke-width="3.2"></circle>
<circle clip-path="url(#clip582)" cx="254.067" cy="736.597" r="14.4" fill="#ac8d18" fill-rule="evenodd" fill-opacity="1" stroke="#000000" stroke-opacity="1" stroke-width="3.2"></circle>
<circle clip-path="url(#clip582)" cx="661.58" cy="801.597" r="14.4" fill="#ac8d18" fill-rule="evenodd" fill-opacity="1" stroke="#000000" stroke-opacity="1" stroke-width="3.2"></circle>
<circle clip-path="url(#clip582)" cx="1069.09" cy="685.284" r="14.4" fill="#ac8d18" fill-rule="evenodd" fill-opacity="1" stroke="#000000" stroke-opacity="1" stroke-width="3.2"></circle>
<circle clip-path="url(#clip582)" cx="1476.6" cy="363.232" r="14.4" fill="#ac8d18" fill-rule="evenodd" fill-opacity="1" stroke="#000000" stroke-opacity="1" stroke-width="3.2"></circle>
<circle clip-path="url(#clip582)" cx="1884.12" cy="1229.03" r="14.4" fill="#ac8d18" fill-rule="evenodd" fill-opacity="1" stroke="#000000" stroke-opacity="1" stroke-width="3.2"></circle>
<circle clip-path="url(#clip582)" cx="2291.63" cy="1051.09" r="14.4" fill="#ac8d18" fill-rule="evenodd" fill-opacity="1" stroke="#000000" stroke-opacity="1" stroke-width="3.2"></circle>
<circle clip-path="url(#clip582)" cx="254.067" cy="162.047" r="14.4" fill="#00a9ad" fill-rule="evenodd" fill-opacity="1" stroke="#000000" stroke-opacity="1" stroke-width="3.2"></circle>
<circle clip-path="url(#clip582)" cx="661.58" cy="881.174" r="14.4" fill="#00a9ad" fill-rule="evenodd" fill-opacity="1" stroke="#000000" stroke-opacity="1" stroke-width="3.2"></circle>
<circle clip-path="url(#clip582)" cx="1069.09" cy="854.615" r="14.4" fill="#00a9ad" fill-rule="evenodd" fill-opacity="1" stroke="#000000" stroke-opacity="1" stroke-width="3.2"></circle>
<circle clip-path="url(#clip582)" cx="1476.6" cy="842.952" r="14.4" fill="#00a9ad" fill-rule="evenodd" fill-opacity="1" stroke="#000000" stroke-opacity="1" stroke-width="3.2"></circle>
<circle clip-path="url(#clip582)" cx="1884.12" cy="777.718" r="14.4" fill="#00a9ad" fill-rule="evenodd" fill-opacity="1" stroke="#000000" stroke-opacity="1" stroke-width="3.2"></circle>
<circle clip-path="url(#clip582)" cx="2291.63" cy="717.232" r="14.4" fill="#00a9ad" fill-rule="evenodd" fill-opacity="1" stroke="#000000" stroke-opacity="1" stroke-width="3.2"></circle>
<path clip-path="url(#clip580)" d="M264.934 1441.02 L599.064 1441.02 L599.064 1078.14 L264.934 1078.14  Z" fill="#ffffff" fill-rule="evenodd" fill-opacity="1"></path>
<polyline clip-path="url(#clip580)" style="stroke:#000000; stroke-linecap:round; stroke-linejoin:round; stroke-width:4; stroke-opacity:1; fill:none" points="264.934,1441.02 599.064,1441.02 599.064,1078.14 264.934,1078.14 264.934,1441.02 "></polyline>
<circle clip-path="url(#clip580)" cx="360.926" cy="1129.98" r="20.48" fill="#009af9" fill-rule="evenodd" fill-opacity="1" stroke="#000000" stroke-opacity="1" stroke-width="4.55111"></circle>
<path clip-path="url(#clip580)" d="M456.918 1112.7 L478.77 1112.7 L478.77 1116.63 L461.594 1116.63 L461.594 1126.86 L478.052 1126.86 L478.052 1130.8 L461.594 1130.8 L461.594 1143.32 L479.186 1143.32 L479.186 1147.26 L456.918 1147.26 L456.918 1112.7 Z" fill="#000000" fill-rule="nonzero" fill-opacity="1"></path><path clip-path="url(#clip580)" d="M486.872 1112.7 L491.547 1112.7 L491.547 1143.32 L508.376 1143.32 L508.376 1147.26 L486.872 1147.26 L486.872 1112.7 Z" fill="#000000" fill-rule="nonzero" fill-opacity="1"></path><path clip-path="url(#clip580)" d="M525.922 1117.3 L519.58 1134.5 L532.288 1134.5 L525.922 1117.3 M523.283 1112.7 L528.584 1112.7 L541.756 1147.26 L536.894 1147.26 L533.746 1138.39 L518.168 1138.39 L515.02 1147.26 L510.089 1147.26 L523.283 1112.7 Z" fill="#000000" fill-rule="nonzero" fill-opacity="1"></path><path clip-path="url(#clip580)" d="M546.802 1112.7 L553.098 1112.7 L568.422 1141.61 L568.422 1112.7 L572.959 1112.7 L572.959 1147.26 L566.663 1147.26 L551.339 1118.34 L551.339 1147.26 L546.802 1147.26 L546.802 1112.7 Z" fill="#000000" fill-rule="nonzero" fill-opacity="1"></path><circle clip-path="url(#clip580)" cx="360.926" cy="1181.82" r="20.48" fill="#e26f46" fill-rule="evenodd" fill-opacity="1" stroke="#000000" stroke-opacity="1" stroke-width="4.55111"></circle>
<path clip-path="url(#clip580)" d="M456.918 1164.54 L461.594 1164.54 L461.594 1195.16 L478.423 1195.16 L478.423 1199.1 L456.918 1199.1 L456.918 1164.54 Z" fill="#000000" fill-rule="nonzero" fill-opacity="1"></path><path clip-path="url(#clip580)" d="M495.969 1169.14 L489.626 1186.34 L502.334 1186.34 L495.969 1169.14 M493.33 1164.54 L498.631 1164.54 L511.802 1199.1 L506.941 1199.1 L503.793 1190.23 L488.214 1190.23 L485.066 1199.1 L480.136 1199.1 L493.33 1164.54 Z" fill="#000000" fill-rule="nonzero" fill-opacity="1"></path><path clip-path="url(#clip580)" d="M516.848 1164.54 L523.145 1164.54 L538.469 1193.45 L538.469 1164.54 L543.006 1164.54 L543.006 1199.1 L536.709 1199.1 L521.385 1170.18 L521.385 1199.1 L516.848 1199.1 L516.848 1164.54 Z" fill="#000000" fill-rule="nonzero" fill-opacity="1"></path><circle clip-path="url(#clip580)" cx="360.926" cy="1233.66" r="20.48" fill="#3da44d" fill-rule="evenodd" fill-opacity="1" stroke="#000000" stroke-opacity="1" stroke-width="4.55111"></circle>
<path clip-path="url(#clip580)" d="M456.918 1216.38 L463.214 1216.38 L478.538 1245.29 L478.538 1216.38 L483.075 1216.38 L483.075 1250.94 L476.779 1250.94 L461.455 1222.02 L461.455 1250.94 L456.918 1250.94 L456.918 1216.38 Z" fill="#000000" fill-rule="nonzero" fill-opacity="1"></path><path clip-path="url(#clip580)" d="M505.645 1220.45 L493.839 1238.9 L505.645 1238.9 L505.645 1220.45 M504.418 1216.38 L510.297 1216.38 L510.297 1238.9 L515.228 1238.9 L515.228 1242.79 L510.297 1242.79 L510.297 1250.94 L505.645 1250.94 L505.645 1242.79 L490.043 1242.79 L490.043 1238.27 L504.418 1216.38 Z" fill="#000000" fill-rule="nonzero" fill-opacity="1"></path><path clip-path="url(#clip580)" d="M532.959 1219.45 Q529.348 1219.45 527.52 1223.02 Q525.714 1226.56 525.714 1233.69 Q525.714 1240.8 527.52 1244.36 Q529.348 1247.9 532.959 1247.9 Q536.594 1247.9 538.399 1244.36 Q540.228 1240.8 540.228 1233.69 Q540.228 1226.56 538.399 1223.02 Q536.594 1219.45 532.959 1219.45 M532.959 1215.75 Q538.769 1215.75 541.825 1220.36 Q544.904 1224.94 544.904 1233.69 Q544.904 1242.42 541.825 1247.02 Q538.769 1251.61 532.959 1251.61 Q527.149 1251.61 524.07 1247.02 Q521.015 1242.42 521.015 1233.69 Q521.015 1224.94 524.07 1220.36 Q527.149 1215.75 532.959 1215.75 Z" fill="#000000" fill-rule="nonzero" fill-opacity="1"></path><path clip-path="url(#clip580)" d="M563.121 1219.45 Q559.51 1219.45 557.681 1223.02 Q555.876 1226.56 555.876 1233.69 Q555.876 1240.8 557.681 1244.36 Q559.51 1247.9 563.121 1247.9 Q566.755 1247.9 568.561 1244.36 Q570.39 1240.8 570.39 1233.69 Q570.39 1226.56 568.561 1223.02 Q566.755 1219.45 563.121 1219.45 M563.121 1215.75 Q568.931 1215.75 571.987 1220.36 Q575.066 1224.94 575.066 1233.69 Q575.066 1242.42 571.987 1247.02 Q568.931 1251.61 563.121 1251.61 Q557.311 1251.61 554.232 1247.02 Q551.177 1242.42 551.177 1233.69 Q551.177 1224.94 554.232 1220.36 Q557.311 1215.75 563.121 1215.75 Z" fill="#000000" fill-rule="nonzero" fill-opacity="1"></path><circle clip-path="url(#clip580)" cx="360.926" cy="1285.5" r="20.48" fill="#c271d2" fill-rule="evenodd" fill-opacity="1" stroke="#000000" stroke-opacity="1" stroke-width="4.55111"></circle>
<path clip-path="url(#clip580)" d="M456.918 1268.22 L478.77 1268.22 L478.77 1272.15 L461.594 1272.15 L461.594 1282.38 L478.052 1282.38 L478.052 1286.32 L461.594 1286.32 L461.594 1298.84 L479.186 1298.84 L479.186 1302.78 L456.918 1302.78 L456.918 1268.22 Z" fill="#000000" fill-rule="nonzero" fill-opacity="1"></path><path clip-path="url(#clip580)" d="M491.547 1272.06 L491.547 1285.04 L497.427 1285.04 Q500.691 1285.04 502.473 1283.35 Q504.256 1281.66 504.256 1278.54 Q504.256 1275.44 502.473 1273.75 Q500.691 1272.06 497.427 1272.06 L491.547 1272.06 M486.872 1268.22 L497.427 1268.22 Q503.237 1268.22 506.2 1270.85 Q509.186 1273.47 509.186 1278.54 Q509.186 1283.66 506.2 1286.27 Q503.237 1288.89 497.427 1288.89 L491.547 1288.89 L491.547 1302.78 L486.872 1302.78 L486.872 1268.22 Z" fill="#000000" fill-rule="nonzero" fill-opacity="1"></path><path clip-path="url(#clip580)" d="M515.459 1268.22 L521.756 1268.22 L537.08 1297.13 L537.08 1268.22 L541.617 1268.22 L541.617 1302.78 L535.32 1302.78 L519.996 1273.86 L519.996 1302.78 L515.459 1302.78 L515.459 1268.22 Z" fill="#000000" fill-rule="nonzero" fill-opacity="1"></path><path clip-path="url(#clip580)" d="M555.598 1272.06 L555.598 1285.04 L561.478 1285.04 Q564.742 1285.04 566.524 1283.35 Q568.306 1281.66 568.306 1278.54 Q568.306 1275.44 566.524 1273.75 Q564.742 1272.06 561.478 1272.06 L555.598 1272.06 M550.922 1268.22 L561.478 1268.22 Q567.288 1268.22 570.251 1270.85 Q573.237 1273.47 573.237 1278.54 Q573.237 1283.66 570.251 1286.27 Q567.288 1288.89 561.478 1288.89 L555.598 1288.89 L555.598 1302.78 L550.922 1302.78 L550.922 1268.22 Z" fill="#000000" fill-rule="nonzero" fill-opacity="1"></path><circle clip-path="url(#clip580)" cx="360.926" cy="1337.34" r="20.48" fill="#ac8d18" fill-rule="evenodd" fill-opacity="1" stroke="#000000" stroke-opacity="1" stroke-width="4.55111"></circle>
<path clip-path="url(#clip580)" d="M461.594 1323.9 L461.594 1336.88 L467.474 1336.88 Q470.737 1336.88 472.52 1335.19 Q474.302 1333.5 474.302 1330.38 Q474.302 1327.28 472.52 1325.59 Q470.737 1323.9 467.474 1323.9 L461.594 1323.9 M456.918 1320.06 L467.474 1320.06 Q473.284 1320.06 476.247 1322.69 Q479.233 1325.31 479.233 1330.38 Q479.233 1335.5 476.247 1338.11 Q473.284 1340.73 467.474 1340.73 L461.594 1340.73 L461.594 1354.62 L456.918 1354.62 L456.918 1320.06 Z" fill="#000000" fill-rule="nonzero" fill-opacity="1"></path><path clip-path="url(#clip580)" d="M496.501 1335.47 Q493.353 1335.47 491.501 1337.62 Q489.673 1339.78 489.673 1343.53 Q489.673 1347.25 491.501 1349.43 Q493.353 1351.58 496.501 1351.58 Q499.649 1351.58 501.478 1349.43 Q503.33 1347.25 503.33 1343.53 Q503.33 1339.78 501.478 1337.62 Q499.649 1335.47 496.501 1335.47 M505.784 1320.82 L505.784 1325.08 Q504.024 1324.25 502.219 1323.81 Q500.436 1323.37 498.677 1323.37 Q494.047 1323.37 491.594 1326.49 Q489.163 1329.62 488.816 1335.93 Q490.182 1333.92 492.242 1332.86 Q494.302 1331.77 496.779 1331.77 Q501.987 1331.77 504.997 1334.94 Q508.029 1338.09 508.029 1343.53 Q508.029 1348.85 504.881 1352.07 Q501.733 1355.29 496.501 1355.29 Q490.506 1355.29 487.335 1350.7 Q484.163 1346.1 484.163 1337.37 Q484.163 1329.18 488.052 1324.31 Q491.941 1319.43 498.492 1319.43 Q500.251 1319.43 502.034 1319.78 Q503.839 1320.12 505.784 1320.82 Z" fill="#000000" fill-rule="nonzero" fill-opacity="1"></path><path clip-path="url(#clip580)" d="M526.084 1323.13 Q522.473 1323.13 520.645 1326.7 Q518.839 1330.24 518.839 1337.37 Q518.839 1344.48 520.645 1348.04 Q522.473 1351.58 526.084 1351.58 Q529.719 1351.58 531.524 1348.04 Q533.353 1344.48 533.353 1337.37 Q533.353 1330.24 531.524 1326.7 Q529.719 1323.13 526.084 1323.13 M526.084 1319.43 Q531.895 1319.43 534.95 1324.04 Q538.029 1328.62 538.029 1337.37 Q538.029 1346.1 534.95 1350.7 Q531.895 1355.29 526.084 1355.29 Q520.274 1355.29 517.196 1350.7 Q514.14 1346.1 514.14 1337.37 Q514.14 1328.62 517.196 1324.04 Q520.274 1319.43 526.084 1319.43 Z" fill="#000000" fill-rule="nonzero" fill-opacity="1"></path><path clip-path="url(#clip580)" d="M556.246 1323.13 Q552.635 1323.13 550.806 1326.7 Q549.001 1330.24 549.001 1337.37 Q549.001 1344.48 550.806 1348.04 Q552.635 1351.58 556.246 1351.58 Q559.88 1351.58 561.686 1348.04 Q563.515 1344.48 563.515 1337.37 Q563.515 1330.24 561.686 1326.7 Q559.88 1323.13 556.246 1323.13 M556.246 1319.43 Q562.056 1319.43 565.112 1324.04 Q568.191 1328.62 568.191 1337.37 Q568.191 1346.1 565.112 1350.7 Q562.056 1355.29 556.246 1355.29 Q550.436 1355.29 547.357 1350.7 Q544.302 1346.1 544.302 1337.37 Q544.302 1328.62 547.357 1324.04 Q550.436 1319.43 556.246 1319.43 Z" fill="#000000" fill-rule="nonzero" fill-opacity="1"></path><circle clip-path="url(#clip580)" cx="360.926" cy="1389.18" r="20.48" fill="#00a9ad" fill-rule="evenodd" fill-opacity="1" stroke="#000000" stroke-opacity="1" stroke-width="4.55111"></circle>
<path clip-path="url(#clip580)" d="M461.594 1375.74 L461.594 1388.72 L467.474 1388.72 Q470.737 1388.72 472.52 1387.03 Q474.302 1385.34 474.302 1382.22 Q474.302 1379.12 472.52 1377.43 Q470.737 1375.74 467.474 1375.74 L461.594 1375.74 M456.918 1371.9 L467.474 1371.9 Q473.284 1371.9 476.247 1374.53 Q479.233 1377.15 479.233 1382.22 Q479.233 1387.34 476.247 1389.95 Q473.284 1392.57 467.474 1392.57 L461.594 1392.57 L461.594 1406.46 L456.918 1406.46 L456.918 1371.9 Z" fill="#000000" fill-rule="nonzero" fill-opacity="1"></path><path clip-path="url(#clip580)" d="M485.506 1371.9 L491.802 1371.9 L507.126 1400.81 L507.126 1371.9 L511.663 1371.9 L511.663 1406.46 L505.367 1406.46 L490.043 1377.54 L490.043 1406.46 L485.506 1406.46 L485.506 1371.9 Z" fill="#000000" fill-rule="nonzero" fill-opacity="1"></path><path clip-path="url(#clip580)" d="M525.645 1375.74 L525.645 1388.72 L531.524 1388.72 Q534.788 1388.72 536.57 1387.03 Q538.353 1385.34 538.353 1382.22 Q538.353 1379.12 536.57 1377.43 Q534.788 1375.74 531.524 1375.74 L525.645 1375.74 M520.969 1371.9 L531.524 1371.9 Q537.334 1371.9 540.297 1374.53 Q543.283 1377.15 543.283 1382.22 Q543.283 1387.34 540.297 1389.95 Q537.334 1392.57 531.524 1392.57 L525.645 1392.57 L525.645 1406.46 L520.969 1406.46 L520.969 1371.9 Z" fill="#000000" fill-rule="nonzero" fill-opacity="1"></path></svg>